<?xml version="1.0" encoding="utf-8"?>
<!-- Generator: Adobe Illustrator 25.3.1, SVG Export Plug-In . SVG Version: 6.00 Build 0)  -->
<svg version="1.1" id="圖層_1" xmlns="http://www.w3.org/2000/svg" xmlns:xlink="http://www.w3.org/1999/xlink" x="0px" y="0px"
	 viewBox="0 0 529.1 756" style="enable-background:new 0 0 529.1 756;" xml:space="preserve">
<style type="text/css">
	.st0{clip-path:url(#SVGID_2_);fill:#FFB9A5;}
	.st1{clip-path:url(#SVGID_2_);}
	.st2{fill:#E8FFDC;}
	.st3{fill:#D9F7E5;}
	.st4{fill:url(#SVGID_3_);}
	.st5{fill:#F7F2B6;}
	.st6{fill:#F88F6D;}
	.st7{fill:url(#SVGID_4_);fill-opacity:0.94;}
	.st8{fill:#FFB9A5;}
	.st9{fill:#F5F5F5;}
	.st10{fill:#E0E0E0;}
	.st11{clip-path:url(#SVGID_2_);fill:#C7E3D9;}
	.st12{clip-path:url(#SVGID_2_);fill:#FFFFFF;}
	.st13{clip-path:url(#SVGID_2_);fill:#F5F5F5;}
	.st14{opacity:0.1;clip-path:url(#SVGID_2_);}
	.st15{opacity:0.1;clip-path:url(#SVGID_2_);enable-background:new    ;}
	.st16{opacity:0.1;clip-path:url(#SVGID_2_);fill:#E8FFDC;enable-background:new    ;}
	.st17{clip-path:url(#SVGID_2_);fill:#E0E0E0;}
</style>
<g>
	<defs>
		<rect id="SVGID_1_" y="1.2" width="529.1" height="754.8"/>
	</defs>
	<clipPath id="SVGID_2_">
		<use xlink:href="#SVGID_1_"  style="overflow:visible;"/>
	</clipPath>
	<rect y="1.2" class="st0" width="529.1" height="754.8"/>
	<g class="st1">
		<g>
			<path class="st2" d="M734.2,1029.5c122.2-15.1,226.3-137,226.2-265.9c0-100.8-56.6-183.4-158-198c-49.3-7.1-137-12.6-137-80.2
				c0-15.4,4.2-30.7,5.5-45.9c8.6-93.4-77.7-153.7-162.7-156.5C399,279.5,306.7,392.6,399.2,481.6c44.2,42.5,154.5,47.4,116,129.4
				c-62.5,133.3-47.9,317.1,93.5,393.8C646.9,1026.1,690.7,1034.7,734.2,1029.5z"/>
			<path class="st3" d="M398.4,246.2c25.3,15.1,58.1,6.7,73.3-18.6c15.2-25.4,7-58.2-18.3-73.2c-25.3-15.1-58.1-6.7-73.3,18.6
				C364.9,198.3,373.1,231.1,398.4,246.2z"/>
			<path class="st2" d="M-267.4,684.8c29.6,26.5,62.9,49.8,99.2,69.4c74.7,40.1,164,62.3,252.3,55.9c83.9-6,162.4-36.9,244.9-51.7
				c54.1-9.7,113.9-11.6,166.5,4.8c47.1,14.8,76.5,48.5,118.9,68.8c46.2,22.2,100.5,29.2,152.6,19.8c84-16,148.8-77.8,172.3-146.5
				c30-87.5-52.9-256.9-188.7-208.3c-41,14.7-81.2,47.3-128.7,41c-49.5-6.6-79.8-49.6-101.9-83.5c-54.2-82.7-156.2-102.7-259.5-83
				c-38,7.3-72.3,20.3-107.3,33c-11.7,4.2-23.4,8.4-35.3,12.3c-105.1,36.5-209.1-2.1-316.2-27.6c-47.9-10.9-91.3-3.1-138.2,1.3
				c-12.6,3-24.5,8-35,14.7c-64.6,42.3-16.1,136.6,21.3,187.8C-326.4,626-298.7,656.7-267.4,684.8z"/>
			
				<linearGradient id="SVGID_3_" gradientUnits="userSpaceOnUse" x1="338.3195" y1="501.0425" x2="-53.4992" y2="-273.7637" gradientTransform="matrix(1 0 0 -1 0 755.89)">
				<stop  offset="0" style="stop-color:#DCFFF0;stop-opacity:0.99"/>
				<stop  offset="1" style="stop-color:#DCFFF0;stop-opacity:0"/>
			</linearGradient>
			<path class="st4" d="M625.2,806.2C634.2,683.5,572.9,574,476,517.7c-9.1-5.2-18.5-10-28.3-14.3l-96.1-49.1
				c-59.6-30.4-141.3-78.5-147.4-136.7c-5.6-52.7-5.3-104.2-48.9-146.6C62,80.1-126.7,114.3-214,194.3c-25.3,23.1-44.9,50.3-57.6,80
				c-12.7,29.6-18.3,61.1-16.3,92.6s11.3,62.2,27.6,90.5c16.3,28.3,39.1,53.4,67.1,74c35.5,26.7,98.3,35.2,107.1,81.4
				c10.8,56.1-26.5,132.8-26.2,192c0.3,74.4,19.9,150.8,74.7,210.1c9.8,10.5,20.3,20.5,31.6,29.9c66,54.5,155.2,81.3,246.3,85.8
				C496.1,1143.2,612.6,979.1,625.2,806.2z"/>
			<path class="st5" d="M394.1,236H313c-3.5,0-6.4,2.8-6.4,6.4v24.3c0,3.5,2.9,6.4,6.4,6.4h81.2c3.5,0,6.4-2.8,6.4-6.4v-24.3
				C400.6,238.8,397.7,236,394.1,236z"/>
			<path class="st5" d="M355.5,284l11-11h-23L355.5,284z"/>
			<path class="st6" d="M-128.4,338v-2c79.8-1.3,156.9-13.1,221.9-33.9c6.3-2,12.8-4.2,19-6.4c28.7-9.8,58.3-19.9,93.8-21.4
				c25.9-1.2,54.7,2.4,85.8,10.7c12.9,3.4,25.3,7.3,37.3,11.1c12,3.8,24.5,7.7,37.3,11.1c58.9,15.6,168,20.9,229.2,15.9l0.8,2
				c-61.9,5-172.6-0.4-232.3-16.2c-13-3.4-25.5-7.4-37.6-11.2c-12.1-3.8-24.3-7.7-37-11c-30.2-8-58.1-11.5-83-10.4
				c-34.2,1.5-63.3,11.5-91.5,21c-6.2,2.1-12.7,4.4-19.1,6.4C30.4,324.8-47.7,336.7-128.4,338z"/>
			<path class="st5" d="M-1.4,358v-2c79.8-1.3,156.9-13.1,221.9-33.9c6.3-2,12.8-4.2,19-6.4c28.7-9.8,58.3-19.9,93.8-21.4
				c25.9-1.2,54.7,2.4,85.8,10.7c12.9,3.4,25.3,7.3,37.3,11.1c12,3.8,24.5,7.7,37.3,11.1c58.9,15.6,168,20.9,229.2,15.9l0.8,2
				c-61.9,5-172.6-0.4-232.3-16.2c-13-3.4-25.5-7.4-37.6-11.2c-12.1-3.8-24.3-7.7-37-11c-30.2-8-58.1-11.5-83-10.4
				c-34.2,1.5-63.3,11.5-91.5,21c-6.2,2.1-12.7,4.4-19.1,6.4C157.4,344.8,79.3,356.7-1.4,358z"/>
			<path d="M326.5,259.2c-0.5,0-1-0.1-1.5-0.2c-0.5-0.1-0.9-0.3-1.3-0.5c-0.4-0.2-0.7-0.6-0.9-0.9c-0.2-0.4-0.3-0.8-0.3-1.4h1.6
				c0,0.4,0.1,0.7,0.3,0.9s0.5,0.4,0.9,0.5s0.8,0.2,1.4,0.2c0.4,0,0.8-0.1,1-0.2s0.5-0.2,0.6-0.4c0.1-0.2,0.2-0.4,0.2-0.6
				c0-0.3-0.1-0.5-0.3-0.7c-0.2-0.2-0.4-0.4-0.8-0.5l-1-0.4v-1.4l1.8,0.6c0.7,0.2,1.2,0.6,1.6,0.9c0.3,0.4,0.5,0.9,0.5,1.5
				c0,0.4-0.1,0.9-0.4,1.3c-0.3,0.4-0.7,0.7-1.2,1C328.1,259.1,327.4,259.2,326.5,259.2z M325.8,260.4v-11.7h1.2v11.7H325.8z
				 M326.1,255l-1-0.4c-0.8-0.3-1.4-0.6-1.8-1s-0.6-0.9-0.6-1.5c0-0.7,0.3-1.3,0.9-1.8c0.6-0.5,1.5-0.7,2.7-0.7c1.1,0,2,0.2,2.5,0.7
				c0.6,0.5,0.9,1.1,1.1,2h-1.6c-0.1-0.4-0.3-0.7-0.6-0.9c-0.3-0.2-0.8-0.4-1.4-0.4c-0.6,0-1.1,0.1-1.4,0.3
				c-0.3,0.2-0.5,0.5-0.5,0.8c0,0.2,0.1,0.4,0.2,0.6c0.2,0.1,0.4,0.3,0.7,0.4l0.7,0.3V255z M337.2,256.3v-0.6c0-0.4,0-0.7,0.1-1
				c0.1-0.3,0.2-0.5,0.4-0.7c0.2-0.2,0.5-0.4,0.8-0.5c0.3-0.1,0.5-0.3,0.7-0.4c0.2-0.1,0.3-0.3,0.3-0.4c0.1-0.1,0.1-0.3,0.1-0.5
				c0-0.3-0.1-0.5-0.4-0.7c-0.2-0.2-0.6-0.3-1-0.3c-0.5,0-0.9,0.1-1.1,0.3c-0.3,0.2-0.4,0.5-0.4,0.9h-1.7c0.1-0.8,0.4-1.5,0.9-2
				c0.6-0.5,1.3-0.7,2.3-0.7c0.7,0,1.2,0.1,1.7,0.3c0.5,0.2,0.9,0.5,1.1,0.9c0.3,0.4,0.4,0.8,0.4,1.3c0,0.5-0.1,0.9-0.4,1.2
				c-0.2,0.3-0.6,0.6-1.1,0.9c-0.3,0.2-0.5,0.3-0.7,0.4c-0.2,0.1-0.3,0.3-0.4,0.4c-0.1,0.2-0.1,0.4-0.1,0.6v0.4H337.2z M338.1,259.2
				c-0.3,0-0.6-0.1-0.8-0.3c-0.2-0.2-0.3-0.5-0.3-0.8c0-0.3,0.1-0.6,0.3-0.8c0.2-0.2,0.5-0.3,0.8-0.3c0.3,0,0.6,0.1,0.8,0.3
				c0.2,0.2,0.3,0.5,0.3,0.8c0,0.3-0.1,0.6-0.3,0.8C338.7,259.1,338.4,259.2,338.1,259.2z M348,256.3v-0.6c0-0.4,0-0.7,0.1-1
				c0.1-0.3,0.2-0.5,0.4-0.7c0.2-0.2,0.5-0.4,0.8-0.5c0.3-0.1,0.5-0.3,0.7-0.4c0.2-0.1,0.3-0.3,0.3-0.4c0.1-0.1,0.1-0.3,0.1-0.5
				c0-0.3-0.1-0.5-0.4-0.7c-0.2-0.2-0.6-0.3-1-0.3c-0.5,0-0.9,0.1-1.1,0.3c-0.3,0.2-0.4,0.5-0.4,0.9h-1.7c0.1-0.8,0.4-1.5,0.9-2
				c0.6-0.5,1.3-0.7,2.3-0.7c0.7,0,1.2,0.1,1.7,0.3c0.5,0.2,0.9,0.5,1.1,0.9c0.3,0.4,0.4,0.8,0.4,1.3c0,0.5-0.1,0.9-0.4,1.2
				c-0.2,0.3-0.6,0.6-1.1,0.9c-0.3,0.2-0.5,0.3-0.7,0.4c-0.2,0.1-0.3,0.3-0.4,0.4c-0.1,0.2-0.1,0.4-0.1,0.6v0.4H348z M348.8,259.2
				c-0.3,0-0.6-0.1-0.8-0.3c-0.2-0.2-0.3-0.5-0.3-0.8c0-0.3,0.1-0.6,0.3-0.8c0.2-0.2,0.5-0.3,0.8-0.3c0.3,0,0.6,0.1,0.8,0.3
				c0.2,0.2,0.3,0.5,0.3,0.8c0,0.3-0.1,0.6-0.3,0.8C349.5,259.1,349.2,259.2,348.8,259.2z M358.7,256.3v-0.6c0-0.4,0-0.7,0.1-1
				c0.1-0.3,0.2-0.5,0.4-0.7c0.2-0.2,0.5-0.4,0.8-0.5c0.3-0.1,0.5-0.3,0.7-0.4c0.2-0.1,0.3-0.3,0.3-0.4c0.1-0.1,0.1-0.3,0.1-0.5
				c0-0.3-0.1-0.5-0.4-0.7c-0.2-0.2-0.6-0.3-1-0.3c-0.5,0-0.9,0.1-1.1,0.3c-0.3,0.2-0.4,0.5-0.4,0.9h-1.7c0.1-0.8,0.4-1.5,0.9-2
				c0.6-0.5,1.3-0.7,2.3-0.7c0.7,0,1.2,0.1,1.7,0.3c0.5,0.2,0.9,0.5,1.1,0.9c0.3,0.4,0.4,0.8,0.4,1.3c0,0.5-0.1,0.9-0.4,1.2
				c-0.2,0.3-0.6,0.6-1.1,0.9c-0.3,0.2-0.5,0.3-0.7,0.4c-0.2,0.1-0.3,0.3-0.4,0.4c-0.1,0.2-0.1,0.4-0.1,0.6v0.4H358.7z M359.6,259.2
				c-0.3,0-0.6-0.1-0.8-0.3c-0.2-0.2-0.3-0.5-0.3-0.8c0-0.3,0.1-0.6,0.3-0.8c0.2-0.2,0.5-0.3,0.8-0.3c0.3,0,0.6,0.1,0.8,0.3
				c0.2,0.2,0.3,0.5,0.3,0.8c0,0.3-0.1,0.6-0.3,0.8C360.2,259.1,359.9,259.2,359.6,259.2z M369.5,256.3v-0.6c0-0.4,0-0.7,0.1-1
				c0.1-0.3,0.2-0.5,0.4-0.7c0.2-0.2,0.5-0.4,0.8-0.5c0.3-0.1,0.5-0.3,0.7-0.4c0.2-0.1,0.3-0.3,0.3-0.4c0.1-0.1,0.1-0.3,0.1-0.5
				c0-0.3-0.1-0.5-0.4-0.7c-0.2-0.2-0.6-0.3-1-0.3c-0.5,0-0.9,0.1-1.1,0.3c-0.3,0.2-0.4,0.5-0.4,0.9h-1.7c0.1-0.8,0.4-1.5,0.9-2
				c0.6-0.5,1.3-0.7,2.3-0.7c0.7,0,1.2,0.1,1.7,0.3c0.5,0.2,0.9,0.5,1.1,0.9c0.3,0.4,0.4,0.8,0.4,1.3c0,0.5-0.1,0.9-0.4,1.2
				c-0.2,0.3-0.6,0.6-1.1,0.9c-0.3,0.2-0.5,0.3-0.7,0.4c-0.2,0.1-0.3,0.3-0.4,0.4c-0.1,0.2-0.1,0.4-0.1,0.6v0.4H369.5z M370.4,259.2
				c-0.3,0-0.6-0.1-0.8-0.3c-0.2-0.2-0.3-0.5-0.3-0.8c0-0.3,0.1-0.6,0.3-0.8c0.2-0.2,0.5-0.3,0.8-0.3c0.3,0,0.6,0.1,0.8,0.3
				c0.2,0.2,0.3,0.5,0.3,0.8c0,0.3-0.1,0.6-0.3,0.8C371,259.1,370.7,259.2,370.4,259.2z M380.3,256.3v-0.6c0-0.4,0-0.7,0.1-1
				c0.1-0.3,0.2-0.5,0.4-0.7c0.2-0.2,0.5-0.4,0.8-0.5c0.3-0.1,0.5-0.3,0.7-0.4c0.2-0.1,0.3-0.3,0.3-0.4c0.1-0.1,0.1-0.3,0.1-0.5
				c0-0.3-0.1-0.5-0.4-0.7c-0.2-0.2-0.6-0.3-1-0.3c-0.5,0-0.9,0.1-1.1,0.3c-0.3,0.2-0.4,0.5-0.4,0.9h-1.7c0.1-0.8,0.4-1.5,0.9-2
				c0.6-0.5,1.3-0.7,2.3-0.7c0.7,0,1.2,0.1,1.7,0.3c0.5,0.2,0.9,0.5,1.1,0.9s0.4,0.8,0.4,1.3c0,0.5-0.1,0.9-0.4,1.2
				c-0.2,0.3-0.6,0.6-1.1,0.9c-0.3,0.2-0.5,0.3-0.7,0.4c-0.2,0.1-0.3,0.3-0.4,0.4c-0.1,0.2-0.1,0.4-0.1,0.6v0.4H380.3z M381.2,259.2
				c-0.3,0-0.6-0.1-0.8-0.3c-0.2-0.2-0.3-0.5-0.3-0.8c0-0.3,0.1-0.6,0.3-0.8c0.2-0.2,0.5-0.3,0.8-0.3c0.3,0,0.6,0.1,0.8,0.3
				c0.2,0.2,0.3,0.5,0.3,0.8c0,0.3-0.1,0.6-0.3,0.8C381.8,259.1,381.5,259.2,381.2,259.2z"/>
			
				<linearGradient id="SVGID_4_" gradientUnits="userSpaceOnUse" x1="130.4543" y1="390.7237" x2="23.5433" y2="211.1977" gradientTransform="matrix(1 0 0 -1 0 755.89)">
				<stop  offset="0" style="stop-color:#FFF6A4"/>
				<stop  offset="1" style="stop-color:#FFF6A4;stop-opacity:0"/>
			</linearGradient>
			<path class="st7" d="M51.6,561.3C25.7,547,4.6,525.3-9,498.9c-10-20.1-15.4-42.2-15.9-64.7c-0.5-22.5,4-44.8,13.1-65.4
				C-0.3,344,24.3,323.4,51.6,325c29.7,1.9,51.5,28.8,64.9,55.4c15.2,30.2,24.7,62.8,34.2,95.3c6.6,22.7,19.8,61.1,4.9,83.2
				c-16,23.5-53.9,21.5-77.2,14.1C69.1,570.1,60.1,566.1,51.6,561.3z"/>
			<path class="st8" d="M194.7,175.8c4.2,11.1,5,23.2,2.4,34.8c-2.7,11.6-8.7,22.1-17.4,30.2c-8.7,8.1-19.5,13.5-31.2,15.5
				c-11.7,1.9-23.7,0.4-34.6-4.5c-10.8-4.9-19.9-12.9-26.2-23c-6.3-10.1-9.4-21.8-9-33.7c0.4-11.9,4.3-23.4,11.2-33
				c6.9-9.7,16.5-17,27.7-21.2c14.9-5.6,31.4-5.1,45.8,1.5C177.8,148.9,189,160.9,194.7,175.8z"/>
			<path class="st9" d="M188.4,212.4c-2.9,10.9-9.1,20.8-17.6,28.2c-8.5,7.5-19.1,12.2-30.3,13.7c-11.2,1.5-22.6-0.4-32.8-5.5
				c-10.2-5-18.6-13-24.2-22.8s-8.2-21.1-7.5-32.4c0.8-11.3,4.9-22.1,11.8-31.1c6.9-9,16.3-15.7,27.1-19.3c10.7-3.6,22.3-4,33.2-1
				c7.2,2,14,5.3,20,9.9c5.9,4.6,10.9,10.3,14.7,16.8c3.7,6.5,6.2,13.7,7.1,21.1C190.9,197.6,190.4,205.1,188.4,212.4z"/>
			<path class="st9" d="M176.7,209.8c-2.2,8.3-6.9,15.8-13.4,21.5c-6.5,5.7-14.5,9.3-23.1,10.4c-8.6,1.1-17.3-0.3-25-4.2
				c-7.7-3.8-14.2-9.9-18.5-17.4c-4.3-7.5-6.3-16.1-5.7-24.7c0.6-8.6,3.7-16.9,9-23.7s12.5-12,20.6-14.7c8.2-2.8,17-3,25.3-0.7
				c11.2,3,20.7,10.3,26.4,20.4C178.1,186.8,179.7,198.7,176.7,209.8z"/>
			<path class="st10" d="M175.3,208.8c0-0.2,0.1-0.5,0.1-0.7c0.1-0.5,0.2-1.2,0.4-2c0.1-0.5,0.2-0.9,0.3-1.5s0.1-1.2,0.2-1.8
				c0.2-1.5,0.3-3,0.3-4.6c0.1-4.2-0.5-8.4-1.7-12.4c-2.7-9.7-8.8-18.1-17-23.8c-8.3-5.7-18.3-8.4-28.3-7.5c-2,0.2-4.1,0.5-6.1,0.9
				c-1,0.2-2,0.6-3,0.8c-1,0.3-2,0.6-3,1c-2,0.8-3.9,1.7-5.8,2.7c-1.9,1.1-3.7,2.3-5.4,3.7c-3.5,2.8-6.6,6.1-9.1,9.8
				c-2.5,3.9-4.5,8.1-5.7,12.5c-1.2,4.5-1.7,9.1-1.4,13.7c0.2,4.5,1.2,8.9,2.9,13.1c0.8,2,1.7,4,2.8,5.9c1.1,1.8,2.3,3.6,3.6,5.3
				c1.3,1.7,2.7,3.2,4.2,4.7c1.5,1.4,3.1,2.7,4.8,3.9c6.3,4.4,13.7,7.1,21.4,7.8c6.1,0.5,12.3-0.3,18-2.4c5.8-2,11.1-5.3,15.5-9.5
				c3.1-2.9,5.7-6.2,7.7-9.9c0.8-1.3,1.5-2.7,2.1-4.1c0.3-0.6,0.5-1.2,0.8-1.7l0.5-1.4l0.7-2C175.1,209.2,175.2,209,175.3,208.8
				c0,0.2-0.1,0.4-0.2,0.6c-0.2,0.5-0.4,1.2-0.6,2l-0.5,1.5c-0.2,0.5-0.5,1.1-0.7,1.7c-0.6,1.4-1.2,2.8-2,4.2c-2,3.7-4.6,7.1-7.7,10
				c-4.5,4.3-9.8,7.7-15.7,9.8c-5.9,2.1-12.1,3-18.3,2.5c-7.8-0.6-15.4-3.3-21.8-7.8c-1.7-1.2-3.4-2.5-4.9-3.9
				c-1.6-1.5-3-3.1-4.3-4.8c-1.4-1.7-2.6-3.5-3.7-5.4c-1.1-1.9-2-3.9-2.9-6c-1.7-4.2-2.7-8.7-2.9-13.3c-0.2-4.7,0.3-9.4,1.4-14
				c1.3-4.5,3.3-8.9,5.8-12.8c2.5-3.8,5.7-7.2,9.3-10c1.7-1.4,3.6-2.6,5.5-3.8c1.9-1.1,3.9-2,5.9-2.8c1-0.4,2-0.8,3-1.1
				c1-0.3,2-0.6,3.1-0.9c9.8-2.1,20-1,29,3.4c5.6,2.7,10.5,6.6,14.5,11.4c4,4.8,6.9,10.4,8.6,16.4c1.2,4.1,1.7,8.3,1.5,12.5
				c0,1.5-0.1,3.1-0.4,4.6c-0.1,0.7-0.1,1.3-0.2,1.8c-0.1,0.6-0.2,1-0.3,1.5l-0.5,2C175.4,208.4,175.4,208.6,175.3,208.8z"/>
			<path class="st10" d="M174.8,209.2c-0.2-0.1,0.1-2,0.3-5.4c0.3-4.8-0.1-9.6-1.3-14.2c-0.8-3.2-2-6.2-3.4-9.1
				c-1.7-3.3-3.8-6.4-6.3-9.2c-1.3-1.5-2.8-2.9-4.3-4.2c-1.6-1.3-3.3-2.6-5.1-3.7c-1.8-1.1-3.8-2.1-5.8-2.9
				c-2.1-0.8-4.2-1.5-6.4-2.1c-2.2-0.5-4.4-0.8-6.6-1c-2.2-0.2-4.3-0.2-6.5,0c-4.1,0.3-8.1,1.3-11.9,2.8c-3.5,1.4-6.8,3.2-9.8,5.4
				c-2.6,1.9-5,4.2-7.2,6.6c-3.1,3.6-5.7,7.7-7.6,12.1c-1.4,3.1-1.9,5-2.2,4.9s0-2,1-5.4c1.5-4.8,3.9-9.2,7-13.1
				c4.7-5.9,10.7-10.5,17.7-13.3c4.1-1.7,8.4-2.8,12.8-3.1c2.3-0.2,4.7-0.2,7-0.1c2.4,0.2,4.8,0.5,7.1,1.1c2.3,0.6,4.6,1.3,6.8,2.2
				c2.1,0.9,4.2,2,6.2,3.2c1.9,1.2,3.7,2.5,5.4,4c1.6,1.4,3.2,2.9,4.6,4.6c2.6,3,4.8,6.4,6.5,10c1.4,3.1,2.5,6.4,3.2,9.8
				c1,4.9,1.1,9.9,0.3,14.9C175.8,207.4,175.1,209.2,174.8,209.2z"/>
			<path class="st10" d="M131.1,223.8l-1.9,7.4l-6.6-1.7l1.8-7.2c-6.4-2.1-12.1-5.7-15-9.5l5.7-7.1c3.1,3.6,7.1,6.3,11.6,7.9l2.8-11
				c-6.8-3.6-14.4-8.2-12-17.6c1.8-7,8.4-11.7,19.1-10.2l1.9-7.3l6.6,1.7l-1.8,7.2c4.6,1.5,8.9,4,12.3,7.4l-5.4,7.2
				c-2.6-2.6-5.8-4.6-9.2-6l-2.9,11.2c6.9,3.6,14.2,8.1,11.9,17.3C148.3,220.6,141.8,225.2,131.1,223.8z M132,193.1l2.4-9.3
				c-3.7-0.1-5.6,1.4-6.1,3.6C127.7,189.5,129.3,191.4,132,193.1z M139.3,211.8c0.6-2.3-1-4-3.6-5.8l-2.3,9.1
				C136.8,215.2,138.7,213.9,139.3,211.8z"/>
			<path class="st8" d="M107.8,300.8c3,8,3.6,16.6,1.7,24.9c-1.9,8.3-6.2,15.8-12.5,21.7c-6.2,5.8-14,9.7-22.4,11.1
				c-8.4,1.4-17,0.3-24.8-3.2c-7.8-3.5-14.3-9.2-18.8-16.5c-4.5-7.2-6.8-15.6-6.5-24.1c0.3-8.5,3.1-16.7,8-23.6
				c5-6.9,11.9-12.2,19.8-15.2c10.7-4,22.5-3.6,32.9,1C95.6,281.5,103.7,290.1,107.8,300.8z"/>
			<path class="st9" d="M102.7,297.4c2.7,7.1,3.2,14.9,1.5,22.3c-1.7,7.4-5.6,14.1-11.1,19.3c-5.5,5.2-12.5,8.6-20,9.9
				c-7.5,1.2-15.2,0.2-22.1-2.9c-6.9-3.1-12.8-8.2-16.8-14.7c-4-6.5-6-14-5.8-21.5c0.2-7.6,2.7-15,7.2-21.1
				c4.4-6.2,10.6-10.9,17.7-13.6c9.5-3.6,20.1-3.3,29.3,0.9C91.8,280.2,99.1,287.9,102.7,297.4z"/>
			<path class="st9" d="M95.2,300.6c2.1,5.4,2.5,11.3,1.2,17c-1.3,5.6-4.2,10.8-8.5,14.7c-4.2,4-9.5,6.6-15.2,7.6
				c-5.7,1-11.6,0.2-16.9-2.2c-5.3-2.4-9.7-6.3-12.8-11.2c-3.1-4.9-4.6-10.6-4.4-16.4c0.2-5.8,2.1-11.4,5.5-16.1
				c3.4-4.7,8.1-8.3,13.5-10.4c7.3-2.7,15.3-2.5,22.4,0.7C87,287.5,92.5,293.4,95.2,300.6z"/>
			<path class="st10" d="M94.1,300.6c-0.1-0.1-0.2-0.3-0.2-0.4c-0.1-0.3-0.3-0.7-0.6-1.3l-0.4-0.9c-0.2-0.3-0.4-0.7-0.6-1.1
				c-0.5-0.9-1-1.8-1.6-2.6c-1.6-2.3-3.5-4.4-5.8-6.1c-3.2-2.5-7-4.4-11-5.4c-4-1-8.2-1.1-12.2-0.4c-5.1,0.9-9.9,3.2-13.8,6.5
				c-1.1,0.9-2.1,1.9-3,2.9c-0.5,0.5-0.9,1.1-1.3,1.6c-0.5,0.5-0.9,1.1-1.2,1.7c-0.8,1.2-1.5,2.5-2.1,3.8c-0.6,1.3-1.1,2.7-1.5,4.1
				c-0.8,2.9-1.2,5.9-1.1,8.9c0.2,6.2,2.5,12.2,6.4,17.1c1.9,2.3,4.2,4.4,6.7,6c1.2,0.8,2.5,1.5,3.8,2.1c1.3,0.6,2.6,1.1,4,1.4
				c2.7,0.8,5.5,1.2,8.2,1.1c5.2-0.1,10.2-1.5,14.7-4.2c3.9-2.3,7.1-5.5,9.5-9.3c2-3.1,3.3-6.6,4-10.3c0.5-2.8,0.6-5.6,0.3-8.4
				c-0.1-1-0.2-2-0.5-3c-0.1-0.4-0.1-0.8-0.2-1.2c-0.1-0.4-0.2-0.7-0.3-1l-0.4-1.3c0-0.2-0.1-0.3-0.1-0.5c0.1,0.1,0.1,0.3,0.2,0.4
				l0.5,1.3c0.1,0.3,0.2,0.6,0.3,1s0.2,0.8,0.3,1.2c0.3,1,0.4,2,0.5,3c0.4,2.8,0.3,5.7-0.2,8.5c-0.7,4.1-2.3,8-4.7,11.5
				c-2.4,3.4-5.4,6.4-9,8.5c-3.5,2.1-7.3,3.5-11.3,4.1c-4,0.5-8.1,0.2-12-0.9c-1.4-0.4-2.8-0.9-4.1-1.5c-1.4-0.6-2.7-1.4-3.9-2.2
				c-2.6-1.7-4.9-3.7-6.8-6.1c-4-4.9-6.4-11.1-6.6-17.5c-0.1-3.1,0.2-6.1,1.1-9.1c0.4-1.4,0.9-2.9,1.5-4.2c0.7-1.3,1.5-2.6,2.3-3.8
				c0.4-0.6,0.8-1.2,1.2-1.8c0.5-0.5,0.9-1.1,1.3-1.7c0.9-1,1.9-2,3-2.9c4-3.4,8.9-5.7,14.1-6.6c4.1-0.7,8.3-0.6,12.4,0.5
				c4,1,7.8,2.9,11.1,5.5c2.2,1.8,4.2,3.9,5.8,6.2c0.6,0.8,1.1,1.7,1.6,2.7c0.2,0.4,0.4,0.8,0.6,1.1l0.4,0.9c0.2,0.6,0.4,1,0.5,1.3
				C94,300.3,94,300.4,94.1,300.6z"/>
			<path class="st10" d="M94,301c-0.2,0.1-0.7-1.1-2-3c-1.7-2.7-3.8-5.1-6.3-7.2c-1.7-1.4-3.5-2.6-5.5-3.6c-2.2-1.1-4.6-2-7-2.5
				c-2.7-0.6-5.4-0.8-8.2-0.6c-1.4,0.1-2.9,0.3-4.3,0.7c-1.5,0.4-2.9,0.8-4.3,1.4c-1.4,0.6-2.7,1.2-4,2c-1.2,0.8-2.4,1.6-3.5,2.6
				c-1.1,0.9-2.1,1.9-3,3c-0.9,1-1.7,2.1-2.4,3.2c-1.4,2.1-2.4,4.4-3.2,6.8c-0.6,2.1-1.1,4.2-1.3,6.4c-0.3,3.2-0.1,6.4,0.6,9.6
				c0.5,2.2,0.9,3.5,0.7,3.5c-0.2,0.1-0.8-1.1-1.6-3.3c-1.1-3.2-1.5-6.5-1.4-9.9c0.1-2.3,0.5-4.6,1.1-6.9c0.7-2.6,1.8-5,3.2-7.3
				c1.6-2.5,3.5-4.8,5.7-6.7c1.2-1,2.4-2,3.8-2.8c1.4-0.8,2.8-1.6,4.3-2.2c1.5-0.6,3-1.1,4.6-1.5c3-0.7,6.1-0.9,9.2-0.6
				c1.4,0.1,2.9,0.4,4.3,0.7c2.6,0.6,5.1,1.6,7.5,2.9c2,1.1,3.9,2.5,5.6,4.1c2.5,2.3,4.5,5,6,8C93.8,299.6,94.1,300.9,94,301z"/>
			<path class="st10" d="M76,326.1l1.9,4.7l-4.2,1.7l-1.8-4.6c-4.3,1.4-8.8,1.7-11.9,0.8l0.3-6.1c3.1,0.7,6.3,0.7,9.4-0.2l-2.8-7.1
				c-5.2,0.7-11,1.2-13.4-4.9c-1.8-4.5,0-9.6,6.4-13l-1.8-4.7l4.2-1.7l1.8,4.6c3.1-1,6.4-1.3,9.6-0.8l-0.1,6
				c-2.4-0.4-4.9-0.3-7.3,0.3l2.8,7.2c5.1-0.8,10.9-1.2,13.3,4.8C84.1,317.6,82.3,322.7,76,326.1z M64.4,309l-2.4-6
				c-2,1.4-2.5,3-1.9,4.4C60.7,308.8,62.3,309.2,64.4,309z M75.7,316.4c-0.6-1.5-2.1-1.8-4.2-1.7l2.3,5.8
				C75.7,319.2,76.2,317.7,75.7,316.4z"/>
			<path class="st8" d="M476.7,385.8c1.8,4.7,2.6,9.7,2.4,14.8s-1.3,10-3.4,14.6c-2.1,4.6-5.1,8.7-8.7,12.2c-3.7,3.4-8,6.1-12.7,7.9
				c-2.1,0.8-4.3,1.4-6.5,1.8c-7.2,1.3-14.6,0.5-21.3-2.2c-6.8-2.7-12.6-7.4-16.8-13.3c-4.2-5.9-6.7-13-7-20.2
				c-0.4-7.3,1.3-14.5,4.9-20.9c3.6-6.3,8.9-11.5,15.4-15c6.4-3.4,13.7-4.9,21-4.4c7.3,0.6,14.2,3.2,20,7.6
				C469.7,373.1,474.2,379,476.7,385.8L476.7,385.8z"/>
			<path class="st9" d="M480,383.4c1.8,4.7,2.6,9.7,2.4,14.8c-0.2,5-1.3,10-3.4,14.6c-2.1,4.6-5.1,8.7-8.7,12.2
				c-3.7,3.4-8,6.1-12.7,7.9c-2.1,0.8-4.3,1.4-6.5,1.8c-7.2,1.3-14.6,0.5-21.3-2.2c-6.8-2.7-12.6-7.4-16.8-13.3s-6.7-13-7-20.2
				c-0.4-7.3,1.3-14.5,4.9-20.9c3.6-6.3,8.9-11.5,15.4-15c6.4-3.4,13.7-4.9,21-4.4c7.3,0.6,14.2,3.2,20,7.6
				C473,370.7,477.5,376.6,480,383.4L480,383.4z"/>
			<path class="st9" d="M472.6,386.6c2.1,5.4,2.5,11.3,1.2,17c-1.3,5.6-4.2,10.8-8.5,14.7s-9.5,6.6-15.2,7.5
				c-5.7,1-11.6,0.2-16.9-2.2c-5.3-2.4-9.7-6.3-12.8-11.2c-3.1-4.9-4.6-10.6-4.4-16.4c0.2-5.8,2.1-11.4,5.5-16.1
				c3.4-4.7,8.1-8.3,13.5-10.4c7.2-2.7,15.3-2.5,22.4,0.7C464.3,373.5,469.8,379.4,472.6,386.6z"/>
			<path class="st10" d="M471.5,386.6c-0.1-0.1-0.2-0.3-0.2-0.4c-0.1-0.3-0.3-0.7-0.6-1.3l-0.4-0.9c-0.2-0.3-0.4-0.7-0.6-1.1
				c-0.5-0.9-1-1.8-1.6-2.6c-1.6-2.3-3.6-4.4-5.8-6.1c-5.3-4.2-11.9-6.4-18.6-6.3c-6.7,0.1-13.2,2.6-18.3,7c-1,0.9-2,1.9-3,2.9
				c-0.5,0.5-0.9,1.1-1.3,1.6c-0.4,0.5-0.9,1.1-1.2,1.7c-0.8,1.2-1.5,2.5-2.1,3.8c-0.6,1.3-1.1,2.7-1.5,4.1
				c-0.8,2.9-1.2,5.9-1.1,8.9c0.2,6.2,2.5,12.2,6.4,17.1c1.9,2.4,4.1,4.4,6.7,6c1.2,0.8,2.5,1.5,3.8,2.1c1.3,0.6,2.7,1.1,4.1,1.5
				c1.4,0.4,2.7,0.7,4.1,0.9c1.4,0.2,2.7,0.2,4.1,0.2c6.7-0.1,13.2-2.5,18.4-6.8c5.2-4.3,8.6-10.3,9.9-17c0.5-2.8,0.6-5.6,0.3-8.4
				c-0.1-1-0.2-2-0.5-3c-0.1-0.4-0.2-0.9-0.2-1.2l-0.3-1c-0.2-0.6-0.3-1-0.4-1.3C471.5,387,471.5,386.8,471.5,386.6
				c0.1,0.2,0.1,0.3,0.2,0.5l0.5,1.3l0.3,1c0.1,0.4,0.2,0.8,0.3,1.2c0.3,1,0.4,2,0.5,3c0.4,2.8,0.3,5.7-0.2,8.5
				c-0.7,4.1-2.3,8-4.7,11.5c-2.4,3.4-5.4,6.4-9,8.5c-3.5,2.1-7.3,3.5-11.3,4.1s-8.1,0.3-12-0.9c-1.4-0.4-2.8-0.9-4.1-1.5
				c-1.4-0.6-2.7-1.4-3.9-2.2c-2.6-1.7-4.9-3.7-6.8-6.1c-2-2.5-3.6-5.2-4.7-8.2c-1.1-3-1.7-6.1-1.8-9.3c-0.1-3.1,0.2-6.1,1.1-9.1
				c0.4-1.4,0.9-2.8,1.5-4.2c0.6-1.3,1.3-2.6,2.1-3.8c0.4-0.6,0.8-1.2,1.2-1.8c0.5-0.6,0.9-1.1,1.3-1.7c0.9-1,1.9-2,3-2.9
				c4-3.4,8.9-5.7,14.1-6.6c4.1-0.7,8.3-0.5,12.4,0.5c4,1,7.8,2.9,11.1,5.6c2.2,1.8,4.2,3.9,5.8,6.2c0.6,0.8,1.1,1.7,1.6,2.6
				c0.2,0.4,0.4,0.8,0.6,1.1l0.4,1c0.2,0.5,0.4,1,0.5,1.3C471.3,386.4,471.4,386.5,471.5,386.6z"/>
			<path class="st10" d="M471.3,387c-0.2,0.1-0.7-1.1-2-3c-1.7-2.7-3.8-5.2-6.3-7.2c-1.7-1.4-3.5-2.6-5.5-3.6c-2.2-1.1-4.6-2-7-2.5
				c-2.7-0.6-5.4-0.8-8.2-0.6c-1.4,0.1-2.9,0.3-4.3,0.7c-1.5,0.4-2.9,0.8-4.3,1.4c-1.4,0.6-2.7,1.2-4,2c-1.2,0.8-2.4,1.6-3.5,2.6
				c-1.1,0.9-2.1,1.9-3,3c-0.9,1-1.7,2.1-2.4,3.2c-1.4,2.1-2.4,4.4-3.2,6.8c-0.7,2.1-1.1,4.2-1.3,6.4c-0.3,3.2-0.1,6.4,0.6,9.6
				c0.5,2.2,0.9,3.5,0.7,3.5s-0.8-1.1-1.6-3.3c-1.1-3.2-1.5-6.5-1.4-9.9c0.2-5,1.7-9.9,4.4-14.2c1.6-2.5,3.5-4.8,5.7-6.7
				c1.2-1,2.4-2,3.8-2.8c1.4-0.8,2.8-1.6,4.3-2.2c1.5-0.6,3-1.1,4.6-1.5c1.5-0.3,3.1-0.6,4.6-0.7c3-0.2,5.9,0.1,8.8,0.7
				c4.9,1.2,9.4,3.6,13.1,7c2.5,2.3,4.5,5,6,8C471.2,385.7,471.5,387,471.3,387z"/>
			<path class="st10" d="M453.3,412.1l1.9,4.7l-4.2,1.7l-1.9-4.6c-4.3,1.4-8.8,1.7-11.9,0.8l0.3-6.1c3.1,0.7,6.3,0.7,9.4-0.2
				l-2.8-7.1c-5.2,0.7-11,1.2-13.4-4.9c-1.8-4.5,0-9.6,6.4-13l-1.8-4.7l4.2-1.7l1.8,4.6c3.1-1,6.4-1.3,9.6-0.8l-0.1,6
				c-2.4-0.4-4.9-0.3-7.3,0.4l2.8,7.2c5.1-0.8,10.9-1.2,13.3,4.8C461.4,403.6,459.6,408.7,453.3,412.1z M441.7,395.1l-2.4-6
				c-2,1.4-2.4,3-1.9,4.4C438,394.8,439.6,395.2,441.7,395.1z M453,402.4c-0.6-1.5-2.1-1.8-4.2-1.7l2.3,5.9
				C453.1,405.2,453.5,403.8,453,402.4z"/>
			<circle class="st5" cx="355.6" cy="296" r="5"/>
		</g>
	</g>
	<path class="st11" d="M262,346l-119.9,77.9v15.5l239.8,0.7v-16.3L262,346z"/>
	<path class="st11" d="M262,346l-119.9,77.9v15.5l239.8,0.7v-16.3L262,346z"/>
	<path class="st11" d="M189.4,447.5h-45.4v7.2h45.4V447.5z"/>
	<path class="st11" d="M189.4,573.8h-45.4v7.2h45.4V573.8z"/>
	<path class="st11" d="M183.2,451.2h-32.9v126.3h32.9V451.2z"/>
	<path class="st11" d="M284.1,447.5h-45.4v7.2h45.4V447.5z"/>
	<path class="st11" d="M284.1,573.8h-45.4v7.2h45.4V573.8z"/>
	<path class="st11" d="M277.9,451.2h-32.9v126.3h32.9V451.2z"/>
	<path class="st11" d="M381.9,447.5h-45.4v7.2h45.4V447.5z"/>
	<path class="st11" d="M381.9,573.8h-45.4v7.2h45.4V573.8z"/>
	<path class="st11" d="M375.7,451.2h-32.9v126.3h32.9V451.2z"/>
	<path class="st11" d="M394.7,588.3H129.4v13.8h265.3V588.3z"/>
	<path class="st11" d="M413.6,608.1h-303V622h303V608.1z"/>
	<path class="st12" d="M261.4,408.7c10.5,0,19-8.5,19-19c0-10.5-8.5-19-19-19c-10.5,0-19,8.5-19,19
		C242.4,400.1,250.9,408.7,261.4,408.7z"/>
	<path class="st12" d="M190.7,454.8c-15.5,1.8-31.1,1.8-46.5,0C159.6,452.9,175.2,452.9,190.7,454.8z"/>
	<path class="st12" d="M285.2,454.8c-15.4,1.8-31,1.8-46.5,0C254.1,452.9,269.7,452.9,285.2,454.8z"/>
	<path class="st12" d="M382.5,454.8c-15.4,1.8-31,1.8-46.5,0C351.5,452.9,367.1,452.9,382.5,454.8z"/>
	<path class="st12" d="M190.7,573.6c-15.5,1.8-31.1,1.8-46.5,0C159.6,571.7,175.2,571.7,190.7,573.6z"/>
	<path class="st12" d="M285.2,573.6c-15.4,1.8-31,1.8-46.5,0C254.1,571.7,269.7,571.7,285.2,573.6z"/>
	<path class="st12" d="M382.5,573.6c-15.4,1.8-31,1.8-46.5,0C351.5,571.7,367.1,571.7,382.5,573.6z"/>
	<path class="st12" d="M382.6,424.1c0,0.8-53.8,1.4-120.1,1.4s-120.2-0.6-120.2-1.4s53.8-1.2,120.2-1.2S382.6,423.3,382.6,424.1z"/>
	<path class="st13" d="M441.8,621.8h-78V639h78V621.8z"/>
	<g class="st14">
		<path d="M367.1,623.4c1.1,4.5,1.1,9.2,0,13.8C365.9,632.6,365.9,627.9,367.1,623.4z"/>
		<path d="M372.9,623.4c1.1,4.5,1.1,9.2,0,13.8C371.7,632.6,371.7,627.9,372.9,623.4z"/>
		<path d="M375.7,623.4c1.1,4.5,1.1,9.2,0,13.8C374.6,632.6,374.6,627.9,375.7,623.4z"/>
		<path d="M391.3,623.4c1.1,4.5,1.1,9.2,0,13.8C390.2,632.6,390.2,627.9,391.3,623.4z"/>
		<path d="M395.5,623.4c1.1,4.5,1.1,9.2,0,13.8C394.4,632.6,394.4,627.9,395.5,623.4z"/>
		<path d="M412.9,623.4c1.1,4.5,1.1,9.2,0,13.8C411.8,632.6,411.8,627.9,412.9,623.4z"/>
		<path d="M417,623.4c1.1,4.5,1.1,9.2,0,13.8C415.8,632.6,415.8,627.9,417,623.4z"/>
		<path d="M424.3,623.4c1.1,4.5,1.1,9.2,0,13.8C423.2,632.6,423.2,627.9,424.3,623.4z"/>
		<path d="M409.6,623.4c1.1,4.5,1.1,9.2,0,13.8C408.4,632.6,408.4,627.9,409.6,623.4z"/>
		<path d="M380.9,623.4c1.1,4.5,1.1,9.2,0,13.8C379.7,632.6,379.7,627.9,380.9,623.4z"/>
		<path d="M401.1,623.4c1.1,4.5,1.1,9.2,0,13.8C400,632.6,400,627.9,401.1,623.4z"/>
		<path d="M403.9,623.4c1.1,4.5,1.1,9.2,0,13.8C402.8,632.6,402.8,627.9,403.9,623.4z"/>
		<path d="M434,623.4c1.1,4.5,1.1,9.2,0,13.8C432.8,632.6,432.8,627.9,434,623.4z"/>
		<path d="M438.3,623.4c1.1,4.5,1.1,9.2,0,13.8C437.2,632.6,437.2,627.9,438.3,623.4z"/>
		<path d="M427.8,623.4c1.1,4.5,1.1,9.2,0,13.8C426.6,632.6,426.6,627.9,427.8,623.4z"/>
		<path d="M387.9,623.4c1.1,4.5,1.1,9.2,0,13.8C386.8,632.6,386.8,627.9,387.9,623.4z"/>
	</g>
	<path class="st15" d="M441.8,621.8v3.6l-78,2.5v-6.1H441.8z"/>
	<path class="st13" d="M436.5,604.6h-78v17.2h78V604.6z"/>
	<g class="st14">
		<path d="M361.7,606.3c1.1,4.5,1.1,9.2,0,13.8C360.6,615.5,360.6,610.8,361.7,606.3z"/>
		<path d="M367.5,606.3c1.1,4.5,1.1,9.2,0,13.8C366.4,615.5,366.4,610.8,367.5,606.3z"/>
		<path d="M370.4,606.3c1.1,4.5,1.1,9.2,0,13.8C369.2,615.5,369.2,610.8,370.4,606.3z"/>
		<path d="M386,606.3c1.1,4.5,1.1,9.2,0,13.8C384.8,615.5,384.8,610.8,386,606.3z"/>
		<path d="M390.2,606.3c1.1,4.5,1.1,9.2,0,13.8C389,615.5,389,610.8,390.2,606.3z"/>
		<path d="M407.6,606.3c1.1,4.5,1.1,9.2,0,13.8C406.5,615.5,406.5,610.8,407.6,606.3z"/>
		<path d="M411.6,606.3c1.1,4.5,1.1,9.2,0,13.8C410.5,615.5,410.5,610.8,411.6,606.3z"/>
		<path d="M419,606.3c1.1,4.5,1.1,9.2,0,13.8C417.9,615.5,417.9,610.8,419,606.3z"/>
		<path d="M404.2,606.3c1.1,4.5,1.1,9.2,0,13.8C403.1,615.5,403.1,610.8,404.2,606.3z"/>
		<path d="M375.5,606.3c1.1,4.5,1.1,9.2,0,13.8C374.4,615.5,374.4,610.8,375.5,606.3z"/>
		<path d="M395.7,606.3c1.1,4.5,1.1,9.2,0,13.8C394.6,615.5,394.6,610.8,395.7,606.3z"/>
		<path d="M398.6,606.3c1.1,4.5,1.1,9.2,0,13.8C397.5,615.5,397.5,610.8,398.6,606.3z"/>
		<path d="M428.6,606.3c1.1,4.5,1.1,9.2,0,13.8C427.5,615.5,427.5,610.8,428.6,606.3z"/>
		<path d="M433,606.3c1.1,4.5,1.1,9.2,0,13.8C431.9,615.5,431.9,610.8,433,606.3z"/>
		<path d="M422.4,606.3c1.1,4.5,1.1,9.2,0,13.8C421.3,615.5,421.3,610.8,422.4,606.3z"/>
		<path d="M382.6,606.3c1.1,4.5,1.1,9.2,0,13.8C381.4,615.5,381.4,610.8,382.6,606.3z"/>
	</g>
	<path class="st15" d="M436.5,604.6v3.7l-78,2.5v-6.1H436.5z"/>
	<path class="st13" d="M448.6,570.4h-78v17.2h78V570.4z"/>
	<g class="st14">
		<path d="M373.8,572c1.1,4.5,1.1,9.2,0,13.8C372.6,581.2,372.6,576.5,373.8,572z"/>
		<path d="M379.6,572c1.1,4.5,1.1,9.2,0,13.8C378.5,581.2,378.5,576.5,379.6,572z"/>
		<path d="M382.4,572c1.1,4.5,1.1,9.2,0,13.8C381.3,581.2,381.3,576.5,382.4,572z"/>
		<path d="M398,572c1.1,4.5,1.1,9.2,0,13.8C396.9,581.2,396.9,576.5,398,572z"/>
		<path d="M402.2,572c1.1,4.5,1.1,9.2,0,13.8C401.1,581.2,401.1,576.5,402.2,572z"/>
		<path d="M419.6,572c1.1,4.5,1.1,9.2,0,13.8C418.5,581.2,418.5,576.5,419.6,572z"/>
		<path d="M423.7,572c1.1,4.5,1.1,9.2,0,13.8C422.5,581.2,422.5,576.5,423.7,572z"/>
		<path d="M431.1,572c1.1,4.5,1.1,9.2,0,13.8C429.9,581.2,429.9,576.5,431.1,572z"/>
		<path d="M416.3,572c1.1,4.5,1.1,9.2,0,13.8C415.1,581.2,415.1,576.5,416.3,572z"/>
		<path d="M387.6,572c1.1,4.5,1.1,9.2,0,13.8C386.4,581.2,386.4,576.5,387.6,572z"/>
		<path d="M407.7,572c1.1,4.5,1.1,9.2,0,13.8C406.6,581.2,406.6,576.5,407.7,572z"/>
		<path d="M410.7,572c1.1,4.5,1.1,9.2,0,13.8C409.5,581.2,409.5,576.5,410.7,572z"/>
		<path d="M440.7,572c1.1,4.5,1.1,9.2,0,13.8C439.6,581.2,439.6,576.5,440.7,572z"/>
		<path d="M445,572c1.1,4.5,1.1,9.2,0,13.8C443.9,581.2,443.9,576.5,445,572z"/>
		<path d="M434.5,572c1.1,4.5,1.1,9.2,0,13.8C433.3,581.2,433.3,576.5,434.5,572z"/>
		<path d="M394.6,572c1.1,4.5,1.1,9.2,0,13.8C393.5,581.2,393.5,576.5,394.6,572z"/>
	</g>
	<path class="st15" d="M448.6,570.4v3.7l-78,2.5v-6.1H448.6z"/>
	<path class="st13" d="M446.6,553.2h-78v17.2h78V553.2z"/>
	<g class="st14">
		<path d="M443.1,568.5c-1.1-4.5-1.1-9.2,0-13.8C444.2,559.3,444.2,564,443.1,568.5z"/>
		<path d="M437.3,568.5c-1.1-4.5-1.1-9.2,0-13.8C438.4,559.3,438.4,564,437.3,568.5z"/>
		<path d="M434.4,568.5c-1.1-4.5-1.1-9.2,0-13.8C435.6,559.3,435.6,564,434.4,568.5z"/>
		<path d="M418.9,568.5c-1.1-4.5-1.1-9.2,0-13.8C420,559.3,420,564,418.9,568.5z"/>
		<path d="M414.6,568.5c-1.1-4.5-1.1-9.2,0-13.8C415.8,559.3,415.8,564,414.6,568.5z"/>
		<path d="M397.2,568.5c-1.1-4.5-1.1-9.2,0-13.8C398.4,559.3,398.4,564,397.2,568.5z"/>
		<path d="M393.2,568.5c-1.1-4.5-1.1-9.2,0-13.8C394.3,559.3,394.3,564,393.2,568.5z"/>
		<path d="M385.8,568.5c-1.1-4.5-1.1-9.2,0-13.8C386.9,559.3,386.9,564,385.8,568.5z"/>
		<path d="M400.6,568.5c-1.1-4.5-1.1-9.2,0-13.8C401.7,559.3,401.7,564,400.6,568.5z"/>
		<path d="M429.2,568.5c-1.1-4.5-1.1-9.2,0-13.8C430.4,559.3,430.4,564,429.2,568.5z"/>
		<path d="M409.1,568.5c-1.1-4.5-1.1-9.2,0-13.8C410.2,559.3,410.2,564,409.1,568.5z"/>
		<path d="M406.2,568.5c-1.1-4.5-1.1-9.2,0-13.8C407.3,559.3,407.3,564,406.2,568.5z"/>
		<path d="M376.2,568.5c-1.1-4.5-1.1-9.2,0-13.8C377.3,559.3,377.3,564,376.2,568.5z"/>
		<path d="M371.8,568.5c-1.1-4.5-1.1-9.2,0-13.8C372.9,559.3,372.9,564,371.8,568.5z"/>
		<path d="M382.4,568.5c-1.1-4.5-1.1-9.2,0-13.8C383.5,559.3,383.5,564,382.4,568.5z"/>
		<path d="M422.2,568.5c-1.1-4.5-1.1-9.2,0-13.8C423.4,559.3,423.4,564,422.2,568.5z"/>
	</g>
	<path class="st15" d="M446.6,553.2v3.7l-78,2.5v-6.1H446.6z"/>
	<path class="st13" d="M441.8,536h-78v17.2h78V536z"/>
	<g class="st14">
		<path d="M367.1,537.6c1.1,4.5,1.1,9.2,0,13.7C365.9,546.8,365.9,542.1,367.1,537.6z"/>
		<path d="M372.9,537.6c1.1,4.5,1.1,9.2,0,13.7C371.7,546.8,371.7,542.1,372.9,537.6z"/>
		<path d="M375.7,537.6c1.1,4.5,1.1,9.2,0,13.7C374.6,546.8,374.6,542.1,375.7,537.6z"/>
		<path d="M391.3,537.6c1.1,4.5,1.1,9.2,0,13.7C390.2,546.8,390.2,542.1,391.3,537.6z"/>
		<path d="M395.5,537.6c1.1,4.5,1.1,9.2,0,13.7C394.4,546.8,394.4,542.1,395.5,537.6z"/>
		<path d="M412.9,537.6c1.1,4.5,1.1,9.2,0,13.7C411.8,546.8,411.8,542.1,412.9,537.6z"/>
		<path d="M417,537.6c1.1,4.5,1.1,9.2,0,13.7C415.8,546.8,415.8,542.1,417,537.6z"/>
		<path d="M424.3,537.6c1.1,4.5,1.1,9.2,0,13.7C423.2,546.8,423.2,542.1,424.3,537.6z"/>
		<path d="M409.6,537.6c1.1,4.5,1.1,9.2,0,13.7C408.4,546.8,408.4,542.1,409.6,537.6z"/>
		<path d="M380.9,537.6c1.1,4.5,1.1,9.2,0,13.7C379.7,546.8,379.7,542.1,380.9,537.6z"/>
		<path d="M401.1,537.6c1.1,4.5,1.1,9.2,0,13.7C400,546.8,400,542.1,401.1,537.6z"/>
		<path d="M403.9,537.6c1.1,4.5,1.1,9.2,0,13.7C402.8,546.8,402.8,542.1,403.9,537.6z"/>
		<path d="M434,537.6c1.1,4.5,1.1,9.2,0,13.7C432.8,546.8,432.8,542.1,434,537.6z"/>
		<path d="M438.3,537.6c1.1,4.5,1.1,9.2,0,13.7C437.2,546.8,437.2,542.1,438.3,537.6z"/>
		<path d="M427.8,537.6c1.1,4.5,1.1,9.2,0,13.7C426.6,546.8,426.6,542.1,427.8,537.6z"/>
		<path d="M387.9,537.6c1.1,4.5,1.1,9.2,0,13.7C386.8,546.8,386.8,542.1,387.9,537.6z"/>
	</g>
	<path class="st15" d="M441.8,536v3.6l-78,2.5V536H441.8z"/>
	<path class="st13" d="M441.8,587.6h-78v17.2h78V587.6z"/>
	<g class="st14">
		<path d="M438.3,603c-1.1-4.5-1.1-9.2,0-13.8C439.5,593.7,439.5,598.4,438.3,603z"/>
		<path d="M432.5,603c-1.1-4.5-1.1-9.2,0-13.8C433.7,593.7,433.7,598.4,432.5,603z"/>
		<path d="M429.7,603c-1.1-4.5-1.1-9.2,0-13.8C430.8,593.7,430.8,598.4,429.7,603z"/>
		<path d="M414.1,603c-1.1-4.5-1.1-9.2,0-13.8C415.3,593.7,415.3,598.4,414.1,603z"/>
		<path d="M409.9,603c-1.1-4.5-1.1-9.2,0-13.8C411,593.7,411,598.4,409.9,603z"/>
		<path d="M392.5,603c-1.1-4.5-1.1-9.2,0-13.8C393.6,593.7,393.6,598.4,392.5,603z"/>
		<path d="M388.4,603c-1.1-4.5-1.1-9.2,0-13.8C389.6,593.7,389.6,598.4,388.4,603z"/>
		<path d="M381.1,603c-1.1-4.5-1.1-9.2,0-13.8C382.2,593.7,382.2,598.4,381.1,603z"/>
		<path d="M395.8,603c-1.1-4.5-1.1-9.2,0-13.8C397,593.7,397,598.4,395.8,603z"/>
		<path d="M424.5,603c-1.1-4.5-1.1-9.2,0-13.8C425.7,593.7,425.7,598.4,424.5,603z"/>
		<path d="M404.4,603c-1.1-4.5-1.1-9.2,0-13.8C405.6,593.7,405.6,598.4,404.4,603z"/>
		<path d="M401.4,603c-1.1-4.5-1.1-9.2,0-13.8C402.6,593.7,402.6,598.4,401.4,603z"/>
		<path d="M371.4,603c-1.1-4.5-1.1-9.2,0-13.8C372.5,593.7,372.5,598.4,371.4,603z"/>
		<path d="M367.1,603c-1.1-4.5-1.1-9.2,0-13.8C368.2,593.7,368.2,598.4,367.1,603z"/>
		<path d="M377.6,603c-1.1-4.5-1.1-9.2,0-13.8C378.8,593.7,378.8,598.4,377.6,603z"/>
		<path d="M417.5,603c-1.1-4.5-1.1-9.2,0-13.8C418.6,593.7,418.6,598.4,417.5,603z"/>
	</g>
	<path class="st15" d="M441.8,587.6v3.6l-78,2.5v-6.1H441.8z"/>
	<path class="st0" d="M365.6,562.1c51.3,9.2,37.8,85.1-13.6,75.9C300.5,628.8,314.2,552.9,365.6,562.1z"/>
	<path class="st16" d="M365.6,562.1c51.3,9.2,37.8,85.1-13.6,75.9C300.5,628.8,314.2,552.9,365.6,562.1z"/>
	<path class="st13" d="M360.8,561.2c48.9,8.8,35.4,84.6-13.6,75.9C298.1,628.3,311.8,552.4,360.8,561.2z"/>
	<path class="st15" d="M323,600.9c0.3,13.5,8.2,26.6,25.4,29.7c40.7,7.3,51.9-55.7,11.3-63l-0.8-0.1c38,7.6,27.2,67.2-11.6,60.2
		C331.4,624.9,323.8,613.3,323,600.9z"/>
	<path class="st17" d="M350.7,612.9l-1.5,4.9l-4.3-1.3l1.4-4.8c-4.2-1.6-8-4.2-9.8-6.8l4-4.6c2,2.5,4.6,4.5,7.5,5.7l2.2-7.3
		c-4.5-2.6-9.4-5.9-7.5-12.1c1.4-4.6,6-7.5,13.1-6.2l1.5-4.8l4.4,1.3l-1.4,4.7c3.1,1.1,5.8,3,8,5.3l-3.8,4.7c-1.7-1.8-3.7-3.3-6-4.3
		l-2.3,7.4c4.5,2.6,9.3,5.8,7.4,12C362.3,611.3,357.8,614.2,350.7,612.9z M352.3,592.3l1.9-6.2c-2.4-0.2-3.8,0.8-4.2,2.2
		C349.5,589.8,350.5,591.2,352.3,592.3z M356.5,605.1c0.5-1.5-0.6-2.7-2.2-4l-1.8,6C354.8,607.4,356.1,606.5,356.5,605.1z"/>
</g>
</svg>
