<svg width="123" height="120" viewBox="0 0 123 120" fill="none" xmlns="http://www.w3.org/2000/svg">
<path d="M118.749 38.7506C122.956 49.8516 123.775 61.9512 121.102 73.5177C118.428 85.0842 112.382 95.5976 103.73 103.727C95.0774 111.856 84.2071 117.236 72.4951 119.186C60.7831 121.135 48.756 119.566 37.9361 114.678C27.1163 109.79 17.9902 101.801 11.7131 91.7247C5.43609 81.648 2.29028 69.9358 2.67392 58.0706C3.05756 46.2054 6.9534 34.7208 13.8683 25.0704C20.7832 15.4201 30.4062 8.03806 41.5192 3.85867C56.3884 -1.75099 72.8771 -1.2266 87.3597 5.31652C101.842 11.8596 113.133 23.8858 118.749 38.7506Z" fill="#FFB9A5"/>
<path d="M112.533 75.4001C109.589 86.3389 103.466 96.1585 94.9391 103.616C86.4121 111.074 75.8644 115.834 64.6309 117.294C53.3973 118.755 41.9831 116.85 31.8327 111.82C21.6823 106.791 13.2521 98.8634 7.60902 89.041C1.96598 79.2185 -0.636237 67.9427 0.131743 56.6407C0.899723 45.3388 5.00337 34.5186 11.9233 25.5499C18.8432 16.5811 28.2684 9.86677 39.0058 6.25679C49.7432 2.64681 61.3103 2.30341 72.243 5.27006C79.4933 7.22933 86.2867 10.5975 92.2353 15.1822C98.1839 19.7669 103.171 25.4784 106.913 31.9906C110.654 38.5028 113.076 45.6881 114.04 53.1364C115.005 60.5846 114.492 68.1498 112.533 75.4001Z" fill="#F5F5F5"/>
<path d="M100.752 72.8101C98.5095 81.1472 93.8436 88.6314 87.3452 94.3155C80.8469 99.9996 72.8082 103.628 64.2468 104.741C55.6854 105.855 46.9861 104.403 39.2501 100.57C31.5141 96.7372 25.0892 90.6952 20.7886 83.2091C16.488 75.723 14.505 67.1292 15.0908 58.5156C15.6765 49.902 18.8046 41.6558 24.0791 34.8208C29.3536 27.9858 36.5373 22.8692 44.721 20.1189C52.9047 17.3685 61.7204 17.1079 70.0523 19.3701C81.2084 22.3881 90.7093 29.7129 96.4663 39.7341C102.223 49.7553 103.765 61.6525 100.752 72.8101Z" fill="#F5F5F5"/>
<path d="M99.382 71.8298C99.4006 71.594 99.4374 71.3599 99.492 71.1298C99.582 70.6298 99.722 69.9498 99.882 69.1298C99.972 68.6798 100.082 68.1898 100.192 67.6398C100.302 67.0898 100.312 66.4698 100.392 65.8098C100.598 64.2954 100.691 62.7679 100.672 61.2398C100.747 57.049 100.184 52.8712 99.002 48.8498C96.2613 39.1787 90.2412 30.7624 81.9742 25.0442C73.7071 19.3261 63.7081 16.6623 53.692 17.5098C51.6467 17.6724 49.6152 17.9764 47.612 18.4198C46.612 18.6498 45.612 18.9798 44.612 19.2598C43.5888 19.5189 42.586 19.8532 41.612 20.2598C39.6131 21.0387 37.6688 21.9507 35.792 22.9898C33.9119 24.1007 32.1109 25.3403 30.402 26.6998C26.8642 29.4684 23.7979 32.7913 21.322 36.5398C18.7973 40.4093 16.869 44.6366 15.602 49.0798C14.4308 53.554 13.9453 58.1799 14.162 62.7998C14.4108 67.294 15.3868 71.7181 17.052 75.8998C17.8463 77.9358 18.775 79.9169 19.832 81.8298C20.9259 83.6724 22.1419 85.4397 23.472 87.1198C24.7649 88.7724 26.1752 90.3298 27.692 91.7798C29.1942 93.1754 30.7913 94.4651 32.472 95.6398C38.7877 100.086 46.1747 102.768 53.872 103.41C59.9844 103.9 66.1315 103.094 71.9112 101.045C77.6908 98.9961 82.9729 95.7503 87.412 91.5198C90.4664 88.6462 93.0661 85.3249 95.122 81.6698C95.9084 80.3574 96.6002 78.9906 97.192 77.5798C97.462 76.9798 97.732 76.4298 97.942 75.9098L98.432 74.4598L99.122 72.4598C99.1953 72.2347 99.2821 72.0143 99.382 71.7998C99.3504 72.032 99.2934 72.26 99.212 72.4798C99.062 72.9698 98.862 73.6298 98.612 74.4798L98.152 75.9498C97.962 76.4798 97.692 77.0298 97.442 77.6498C96.8796 79.0842 96.2111 80.4747 95.442 81.8098C93.4141 85.5146 90.8308 88.887 87.782 91.8098C83.311 96.1532 77.967 99.4955 72.1049 101.615C66.2427 103.733 59.9967 104.581 53.782 104.1C45.9448 103.47 38.4168 100.764 31.972 96.2598C30.2531 95.068 28.6192 93.7582 27.082 92.3398C25.5294 90.8626 24.0856 89.2751 22.762 87.5898C21.4032 85.8781 20.1604 84.0774 19.042 82.1998C17.9579 80.2663 17.0057 78.2617 16.192 76.1998C14.5153 71.9516 13.536 67.4604 13.292 62.8998C13.0617 58.1872 13.5472 53.4668 14.732 48.8998C16.022 44.3599 17.9909 40.0411 20.572 36.0898C23.1102 32.2813 26.2434 28.905 29.852 26.0898C31.6013 24.71 33.4422 23.4504 35.362 22.3198C37.277 21.2631 39.2616 20.3376 41.302 19.5498C42.2751 19.1245 43.2777 18.7702 44.302 18.4898C45.302 18.2098 46.302 17.8698 47.372 17.6398C57.1431 15.5005 67.3488 16.6829 76.372 20.9998C81.9681 23.7274 86.9201 27.6141 90.8993 32.4019C94.8785 37.1897 97.7939 42.7691 99.452 48.7698C100.608 52.8456 101.127 57.0754 100.992 61.3098C100.985 62.8503 100.861 64.388 100.622 65.9098C100.532 66.5698 100.472 67.1798 100.372 67.7398C100.272 68.2998 100.132 68.7398 100.022 69.2298L99.542 71.2298C99.5038 71.4335 99.4503 71.6341 99.382 71.8298Z" fill="#E0E0E0"/>
<path d="M98.9324 72.1802C98.6824 72.1202 99.0024 70.1802 99.2124 66.8202C99.5077 62.0443 99.0659 57.2515 97.9024 52.6102C97.0958 49.4429 95.9422 46.3743 94.4624 43.4602C92.7661 40.1419 90.6486 37.0564 88.1624 34.2802C86.8261 32.7801 85.3786 31.3828 83.8324 30.1002C82.2328 28.7535 80.5311 27.5331 78.7424 26.4502C76.8958 25.3292 74.967 24.3497 72.9724 23.5202C70.9096 22.68 68.7871 21.9948 66.6224 21.4702C64.4531 20.9763 62.2505 20.6421 60.0324 20.4702C57.8755 20.3051 55.7092 20.3051 53.5524 20.4702C49.4604 20.8049 45.4385 21.7312 41.6124 23.2202C38.1376 24.5791 34.8509 26.377 31.8324 28.5702C29.1996 30.5094 26.7854 32.7291 24.6324 35.1902C21.5019 38.8103 18.9486 42.8916 17.0624 47.2902C15.7024 50.4302 15.1424 52.2902 14.8824 52.2002C14.6224 52.1102 14.8824 50.2002 15.8824 46.8402C17.3877 42.0639 19.7607 37.606 22.8824 33.6902C27.5328 27.8127 33.6133 23.2265 40.5424 20.3702C44.6245 18.6766 48.9406 17.6145 53.3424 17.2202C55.6696 17.0026 58.0108 16.9759 60.3424 17.1402C62.74 17.3222 65.1202 17.6866 67.4624 18.2302C69.7946 18.8028 72.0809 19.5482 74.3024 20.4602C76.4504 21.3651 78.5235 22.4385 80.5024 23.6702C82.417 24.86 84.2358 26.1974 85.9424 27.6702C87.5812 29.077 89.1091 30.6083 90.5124 32.2502C93.117 35.2754 95.3001 38.6393 97.0024 42.2502C98.4393 45.3874 99.5 48.6837 100.162 52.0702C101.179 56.9724 101.284 62.0199 100.472 66.9602C99.8824 70.4302 99.1624 72.2302 98.9324 72.1802Z" fill="#E0E0E0"/>
<path d="M55.2225 86.8099L53.3325 94.1699L46.7625 92.4799L48.6025 85.3199C42.1925 83.2599 36.4725 79.6199 33.6025 75.8699L39.2625 68.7799C42.3649 72.3789 46.348 75.1112 50.8225 76.7099L53.6325 65.7099C46.7925 62.0699 39.2625 57.5499 41.6325 48.1499C43.4125 41.1499 50.0125 36.4899 60.6925 37.9699L62.5625 30.6699L69.1625 32.3799L67.3225 39.5399C71.9594 41.0065 76.1819 43.553 79.6425 46.9699L74.2825 54.2099C71.6515 51.62 68.5307 49.5803 65.1025 48.2099L62.2425 59.3799C69.1025 62.9599 76.4925 67.4499 74.1225 76.7199C72.3725 83.5599 65.8625 88.1999 55.2225 86.8099ZM56.0925 56.0699L58.4825 46.7299C54.7925 46.6299 52.9225 48.1799 52.3725 50.3499C51.8225 52.5199 53.4325 54.4099 56.0925 56.0699ZM63.3425 74.8099C63.9325 72.4999 62.3425 70.8099 59.7725 69.0599L57.4425 78.1299C60.9125 78.2499 62.8025 76.8999 63.3425 74.8099Z" fill="#E0E0E0"/>
</svg>
