<svg width="779" height="446" viewBox="0 0 779 446" fill="none" xmlns="http://www.w3.org/2000/svg">
<g clip-path="url(#clip0_1651_7122)">
<rect width="779" height="446" fill="white"/>
<path d="M-33.999 -20H865.001V500H-33.999V-20Z" fill="#FFB9A5"/>
<path d="M-17.3848 167.328V165.034C72.211 163.528 158.851 150.282 231.804 126.938C238.922 124.644 246.143 122.167 253.107 119.782C285.319 108.818 318.554 97.4651 358.447 95.6991C387.483 94.3917 419.899 98.4285 454.773 107.695C469.214 111.525 483.143 115.929 496.612 120.172C510.08 124.415 524.112 128.841 538.502 132.649C604.614 150.126 727.109 156.112 795.833 150.539L796.755 152.832C727.211 158.475 602.975 152.42 535.89 134.667C521.346 130.814 507.263 126.387 493.693 122.098C480.122 117.809 466.398 113.497 452.161 109.713C418.209 100.722 386.868 96.7771 358.959 98.0156C320.5 99.7358 287.828 110.883 256.231 121.64C249.215 124.048 241.943 126.525 234.774 128.841C160.948 152.451 73.2688 165.834 -17.3848 167.328Z" fill="#F7F2B6"/>
<path d="M955.696 804.138C1058.87 646.194 1019.13 403.859 868.261 276.49C750.345 176.881 597.718 161.412 480.38 265.523C423.309 316.203 330.11 413.312 251.012 346.503C232.969 331.216 219.245 311.273 202.703 294.611C101.932 192.128 -54.0123 233.548 -141.3 330.269C-253.222 454.613 -212.256 674.426 -16.5631 654.137C76.9456 644.465 191.678 520.274 249.565 646.38C343.734 851.416 573.149 1015.97 802.81 926.44C865.346 902.884 918.856 860.077 955.696 804.138Z" fill="#E8FFDC"/>
<path d="M693.835 59.1813C719.149 74.2561 751.978 65.9072 767.161 40.5336C782.344 15.16 774.132 -17.6299 748.818 -32.7047C723.504 -47.7795 690.675 -39.4306 675.492 -14.057C660.309 11.3166 668.521 44.1065 693.835 59.1813Z" fill="#D9F7E5"/>
<path d="M-224.24 510.152C-194.655 536.65 -161.351 559.965 -125.068 579.577C-50.3452 619.644 38.9293 641.86 127.2 635.517C211.097 629.501 289.638 598.663 372.072 583.819C426.181 574.097 485.97 572.238 538.534 588.666C585.657 603.419 614.988 637.181 657.484 657.423C703.717 679.609 757.98 686.637 810.05 677.184C894.086 661.214 958.851 599.36 982.403 530.648C1012.37 443.151 929.536 273.789 793.742 322.396C752.728 337.062 712.506 369.682 665.004 363.429C615.468 356.835 585.204 313.781 563.088 279.968C508.918 197.248 406.878 177.225 303.563 196.954C265.536 204.225 231.258 217.221 196.286 229.91C184.624 234.123 172.865 238.329 161.002 242.182C55.9391 278.667 -48.1459 240.099 -155.187 214.621C-203.129 203.757 -246.478 211.478 -293.352 215.953C-305.954 218.992 -317.802 223.966 -328.308 230.629C-392.904 272.949 -344.433 367.2 -306.961 418.458C-283.196 451.376 -255.475 482.104 -224.24 510.152Z" fill="#E8FFDC"/>
<path d="M686.288 582.874C695.243 460.177 633.928 350.582 537.084 294.317C527.992 289.086 518.547 284.31 508.797 280.012L412.71 230.898C353.155 200.475 271.386 152.445 265.28 94.2145C259.72 41.5429 259.968 -9.98156 216.368 -52.4189C123.103 -143.243 -65.6505 -109.112 -152.949 -29.0459C-178.27 -5.92005 -197.868 21.2789 -210.575 50.929C-223.282 80.5791 -228.837 112.073 -226.909 143.533C-224.981 174.993 -215.609 205.775 -199.353 234.042C-183.097 262.31 -160.289 287.485 -132.289 308.066C-96.7772 334.756 -34.0197 343.309 -25.201 389.464C-14.4142 445.565 -51.6554 522.216 -51.3728 581.431C-51.0952 655.794 -31.4486 732.223 23.339 791.539C33.0897 802.082 43.6544 812.063 54.9641 821.416C120.959 875.964 210.19 902.707 301.277 907.161C557.181 919.825 673.703 755.778 686.288 582.874Z" fill="url(#paint0_linear_1651_7122)"/>
<path d="M361 188.869V186.575C450.596 185.069 537.236 171.823 610.189 148.479C617.307 146.185 624.527 143.708 631.492 141.323C663.703 130.359 696.939 119.006 736.831 117.24C765.868 115.933 798.284 119.969 833.158 129.236C847.599 133.066 861.528 137.47 874.996 141.713C888.465 145.956 902.496 150.382 916.886 154.19C982.999 171.667 1105.49 177.653 1174.22 172.08L1175.14 174.373C1105.6 180.016 981.36 173.961 914.275 156.208C899.731 152.355 885.648 147.928 872.077 143.639C858.507 139.35 844.783 135.038 830.546 131.254C796.594 122.263 765.253 118.318 737.343 119.557C698.885 121.277 666.213 132.424 634.616 143.181C627.6 145.589 620.328 148.066 613.159 150.382C539.333 173.992 451.654 187.375 361 188.869Z" fill="#F88F6D"/>
<path d="M558.703 106H466.297C462.267 106 459 109.201 459 113.151V140.474C459 144.424 462.267 147.625 466.297 147.625H558.703C562.733 147.625 566 144.424 566 140.474V113.151C566 109.201 562.733 106 558.703 106Z" fill="#F7F2B6"/>
<path d="M514.769 160L527.298 147.625H501.117L514.769 160Z" fill="#F7F2B6"/>
<path d="M480.956 130.196C480.419 130.196 479.906 130.135 479.416 130.014C478.931 129.893 478.499 129.711 478.121 129.468C477.748 129.221 477.451 128.906 477.232 128.523C477.017 128.136 476.91 127.681 476.91 127.158H478.534C478.534 127.522 478.632 127.816 478.828 128.04C479.024 128.264 479.309 128.427 479.682 128.53C480.055 128.633 480.508 128.684 481.04 128.684C481.465 128.684 481.812 128.633 482.083 128.53C482.354 128.427 482.552 128.29 482.678 128.117C482.809 127.94 482.874 127.746 482.874 127.536C482.874 127.27 482.785 127.039 482.608 126.843C482.435 126.647 482.183 126.491 481.852 126.374L480.858 125.996V124.568L482.65 125.198C483.35 125.441 483.873 125.749 484.218 126.122C484.563 126.495 484.736 126.981 484.736 127.578C484.736 128.017 484.601 128.437 484.33 128.838C484.064 129.235 483.651 129.561 483.091 129.818C482.536 130.07 481.824 130.196 480.956 130.196ZM480.242 131.414V119.682H481.418V131.414H480.242ZM480.564 126.024L479.542 125.674C478.758 125.408 478.154 125.091 477.729 124.722C477.304 124.353 477.092 123.849 477.092 123.21C477.092 122.473 477.405 121.875 478.03 121.418C478.66 120.961 479.575 120.732 480.774 120.732C481.889 120.732 482.736 120.975 483.315 121.46C483.898 121.941 484.26 122.594 484.4 123.42H482.762C482.692 123.061 482.487 122.76 482.146 122.517C481.81 122.27 481.343 122.146 480.746 122.146C480.13 122.146 479.666 122.251 479.353 122.461C479.04 122.671 478.884 122.939 478.884 123.266C478.884 123.509 478.959 123.707 479.108 123.861C479.262 124.01 479.5 124.143 479.822 124.26L480.564 124.568V126.024ZM491.643 127.284V126.724C491.643 126.318 491.69 125.984 491.783 125.723C491.881 125.462 492.031 125.242 492.231 125.065C492.437 124.883 492.707 124.708 493.043 124.54C493.337 124.391 493.566 124.253 493.729 124.127C493.893 123.996 494.005 123.863 494.065 123.728C494.131 123.593 494.163 123.434 494.163 123.252C494.163 122.958 494.044 122.715 493.806 122.524C493.568 122.328 493.244 122.23 492.833 122.23C492.343 122.23 491.965 122.34 491.699 122.559C491.438 122.774 491.289 123.061 491.251 123.42H489.529C489.581 122.608 489.879 121.957 490.425 121.467C490.976 120.977 491.755 120.732 492.763 120.732C493.426 120.732 493.998 120.844 494.478 121.068C494.959 121.292 495.33 121.595 495.591 121.978C495.853 122.361 495.983 122.79 495.983 123.266C495.983 123.751 495.86 124.162 495.612 124.498C495.37 124.834 494.989 125.133 494.471 125.394C494.168 125.548 493.93 125.693 493.757 125.828C493.589 125.963 493.47 126.113 493.4 126.276C493.33 126.435 493.295 126.635 493.295 126.878V127.284H491.643ZM492.511 130.196C492.171 130.196 491.893 130.091 491.678 129.881C491.468 129.671 491.363 129.414 491.363 129.111C491.363 128.794 491.468 128.53 491.678 128.32C491.893 128.105 492.168 127.998 492.504 127.998C492.845 127.998 493.127 128.105 493.351 128.32C493.575 128.53 493.687 128.791 493.687 129.104C493.687 129.412 493.575 129.671 493.351 129.881C493.127 130.091 492.847 130.196 492.511 130.196ZM502.417 127.284V126.724C502.417 126.318 502.463 125.984 502.557 125.723C502.655 125.462 502.804 125.242 503.005 125.065C503.21 124.883 503.481 124.708 503.817 124.54C504.111 124.391 504.339 124.253 504.503 124.127C504.666 123.996 504.778 123.863 504.839 123.728C504.904 123.593 504.937 123.434 504.937 123.252C504.937 122.958 504.818 122.715 504.58 122.524C504.342 122.328 504.017 122.23 503.607 122.23C503.117 122.23 502.739 122.34 502.473 122.559C502.211 122.774 502.062 123.061 502.025 123.42H500.303C500.354 122.608 500.653 121.957 501.199 121.467C501.749 120.977 502.529 120.732 503.537 120.732C504.199 120.732 504.771 120.844 505.252 121.068C505.732 121.292 506.103 121.595 506.365 121.978C506.626 122.361 506.757 122.79 506.757 123.266C506.757 123.751 506.633 124.162 506.386 124.498C506.143 124.834 505.763 125.133 505.245 125.394C504.941 125.548 504.703 125.693 504.531 125.828C504.363 125.963 504.244 126.113 504.174 126.276C504.104 126.435 504.069 126.635 504.069 126.878V127.284H502.417ZM503.285 130.196C502.944 130.196 502.666 130.091 502.452 129.881C502.242 129.671 502.137 129.414 502.137 129.111C502.137 128.794 502.242 128.53 502.452 128.32C502.666 128.105 502.942 127.998 503.278 127.998C503.618 127.998 503.901 128.105 504.125 128.32C504.349 128.53 504.461 128.791 504.461 129.104C504.461 129.412 504.349 129.671 504.125 129.881C503.901 130.091 503.621 130.196 503.285 130.196ZM513.19 127.284V126.724C513.19 126.318 513.237 125.984 513.33 125.723C513.428 125.462 513.578 125.242 513.778 125.065C513.984 124.883 514.254 124.708 514.59 124.54C514.884 124.391 515.113 124.253 515.276 124.127C515.44 123.996 515.552 123.863 515.612 123.728C515.678 123.593 515.71 123.434 515.71 123.252C515.71 122.958 515.591 122.715 515.353 122.524C515.115 122.328 514.791 122.23 514.38 122.23C513.89 122.23 513.512 122.34 513.246 122.559C512.985 122.774 512.836 123.061 512.798 123.42H511.076C511.128 122.608 511.426 121.957 511.972 121.467C512.523 120.977 513.302 120.732 514.31 120.732C514.973 120.732 515.545 120.844 516.025 121.068C516.506 121.292 516.877 121.595 517.138 121.978C517.4 122.361 517.53 122.79 517.53 123.266C517.53 123.751 517.407 124.162 517.159 124.498C516.917 124.834 516.536 125.133 516.018 125.394C515.715 125.548 515.477 125.693 515.304 125.828C515.136 125.963 515.017 126.113 514.947 126.276C514.877 126.435 514.842 126.635 514.842 126.878V127.284H513.19ZM514.058 130.196C513.718 130.196 513.44 130.091 513.225 129.881C513.015 129.671 512.91 129.414 512.91 129.111C512.91 128.794 513.015 128.53 513.225 128.32C513.44 128.105 513.715 127.998 514.051 127.998C514.392 127.998 514.674 128.105 514.898 128.32C515.122 128.53 515.234 128.791 515.234 129.104C515.234 129.412 515.122 129.671 514.898 129.881C514.674 130.091 514.394 130.196 514.058 130.196ZM523.964 127.284V126.724C523.964 126.318 524.01 125.984 524.104 125.723C524.202 125.462 524.351 125.242 524.552 125.065C524.757 124.883 525.028 124.708 525.364 124.54C525.658 124.391 525.886 124.253 526.05 124.127C526.213 123.996 526.325 123.863 526.386 123.728C526.451 123.593 526.484 123.434 526.484 123.252C526.484 122.958 526.365 122.715 526.127 122.524C525.889 122.328 525.564 122.23 525.154 122.23C524.664 122.23 524.286 122.34 524.02 122.559C523.758 122.774 523.609 123.061 523.572 123.42H521.85C521.901 122.608 522.2 121.957 522.746 121.467C523.296 120.977 524.076 120.732 525.084 120.732C525.746 120.732 526.318 120.844 526.799 121.068C527.279 121.292 527.65 121.595 527.912 121.978C528.173 122.361 528.304 122.79 528.304 123.266C528.304 123.751 528.18 124.162 527.933 124.498C527.69 124.834 527.31 125.133 526.792 125.394C526.488 125.548 526.25 125.693 526.078 125.828C525.91 125.963 525.791 126.113 525.721 126.276C525.651 126.435 525.616 126.635 525.616 126.878V127.284H523.964ZM524.832 130.196C524.491 130.196 524.213 130.091 523.999 129.881C523.789 129.671 523.684 129.414 523.684 129.111C523.684 128.794 523.789 128.53 523.999 128.32C524.213 128.105 524.489 127.998 524.825 127.998C525.165 127.998 525.448 128.105 525.672 128.32C525.896 128.53 526.008 128.791 526.008 129.104C526.008 129.412 525.896 129.671 525.672 129.881C525.448 130.091 525.168 130.196 524.832 130.196ZM534.737 127.284V126.724C534.737 126.318 534.784 125.984 534.877 125.723C534.975 125.462 535.124 125.242 535.325 125.065C535.53 124.883 535.801 124.708 536.137 124.54C536.431 124.391 536.66 124.253 536.823 124.127C536.986 123.996 537.098 123.863 537.159 123.728C537.224 123.593 537.257 123.434 537.257 123.252C537.257 122.958 537.138 122.715 536.9 122.524C536.662 122.328 536.338 122.23 535.927 122.23C535.437 122.23 535.059 122.34 534.793 122.559C534.532 122.774 534.382 123.061 534.345 123.42H532.623C532.674 122.608 532.973 121.957 533.519 121.467C534.07 120.977 534.849 120.732 535.857 120.732C536.52 120.732 537.091 120.844 537.572 121.068C538.053 121.292 538.424 121.595 538.685 121.978C538.946 122.361 539.077 122.79 539.077 123.266C539.077 123.751 538.953 124.162 538.706 124.498C538.463 124.834 538.083 125.133 537.565 125.394C537.262 125.548 537.024 125.693 536.851 125.828C536.683 125.963 536.564 126.113 536.494 126.276C536.424 126.435 536.389 126.635 536.389 126.878V127.284H534.737ZM535.605 130.196C535.264 130.196 534.987 130.091 534.772 129.881C534.562 129.671 534.457 129.414 534.457 129.111C534.457 128.794 534.562 128.53 534.772 128.32C534.987 128.105 535.262 127.998 535.598 127.998C535.939 127.998 536.221 128.105 536.445 128.32C536.669 128.53 536.781 128.791 536.781 129.104C536.781 129.412 536.669 129.671 536.445 129.881C536.221 130.091 535.941 130.196 535.605 130.196Z" fill="black"/>
<path d="M159.084 331.338C133.149 316.962 112.047 295.259 98.4062 268.93C88.4336 248.803 83.0218 226.71 82.5545 204.218C82.0872 181.727 86.576 159.387 95.7023 138.783C107.171 114.044 131.77 93.4228 159.012 95.0437C188.666 96.9189 210.503 123.857 223.863 150.477C239.024 180.688 248.58 213.32 258.031 245.787C264.652 268.496 277.877 306.912 262.974 328.989C246.99 352.53 209.085 350.471 185.805 343.086C176.524 340.075 167.573 336.139 159.084 331.338Z" fill="url(#paint1_linear_1651_7122)" fill-opacity="0.94"/>
<path d="M119.211 229.771C122.226 237.727 122.813 246.398 120.897 254.688C118.981 262.977 114.648 270.512 108.447 276.338C102.246 282.164 94.4556 286.019 86.062 287.416C77.6684 288.813 69.0489 287.689 61.2947 284.186C53.5405 280.683 47.0001 274.958 42.5016 267.736C38.003 260.514 35.7485 252.121 36.0234 243.617C36.2984 235.114 39.0904 226.883 44.0461 219.967C49.0017 213.051 55.8982 207.761 63.8626 204.765C74.5188 200.745 86.3357 201.121 96.7149 205.81C107.094 210.499 115.186 219.118 119.211 229.771Z" fill="#FFB9A5"/>
<path d="M114.111 226.39C116.804 233.498 117.328 241.245 115.617 248.65C113.905 256.056 110.035 262.787 104.496 267.992C98.9569 273.197 91.9981 276.642 84.5005 277.89C77.0028 279.138 69.3035 278.133 62.377 275.004C55.4504 271.874 49.6082 266.759 45.5899 260.308C41.5715 253.856 39.5577 246.357 39.8033 238.76C40.0489 231.163 42.5428 223.81 46.9695 217.631C51.3962 211.453 57.5566 206.726 64.6708 204.05C74.1895 200.458 84.745 200.794 94.0163 204.984C103.288 209.173 110.515 216.873 114.111 226.39Z" fill="#F5F5F5"/>
<path d="M106.691 229.61C108.747 235.025 109.151 240.929 107.85 246.573C106.55 252.218 103.604 257.35 99.3851 261.319C95.1664 265.289 89.8649 267.917 84.1516 268.872C78.4384 269.826 72.5703 269.064 67.2903 266.682C62.0104 264.3 57.5559 260.405 54.4909 255.49C51.4259 250.574 49.8882 244.86 50.0724 239.071C50.2566 233.281 52.1545 227.677 55.5258 222.966C58.8971 218.256 63.5902 214.652 69.0109 212.61C76.2621 209.871 84.3044 210.122 91.37 213.31C98.4356 216.498 103.946 222.361 106.691 229.61Z" fill="#F5F5F5"/>
<path d="M105.521 229.61C105.435 229.477 105.361 229.337 105.301 229.19C105.161 228.88 104.961 228.46 104.721 227.92L104.301 226.99C104.131 226.66 103.911 226.31 103.691 225.92C103.208 225.015 102.66 224.146 102.051 223.32C100.448 221.012 98.5026 218.961 96.2814 217.24C93.0497 214.691 89.3155 212.855 85.324 211.852C81.3325 210.849 77.1739 210.702 73.1214 211.42C68.0268 212.341 63.268 214.597 59.3314 217.96C58.2651 218.852 57.2626 219.818 56.3314 220.85C55.8714 221.37 55.4614 221.94 55.0214 222.49C54.5697 223.035 54.1649 223.617 53.8114 224.23C53.0273 225.434 52.3257 226.691 51.7114 227.99C51.1305 229.334 50.6362 230.713 50.2314 232.12C49.4012 235.017 49.0399 238.028 49.1614 241.04C49.3754 247.282 51.6307 253.282 55.5814 258.12C57.4738 260.467 59.7329 262.493 62.2714 264.12C63.5035 264.916 64.7862 265.631 66.1114 266.26C67.4118 266.83 68.748 267.314 70.1114 267.71C72.7869 268.506 75.5708 268.877 78.3614 268.81C83.538 268.747 88.6046 267.307 93.0414 264.64C96.9081 262.316 100.176 259.116 102.581 255.3C104.555 252.151 105.912 248.656 106.581 245C107.112 242.239 107.22 239.413 106.901 236.62C106.816 235.609 106.655 234.607 106.421 233.62C106.331 233.18 106.271 232.78 106.171 232.41C106.071 232.04 105.971 231.73 105.881 231.41L105.481 230.08C105.433 229.929 105.397 229.776 105.371 229.62C105.443 229.76 105.5 229.908 105.541 230.06L106.001 231.38C106.091 231.67 106.201 232 106.321 232.38C106.441 232.76 106.501 233.15 106.601 233.59C106.857 234.575 107.038 235.578 107.141 236.59C107.5 239.405 107.423 242.258 106.911 245.05C106.185 249.161 104.592 253.07 102.239 256.519C99.8851 259.967 96.825 262.875 93.2614 265.05C89.8081 267.188 85.9443 268.576 81.9202 269.126C77.8961 269.675 73.8014 269.374 69.9014 268.24C68.4897 267.844 67.1066 267.353 65.7614 266.77C64.4086 266.133 63.0991 265.408 61.8414 264.6C59.2494 262.942 56.9429 260.875 55.0114 258.48C50.9638 253.544 48.6579 247.41 48.4514 241.03C48.3229 237.956 48.6979 234.882 49.5614 231.93C49.9655 230.49 50.47 229.079 51.0714 227.71C51.7629 226.388 52.5448 225.115 53.4114 223.9C53.7774 223.275 54.192 222.68 54.6514 222.12C55.1014 221.57 55.5214 220.99 55.9914 220.45C56.9236 219.406 57.9259 218.427 58.9914 217.52C63.011 214.098 67.872 211.812 73.0714 210.9C77.1836 210.177 81.4027 210.338 85.4478 211.372C89.4929 212.407 93.2713 214.291 96.5314 216.9C98.7591 218.658 100.699 220.754 102.281 223.11C102.883 223.952 103.421 224.838 103.891 225.76C104.101 226.16 104.311 226.51 104.471 226.85L104.871 227.8C105.091 228.35 105.271 228.8 105.401 229.09C105.454 229.26 105.494 229.434 105.521 229.61Z" fill="#E0E0E0"/>
<path d="M105.451 229.98C105.291 230.04 104.721 228.89 103.451 226.98C101.734 224.268 99.6126 221.833 97.161 219.76C95.4755 218.357 93.6412 217.143 91.691 216.14C89.475 215.004 87.1225 214.158 84.691 213.62C82.0023 213.04 79.2437 212.851 76.501 213.06C75.0558 213.172 73.6214 213.396 72.211 213.73C70.7608 214.087 69.3373 214.545 67.951 215.1C66.5713 215.67 65.2345 216.338 63.951 217.1C62.7127 217.86 61.5358 218.716 60.431 219.66C59.3536 220.58 58.3505 221.583 57.431 222.66C56.5422 223.675 55.73 224.755 55.001 225.89C53.6392 227.991 52.5567 230.26 51.781 232.64C51.1342 234.716 50.7118 236.855 50.521 239.02C50.2389 242.217 50.4514 245.438 51.151 248.57C51.641 250.8 52.061 252.03 51.891 252.09C51.721 252.15 51.091 251.03 50.321 248.8C49.2604 245.612 48.796 242.256 48.951 238.9C49.0627 236.574 49.4419 234.269 50.081 232.03C50.8294 229.461 51.9227 227.005 53.331 224.73C54.8873 222.205 56.8195 219.933 59.061 217.99C60.2435 216.967 61.504 216.037 62.831 215.21C64.2073 214.37 65.6446 213.635 67.131 213.01C68.6224 212.397 70.1607 211.906 71.731 211.54C74.7315 210.845 77.8225 210.626 80.891 210.89C82.3327 211.015 83.7633 211.245 85.171 211.58C87.7721 212.207 90.2777 213.179 92.621 214.47C94.6568 215.601 96.5502 216.97 98.261 218.55C100.738 220.823 102.772 223.536 104.261 226.55C105.281 228.65 105.571 229.9 105.451 229.98Z" fill="#E0E0E0"/>
<path d="M87.4117 255.09L89.2817 259.83L85.0417 261.49L83.2317 256.9C78.9317 258.29 74.3917 258.56 71.3517 257.65L71.6417 251.57C74.7449 252.309 77.9864 252.233 81.0517 251.35L78.2717 244.27C73.1117 244.98 67.2717 245.47 64.8717 239.41C63.1017 234.92 64.8717 229.79 71.2417 226.41L69.4017 221.71L73.6317 220.05L75.4517 224.67C78.5455 223.641 81.8404 223.367 85.0617 223.87L84.9917 229.87C82.5435 229.493 80.0446 229.608 77.6417 230.21L80.4717 237.41C85.6117 236.66 91.3917 236.2 93.7417 242.17C95.5217 246.59 93.7517 251.67 87.4117 255.09ZM75.8217 238.02L73.4617 232.02C71.4617 233.41 71.0017 235.02 71.5517 236.39C72.1017 237.76 73.7217 238.16 75.8217 238.02ZM87.1217 245.37C86.5417 243.89 84.9917 243.57 82.9217 243.65L85.2217 249.49C87.1517 248.2 87.6517 246.73 87.1217 245.37Z" fill="#E0E0E0"/>
<path d="M685.173 118.228C686.943 122.944 687.765 127.963 687.594 132.997C687.423 138.031 686.262 142.983 684.178 147.568C682.093 152.154 679.125 156.284 675.444 159.722C671.763 163.161 667.44 165.84 662.723 167.608C660.607 168.405 658.425 169.017 656.203 169.438C649.034 170.745 641.64 169.98 634.889 167.234C628.138 164.489 622.31 159.875 618.088 153.935C613.865 147.995 611.424 140.974 611.05 133.695C610.677 126.417 612.385 119.183 615.977 112.841C619.568 106.499 624.893 101.313 631.327 97.89C637.761 94.4669 645.037 92.9491 652.303 93.5145C659.569 94.0798 666.524 96.7049 672.351 101.082C678.178 105.459 682.636 111.407 685.203 118.228H685.173Z" fill="#FFB9A5"/>
<path d="M688.45 115.829C690.219 120.545 691.041 125.564 690.871 130.598C690.7 135.632 689.539 140.584 687.454 145.169C685.369 149.755 682.402 153.885 678.72 157.323C675.039 160.762 670.717 163.441 666 165.209C663.883 166.006 661.702 166.618 659.48 167.039C652.31 168.346 644.916 167.581 638.165 164.836C631.414 162.09 625.586 157.476 621.364 151.536C617.142 145.596 614.701 138.575 614.327 131.296C613.953 124.018 615.662 116.784 619.253 110.442C622.844 104.101 628.169 98.9141 634.603 95.491C641.037 92.068 648.314 90.5502 655.58 91.1155C662.846 91.6809 669.8 94.306 675.627 98.6831C681.454 103.06 685.913 109.008 688.48 115.829H688.45Z" fill="#F5F5F5"/>
<path d="M681.021 119.049C683.075 124.462 683.477 130.363 682.176 136.006C680.875 141.648 677.929 146.777 673.712 150.744C669.494 154.711 664.194 157.338 658.483 158.291C652.772 159.245 646.906 158.482 641.628 156.101C636.351 153.719 631.898 149.825 628.835 144.912C625.772 139.998 624.235 134.286 624.419 128.499C624.604 122.712 626.501 117.109 629.871 112.401C633.241 107.692 637.932 104.09 643.351 102.049C650.6 99.3095 658.641 99.5616 665.705 102.75C672.769 105.937 678.278 111.8 681.021 119.049Z" fill="#F5F5F5"/>
<path d="M679.9 119.049C679.812 118.914 679.738 118.769 679.68 118.619C679.53 118.309 679.34 117.899 679.1 117.359L678.67 116.429C678.5 116.099 678.28 115.749 678.07 115.359C677.585 114.454 677.037 113.586 676.43 112.759C674.819 110.454 672.874 108.402 670.66 106.669C665.371 102.489 658.794 100.276 652.054 100.409C645.314 100.543 638.829 103.013 633.71 107.399C632.663 108.292 631.677 109.254 630.76 110.279C630.3 110.809 629.89 111.379 629.45 111.919C629.002 112.467 628.598 113.049 628.24 113.659C627.458 114.868 626.756 116.128 626.14 117.429C625.557 118.772 625.063 120.152 624.66 121.559C623.825 124.455 623.464 127.467 623.59 130.479C623.804 136.721 626.059 142.721 630.01 147.559C631.899 149.909 634.159 151.935 636.7 153.559C637.924 154.357 639.2 155.072 640.52 155.699C641.84 156.269 643.196 156.754 644.58 157.149C645.935 157.534 647.315 157.828 648.71 158.029C650.076 158.197 651.453 158.27 652.83 158.249C659.569 158.169 666.071 155.75 671.226 151.408C676.38 147.065 679.867 141.067 681.09 134.439C681.628 131.679 681.739 128.853 681.42 126.059C681.334 125.048 681.173 124.046 680.94 123.059C680.85 122.619 680.78 122.209 680.69 121.849L680.39 120.849C680.23 120.289 680.1 119.849 680 119.519C679.952 119.369 679.915 119.215 679.89 119.059C679.958 119.201 680.015 119.348 680.06 119.499L680.51 120.819L680.84 121.819C680.94 122.179 681.02 122.589 681.12 123.029C681.379 124.03 681.559 125.05 681.66 126.079C682.018 128.894 681.941 131.748 681.43 134.539C680.706 138.651 679.115 142.562 676.761 146.011C674.407 149.459 671.345 152.367 667.78 154.539C664.327 156.678 660.464 158.069 656.439 158.62C652.415 159.171 648.32 158.871 644.42 157.739C643.009 157.339 641.627 156.848 640.28 156.269C638.925 155.633 637.615 154.904 636.36 154.089C633.766 152.437 631.459 150.374 629.53 147.979C627.553 145.502 625.962 142.741 624.81 139.789C623.727 136.814 623.107 133.691 622.97 130.529C622.843 127.456 623.214 124.383 624.07 121.429C624.482 119.99 624.989 118.58 625.59 117.209C626.222 115.885 626.936 114.603 627.73 113.369C628.105 112.751 628.523 112.159 628.98 111.599C629.43 111.039 629.85 110.469 630.32 109.929C631.252 108.885 632.254 107.906 633.32 106.999C637.337 103.582 642.195 101.3 647.39 100.389C651.505 99.6727 655.726 99.8418 659.772 100.885C663.817 101.928 667.593 103.822 670.85 106.439C673.077 108.198 675.017 110.293 676.6 112.649C677.201 113.491 677.739 114.377 678.21 115.299C678.42 115.699 678.63 116.049 678.79 116.389L679.19 117.339C679.41 117.889 679.59 118.339 679.72 118.629C679.79 118.764 679.85 118.905 679.9 119.049Z" fill="#E0E0E0"/>
<path d="M679.79 119.409C679.63 119.479 679.06 118.319 677.79 116.409C676.08 113.694 673.962 111.259 671.51 109.189C669.827 107.783 667.993 106.569 666.04 105.569C663.824 104.433 661.472 103.586 659.04 103.049C656.352 102.469 653.593 102.28 650.85 102.489C649.405 102.6 647.971 102.824 646.56 103.159C645.109 103.511 643.685 103.969 642.3 104.529C640.922 105.101 639.585 105.769 638.3 106.529C637.067 107.292 635.894 108.147 634.79 109.089C633.713 109.99 632.709 110.976 631.79 112.039C630.902 113.054 630.089 114.134 629.36 115.269C627.999 117.37 626.916 119.639 626.14 122.019C625.466 124.104 625.023 126.257 624.82 128.439C624.538 131.639 624.75 134.864 625.45 137.999C625.94 140.229 626.36 141.459 626.19 141.519C626.02 141.579 625.38 140.459 624.61 138.229C623.555 135.04 623.094 131.684 623.25 128.329C623.473 123.305 624.981 118.423 627.63 114.149C629.191 111.63 631.122 109.361 633.36 107.419C634.539 106.388 635.8 105.455 637.13 104.629C638.506 103.787 639.943 103.052 641.43 102.429C642.922 101.826 644.456 101.335 646.02 100.959C647.548 100.613 649.099 100.383 650.66 100.269C653.618 100.077 656.587 100.326 659.47 101.009C664.361 102.183 668.868 104.594 672.56 108.009C675.033 110.286 677.067 112.998 678.56 116.009C679.62 118.089 679.91 119.369 679.79 119.409Z" fill="#E0E0E0"/>
<path d="M661.749 144.529L663.609 149.269L659.379 150.929L657.519 146.299C653.229 147.689 648.689 147.959 645.639 147.049L645.939 140.969C649.039 141.708 652.277 141.632 655.339 140.749L652.559 133.669C647.409 134.369 641.559 134.869 639.159 128.809C637.399 124.319 639.159 119.179 645.539 115.809L643.689 111.109L647.929 109.449L649.749 114.059C652.845 113.038 656.139 112.767 659.359 113.269L659.289 119.269C656.841 118.895 654.342 119.014 651.939 119.619L654.769 126.819C659.909 126.069 665.689 125.609 668.039 131.579C669.809 136.029 668.079 141.109 661.749 144.529ZM650.159 127.459L647.789 121.459C645.789 122.849 645.339 124.459 645.889 125.819C646.439 127.179 648.059 127.599 650.159 127.459ZM661.459 134.809C660.869 133.329 659.329 133.009 657.259 133.079L659.549 138.929C661.519 137.629 661.989 136.169 661.459 134.809Z" fill="#E0E0E0"/>
<circle cx="463.001" cy="66" r="5" fill="#F7F2B6"/>
<path d="M373.028 129.024L286.584 185.22V196.414L459.51 196.945V185.22L373.028 129.024Z" fill="#C7E3D9"/>
<path d="M373.028 129.024L286.584 185.22V196.414L459.51 196.945V185.22L373.028 129.024Z" fill="#C7E3D9"/>
<path d="M320.683 202.257H287.949V207.455H320.683V202.257Z" fill="#C7E3D9"/>
<path d="M320.683 293.324H287.949V298.523H320.683V293.324Z" fill="#C7E3D9"/>
<path d="M316.171 204.875H292.427V295.942H316.171V204.875Z" fill="#C7E3D9"/>
<path d="M388.922 202.257H356.188V207.455H388.922V202.257Z" fill="#C7E3D9"/>
<path d="M388.922 293.324H356.188V298.523H388.922V293.324Z" fill="#C7E3D9"/>
<path d="M384.446 204.875H360.701V295.942H384.446V204.875Z" fill="#C7E3D9"/>
<path d="M459.51 202.257H426.776V207.455H459.51V202.257Z" fill="#C7E3D9"/>
<path d="M459.51 293.324H426.776V298.523H459.51V293.324Z" fill="#C7E3D9"/>
<path d="M455.035 204.875H431.29V295.942H455.035V204.875Z" fill="#C7E3D9"/>
<path d="M468.728 303.797H277.368V313.776H468.728V303.797Z" fill="#C7E3D9"/>
<path d="M482.307 318.063H263.789V328.043H482.307V318.063Z" fill="#C7E3D9"/>
<path d="M372.574 174.216C380.157 174.216 386.305 168.066 386.305 160.48C386.305 152.893 380.157 146.744 372.574 146.744C364.99 146.744 358.843 152.893 358.843 160.48C358.843 168.066 364.99 174.216 372.574 174.216Z" fill="white"/>
<path d="M321.556 207.456C310.405 208.771 299.138 208.771 287.987 207.456C299.138 206.141 310.405 206.141 321.556 207.456Z" fill="white"/>
<path d="M389.718 207.455C378.58 208.771 367.326 208.771 356.188 207.455C367.326 206.14 378.58 206.14 389.718 207.455Z" fill="white"/>
<path d="M459.928 207.455C448.79 208.771 437.536 208.771 426.397 207.455C437.536 206.14 448.79 206.14 459.928 207.455Z" fill="white"/>
<path d="M321.556 293.135C310.405 294.45 299.138 294.45 287.987 293.135C299.138 291.82 310.405 291.82 321.556 293.135Z" fill="white"/>
<path d="M389.718 293.135C378.58 294.45 367.326 294.45 356.188 293.135C367.326 291.82 378.58 291.82 389.718 293.135Z" fill="white"/>
<path d="M459.928 293.135C448.79 294.45 437.536 294.45 426.397 293.135C437.536 291.82 448.79 291.82 459.928 293.135Z" fill="white"/>
<path d="M460.003 185.334C460.003 185.903 421.2 186.32 373.37 186.32C325.539 186.32 286.698 185.903 286.698 185.334C286.698 184.765 325.501 184.461 373.37 184.461C421.238 184.461 460.003 184.802 460.003 185.334Z" fill="white"/>
<path d="M606.335 314.437H517.294V334.056H606.335V314.437Z" fill="#F5F5F5"/>
<g opacity="0.1">
<path d="M520.975 316.244C522.268 321.399 522.268 326.792 520.975 331.947C519.672 326.793 519.672 321.398 520.975 316.244Z" fill="black"/>
<path d="M527.601 316.244C528.894 321.399 528.894 326.792 527.601 331.947C526.298 326.793 526.298 321.398 527.601 316.244Z" fill="black"/>
<path d="M530.847 316.244C532.14 321.399 532.14 326.792 530.847 331.947C529.545 326.793 529.545 321.398 530.847 316.244Z" fill="black"/>
<path d="M548.629 316.244C549.922 321.399 549.922 326.792 548.629 331.947C547.327 326.793 547.327 321.398 548.629 316.244Z" fill="black"/>
<path d="M553.423 316.244C554.725 321.398 554.725 326.793 553.423 331.947C552.13 326.792 552.13 321.399 553.423 316.244Z" fill="black"/>
<path d="M573.32 316.244C574.623 321.398 574.623 326.793 573.32 331.947C572.027 326.792 572.027 321.399 573.32 316.244Z" fill="black"/>
<path d="M577.926 316.244C579.219 321.399 579.219 326.792 577.926 331.947C576.624 326.793 576.624 321.398 577.926 316.244Z" fill="black"/>
<path d="M586.363 316.244C587.656 321.399 587.656 326.792 586.363 331.947C585.06 326.793 585.06 321.398 586.363 316.244Z" fill="black"/>
<path d="M569.489 316.244C570.782 321.399 570.782 326.792 569.489 331.947C568.186 326.793 568.186 321.398 569.489 316.244Z" fill="black"/>
<path d="M536.717 316.244C538.01 321.399 538.01 326.792 536.717 331.947C535.415 326.793 535.415 321.398 536.717 316.244Z" fill="black"/>
<path d="M559.842 316.244C561.135 321.399 561.135 326.792 559.842 331.947C558.54 326.793 558.54 321.398 559.842 316.244Z" fill="black"/>
<path d="M563.07 316.244C564.373 321.398 564.373 326.793 563.07 331.947C561.777 326.792 561.777 321.399 563.07 316.244Z" fill="black"/>
<path d="M597.35 316.244C598.652 321.398 598.652 326.793 597.35 331.947C596.057 326.792 596.057 321.399 597.35 316.244Z" fill="black"/>
<path d="M602.334 316.244C603.627 321.399 603.627 326.792 602.334 331.947C601.032 326.793 601.032 321.398 602.334 316.244Z" fill="black"/>
<path d="M590.272 316.244C591.574 321.398 591.574 326.793 590.272 331.947C588.978 326.792 588.978 321.399 590.272 316.244Z" fill="black"/>
<path d="M544.741 316.244C546.034 321.399 546.034 326.792 544.741 331.947C543.448 326.792 543.448 321.399 544.741 316.244Z" fill="black"/>
</g>
<path opacity="0.1" d="M606.335 314.455V318.616L517.294 321.422V314.455H606.335Z" fill="black"/>
<path d="M600.257 294.817H511.217V314.437H600.257V294.817Z" fill="#F5F5F5"/>
<g opacity="0.1">
<path d="M514.878 296.701C516.18 301.854 516.18 307.25 514.878 312.404C513.585 307.249 513.585 301.856 514.878 296.701Z" fill="black"/>
<path d="M521.504 296.701C522.806 301.854 522.806 307.25 521.504 312.404C520.211 307.249 520.211 301.856 521.504 296.701Z" fill="black"/>
<path d="M524.75 296.701C526.043 301.856 526.043 307.249 524.75 312.404C523.457 307.249 523.457 301.856 524.75 296.701Z" fill="black"/>
<path d="M542.532 296.701C543.825 301.856 543.825 307.249 542.532 312.404C541.239 307.249 541.239 301.856 542.532 296.701Z" fill="black"/>
<path d="M547.346 296.701C548.639 301.856 548.639 307.249 547.346 312.404C546.044 307.25 546.044 301.854 547.346 296.701Z" fill="black"/>
<path d="M567.241 296.701C568.535 301.856 568.535 307.249 567.241 312.404C565.939 307.25 565.939 301.854 567.241 296.701Z" fill="black"/>
<path d="M571.828 296.701C573.131 301.854 573.131 307.25 571.828 312.404C570.535 307.249 570.535 301.856 571.828 296.701Z" fill="black"/>
<path d="M580.266 296.701C581.568 301.854 581.568 307.25 580.266 312.404C578.973 307.249 578.973 301.856 580.266 296.701Z" fill="black"/>
<path d="M563.391 296.701C564.684 301.856 564.684 307.249 563.391 312.404C562.098 307.249 562.098 301.856 563.391 296.701Z" fill="black"/>
<path d="M530.62 296.701C531.923 301.854 531.923 307.25 530.62 312.404C529.327 307.249 529.327 301.856 530.62 296.701Z" fill="black"/>
<path d="M553.669 296.701C554.971 301.854 554.971 307.25 553.669 312.404C552.376 307.249 552.376 301.856 553.669 296.701Z" fill="black"/>
<path d="M556.991 296.701C558.285 301.856 558.285 307.249 556.991 312.404C555.689 307.25 555.689 301.854 556.991 296.701Z" fill="black"/>
<path d="M591.271 296.701C592.564 301.856 592.564 307.249 591.271 312.404C589.968 307.25 589.968 301.854 591.271 296.701Z" fill="black"/>
<path d="M596.236 296.701C597.539 301.854 597.539 307.25 596.236 312.404C594.943 307.249 594.943 301.856 596.236 296.701Z" fill="black"/>
<path d="M584.193 296.701C585.486 301.856 585.486 307.249 584.193 312.404C582.89 307.25 582.89 301.854 584.193 296.701Z" fill="black"/>
<path d="M538.681 296.701C539.983 301.854 539.983 307.25 538.681 312.404C537.388 307.249 537.388 301.856 538.681 296.701Z" fill="black"/>
</g>
<path opacity="0.1" d="M600.239 294.817V298.997L511.217 301.803V294.817H600.239Z" fill="black"/>
<path d="M614 255.729H524.959V275.348H614V255.729Z" fill="#F5F5F5"/>
<g opacity="0.1">
<path d="M528.639 257.537C529.932 262.692 529.932 268.085 528.639 273.24C527.336 268.086 527.336 262.69 528.639 257.537Z" fill="black"/>
<path d="M535.302 257.537C536.595 262.692 536.595 268.085 535.302 273.24C534.009 268.085 534.009 262.692 535.302 257.537Z" fill="black"/>
<path d="M538.511 257.537C539.804 262.692 539.804 268.085 538.511 273.24C537.209 268.086 537.209 262.69 538.511 257.537Z" fill="black"/>
<path d="M556.293 257.537C557.586 262.692 557.586 268.085 556.293 273.24C554.991 268.086 554.991 262.69 556.293 257.537Z" fill="black"/>
<path d="M561.087 257.537C562.38 262.692 562.38 268.085 561.087 273.24C559.794 268.085 559.794 262.692 561.087 257.537Z" fill="black"/>
<path d="M580.984 257.537C582.287 262.69 582.287 268.086 580.984 273.24C579.691 268.085 579.691 262.692 580.984 257.537Z" fill="black"/>
<path d="M585.59 257.537C586.883 262.692 586.883 268.085 585.59 273.24C584.288 268.086 584.288 262.69 585.59 257.537Z" fill="black"/>
<path d="M594.027 257.537C595.32 262.692 595.32 268.085 594.027 273.24C592.724 268.086 592.724 262.69 594.027 257.537Z" fill="black"/>
<path d="M577.153 257.537C578.446 262.692 578.446 268.085 577.153 273.24C575.85 268.086 575.85 262.69 577.153 257.537Z" fill="black"/>
<path d="M544.382 257.537C545.675 262.692 545.675 268.085 544.382 273.24C543.089 268.085 543.089 262.692 544.382 257.537Z" fill="black"/>
<path d="M567.392 257.537C568.685 262.692 568.685 268.085 567.392 273.24C566.089 268.086 566.089 262.69 567.392 257.537Z" fill="black"/>
<path d="M570.734 257.537C572.037 262.69 572.037 268.086 570.734 273.24C569.441 268.085 569.441 262.692 570.734 257.537Z" fill="black"/>
<path d="M605.033 257.537C606.327 262.692 606.327 268.085 605.033 273.24C603.731 268.086 603.731 262.69 605.033 257.537Z" fill="black"/>
<path d="M609.997 257.537C611.29 262.692 611.29 268.085 609.997 273.24C608.704 268.085 608.704 262.692 609.997 257.537Z" fill="black"/>
<path d="M597.936 257.537C599.238 262.69 599.238 268.086 597.936 273.24C596.643 268.085 596.643 262.692 597.936 257.537Z" fill="black"/>
<path d="M552.443 257.537C553.746 262.69 553.746 268.086 552.443 273.24C551.15 268.085 551.15 262.692 552.443 257.537Z" fill="black"/>
</g>
<path opacity="0.1" d="M614 255.729V259.908L524.959 262.714V255.729H614Z" fill="black"/>
<path d="M611.754 236.11H522.713V255.729H611.754V236.11Z" fill="#F5F5F5"/>
<g opacity="0.1">
<path d="M607.752 253.62C606.45 248.466 606.45 243.071 607.752 237.917C609.045 243.072 609.045 248.465 607.752 253.62Z" fill="black"/>
<path d="M601.126 253.62C599.824 248.466 599.824 243.071 601.126 237.917C602.419 243.072 602.419 248.465 601.126 253.62Z" fill="black"/>
<path d="M597.879 253.62C596.586 248.465 596.586 243.072 597.879 237.917C599.172 243.072 599.172 248.465 597.879 253.62Z" fill="black"/>
<path d="M580.098 253.62C578.805 248.465 578.805 243.072 580.098 237.917C581.391 243.072 581.391 248.465 580.098 253.62Z" fill="black"/>
<path d="M575.283 253.62C573.99 248.465 573.99 243.072 575.283 237.917C576.586 243.071 576.586 248.466 575.283 253.62Z" fill="black"/>
<path d="M555.388 253.62C554.095 248.465 554.095 243.072 555.388 237.917C556.69 243.071 556.69 248.466 555.388 253.62Z" fill="black"/>
<path d="M550.801 253.62C549.499 248.466 549.499 243.071 550.801 237.917C552.094 243.072 552.094 248.465 550.801 253.62Z" fill="black"/>
<path d="M542.362 253.62C541.059 248.466 541.059 243.071 542.362 237.917C543.655 243.072 543.655 248.465 542.362 253.62Z" fill="black"/>
<path d="M559.238 253.62C557.945 248.465 557.945 243.072 559.238 237.917C560.531 243.072 560.531 248.465 559.238 253.62Z" fill="black"/>
<path d="M591.934 253.62C590.631 248.466 590.631 243.071 591.934 237.917C593.227 243.072 593.227 248.465 591.934 253.62Z" fill="black"/>
<path d="M568.96 253.62C567.658 248.466 567.658 243.071 568.96 237.917C570.253 243.072 570.253 248.465 568.96 253.62Z" fill="black"/>
<path d="M565.638 253.62C564.345 248.465 564.345 243.072 565.638 237.917C566.94 243.071 566.94 248.466 565.638 253.62Z" fill="black"/>
<path d="M531.357 253.62C530.064 248.465 530.064 243.072 531.357 237.917C532.66 243.071 532.66 248.466 531.357 253.62Z" fill="black"/>
<path d="M526.394 253.62C525.091 248.466 525.091 243.071 526.394 237.917C527.687 243.072 527.687 248.465 526.394 253.62Z" fill="black"/>
<path d="M538.437 253.62C537.144 248.465 537.144 243.072 538.437 237.917C539.739 243.071 539.739 248.466 538.437 253.62Z" fill="black"/>
<path d="M583.949 253.62C582.647 248.466 582.647 243.071 583.949 237.917C585.243 243.072 585.243 248.465 583.949 253.62Z" fill="black"/>
</g>
<path opacity="0.1" d="M611.754 236.11V240.29L522.713 243.095V236.11H611.754Z" fill="black"/>
<path d="M606.335 216.49H517.294V236.11H606.335V216.49Z" fill="#F5F5F5"/>
<g opacity="0.1">
<path d="M520.976 218.298C522.269 223.447 522.269 228.834 520.976 233.983C519.672 228.835 519.672 223.446 520.976 218.298Z" fill="black"/>
<path d="M527.601 218.298C528.894 223.447 528.894 228.834 527.601 233.983C526.308 228.834 526.308 223.447 527.601 218.298Z" fill="black"/>
<path d="M530.848 218.298C532.141 223.447 532.141 228.834 530.848 233.983C529.544 228.835 529.544 223.446 530.848 218.298Z" fill="black"/>
<path d="M548.63 218.298C549.923 223.447 549.923 228.834 548.63 233.983C547.326 228.835 547.326 223.446 548.63 218.298Z" fill="black"/>
<path d="M553.444 218.298C554.737 223.447 554.737 228.834 553.444 233.983C552.14 228.835 552.14 223.446 553.444 218.298Z" fill="black"/>
<path d="M573.322 218.298C574.626 223.446 574.626 228.835 573.322 233.983C572.029 228.834 572.029 223.447 573.322 218.298Z" fill="black"/>
<path d="M577.927 218.298C579.22 223.447 579.22 228.834 577.927 233.983C576.623 228.835 576.623 223.446 577.927 218.298Z" fill="black"/>
<path d="M586.364 218.298C587.657 223.447 587.657 228.834 586.364 233.983C585.06 228.835 585.06 223.446 586.364 218.298Z" fill="black"/>
<path d="M569.49 218.298C570.783 223.447 570.783 228.834 569.49 233.983C568.186 228.835 568.186 223.446 569.49 218.298Z" fill="black"/>
<path d="M536.72 218.298C538.013 223.447 538.013 228.834 536.72 233.983C535.427 228.834 535.427 223.447 536.72 218.298Z" fill="black"/>
<path d="M559.843 218.298C561.136 223.447 561.136 228.834 559.843 233.983C558.539 228.835 558.539 223.446 559.843 218.298Z" fill="black"/>
<path d="M563.071 218.298C564.375 223.446 564.375 228.835 563.071 233.983C561.778 228.834 561.778 223.447 563.071 218.298Z" fill="black"/>
<path d="M597.37 218.298C598.663 223.447 598.663 228.834 597.37 233.983C596.066 228.835 596.066 223.446 597.37 218.298Z" fill="black"/>
<path d="M602.334 218.298C603.627 223.447 603.627 228.834 602.334 233.983C601.041 228.834 601.041 223.447 602.334 218.298Z" fill="black"/>
<path d="M590.273 218.298C591.577 223.446 591.577 228.835 590.273 233.983C588.979 228.834 588.979 223.447 590.273 218.298Z" fill="black"/>
<path d="M544.742 218.298C546.046 223.446 546.046 228.835 544.742 233.983C543.449 228.834 543.449 223.447 544.742 218.298Z" fill="black"/>
</g>
<path opacity="0.1" d="M606.335 216.49V220.651L517.294 223.457V216.49H606.335Z" fill="black"/>
<path d="M606.335 275.367H517.294V294.987H606.335V275.367Z" fill="#F5F5F5"/>
<g opacity="0.1">
<path d="M602.334 292.935C601.032 287.781 601.032 282.385 602.334 277.231C603.627 282.386 603.627 287.78 602.334 292.935Z" fill="black"/>
<path d="M595.707 292.935C594.405 287.781 594.405 282.385 595.707 277.231C597 282.386 597 287.78 595.707 292.935Z" fill="black"/>
<path d="M592.462 292.935C591.169 287.78 591.169 282.386 592.462 277.231C593.764 282.385 593.764 287.781 592.462 292.935Z" fill="black"/>
<path d="M574.679 292.935C573.386 287.78 573.386 282.386 574.679 277.231C575.981 282.385 575.981 287.781 574.679 292.935Z" fill="black"/>
<path d="M569.865 292.935C568.572 287.78 568.572 282.386 569.865 277.231C571.168 282.385 571.168 287.781 569.865 292.935Z" fill="black"/>
<path d="M549.969 292.935C548.676 287.78 548.676 282.386 549.969 277.231C551.271 282.385 551.271 287.781 549.969 292.935Z" fill="black"/>
<path d="M545.383 292.935C544.081 287.781 544.081 282.385 545.383 277.231C546.676 282.386 546.676 287.78 545.383 292.935Z" fill="black"/>
<path d="M536.944 292.935C535.641 287.781 535.641 282.385 536.944 277.231C538.237 282.386 538.237 287.78 536.944 292.935Z" fill="black"/>
<path d="M553.82 292.935C552.527 287.78 552.527 282.386 553.82 277.231C555.113 282.386 555.113 287.78 553.82 292.935Z" fill="black"/>
<path d="M586.59 292.935C585.288 287.781 585.288 282.385 586.59 277.231C587.883 282.386 587.883 287.78 586.59 292.935Z" fill="black"/>
<path d="M563.617 292.935C562.315 287.781 562.315 282.385 563.617 277.231C564.911 282.386 564.911 287.78 563.617 292.935Z" fill="black"/>
<path d="M560.219 292.935C558.926 287.78 558.926 282.386 560.219 277.231C561.521 282.385 561.521 287.781 560.219 292.935Z" fill="black"/>
<path d="M525.864 292.935C524.571 287.78 524.571 282.386 525.864 277.231C527.167 282.385 527.167 287.781 525.864 292.935Z" fill="black"/>
<path d="M520.975 292.935C519.672 287.781 519.672 282.385 520.975 277.231C522.268 282.386 522.268 287.78 520.975 292.935Z" fill="black"/>
<path d="M533.019 292.935C531.726 287.78 531.726 282.386 533.019 277.231C534.321 282.385 534.321 287.781 533.019 292.935Z" fill="black"/>
<path d="M578.531 292.935C577.228 287.781 577.228 282.385 578.531 277.231C579.824 282.386 579.824 287.78 578.531 292.935Z" fill="black"/>
</g>
<path opacity="0.1" d="M606.335 275.367V279.528L517.294 282.334V275.367H606.335Z" fill="black"/>
<path d="M519.315 246.258C577.927 256.746 562.448 343.358 503.742 332.87C445.036 322.383 460.628 235.752 519.315 246.258Z" fill="#FFB9A5"/>
<path opacity="0.1" d="M519.315 246.258C577.927 256.746 562.448 343.358 503.742 332.87C445.036 322.383 460.628 235.752 519.315 246.258Z" fill="#E8FFDC"/>
<path d="M513.822 245.279C569.678 255.277 554.199 341.87 498.249 331.891C442.299 321.912 457.91 235.262 513.822 245.279Z" fill="#F5F5F5"/>
<path opacity="0.1" d="M470.613 290.6C470.915 306.039 479.919 320.989 499.57 324.491C546.006 332.795 558.861 260.907 512.5 252.622L511.594 252.472C555.01 261.152 542.59 329.18 498.381 321.253C480.278 318.033 471.557 304.721 470.613 290.6Z" fill="black"/>
<path d="M502.335 304.307L500.64 309.867L495.678 308.353L497.296 302.892C492.471 301.094 488.218 298.118 486.133 295.141L490.712 289.913C492.962 292.772 495.914 295 499.279 296.38L501.811 288.074C496.706 285.05 491.117 281.35 493.266 274.226C494.874 268.96 500.092 265.609 508.19 267.116L509.867 261.599L514.838 263.119L513.198 268.535C516.692 269.816 519.831 271.909 522.357 274.64L518.041 279.96C516.115 277.889 513.795 276.224 511.216 275.062L508.644 283.511C513.775 286.484 519.274 290.17 517.144 297.178C515.573 302.415 510.424 305.734 502.335 304.307ZM504.066 280.816L506.198 273.767C503.423 273.593 501.879 274.714 501.407 276.321C500.935 277.928 502.087 279.452 504.066 280.816ZM508.967 295.403C509.488 293.661 508.337 292.283 506.435 290.878L504.337 297.736C507.021 297.969 508.477 296.996 508.967 295.403Z" fill="#E0E0E0"/>
</g>
<defs>
<linearGradient id="paint0_linear_1651_7122" x1="451.655" y1="57.9152" x2="59.8367" y2="832.724" gradientUnits="userSpaceOnUse">
<stop stop-color="#DCFFF0" stop-opacity="0.99"/>
<stop offset="1" stop-color="#DCFFF0" stop-opacity="0"/>
</linearGradient>
<linearGradient id="paint1_linear_1651_7122" x1="238.101" y1="135.285" x2="131.19" y2="314.811" gradientUnits="userSpaceOnUse">
<stop stop-color="#FFF6A4"/>
<stop offset="1" stop-color="#FFF6A4" stop-opacity="0"/>
</linearGradient>
<clipPath id="clip0_1651_7122">
<rect width="779" height="446" fill="white"/>
</clipPath>
</defs>
</svg>
