<svg width="1280" height="985" viewBox="0 0 1280 985" fill="none" xmlns="http://www.w3.org/2000/svg">
<path d="M571.571 915.943C427.825 896.698 304.252 750.924 302.951 598.015C301.899 478.475 367.505 381.074 486.411 364.807C544.27 356.917 647.223 351.281 646.522 271.098C646.334 252.783 641.284 234.652 639.55 216.523C628.405 105.594 729.213 34.9907 829.043 32.6279C957.24 29.7639 1066.92 164.876 959.12 269.486C907.624 319.484 778.141 324.075 824.228 421.77C899.134 580.642 883.919 798.44 718.621 888.004C674.095 912.807 622.627 922.585 571.571 915.943Z" fill="#E8FFDC"/>
<path fill-rule="evenodd" clip-rule="evenodd" d="M520.271 557.973C415.974 618.537 350.674 737.765 361.59 872.013C364.596 909.085 371.921 945.824 383.84 980.853L1148.16 980.853C1156.86 947.185 1160.45 912.271 1160.27 877.729C1160.15 849.49 1152.26 817.553 1144.33 785.435C1134.08 743.916 1123.75 702.095 1130.02 667.569C1136.12 633.79 1168.64 618.734 1200.91 603.789C1216.78 596.444 1232.58 589.126 1245.16 579.625C1275.28 557.398 1299.72 530.097 1317.04 499.349C1334.36 468.601 1344.2 435.036 1345.98 400.656C1347.75 366.276 1341.42 331.785 1327.37 299.239C1313.32 266.693 1291.83 236.759 1264.18 211.223C1168.87 122.813 964.157 83.6275 864.077 182.014C822.585 222.785 818.505 271.711 814.278 322.396C813.739 328.861 813.198 335.354 812.576 341.863C806.543 405.473 718.485 457.183 654.305 489.859L550.757 542.612C540.243 547.214 530.064 552.344 520.271 557.973Z" fill="#DDFFEE"/>
<path d="M539.695 285.085C512.437 301.318 476.808 291.865 460.117 263.971C443.425 236.076 451.991 200.304 479.25 184.071C506.508 167.839 542.137 177.292 558.828 205.186C575.52 233.081 566.953 268.853 539.695 285.085Z" fill="#D9F7E5"/>
<path d="M1285.81 741.792C1253.57 770.899 1217.21 796.435 1177.54 817.833C1095.84 861.544 997.968 885.3 900.912 877.376C808.666 869.858 722.054 834.851 631.326 817.552C571.773 806.221 506.058 803.559 448.467 821.26C396.837 837.158 364.949 874.327 318.458 896.363C267.881 920.517 208.327 927.771 151.018 916.76C58.5178 898.196 -13.2687 828.91 -39.8405 752.427C-73.6483 655.036 15.6592 467.936 165.36 523.235C210.574 539.92 255.099 576.521 307.23 570.058C361.594 563.238 394.414 515.768 418.375 478.469C477.063 387.223 588.982 366.028 702.703 388.957C744.561 397.407 782.357 412.172 820.911 426.603C833.768 431.395 846.731 436.18 859.805 440.575C975.616 482.114 1089.6 440.362 1206.96 413.165C1259.52 401.59 1307.23 410.593 1358.78 416.029C1372.66 419.528 1385.73 425.166 1397.34 432.664C1468.75 480.274 1416.44 584.371 1375.78 640.874C1350 677.162 1319.85 710.981 1285.81 741.792Z" fill="url(#paint0_linear_304_1799)"/>
<path d="M924.752 611.205C952.69 595.743 975.322 572.221 989.83 543.567C1000.43 521.658 1006.07 497.555 1006.35 472.966C1006.63 448.378 1001.55 423.906 991.465 401.288C978.801 374.124 951.962 351.333 922.483 352.836C890.394 354.593 867.017 383.832 852.816 412.806C836.702 445.69 826.679 481.277 816.769 516.683C809.826 541.449 795.888 583.323 812.243 607.61C829.784 633.508 870.805 631.632 895.937 623.787C905.956 620.586 915.609 616.371 924.752 611.205Z" fill="url(#paint1_linear_304_1799)" fill-opacity="0.94"/>
<defs>
<linearGradient id="paint0_linear_304_1799" x1="1089" y1="164.5" x2="816.043" y2="905.411" gradientUnits="userSpaceOnUse">
<stop stop-color="#FCF7AC"/>
<stop offset="1" stop-color="#E8FFDC" stop-opacity="0"/>
</linearGradient>
<linearGradient id="paint1_linear_304_1799" x1="837.249" y1="396.055" x2="954.781" y2="593.415" gradientUnits="userSpaceOnUse">
<stop stop-color="#FFF6A4"/>
<stop offset="1" stop-color="#FFF6A4" stop-opacity="0"/>
</linearGradient>
</defs>
</svg>
