<svg width="1015" height="1250" viewBox="0 0 1015 1250" fill="none" xmlns="http://www.w3.org/2000/svg">
<path d="M396.75 806.967C518.968 791.851 623.034 669.922 622.959 541.038C622.93 440.28 566.328 357.671 464.981 343.044C415.667 335.947 327.983 330.404 327.959 262.819C327.978 247.382 332.137 232.137 333.473 216.869C342.102 123.447 255.741 63.1562 170.74 60.396C61.5888 56.995 -30.7337 170.043 61.8419 259.054C106.066 301.596 216.326 306.462 177.85 388.459C115.313 521.804 129.95 705.514 271.356 782.284C309.451 803.534 353.339 812.173 396.75 806.967Z" fill="#E8FFDC"/>
<path d="M390.008 266.274C415.322 281.348 448.151 273 463.334 247.626C478.518 222.252 470.305 189.462 444.991 174.388C419.678 159.313 386.848 167.662 371.665 193.035C356.482 218.409 364.694 251.199 390.008 266.274Z" fill="#D9F7E5"/>
<path d="M-282.003 684.782C-252.418 711.28 -219.114 734.594 -182.831 754.206C-108.108 794.274 -18.8336 816.489 69.4373 810.146C153.334 804.13 231.875 773.292 314.309 758.448C368.418 748.726 428.208 746.867 480.771 763.295C527.894 778.048 557.225 811.81 599.721 832.052C645.954 854.238 700.217 861.266 752.287 851.813C836.323 835.844 901.088 773.99 924.64 705.277C954.605 617.78 871.773 448.418 735.979 497.025C694.965 511.691 654.743 544.311 607.241 538.058C557.705 531.464 527.441 488.411 505.325 454.597C451.155 371.877 349.115 351.854 245.8 371.584C207.773 378.855 173.495 391.851 138.523 404.539C126.861 408.752 115.102 412.959 103.239 416.811C-1.82388 453.296 -105.909 414.729 -212.95 389.251C-260.892 378.386 -304.241 386.107 -351.115 390.582C-363.717 393.621 -375.565 398.596 -386.071 405.258C-450.667 447.579 -402.196 541.829 -364.724 593.087C-340.959 626.005 -313.238 656.733 -282.003 684.782Z" fill="#E8FFDC"/>
<path d="M610.676 806.242C619.631 683.545 558.316 573.95 461.472 517.685C452.38 512.454 442.935 507.678 433.185 503.38L337.098 454.266C277.543 423.843 195.774 375.813 189.668 317.583C184.108 264.911 184.356 213.386 140.756 170.949C47.4913 80.1252 -141.263 114.256 -228.561 194.322C-253.882 217.448 -273.48 244.647 -286.187 274.297C-298.894 303.947 -304.449 335.441 -302.521 366.901C-300.593 398.361 -291.221 429.143 -274.965 457.41C-258.709 485.678 -235.901 510.853 -207.901 531.434C-172.389 558.124 -109.632 566.677 -100.813 612.832C-90.0263 668.933 -127.267 745.584 -126.985 804.799C-126.707 879.162 -107.061 955.591 -52.273 1014.91C-42.5222 1025.45 -31.9576 1035.43 -20.6479 1044.78C45.347 1099.33 134.578 1126.07 225.665 1130.53C481.569 1143.19 598.091 979.146 610.676 806.242Z" fill="url(#paint0_linear_305_2515)"/>
<path d="M37.0835 561.338C11.1481 546.962 -9.95376 525.259 -23.5947 498.93C-33.5674 478.803 -38.9792 456.71 -39.4465 434.218C-39.9138 411.726 -35.425 389.386 -26.2986 368.783C-14.8295 344.044 9.7692 323.423 37.0106 325.044C66.6647 326.919 88.5024 353.857 101.862 380.476C117.023 410.688 126.579 443.32 136.03 475.787C142.651 498.496 155.876 536.912 140.973 558.989C124.989 582.53 87.0838 580.471 63.8044 573.086C54.5233 570.074 45.5716 566.139 37.0835 561.338Z" fill="url(#paint1_linear_305_2515)" fill-opacity="0.94"/>
<defs>
<linearGradient id="paint0_linear_305_2515" x1="376.043" y1="281.283" x2="-15.7754" y2="1056.09" gradientUnits="userSpaceOnUse">
<stop stop-color="#DCFFF0"/>
<stop offset="1" stop-color="#DCFFF0" stop-opacity="0"/>
</linearGradient>
<linearGradient id="paint1_linear_305_2515" x1="116.1" y1="365.285" x2="9.18944" y2="544.81" gradientUnits="userSpaceOnUse">
<stop stop-color="#FFF6A4"/>
<stop offset="1" stop-color="#FFF6A4" stop-opacity="0"/>
</linearGradient>
</defs>
</svg>
