<svg width="509" height="451" viewBox="0 0 509 451" fill="none" xmlns="http://www.w3.org/2000/svg">
<path d="M499.837 286.334L87.0362 399.941C85.629 400.33 84.1588 400.437 82.71 400.257C81.2612 400.077 79.8623 399.613 78.5933 398.891C77.3244 398.169 76.2105 397.204 75.3154 396.051C74.4203 394.898 73.7617 393.58 73.3773 392.172L2.43836 134.701C2.04654 133.294 1.93678 131.823 2.11538 130.373C2.29398 128.923 2.75743 127.523 3.47909 126.252C4.20076 124.982 5.16643 123.867 6.32062 122.971C7.47482 122.074 8.79479 121.415 10.2047 121.03L423.005 7.4289C424.413 7.03726 425.885 6.92754 427.335 7.10606C428.786 7.28458 430.187 7.74781 431.458 8.46915C432.729 9.19048 433.845 10.1557 434.741 11.3094C435.638 12.463 436.298 13.7824 436.683 15.1917L507.603 272.663C507.995 274.07 508.105 275.541 507.926 276.991C507.747 278.441 507.284 279.841 506.562 281.112C505.841 282.382 504.875 283.497 503.721 284.393C502.567 285.29 501.247 285.949 499.837 286.334Z" fill="#BFDCBC"/>
<path d="M497.802 279.335L392.402 308.353L259.049 345.017L85.002 392.912C83.5943 393.302 82.1233 393.411 80.6735 393.233C79.2236 393.054 77.8233 392.59 76.5531 391.869C75.2829 391.148 74.1676 390.183 73.2714 389.03C72.3752 387.876 71.7157 386.558 71.3307 385.149L0.40411 127.678C0.0133218 126.27 -0.0954711 124.8 0.0839788 123.35C0.263429 121.901 0.727585 120.501 1.4498 119.231C2.17201 117.961 3.13804 116.847 4.29243 115.951C5.44682 115.056 6.76682 114.397 8.17663 114.013L420.971 0.405463C422.379 0.0138218 423.851 -0.0958943 425.301 0.0826246C426.752 0.261143 428.153 0.724377 429.424 1.44571C430.695 2.16705 431.81 3.13227 432.707 4.28593C433.604 5.43959 434.263 6.75895 434.648 8.16823L505.575 265.639C505.97 267.049 506.083 268.523 505.906 269.976C505.728 271.429 505.265 272.832 504.543 274.105C503.82 275.379 502.852 276.496 501.696 277.394C500.539 278.291 499.216 278.951 497.802 279.335Z" fill="#EAC0B5"/>
<path d="M433.104 67.8274L399.438 77.0898L404.429 95.2128L438.094 85.9503L433.104 67.8274Z" fill="#CA9C90"/>
<path d="M441.655 98.8904L407.989 108.153L412.98 126.276L446.646 117.013L441.655 98.8904Z" fill="#CA9C90"/>
<path d="M450.218 129.957L416.546 139.221L421.537 157.344L455.209 148.08L450.218 129.957Z" fill="#CA9C90"/>
<path d="M458.769 161.02L425.104 170.282L430.094 188.405L463.76 179.143L458.769 161.02Z" fill="#CA9C90"/>
<path d="M467.321 192.082L433.655 201.345L438.646 219.468L472.311 210.205L467.321 192.082Z" fill="#CA9C90"/>
<path d="M475.871 223.151L442.206 232.413L447.196 250.536L480.862 241.274L475.871 223.151Z" fill="#CA9C90"/>
<path d="M47.0895 139.214L13.4238 148.477L18.4146 166.6L52.0803 157.337L47.0895 139.214Z" fill="#3C2F3F"/>
<path d="M435.579 61.7927L401.913 71.0552L406.904 89.1781L440.57 79.9157L435.579 61.7927Z" fill="#EAF7B5"/>
<path d="M444.142 92.8537L410.476 102.116L415.467 120.239L449.133 110.977L444.142 92.8537Z" fill="#EF9D65"/>
<path d="M452.699 123.914L419.027 133.178L424.018 151.301L457.69 142.037L452.699 123.914Z" fill="#CFEFB6"/>
<path d="M461.244 154.985L427.578 164.247L432.569 182.37L466.235 173.108L461.244 154.985Z" fill="#CFEFB6"/>
<path d="M469.807 186.045L436.136 195.31L441.127 213.433L474.798 204.168L469.807 186.045Z" fill="#CFEFB6"/>
<path d="M478.358 217.114L444.692 226.376L449.683 244.499L483.349 235.237L478.358 217.114Z" fill="#A1E5E5"/>
<path d="M469.603 279.083L97.4715 381.496C93.3787 382.321 92.6946 376.506 92.3432 375.23L22.5508 122.934L399.299 19.252L474.343 270.254C474.695 271.529 473.554 277.339 469.603 279.083Z" fill="#CA9C90"/>
<path d="M402.851 18.3946L30.7155 120.78C29.4388 121.132 28.6887 122.451 29.0401 123.727L97.4538 372.156C97.8053 373.432 99.1252 374.182 100.402 373.831L472.537 271.445C473.814 271.093 474.564 269.774 474.213 268.498L405.799 20.0693C405.447 18.7931 404.128 18.0434 402.851 18.3946Z" fill="#9CAFBC"/>
<path d="M50.1896 134.405L16.5239 143.668L21.5147 161.791L55.1804 152.528L50.1896 134.405Z" fill="#DD5D50"/>
<path d="M209.522 64.6533L29.0402 114.309C27.7635 114.661 27.0134 115.98 27.3648 117.256L95.7785 365.685C96.13 366.961 97.4499 367.711 98.7266 367.359L279.208 317.703C280.485 317.352 281.235 316.033 280.883 314.757L212.47 66.3279C212.118 65.0518 210.798 64.302 209.522 64.6533Z" fill="white"/>
<path d="M469.092 269.478L288.61 319.147C288.307 319.231 287.99 319.255 287.678 319.217C287.366 319.178 287.064 319.079 286.79 318.924C286.517 318.768 286.276 318.561 286.083 318.313C285.89 318.065 285.747 317.781 285.664 317.478L215.668 65.348C215.584 65.045 215.56 64.7284 215.598 64.4163C215.637 64.1042 215.736 63.8027 215.892 63.5291C216.047 63.2555 216.254 63.0153 216.503 62.822C216.751 62.6288 217.035 62.4865 217.338 62.4031L397.82 12.7337C398.123 12.6496 398.44 12.626 398.752 12.6644C399.064 12.7027 399.366 12.8023 399.64 12.9574C399.913 13.1125 400.154 13.3201 400.347 13.5682C400.54 13.8163 400.683 14.1001 400.766 14.4034L470.768 266.533C470.936 267.146 470.854 267.8 470.54 268.352C470.225 268.905 469.704 269.309 469.092 269.478Z" fill="#83929B"/>
<path d="M470.817 264.956L421.137 278.627L295.088 313.313L290.342 314.625C290.039 314.709 289.722 314.733 289.41 314.695C289.098 314.656 288.796 314.557 288.522 314.401C288.249 314.246 288.008 314.039 287.815 313.791C287.622 313.543 287.479 313.259 287.396 312.956L218.978 64.5225C218.81 63.9114 218.891 63.2585 219.204 62.7074C219.517 62.1563 220.037 61.7521 220.648 61.5837L401.136 11.9082C401.749 11.7401 402.404 11.8221 402.956 12.1364C403.509 12.4506 403.914 12.9713 404.082 13.5839L472.5 262.011C472.584 262.315 472.607 262.632 472.568 262.945C472.529 263.258 472.428 263.56 472.272 263.833C472.115 264.107 471.906 264.347 471.657 264.54C471.407 264.732 471.122 264.874 470.817 264.956Z" fill="white"/>
<g opacity="0.9">
<path d="M212.173 81.6067C212.444 82.5958 212.416 83.6431 212.092 84.6163C211.768 85.5895 211.163 86.4448 210.353 87.0743C209.543 87.7037 208.564 88.0789 207.541 88.1526C206.517 88.2263 205.495 87.995 204.603 87.4881C203.711 86.9812 202.989 86.2214 202.529 85.3047C202.069 84.3879 201.891 83.3554 202.018 82.3376C202.145 81.3199 202.57 80.3625 203.241 79.5865C203.912 78.8105 204.798 78.2507 205.787 77.9779C206.445 77.7965 207.132 77.7465 207.809 77.8308C208.486 77.915 209.14 78.1318 209.733 78.4689C210.326 78.8059 210.847 79.2565 211.266 79.795C211.684 80.3334 211.993 80.949 212.173 81.6067Z" fill="#968299"/>
<path d="M237.062 74.7558C237.337 75.7461 237.311 76.7955 236.988 77.7711C236.665 78.7467 236.06 79.6048 235.25 80.2366C234.439 80.8685 233.459 81.2457 232.434 81.3207C231.408 81.3957 230.384 81.1649 229.49 80.6577C228.596 80.1505 227.872 79.3896 227.411 78.4713C226.95 77.553 226.771 76.5186 226.898 75.4989C227.025 74.4792 227.452 73.5201 228.125 72.743C228.797 71.9659 229.685 71.4056 230.677 71.1331C231.334 70.9516 232.021 70.9014 232.697 70.9852C233.374 71.0691 234.027 71.2854 234.621 71.6218C235.214 71.9582 235.734 72.4082 236.153 72.9459C236.572 73.4837 236.881 74.0987 237.062 74.7558Z" fill="#968299"/>
<path d="M211.474 84.7441C211.855 82.5273 210.365 80.4221 208.147 80.042C205.929 79.6619 203.823 81.1508 203.443 83.3675C203.063 85.5843 204.552 87.6895 206.77 88.0696C208.988 88.4497 211.094 86.9608 211.474 84.7441Z" fill="#3C2F3F"/>
<path d="M236.28 76.1295C236.493 76.906 236.472 77.7284 236.218 78.4927C235.964 79.2569 235.489 79.9288 234.853 80.4233C234.217 80.9178 233.449 81.2127 232.645 81.2709C231.841 81.329 231.039 81.1476 230.338 80.7497C229.638 80.3518 229.071 79.7553 228.71 79.0355C228.348 78.3157 228.209 77.505 228.308 76.7058C228.408 75.9067 228.742 75.155 229.269 74.5458C229.796 73.9365 230.492 73.4971 231.268 73.2831C231.784 73.141 232.323 73.1018 232.855 73.1679C233.386 73.2341 233.899 73.4041 234.364 73.6685C234.829 73.9328 235.238 74.2862 235.567 74.7085C235.895 75.1307 236.138 75.6136 236.28 76.1295Z" fill="#3C2F3F"/>
<path d="M217.659 101.506C217.932 102.497 217.905 103.546 217.581 104.521C217.257 105.496 216.652 106.353 215.84 106.984C215.029 107.615 214.049 107.992 213.024 108.066C211.999 108.14 210.975 107.908 210.081 107.401C209.188 106.893 208.465 106.132 208.004 105.213C207.543 104.295 207.366 103.26 207.493 102.241C207.621 101.221 208.048 100.263 208.721 99.486C209.394 98.7093 210.282 98.1495 211.273 97.8774C212.601 97.5127 214.02 97.6901 215.217 98.3706C216.415 99.051 217.293 100.179 217.659 101.506Z" fill="#968299"/>
<path d="M242.542 94.6555C242.815 95.646 242.788 96.6951 242.464 97.6703C242.141 98.6454 241.535 99.5027 240.724 100.134C239.913 100.765 238.932 101.141 237.907 101.215C236.882 101.289 235.858 101.058 234.964 100.55C234.071 100.042 233.348 99.2809 232.887 98.3624C232.427 97.444 232.249 96.4097 232.377 95.3902C232.504 94.3708 232.931 93.4121 233.604 92.6354C234.277 91.8587 235.165 91.2989 236.156 91.0267C236.814 90.8453 237.501 90.7953 238.178 90.8796C238.855 90.9638 239.509 91.1807 240.102 91.5177C240.695 91.8548 241.216 92.3054 241.634 92.8438C242.053 93.3822 242.362 93.9979 242.542 94.6555Z" fill="#968299"/>
<path d="M216.876 102.88C217.089 103.656 217.068 104.479 216.814 105.243C216.56 106.007 216.085 106.679 215.449 107.174C214.813 107.668 214.045 107.963 213.241 108.021C212.438 108.079 211.635 107.898 210.934 107.5C210.234 107.102 209.667 106.506 209.306 105.786C208.944 105.066 208.805 104.255 208.904 103.456C209.004 102.657 209.338 101.905 209.865 101.296C210.392 100.687 211.088 100.248 211.865 100.034C212.381 99.8914 212.92 99.8523 213.451 99.9184C213.982 99.9845 214.495 100.155 214.96 100.419C215.426 100.683 215.834 101.037 216.163 101.459C216.492 101.881 216.734 102.364 216.876 102.88Z" fill="#3C2F3F"/>
<path d="M241.759 96.0294C241.973 96.8059 241.951 97.6283 241.697 98.3925C241.443 99.1568 240.968 99.8287 240.332 100.323C239.696 100.818 238.928 101.113 238.125 101.171C237.321 101.229 236.518 101.047 235.818 100.65C235.117 100.252 234.55 99.6552 234.189 98.9354C233.828 98.2156 233.688 97.4049 233.788 96.6057C233.887 95.8066 234.222 95.0549 234.748 94.4456C235.275 93.8364 235.971 93.397 236.748 93.183C237.264 93.0409 237.803 93.0017 238.334 93.0678C238.865 93.134 239.378 93.304 239.844 93.5684C240.309 93.8327 240.718 94.1861 241.046 94.6084C241.375 95.0306 241.617 95.5135 241.759 96.0294Z" fill="#3C2F3F"/>
<path d="M223.157 121.4C223.431 122.39 223.405 123.44 223.083 124.415C222.76 125.391 222.155 126.249 221.344 126.881C220.534 127.512 219.554 127.89 218.528 127.965C217.503 128.04 216.478 127.809 215.584 127.302C214.69 126.795 213.967 126.034 213.506 125.115C213.044 124.197 212.866 123.163 212.993 122.143C213.12 121.123 213.547 120.164 214.219 119.387C214.892 118.61 215.78 118.05 216.771 117.777C217.429 117.596 218.115 117.545 218.792 117.629C219.469 117.713 220.122 117.929 220.715 118.266C221.308 118.602 221.829 119.052 222.248 119.59C222.667 120.128 222.976 120.743 223.157 121.4Z" fill="#968299"/>
<path d="M248.022 114.555C248.295 115.546 248.269 116.596 247.945 117.572C247.622 118.548 247.016 119.406 246.204 120.037C245.392 120.668 244.411 121.044 243.385 121.118C242.359 121.192 241.335 120.959 240.441 120.451C239.547 119.942 238.825 119.179 238.365 118.26C237.905 117.34 237.729 116.305 237.858 115.285C237.987 114.265 238.417 113.307 239.091 112.531C239.766 111.755 240.656 111.197 241.648 110.926C242.975 110.566 244.39 110.745 245.585 111.425C246.779 112.105 247.656 113.231 248.022 114.555Z" fill="#968299"/>
<path d="M222.356 122.774C222.569 123.551 222.548 124.373 222.294 125.137C222.04 125.901 221.565 126.573 220.929 127.068C220.293 127.562 219.525 127.857 218.721 127.915C217.918 127.973 217.115 127.792 216.414 127.394C215.714 126.996 215.147 126.4 214.786 125.68C214.424 124.96 214.285 124.15 214.384 123.35C214.484 122.551 214.818 121.8 215.345 121.19C215.872 120.581 216.568 120.142 217.345 119.928C217.861 119.786 218.4 119.746 218.931 119.812C219.462 119.879 219.975 120.049 220.44 120.313C220.906 120.577 221.314 120.931 221.643 121.353C221.972 121.775 222.214 122.258 222.356 122.774Z" fill="#3C2F3F"/>
<path d="M247.239 115.929C247.452 116.705 247.431 117.528 247.177 118.292C246.923 119.056 246.448 119.728 245.812 120.223C245.176 120.717 244.408 121.012 243.604 121.07C242.8 121.128 241.998 120.947 241.297 120.549C240.597 120.151 240.03 119.555 239.669 118.835C239.307 118.115 239.168 117.304 239.267 116.505C239.367 115.706 239.701 114.954 240.228 114.345C240.755 113.736 241.451 113.296 242.227 113.082C242.743 112.94 243.282 112.901 243.814 112.967C244.345 113.033 244.858 113.203 245.323 113.468C245.788 113.732 246.197 114.086 246.526 114.508C246.854 114.93 247.097 115.413 247.239 115.929Z" fill="#3C2F3F"/>
<path d="M228.618 141.33C228.889 142.319 228.861 143.367 228.537 144.34C228.213 145.313 227.608 146.168 226.798 146.798C225.988 147.427 225.009 147.803 223.986 147.876C222.962 147.95 221.94 147.719 221.048 147.212C220.156 146.705 219.434 145.945 218.974 145.028C218.514 144.112 218.336 143.079 218.463 142.061C218.589 141.044 219.015 140.086 219.686 139.31C220.357 138.534 221.243 137.974 222.232 137.702C222.89 137.52 223.577 137.47 224.254 137.554C224.931 137.639 225.585 137.855 226.178 138.193C226.771 138.53 227.292 138.98 227.71 139.519C228.129 140.057 228.437 140.673 228.618 141.33Z" fill="#968299"/>
<path d="M253.501 134.449C253.779 135.437 253.758 136.486 253.44 137.462C253.122 138.438 252.521 139.298 251.713 139.933C250.906 140.567 249.928 140.948 248.904 141.027C247.88 141.106 246.855 140.879 245.96 140.376C245.065 139.872 244.339 139.115 243.875 138.199C243.411 137.283 243.23 136.25 243.353 135.23C243.477 134.211 243.9 133.251 244.57 132.473C245.24 131.694 246.126 131.132 247.115 130.857C248.438 130.491 249.853 130.663 251.049 131.336C252.246 132.009 253.127 133.128 253.501 134.449Z" fill="#968299"/>
<path d="M227.841 142.673C228.055 143.45 228.033 144.272 227.779 145.037C227.525 145.801 227.05 146.473 226.414 146.967C225.778 147.462 225.01 147.757 224.207 147.815C223.403 147.873 222.6 147.692 221.9 147.294C221.199 146.896 220.632 146.299 220.271 145.579C219.91 144.86 219.77 144.049 219.87 143.25C219.969 142.451 220.304 141.699 220.831 141.09C221.357 140.48 222.053 140.041 222.83 139.827C223.346 139.685 223.885 139.646 224.416 139.712C224.947 139.778 225.46 139.948 225.926 140.212C226.391 140.477 226.8 140.83 227.128 141.252C227.457 141.675 227.699 142.158 227.841 142.673Z" fill="#3C2F3F"/>
<path d="M252.743 135.823C252.958 136.599 252.937 137.422 252.684 138.186C252.431 138.951 251.957 139.624 251.322 140.119C250.686 140.614 249.918 140.91 249.114 140.969C248.31 141.028 247.507 140.848 246.806 140.45C246.105 140.053 245.538 139.457 245.176 138.737C244.814 138.018 244.674 137.207 244.773 136.407C244.872 135.608 245.206 134.856 245.732 134.246C246.259 133.637 246.955 133.197 247.732 132.982C248.773 132.697 249.885 132.835 250.824 133.368C251.764 133.9 252.454 134.783 252.743 135.823Z" fill="#3C2F3F"/>
<path d="M231.143 167.348C233.78 166.216 235 163.162 233.867 160.526C232.735 157.89 229.679 156.671 227.043 157.803C224.406 158.935 223.186 161.989 224.318 164.625C225.451 167.26 228.506 168.48 231.143 167.348Z" fill="#968299"/>
<path d="M258.987 154.348C259.26 155.339 259.233 156.388 258.909 157.363C258.585 158.338 257.98 159.196 257.169 159.826C256.357 160.457 255.377 160.834 254.352 160.908C253.327 160.982 252.303 160.751 251.409 160.243C250.516 159.735 249.793 158.974 249.332 158.055C248.872 157.137 248.694 156.103 248.821 155.083C248.949 154.064 249.376 153.105 250.049 152.328C250.722 151.552 251.61 150.992 252.601 150.72C253.259 150.538 253.946 150.488 254.623 150.572C255.3 150.657 255.954 150.874 256.547 151.211C257.14 151.548 257.661 151.998 258.079 152.537C258.498 153.075 258.806 153.691 258.987 154.348Z" fill="#968299"/>
<path d="M233.321 162.573C233.535 163.35 233.513 164.172 233.259 164.937C233.005 165.701 232.53 166.373 231.894 166.867C231.258 167.362 230.49 167.657 229.687 167.715C228.883 167.773 228.08 167.591 227.38 167.194C226.679 166.796 226.112 166.199 225.751 165.479C225.39 164.76 225.25 163.949 225.35 163.15C225.449 162.351 225.784 161.599 226.31 160.99C226.837 160.38 227.533 159.941 228.31 159.727C228.826 159.585 229.365 159.546 229.896 159.612C230.427 159.678 230.94 159.848 231.406 160.112C231.871 160.377 232.28 160.73 232.608 161.152C232.937 161.575 233.179 162.057 233.321 162.573Z" fill="#3C2F3F"/>
<path d="M258.204 155.722C258.417 156.499 258.396 157.321 258.142 158.085C257.888 158.85 257.413 159.522 256.777 160.016C256.141 160.511 255.373 160.806 254.569 160.864C253.766 160.922 252.963 160.74 252.262 160.342C251.562 159.945 250.995 159.348 250.634 158.628C250.273 157.908 250.133 157.098 250.232 156.299C250.332 155.499 250.666 154.748 251.193 154.139C251.72 153.529 252.416 153.09 253.193 152.876C253.709 152.734 254.248 152.695 254.779 152.761C255.31 152.827 255.823 152.997 256.288 153.261C256.754 153.526 257.162 153.879 257.491 154.301C257.82 154.724 258.062 155.206 258.204 155.722Z" fill="#3C2F3F"/>
<path d="M239.583 181.099C239.856 182.09 239.829 183.139 239.506 184.114C239.182 185.089 238.576 185.947 237.765 186.578C236.954 187.209 235.974 187.585 234.949 187.659C233.924 187.733 232.899 187.502 232.006 186.994C231.112 186.486 230.39 185.725 229.929 184.806C229.468 183.888 229.291 182.854 229.418 181.834C229.546 180.815 229.973 179.856 230.646 179.079C231.318 178.303 232.207 177.743 233.198 177.471C234.526 177.106 235.945 177.283 237.142 177.964C238.34 178.644 239.218 179.772 239.583 181.099Z" fill="#968299"/>
<path d="M264.454 174.248C264.727 175.239 264.7 176.288 264.376 177.263C264.053 178.238 263.447 179.095 262.636 179.726C261.825 180.357 260.845 180.734 259.819 180.808C258.794 180.882 257.77 180.65 256.877 180.143C255.983 179.635 255.26 178.874 254.8 177.955C254.339 177.037 254.161 176.002 254.289 174.983C254.416 173.964 254.844 173.005 255.516 172.228C256.189 171.451 257.077 170.892 258.068 170.62C258.726 170.438 259.413 170.388 260.09 170.472C260.767 170.557 261.421 170.773 262.014 171.11C262.607 171.448 263.128 171.898 263.547 172.437C263.965 172.975 264.274 173.591 264.454 174.248Z" fill="#968299"/>
<path d="M238.801 182.473C239.014 183.25 238.993 184.072 238.739 184.836C238.485 185.601 238.01 186.273 237.374 186.767C236.738 187.262 235.97 187.556 235.166 187.615C234.362 187.673 233.56 187.491 232.859 187.093C232.159 186.696 231.592 186.099 231.231 185.379C230.869 184.659 230.73 183.849 230.829 183.05C230.929 182.25 231.263 181.499 231.79 180.889C232.317 180.28 233.013 179.841 233.789 179.627C234.305 179.485 234.844 179.446 235.376 179.512C235.907 179.578 236.42 179.748 236.885 180.012C237.35 180.277 237.759 180.63 238.088 181.052C238.416 181.474 238.659 181.957 238.801 182.473Z" fill="#3C2F3F"/>
<path d="M263.684 175.622C263.897 176.399 263.876 177.221 263.622 177.985C263.368 178.75 262.893 179.421 262.257 179.916C261.621 180.41 260.853 180.705 260.049 180.764C259.246 180.822 258.443 180.64 257.742 180.242C257.042 179.844 256.475 179.248 256.114 178.528C255.753 177.808 255.613 176.998 255.712 176.198C255.812 175.399 256.146 174.648 256.673 174.038C257.2 173.429 257.896 172.99 258.673 172.776C259.189 172.634 259.728 172.594 260.259 172.661C260.79 172.727 261.303 172.897 261.768 173.161C262.234 173.425 262.642 173.779 262.971 174.201C263.3 174.623 263.542 175.106 263.684 175.622Z" fill="#3C2F3F"/>
<path d="M245.019 200.827C245.292 201.817 245.265 202.867 244.942 203.842C244.618 204.817 244.012 205.674 243.201 206.305C242.39 206.936 241.41 207.312 240.385 207.386C239.36 207.461 238.335 207.229 237.442 206.721C236.548 206.214 235.826 205.452 235.365 204.534C234.904 203.615 234.727 202.581 234.854 201.562C234.982 200.542 235.409 199.583 236.082 198.807C236.755 198.03 237.643 197.47 238.634 197.198C239.291 197.017 239.978 196.967 240.655 197.051C241.333 197.135 241.986 197.352 242.579 197.689C243.172 198.026 243.693 198.477 244.112 199.015C244.531 199.554 244.839 200.169 245.019 200.827Z" fill="#968299"/>
<path d="M269.903 193.976C270.177 194.966 270.151 196.015 269.828 196.991C269.506 197.967 268.901 198.825 268.09 199.456C267.279 200.088 266.299 200.466 265.274 200.541C264.249 200.616 263.224 200.385 262.33 199.878C261.436 199.37 260.712 198.609 260.251 197.691C259.79 196.773 259.612 195.738 259.739 194.719C259.866 193.699 260.292 192.74 260.965 191.963C261.638 191.186 262.526 190.625 263.517 190.353C264.844 189.99 266.262 190.167 267.458 190.846C268.655 191.525 269.534 192.65 269.903 193.976Z" fill="#968299"/>
<path d="M244.237 202.201C244.451 202.977 244.429 203.8 244.175 204.564C243.921 205.328 243.446 206 242.81 206.495C242.174 206.989 241.406 207.284 240.603 207.342C239.799 207.4 238.996 207.219 238.296 206.821C237.595 206.423 237.028 205.827 236.667 205.107C236.306 204.387 236.166 203.576 236.266 202.777C236.365 201.978 236.7 201.226 237.226 200.617C237.753 200.008 238.449 199.568 239.226 199.354C239.742 199.212 240.281 199.173 240.812 199.239C241.343 199.305 241.856 199.475 242.322 199.74C242.787 200.004 243.196 200.357 243.524 200.78C243.853 201.202 244.095 201.685 244.237 202.201Z" fill="#3C2F3F"/>
<path d="M269.201 197.109C269.581 194.893 268.092 192.787 265.874 192.407C263.656 192.027 261.55 193.516 261.17 195.733C260.789 197.95 262.279 200.055 264.497 200.435C266.714 200.815 268.821 199.326 269.201 197.109Z" fill="#3C2F3F"/>
<path d="M250.499 220.727C250.775 221.717 250.75 222.766 250.428 223.743C250.106 224.719 249.502 225.578 248.692 226.21C247.882 226.843 246.902 227.221 245.876 227.297C244.851 227.373 243.826 227.143 242.931 226.636C242.037 226.13 241.313 225.369 240.851 224.451C240.389 223.533 240.21 222.498 240.336 221.478C240.463 220.458 240.889 219.499 241.562 218.721C242.234 217.944 243.122 217.383 244.114 217.11C245.44 216.745 246.857 216.921 248.054 217.599C249.252 218.277 250.131 219.402 250.499 220.727Z" fill="#968299"/>
<path d="M275.383 213.875C275.657 214.866 275.631 215.915 275.308 216.891C274.986 217.866 274.381 218.724 273.57 219.356C272.759 219.988 271.779 220.365 270.754 220.44C269.729 220.515 268.704 220.285 267.81 219.777C266.916 219.27 266.192 218.509 265.731 217.591C265.27 216.673 265.091 215.638 265.219 214.618C265.346 213.599 265.772 212.64 266.445 211.863C267.118 211.085 268.006 210.525 268.997 210.253C269.654 210.071 270.341 210.021 271.018 210.105C271.694 210.189 272.348 210.405 272.941 210.741C273.534 211.078 274.055 211.528 274.474 212.066C274.893 212.603 275.202 213.218 275.383 213.875Z" fill="#968299"/>
<path d="M249.717 222.101C249.93 222.877 249.909 223.7 249.655 224.464C249.401 225.228 248.926 225.9 248.29 226.394C247.654 226.889 246.886 227.184 246.082 227.242C245.278 227.3 244.476 227.119 243.775 226.721C243.075 226.323 242.508 225.726 242.147 225.007C241.785 224.287 241.646 223.476 241.745 222.677C241.845 221.878 242.179 221.126 242.706 220.517C243.233 219.908 243.929 219.468 244.705 219.254C245.221 219.112 245.76 219.073 246.292 219.139C246.823 219.205 247.336 219.375 247.801 219.64C248.266 219.904 248.675 220.257 249.004 220.68C249.333 221.102 249.575 221.585 249.717 222.101Z" fill="#3C2F3F"/>
<path d="M274.6 215.262C274.813 216.038 274.792 216.861 274.538 217.625C274.284 218.389 273.809 219.061 273.173 219.556C272.537 220.05 271.769 220.345 270.965 220.403C270.162 220.461 269.359 220.28 268.658 219.882C267.958 219.484 267.391 218.888 267.03 218.168C266.669 217.448 266.529 216.637 266.628 215.838C266.728 215.039 267.062 214.287 267.589 213.678C268.116 213.069 268.812 212.629 269.589 212.415C270.105 212.273 270.644 212.234 271.175 212.3C271.706 212.366 272.219 212.536 272.684 212.801C273.15 213.065 273.558 213.419 273.887 213.841C274.216 214.263 274.458 214.746 274.6 215.262Z" fill="#3C2F3F"/>
<path d="M255.979 240.626C256.252 241.617 256.225 242.666 255.901 243.641C255.578 244.616 254.972 245.473 254.161 246.104C253.35 246.735 252.369 247.112 251.344 247.186C250.319 247.26 249.295 247.028 248.401 246.521C247.508 246.013 246.785 245.252 246.324 244.333C245.864 243.415 245.686 242.38 245.814 241.361C245.941 240.342 246.368 239.383 247.041 238.606C247.714 237.829 248.602 237.27 249.593 236.998C250.921 236.633 252.34 236.81 253.538 237.491C254.735 238.171 255.613 239.299 255.979 240.626Z" fill="#968299"/>
<path d="M280.862 233.775C281.133 234.764 281.105 235.812 280.781 236.785C280.457 237.758 279.852 238.613 279.042 239.243C278.232 239.872 277.253 240.247 276.23 240.321C275.206 240.395 274.184 240.164 273.292 239.657C272.4 239.15 271.678 238.39 271.218 237.473C270.758 236.556 270.58 235.524 270.707 234.506C270.834 233.488 271.259 232.531 271.93 231.755C272.601 230.979 273.487 230.419 274.476 230.146C275.134 229.965 275.821 229.915 276.498 229.999C277.175 230.083 277.829 230.3 278.422 230.637C279.015 230.974 279.536 231.425 279.955 231.963C280.373 232.502 280.682 233.117 280.862 233.775Z" fill="#968299"/>
<path d="M255.208 242C255.422 242.777 255.4 243.599 255.146 244.363C254.892 245.128 254.418 245.799 253.782 246.294C253.146 246.788 252.377 247.083 251.574 247.141C250.77 247.2 249.967 247.018 249.267 246.62C248.566 246.222 248 245.626 247.638 244.906C247.277 244.186 247.137 243.376 247.237 242.576C247.336 241.777 247.671 241.026 248.198 240.416C248.725 239.807 249.42 239.368 250.197 239.154C250.713 239.012 251.252 238.972 251.783 239.039C252.314 239.105 252.827 239.275 253.293 239.539C253.758 239.803 254.167 240.157 254.496 240.579C254.824 241.001 255.066 241.484 255.208 242Z" fill="#3C2F3F"/>
<path d="M280.085 235.149C280.299 235.926 280.277 236.748 280.023 237.513C279.769 238.277 279.294 238.949 278.659 239.443C278.023 239.938 277.254 240.233 276.451 240.291C275.647 240.349 274.844 240.168 274.144 239.77C273.443 239.372 272.877 238.775 272.515 238.055C272.154 237.336 272.014 236.525 272.114 235.726C272.213 234.927 272.548 234.175 273.075 233.566C273.602 232.957 274.297 232.517 275.074 232.303C275.59 232.161 276.129 232.122 276.66 232.188C277.191 232.254 277.704 232.424 278.17 232.688C278.635 232.953 279.044 233.306 279.372 233.728C279.701 234.151 279.943 234.634 280.085 235.149Z" fill="#3C2F3F"/>
<path d="M261.459 260.52C261.731 261.509 261.704 262.556 261.381 263.53C261.058 264.504 260.454 265.36 259.644 265.99C258.834 266.621 257.856 266.997 256.832 267.071C255.809 267.146 254.786 266.915 253.893 266.409C253.001 265.903 252.278 265.143 251.818 264.226C251.357 263.31 251.178 262.277 251.305 261.259C251.431 260.241 251.856 259.284 252.527 258.507C253.198 257.731 254.084 257.17 255.073 256.897C255.73 256.716 256.417 256.666 257.094 256.749C257.77 256.833 258.424 257.05 259.017 257.386C259.61 257.722 260.131 258.172 260.55 258.71C260.969 259.248 261.278 259.863 261.459 260.52Z" fill="#968299"/>
<path d="M286.348 253.675C286.621 254.666 286.594 255.715 286.27 256.69C285.946 257.665 285.341 258.522 284.529 259.153C283.718 259.784 282.738 260.161 281.713 260.235C280.688 260.309 279.664 260.077 278.77 259.569C277.877 259.062 277.154 258.3 276.693 257.382C276.232 256.464 276.055 255.429 276.182 254.41C276.31 253.39 276.737 252.432 277.41 251.655C278.083 250.878 278.971 250.318 279.962 250.046C281.29 249.682 282.709 249.859 283.906 250.54C285.104 251.22 285.982 252.348 286.348 253.675Z" fill="#968299"/>
<path d="M260.682 261.894C260.896 262.67 260.874 263.493 260.62 264.257C260.366 265.021 259.891 265.693 259.255 266.187C258.619 266.682 257.851 266.977 257.047 267.035C256.244 267.093 255.441 266.912 254.741 266.514C254.04 266.116 253.473 265.519 253.112 264.8C252.751 264.08 252.611 263.269 252.71 262.47C252.81 261.671 253.144 260.919 253.671 260.31C254.198 259.701 254.894 259.261 255.671 259.047C256.187 258.905 256.726 258.866 257.257 258.932C257.788 258.998 258.301 259.168 258.766 259.433C259.232 259.697 259.64 260.05 259.969 260.473C260.298 260.895 260.54 261.378 260.682 261.894Z" fill="#3C2F3F"/>
<path d="M285.565 255.049C285.779 255.825 285.757 256.648 285.503 257.412C285.249 258.176 284.774 258.848 284.139 259.343C283.503 259.837 282.734 260.132 281.931 260.19C281.127 260.248 280.324 260.067 279.624 259.669C278.923 259.271 278.357 258.675 277.995 257.955C277.634 257.235 277.494 256.424 277.594 255.625C277.693 254.826 278.028 254.074 278.555 253.465C279.082 252.856 279.777 252.417 280.554 252.203C281.07 252.06 281.609 252.021 282.14 252.087C282.671 252.153 283.184 252.324 283.65 252.588C284.115 252.852 284.524 253.206 284.852 253.628C285.181 254.05 285.423 254.533 285.565 255.049Z" fill="#3C2F3F"/>
<path d="M266.92 280.42C267.193 281.41 267.166 282.459 266.842 283.434C266.519 284.41 265.913 285.267 265.102 285.898C264.291 286.529 263.31 286.905 262.285 286.979C261.26 287.053 260.236 286.822 259.342 286.314C258.449 285.806 257.726 285.045 257.265 284.127C256.805 283.208 256.627 282.174 256.755 281.154C256.882 280.135 257.309 279.176 257.982 278.4C258.655 277.623 259.543 277.063 260.534 276.791C261.192 276.609 261.879 276.559 262.556 276.644C263.233 276.728 263.887 276.945 264.48 277.282C265.073 277.619 265.594 278.07 266.012 278.608C266.431 279.146 266.739 279.762 266.92 280.42Z" fill="#968299"/>
<path d="M288.791 279.769C291.444 278.675 292.706 275.638 291.611 272.987C290.516 270.335 287.479 269.073 284.826 270.168C282.173 271.262 280.911 274.299 282.006 276.95C283.1 279.602 286.138 280.864 288.791 279.769Z" fill="#968299"/>
<path d="M266.161 281.8C266.375 282.576 266.353 283.399 266.1 284.163C265.846 284.927 265.371 285.599 264.735 286.094C264.099 286.588 263.33 286.883 262.527 286.941C261.723 286.999 260.92 286.818 260.22 286.42C259.52 286.022 258.953 285.426 258.591 284.706C258.23 283.986 258.09 283.175 258.19 282.376C258.289 281.577 258.624 280.825 259.151 280.216C259.678 279.607 260.374 279.168 261.15 278.954C261.666 278.811 262.205 278.772 262.736 278.838C263.268 278.904 263.781 279.075 264.246 279.339C264.711 279.603 265.12 279.957 265.449 280.379C265.777 280.801 266.02 281.284 266.161 281.8Z" fill="#3C2F3F"/>
<path d="M290.666 278.069C291.778 276.114 291.093 273.628 289.137 272.516C287.181 271.405 284.694 272.09 283.582 274.045C282.47 276 283.155 278.486 285.111 279.598C287.067 280.709 289.554 280.025 290.666 278.069Z" fill="#3C2F3F"/>
<path d="M272.424 300.32C272.697 301.31 272.67 302.359 272.346 303.334C272.022 304.31 271.417 305.167 270.606 305.798C269.794 306.429 268.814 306.805 267.789 306.879C266.764 306.953 265.74 306.722 264.846 306.214C263.953 305.706 263.23 304.945 262.769 304.027C262.309 303.108 262.131 302.074 262.258 301.054C262.386 300.035 262.813 299.076 263.486 298.299C264.159 297.523 265.047 296.963 266.038 296.691C267.366 296.326 268.785 296.504 269.982 297.184C271.18 297.865 272.058 298.992 272.424 300.32Z" fill="#968299"/>
<path d="M297.307 293.469C297.58 294.459 297.553 295.508 297.229 296.483C296.906 297.458 296.3 298.316 295.489 298.947C294.678 299.578 293.698 299.954 292.672 300.028C291.647 300.102 290.623 299.871 289.73 299.363C288.836 298.855 288.113 298.094 287.653 297.175C287.192 296.257 287.014 295.223 287.142 294.203C287.269 293.184 287.697 292.225 288.369 291.448C289.042 290.672 289.93 290.112 290.921 289.84C291.579 289.658 292.266 289.608 292.943 289.693C293.62 289.777 294.274 289.994 294.867 290.331C295.46 290.668 295.981 291.118 296.4 291.657C296.818 292.195 297.127 292.811 297.307 293.469Z" fill="#968299"/>
<path d="M271.641 301.693C271.855 302.47 271.833 303.292 271.579 304.057C271.325 304.821 270.85 305.493 270.214 305.987C269.578 306.482 268.81 306.777 268.006 306.835C267.203 306.893 266.4 306.712 265.7 306.314C264.999 305.916 264.432 305.319 264.071 304.599C263.71 303.88 263.57 303.069 263.669 302.27C263.769 301.471 264.103 300.719 264.63 300.11C265.157 299.5 265.853 299.061 266.63 298.847C267.146 298.705 267.685 298.666 268.216 298.732C268.747 298.798 269.26 298.968 269.725 299.232C270.191 299.497 270.599 299.85 270.928 300.272C271.257 300.695 271.499 301.178 271.641 301.693Z" fill="#3C2F3F"/>
<path d="M296.506 294.842C296.719 295.619 296.698 296.441 296.444 297.206C296.19 297.97 295.715 298.642 295.079 299.136C294.443 299.631 293.675 299.926 292.871 299.984C292.068 300.042 291.265 299.86 290.564 299.463C289.864 299.065 289.297 298.468 288.936 297.748C288.574 297.029 288.435 296.218 288.534 295.419C288.634 294.62 288.968 293.868 289.495 293.259C290.022 292.649 290.718 292.21 291.495 291.996C292.011 291.854 292.55 291.815 293.081 291.881C293.612 291.947 294.125 292.117 294.59 292.381C295.056 292.646 295.464 292.999 295.793 293.421C296.122 293.844 296.364 294.326 296.506 294.842Z" fill="#3C2F3F"/>
<path d="M209.35 85.7282L232.292 79.4132C236.113 78.3597 234.486 72.4144 230.652 73.4741L207.711 79.7829C203.889 80.8364 205.51 86.7817 209.35 85.7282Z" fill="#6D7C84"/>
<path d="M214.83 105.597L237.771 99.2881C241.593 98.2346 239.972 92.2893 236.132 93.3428L213.19 99.6824C209.375 100.736 210.996 106.681 214.83 105.622V105.597Z" fill="#6D7C84"/>
<path d="M215.397 82.3952L225.388 79.6474C227.237 79.1422 226.442 76.2958 224.605 76.801L214.614 79.5488C212.765 80.054 213.56 82.9065 215.397 82.3952Z" fill="#C9D9E2"/>
<path d="M220.876 102.295L230.874 99.5471C232.723 99.0419 231.922 96.1894 230.085 96.7007L220.075 99.4362C218.226 99.9414 219.021 102.788 220.858 102.283L220.876 102.295Z" fill="#C9D9E2"/>
<path d="M220.309 125.522L243.251 119.207C247.072 118.159 245.451 112.214 241.617 113.268L218.676 119.583C214.854 120.636 216.475 126.581 220.309 125.522Z" fill="#6D7C84"/>
<path d="M225.795 145.422L248.736 139.107C252.552 138.053 250.931 132.108 247.097 133.167L224.155 139.482C220.334 140.53 221.955 146.475 225.795 145.422Z" fill="#6D7C84"/>
<path d="M226.362 122.195L236.353 119.447C238.202 118.942 237.407 116.089 235.564 116.594L225.573 119.348C223.724 119.854 224.519 122.7 226.362 122.195Z" fill="#C9D9E2"/>
<path d="M231.842 142.095L241.833 139.341C243.682 138.842 242.887 135.989 241.05 136.494L231.053 139.242C229.203 139.747 230.005 142.6 231.842 142.095Z" fill="#C9D9E2"/>
<path d="M231.17 165.358L254.111 159.043C257.933 157.996 256.306 152.051 252.472 153.104L229.53 159.419C225.709 160.466 227.33 166.412 231.17 165.358Z" fill="#6D7C84"/>
<path d="M236.656 185.246L259.597 178.912C263.419 177.859 261.798 171.913 257.958 172.973L235.016 179.288C231.201 180.335 232.822 186.281 236.656 185.227V185.246Z" fill="#6D7C84"/>
<path d="M237.223 162.019L247.196 159.265C249.045 158.766 248.25 155.913 246.413 156.419L236.44 159.197C234.591 159.696 235.386 162.549 237.223 162.044V162.019Z" fill="#C9D9E2"/>
<path d="M242.702 181.919L252.7 179.165C254.549 178.66 253.748 175.813 251.911 176.319L241.92 179.066C240.07 179.572 240.865 182.424 242.702 181.919Z" fill="#C9D9E2"/>
<path d="M242.135 205.146L265.071 198.831C268.892 197.777 267.271 191.832 263.437 192.885L240.496 199.2C236.674 200.254 238.295 206.199 242.129 205.146H242.135Z" fill="#6D7C84"/>
<path d="M247.621 225.039L270.563 218.724C274.378 217.677 272.757 211.732 268.923 212.785L245.963 219.1C242.141 220.154 243.762 226.099 247.603 225.039H247.621Z" fill="#6D7C84"/>
<path d="M248.188 201.813L258.18 199.065C260.029 198.56 259.234 195.713 257.391 196.219L247.399 198.966C245.55 199.471 246.345 202.318 248.188 201.813Z" fill="#C9D9E2"/>
<path d="M253.668 221.713L263.659 218.959C265.508 218.453 264.713 215.601 262.876 216.106L252.885 218.86C251.036 219.365 251.831 222.212 253.668 221.706V221.713Z" fill="#C9D9E2"/>
<path d="M252.447 244.939L275.389 238.624C279.21 237.571 277.589 231.625 273.749 232.685L250.808 239C246.992 240.047 248.613 245.993 252.447 244.939Z" fill="#6D7C84"/>
<path d="M257.933 264.839L280.875 258.524C284.69 257.47 283.069 251.525 279.235 252.584L256.294 258.893C252.472 259.947 254.093 265.892 257.933 264.839Z" fill="#6D7C84"/>
<path d="M258.494 241.612L268.491 238.858C270.341 238.359 269.545 235.507 267.702 236.012L257.711 238.76C255.862 239.265 256.657 242.117 258.494 241.612Z" fill="#C9D9E2"/>
<path d="M263.98 261.506L273.971 258.758C275.82 258.253 275.025 255.406 273.188 255.911L263.221 258.659C261.372 259.164 262.167 262.017 264.01 261.506H263.98Z" fill="#C9D9E2"/>
<path d="M263.413 284.732L286.354 278.423C290.176 277.37 288.548 271.425 284.715 272.478L261.773 278.793C257.951 279.847 259.573 285.792 263.413 284.732Z" fill="#6D7C84"/>
<path d="M268.892 304.632L291.834 298.317C295.655 297.27 294.034 291.324 290.194 292.378L267.252 298.693C263.437 299.74 265.058 305.692 268.892 304.632Z" fill="#6D7C84"/>
<path d="M269.459 281.406L279.451 278.658C281.3 278.153 280.505 275.3 278.668 275.812L268.676 278.559C266.827 279.065 267.622 281.911 269.459 281.406Z" fill="#C9D9E2"/>
<path d="M274.932 301.305L284.93 298.552C286.779 298.053 285.978 295.2 284.141 295.705L274.156 298.435C272.307 298.934 273.102 301.786 274.939 301.281L274.932 301.305Z" fill="#C9D9E2"/>
</g>
<path d="M291.119 211.719L294.743 210.69" stroke="#83929B" stroke-width="5.45" stroke-miterlimit="10" stroke-linecap="round"/>
<path d="M294.768 224.639L298.392 223.61" stroke="#83929B" stroke-width="5.45" stroke-miterlimit="10" stroke-linecap="round"/>
<path d="M298.207 237.614L301.837 236.585" stroke="#83929B" stroke-width="5.45" stroke-miterlimit="10" stroke-linecap="round"/>
<path d="M301.856 250.533L305.48 249.51" stroke="#83929B" stroke-width="5.45" stroke-miterlimit="10" stroke-linecap="round"/>
<path d="M305.462 263.465L309.086 262.442" stroke="#83929B" stroke-width="5.45" stroke-miterlimit="10" stroke-linecap="round"/>
<path d="M325.106 278.916L328.256 278.103" stroke="#83929B" stroke-width="5.45" stroke-miterlimit="10" stroke-linecap="round"/>
<path d="M339.732 274.893L342.882 274.074" stroke="#83929B" stroke-width="5.45" stroke-miterlimit="10" stroke-linecap="round"/>
<path d="M354.353 270.87L357.509 270.051" stroke="#83929B" stroke-width="5.45" stroke-miterlimit="10" stroke-linecap="round"/>
<path d="M368.98 266.841L372.13 266.028" stroke="#83929B" stroke-width="5.45" stroke-miterlimit="10" stroke-linecap="round"/>
<path d="M383.606 262.818L386.756 261.999" stroke="#83929B" stroke-width="5.45" stroke-miterlimit="10" stroke-linecap="round"/>
<path d="M398.233 258.795L401.383 257.976" stroke="#83929B" stroke-width="5.45" stroke-miterlimit="10" stroke-linecap="round"/>
<path d="M414.493 254.316L417.643 253.502" stroke="#83929B" stroke-width="5.45" stroke-miterlimit="10" stroke-linecap="round"/>
<path d="M429.114 250.293L432.27 249.474" stroke="#83929B" stroke-width="5.45" stroke-miterlimit="10" stroke-linecap="round"/>
<path d="M443.74 246.27L446.896 245.45" stroke="#83929B" stroke-width="5.45" stroke-miterlimit="10" stroke-linecap="round"/>
<path d="M296.913 201.874L316.847 274.228L451.759 237.102" stroke="#DEE4E9" stroke-width="2.18" stroke-miterlimit="10"/>
<path d="M335.652 234.25C335.793 234.762 335.778 235.304 335.611 235.808C335.443 236.312 335.129 236.756 334.71 237.082C334.29 237.408 333.783 237.602 333.253 237.64C332.723 237.678 332.193 237.558 331.731 237.295C331.269 237.033 330.896 236.639 330.658 236.164C330.42 235.689 330.328 235.154 330.394 234.627C330.46 234.1 330.681 233.604 331.029 233.202C331.377 232.801 331.836 232.511 332.348 232.37C332.689 232.277 333.044 232.251 333.394 232.295C333.745 232.339 334.083 232.451 334.39 232.626C334.696 232.8 334.966 233.034 335.182 233.312C335.399 233.591 335.559 233.909 335.652 234.25Z" fill="#F27F57"/>
<path d="M370.237 245.616C370.384 246.128 370.375 246.672 370.212 247.178C370.049 247.685 369.739 248.132 369.322 248.462C368.905 248.792 368.398 248.991 367.868 249.034C367.337 249.076 366.806 248.96 366.341 248.7C365.877 248.44 365.5 248.048 365.258 247.574C365.017 247.1 364.922 246.564 364.985 246.036C365.049 245.508 365.268 245.01 365.615 244.606C365.962 244.202 366.421 243.911 366.933 243.768C367.617 243.578 368.347 243.666 368.966 244.012C369.585 244.358 370.042 244.935 370.237 245.616Z" fill="#F27F57"/>
<path d="M387.009 192.263C387.15 192.776 387.135 193.318 386.967 193.822C386.8 194.326 386.486 194.769 386.066 195.095C385.647 195.421 385.14 195.615 384.61 195.654C384.08 195.692 383.55 195.572 383.088 195.309C382.626 195.046 382.253 194.652 382.015 194.177C381.777 193.703 381.685 193.168 381.751 192.641C381.817 192.113 382.038 191.618 382.386 191.216C382.733 190.814 383.193 190.525 383.705 190.384C384.046 190.291 384.401 190.265 384.751 190.309C385.101 190.353 385.44 190.465 385.746 190.64C386.053 190.814 386.323 191.047 386.539 191.326C386.756 191.604 386.915 191.923 387.009 192.263Z" fill="#F27F57"/>
<path d="M419.781 190.618C419.922 191.13 419.908 191.673 419.74 192.177C419.572 192.681 419.259 193.124 418.839 193.45C418.419 193.776 417.912 193.97 417.382 194.008C416.852 194.047 416.323 193.927 415.861 193.664C415.399 193.401 415.025 193.007 414.787 192.532C414.549 192.057 414.457 191.523 414.523 190.996C414.589 190.468 414.81 189.973 415.158 189.571C415.506 189.169 415.965 188.88 416.478 188.739C416.818 188.646 417.173 188.62 417.524 188.664C417.874 188.708 418.212 188.82 418.519 188.995C418.826 189.169 419.095 189.402 419.312 189.681C419.528 189.959 419.688 190.278 419.781 190.618Z" fill="#F27F57"/>
<path d="M317.5 274C319.667 262 325.8 237.4 333 235C342 232 359 251 367.5 246.5C376 242 376 198 385 193C394 188 406 195 416.5 191C424.9 187.8 431 175 433 169" stroke="#F88F6D" stroke-width="2"/>
<path d="M311 251C313.667 257.334 320.3 268.7 325.5 263.5C332 257 338.5 233 348 230C357.5 227 369 240.5 380.5 236C392 231.5 391 190.5 400 186C409 181.5 423 189 431 184C435 178.8 434.667 176.167 434 175.5" stroke="#A1E5E5" stroke-width="2"/>
<path d="M433.693 184.002C433.834 184.514 433.819 185.056 433.652 185.56C433.484 186.064 433.17 186.507 432.751 186.833C432.331 187.159 431.824 187.354 431.294 187.392C430.764 187.43 430.234 187.31 429.772 187.047C429.31 186.784 428.937 186.391 428.699 185.916C428.461 185.441 428.369 184.906 428.435 184.379C428.501 183.852 428.722 183.356 429.07 182.954C429.418 182.553 429.877 182.263 430.389 182.122C430.73 182.029 431.085 182.003 431.435 182.047C431.786 182.091 432.124 182.203 432.431 182.378C432.737 182.552 433.007 182.786 433.223 183.064C433.44 183.343 433.6 183.661 433.693 184.002Z" fill="#A1E5E5"/>
<path d="M402.554 185.196C402.694 185.709 402.679 186.251 402.512 186.754C402.344 187.258 402.031 187.701 401.611 188.027C401.192 188.353 400.685 188.547 400.155 188.585C399.626 188.623 399.096 188.504 398.635 188.242C398.173 187.979 397.799 187.586 397.561 187.112C397.322 186.638 397.23 186.103 397.295 185.576C397.36 185.049 397.58 184.554 397.927 184.152C398.274 183.749 398.732 183.459 399.244 183.317C399.585 183.223 399.941 183.197 400.292 183.24C400.643 183.283 400.982 183.396 401.289 183.57C401.597 183.745 401.867 183.978 402.084 184.257C402.301 184.536 402.46 184.856 402.554 185.196Z" fill="#A1E5E5"/>
<path d="M383.163 235.408C383.309 235.92 383.3 236.463 383.137 236.969C382.974 237.475 382.664 237.922 382.247 238.252C381.83 238.582 381.324 238.781 380.794 238.824C380.263 238.866 379.732 238.751 379.268 238.491C378.803 238.232 378.426 237.84 378.185 237.367C377.943 236.893 377.847 236.358 377.91 235.83C377.972 235.302 378.19 234.804 378.536 234.4C378.882 233.996 379.34 233.704 379.853 233.56C380.537 233.37 381.268 233.457 381.888 233.803C382.508 234.149 382.966 234.726 383.163 235.408Z" fill="#A1E5E5"/>
<path d="M350.1 229.641C350.247 230.153 350.238 230.697 350.075 231.203C349.912 231.71 349.602 232.157 349.185 232.487C348.767 232.817 348.261 233.016 347.731 233.059C347.2 233.101 346.669 232.985 346.204 232.725C345.739 232.465 345.363 232.073 345.121 231.599C344.88 231.124 344.785 230.589 344.848 230.061C344.912 229.532 345.131 229.035 345.478 228.631C345.824 228.227 346.283 227.936 346.796 227.793C347.48 227.603 348.21 227.691 348.829 228.037C349.448 228.383 349.905 228.96 350.1 229.641Z" fill="#A1E5E5"/>
<path d="M328.009 263.674C328.149 264.187 328.135 264.729 327.967 265.232C327.799 265.736 327.486 266.179 327.066 266.505C326.647 266.831 326.14 267.025 325.611 267.063C325.081 267.101 324.552 266.982 324.09 266.72C323.628 266.457 323.254 266.064 323.016 265.59C322.777 265.116 322.685 264.581 322.75 264.054C322.815 263.527 323.035 263.032 323.382 262.63C323.729 262.227 324.187 261.937 324.699 261.795C325.04 261.701 325.396 261.675 325.747 261.718C326.098 261.761 326.437 261.874 326.744 262.048C327.052 262.223 327.322 262.456 327.539 262.735C327.756 263.014 327.915 263.334 328.009 263.674Z" fill="#A1E5E5"/>
<path d="M325.77 68.9996L261 86.8198L262.07 90.7046L326.84 72.8843L325.77 68.9996Z" fill="#DEE4E9"/>
<path d="M355.366 75.2931L264.698 100.239L265.768 104.124L356.436 79.1778L355.366 75.2931Z" fill="#DEE4E9"/>
<path d="M314.087 145.858C310.103 145.668 306.252 144.368 302.968 142.106C299.684 139.844 297.098 136.71 295.501 133.058C293.904 129.405 293.359 125.379 293.929 121.434C294.5 117.488 296.161 113.781 298.727 110.729C301.293 107.678 304.661 105.403 308.451 104.163C312.241 102.923 316.302 102.766 320.177 103.71C324.052 104.654 327.586 106.661 330.38 109.506C333.174 112.35 335.118 115.918 335.991 119.808L329.435 121.275C328.801 118.444 327.34 115.864 325.239 113.861C323.138 111.859 320.49 110.524 317.63 110.026C314.77 109.527 311.826 109.887 309.171 111.06C306.516 112.234 304.268 114.167 302.713 116.617C301.157 119.067 300.362 121.923 300.43 124.824C300.498 127.725 301.424 130.541 303.092 132.916C304.761 135.29 307.096 137.118 309.803 138.166C312.51 139.215 315.467 139.438 318.301 138.807L319.77 145.36C317.906 145.778 315.995 145.946 314.087 145.858Z" fill="#FCB392"/>
<path d="M313.063 123.099C312.8 123.508 312.423 123.831 311.977 124.027C311.532 124.222 311.038 124.282 310.559 124.197C310.08 124.113 309.636 123.889 309.284 123.553C308.932 123.217 308.687 122.785 308.581 122.31C308.474 121.836 308.51 121.34 308.685 120.886C308.859 120.432 309.164 120.04 309.562 119.759C309.959 119.478 310.43 119.32 310.917 119.307C311.403 119.293 311.883 119.424 312.295 119.682C312.571 119.855 312.81 120.08 312.998 120.346C313.187 120.612 313.32 120.913 313.392 121.23C313.463 121.548 313.471 121.877 313.414 122.197C313.358 122.518 313.238 122.824 313.063 123.099Z" stroke="#9CAFBC" stroke-width="3.08" stroke-miterlimit="10"/>
<path d="M321.273 128.309C321.01 128.718 320.632 129.04 320.186 129.235C319.741 129.429 319.247 129.488 318.769 129.403C318.29 129.318 317.847 129.093 317.495 128.757C317.144 128.422 316.9 127.989 316.793 127.515C316.687 127.041 316.723 126.546 316.898 126.092C317.072 125.638 317.377 125.246 317.774 124.965C318.17 124.684 318.641 124.527 319.127 124.513C319.613 124.499 320.093 124.629 320.505 124.886C320.782 125.059 321.022 125.285 321.211 125.552C321.399 125.818 321.533 126.119 321.605 126.437C321.676 126.756 321.684 127.085 321.627 127.407C321.57 127.728 321.449 128.035 321.273 128.309Z" stroke="#9CAFBC" stroke-width="3.08" stroke-miterlimit="10"/>
<path d="M318.808 118.088L310.989 130.431" stroke="#9CAFBC" stroke-width="3.08" stroke-miterlimit="10"/>
<path d="M363.878 111.443C363.615 111.853 363.238 112.176 362.792 112.371C362.347 112.567 361.853 112.626 361.374 112.542C360.895 112.458 360.451 112.233 360.099 111.898C359.747 111.562 359.502 111.129 359.395 110.655C359.289 110.18 359.325 109.685 359.5 109.231C359.674 108.777 359.979 108.385 360.376 108.104C360.774 107.822 361.245 107.665 361.732 107.652C362.218 107.638 362.698 107.768 363.11 108.026C363.386 108.199 363.625 108.425 363.813 108.691C364.002 108.957 364.135 109.257 364.207 109.575C364.278 109.893 364.286 110.221 364.229 110.542C364.173 110.863 364.053 111.169 363.878 111.443Z" stroke="#9CAFBC" stroke-width="3.08" stroke-miterlimit="10"/>
<path d="M364.946 134.693C359.704 134.455 354.726 132.321 350.94 128.689C347.153 125.057 344.816 120.174 344.362 114.949C343.908 109.723 345.369 104.51 348.472 100.281C351.576 96.0512 356.111 93.0926 361.234 91.9554L362.709 98.5026C359.206 99.2869 356.103 101.306 353.968 104.19C351.833 107.075 350.809 110.631 351.083 114.209C351.357 117.786 352.911 121.145 355.461 123.671C358.01 126.197 361.385 127.721 364.966 127.963C368.548 128.206 372.097 127.151 374.963 124.991C377.83 122.832 379.823 119.713 380.576 116.205C381.33 112.697 380.794 109.035 379.067 105.889C377.341 102.743 374.538 100.324 371.173 99.0754L373.517 92.7855C378.355 94.5871 382.389 98.0574 384.892 102.57C387.395 107.083 388.203 112.342 387.168 117.397C386.134 122.452 383.326 126.972 379.252 130.14C375.177 133.308 370.104 134.916 364.947 134.674L364.946 134.693Z" fill="#B6E2A8"/>
<path d="M372.106 116.662C371.844 117.071 371.466 117.394 371.021 117.59C370.575 117.785 370.082 117.845 369.602 117.76C369.123 117.676 368.679 117.452 368.327 117.116C367.975 116.78 367.731 116.348 367.624 115.873C367.517 115.399 367.554 114.903 367.728 114.449C367.903 113.995 368.208 113.603 368.605 113.322C369.002 113.041 369.474 112.883 369.96 112.87C370.446 112.856 370.926 112.987 371.338 113.245C371.615 113.418 371.854 113.643 372.042 113.909C372.23 114.175 372.364 114.475 372.435 114.793C372.507 115.111 372.514 115.44 372.458 115.76C372.401 116.081 372.282 116.387 372.106 116.662Z" stroke="#9CAFBC" stroke-width="3.08" stroke-miterlimit="10"/>
<path d="M369.622 106.445L361.804 118.782" stroke="#9CAFBC" stroke-width="3.08" stroke-miterlimit="10"/>
<path d="M279.956 176.719L278.883 172.838C282.823 171.793 286.685 170.473 290.44 168.888C294.344 167.243 298.359 165.872 302.454 164.785C308.457 163.134 311.459 162.321 314.467 161.52C317.475 160.719 320.458 159.912 326.443 158.261C332.428 156.61 335.436 155.723 338.358 154.86C341.279 153.997 344.336 153.086 350.352 151.435C356.368 149.783 359.598 149.167 362.637 148.594C365.675 148.021 368.683 147.461 374.594 145.834C380.641 144.165 383.766 143.499 386.793 142.852C389.819 142.205 392.821 141.565 398.756 139.932C404.692 138.299 407.638 137.258 410.468 136.236C413.297 135.213 416.416 134.141 422.475 132.471L423.547 136.353C417.618 137.985 414.665 139.026 411.836 140.049C409.007 141.072 405.888 142.144 399.829 143.813C393.77 145.483 390.657 146.148 387.631 146.789C384.604 147.43 381.603 148.083 375.661 149.716C369.589 151.385 366.415 151.977 363.376 152.556C360.338 153.135 357.33 153.689 351.419 155.316C345.508 156.942 342.426 157.854 339.504 158.723C336.582 159.592 333.525 160.491 327.515 162.148C321.506 163.806 318.516 164.613 315.508 165.407C312.501 166.202 309.511 167.022 303.526 168.667C299.585 169.707 295.723 171.027 291.969 172.616C288.065 174.261 284.051 175.632 279.956 176.719Z" fill="#DEE4E9"/>
<path d="M283.198 188.154L282.132 184.266C288.16 182.609 291.267 181.894 294.268 181.186C297.27 180.477 300.284 179.799 306.238 178.161C310.297 177.016 314.411 176.08 318.566 175.357C322.597 174.661 326.588 173.755 330.524 172.64C336.515 170.989 339.504 170.176 342.494 169.314C345.483 168.451 348.485 167.632 354.482 165.981C360.48 164.329 363.389 163.344 366.261 162.37C369.134 161.397 372.215 160.362 378.262 158.674C384.309 156.986 387.44 156.345 390.466 155.71C393.493 155.076 396.501 154.435 402.436 152.802C406.376 151.759 410.24 150.445 414 148.872C417.906 147.235 421.92 145.869 426.013 144.781L427.085 148.668C423.144 149.708 419.28 151.021 415.522 152.599C411.613 154.232 407.598 155.597 403.503 156.684C397.45 158.353 394.325 159.012 391.298 159.647C388.272 160.282 385.264 160.922 379.328 162.555C373.393 164.188 370.422 165.192 367.549 166.165C364.677 167.139 361.595 168.174 355.549 169.862C349.502 171.55 346.574 172.326 343.585 173.189C340.595 174.051 337.594 174.871 331.596 176.522C327.538 177.668 323.423 178.603 319.269 179.325C315.237 180.021 311.246 180.93 307.311 182.048C301.283 183.705 298.176 184.42 295.174 185.129C292.173 185.837 289.152 186.496 283.198 188.154Z" fill="#DEE4E9"/>
<g style="mix-blend-mode:multiply" opacity="0.28">
<path d="M313.29 398.802L326.234 322.406L334.555 312.241L437.49 292.526L341.643 402.498L313.29 398.802Z" fill="#3C2F3F"/>
</g>
<path d="M430.26 449.303L324.896 416.28C322.583 415.532 320.44 414.336 318.59 412.759C316.741 411.182 315.22 409.256 314.116 407.091C313.011 404.927 312.345 402.565 312.154 400.143C311.964 397.72 312.253 395.284 313.006 392.974L352.454 270.069C353.203 267.757 354.4 265.616 355.977 263.767C357.555 261.918 359.482 260.398 361.647 259.294C363.813 258.19 366.175 257.524 368.599 257.334C371.023 257.143 373.46 257.433 375.772 258.185L481.32 292.427C483.633 293.175 485.776 294.372 487.626 295.949C489.476 297.526 490.996 299.451 492.101 301.616C493.205 303.781 493.871 306.142 494.062 308.565C494.252 310.987 493.963 313.423 493.21 315.734L453.577 437.418C452.829 439.73 451.631 441.872 450.054 443.721C448.476 445.57 446.55 447.09 444.384 448.194C442.218 449.298 439.856 449.964 437.432 450.154C435.009 450.344 432.571 450.055 430.26 449.303Z" fill="#BCD9B9"/>
<g style="mix-blend-mode:multiply" opacity="0.28">
<path d="M457.049 277.94L331 312.626L347.322 261.792C348.07 259.48 349.267 257.338 350.845 255.489C352.422 253.64 354.349 252.12 356.515 251.017C358.681 249.913 361.043 249.247 363.467 249.056C365.89 248.866 368.328 249.155 370.639 249.907L457.049 277.94Z" fill="#3C2F3F"/>
</g>
<path d="M431.665 444.978L326.302 411.962C323.985 411.217 321.839 410.022 319.985 408.446C318.131 406.871 316.607 404.945 315.5 402.779C314.392 400.613 313.723 398.25 313.531 395.825C313.339 393.4 313.628 390.962 314.381 388.649L353.829 265.745C354.578 263.433 355.775 261.291 357.352 259.442C358.93 257.593 360.856 256.073 363.022 254.969C365.188 253.865 367.55 253.199 369.974 253.009C372.398 252.819 374.835 253.108 377.147 253.86L482.695 288.103C485.008 288.851 487.151 290.047 489.001 291.624C490.85 293.201 492.371 295.127 493.475 297.291C494.58 299.456 495.246 301.817 495.437 304.24C495.627 306.662 495.338 309.099 494.585 311.409L454.952 433.094C453.44 437.756 450.137 441.627 445.771 443.855C441.404 446.084 436.33 446.488 431.665 444.978Z" fill="#D38B72"/>
<g opacity="0.33">
<path d="M336.057 389.304L332.299 400.877C331.298 403.962 332.987 407.273 336.073 408.274L352.536 413.615C355.621 414.615 358.935 412.927 359.936 409.842L363.694 398.269C364.695 395.184 363.006 391.873 359.92 390.872L343.457 385.531C340.372 384.53 337.058 386.219 336.057 389.304Z" fill="#212123"/>
</g>
<g opacity="0.33">
<path d="M374.61 401.811L370.852 413.385C369.85 416.469 371.54 419.781 374.626 420.782L391.088 426.122C394.174 427.123 397.487 425.434 398.489 422.35L402.247 410.776C403.248 407.692 401.558 404.38 398.473 403.379L382.01 398.039C378.924 397.038 375.611 398.727 374.61 401.811Z" fill="#212123"/>
</g>
<g opacity="0.33">
<path d="M413.154 414.318L409.396 425.891C408.395 428.976 410.085 432.288 413.17 433.288L429.633 438.629C432.719 439.63 436.032 437.941 437.033 434.856L440.791 423.283C441.793 420.199 440.103 416.887 437.017 415.886L420.554 410.546C417.469 409.545 414.155 411.234 413.154 414.318Z" fill="#212123"/>
</g>
<g opacity="0.33">
<path d="M353.55 335.828L349.792 347.402C348.79 350.486 350.48 353.798 353.566 354.799L370.028 360.139C373.114 361.14 376.427 359.451 377.429 356.367L381.187 344.793C382.188 341.709 380.498 338.397 377.413 337.396L360.95 332.056C357.864 331.055 354.551 332.744 353.55 335.828Z" fill="#212123"/>
</g>
<path d="M352.001 332.726L348.243 344.3C347.242 347.384 348.932 350.696 352.017 351.697L368.48 357.037C371.566 358.038 374.879 356.349 375.88 353.265L379.638 341.691C380.64 338.607 378.95 335.295 375.864 334.294L359.402 328.954C356.316 327.953 353.003 329.642 352.001 332.726Z" fill="#B3B3B3"/>
<g opacity="0.33">
<path d="M430.644 360.836L426.886 372.409C425.885 375.494 427.575 378.806 430.66 379.807L447.123 385.147C450.209 386.148 453.522 384.459 454.524 381.375L458.281 369.801C459.283 366.717 457.593 363.405 454.507 362.404L438.045 357.064C434.959 356.063 431.646 357.752 430.644 360.836Z" fill="#212123"/>
</g>
<g opacity="0.33">
<path d="M392.059 348.434L388.301 360.007C387.3 363.091 388.989 366.403 392.075 367.404L408.538 372.744C411.623 373.745 414.937 372.057 415.938 368.972L419.696 357.399C420.697 354.314 419.008 351.003 415.922 350.002L399.459 344.661C396.374 343.66 393.06 345.349 392.059 348.434Z" fill="#212123"/>
</g>
<g opacity="0.33">
<path d="M344.856 362.585L341.098 374.159C340.097 377.243 341.787 380.555 344.872 381.556L361.335 386.896C364.421 387.897 367.734 386.208 368.735 383.124L372.493 371.55C373.495 368.466 371.805 365.154 368.719 364.153L352.257 358.813C349.171 357.812 345.858 359.501 344.856 362.585Z" fill="#212123"/>
</g>
<g opacity="0.33">
<path d="M383.407 375.092L379.649 386.666C378.648 389.75 380.337 393.062 383.423 394.063L399.886 399.403C402.972 400.404 406.285 398.715 407.286 395.631L411.044 384.057C412.045 380.973 410.356 377.661 407.27 376.66L390.807 371.32C387.722 370.319 384.408 372.008 383.407 375.092Z" fill="#212123"/>
</g>
<g opacity="0.33">
<path d="M422.044 388.728L418.271 400.287C417.265 403.368 418.948 406.68 422.03 407.685L438.473 413.048C441.555 414.054 444.868 412.371 445.874 409.291L449.648 397.731C450.653 394.651 448.97 391.339 445.888 390.333L429.446 384.97C426.364 383.965 423.05 385.647 422.044 388.728Z" fill="#212123"/>
</g>
<g opacity="0.33">
<path d="M362.572 310.421L358.799 321.98C357.793 325.061 359.476 328.373 362.558 329.378L379 334.741C382.082 335.746 385.396 334.064 386.402 330.984L390.176 319.424C391.181 316.344 389.498 313.031 386.416 312.026L369.974 306.663C366.892 305.658 363.578 307.34 362.572 310.421Z" fill="#212123"/>
</g>
<g opacity="0.33">
<path d="M401.01 321.972L397.253 333.545C396.251 336.63 397.941 339.941 401.027 340.942L417.489 346.282C420.575 347.283 423.888 345.595 424.89 342.51L428.648 330.937C429.649 327.852 427.959 324.541 424.874 323.54L408.411 318.199C405.325 317.198 402.012 318.887 401.01 321.972Z" fill="#212123"/>
</g>
<g opacity="0.33">
<path d="M439.561 334.479L435.803 346.052C434.802 349.136 436.492 352.448 439.577 353.449L456.04 358.789C459.126 359.79 462.439 358.101 463.441 355.017L467.198 343.444C468.2 340.359 466.51 337.047 463.424 336.046L446.962 330.706C443.876 329.705 440.563 331.394 439.561 334.479Z" fill="#212123"/>
</g>
<path d="M370.136 269.771L365.407 284.333C364.406 287.418 366.096 290.729 369.181 291.73L466.914 323.433C469.999 324.434 473.313 322.745 474.314 319.661L479.042 305.099C480.044 302.014 478.354 298.703 475.268 297.702L377.536 265.999C374.45 264.998 371.137 266.687 370.136 269.771Z" fill="#9CB1A0"/>
<path d="M334.51 386.202L330.753 397.775C329.751 400.86 331.441 404.171 334.527 405.172L350.989 410.512C354.075 411.513 357.388 409.825 358.39 406.74L362.148 395.167C363.149 392.082 361.459 388.771 358.374 387.77L341.911 382.429C338.825 381.428 335.512 383.117 334.51 386.202Z" fill="#B3B3B3"/>
<path d="M373.055 398.708L369.297 410.282C368.296 413.366 369.985 416.678 373.071 417.679L389.534 423.019C392.619 424.02 395.933 422.331 396.934 419.247L400.692 407.673C401.693 404.589 400.004 401.277 396.918 400.276L380.455 394.936C377.37 393.935 374.056 395.624 373.055 398.708Z" fill="#B3B3B3"/>
<path d="M411.606 411.216L407.848 422.789C406.846 425.874 408.536 429.185 411.622 430.186L428.085 435.527C431.17 436.528 434.484 434.839 435.485 431.754L439.243 420.181C440.244 417.096 438.555 413.785 435.469 412.784L419.006 407.444C415.92 406.443 412.607 408.131 411.606 411.216Z" fill="#D8822D"/>
<path d="M390.546 345.233L386.788 356.806C385.786 359.891 387.476 363.203 390.562 364.204L407.024 369.544C410.11 370.545 413.424 368.856 414.425 365.771L418.183 354.198C419.184 351.114 417.494 347.802 414.409 346.801L397.946 341.461C394.86 340.46 391.547 342.149 390.546 345.233Z" fill="#B3B3B3"/>
<path d="M429.096 357.74L425.338 369.313C424.337 372.398 426.026 375.709 429.112 376.71L445.575 382.051C448.66 383.052 451.974 381.363 452.975 378.278L456.733 366.705C457.734 363.62 456.045 360.309 452.959 359.308L436.496 353.967C433.411 352.967 430.097 354.655 429.096 357.74Z" fill="#B3B3B3"/>
<path d="M343.308 359.489L339.55 371.063C338.549 374.147 340.238 377.459 343.324 378.46L359.787 383.8C362.872 384.801 366.186 383.112 367.187 380.028L370.945 368.454C371.946 365.37 370.257 362.058 367.171 361.057L350.708 355.717C347.623 354.716 344.309 356.405 343.308 359.489Z" fill="#B3B3B3"/>
<path d="M381.858 371.997L378.1 383.57C377.099 386.654 378.789 389.966 381.874 390.967L398.337 396.307C401.423 397.308 404.736 395.619 405.737 392.535L409.495 380.962C410.497 377.877 408.807 374.566 405.721 373.565L389.259 368.224C386.173 367.223 382.86 368.912 381.858 371.997Z" fill="#B3B3B3"/>
<path d="M420.403 384.503L416.645 396.077C415.643 399.161 417.333 402.473 420.419 403.474L436.881 408.814C439.967 409.815 443.28 408.126 444.282 405.042L448.04 393.468C449.041 390.384 447.351 387.072 444.266 386.071L427.803 380.731C424.717 379.73 421.404 381.419 420.403 384.503Z" fill="#B3B3B3"/>
<path d="M335.141 384.248L331.384 395.822C330.382 398.906 332.072 402.218 335.158 403.219L351.62 408.559C354.706 409.56 358.019 407.871 359.021 404.787L362.778 393.213C363.78 390.129 362.09 386.817 359.004 385.816L342.542 380.476C339.456 379.475 336.143 381.164 335.141 384.248Z" fill="#EBEBEB"/>
<path d="M373.692 396.755L369.934 408.328C368.932 411.413 370.622 414.725 373.708 415.725L390.17 421.066C393.256 422.067 396.569 420.378 397.571 417.293L401.329 405.72C402.33 402.636 400.64 399.324 397.555 398.323L381.092 392.983C378.006 391.982 374.693 393.671 373.692 396.755Z" fill="#EBEBEB"/>
<path d="M412.236 409.262L408.478 420.835C407.477 423.92 409.167 427.231 412.252 428.232L428.715 433.573C431.801 434.573 435.114 432.885 436.115 429.8L439.873 418.227C440.875 415.142 439.185 411.831 436.099 410.83L419.636 405.489C416.551 404.489 413.237 406.177 412.236 409.262Z" fill="#EEA352"/>
<path d="M352.632 330.772L348.874 342.346C347.872 345.43 349.562 348.742 352.648 349.743L369.11 355.083C372.196 356.084 375.509 354.395 376.511 351.311L380.269 339.737C381.27 336.653 379.58 333.341 376.495 332.34L360.032 327C356.946 325.999 353.633 327.688 352.632 330.772Z" fill="#EBEBEB"/>
<path d="M391.182 343.279L387.425 354.853C386.423 357.937 388.113 361.249 391.199 362.25L407.661 367.59C410.747 368.591 414.06 366.902 415.062 363.818L418.819 352.244C419.821 349.16 418.131 345.848 415.045 344.847L398.583 339.507C395.497 338.506 392.184 340.195 391.182 343.279Z" fill="#EBEBEB"/>
<path d="M429.729 355.78L425.971 367.354C424.97 370.438 426.659 373.75 429.745 374.751L446.208 380.091C449.293 381.092 452.607 379.403 453.608 376.319L457.366 364.745C458.367 361.661 456.678 358.349 453.592 357.348L437.129 352.008C434.043 351.007 430.73 352.696 429.729 355.78Z" fill="#EBEBEB"/>
<path d="M343.945 357.536L340.187 369.109C339.185 372.194 340.875 375.505 343.961 376.506L360.423 381.846C363.509 382.847 366.822 381.159 367.824 378.074L371.582 366.501C372.583 363.416 370.893 360.105 367.808 359.104L351.345 353.763C348.259 352.762 344.946 354.451 343.945 357.536Z" fill="#EBEBEB"/>
<path d="M382.489 370.042L378.731 381.616C377.73 384.7 379.419 388.012 382.505 389.013L398.968 394.353C402.054 395.354 405.367 393.665 406.368 390.581L410.126 379.007C411.127 375.923 409.438 372.611 406.352 371.61L389.889 366.27C386.804 365.269 383.49 366.958 382.489 370.042Z" fill="#EBEBEB"/>
<path d="M421.041 382.538L417.283 394.111C416.282 397.195 417.972 400.507 421.057 401.508L437.52 406.848C440.606 407.849 443.919 406.161 444.921 403.076L448.678 391.503C449.68 388.418 447.99 385.107 444.904 384.106L428.442 378.765C425.356 377.764 422.043 379.453 421.041 382.538Z" fill="#EBEBEB"/>
<path d="M371.256 266.161L366.528 280.723C365.527 283.808 367.216 287.12 370.302 288.121L468.034 319.823C471.12 320.824 474.433 319.135 475.435 316.051L480.163 301.489C481.164 298.404 479.475 295.093 476.389 294.092L378.657 262.389C375.571 261.388 372.258 263.077 371.256 266.161Z" fill="#212123"/>
<path d="M370.675 268.1L365.947 282.662C364.945 285.746 366.635 289.058 369.721 290.059L467.453 321.762C470.539 322.763 473.852 321.074 474.853 317.989L479.581 303.427C480.583 300.343 478.893 297.031 475.807 296.03L378.075 264.327C374.989 263.327 371.676 265.015 370.675 268.1Z" fill="#BBD0BF"/>
<path d="M444.258 285.817L378.435 264.457C375.162 263.397 371.692 265.036 370.693 268.116L365.959 282.687C364.961 285.767 366.804 289.131 370.077 290.191L408.57 302.679L444.258 285.817Z" fill="url(#paint0_linear_1554_7887)"/>
<path d="M360.911 306.368L357.154 317.942C356.152 321.026 357.842 324.338 360.928 325.339L377.39 330.679C380.476 331.68 383.789 329.991 384.791 326.907L388.548 315.333C389.55 312.249 387.86 308.937 384.774 307.936L368.312 302.596C365.226 301.595 361.913 303.284 360.911 306.368Z" fill="#B3B3B3"/>
<path d="M399.462 318.875L395.704 330.449C394.703 333.533 396.393 336.845 399.478 337.846L415.941 343.186C419.027 344.187 422.34 342.498 423.341 339.414L427.099 327.84C428.101 324.756 426.411 321.444 423.325 320.443L406.863 315.103C403.777 314.102 400.464 315.791 399.462 318.875Z" fill="#B3B3B3"/>
<path d="M438.008 331.376L434.251 342.95C433.249 346.034 434.939 349.346 438.025 350.347L454.487 355.687C457.573 356.688 460.886 354.999 461.888 351.915L465.646 340.341C466.647 337.257 464.957 333.945 461.872 332.944L445.409 327.604C442.323 326.603 439.01 328.292 438.008 331.376Z" fill="#B3B3B3"/>
<path d="M361.549 304.408L357.791 315.982C356.789 319.066 358.479 322.378 361.565 323.379L378.027 328.719C381.113 329.72 384.426 328.031 385.428 324.947L389.186 313.373C390.187 310.289 388.497 306.977 385.412 305.976L368.949 300.636C365.863 299.635 362.55 301.324 361.549 304.408Z" fill="#EBEBEB"/>
<path d="M400.099 316.915L396.341 328.489C395.34 331.573 397.029 334.885 400.115 335.886L416.578 341.226C419.663 342.227 422.977 340.538 423.978 337.454L427.736 325.881C428.737 322.796 427.048 319.484 423.962 318.483L407.499 313.143C404.414 312.142 401.1 313.831 400.099 316.915Z" fill="#EBEBEB"/>
<path d="M438.645 329.416L434.887 340.99C433.886 344.074 435.576 347.386 438.661 348.387L455.124 353.727C458.21 354.728 461.523 353.039 462.525 349.955L466.282 338.381C467.284 335.297 465.594 331.985 462.508 330.984L446.046 325.644C442.96 324.643 439.647 326.332 438.645 329.416Z" fill="#EBEBEB"/>
<path d="M91.4495 291.374L90.377 287.492C94.4287 286.34 98.5451 285.429 102.705 284.763C106.745 284.13 110.742 283.249 114.675 282.126C118.621 281.079 122.499 279.791 126.287 278.269C130.205 276.696 134.214 275.363 138.294 274.277C144.292 272.626 147.33 271.763 150.264 270.926C153.198 270.088 156.249 269.225 162.24 267.58C168.232 265.935 171.443 265.282 174.482 264.678C177.52 264.075 180.522 263.446 186.446 261.844C192.369 260.242 195.352 259.201 198.218 258.222C201.085 257.242 204.173 256.195 210.225 254.525C214.283 253.378 218.397 252.447 222.553 251.734C226.584 251.041 230.575 250.136 234.511 249.023L235.577 252.905C231.521 254.054 227.406 254.986 223.249 255.696C219.218 256.389 215.227 257.296 211.292 258.413C205.356 260.045 202.391 261.056 199.519 262.035C196.647 263.015 193.571 264.062 187.518 265.732C181.465 267.401 178.309 268.03 175.271 268.634C172.232 269.237 169.23 269.866 163.307 271.468C157.383 273.07 154.301 273.975 151.368 274.807C148.434 275.639 145.376 276.507 139.367 278.165C135.42 279.212 131.542 280.502 127.754 282.028C123.833 283.596 119.821 284.929 115.741 286.02C111.689 287.17 107.573 288.079 103.413 288.743C99.3763 289.38 95.3812 290.258 91.4495 291.374Z" fill="#DEE4E9"/>
<path d="M95.6282 305.211L94.5557 301.324C98.4989 300.282 102.366 298.973 106.131 297.405C110.039 295.779 114.053 294.419 118.144 293.333C122.2 292.186 126.315 291.262 130.472 290.567C134.506 289.901 138.498 289.006 142.43 287.887C148.402 286.242 151.429 285.348 154.35 284.492C157.272 283.636 160.329 282.724 166.339 281.073C172.349 279.422 175.313 278.504 178.217 277.604C181.12 276.705 184.189 275.756 190.211 274.111C196.233 272.466 199.204 271.647 202.206 270.827C205.208 270.008 208.203 269.201 214.195 267.549C218.252 266.402 222.367 265.468 226.522 264.752C230.553 264.054 234.544 263.145 238.48 262.029L239.552 265.917C235.494 267.06 231.379 267.994 227.225 268.714C223.192 269.409 219.198 270.316 215.261 271.431C209.264 273.082 206.262 273.895 203.266 274.715C200.271 275.534 197.269 276.341 191.278 277.992C185.286 279.643 182.309 280.568 179.394 281.479C176.478 282.391 173.421 283.328 167.399 284.979C161.377 286.63 158.4 287.517 155.478 288.373C152.557 289.23 149.5 290.142 143.484 291.793C139.429 292.943 135.314 293.866 131.156 294.559C127.123 295.231 123.131 296.128 119.198 297.245C115.257 298.286 111.392 299.595 107.629 301.163C103.724 302.78 99.7146 304.132 95.6282 305.211Z" fill="#DEE4E9"/>
<path d="M99.154 318.057L98.0815 314.175C103.999 312.549 106.809 311.526 109.793 310.479C112.776 309.431 115.728 308.328 121.8 306.659C127.871 304.989 130.891 304.238 133.875 303.498C136.858 302.759 139.878 302.001 145.851 300.356C151.824 298.711 154.825 297.799 157.735 296.912C160.644 296.025 163.707 295.064 169.729 293.438C173.791 292.284 177.918 291.373 182.088 290.708C186.121 290.068 190.112 289.188 194.039 288.071C197.986 287.023 201.866 285.737 205.658 284.221C209.578 282.65 213.59 281.319 217.671 280.235C223.742 278.565 226.917 277.967 229.956 277.388C232.994 276.809 236.002 276.249 241.913 274.622L242.986 278.503C236.914 280.179 233.74 280.771 230.701 281.35C227.663 281.929 224.655 282.49 218.744 284.116C214.797 285.157 210.919 286.441 207.131 287.96C199.258 291.025 191.092 293.273 182.759 294.67C178.726 295.309 174.735 296.19 170.808 297.307C164.835 298.952 161.827 299.87 158.912 300.757C155.996 301.644 152.939 302.605 146.923 304.231C140.907 305.858 137.832 306.653 134.855 307.392C131.878 308.131 128.845 308.889 122.872 310.534C116.9 312.179 114.151 313.177 111.161 314.231C108.172 315.284 105.225 316.387 99.154 318.057Z" fill="#DEE4E9"/>
<path d="M102.624 330.65L101.558 326.768C107.469 325.142 110.279 324.119 113.269 323.035C116.258 321.951 119.205 320.872 125.276 319.203C129.349 318.039 133.5 317.162 137.696 316.578C141.732 316.017 145.724 315.171 149.641 314.046C153.579 313.005 157.442 311.7 161.204 310.14C165.118 308.529 169.133 307.177 173.224 306.092C179.271 304.429 182.389 303.757 185.41 303.104C188.43 302.451 191.444 301.811 197.38 300.178C203.315 298.545 206.373 297.633 209.288 296.759C212.204 295.884 215.267 294.978 221.283 293.321C227.299 291.664 230.263 290.77 233.179 289.889C236.094 289.008 239.158 288.084 245.174 286.427L246.246 290.314C240.273 291.953 237.259 292.865 234.344 293.746C231.428 294.627 228.371 295.551 222.349 297.202C216.327 298.853 213.362 299.747 210.441 300.622C207.519 301.496 204.462 302.402 198.446 304.059C192.43 305.717 189.256 306.394 186.26 307.06C183.265 307.725 180.226 308.36 174.29 309.992C170.348 311.038 166.479 312.343 162.708 313.898C158.797 315.51 154.784 316.864 150.695 317.952C146.622 319.116 142.471 319.993 138.275 320.577C134.239 321.139 130.248 321.983 126.33 323.103C120.413 324.729 117.608 325.752 114.619 326.836C111.629 327.921 108.695 328.98 102.624 330.65Z" fill="#DEE4E9"/>
<path d="M106.045 342.596L104.979 338.708C110.994 337.057 114.076 336.293 117.06 335.56C120.043 334.827 123.069 334.082 129.036 332.443C135.002 330.804 138.029 329.898 140.944 329.03C143.86 328.161 146.923 327.249 152.939 325.598C158.955 323.947 162.185 323.312 165.199 322.721C168.213 322.129 171.239 321.538 177.156 319.911C183.074 318.285 186.174 317.392 189.102 316.554C192.03 315.716 195.087 314.835 201.09 313.184C207.094 311.533 210.299 310.886 213.338 310.276C216.376 309.666 219.378 309.044 225.302 307.442C231.225 305.84 234.295 304.897 237.21 304.029C240.125 303.16 243.189 302.242 249.205 300.591L250.277 304.472C244.298 306.117 241.284 307.017 238.363 307.885C235.441 308.754 232.384 309.666 226.374 311.323C220.364 312.98 217.165 313.621 214.127 314.225C211.088 314.829 208.086 315.457 202.163 317.065C196.239 318.673 193.151 319.585 190.217 320.423C187.283 321.261 184.232 322.142 178.229 323.793C172.225 325.444 169.014 326.079 165.969 326.67C162.924 327.261 159.929 327.853 154.005 329.479C148.082 331.106 145.018 332.024 142.097 332.893C139.175 333.761 136.118 334.667 130.108 336.324C124.099 337.981 121.004 338.739 118.021 339.472C115.038 340.206 111.981 340.945 106.045 342.596Z" fill="#DEE4E9"/>
<path d="M89.6024 230.489L83 232.306L84.8174 238.905L91.4198 237.088L89.6024 230.489Z" fill="#FCB392"/>
<path opacity="0.5" d="M93.1761 243.433L86.5737 245.25L88.3911 251.849L94.9935 250.032L93.1761 243.433Z" fill="#D3EDC9"/>
<path d="M158.506 212.999L98.8467 229.414L99.9165 233.298L159.576 216.884L158.506 212.999Z" fill="#DEE4E9"/>
<path d="M162.062 225.94L102.402 242.354L103.472 246.239L163.131 229.825L162.062 225.94Z" fill="#DEE4E9"/>
<path d="M85.187 211.597L93.2061 209.385" stroke="#9CAFBC" stroke-width="5.45" stroke-miterlimit="10"/>
<path d="M99.8135 207.568L107.833 205.362" stroke="#9CAFBC" stroke-width="5.45" stroke-miterlimit="10"/>
<path d="M114.44 203.544L122.459 201.339" stroke="#9CAFBC" stroke-width="5.45" stroke-miterlimit="10"/>
<path d="M129.067 199.522L137.086 197.31" stroke="#9CAFBC" stroke-width="5.45" stroke-miterlimit="10"/>
<path d="M143.693 195.492L151.712 193.287" stroke="#9CAFBC" stroke-width="5.45" stroke-miterlimit="10"/>
<path d="M158.314 191.469L166.339 189.264" stroke="#9CAFBC" stroke-width="5.45" stroke-miterlimit="10"/>
<path d="M174.574 186.996L182.593 184.785" stroke="#9CAFBC" stroke-width="5.45" stroke-miterlimit="10"/>
<path d="M189.201 182.967L197.22 180.761" stroke="#9CAFBC" stroke-width="5.45" stroke-miterlimit="10"/>
<path d="M82.5 173C72.9 173.8 70.5 180 70.5 183L77 207L211.5 170.5L197 117.5C181.5 121 194 163 176 168C158 173 148.5 131.5 134 135C119.5 138.5 127 177.5 110.5 180.5C94 183.5 94.5 172 82.5 173Z" fill="#D3EDC9"/>
<path d="M203.827 178.944L211.846 176.738" stroke="#9CAFBC" stroke-width="5.45" stroke-miterlimit="10"/>
<path d="M77.5414 164.973L75.8741 165.431C73.2116 166.164 71.6476 168.916 72.3807 171.578L80.4189 200.767C81.152 203.429 83.9048 204.994 86.5673 204.261L88.2346 203.803C90.8971 203.07 92.4611 200.318 91.7279 197.656L83.6898 168.467C82.9566 165.805 80.2039 164.24 77.5414 164.973Z" fill="url(#paint1_linear_1554_7887)"/>
<path d="M97.5102 180.361L95.8428 180.82C93.1803 181.552 91.6163 184.304 92.3495 186.967L95.0419 196.743C95.775 199.406 98.5278 200.97 101.19 200.238L102.858 199.779C105.52 199.046 107.084 196.294 106.351 193.632L103.659 183.855C102.925 181.193 100.173 179.628 97.5102 180.361Z" fill="url(#paint2_linear_1554_7887)"/>
<path d="M99.7157 131.219L98.0484 131.678C95.3859 132.41 93.8219 135.162 94.555 137.824L109.722 192.9C110.455 195.562 113.208 197.126 115.87 196.394L117.538 195.935C120.2 195.203 121.764 192.451 121.031 189.788L105.864 134.713C105.131 132.051 102.378 130.486 99.7157 131.219Z" fill="url(#paint3_linear_1554_7887)"/>
<path d="M116.068 133.47L114.4 133.929C111.738 134.661 110.174 137.413 110.907 140.075L124.293 188.682C125.026 191.344 127.779 192.909 130.441 192.176L132.108 191.717C134.771 190.985 136.335 188.233 135.602 185.571L122.216 136.964C121.483 134.302 118.73 132.737 116.068 133.47Z" fill="url(#paint4_linear_1554_7887)"/>
<path d="M137.825 155.334L136.157 155.792C133.495 156.525 131.931 159.277 132.664 161.939L138.921 184.659C139.654 187.322 142.407 188.886 145.069 188.153L146.736 187.695C149.399 186.962 150.963 184.21 150.23 181.548L143.973 158.828C143.24 156.165 140.487 154.601 137.825 155.334Z" fill="url(#paint5_linear_1554_7887)"/>
<path d="M150.615 144.655L148.948 145.114C146.285 145.846 144.721 148.598 145.454 151.26L153.493 180.449C154.226 183.112 156.978 184.676 159.641 183.943L161.308 183.485C163.971 182.752 165.535 180 164.802 177.338L156.764 148.149C156.03 145.487 153.278 143.922 150.615 144.655Z" fill="url(#paint6_linear_1554_7887)"/>
<path d="M165.177 132.227L163.543 132.686C160.885 133.434 159.336 136.194 160.084 138.853L170.069 174.336C170.817 176.994 173.578 178.544 176.236 177.796L177.87 177.337C180.528 176.59 182.077 173.829 181.329 171.171L171.345 135.687C170.597 133.029 167.835 131.48 165.177 132.227Z" fill="url(#paint7_linear_1554_7887)"/>
<path d="M181.482 134.391L179.849 134.85C177.19 135.597 175.642 138.358 176.389 141.016L184.56 170.053C185.308 172.711 188.069 174.26 190.728 173.513L192.361 173.054C195.02 172.306 196.568 169.546 195.82 166.887L187.65 137.851C186.902 135.192 184.141 133.643 181.482 134.391Z" fill="url(#paint8_linear_1554_7887)"/>
<path d="M203.261 156.085L201.627 156.544C198.969 157.291 197.42 160.052 198.168 162.71L199.085 165.972C199.833 168.63 202.595 170.179 205.253 169.431L206.887 168.972C209.545 168.225 211.094 165.464 210.346 162.806L209.428 159.545C208.68 156.886 205.919 155.337 203.261 156.085Z" fill="url(#paint9_linear_1554_7887)"/>
<path d="M57 134.554L76.9337 206.902L211.84 169.776" stroke="#DEE4E9" stroke-width="2.18" stroke-miterlimit="10"/>
<defs>
<linearGradient id="paint0_linear_1554_7887" x1="440.029" y1="298.671" x2="368.281" y2="275.376" gradientUnits="userSpaceOnUse">
<stop stop-color="white"/>
<stop offset="0.72" stop-color="#F4F4F4"/>
</linearGradient>
<linearGradient id="paint1_linear_1554_7887" x1="91.2268" y1="168.748" x2="72.9208" y2="200.478" gradientUnits="userSpaceOnUse">
<stop stop-color="#EF9D65"/>
<stop offset="1" stop-color="#FCB392" stop-opacity="0.5"/>
</linearGradient>
<linearGradient id="paint2_linear_1554_7887" x1="104.994" y1="180.551" x2="93.7533" y2="200.03" gradientUnits="userSpaceOnUse">
<stop stop-color="#EF9D65"/>
<stop offset="1" stop-color="#FCB392" stop-opacity="0.5"/>
</linearGradient>
<linearGradient id="paint3_linear_1554_7887" x1="121.686" y1="139.775" x2="93.9496" y2="187.836" gradientUnits="userSpaceOnUse">
<stop stop-color="#EF9D65"/>
<stop offset="1" stop-color="#FCB392" stop-opacity="0.5"/>
</linearGradient>
<linearGradient id="paint4_linear_1554_7887" x1="135.967" y1="140.831" x2="110.59" y2="184.806" gradientUnits="userSpaceOnUse">
<stop stop-color="#EF9D65"/>
<stop offset="1" stop-color="#FCB392" stop-opacity="0.5"/>
</linearGradient>
<linearGradient id="paint5_linear_1554_7887" x1="149.442" y1="157.904" x2="133.489" y2="185.549" gradientUnits="userSpaceOnUse">
<stop stop-color="#EF9D65"/>
<stop offset="1" stop-color="#FCB392" stop-opacity="0.5"/>
</linearGradient>
<linearGradient id="paint6_linear_1554_7887" x1="164.308" y1="148.426" x2="145.996" y2="180.156" gradientUnits="userSpaceOnUse">
<stop stop-color="#EF9D65"/>
<stop offset="1" stop-color="#FCB392" stop-opacity="0.5"/>
</linearGradient>
<linearGradient id="paint7_linear_1554_7887" x1="180.932" y1="137.09" x2="160.522" y2="172.915" gradientUnits="userSpaceOnUse">
<stop stop-color="#EF9D65"/>
<stop offset="1" stop-color="#FCB392" stop-opacity="0.5"/>
</linearGradient>
<linearGradient id="paint8_linear_1554_7887" x1="195.171" y1="138.067" x2="177.085" y2="169.811" gradientUnits="userSpaceOnUse">
<stop stop-color="#EF9D65"/>
<stop offset="1" stop-color="#FCB392" stop-opacity="0.5"/>
</linearGradient>
<linearGradient id="paint9_linear_1554_7887" x1="208.666" y1="155.041" x2="199.888" y2="170.448" gradientUnits="userSpaceOnUse">
<stop stop-color="#EF9D65"/>
<stop offset="1" stop-color="#FCB392" stop-opacity="0.5"/>
</linearGradient>
</defs>
</svg>
