<?xml version="1.0" encoding="utf-8"?>
<!-- Generator: Adobe Illustrator 25.3.1, SVG Export Plug-In . SVG Version: 6.00 Build 0)  -->
<svg version="1.1" id="圖層_1" xmlns="http://www.w3.org/2000/svg" xmlns:xlink="http://www.w3.org/1999/xlink" x="0px" y="0px"
	 viewBox="0 0 538.9 756" style="enable-background:new 0 0 538.9 756;" xml:space="preserve">
<style type="text/css">
	.st0{clip-path:url(#SVGID_2_);fill:url(#SVGID_3_);}
	.st1{clip-path:url(#SVGID_2_);}
	.st2{fill:#E2F7E0;}
	.st3{clip-path:url(#SVGID_2_);fill:#FFFFFF;}
	.st4{clip-path:url(#SVGID_2_);fill:#EFCBB0;}
	.st5{clip-path:url(#SVGID_2_);fill:#EEAD92;}
	.st6{clip-path:url(#SVGID_2_);fill:#EC927F;}
</style>
<g>
	<defs>
		<rect id="SVGID_1_" y="-1" width="538.9" height="757"/>
	</defs>
	<clipPath id="SVGID_2_">
		<use xlink:href="#SVGID_1_"  style="overflow:visible;"/>
	</clipPath>
	
		<linearGradient id="SVGID_3_" gradientUnits="userSpaceOnUse" x1="438.5361" y1="712.504" x2="132.3937" y2="107.5903" gradientTransform="matrix(1 0 0 -1 0 755.89)">
		<stop  offset="0" style="stop-color:#FFB9A5"/>
		<stop  offset="0.5" style="stop-color:#EBFFD7"/>
		<stop  offset="0.9804" style="stop-color:#9CD6E2"/>
	</linearGradient>
	<rect y="-1" class="st0" width="538.9" height="757"/>
	<g class="st1">
		<g>
			
				<rect x="-23.4" y="83.4" transform="matrix(0.9481 -0.3179 0.3179 0.9481 -119.9107 133.7179)" class="st2" width="746.2" height="701.6"/>
		</g>
	</g>
	<path class="st3" d="M187.4,108.5c0,25.7-20.8,46.5-46.5,46.5c-25.7,0-46.5-20.8-46.5-46.5c0-25.7,20.8-46.5,46.5-46.5
		C166.6,62,187.4,82.8,187.4,108.5z M109.1,108.5c0,17.6,14.2,31.8,31.8,31.8s31.8-14.2,31.8-31.8c0-17.6-14.2-31.8-31.8-31.8
		S109.1,90.9,109.1,108.5z"/>
	<path class="st3" d="M316.4,108.5c0,25.7-20.8,46.5-46.5,46.5s-46.5-20.8-46.5-46.5c0-25.7,20.8-46.5,46.5-46.5
		S316.4,82.8,316.4,108.5z M238.1,108.5c0,17.6,14.2,31.8,31.8,31.8s31.8-14.2,31.8-31.8c0-17.6-14.2-31.8-31.8-31.8
		S238.1,90.9,238.1,108.5z"/>
	<path class="st3" d="M445.4,108.5c0,25.7-20.8,46.5-46.5,46.5s-46.5-20.8-46.5-46.5c0-25.7,20.8-46.5,46.5-46.5
		S445.4,82.8,445.4,108.5z M367.1,108.5c0,17.6,14.2,31.8,31.8,31.8s31.8-14.2,31.8-31.8c0-17.6-14.2-31.8-31.8-31.8
		S367.1,90.9,367.1,108.5z"/>
	<path class="st4" d="M398.9,62c-8.2,0-16.2,2.1-23.2,6.2c-7.1,4.1-12.9,9.9-17,17c-4.1,7.1-6.2,15.1-6.3,23.2
		c0,8.2,2.1,16.2,6.2,23.2l12.7-7.3c-2.8-4.8-4.2-10.3-4.2-15.9c0-5.6,1.5-11.1,4.3-15.9c2.8-4.8,6.8-8.8,11.6-11.6
		c4.8-2.8,10.3-4.3,15.9-4.3V62z"/>
	<path class="st5" d="M269.9,62c-10.3,0-20.3,3.4-28.4,9.7c-8.1,6.3-14,15.1-16.6,25c-2.6,9.9-1.8,20.5,2.2,29.9
		c4,9.5,11,17.3,20,22.4c9,5,19.3,7,29.5,5.5s19.6-6.3,26.7-13.7c7.2-7.4,11.7-16.9,12.8-27.1c1.2-10.2-1.1-20.5-6.4-29.3L297.2,92
		c3.6,6,5.2,13.1,4.4,20.1c-0.8,7-3.9,13.5-8.8,18.6c-4.9,5.1-11.3,8.3-18.3,9.3c-7,1-14.1-0.3-20.2-3.8
		c-6.1-3.5-10.9-8.8-13.7-15.3c-2.7-6.5-3.3-13.7-1.5-20.5c1.8-6.8,5.8-12.8,11.3-17.1c5.6-4.3,12.4-6.6,19.4-6.6V62z"/>
	<path class="st6" d="M140.9,62c-7.9,0-15.7,2-22.6,5.9s-12.7,9.4-16.9,16.1c-4.2,6.7-6.6,14.4-7,22.3c-0.4,7.9,1.2,15.8,4.7,22.8
		c3.5,7.1,8.7,13.2,15.2,17.7c6.5,4.5,14,7.3,21.9,8c7.9,0.8,15.8-0.5,23.1-3.6c7.3-3.1,13.6-8.1,18.4-14.3l-11.6-8.9
		c-3.3,4.3-7.6,7.7-12.6,9.8s-10.4,3-15.8,2.5c-5.4-0.5-10.5-2.4-15-5.5c-4.4-3.1-8-7.2-10.4-12.1c-2.4-4.9-3.5-10.2-3.2-15.6
		s1.9-10.6,4.8-15.2c2.9-4.6,6.8-8.4,11.6-11c4.7-2.6,10-4,15.5-4V62z"/>
	<path class="st4" d="M395.2,93.3c0.4-0.8,0.1-1.7-0.7-2.2s-1.7-0.1-2.1,0.7l-6.1,11.9h-5.6c-1.2,0-2.1,0.9-2.1,2.1s0.9,2.1,2.1,2.1
		l3.4,13.8c0.5,1.9,2.2,3.2,4.1,3.2h18.7c1.9,0,3.6-1.3,4.1-3.2l3.4-13.8c1.2,0,2.1-0.9,2.1-2.1s-0.9-2.1-2.1-2.1h-5.6l-6.1-11.9
		c-0.4-0.8-1.4-1.1-2.1-0.7c-0.8,0.4-1.1,1.4-0.7,2.2l5.4,10.4h-15.3L395.2,93.3z M391.1,111.2v6.4c0,0.6-0.5,1.1-1.1,1.1
		c-0.6,0-1.1-0.5-1.1-1.1v-6.4c0-0.6,0.5-1.1,1.1-1.1C390.6,110.1,391.1,110.6,391.1,111.2z M397.4,110.1c0.6,0,1.1,0.5,1.1,1.1v6.4
		c0,0.6-0.5,1.1-1.1,1.1s-1.1-0.5-1.1-1.1v-6.4C396.4,110.6,396.9,110.1,397.4,110.1z M405.9,111.2v6.4c0,0.6-0.5,1.1-1.1,1.1
		c-0.6,0-1.1-0.5-1.1-1.1v-6.4c0-0.6,0.5-1.1,1.1-1.1C405.4,110.1,405.9,110.6,405.9,111.2z"/>
	<path class="st6" d="M134.3,91c0.5,0,0.9,0.4,1.1,0.9c0.8,2.6,3.2,4.4,6,4.4s5.2-1.9,6-4.4c0.2-0.5,0.6-0.9,1.1-0.9h0.8
		c1.5,0,2.9,0.5,4,1.5l8.3,7c0.4,0.4,0.7,0.9,0.7,1.5c0,0.6-0.1,1.1-0.5,1.6l-3.7,4.2c-0.7,0.9-2,1-2.9,0.2l-3.4-2.8v16.6
		c0,2.3-1.9,4.2-4.2,4.2h-12.6c-2.3,0-4.2-1.9-4.2-4.2v-16.6l-3.4,2.8c-0.9,0.7-2.2,0.6-2.9-0.2l-3.7-4.2c-0.4-0.4-0.6-1-0.5-1.6
		c0-0.6,0.3-1.1,0.7-1.5l8.3-7c1.1-1,2.6-1.5,4-1.5H134.3z"/>
	<path class="st5" d="M281.3,94c-1.1,0-8.6,2.1-8.6,11.7v7.4c0,2.3,1.9,4.2,4.3,4.2h2.1v8.5c0,1.2,1,2.1,2.1,2.1s2.1-0.9,2.1-2.1
		v-8.5v-7.4V96.1C283.4,94.9,282.5,94,281.3,94z M257.7,95.1c0-0.5-0.4-1-1-1.1c-0.5-0.1-1,0.3-1.2,0.8l-2,9.1
		c-0.1,0.4-0.1,0.8-0.1,1.3c0,3,2.4,5.6,5.4,5.8v14.9c0,1.2,1,2.1,2.1,2.1s2.1-0.9,2.1-2.1V111c3-0.3,5.4-2.8,5.4-5.8
		c0-0.4,0-0.8-0.1-1.3l-2-9.1c-0.1-0.5-0.6-0.9-1.2-0.8c-0.5,0.1-1,0.5-1,1.1v8.9c0,0.4-0.3,0.7-0.7,0.7c-0.3,0-0.6-0.3-0.7-0.6
		L262,95c0-0.6-0.5-1-1.1-1s-1,0.4-1.1,1L259,104c0,0.3-0.3,0.6-0.7,0.6c-0.4,0-0.7-0.3-0.7-0.7L257.7,95.1L257.7,95.1z M261,105.2
		L261,105.2L261,105.2L261,105.2L261,105.2z"/>
</g>
</svg>
