<svg width="359" height="332" viewBox="0 0 359 332" fill="none" xmlns="http://www.w3.org/2000/svg">
<path d="M253.021 214.167C212.226 195.551 146.004 195.551 105.209 214.167L52.1533 189.97V107.468L319.242 114.209V196.711L260.649 218.096C258.191 216.686 255.645 215.375 253.021 214.167Z" fill="#C24C6B"/>
<path d="M253.08 214.167C212.273 195.551 146.032 195.551 105.225 214.167L52.1533 189.97V107.468H218.547L260.767 135.593V218.096C258.29 216.685 255.725 215.374 253.08 214.167Z" fill="#DC6382"/>
<path d="M252.978 133.565C212.192 114.941 145.985 114.941 105.198 133.565L52.1533 109.358C122.258 77.3362 235.918 77.3362 306.023 109.358C310.578 111.42 314.99 113.671 319.242 116.102L260.661 137.495C258.186 136.083 255.621 134.772 252.978 133.565Z" fill="#FD7296"/>
<path d="M260.845 219.27V162.782L358.752 194.39V249.478C358.752 270.701 341.152 291.878 305.95 308.179L252.865 283.615V227.217C252.865 227.217 285.746 243.112 276.408 232.049C272.228 227.076 266.956 222.746 260.845 219.27Z" fill="#DEAD4F"/>
<path d="M260.771 219.323V162.782L284.2 164.951L306.599 251.638V308.179L252.865 283.592V227.142C252.865 227.142 286.148 243.051 276.696 231.978C272.398 227.037 267.002 222.749 260.771 219.323Z" fill="#C4953B"/>
<path d="M260.453 162.621L319.116 140.656C345.446 156.018 358.752 174.635 358.752 193.252C358.752 214.805 341.142 236.311 306.035 252.865L252.865 228.011C290.803 210.036 293.465 181.88 260.453 162.621Z" fill="#FFC65C"/>
<path d="M306.599 274.442V307.789C273.497 322.77 230.854 330.803 187.522 331.886L183.327 297.32V263.928L306.599 274.442Z" fill="#D78F79"/>
<path d="M252.635 251.284L306.599 275.189C273.497 289.804 230.854 297.64 187.522 298.697L183.327 264.931C207.532 264.75 231.317 260.067 252.635 251.284Z" fill="#FFB9A5"/>
<path d="M52.2195 104.307L104.887 108.592V215.054C84.6391 224.482 136.129 201.927 164.567 201.205L188.068 225.34V331.756C139.27 333.02 89.519 324.99 52.2195 307.667C17.3878 291.517 0 270.315 0 249.023V142.696L52.2195 104.307Z" fill="#82BC96"/>
<path d="M0 143.711C0 122.609 17.3878 101.506 52.2195 85.3418L104.887 109.677C64.3347 128.446 64.3347 158.798 104.887 177.521C129.198 187.787 156.526 192.597 183.974 191.44L188.068 225.878C139.27 227.091 89.519 219.098 52.2195 201.857C17.3878 185.872 0 164.769 0 143.711Z" fill="#96DBC6"/>
<path d="M189.649 113.789C190.068 113.789 190.47 113.747 190.766 113.672C191.063 113.596 191.229 113.494 191.229 113.388V54.1351C191.229 54.0287 191.063 53.9266 190.766 53.8513C190.47 53.7761 190.068 53.7338 189.649 53.7338C189.23 53.7338 188.828 53.7761 188.531 53.8513C188.235 53.9266 188.068 54.0287 188.068 54.1351V113.404C188.085 113.508 188.258 113.606 188.553 113.677C188.848 113.749 189.24 113.789 189.649 113.789Z" fill="#606060"/>
<path d="M300.277 202.292C300.697 202.292 301.099 202.192 301.395 202.014C301.691 201.836 301.858 201.594 301.858 201.342V61.0061C301.858 60.754 301.691 60.5123 301.395 60.334C301.099 60.1557 300.697 60.0556 300.277 60.0556C299.858 60.0556 299.456 60.1557 299.16 60.334C298.864 60.5123 298.697 60.754 298.697 61.0061V201.38C298.713 201.625 298.887 201.857 299.182 202.027C299.476 202.198 299.869 202.292 300.277 202.292Z" fill="#606060"/>
<path d="M224.418 33.1886C224.418 39.7561 222.469 46.176 218.819 51.6355C215.168 57.0951 209.98 61.3489 203.911 63.8585C197.842 66.3681 191.165 67.0206 184.725 65.7335C178.285 64.4464 172.371 61.2775 167.733 56.628C163.095 51.9785 159.94 46.0573 158.669 39.6141C157.397 33.1709 158.066 26.4953 160.59 20.4323C163.114 14.3693 167.381 9.19155 172.849 5.55441C178.317 1.91727 184.742 -0.0157666 191.309 9.68597e-05C195.664 8.40947e-05 199.976 0.85916 203.998 2.52802C208.02 4.19688 211.673 6.64285 214.749 9.72574C217.824 12.8086 220.261 16.4679 221.921 20.4941C223.58 24.5202 224.428 28.834 224.418 33.1886Z" fill="#FD7296"/>
<path d="M335.046 61.6361C335.046 68.2002 333.1 74.6169 329.453 80.0747C325.806 85.5325 320.623 89.7864 314.558 92.2984C308.494 94.8104 301.821 95.4675 295.383 94.187C288.945 92.9064 283.031 89.7455 278.39 85.104C273.748 80.4625 270.587 74.5488 269.307 68.1109C268.026 61.673 268.684 54.9999 271.196 48.9355C273.707 42.871 277.961 37.6877 283.419 34.0409C288.877 30.3941 295.294 28.4476 301.858 28.4476C310.66 28.4476 319.101 31.9443 325.325 38.1684C331.55 44.3924 335.046 52.834 335.046 61.6361Z" fill="#FFC65C"/>
</svg>
