<svg width="385" height="336" viewBox="0 0 385 336" fill="none" xmlns="http://www.w3.org/2000/svg">
<path d="M383.671 38.4341H1V298.351H383.671V38.4341Z" stroke="#D0D9EF" stroke-miterlimit="10"/>
<path d="M1 261.25H383.671" stroke="#D0D9EF" stroke-miterlimit="10"/>
<path d="M1 224.158H383.671" stroke="#D0D9EF" stroke-miterlimit="10"/>
<path d="M1 187.065H383.671" stroke="#D0D9EF" stroke-miterlimit="10"/>
<path d="M1 149.973H383.671" stroke="#D0D9EF" stroke-miterlimit="10"/>
<path d="M1 112.88H383.671" stroke="#D0D9EF" stroke-miterlimit="10"/>
<path d="M1 75.7873H383.671" stroke="#D0D9EF" stroke-miterlimit="10"/>
<path d="M319.896 38.434V298.351" stroke="#D0D9EF" stroke-miterlimit="10"/>
<path d="M256.11 38.434V298.351" stroke="#D0D9EF" stroke-miterlimit="10"/>
<path d="M192.335 38.434V298.351" stroke="#D0D9EF" stroke-miterlimit="10"/>
<path d="M128.561 38.434V298.351" stroke="#D0D9EF" stroke-miterlimit="10"/>
<path d="M64.7747 38.434V298.351" stroke="#D0D9EF" stroke-miterlimit="10"/>
<path d="M344.977 88.7251L288.221 101.301L298.675 113.568L255.622 148.271L233.941 120.978L233.872 121.038L233.537 120.617L158.152 181.383L146.271 166.417L146.28 166.408L132.138 148.614L24.3948 235.453L38.5365 253.247L128.596 180.661L154.627 213.421L158.229 210.524L230.081 152.603L252.054 180.265L252.192 180.154L252.226 180.205L313.418 130.881L324.009 143.319L344.977 88.7251Z" fill="#CE484A"/>
<path d="M112.861 113.425C144.185 113.425 169.578 88.034 169.578 56.7126C169.578 25.3911 144.185 0 112.861 0C81.5376 0 56.1447 25.3911 56.1447 56.7126C56.1447 88.034 81.5376 113.425 112.861 113.425Z" fill="#F6DD74"/>
<path d="M112.861 103.291C138.588 103.291 159.443 82.4376 159.443 56.7129C159.443 30.9883 138.588 10.1344 112.861 10.1344C87.1347 10.1344 66.2792 30.9883 66.2792 56.7129C66.2792 82.4376 87.1347 103.291 112.861 103.291Z" fill="#EFC072"/>
<path d="M108.364 17.0634C115.833 17.0698 123.191 18.8705 129.819 22.3138C136.447 25.7572 142.15 30.7425 146.449 36.8499C150.747 42.9573 153.516 50.0081 154.521 57.4086C155.525 64.809 154.737 72.3426 152.223 79.375C155.341 73.7492 157.261 67.5384 157.861 61.134C158.461 54.7297 157.727 48.2705 155.707 42.1636C153.687 36.0566 150.423 30.4343 146.122 25.6509C141.822 20.8674 136.577 17.0266 130.718 14.3703C124.859 11.714 118.514 10.3 112.081 10.2172C105.649 10.1344 99.2691 11.3847 93.344 13.8893C87.4188 16.394 82.0766 20.0986 77.6541 24.7698C73.2316 29.4409 69.8246 34.9774 67.6478 41.0303C71.6797 33.767 77.5813 27.7145 84.7406 23.5002C91.9 19.286 100.057 17.0636 108.364 17.0634Z" fill="#D4A657"/>
<path d="M271.603 319.807V327.844C271.603 332.288 288.797 335.89 310.091 335.89C331.385 335.89 348.579 332.288 348.579 327.844V319.807H271.603Z" fill="#D4A657"/>
<path d="M310.091 327.835C331.347 327.835 348.579 324.237 348.579 319.798C348.579 315.359 331.347 311.761 310.091 311.761C288.835 311.761 271.603 315.359 271.603 319.798C271.603 324.237 288.835 327.835 310.091 327.835Z" fill="#F6DD74"/>
<path d="M341.701 318.852C341.701 321.973 327.551 324.5 310.091 324.5C292.631 324.5 278.481 321.973 278.481 318.852C278.481 315.732 292.631 313.23 310.091 313.23C327.551 313.23 341.701 315.732 341.701 318.852Z" fill="#EFC072"/>
<path d="M307.048 314.03C324.499 314.03 338.65 316.566 338.65 319.686C338.65 320.357 337.996 321.001 336.801 321.595C339.329 320.735 340.773 319.875 340.773 318.852C340.773 315.732 326.623 313.196 309.163 313.196C295.459 313.196 283.785 314.761 279.409 316.944C284.808 315.208 295.159 314.03 307.048 314.03Z" fill="#D4A657"/>
<path d="M321 316.755H312.945C314.364 316.953 315.387 317.245 315.679 317.614H321V318.044H315.731C315.241 318.904 311.286 319.506 305.036 319.54C308.845 320.245 312.997 321.139 317.072 322.033H312.386C308.578 321.216 305.01 320.46 300.428 319.583V319.041H303.111C308.38 319.041 311.209 318.655 311.553 318.044H300.454V317.614H311.432C310.753 317.107 308.165 316.849 303.919 316.849H300.48V316.282H321.026L321 316.755Z" fill="#A18044"/>
<path d="M271.603 309.182V317.219C271.603 321.663 288.797 325.265 310.091 325.265C331.385 325.265 348.579 321.663 348.579 317.219V309.182H271.603Z" fill="#D4A657"/>
<path d="M310.091 317.211C331.347 317.211 348.579 313.613 348.579 309.174C348.579 304.735 331.347 301.136 310.091 301.136C288.835 301.136 271.603 304.735 271.603 309.174C271.603 313.613 288.835 317.211 310.091 317.211Z" fill="#F6DD74"/>
<path d="M310.091 313.876C327.549 313.876 341.701 311.347 341.701 308.228C341.701 305.109 327.549 302.58 310.091 302.58C292.633 302.58 278.481 305.109 278.481 308.228C278.481 311.347 292.633 313.876 310.091 313.876Z" fill="#EFC072"/>
<path d="M307.048 303.405C324.499 303.405 338.65 305.941 338.65 309.061C338.65 309.732 337.996 310.377 336.801 310.97C339.329 310.153 340.773 309.251 340.773 308.228C340.773 305.107 326.623 302.571 309.163 302.571C295.459 302.571 283.785 304.136 279.409 306.319C284.808 304.583 295.159 303.405 307.048 303.405Z" fill="#D4A657"/>
<path d="M321 306.131H312.945C314.364 306.328 315.387 306.621 315.679 306.99H321V307.42H315.731C315.241 308.28 311.286 308.881 305.036 308.916C308.845 309.621 312.997 310.515 317.072 311.409H312.386C308.578 310.592 305.01 309.835 300.428 308.959V308.417H303.111C308.38 308.417 311.209 308.03 311.553 307.42H300.454V306.99H311.432C310.753 306.483 308.165 306.225 303.919 306.225H300.48V305.658H321.026L321 306.131Z" fill="#A18044"/>
<path d="M271.603 298.557V306.594C271.603 311.038 288.797 314.64 310.091 314.64C331.385 314.64 348.579 311.038 348.579 306.594V298.557H271.603Z" fill="#D4A657"/>
<path d="M310.091 306.586C331.347 306.586 348.579 302.987 348.579 298.548C348.579 294.109 331.347 290.511 310.091 290.511C288.835 290.511 271.603 294.109 271.603 298.548C271.603 302.987 288.835 306.586 310.091 306.586Z" fill="#F6DD74"/>
<path d="M310.091 303.25C327.549 303.25 341.701 300.722 341.701 297.602C341.701 294.483 327.549 291.955 310.091 291.955C292.633 291.955 278.481 294.483 278.481 297.602C278.481 300.722 292.633 303.25 310.091 303.25Z" fill="#EFC072"/>
<path d="M307.048 292.78C324.499 292.78 338.65 295.359 338.65 298.437C338.65 299.107 337.996 299.752 336.801 300.345C339.329 299.528 340.773 298.626 340.773 297.603C340.773 294.482 326.623 291.947 309.163 291.947C295.459 291.947 283.785 293.511 279.409 295.694C284.808 293.958 295.159 292.78 307.048 292.78Z" fill="#D4A657"/>
<path d="M321 295.506H312.945C314.364 295.703 315.387 295.996 315.679 296.365H321V296.795H315.731C315.241 297.655 311.286 298.256 305.036 298.291C308.845 298.996 312.997 299.89 317.072 300.784H312.386C308.578 299.967 305.01 299.211 300.428 298.334V297.792H303.111C308.38 297.792 311.209 297.397 311.553 296.795H300.454V296.365H311.432C310.753 295.858 308.165 295.6 303.919 295.6H300.48V295.033H321.026L321 295.506Z" fill="#A18044"/>
<path d="M271.603 287.932V295.969C271.603 300.414 288.797 304.015 310.091 304.015C331.385 304.015 348.579 300.414 348.579 295.969V287.932H271.603Z" fill="#D4A657"/>
<path d="M310.091 295.961C331.347 295.961 348.579 292.362 348.579 287.923C348.579 283.485 331.347 279.886 310.091 279.886C288.835 279.886 271.603 283.485 271.603 287.923C271.603 292.362 288.835 295.961 310.091 295.961Z" fill="#F6DD74"/>
<path d="M341.701 286.978C341.701 290.098 327.551 292.626 310.091 292.626C292.631 292.626 278.481 290.098 278.481 286.978C278.481 283.858 292.631 281.322 310.091 281.322C327.551 281.322 341.701 283.858 341.701 286.978Z" fill="#EFC072"/>
<path d="M307.048 282.155C324.499 282.155 338.65 284.691 338.65 287.812C338.65 288.482 337.996 289.127 336.801 289.72C339.329 288.903 340.773 288.001 340.773 286.978C340.773 283.858 326.623 281.322 309.163 281.322C295.459 281.322 283.785 282.886 279.409 285.07C284.808 283.333 295.159 282.155 307.048 282.155Z" fill="#D4A657"/>
<path d="M321 284.863H312.945C314.364 285.061 315.387 285.353 315.679 285.723H321V286.153H315.731C315.241 287.012 311.286 287.614 305.036 287.648C308.845 288.353 312.997 289.247 317.072 290.141H312.386C308.578 289.325 305.01 288.568 300.428 287.691V287.15H303.111C308.38 287.15 311.209 286.754 311.553 286.153H300.454V285.723H311.432C310.753 285.216 308.165 284.958 303.919 284.958H300.48V284.39H321.026L321 284.863Z" fill="#A18044"/>
<path d="M271.603 277.307V285.345C271.603 289.789 288.797 293.391 310.091 293.391C331.385 293.391 348.579 289.789 348.579 285.345V277.307H271.603Z" fill="#D4A657"/>
<path d="M310.091 285.336C331.347 285.336 348.579 281.738 348.579 277.299C348.579 272.86 331.347 269.261 310.091 269.261C288.835 269.261 271.603 272.86 271.603 277.299C271.603 281.738 288.835 285.336 310.091 285.336Z" fill="#F6DD74"/>
<path d="M310.091 281.992C327.549 281.992 341.701 279.464 341.701 276.345C341.701 273.225 327.549 270.697 310.091 270.697C292.633 270.697 278.481 273.225 278.481 276.345C278.481 279.464 292.633 281.992 310.091 281.992Z" fill="#EFC072"/>
<path d="M307.048 271.531C324.499 271.531 338.65 274.067 338.65 277.187C338.65 277.857 337.996 278.494 336.801 279.095C339.329 278.236 340.773 277.376 340.773 276.353C340.773 273.233 326.623 270.697 309.163 270.697C295.459 270.697 283.785 272.261 279.409 274.445C284.808 272.708 295.159 271.531 307.048 271.531Z" fill="#D4A657"/>
<path d="M321 274.256H312.945C314.364 274.453 315.387 274.745 315.679 275.115H321V275.545H315.731C315.241 276.405 311.286 277.006 305.036 277.041C308.845 277.746 312.997 278.64 317.072 279.534H312.386C308.578 278.717 305.01 277.96 300.428 277.084V276.542H303.111C308.38 276.542 311.209 276.147 311.553 275.545H300.454V275.115H311.432C310.753 274.608 308.165 274.35 303.919 274.35H300.48V273.783H321.026L321 274.256Z" fill="#A18044"/>
<path d="M271.603 266.683V274.72C271.603 279.165 288.797 282.766 310.091 282.766C331.385 282.766 348.579 279.165 348.579 274.72V266.683H271.603Z" fill="#D4A657"/>
<path d="M310.091 274.711C331.347 274.711 348.579 271.113 348.579 266.674C348.579 262.235 331.347 258.636 310.091 258.636C288.835 258.636 271.603 262.235 271.603 266.674C271.603 271.113 288.835 274.711 310.091 274.711Z" fill="#F6DD74"/>
<path d="M341.701 265.728C341.701 268.849 327.551 271.376 310.091 271.376C292.631 271.376 278.481 268.849 278.481 265.728C278.481 262.608 292.631 260.072 310.091 260.072C327.551 260.072 341.701 262.608 341.701 265.728Z" fill="#EFC072"/>
<path d="M307.048 260.906C324.499 260.906 338.65 263.442 338.65 266.562C338.65 267.233 337.996 267.869 336.801 268.47C339.329 267.654 340.773 266.751 340.773 265.728C340.773 262.608 326.623 260.072 309.163 260.072C295.459 260.072 283.785 261.636 279.409 263.82C284.808 262.083 295.159 260.906 307.048 260.906Z" fill="#D4A657"/>
<path d="M321 263.631H312.945C314.364 263.829 315.387 264.121 315.679 264.491H321V264.92H315.731C315.241 265.78 311.286 266.382 305.036 266.416C308.845 267.121 312.997 268.015 317.072 268.909H312.386C308.578 268.049 305.01 267.336 300.428 266.459V265.952H303.111C308.38 265.952 311.209 265.557 311.553 264.955H300.454V264.525H311.432C310.753 264.018 308.165 263.76 303.919 263.76H300.48V263.193H321.026L321 263.631Z" fill="#A18044"/>
<path d="M271.603 256.058V264.095C271.603 268.539 288.797 272.132 310.091 272.132C331.385 272.132 348.579 268.539 348.579 264.095V256.058H271.603Z" fill="#D4A657"/>
<path d="M310.091 264.086C331.347 264.086 348.579 260.488 348.579 256.049C348.579 251.61 331.347 248.012 310.091 248.012C288.835 248.012 271.603 251.61 271.603 256.049C271.603 260.488 288.835 264.086 310.091 264.086Z" fill="#F6DD74"/>
<path d="M341.701 255.103C341.701 258.224 327.551 260.751 310.091 260.751C292.631 260.751 278.481 258.224 278.481 255.103C278.481 251.983 292.631 249.447 310.091 249.447C327.551 249.447 341.701 251.983 341.701 255.103Z" fill="#EFC072"/>
<path d="M307.048 250.281C324.499 250.281 338.65 252.86 338.65 255.937C338.65 256.608 337.996 257.244 336.801 257.846C339.329 257.029 340.773 256.126 340.773 255.103C340.773 251.983 326.623 249.447 309.163 249.447C295.459 249.447 283.785 251.012 279.409 253.195C284.808 251.459 295.159 250.281 307.048 250.281Z" fill="#D4A657"/>
<path d="M321 253.006H312.945C314.364 253.204 315.387 253.496 315.679 253.866H321V254.296H315.731C315.241 255.155 311.286 255.757 305.036 255.791C308.845 256.496 312.997 257.39 317.072 258.284H312.386C308.578 257.467 305.01 256.711 300.428 255.834V255.293H303.111C308.38 255.293 311.209 254.897 311.553 254.296H300.454V253.917H311.432C310.753 253.41 308.165 253.152 303.919 253.152H300.48V252.585H321.026L321 253.006Z" fill="#A18044"/>
<path d="M271.603 245.433V253.47C271.603 257.914 288.797 261.507 310.091 261.507C331.385 261.507 348.579 257.914 348.579 253.47V245.433H271.603Z" fill="#D4A657"/>
<path d="M310.091 253.461C331.347 253.461 348.579 249.863 348.579 245.424C348.579 240.985 331.347 237.387 310.091 237.387C288.835 237.387 271.603 240.985 271.603 245.424C271.603 249.863 288.835 253.461 310.091 253.461Z" fill="#F6DD74"/>
<path d="M310.091 250.118C327.549 250.118 341.701 247.589 341.701 244.47C341.701 241.351 327.549 238.822 310.091 238.822C292.633 238.822 278.481 241.351 278.481 244.47C278.481 247.589 292.633 250.118 310.091 250.118Z" fill="#EFC072"/>
<path d="M307.048 239.656C324.499 239.656 338.65 242.192 338.65 245.312C338.65 245.983 337.996 246.619 336.801 247.221C339.329 246.404 340.773 245.502 340.773 244.479C340.773 241.358 326.623 238.822 309.163 238.822C295.459 238.822 283.785 240.387 279.409 242.57C284.808 240.834 295.159 239.656 307.048 239.656Z" fill="#D4A657"/>
<path d="M321 242.381H312.945C314.364 242.579 315.387 242.871 315.679 243.241H321V243.67H315.731C315.241 244.53 311.286 245.132 305.036 245.166C308.845 245.871 312.997 246.765 317.072 247.659H312.386C308.578 246.842 305.01 246.086 300.428 245.209V244.668H303.111C308.38 244.668 311.209 244.272 311.553 243.67H300.454V243.241H311.432C310.753 242.733 308.165 242.476 303.919 242.476H300.48V241.908H321.026L321 242.381Z" fill="#A18044"/>
<path d="M271.603 234.8V242.846C271.603 247.29 288.797 250.883 310.091 250.883C331.385 250.883 348.579 247.29 348.579 242.846V234.8H271.603Z" fill="#D4A657"/>
<path d="M310.091 242.837C331.347 242.837 348.579 239.238 348.579 234.799C348.579 230.36 331.347 226.762 310.091 226.762C288.835 226.762 271.603 230.36 271.603 234.799C271.603 239.238 288.835 242.837 310.091 242.837Z" fill="#F6DD74"/>
<path d="M310.091 239.493C327.549 239.493 341.701 236.965 341.701 233.846C341.701 230.727 327.549 228.198 310.091 228.198C292.633 228.198 278.481 230.727 278.481 233.846C278.481 236.965 292.633 239.493 310.091 239.493Z" fill="#EFC072"/>
<path d="M307.048 229.032C324.499 229.032 338.65 231.568 338.65 234.688C338.65 235.359 337.996 235.995 336.801 236.596C339.329 235.737 340.773 234.877 340.773 233.854C340.773 230.734 326.623 228.198 309.163 228.198C295.459 228.198 283.785 229.763 279.409 231.946C284.808 230.21 295.159 229.032 307.048 229.032Z" fill="#D4A657"/>
<path d="M321 231.756H312.945C314.364 231.954 315.387 232.246 315.679 232.616H321V233.054H315.731C315.241 233.914 311.286 234.516 305.036 234.55C308.845 235.255 312.997 236.149 317.072 237.043H312.386C308.578 236.226 305.01 235.461 300.428 234.593V234.052H303.111C308.38 234.052 311.209 233.656 311.553 233.054H300.454V232.616H311.432C310.753 232.117 308.165 231.86 303.919 231.86H300.48V231.292H321.026L321 231.756Z" fill="#A18044"/>
<path d="M271.603 224.175V232.221C271.603 236.665 288.797 240.258 310.091 240.258C331.385 240.258 348.579 236.665 348.579 232.221V224.175H271.603Z" fill="#D4A657"/>
<path d="M310.091 232.212C331.347 232.212 348.579 228.613 348.579 224.174C348.579 219.735 331.347 216.137 310.091 216.137C288.835 216.137 271.603 219.735 271.603 224.174C271.603 228.613 288.835 232.212 310.091 232.212Z" fill="#F6DD74"/>
<path d="M341.701 223.229C341.701 226.35 327.551 228.877 310.091 228.877C292.631 228.877 278.481 226.35 278.481 223.229C278.481 220.109 292.631 217.573 310.091 217.573C327.551 217.573 341.701 220.109 341.701 223.229Z" fill="#EFC072"/>
<path d="M307.048 218.407C324.499 218.407 338.65 220.943 338.65 224.063C338.65 224.734 337.996 225.37 336.801 225.972C339.329 225.155 340.773 224.252 340.773 223.229C340.773 220.109 326.623 217.573 309.163 217.573C295.459 217.573 283.785 219.138 279.409 221.313C284.808 219.585 295.159 218.407 307.048 218.407Z" fill="#D4A657"/>
<path d="M321 221.132H312.945C314.364 221.329 315.387 221.622 315.679 221.991H321V222.43H315.731C315.241 223.289 311.286 223.891 305.036 223.925C308.845 224.63 312.997 225.524 317.072 226.418H312.386C308.578 225.559 305.01 224.836 300.428 223.968V223.427H303.111C308.38 223.427 311.209 223.031 311.553 222.43H300.454V221.991H311.432C310.753 221.493 308.165 221.235 303.919 221.235H300.48V220.667H321.026L321 221.132Z" fill="#A18044"/>
<path d="M271.603 213.515V221.561C271.603 226.005 288.797 229.599 310.091 229.599C331.385 229.599 348.579 226.005 348.579 221.561V213.515H271.603Z" fill="#D4A657"/>
<path d="M310.091 221.587C331.347 221.587 348.579 217.989 348.579 213.55C348.579 209.111 331.347 205.512 310.091 205.512C288.835 205.512 271.603 209.111 271.603 213.55C271.603 217.989 288.835 221.587 310.091 221.587Z" fill="#F6DD74"/>
<path d="M310.091 218.244C327.549 218.244 341.701 215.715 341.701 212.596C341.701 209.477 327.549 206.948 310.091 206.948C292.633 206.948 278.481 209.477 278.481 212.596C278.481 215.715 292.633 218.244 310.091 218.244Z" fill="#EFC072"/>
<path d="M307.048 207.782C324.499 207.782 338.65 210.309 338.65 213.438C338.65 214.108 337.996 214.745 336.801 215.346C339.329 214.53 340.773 213.627 340.773 212.604C340.773 209.484 326.623 206.948 309.163 206.948C295.459 206.948 283.785 208.512 279.409 210.687C284.808 208.959 295.159 207.782 307.048 207.782Z" fill="#D4A657"/>
<path d="M321 210.507H312.945C314.364 210.705 315.387 210.997 315.679 211.367H321V211.797H315.731C315.241 212.656 311.286 213.258 305.036 213.292C308.845 213.997 312.997 214.891 317.072 215.785H312.386C308.578 214.968 305.01 214.203 300.428 213.335V212.794H303.111C308.38 212.794 311.209 212.398 311.553 211.797H300.454V211.358H311.432C310.753 210.86 308.165 210.602 303.919 210.602H300.48V210.077H321.026L321 210.507Z" fill="#A18044"/>
<path d="M271.603 202.925V210.936C271.603 215.381 288.797 218.974 310.091 218.974C331.385 218.974 348.579 215.381 348.579 210.936V202.89L271.603 202.925Z" fill="#D4A657"/>
<path d="M310.091 210.962C331.347 210.962 348.579 207.364 348.579 202.925C348.579 198.486 331.347 194.887 310.091 194.887C288.835 194.887 271.603 198.486 271.603 202.925C271.603 207.364 288.835 210.962 310.091 210.962Z" fill="#F6DD74"/>
<path d="M310.091 207.618C327.549 207.618 341.701 205.09 341.701 201.971C341.701 198.852 327.549 196.323 310.091 196.323C292.633 196.323 278.481 198.852 278.481 201.971C278.481 205.09 292.633 207.618 310.091 207.618Z" fill="#EFC072"/>
<path d="M307.048 197.183C324.499 197.183 338.65 199.71 338.65 202.839C338.65 203.509 337.996 204.146 336.801 204.747C339.329 203.931 340.773 203.028 340.773 202.005C340.773 198.876 326.623 196.349 309.163 196.349C295.459 196.349 283.785 197.913 279.409 200.088C284.808 198.335 295.159 197.183 307.048 197.183Z" fill="#D4A657"/>
<path d="M321 199.882H312.945C314.364 200.08 315.387 200.372 315.679 200.742H321V201.18H315.731C315.241 202.04 311.286 202.641 305.036 202.676C308.845 203.381 312.997 204.275 317.072 205.169H312.386C308.578 204.352 305.01 203.587 300.428 202.719V202.177H303.111C308.38 202.177 311.209 201.782 311.553 201.18H300.454V200.742H311.432C310.753 200.243 308.165 199.985 303.919 199.985H300.48V199.418H321.026L321 199.882Z" fill="#A18044"/>
<path d="M271.603 192.3V200.346C271.603 204.79 288.797 208.384 310.091 208.384C331.385 208.384 348.579 204.79 348.579 200.346V192.3H271.603Z" fill="#D4A657"/>
<path d="M348.579 192.3C348.579 196.745 331.342 200.346 310.091 200.346C288.84 200.346 271.603 196.745 271.603 192.3C271.603 187.856 288.797 184.263 310.091 184.263C331.385 184.263 348.579 187.865 348.579 192.3Z" fill="#F6DD74"/>
<path d="M341.701 191.354C341.701 194.475 327.551 197.002 310.091 197.002C292.631 197.002 278.481 194.475 278.481 191.354C278.481 188.234 292.631 185.698 310.091 185.698C327.551 185.698 341.701 188.225 341.701 191.354Z" fill="#EFC072"/>
<path d="M307.048 186.532C324.499 186.532 338.65 189.059 338.65 192.188C338.65 192.859 337.996 193.495 336.801 194.097C339.329 193.28 340.773 192.377 340.773 191.354C340.773 188.225 326.623 185.698 309.163 185.698C295.459 185.698 283.785 187.263 279.409 189.437C284.808 187.727 295.159 186.532 307.048 186.532Z" fill="#D4A657"/>
<path d="M152.873 319.807V327.844C152.873 332.288 170.067 335.89 191.361 335.89C212.655 335.89 229.849 332.288 229.849 327.844V319.807H152.873Z" fill="#D4A657"/>
<path d="M191.361 327.835C212.617 327.835 229.849 324.237 229.849 319.798C229.849 315.359 212.617 311.761 191.361 311.761C170.105 311.761 152.873 315.359 152.873 319.798C152.873 324.237 170.105 327.835 191.361 327.835Z" fill="#F6DD74"/>
<path d="M222.971 318.852C222.971 321.973 208.821 324.5 191.361 324.5C173.901 324.5 159.751 321.973 159.751 318.852C159.751 315.732 173.901 313.23 191.361 313.23C208.821 313.23 222.971 315.732 222.971 318.852Z" fill="#EFC072"/>
<path d="M188.318 314.03C205.769 314.03 219.928 316.566 219.928 319.686C219.928 320.357 219.266 321.001 218.071 321.595C220.599 320.735 222.043 319.875 222.043 318.852C222.043 315.732 207.893 313.196 190.433 313.196C176.729 313.196 165.064 314.761 160.679 316.944C166.078 315.208 176.429 314.03 188.318 314.03Z" fill="#D4A657"/>
<path d="M202.27 316.755H194.215C195.634 316.953 196.657 317.245 196.949 317.614H202.27V318.044H197.001C196.511 318.904 192.556 319.506 186.306 319.54C190.115 320.245 194.267 321.139 198.342 322.033H193.656C189.848 321.216 186.28 320.46 181.698 319.583V319.041H184.38C189.65 319.041 192.487 318.655 192.823 318.044H181.724V317.614H192.702C192.023 317.107 189.435 316.849 185.189 316.849H181.75V316.282H202.296L202.27 316.755Z" fill="#A18044"/>
<path d="M152.873 309.182V317.219C152.873 321.663 170.067 325.265 191.361 325.265C212.655 325.265 229.849 321.663 229.849 317.219V309.182H152.873Z" fill="#D4A657"/>
<path d="M191.361 317.211C212.617 317.211 229.849 313.613 229.849 309.174C229.849 304.735 212.617 301.136 191.361 301.136C170.105 301.136 152.873 304.735 152.873 309.174C152.873 313.613 170.105 317.211 191.361 317.211Z" fill="#F6DD74"/>
<path d="M191.361 313.876C208.819 313.876 222.971 311.347 222.971 308.228C222.971 305.109 208.819 302.58 191.361 302.58C173.903 302.58 159.751 305.109 159.751 308.228C159.751 311.347 173.903 313.876 191.361 313.876Z" fill="#EFC072"/>
<path d="M188.318 303.405C205.769 303.405 219.928 305.941 219.928 309.061C219.928 309.732 219.266 310.377 218.071 310.97C220.599 310.153 222.043 309.251 222.043 308.228C222.043 305.107 207.893 302.571 190.433 302.571C176.729 302.571 165.064 304.136 160.679 306.319C166.078 304.583 176.429 303.405 188.318 303.405Z" fill="#D4A657"/>
<path d="M202.27 306.131H194.215C195.634 306.328 196.657 306.621 196.949 306.99H202.27V307.42H197.001C196.511 308.28 192.556 308.881 186.306 308.916C190.115 309.621 194.267 310.515 198.342 311.409H193.656C189.848 310.592 186.28 309.835 181.698 308.959V308.417H184.38C189.65 308.417 192.487 308.03 192.823 307.42H181.724V306.99H192.702C192.023 306.483 189.435 306.225 185.189 306.225H181.75V305.658H202.296L202.27 306.131Z" fill="#A18044"/>
<path d="M152.873 298.557V306.594C152.873 311.038 170.067 314.64 191.361 314.64C212.655 314.64 229.849 311.038 229.849 306.594V298.557H152.873Z" fill="#D4A657"/>
<path d="M191.361 306.586C212.617 306.586 229.849 302.987 229.849 298.548C229.849 294.109 212.617 290.511 191.361 290.511C170.105 290.511 152.873 294.109 152.873 298.548C152.873 302.987 170.105 306.586 191.361 306.586Z" fill="#F6DD74"/>
<path d="M191.361 303.25C208.819 303.25 222.971 300.722 222.971 297.602C222.971 294.483 208.819 291.955 191.361 291.955C173.903 291.955 159.751 294.483 159.751 297.602C159.751 300.722 173.903 303.25 191.361 303.25Z" fill="#EFC072"/>
<path d="M188.318 292.78C205.769 292.78 219.928 295.359 219.928 298.437C219.928 299.107 219.266 299.752 218.071 300.345C220.599 299.528 222.043 298.626 222.043 297.603C222.043 294.482 207.893 291.947 190.433 291.947C176.729 291.947 165.064 293.511 160.679 295.694C166.078 293.958 176.429 292.78 188.318 292.78Z" fill="#D4A657"/>
<path d="M202.27 295.506H194.215C195.634 295.703 196.657 295.996 196.949 296.365H202.27V296.795H197.001C196.511 297.655 192.556 298.256 186.306 298.291C190.115 298.996 194.267 299.89 198.342 300.784H193.656C189.848 299.967 186.28 299.211 181.698 298.334V297.792H184.38C189.65 297.792 192.487 297.397 192.823 296.795H181.724V296.365H192.702C192.023 295.858 189.435 295.6 185.189 295.6H181.75V295.033H202.296L202.27 295.506Z" fill="#A18044"/>
<path d="M152.873 287.932V295.969C152.873 300.414 170.067 304.015 191.361 304.015C212.655 304.015 229.849 300.414 229.849 295.969V287.932H152.873Z" fill="#D4A657"/>
<path d="M191.361 295.961C212.617 295.961 229.849 292.362 229.849 287.923C229.849 283.485 212.617 279.886 191.361 279.886C170.105 279.886 152.873 283.485 152.873 287.923C152.873 292.362 170.105 295.961 191.361 295.961Z" fill="#F6DD74"/>
<path d="M222.971 286.978C222.971 290.098 208.821 292.626 191.361 292.626C173.901 292.626 159.751 290.098 159.751 286.978C159.751 283.858 173.901 281.322 191.361 281.322C208.821 281.322 222.971 283.858 222.971 286.978Z" fill="#EFC072"/>
<path d="M188.318 282.155C205.769 282.155 219.928 284.691 219.928 287.812C219.928 288.482 219.266 289.127 218.071 289.72C220.599 288.903 222.043 288.001 222.043 286.978C222.043 283.858 207.893 281.322 190.433 281.322C176.729 281.322 165.064 282.886 160.679 285.07C166.078 283.333 176.429 282.155 188.318 282.155Z" fill="#D4A657"/>
<path d="M202.27 284.863H194.215C195.634 285.061 196.657 285.353 196.949 285.723H202.27V286.153H197.001C196.511 287.012 192.556 287.614 186.306 287.648C190.115 288.353 194.267 289.247 198.342 290.141H193.656C189.848 289.325 186.28 288.568 181.698 287.691V287.15H184.38C189.65 287.15 192.487 286.754 192.823 286.153H181.724V285.723H192.702C192.023 285.216 189.435 284.958 185.189 284.958H181.75V284.39H202.296L202.27 284.863Z" fill="#A18044"/>
<path d="M152.873 277.307V285.345C152.873 289.789 170.067 293.391 191.361 293.391C212.655 293.391 229.849 289.789 229.849 285.345V277.307H152.873Z" fill="#D4A657"/>
<path d="M191.361 285.336C212.617 285.336 229.849 281.738 229.849 277.299C229.849 272.86 212.617 269.261 191.361 269.261C170.105 269.261 152.873 272.86 152.873 277.299C152.873 281.738 170.105 285.336 191.361 285.336Z" fill="#F6DD74"/>
<path d="M191.361 281.992C208.819 281.992 222.971 279.464 222.971 276.345C222.971 273.225 208.819 270.697 191.361 270.697C173.903 270.697 159.751 273.225 159.751 276.345C159.751 279.464 173.903 281.992 191.361 281.992Z" fill="#EFC072"/>
<path d="M188.318 271.531C205.769 271.531 219.928 274.067 219.928 277.187C219.928 277.857 219.266 278.494 218.071 279.095C220.599 278.236 222.043 277.376 222.043 276.353C222.043 273.233 207.893 270.697 190.433 270.697C176.729 270.697 165.064 272.261 160.679 274.445C166.078 272.708 176.429 271.531 188.318 271.531Z" fill="#D4A657"/>
<path d="M202.27 274.256H194.215C195.634 274.453 196.657 274.745 196.949 275.115H202.27V275.545H197.001C196.511 276.405 192.556 277.006 186.306 277.041C190.115 277.746 194.267 278.64 198.342 279.534H193.656C189.848 278.717 186.28 277.96 181.698 277.084V276.542H184.38C189.65 276.542 192.487 276.147 192.823 275.545H181.724V275.115H192.702C192.023 274.608 189.435 274.35 185.189 274.35H181.75V273.783H202.296L202.27 274.256Z" fill="#A18044"/>
<path d="M152.873 266.683V274.72C152.873 279.165 170.067 282.766 191.361 282.766C212.655 282.766 229.849 279.165 229.849 274.72V266.683H152.873Z" fill="#D4A657"/>
<path d="M191.361 274.711C212.617 274.711 229.849 271.113 229.849 266.674C229.849 262.235 212.617 258.636 191.361 258.636C170.105 258.636 152.873 262.235 152.873 266.674C152.873 271.113 170.105 274.711 191.361 274.711Z" fill="#F6DD74"/>
<path d="M222.971 265.728C222.971 268.849 208.821 271.376 191.361 271.376C173.901 271.376 159.751 268.849 159.751 265.728C159.751 262.608 173.901 260.072 191.361 260.072C208.821 260.072 222.971 262.608 222.971 265.728Z" fill="#EFC072"/>
<path d="M188.318 260.906C205.769 260.906 219.928 263.442 219.928 266.562C219.928 267.233 219.266 267.869 218.071 268.47C220.599 267.654 222.043 266.751 222.043 265.728C222.043 262.608 207.893 260.072 190.433 260.072C176.729 260.072 165.064 261.636 160.679 263.82C166.078 262.083 176.429 260.906 188.318 260.906Z" fill="#D4A657"/>
<path d="M202.27 263.631H194.215C195.634 263.829 196.657 264.121 196.949 264.491H202.27V264.92H197.001C196.511 265.78 192.556 266.382 186.306 266.416C190.115 267.121 194.267 268.015 198.342 268.909H193.656C189.848 268.049 186.28 267.336 181.698 266.459V265.952H184.38C189.65 265.952 192.487 265.557 192.823 264.955H181.724V264.525H192.702C192.023 264.018 189.435 263.76 185.189 263.76H181.75V263.193H202.296L202.27 263.631Z" fill="#A18044"/>
<path d="M152.873 256.058V264.095C152.873 268.539 170.067 272.132 191.361 272.132C212.655 272.132 229.849 268.539 229.849 264.095V256.058H152.873Z" fill="#D4A657"/>
<path d="M191.361 264.086C212.617 264.086 229.849 260.488 229.849 256.049C229.849 251.61 212.617 248.012 191.361 248.012C170.105 248.012 152.873 251.61 152.873 256.049C152.873 260.488 170.105 264.086 191.361 264.086Z" fill="#F6DD74"/>
<path d="M222.971 255.103C222.971 258.224 208.821 260.751 191.361 260.751C173.901 260.751 159.751 258.224 159.751 255.103C159.751 251.983 173.901 249.447 191.361 249.447C208.821 249.447 222.971 251.983 222.971 255.103Z" fill="#EFC072"/>
<path d="M188.318 250.281C205.769 250.281 219.928 252.86 219.928 255.937C219.928 256.608 219.266 257.244 218.071 257.846C220.599 257.029 222.043 256.126 222.043 255.103C222.043 251.983 207.893 249.447 190.433 249.447C176.729 249.447 165.064 251.012 160.679 253.195C166.078 251.459 176.429 250.281 188.318 250.281Z" fill="#D4A657"/>
<path d="M202.27 253.006H194.215C195.634 253.204 196.657 253.496 196.949 253.866H202.27V254.296H197.001C196.511 255.155 192.556 255.757 186.306 255.791C190.115 256.496 194.267 257.39 198.342 258.284H193.656C189.848 257.467 186.28 256.711 181.698 255.834V255.293H184.38C189.65 255.293 192.487 254.897 192.823 254.296H181.724V253.917H192.702C192.023 253.41 189.435 253.152 185.189 253.152H181.75V252.585H202.296L202.27 253.006Z" fill="#A18044"/>
<path d="M152.873 245.433V253.47C152.873 257.914 170.067 261.507 191.361 261.507C212.655 261.507 229.849 257.914 229.849 253.47V245.433H152.873Z" fill="#D4A657"/>
<path d="M191.361 253.461C212.617 253.461 229.849 249.863 229.849 245.424C229.849 240.985 212.617 237.387 191.361 237.387C170.105 237.387 152.873 240.985 152.873 245.424C152.873 249.863 170.105 253.461 191.361 253.461Z" fill="#F6DD74"/>
<path d="M191.361 250.118C208.819 250.118 222.971 247.589 222.971 244.47C222.971 241.351 208.819 238.822 191.361 238.822C173.903 238.822 159.751 241.351 159.751 244.47C159.751 247.589 173.903 250.118 191.361 250.118Z" fill="#EFC072"/>
<path d="M188.318 239.656C205.769 239.656 219.928 242.192 219.928 245.312C219.928 245.983 219.266 246.619 218.071 247.221C220.599 246.404 222.043 245.502 222.043 244.479C222.043 241.358 207.893 238.822 190.433 238.822C176.729 238.822 165.064 240.387 160.679 242.57C166.078 240.834 176.429 239.656 188.318 239.656Z" fill="#D4A657"/>
<path d="M202.27 242.381H194.215C195.634 242.579 196.657 242.871 196.949 243.241H202.27V243.67H197.001C196.511 244.53 192.556 245.132 186.306 245.166C190.115 245.871 194.267 246.765 198.342 247.659H193.656C189.848 246.842 186.28 246.086 181.698 245.209V244.668H184.38C189.65 244.668 192.487 244.272 192.823 243.67H181.724V243.241H192.702C192.023 242.733 189.435 242.476 185.189 242.476H181.75V241.908H202.296L202.27 242.381Z" fill="#A18044"/>
<path d="M152.873 234.8V242.846C152.873 247.29 170.067 250.883 191.361 250.883C212.655 250.883 229.849 247.29 229.849 242.846V234.8H152.873Z" fill="#D4A657"/>
<path d="M191.361 242.837C212.617 242.837 229.849 239.238 229.849 234.799C229.849 230.36 212.617 226.762 191.361 226.762C170.105 226.762 152.873 230.36 152.873 234.799C152.873 239.238 170.105 242.837 191.361 242.837Z" fill="#F6DD74"/>
<path d="M191.361 239.493C208.819 239.493 222.971 236.965 222.971 233.846C222.971 230.727 208.819 228.198 191.361 228.198C173.903 228.198 159.751 230.727 159.751 233.846C159.751 236.965 173.903 239.493 191.361 239.493Z" fill="#EFC072"/>
<path d="M188.318 229.032C205.769 229.032 219.928 231.568 219.928 234.688C219.928 235.359 219.266 235.995 218.071 236.596C220.599 235.737 222.043 234.877 222.043 233.854C222.043 230.734 207.893 228.198 190.433 228.198C176.729 228.198 165.064 229.763 160.679 231.946C166.078 230.21 176.429 229.032 188.318 229.032Z" fill="#D4A657"/>
<path d="M35.4072 319.807V327.844C35.4072 332.288 52.6007 335.89 73.8949 335.89C95.1891 335.89 112.426 332.288 112.426 327.844V319.807H35.4072Z" fill="#D4A657"/>
<path d="M73.8949 327.835C95.1511 327.835 112.383 324.237 112.383 319.798C112.383 315.359 95.1511 311.761 73.8949 311.761C52.6388 311.761 35.4072 315.359 35.4072 319.798C35.4072 324.237 52.6388 327.835 73.8949 327.835Z" fill="#F6DD74"/>
<path d="M105.548 318.852C105.548 321.973 91.3892 324.5 73.9378 324.5C56.4863 324.5 42.3275 321.973 42.3275 318.852C42.3275 315.732 56.4347 313.23 73.8948 313.23C91.3548 313.23 105.548 315.732 105.548 318.852Z" fill="#EFC072"/>
<path d="M70.843 314.03C88.303 314.03 102.453 316.566 102.453 319.686C102.453 320.357 101.8 321.001 100.596 321.595C103.132 320.735 104.577 319.875 104.577 318.852C104.577 315.732 90.4264 313.196 72.9664 313.196C59.2545 313.196 47.5887 314.761 43.213 316.944C48.6117 315.208 58.9622 314.03 70.843 314.03Z" fill="#D4A657"/>
<path d="M84.8041 316.755H76.7489C78.1674 316.953 79.1904 317.245 79.4827 317.614H84.8041V318.044H79.5343C79.0443 318.904 75.0898 319.506 68.8399 319.54C72.6483 320.245 76.8005 321.139 80.8754 322.033H76.1815C72.3818 321.216 68.8141 320.46 64.2234 319.583V319.041H66.9142C72.1841 319.041 75.0124 318.655 75.3563 318.044H64.2836V317.614H75.2703C74.5826 317.107 71.9949 316.849 67.7481 316.849H64.3094V316.282H84.8643L84.8041 316.755Z" fill="#A18044"/>
<path d="M35.4072 309.182V317.219C35.4072 321.663 52.6007 325.265 73.8949 325.265C95.1891 325.265 112.426 321.663 112.426 317.219V309.182H35.4072Z" fill="#D4A657"/>
<path d="M73.8949 317.211C95.1511 317.211 112.383 313.613 112.383 309.174C112.383 304.735 95.1511 301.136 73.8949 301.136C52.6388 301.136 35.4072 304.735 35.4072 309.174C35.4072 313.613 52.6388 317.211 73.8949 317.211Z" fill="#F6DD74"/>
<path d="M73.895 313.876C91.3529 313.876 105.505 311.347 105.505 308.228C105.505 305.109 91.3529 302.58 73.895 302.58C56.4371 302.58 42.2847 305.109 42.2847 308.228C42.2847 311.347 56.4371 313.876 73.895 313.876Z" fill="#EFC072"/>
<path d="M70.843 303.405C88.303 303.405 102.453 305.941 102.453 309.061C102.453 309.732 101.8 310.377 100.596 310.97C103.132 310.153 104.577 309.251 104.577 308.228C104.577 305.107 90.4264 302.571 72.9664 302.571C59.2545 302.571 47.5887 304.136 43.213 306.319C48.6117 304.583 58.9622 303.405 70.843 303.405Z" fill="#D4A657"/>
<path d="M84.8041 306.131H76.7489C78.1674 306.328 79.1904 306.621 79.4827 306.99H84.8041V307.42H79.5343C79.0443 308.28 75.0898 308.881 68.8399 308.916C72.6483 309.621 76.8005 310.515 80.8754 311.409H76.1815C72.3818 310.592 68.8141 309.835 64.2234 308.959V308.417H66.9142C72.1841 308.417 75.0124 308.03 75.3563 307.42H64.2836V306.99H75.2703C74.5826 306.483 71.9949 306.225 67.7481 306.225H64.3094V305.658H84.8643L84.8041 306.131Z" fill="#A18044"/>
<path d="M35.4072 298.557V306.594C35.4072 311.038 52.6007 314.64 73.8949 314.64C95.1891 314.64 112.426 311.038 112.426 306.594V298.557H35.4072Z" fill="#D4A657"/>
<path d="M73.8949 306.586C95.1511 306.586 112.383 302.987 112.383 298.548C112.383 294.109 95.1511 290.511 73.8949 290.511C52.6388 290.511 35.4072 294.109 35.4072 298.548C35.4072 302.987 52.6388 306.586 73.8949 306.586Z" fill="#F6DD74"/>
<path d="M73.895 303.25C91.3529 303.25 105.505 300.722 105.505 297.602C105.505 294.483 91.3529 291.955 73.895 291.955C56.4371 291.955 42.2847 294.483 42.2847 297.602C42.2847 300.722 56.4371 303.25 73.895 303.25Z" fill="#EFC072"/>
<path d="M70.843 292.78C88.303 292.78 102.453 295.359 102.453 298.437C102.453 299.107 101.8 299.752 100.596 300.345C103.132 299.528 104.577 298.626 104.577 297.603C104.577 294.482 90.4264 291.947 72.9664 291.947C59.2545 291.947 47.5887 293.511 43.213 295.694C48.6117 293.958 58.9622 292.78 70.843 292.78Z" fill="#D4A657"/>
<path d="M84.8041 295.506H76.7489C78.1674 295.703 79.1904 295.996 79.4827 296.365H84.8041V296.795H79.5343C79.0443 297.655 75.0898 298.256 68.8399 298.291C72.6483 298.996 76.8005 299.89 80.8754 300.784H76.1815C72.3818 299.967 68.8141 299.211 64.2234 298.334V297.792H66.9142C72.1841 297.792 75.0124 297.397 75.3563 296.795H64.2836V296.365H75.2703C74.5826 295.858 71.9949 295.6 67.7481 295.6H64.3094V295.033H84.8643L84.8041 295.506Z" fill="#A18044"/>
<path d="M35.4072 287.932V295.969C35.4072 300.414 52.6007 304.015 73.8949 304.015C95.1891 304.015 112.426 300.414 112.426 295.969V287.932H35.4072Z" fill="#D4A657"/>
<path d="M73.8949 295.961C95.1511 295.961 112.383 292.362 112.383 287.923C112.383 283.485 95.1511 279.886 73.8949 279.886C52.6388 279.886 35.4072 283.485 35.4072 287.923C35.4072 292.362 52.6388 295.961 73.8949 295.961Z" fill="#F6DD74"/>
<path d="M105.548 286.978C105.548 290.098 91.3892 292.626 73.9378 292.626C56.4863 292.626 42.3275 290.098 42.3275 286.978C42.3275 283.858 56.4777 281.322 73.9378 281.322C91.3978 281.322 105.548 283.858 105.548 286.978Z" fill="#EFC072"/>
<path d="M70.843 282.155C88.303 282.155 102.453 284.691 102.453 287.812C102.453 288.482 101.8 289.127 100.596 289.72C103.132 288.903 104.577 288.001 104.577 286.978C104.577 283.858 90.4264 281.322 72.9664 281.322C59.2545 281.322 47.5887 282.886 43.213 285.07C48.6117 283.333 58.9622 282.155 70.843 282.155Z" fill="#D4A657"/>
<path d="M84.8041 284.863H76.7489C78.1674 285.061 79.1904 285.353 79.4827 285.723H84.8041V286.153H79.5343C79.0443 287.012 75.0898 287.614 68.8399 287.648C72.6483 288.353 76.8005 289.247 80.8754 290.141H76.1815C72.3818 289.325 68.8141 288.568 64.2234 287.691V287.15H66.9142C72.1841 287.15 75.0124 286.754 75.3563 286.153H64.2836V285.723H75.2703C74.5826 285.216 71.9949 284.958 67.7481 284.958H64.3094V284.39H84.8643L84.8041 284.863Z" fill="#A18044"/>
<path d="M35.4072 277.307V285.345C35.4072 289.789 52.6007 293.391 73.8949 293.391C95.1891 293.391 112.426 289.789 112.426 285.345V277.307H35.4072Z" fill="#D4A657"/>
<path d="M73.8949 285.336C95.1511 285.336 112.383 281.738 112.383 277.299C112.383 272.86 95.1511 269.261 73.8949 269.261C52.6388 269.261 35.4072 272.86 35.4072 277.299C35.4072 281.738 52.6388 285.336 73.8949 285.336Z" fill="#F6DD74"/>
<path d="M73.895 281.992C91.3529 281.992 105.505 279.464 105.505 276.345C105.505 273.225 91.3529 270.697 73.895 270.697C56.4371 270.697 42.2847 273.225 42.2847 276.345C42.2847 279.464 56.4371 281.992 73.895 281.992Z" fill="#EFC072"/>
<path d="M70.843 271.531C88.303 271.531 102.453 274.067 102.453 277.187C102.453 277.857 101.8 278.494 100.596 279.095C103.132 278.236 104.577 277.376 104.577 276.353C104.577 273.233 90.4264 270.697 72.9664 270.697C59.2545 270.697 47.5887 272.261 43.213 274.445C48.6117 272.708 58.9622 271.531 70.843 271.531Z" fill="#D4A657"/>
</svg>
