<svg width="421" height="354" viewBox="0 0 421 354" fill="none" xmlns="http://www.w3.org/2000/svg">
<path d="M232.635 0.0995429L139.84 22.8705L134.553 11.6568C134.332 11.1831 133.953 10.8008 133.481 10.5752C133.009 10.3496 132.473 10.2947 131.964 10.42L81.987 22.6781C81.4766 22.7995 81.025 23.0955 80.7106 23.5148C80.3962 23.9341 80.2389 24.4501 80.266 24.9731L80.7892 37.3411L60.6743 42.2746C59.771 42.4958 58.9925 43.0657 58.5098 43.8593C58.0271 44.6529 57.8796 45.6052 58.0997 46.5072L84.6993 154.535C84.9209 155.437 85.4919 156.214 86.287 156.696C87.082 157.177 88.0361 157.325 88.9398 157.105L260.901 114.916C261.804 114.695 262.583 114.125 263.065 113.331C263.548 112.538 263.696 111.586 263.475 110.684L236.876 2.66936C236.654 1.76772 236.083 0.990688 235.288 0.508879C234.493 0.0270708 233.539 -0.120151 232.635 0.0995429Z" fill="#DCECEB"/>
<path d="M128.58 15.133L87.1235 25.3234L88.4777 30.8322L129.934 20.6418L128.58 15.133Z" fill="white"/>
<path d="M174.607 76.1093L69.7099 101.814L64.4231 90.5975C64.2043 90.1219 63.8256 89.7379 63.3528 89.5119C62.8801 89.2859 62.343 89.2323 61.8347 89.3603L11.885 101.622C11.3746 101.743 10.923 102.039 10.6085 102.459C10.2941 102.878 10.1369 103.394 10.164 103.917L10.6872 116.289L2.67431 118.254C1.77099 118.476 0.992532 119.046 0.509827 119.839C0.0271212 120.633 -0.120375 121.586 0.0997281 122.488L26.6992 230.545C26.8088 230.991 27.0055 231.411 27.2782 231.781C27.5508 232.151 27.8939 232.464 28.2878 232.702C28.6818 232.939 29.1188 233.097 29.5739 233.165C30.029 233.234 30.4931 233.212 30.9397 233.101L202.914 190.915C203.815 190.691 204.59 190.119 205.07 189.326C205.55 188.533 205.695 187.582 205.475 186.681L178.875 78.6248C178.642 77.727 178.062 76.9582 177.262 76.4867C176.462 76.0152 175.507 75.8795 174.607 76.1093Z" fill="#A3CECC"/>
<path opacity="0.2" d="M174.607 76.1093L69.7099 101.814L64.4231 90.5975C64.2043 90.1219 63.8256 89.7379 63.3528 89.5119C62.8801 89.2859 62.343 89.2323 61.8347 89.3603L11.885 101.622C11.3746 101.743 10.923 102.039 10.6085 102.459C10.2941 102.878 10.1369 103.394 10.164 103.917L10.6872 116.289L2.67431 118.254C1.77099 118.476 0.992532 119.046 0.509827 119.839C0.0271212 120.633 -0.120375 121.586 0.0997281 122.488L26.6992 230.545C26.8088 230.991 27.0055 231.411 27.2782 231.781C27.5508 232.151 27.8939 232.464 28.2878 232.702C28.6818 232.939 29.1188 233.097 29.5739 233.165C30.029 233.234 30.4931 233.212 30.9397 233.101L202.914 190.915C203.815 190.691 204.59 190.119 205.07 189.326C205.55 188.533 205.695 187.582 205.475 186.681L178.875 78.6248C178.642 77.727 178.062 76.9582 177.262 76.4867C176.462 76.0152 175.507 75.8795 174.607 76.1093Z" fill="white"/>
<path d="M58.1562 95.0237L16.6997 105.214L18.0538 110.723L59.5103 100.533L58.1562 95.0237Z" fill="white"/>
<path d="M269.732 105.853L98.1836 148.021C96.3051 148.482 95.1566 150.38 95.6183 152.258L122.157 260.221C122.618 262.1 124.515 263.248 126.394 262.786L297.942 220.618C299.821 220.156 300.969 218.259 300.507 216.381L273.969 108.418C273.507 106.539 271.61 105.391 269.732 105.853Z" fill="#A3CECC"/>
<path d="M158.158 136.623L102.809 150.416C102.484 150.488 102.147 150.488 101.822 150.414C101.497 150.341 101.192 150.197 100.928 149.991C100.663 149.786 100.446 149.525 100.291 149.226C100.136 148.927 100.048 148.598 100.031 148.261L99.4894 135.228C99.4668 134.691 99.627 134.163 99.9431 133.732C100.259 133.301 100.712 132.993 101.226 132.861L151.644 120.308C152.156 120.177 152.698 120.232 153.175 120.463C153.652 120.695 154.034 121.088 154.255 121.576L159.741 133.368C159.884 133.684 159.955 134.029 159.95 134.376C159.945 134.724 159.864 135.066 159.713 135.378C159.561 135.689 159.343 135.963 159.074 136.178C158.805 136.394 158.492 136.546 158.158 136.623Z" fill="#A3CECC"/>
<path d="M147.966 125.653L106.51 135.843L107.864 141.352L149.32 131.162L147.966 125.653Z" fill="white"/>
<path d="M357.566 173.82L242.922 200.051L237.034 187.083C236.784 186.533 236.35 186.086 235.805 185.82C235.26 185.553 234.638 185.483 234.046 185.621L176.102 198.87C175.511 199.008 174.985 199.344 174.613 199.822C174.241 200.299 174.046 200.889 174.061 201.492L174.424 215.739L158.121 219.464C157.073 219.707 156.163 220.352 155.59 221.259C155.018 222.166 154.829 223.26 155.066 224.302L183.726 349.008C183.841 349.525 184.059 350.013 184.366 350.445C184.672 350.877 185.062 351.244 185.513 351.526C185.963 351.807 186.465 351.997 186.99 352.085C187.515 352.172 188.053 352.156 188.572 352.036L387.998 306.38C389.046 306.141 389.956 305.499 390.53 304.595C391.103 303.69 391.293 302.598 391.056 301.557L362.42 176.895C362.308 176.374 362.093 175.882 361.787 175.445C361.482 175.008 361.092 174.636 360.641 174.35C360.189 174.064 359.685 173.87 359.157 173.779C358.629 173.688 358.088 173.702 357.566 173.82Z" fill="#FFB9A5"/>
<path d="M289.987 201.056C291.422 187.555 302.449 173.271 314.607 169.142C326.766 165.012 335.458 172.607 334.046 186.104C332.635 199.601 321.585 213.889 309.426 218.018C297.267 222.148 288.552 214.557 289.987 201.056Z" fill="#EAAA28"/>
<path d="M285.852 198.314C287.287 184.813 298.312 170.522 310.473 166.4C322.633 162.279 331.323 169.865 329.911 183.362C328.5 196.86 317.45 211.147 305.291 215.277C293.132 219.406 284.365 211.8 285.852 198.314Z" fill="#FECE31"/>
<path d="M295.737 207.673C289.885 203.322 290.57 192.271 297.266 182.99C303.962 173.709 314.134 169.712 319.986 174.063C325.838 178.413 325.153 189.464 318.457 198.746C311.761 208.027 301.589 212.024 295.737 207.673Z" fill="#F6BD3B"/>
<path d="M307.772 179.766L310.339 178.888L310.137 180.776C311.87 180.387 313.125 180.466 313.915 181.027C314.705 181.589 315.018 182.618 314.849 184.133C314.765 185.044 314.526 185.932 314.145 186.76C313.727 187.6 313.187 188.37 312.541 189.045C311.718 189.905 310.814 190.682 309.841 191.365C308.869 192.053 308.09 192.625 307.512 193.077C307.064 193.414 306.646 193.789 306.262 194.198C306.024 194.447 305.87 194.766 305.822 195.11C305.777 195.552 305.945 195.806 306.212 195.876C306.732 195.911 307.252 195.82 307.728 195.609C308.788 195.208 309.8 194.688 310.744 194.059C311.888 193.327 312.981 192.518 314.018 191.638L313.533 196.212C311.899 197.515 310.085 198.569 308.147 199.339L307.873 201.89L305.304 202.76L305.585 200.108C303.927 200.45 302.706 200.29 301.922 199.619C301.137 198.948 300.837 197.85 301.001 196.311C301.144 194.946 301.658 193.651 302.488 192.57C303.625 191.178 304.965 189.972 306.462 188.991C307.349 188.375 308.042 187.878 308.553 187.462C308.944 187.157 309.305 186.814 309.631 186.438C309.837 186.201 309.966 185.904 309.999 185.589C310.036 185.24 309.901 185.031 309.678 184.936C309.212 184.882 308.742 184.965 308.322 185.175C306.568 185.857 304.939 186.829 303.501 188.053L302.446 184.635C304.005 183.384 305.728 182.359 307.566 181.588L307.766 179.734" fill="white"/>
<path d="M395.614 196.385L392.853 301.468C392.793 303.765 391.175 305.725 388.931 306.219L191.433 349.733C188.214 350.442 185.201 347.897 185.363 344.604L190.718 235.688C190.831 233.406 192.476 231.49 194.715 231.034L389.618 191.355C392.769 190.713 395.698 193.17 395.614 196.385Z" fill="#F8A38B"/>
<path d="M230.496 191.041L182.321 202.083L183.789 208.485L231.963 197.443L230.496 191.041Z" fill="white"/>
<path d="M375.38 92.2925L353.691 65.1056C351.375 62.2063 348.461 59.8564 345.155 58.2206L322.477 47.0632C319.767 45.7221 316.716 45.2602 313.738 45.7404L290.122 49.7416C286.418 50.3725 282.923 51.9125 279.941 54.2276L271.032 61.1619C270.425 61.6357 269.929 62.24 269.579 62.9314C269.229 63.6227 269.034 64.3841 269.009 65.1608C268.983 65.9375 269.127 66.7103 269.431 67.4238C269.735 68.1373 270.19 68.7738 270.765 69.2876C272.462 70.7965 274.618 71.6673 276.873 71.7541C279.128 71.8409 281.344 71.1382 283.148 69.7641L289.125 65.1796C290.316 64.226 291.731 63.6031 293.232 63.3721L303.048 61.8932C305.542 61.5046 308.092 61.7245 310.487 62.5346C312.881 63.3447 315.051 64.7217 316.816 66.5517L332.731 82.9837L375.38 92.2925Z" fill="#DDB068"/>
<path d="M362.511 62.8134L341.891 48.0245L312.54 38.6829C309.638 37.7558 306.523 37.7731 303.631 38.7322L280.848 46.2334C277.276 47.4095 274.042 49.4545 271.429 52.19L263.605 60.4061C263.076 60.9667 262.675 61.6395 262.433 62.376C262.191 63.1126 262.112 63.8945 262.204 64.6654C262.295 65.4363 262.554 66.177 262.962 66.8342C263.369 67.4915 263.915 68.0488 264.561 68.466C266.458 69.7048 268.717 70.2431 270.959 69.9902C273.201 69.7373 275.289 68.7087 276.871 67.0775L282.152 61.6138C283.192 60.4939 284.501 59.6672 285.951 59.2148L295.443 56.2405C297.846 55.4899 300.391 55.3293 302.868 55.7721C305.345 56.215 307.683 57.2485 309.689 58.7875L327.831 72.6891L362.511 62.8134Z" fill="#F4CA7F"/>
<path d="M276.305 113.515C276.77 111.337 278.031 109.42 279.835 108.148C281.638 106.877 283.85 106.346 286.023 106.662L309.567 110.507C314.687 111.237 319.895 110.088 324.254 107.269C328.614 104.449 331.838 100.143 333.346 95.1271C334.553 91.093 336.019 87.5601 335.606 86.3441C334.456 83.0084 320.825 82.5072 313.009 82.154C310.059 82.022 307.151 82.9114 304.765 84.6763L294.649 92.1611L290.526 99.6623C289.661 101.236 288.368 102.524 286.802 103.373C285.235 104.223 283.461 104.597 281.69 104.452L279.844 104.296C279.313 104.252 278.8 104.084 278.344 103.806C277.889 103.527 277.502 103.146 277.216 102.691C276.93 102.235 276.751 101.719 276.694 101.183C276.637 100.646 276.704 100.103 276.888 99.5966L281.164 87.823C281.934 85.6947 283.075 83.7243 284.533 82.0061L293.572 71.3252C296.583 67.7661 300.704 65.3597 305.251 64.5059L337.906 58.3439C344.366 57.1312 351.032 57.7662 357.157 60.1778C363.281 62.5894 368.624 66.6824 372.586 71.9989C382.143 84.7749 394.542 100.254 400.536 103.113C405.792 105.578 413.875 108.544 420.662 110.861L408.902 151.941L387.626 143.61C383.977 142.689 380.199 142.411 376.457 142.788C367.548 143.667 350.314 145.048 343.033 143.355C335.136 141.523 300.002 129.265 282.29 123.908C280.179 123.267 278.388 121.838 277.277 119.909C276.165 117.979 275.818 115.694 276.305 113.515Z" fill="#F9D895"/>
<path d="M242.791 117.849C242.354 103.34 253.594 91.2193 267.897 90.776C282.199 90.3327 294.148 101.735 294.585 116.244C295.022 130.753 283.782 142.874 269.479 143.318C255.177 143.761 243.228 132.358 242.791 117.849Z" fill="#FECE31"/>
<path d="M265.626 137.844C255.339 136.157 248.348 126.33 250.01 115.895C251.673 105.46 261.36 98.3672 271.646 100.054C281.933 101.74 288.925 111.567 287.262 122.002C285.6 132.438 275.913 139.53 265.626 137.844Z" fill="#F6BD3B"/>
<path d="M267.954 128.497C265.847 128.806 263.706 128.719 261.639 128.239L260.812 123.421C262.077 123.792 263.376 124.039 264.69 124.158C265.864 124.297 267.054 124.268 268.223 124.07C268.843 123.993 269.439 123.772 269.964 123.425C270.13 123.302 270.257 123.132 270.328 122.936C270.399 122.741 270.411 122.529 270.363 122.327C270.333 122.163 270.264 122.009 270.162 121.878C270.059 121.748 269.926 121.645 269.775 121.579C269.288 121.342 268.772 121.171 268.239 121.073C267.558 120.912 266.638 120.744 265.479 120.55C264.364 120.385 263.281 120.058 262.262 119.58C261.478 119.217 260.793 118.667 260.264 117.978C259.756 117.22 259.424 116.354 259.294 115.445C259.132 114.748 259.126 114.022 259.276 113.32C259.426 112.617 259.728 111.956 260.161 111.383C261.299 110.109 262.793 109.217 264.438 108.826L264.105 106.858L267.083 106.287L267.426 108.25C269.439 107.995 271.477 108.102 273.444 108.567L272.461 113.041C270.622 112.534 268.693 112.429 266.802 112.732C266.24 112.795 265.701 112.999 265.235 113.326C265.1 113.434 264.998 113.577 264.939 113.739C264.88 113.902 264.866 114.077 264.9 114.246C264.923 114.395 264.977 114.537 265.059 114.662C265.142 114.787 265.25 114.893 265.376 114.971C265.783 115.191 266.221 115.351 266.675 115.444C267.489 115.636 268.313 115.787 269.143 115.895C270.828 116.065 272.45 116.619 273.886 117.517C274.409 117.905 274.85 118.395 275.182 118.959C275.514 119.524 275.731 120.15 275.821 120.804C275.978 121.531 275.985 122.286 275.842 123.02C275.699 123.754 275.409 124.452 274.99 125.071C273.948 126.421 272.495 127.386 270.861 127.813L271.361 130.622L268.381 131.2L267.954 128.497Z" fill="white"/>
<path d="M265.609 106.477L266.922 112.642C268.867 112.434 270.854 112.603 272.762 113.139L273.682 108.718C271.586 108.202 269.426 108.04 267.302 108.24L266.885 106.278L265.609 106.477Z" fill="#E5E5E5"/>
<path d="M273.696 117.491C272.335 116.624 270.792 116.098 269.183 115.953C268.567 115.868 268.025 115.784 267.573 115.698L268.422 121.123C268.849 121.219 269.261 121.369 269.65 121.57C269.794 121.633 269.919 121.733 270.016 121.86C270.112 121.988 270.176 122.139 270.202 122.302C270.245 122.5 270.231 122.71 270.16 122.904C270.089 123.098 269.966 123.269 269.805 123.393C269.521 123.609 269.202 123.768 268.866 123.86L269.95 130.771L271.122 130.519L270.682 127.749C272.25 127.304 273.653 126.33 274.668 124.98C275.077 124.362 275.364 123.668 275.511 122.94C275.657 122.212 275.661 121.466 275.521 120.749C275.446 120.096 275.246 119.472 274.932 118.912C274.618 118.352 274.198 117.869 273.696 117.491Z" fill="#E5E5E5"/>
<path d="M282.306 123.842C285.327 124.754 288.85 125.871 292.665 127.129C295.183 120.967 295.299 114.065 292.989 107.821L286.007 106.687C285.602 106.629 285.194 106.598 284.784 106.597C282.711 106.619 280.713 107.392 279.151 108.776C277.59 110.161 276.567 112.066 276.268 114.148C275.969 116.23 276.413 118.351 277.52 120.131C278.627 121.91 280.325 123.229 282.306 123.85V123.842Z" fill="#E5E5E5"/>
<path d="M282.306 123.842C285.327 124.754 288.85 125.871 292.665 127.129C295.183 120.967 295.299 114.065 292.989 107.821L286.007 106.687C285.602 106.629 285.194 106.598 284.784 106.597C282.711 106.619 280.713 107.392 279.151 108.776C277.59 110.161 276.567 112.066 276.268 114.148C275.969 116.23 276.413 118.351 277.52 120.131C278.627 121.91 280.325 123.229 282.306 123.85V123.842Z" fill="#F9D895"/>
<path opacity="0.58" d="M280.494 113.386L280.021 115.678C279.727 117.107 280.004 118.596 280.791 119.818C281.579 121.04 282.813 121.894 284.221 122.193L289.422 123.297C290.138 123.45 290.886 123.307 291.499 122.9C292.112 122.493 292.54 121.856 292.69 121.129L294.253 113.554C294.403 112.826 294.262 112.068 293.862 111.447C293.461 110.825 292.833 110.39 292.116 110.238L286.915 109.134C285.508 108.835 284.042 109.115 282.838 109.912C281.634 110.709 280.791 111.959 280.494 113.386Z" fill="white"/>
</svg>
