<svg width="428" height="375" viewBox="0 0 428 375" fill="none" xmlns="http://www.w3.org/2000/svg">
<path d="M269.124 369.348L145.736 374.932C139.918 375.199 134.142 373.902 129.136 371.207C124.129 368.511 120.115 364.536 117.598 359.781L2.52176 141.14C-1.62368 133.32 -0.722498 125.318 5.70241 117.286L6.25374 116.394L291.939 354.897C286.988 362.977 279.365 368.887 269.124 369.348Z" fill="#0B283E"/>
<path d="M289.83 355.789L142.46 362.506C140.456 362.598 138.466 362.153 136.739 361.229C135.012 360.304 133.624 358.939 132.748 357.305L6.19018 121.441C5.77793 120.676 5.58751 119.83 5.63685 118.98C5.68618 118.131 5.97366 117.307 6.47219 116.586C6.97072 115.865 7.66384 115.271 8.4863 114.86C9.30877 114.448 10.2335 114.233 11.1732 114.235H156.126C158.038 114.233 159.911 114.717 161.534 115.631C163.157 116.546 164.464 117.853 165.307 119.406L291.908 352.575C292.092 352.905 292.182 353.273 292.17 353.643C292.157 354.013 292.042 354.374 291.836 354.694C291.629 355.014 291.337 355.282 290.987 355.473C290.636 355.664 290.238 355.773 289.83 355.789Z" fill="#0F3552"/>
<path d="M16.1245 127.802C16.0066 127.588 15.9515 127.35 15.9644 127.11C15.9773 126.871 16.0578 126.639 16.1982 126.436C16.3386 126.233 16.5342 126.065 16.7663 125.95C16.9984 125.835 17.2593 125.776 17.5239 125.778H158.533C159.698 125.781 160.839 126.078 161.828 126.636C162.817 127.193 163.614 127.989 164.131 128.935L276.27 336.55L131.974 341.099C122.305 323.721 16.1245 127.802 16.1245 127.802Z" fill="#92CCBE"/>
<g style="mix-blend-mode:screen" opacity="0.27">
<path d="M111.205 317.168L6.19018 121.441C5.77793 120.676 5.58751 119.83 5.63685 118.98C5.68618 118.131 5.97366 117.307 6.47219 116.586C6.97072 115.865 7.66384 115.271 8.4863 114.86C9.30877 114.448 10.2335 114.233 11.1732 114.235H156.126C160.027 114.235 111.205 317.168 111.205 317.168Z" fill="#B5EEDD"/>
</g>
<path d="M193.615 352.066L193.774 352.412C194.176 353.269 194.859 353.993 195.732 354.486C196.605 354.978 197.624 355.216 198.651 355.165L228.687 353.774C229.51 353.734 230.309 353.511 231.013 353.124C231.718 352.738 232.306 352.2 232.725 351.558C233.145 350.916 233.383 350.191 233.418 349.446C233.454 348.701 233.285 347.96 232.928 347.288C232.507 346.489 231.837 345.82 231 345.363C230.164 344.906 229.197 344.681 228.22 344.716L198.015 345.781C197.209 345.814 196.423 346.023 195.725 346.389C195.027 346.756 194.437 347.269 194.005 347.886C193.574 348.503 193.313 349.205 193.245 349.933C193.177 350.661 193.304 351.392 193.615 352.066Z" fill="#0B283E"/>
<g style="mix-blend-mode:multiply" opacity="0.56">
<path d="M176.196 238.332L155.309 261.601L238.377 337.74L262.656 336.713L189.671 270.064L176.196 238.332Z" fill="#52A4E2"/>
</g>
<mask id="mask0_167_13276" style="mask-type:luminance" maskUnits="userSpaceOnUse" x="70" y="0" width="358" height="335">
<path d="M70.7997 90.3614L177.341 306.258C177.341 306.258 338.377 364.79 396.805 313.455C471.02 248.158 404.693 27.5115 264.819 1.13375C196.435 -11.8104 70.7997 90.3614 70.7997 90.3614Z" fill="white"/>
</mask>
<g mask="url(#mask0_167_13276)">
<mask id="mask1_167_13276" style="mask-type:luminance" maskUnits="userSpaceOnUse" x="55" y="76" width="275" height="240">
<path d="M222.559 312.39L59.9006 190.403C58.6041 189.434 57.5316 188.243 56.7445 186.898C55.9574 185.553 55.4712 184.081 55.3136 182.566C55.156 181.05 55.3302 179.522 55.8263 178.068C56.3223 176.614 57.1304 175.262 58.2043 174.091L144.145 80.2192C145.218 79.0476 146.535 78.0787 148.021 77.3679C149.508 76.6571 151.134 76.2184 152.808 76.0767C154.482 75.935 156.17 76.0932 157.776 76.5422C159.382 76.9912 160.875 77.7222 162.169 78.6935L324.838 200.68C326.132 201.651 327.203 202.843 327.988 204.188C328.774 205.533 329.258 207.005 329.415 208.52C329.572 210.035 329.397 211.563 328.901 213.016C328.405 214.47 327.597 215.821 326.524 216.992L240.583 310.854C239.512 312.028 238.196 312.998 236.71 313.711C235.224 314.423 233.597 314.863 231.923 315.006C230.248 315.148 228.56 314.991 226.953 314.542C225.346 314.093 223.853 313.362 222.559 312.39Z" fill="white"/>
</mask>
<g mask="url(#mask1_167_13276)">
<path d="M334.734 208.021L152.35 71.274L50.0954 182.981L232.479 319.728L334.734 208.021Z" fill="#FECD29"/>
<g style="mix-blend-mode:multiply" opacity="0.3">
<path d="M334.734 208.021L152.35 71.274L50.0954 182.981L232.479 319.728L334.734 208.021Z" fill="#FECD29"/>
</g>
<g style="mix-blend-mode:multiply" opacity="0.59">
<path d="M194.908 192.763L56.8894 183.466L231.592 317.281L194.908 192.763Z" fill="#FECD29"/>
</g>
<path d="M192.364 195.546L50.0406 183.015L232.408 319.776L192.364 195.546Z" fill="#FECD29"/>
<g style="mix-blend-mode:multiply" opacity="0.59">
<path d="M165.222 207.214L136.353 105.637C135.293 101.914 135.134 96.4638 137.286 93.163L150.008 76.1503L330.531 211.532L315.434 223.872C312.253 226.434 305.341 229.475 301.068 229.187L184.752 221.837C180.218 221.547 175.899 219.981 172.397 217.359C168.896 214.737 166.387 211.19 165.222 207.214Z" fill="#FECD29"/>
</g>
<path d="M168.827 203.328L138.717 100.83C138.175 98.9827 138.043 97.0568 138.327 95.163C138.611 93.2693 139.305 91.445 140.371 89.7951L152.341 71.3144L334.698 208.078L316.95 222.173C315.357 223.443 313.501 224.41 311.489 225.02C309.477 225.63 307.35 225.869 305.234 225.724L188.303 217.923C183.783 217.624 179.479 216.058 175.988 213.442C172.497 210.826 169.994 207.291 168.827 203.328Z" fill="#FECD29"/>
</g>
</g>
<path d="M292.152 194.241C308.605 194.241 321.944 182.169 321.944 167.278C321.944 152.387 308.605 140.315 292.152 140.315C275.698 140.315 262.36 152.387 262.36 167.278C262.36 182.169 275.698 194.241 292.152 194.241Z" fill="#F88F6D"/>
<path d="M307.567 177.487L305.446 174.714C304.133 173.031 303.432 171.018 303.443 168.957V162.73C303.443 160.299 302.48 157.949 300.729 156.106C298.979 154.263 296.556 153.049 293.901 152.684V149.709C293.901 149.345 293.741 148.996 293.457 148.739C293.172 148.481 292.787 148.337 292.385 148.337C291.984 148.339 291.601 148.485 291.319 148.742C291.037 148.999 290.879 149.347 290.879 149.709V152.588C288.114 152.875 285.566 154.082 283.728 155.974C281.891 157.865 280.895 160.307 280.934 162.826V169.274C280.933 171.493 280.112 173.648 278.602 175.396L276.736 177.545L307.567 177.487Z" fill="white"/>
<path d="M290.529 182.017C291.368 182.322 292.285 182.41 293.176 182.271C294.067 182.132 294.898 181.772 295.576 181.23C296.157 180.747 296.595 180.14 296.848 179.464L287.868 179.407C288.089 179.984 288.439 180.514 288.897 180.963C289.355 181.413 289.911 181.771 290.529 182.017Z" fill="white"/>
</svg>
