<svg id="圖層_1" data-name="圖層 1" xmlns="http://www.w3.org/2000/svg" xmlns:xlink="http://www.w3.org/1999/xlink" viewBox="0 0 428 375"><defs><style>.cls-1{fill:#fff;}.cls-2{fill:#0b283e;}.cls-3{fill:#0f3552;}.cls-4{fill:#92ccbe;}.cls-5{opacity:0.27;}.cls-6{fill:#b5eedd;}.cls-7{opacity:0.56;}.cls-8{fill:#52a4e2;}.cls-9{mask:url(#mask);}.cls-10{mask:url(#mask-2);}.cls-11{fill:#fecd29;}.cls-12{opacity:0.3;}.cls-13{opacity:0.59;}.cls-14{fill:#fcac2b;}.cls-15{fill:#ffd366;}.cls-16{fill:#f88f6d;}</style><mask id="mask" x="95.35" y="-87.67" width="440.18" height="412.76" maskUnits="userSpaceOnUse"><g id="mask0_167_13276" data-name="mask0 167 13276"><path class="cls-1" d="M95.35,23.82,226.81,290.19s198.68,72.22,270.77,8.88c91.57-80.56,9.74-352.8-162.84-385.34C250.36-102.24,95.35,23.82,95.35,23.82Z"/></g></mask><mask id="mask-2" x="69.74" y="0.27" width="351.26" height="306.61" maskUnits="userSpaceOnUse"><g id="mask1_167_13276" data-name="mask1 167 13276"><path class="cls-1" d="M282.6,297.76,81.91,147.25a14.73,14.73,0,0,1-3.9-4.33,13.17,13.17,0,0,1-1.76-5.34,12.93,12.93,0,0,1,.63-5.55,14,14,0,0,1,2.93-4.91l106-115.82a15.73,15.73,0,0,1,4.78-3.52,17.28,17.28,0,0,1,12-1,16.3,16.3,0,0,1,5.42,2.65l200.7,150.51a14.7,14.7,0,0,1,3.89,4.33,13.37,13.37,0,0,1,1.76,5.34,12.94,12.94,0,0,1-.64,5.55,14,14,0,0,1-2.93,4.91l-106,115.8a15.72,15.72,0,0,1-4.78,3.53,17.12,17.12,0,0,1-5.91,1.6,17.33,17.33,0,0,1-6.13-.58A16.21,16.21,0,0,1,282.6,297.76Z"/></g></mask></defs><path class="cls-2" d="M340.05,368l-152.24,6.89a39.55,39.55,0,0,1-20.48-4.59,34.5,34.5,0,0,1-14.24-14.1L11.11,86.47C6,76.82,7.11,67,15,57l.68-1.1L368.2,350.2C362.09,360.17,352.68,367.47,340.05,368Z"/><path class="cls-3" d="M365.6,351.31l-181.83,8.28a13.62,13.62,0,0,1-7.06-1.57,12,12,0,0,1-4.92-4.84L15.64,62.16a5.66,5.66,0,0,1-.69-3,5.84,5.84,0,0,1,1-3A6.59,6.59,0,0,1,18.47,54a7.43,7.43,0,0,1,3.32-.77H200.63A13.69,13.69,0,0,1,207.3,55,11.93,11.93,0,0,1,212,59.65l156.2,287.69a2.46,2.46,0,0,1,.32,1.32,2.43,2.43,0,0,1-.41,1.29,2.81,2.81,0,0,1-1.05,1A3.31,3.31,0,0,1,365.6,351.31Z"/><path class="cls-4" d="M27.89,70a1.58,1.58,0,0,1-.19-.85,1.49,1.49,0,0,1,.29-.83,1.78,1.78,0,0,1,.7-.6,2,2,0,0,1,.93-.22h174a8.4,8.4,0,0,1,4.07,1.06,7.31,7.31,0,0,1,2.84,2.84L348.87,327.57l-178,5.61C158.9,311.74,27.89,70,27.89,70Z"/><g class="cls-5"><path class="cls-6" d="M145.21,303.65,15.64,62.16a5.66,5.66,0,0,1-.69-3,5.84,5.84,0,0,1,1-3A6.59,6.59,0,0,1,18.47,54a7.43,7.43,0,0,1,3.32-.77H200.63C205.44,53.27,145.21,303.65,145.21,303.65Z"/></g><path class="cls-2" d="M246.89,346.71l.19.43a5.8,5.8,0,0,0,2.42,2.56,6.75,6.75,0,0,0,3.6.84l37.06-1.72A6.77,6.77,0,0,0,293,348a5.88,5.88,0,0,0,2.11-1.94,5.14,5.14,0,0,0,.25-5.26,5.86,5.86,0,0,0-2.38-2.38,6.73,6.73,0,0,0-3.43-.8L252.31,339a6.69,6.69,0,0,0-2.82.75,5.92,5.92,0,0,0-2.12,1.84,5.18,5.18,0,0,0-.94,2.53A5,5,0,0,0,246.89,346.71Z"/><g class="cls-7"><path class="cls-8" d="M225.39,206.38l-25.77,28.71,102.49,94,30-1.27-90-82.23Z"/></g><g class="cls-9"><g class="cls-10"><path class="cls-11" d="M421,169,196,.27,69.81,138.09l225,168.72Z"/><g class="cls-12"><path class="cls-11" d="M421,169,196,.27,69.81,138.09l225,168.72Z"/></g><g class="cls-13"><path class="cls-14" d="M248.48,150.16,78.19,138.69l215.55,165.1Z"/></g><path class="cls-15" d="M245.34,153.59,69.74,138.13l225,168.74Z"/><g class="cls-13"><path class="cls-14" d="M211.85,168,176.23,42.66c-1.3-4.59-1.5-11.31,1.16-15.39l15.69-21,222.73,167-18.62,15.22c-3.93,3.16-12.46,6.92-17.73,6.56L236,186a28.47,28.47,0,0,1-15.24-5.52A24.27,24.27,0,0,1,211.85,168Z"/></g><path class="cls-15" d="M216.3,163.2,179.15,36.73a16.21,16.21,0,0,1-.48-7,16.79,16.79,0,0,1,2.52-6.62L196,.32,421,169.06l-21.9,17.39a20.36,20.36,0,0,1-6.74,3.51,21.61,21.61,0,0,1-7.72.87L240.33,181.2a28.53,28.53,0,0,1-15.19-5.52A24.23,24.23,0,0,1,216.3,163.2Z"/></g></g><path class="cls-16" d="M360.46,152c20.3,0,36.76-14.89,36.76-33.26s-16.46-33.27-36.76-33.27-36.76,14.89-36.76,33.27S340.16,152,360.46,152Z"/><path class="cls-1" d="M379.48,131.31l-2.62-3.42a11.44,11.44,0,0,1-2.47-7.1v-7.68a11.89,11.89,0,0,0-3.35-8.18,14.29,14.29,0,0,0-8.42-4.22V97a1.63,1.63,0,0,0-.55-1.2,2,2,0,0,0-1.32-.49,2,2,0,0,0-1.32.5,1.62,1.62,0,0,0-.54,1.19v3.55a14.42,14.42,0,0,0-8.82,4.18,11.84,11.84,0,0,0-3.45,8.45v8a11.49,11.49,0,0,1-2.88,7.55l-2.3,2.65Z"/><path class="cls-1" d="M358.46,136.9a6.6,6.6,0,0,0,3.27.32,6.43,6.43,0,0,0,3-1.29,5.29,5.29,0,0,0,1.57-2.18l-11.08-.07a5.28,5.28,0,0,0,1.27,1.92A5.9,5.9,0,0,0,358.46,136.9Z"/></svg>