<svg width="158" height="144" viewBox="0 0 158 144" fill="none" xmlns="http://www.w3.org/2000/svg">
<path d="M128.678 140.645L69.6818 143.315C66.9 143.442 64.1386 142.822 61.7448 141.533C59.3511 140.244 57.4317 138.344 56.2279 136.07L1.20575 31.5298C-0.776344 27.7906 -0.345454 23.9643 2.72654 20.1242L2.99015 19.6975L139.587 133.735C137.22 137.598 133.575 140.424 128.678 140.645Z" fill="#0B283E"/>
<path d="M138.579 134.162L68.1154 137.373C67.1572 137.417 66.2059 137.205 65.3801 136.763C64.5544 136.32 63.8907 135.668 63.4719 134.887L2.95975 22.1107C2.76263 21.7453 2.67159 21.3404 2.69518 20.9343C2.71877 20.5282 2.85622 20.1343 3.09459 19.7895C3.33296 19.4448 3.66436 19.1607 4.05761 18.964C4.45086 18.7673 4.89301 18.6645 5.34233 18.6652H74.6497C75.5638 18.6645 76.4597 18.8959 77.2357 19.3331C78.0118 19.7702 78.6368 20.3955 79.0398 21.1381L139.572 132.625C139.661 132.783 139.704 132.958 139.698 133.135C139.692 133.312 139.637 133.485 139.538 133.638C139.439 133.791 139.3 133.919 139.132 134.011C138.964 134.102 138.774 134.154 138.579 134.162Z" fill="#0F3552"/>
<path d="M7.70972 25.1525C7.65337 25.05 7.62703 24.936 7.63321 24.8216C7.63938 24.7072 7.67787 24.5961 7.74499 24.499C7.81212 24.4019 7.90561 24.322 8.01659 24.2669C8.12757 24.2119 8.25231 24.1835 8.37887 24.1845H75.8005C76.3576 24.186 76.9032 24.328 77.376 24.5947C77.8488 24.8613 78.2301 25.242 78.4771 25.6939L132.095 124.963L63.1019 127.138C58.4787 118.829 7.70972 25.1525 7.70972 25.1525Z" fill="#92CCBE"/>
<g style="mix-blend-mode:screen" opacity="0.27">
<path d="M53.1711 115.695L2.95975 22.1107C2.76263 21.7453 2.67159 21.3404 2.69518 20.9343C2.71877 20.5282 2.85622 20.1343 3.09459 19.7895C3.33296 19.4448 3.66436 19.1607 4.05761 18.964C4.45086 18.7673 4.89301 18.6645 5.34233 18.6652H74.6497C76.5152 18.6652 53.1711 115.695 53.1711 115.695Z" fill="#B5EEDD"/>
</g>
<path d="M92.5747 132.382L92.6507 132.547C92.8428 132.957 93.1697 133.303 93.5869 133.538C94.0042 133.774 94.4915 133.888 94.9826 133.864L109.344 133.198C109.737 133.179 110.119 133.072 110.456 132.888C110.793 132.703 111.074 132.446 111.275 132.139C111.475 131.832 111.589 131.485 111.606 131.129C111.623 130.773 111.542 130.418 111.372 130.097C111.171 129.715 110.85 129.395 110.45 129.176C110.05 128.958 109.588 128.85 109.121 128.867L94.6784 129.377C94.293 129.392 93.9175 129.492 93.5837 129.667C93.25 129.843 92.9679 130.088 92.7614 130.383C92.5549 130.678 92.4301 131.014 92.3976 131.362C92.3651 131.71 92.4258 132.059 92.5747 132.382Z" fill="#0B283E"/>
<g style="mix-blend-mode:multiply" opacity="0.56">
<path d="M84.2459 78.001L74.2594 89.1266L113.977 125.531L125.586 125.041L90.689 93.1731L84.2459 78.001Z" fill="#52A4E2"/>
</g>
<mask id="mask0_379_3250" style="mask-type:luminance" maskUnits="userSpaceOnUse" x="33" y="-1" width="126" height="121">
<path d="M33.8521 7.25066L84.7934 110.479C84.7934 110.479 105.563 133.045 133.5 108.5C166.5 91 174.879 14.1122 108 1.49999C75.303 -4.68913 33.8521 7.25066 33.8521 7.25066Z" fill="white"/>
</mask>
<g mask="url(#mask0_379_3250)">
<mask id="mask1_379_3250" style="mask-type:luminance" maskUnits="userSpaceOnUse" x="26" y="0" width="132" height="115">
<path d="M106.414 113.411L28.6408 55.0843C28.0209 54.6209 27.5081 54.0514 27.1317 53.4083C26.7554 52.7653 26.5229 52.0614 26.4476 51.3369C26.3722 50.6124 26.4555 49.8816 26.6927 49.1863C26.9299 48.491 27.3162 47.8448 27.8297 47.2849L68.9214 2.40111C69.4342 1.84093 70.064 1.37767 70.7747 1.03781C71.4853 0.697958 72.2631 0.48817 73.0634 0.420426C73.8637 0.352683 74.6709 0.428311 75.4389 0.642997C76.2068 0.857684 76.9206 1.20722 77.5393 1.67163L155.317 59.998C155.936 60.4621 156.448 61.0321 156.824 61.6753C157.199 62.3185 157.431 63.0223 157.506 63.7466C157.581 64.4709 157.497 65.2015 157.26 65.8965C157.023 66.5916 156.637 67.2376 156.124 67.7975L115.032 112.677C114.52 113.238 113.89 113.702 113.18 114.042C112.469 114.383 111.692 114.593 110.891 114.662C110.091 114.73 109.283 114.654 108.515 114.44C107.747 114.225 107.033 113.875 106.414 113.411Z" fill="white"/>
</mask>
<g mask="url(#mask1_379_3250)">
<path d="M160.049 63.5081L72.8445 -1.87573L23.9526 51.5359L111.157 116.92L160.049 63.5081Z" fill="#FECD29"/>
<g style="mix-blend-mode:multiply" opacity="0.3">
<path d="M160.049 63.5081L72.8445 -1.87573L23.9526 51.5359L111.157 116.92L160.049 63.5081Z" fill="#FECD29"/>
</g>
<g style="mix-blend-mode:multiply" opacity="0.59">
<path d="M93.1932 56.213L27.201 51.7673L110.733 115.75L93.1932 56.213Z" fill="#FECD29"/>
</g>
<path d="M91.9766 57.5434L23.9264 51.5516L111.123 116.943L91.9766 57.5434Z" fill="#FECD29"/>
<g style="mix-blend-mode:multiply" opacity="0.59">
<path d="M78.9993 63.1223L65.1956 14.5544C64.6886 12.7743 64.6126 10.1683 65.6417 8.59009L71.7248 0.455688L158.04 65.1868L150.821 71.0869C149.3 72.3119 145.995 73.7663 143.952 73.6286L88.3369 70.1143C86.1693 69.9752 84.104 69.2265 82.4298 67.9728C80.7555 66.7192 79.5561 65.0232 78.9993 63.1223Z" fill="#FECD29"/>
</g>
<path d="M80.7228 61.2643L66.3259 12.256C66.067 11.3728 66.0036 10.452 66.1393 9.54651C66.2751 8.64104 66.6072 7.76878 67.1168 6.97991L72.84 -1.85645L160.032 63.5353L151.546 70.275C150.785 70.8819 149.897 71.3447 148.935 71.6362C147.973 71.9277 146.956 72.0421 145.944 71.9725L90.0351 68.2426C87.8739 68.0998 85.8157 67.351 84.1467 66.1004C82.4777 64.8497 81.2809 63.1593 80.7228 61.2643Z" fill="#FECD29"/>
</g>
</g>
<path d="M139.689 56.9191C147.556 56.9191 153.934 51.1472 153.934 44.0272C153.934 36.9072 147.556 31.1353 139.689 31.1353C131.822 31.1353 125.444 36.9072 125.444 44.0272C125.444 51.1472 131.822 56.9191 139.689 56.9191Z" fill="#F88F6D"/>
<path d="M147.06 48.9087L146.046 47.5828C145.418 46.7778 145.083 45.8155 145.088 44.8301V41.8525C145.088 40.6904 144.627 39.5667 143.79 38.6854C142.953 37.8041 141.795 37.2235 140.525 37.049V35.6268C140.525 35.4528 140.449 35.2859 140.313 35.1629C140.177 35.0398 139.993 34.9707 139.8 34.9707C139.609 34.9719 139.426 35.0416 139.291 35.1645C139.156 35.2874 139.08 35.4536 139.08 35.6268V37.0031C137.758 37.1406 136.54 37.7176 135.661 38.6221C134.783 39.5266 134.307 40.6942 134.325 41.8984V44.9815C134.325 46.0424 133.932 47.0727 133.21 47.9085L132.318 48.9362L147.06 48.9087Z" fill="white"/>
<path d="M138.913 51.0743C139.314 51.2202 139.752 51.2623 140.179 51.1959C140.605 51.1295 141.002 50.9571 141.326 50.6981C141.604 50.4674 141.813 50.1771 141.934 49.8539L137.641 49.8264C137.746 50.1026 137.914 50.356 138.133 50.5707C138.352 50.7855 138.617 50.9569 138.913 51.0743Z" fill="white"/>
</svg>
