<svg width="336" height="379" viewBox="0 0 336 379" fill="none" xmlns="http://www.w3.org/2000/svg">
<g clip-path="url(#clip0_167_12139)">
<path d="M119.065 331.323C173.122 331.323 216.944 310.727 216.944 285.32C216.944 259.913 173.122 239.317 119.065 239.317C65.0076 239.317 21.1856 259.913 21.1856 285.32C21.1856 310.727 65.0076 331.323 119.065 331.323Z" fill="#BCE3E6"/>
<g opacity="0.5">
<path d="M119.273 194.898C53.5062 194.898 0.208557 169.852 0.208557 138.95V264.179C0.208557 295.081 53.5062 320.126 119.273 320.126C185.041 320.126 238.338 295.081 238.338 264.179V138.95C238.13 169.852 184.832 194.898 119.273 194.898Z" fill="white"/>
</g>
<g opacity="0.7">
<path d="M119.273 83.0018C53.5062 83.0018 0.208557 108.048 0.208557 138.95C0.208557 169.852 53.2977 194.897 119.273 194.897C185.249 194.897 238.338 169.852 238.338 138.95C238.338 108.048 184.832 83.0018 119.273 83.0018Z" fill="white"/>
</g>
<path d="M119.273 158.323C65.7672 158.323 22.3534 137.918 22.3534 112.799V122.928C22.3534 148.084 65.7672 168.489 119.273 168.489C172.78 168.489 216.235 148.084 216.235 122.928V112.799C216.027 137.918 172.613 158.323 119.273 158.323Z" fill="#B5D7D5"/>
<path d="M119.273 67.2377C65.7672 67.2377 22.3534 87.6426 22.3534 112.799C22.3534 137.955 65.5587 158.323 119.273 158.323C172.988 158.323 216.027 137.918 216.027 112.799C216.027 87.6794 172.613 67.2377 119.273 67.2377ZM118.94 153.019C70.438 153.019 31.3613 135.009 31.3613 112.799C31.3613 90.5892 70.6465 72.5415 118.94 72.5415C167.233 72.5415 206.768 90.5523 206.768 112.799C206.768 135.045 167.233 153.019 118.731 153.019H118.94Z" fill="white"/>
<g opacity="0.7">
<path d="M118.731 72.5414C70.2295 72.5414 31.1528 90.5523 31.1528 112.799C31.1528 135.045 70.438 153.019 118.731 153.019C167.024 153.019 206.56 135.009 206.56 112.799C206.56 90.5891 167.233 72.5414 118.731 72.5414Z" fill="white"/>
</g>
<path d="M118.731 153.019C162.937 153.019 199.47 138.066 205.601 118.581C199.512 99.2447 163.188 84.4014 119.315 84.4014C74.0663 84.4014 36.9081 100.165 32.5292 120.349C40.2444 138.95 75.9012 153.019 118.731 153.019Z" fill="#B5D7D5"/>
<path d="M37.7422 154.53C34.8349 152.526 32.0507 150.387 29.4014 148.121C27.1911 146.058 22.979 142.265 21.0606 139.944C18.6001 136.998 14.3046 135.708 11.9275 143.296C11.317 147.761 12.1257 152.289 14.2629 156.371C17.2355 161.197 22.1217 164.883 27.9834 166.721C32.1538 167.826 37.9924 168.378 41.0785 164.806C44.1646 161.233 41.2037 157.108 37.7422 154.53Z" fill="white"/>
<path d="M26.3569 212.172C26.3569 207.236 26.3569 192.798 26.1484 189.557C25.9399 186.316 21.1022 183.848 17.8076 183.848C14.513 183.848 14.8466 186.979 14.6381 188.931C13.2618 203.111 15.5556 264.805 17.3072 269.961C18.7668 274.086 26.4404 278.212 26.4404 271.766C26.3987 269.04 26.2735 231.251 26.3569 212.172Z" fill="white"/>
<path d="M90.0806 255.376C76.2013 250.464 60.7129 250.464 46.8336 255.376H34.5726V267.604C34.5726 276.407 49.7529 283.552 68.4362 283.552C87.1196 283.552 102.342 276.407 102.342 267.604V255.376H90.0806Z" fill="#FFD31A"/>
<g opacity="0.5">
<path d="M94.7097 255.376H90.0806C89.4551 255.118 88.7462 254.934 88.0789 254.713V280.495C90.3582 279.747 92.5394 278.784 94.5847 277.622L94.7097 255.376Z" fill="#FFB133"/>
</g>
<path opacity="0.7" d="M47.0003 255.339H41.4121V277.069C43.1617 278.159 45.0344 279.084 47.0003 279.832V255.339Z" fill="#FFEC9C"/>
<path d="M68.5615 239.427C49.8781 239.427 34.6976 246.573 34.6976 255.376C34.6976 264.178 49.8781 271.287 68.5615 271.287C87.2449 271.287 102.467 264.142 102.467 255.376C102.467 246.61 87.2866 239.427 68.5615 239.427Z" fill="#FFE161"/>
<path d="M68.5615 242.816C53.0893 242.816 40.5363 248.414 40.5363 255.376C40.5363 262.337 53.0476 267.898 68.5615 267.898C84.0754 267.898 96.6282 262.3 96.6282 255.376C96.6282 248.451 84.0754 242.816 68.5615 242.816Z" fill="#FFB133"/>
<path d="M68.5614 243.774C83.7 243.774 95.9608 249.151 96.5446 255.855C96.5446 255.855 96.5446 255.523 96.5446 255.376C96.5446 248.451 84.0336 242.853 68.5197 242.853C53.0058 242.853 40.4527 248.451 40.4527 255.376C40.4328 255.535 40.4328 255.695 40.4527 255.855C41.12 249.151 53.4229 243.774 68.5614 243.774Z" fill="#FFB133"/>
<path d="M68.5614 267.935C84.0162 267.935 96.5448 262.526 96.5448 255.854C96.5448 249.182 84.0162 243.773 68.5614 243.773C53.1066 243.773 40.578 249.182 40.578 255.854C40.578 262.526 53.1066 267.935 68.5614 267.935Z" fill="#FFD833"/>
<g opacity="0.5">
<path d="M68.5614 267.935C84.0162 267.935 96.5448 262.526 96.5448 255.854C96.5448 249.182 84.0162 243.773 68.5614 243.773C53.1066 243.773 40.578 249.182 40.578 255.854C40.578 262.526 53.1066 267.935 68.5614 267.935Z" fill="#FFB133"/>
</g>
<path d="M77.1107 253.571C75.7297 253.373 74.3214 253.373 72.9403 253.571C71.526 253.801 70.1322 254.121 68.7699 254.529H68.5615H68.2278C66.9349 254.934 65.8506 255.228 65.0165 255.412C64.1592 255.523 63.2882 255.523 62.4309 255.412C61.4748 255.33 60.55 255.066 59.72 254.639C58.4411 253.976 57.8157 253.313 57.8435 252.65C57.8435 251.95 58.5525 251.25 59.9287 250.551C60.7506 250.144 61.6359 249.846 62.5561 249.667C63.7341 249.424 64.9344 249.276 66.1426 249.225L65.0165 246.683C63.8683 246.757 62.7262 246.892 61.5967 247.088C60.6144 247.222 59.6501 247.444 58.7191 247.751C58.3331 247.876 57.9571 248.024 57.5933 248.193L54.507 246.646L51.3377 248.267L54.4655 249.851C53.9036 250.24 53.4235 250.714 53.0475 251.25C52.7737 251.637 52.6285 252.084 52.6285 252.54C52.6285 252.995 52.7737 253.442 53.0475 253.829C53.9444 254.959 55.1493 255.871 56.5507 256.481C58.0918 257.323 59.807 257.886 61.5967 258.138C62.9778 258.337 64.3861 258.337 65.7671 258.138C67.2528 257.81 68.715 257.404 70.146 256.923H70.3547C71.2666 256.623 72.2 256.377 73.1488 256.186C73.9781 256.075 74.8216 256.075 75.651 256.186C76.5648 256.28 77.4458 256.544 78.2366 256.959C79.6128 257.659 80.2385 258.359 80.1968 259.059C80.1551 259.759 79.3627 260.495 77.8614 261.232C76.7133 261.809 75.4553 262.196 74.1497 262.374C72.544 262.56 70.9178 262.56 69.3121 262.374L70.146 264.989C71.5343 265.077 72.928 265.077 74.3164 264.989C75.6047 264.889 76.8772 264.666 78.1116 264.326L79.8631 263.884H80.1133L82.9909 265.357L86.1604 263.737L83.1161 262.153C83.7886 261.734 84.3681 261.21 84.8259 260.606C85.0996 260.219 85.2449 259.773 85.2449 259.317C85.2449 258.861 85.0996 258.414 84.8259 258.028C83.9779 256.91 82.8132 256.009 81.4479 255.412C80.1286 254.589 78.6627 253.967 77.1107 253.571Z" fill="#FFE161"/>
<path d="M88.0372 232.503C74.1579 227.591 58.6694 227.591 44.7902 232.503H32.5292V244.768C32.5292 253.534 47.6677 260.679 66.3928 260.679C85.1179 260.679 100.298 253.534 100.298 244.768V232.503H88.0372Z" fill="#FFD31A"/>
<g opacity="0.5">
<path d="M92.5413 232.503H88.0372C87.4116 232.245 86.7027 232.061 86.0355 231.84V257.622C88.3086 256.847 90.4881 255.872 92.5413 254.713V232.503Z" fill="#FFB133"/>
</g>
<path opacity="0.7" d="M44.8319 232.466H39.2434V254.197C40.993 255.286 42.8659 256.212 44.8319 256.959V232.466Z" fill="#FFEC9C"/>
<path d="M66.3928 216.739C47.6677 216.739 32.5292 223.847 32.5292 232.65C32.5292 241.453 47.6677 248.562 66.3928 248.562C85.1179 248.562 100.298 241.453 100.298 232.65C100.298 223.847 85.1179 216.739 66.3928 216.739Z" fill="#FFE161"/>
<path d="M66.3928 219.943C50.9206 219.943 38.3676 225.578 38.3676 232.503C38.3676 239.427 50.8789 245.026 66.3928 245.026C81.9067 245.026 94.4595 239.427 94.4595 232.503C94.4595 225.578 81.7398 219.943 66.3928 219.943Z" fill="#FFB133"/>
<path d="M66.3928 220.938C81.4897 220.938 93.7924 226.278 94.3763 232.982C94.3763 232.982 94.3763 232.687 94.3763 232.503C94.3763 225.579 81.865 219.98 66.3511 219.98C50.8372 219.98 38.2844 225.579 38.2844 232.503C38.2612 232.662 38.2612 232.823 38.2844 232.982C38.9516 226.278 51.2543 220.938 66.3928 220.938Z" fill="#FFB133"/>
<path d="M66.3928 245.063C81.4896 245.063 93.7924 239.685 94.3762 232.982C93.7924 226.278 81.4896 220.938 66.3928 220.938C51.2959 220.938 38.9515 226.278 38.4093 232.982C38.9515 239.685 51.2542 245.063 66.3928 245.063Z" fill="#FFD833"/>
<g opacity="0.5">
<path d="M66.3928 245.063C81.4896 245.063 93.7924 239.685 94.3762 232.982C93.7924 226.278 81.4896 220.938 66.3928 220.938C51.2959 220.938 38.9515 226.278 38.4093 232.982C38.9515 239.685 51.2542 245.063 66.3928 245.063Z" fill="#FFB133"/>
</g>
<path d="M74.9421 230.698C73.561 230.5 72.1528 230.5 70.7717 230.698C69.3512 230.921 67.9556 231.254 66.6013 231.693L63.39 232.54C62.5343 232.669 61.66 232.669 60.8044 232.54C59.8483 232.457 58.9238 232.193 58.0937 231.766C56.8009 231.103 56.1753 230.404 56.217 229.741C56.2587 229.078 56.926 228.378 58.3022 227.678C59.1241 227.271 60.0094 226.973 60.9296 226.794C62.106 226.538 63.3065 226.377 64.5161 226.315L62.5561 224.105C61.4088 224.167 60.2668 224.29 59.1363 224.474C58.1625 224.642 57.2015 224.863 56.2588 225.137L55.0909 225.615L52.0466 224.032L48.8771 225.652L52.0049 227.236C51.452 227.634 50.9737 228.106 50.5871 228.636C50.323 229.032 50.1836 229.483 50.1836 229.943C50.1836 230.403 50.323 230.854 50.5871 231.251C51.5272 232.35 52.7397 233.244 54.1318 233.866C55.6729 234.708 57.3883 235.271 59.1781 235.523C60.5574 235.74 61.9692 235.74 63.3485 235.523C64.8324 235.19 66.2943 234.784 67.7274 234.308H68.1025C69.0216 233.98 69.9702 233.721 70.9384 233.534C71.7677 233.423 72.6114 233.423 73.4408 233.534C74.3546 233.629 75.2356 233.892 76.0264 234.308C77.4026 235.008 78.0281 235.707 77.9864 236.407C77.9447 237.107 77.1523 237.844 75.651 238.617C74.5003 239.182 73.2426 239.557 71.9395 239.722C70.3326 239.891 68.7086 239.891 67.1017 239.722L67.9358 242.337C69.3241 242.426 70.7179 242.426 72.1062 242.337C73.3902 242.231 74.6605 242.022 75.9012 241.711L77.6529 241.232H77.8614L80.7807 242.705L83.9503 241.085L80.9057 239.538C81.5716 239.098 82.1496 238.562 82.6157 237.954C82.8895 237.568 83.0344 237.121 83.0344 236.665C83.0344 236.209 82.8895 235.762 82.6157 235.376C81.7637 234.271 80.5991 233.382 79.2377 232.798C77.9309 231.915 76.4833 231.207 74.9421 230.698Z" fill="#FFE161"/>
<path d="M138.874 283.81C124.984 278.947 109.517 278.947 95.6273 283.81H83.3663V296.075C83.3663 304.878 98.5466 311.986 117.272 311.986C135.997 311.986 151.135 304.878 151.135 296.075V283.81H138.874Z" fill="#FFD31A"/>
<g opacity="0.5">
<path d="M143.42 283.81H138.874C138.249 283.589 137.54 283.405 136.872 283.147V308.929C139.161 308.173 141.355 307.211 143.42 306.056V283.81Z" fill="#FFB133"/>
</g>
<path opacity="0.7" d="M95.6691 283.81H90.0806V305.578C91.8399 306.653 93.7112 307.578 95.6691 308.34V283.81Z" fill="#FFEC9C"/>
<path d="M117.272 267.898C98.5466 267.898 83.3663 275.044 83.3663 283.81C83.3663 292.576 98.5466 299.758 117.272 299.758C135.997 299.758 151.135 292.613 151.135 283.81C151.135 275.007 135.955 267.898 117.272 267.898Z" fill="#FFE161"/>
<path d="M117.272 271.287C101.758 271.287 89.2047 276.886 89.2047 283.81C89.2047 290.734 101.716 296.37 117.272 296.37C132.827 296.37 145.297 290.734 145.297 283.81C145.297 276.886 132.744 271.287 117.272 271.287Z" fill="#FFB133"/>
<path d="M117.23 272.245C132.369 272.245 144.671 277.622 145.213 284.326C145.233 284.166 145.233 284.006 145.213 283.847C145.213 276.922 132.702 271.287 117.146 271.287C101.591 271.287 89.1215 276.922 89.1215 283.847C89.1215 283.847 89.1215 284.178 89.1215 284.326C89.8305 277.622 102.091 272.245 117.23 272.245Z" fill="#FFB133"/>
<path d="M117.23 296.406C132.368 296.406 144.671 291.029 145.213 284.326C144.671 277.622 132.368 272.245 117.23 272.245C102.091 272.245 89.8303 277.622 89.2465 284.326C89.8303 291.029 102.091 296.406 117.23 296.406Z" fill="#FFD833"/>
<g opacity="0.5">
<path d="M117.23 296.406C132.368 296.406 144.671 291.029 145.213 284.326C144.671 277.622 132.368 272.245 117.23 272.245C102.091 272.245 89.8303 277.622 89.2465 284.326C89.8303 291.029 102.091 296.406 117.23 296.406Z" fill="#FFB133"/>
</g>
<path d="M125.821 282.042C124.442 281.827 123.03 281.827 121.651 282.042C120.236 282.27 118.842 282.59 117.48 283H117.272C115.937 283.405 114.895 283.7 114.06 283.884C113.189 283.996 112.304 283.996 111.433 283.884C110.478 283.796 109.555 283.532 108.722 283.11C107.429 282.447 106.762 281.784 106.804 281.084C106.846 280.385 107.555 279.722 108.931 279.022C109.741 278.621 110.612 278.323 111.517 278.138C112.695 277.899 113.895 277.751 115.103 277.696L113.977 275.155C112.768 275.155 111.642 275.376 110.599 275.523C109.607 275.69 108.631 275.924 107.68 276.223C107.294 276.348 106.918 276.495 106.554 276.665L103.509 275.118L100.34 276.738L103.426 278.322C102.865 278.701 102.396 279.178 102.05 279.722C101.766 280.105 101.615 280.553 101.615 281.011C101.615 281.469 101.766 281.917 102.05 282.3C102.975 283.421 104.19 284.33 105.594 284.952C107.151 285.794 108.88 286.357 110.682 286.609C112.061 286.831 113.474 286.831 114.853 286.609C116.274 286.309 117.668 285.915 119.023 285.431H119.232C120.144 285.131 121.077 284.885 122.026 284.694C122.854 284.566 123.7 284.566 124.528 284.694C125.436 284.812 126.312 285.074 127.114 285.467C128.448 286.13 129.116 286.83 129.032 287.567C128.949 288.304 128.198 289.003 126.738 289.74C125.578 290.315 124.304 290.69 122.985 290.845C121.38 291.033 119.753 291.033 118.147 290.845L119.023 293.46C120.412 293.548 121.805 293.548 123.194 293.46C124.468 293.36 125.727 293.138 126.947 292.797L128.74 292.318L131.659 293.828L134.829 292.208L131.743 290.624C132.415 290.205 132.995 289.681 133.453 289.077C133.74 288.688 133.893 288.234 133.893 287.769C133.893 287.305 133.74 286.851 133.453 286.462C132.596 285.375 131.45 284.489 130.116 283.884C128.811 283.062 127.36 282.439 125.821 282.042Z" fill="#FFE161"/>
<path d="M139.208 255.265C136.196 249.277 131.824 243.9 126.363 239.464C121.063 234.882 114.743 231.32 107.805 229.004L98.88 221.638L89.3716 230.514C82.5322 236.923 87.9954 251.287 101.591 262.668C115.186 274.049 131.743 278.064 138.582 271.692L148.132 262.779L139.208 255.265Z" fill="#FFD833"/>
<g opacity="0.5">
<path d="M142.503 257.991L139.208 255.265C138.922 254.686 138.602 254.12 138.249 253.571L118.106 272.355C120.36 273.195 122.709 273.825 125.112 274.234L142.503 257.991Z" fill="#FFB133"/>
</g>
<path opacity="0.7" d="M107.847 229.004L103.676 225.615L86.9946 241.416C87.4085 243.277 88.0517 245.093 88.9128 246.83L107.847 229.004Z" fill="#FFEC9C"/>
<path d="M135.955 230.551C122.36 219.207 105.761 215.155 98.9219 221.564C92.0824 227.973 97.504 242.521 110.933 253.571C124.361 264.62 141.126 268.967 147.966 262.595C154.805 256.223 149.509 241.932 135.955 230.551Z" fill="#FFE161"/>
<path d="M133.286 233.019C122.026 223.626 108.555 220.054 103.134 225.1C97.7123 230.146 102.508 241.822 113.727 251.251C124.945 260.68 138.499 264.179 143.879 259.169C149.259 254.16 144.504 242.521 133.286 233.019Z" fill="#FFB133"/>
<path d="M132.494 233.718C143.462 242.89 148.258 254.271 143.42 259.501L143.837 259.206C149.217 254.16 144.504 242.448 133.244 233.055C121.984 223.663 108.514 220.127 103.092 225.136L102.759 225.505C108.389 220.938 121.525 224.51 132.494 233.718Z" fill="#FFB133"/>
<path d="M113.727 251.251C124.695 260.422 137.79 263.994 143.42 259.464C148.257 254.271 143.42 242.89 132.493 233.682C121.567 224.474 108.388 220.901 102.758 225.431C97.9625 230.698 102.592 242.043 113.727 251.251Z" fill="#FFD833"/>
<g opacity="0.5">
<path d="M113.727 251.251C124.695 260.422 137.79 263.994 143.42 259.464C148.257 254.271 143.42 242.89 132.493 233.682C121.567 224.474 108.388 220.901 102.758 225.431C97.9625 230.698 102.592 242.043 113.727 251.251Z" fill="#FFB133"/>
</g>
<path d="M131.118 246.204C130.265 245.197 129.237 244.314 128.073 243.589C126.843 242.898 125.561 242.283 124.236 241.748L121.233 240.422C120.471 240.041 119.782 239.556 119.19 238.985C118.568 238.344 118.112 237.589 117.855 236.775C117.438 235.486 117.522 234.602 117.855 234.123C118.189 233.645 119.44 233.571 120.983 233.902C121.891 234.114 122.762 234.436 123.569 234.86C124.622 235.387 125.613 236.004 126.53 236.702L127.698 234.16C126.725 233.497 125.807 232.908 124.945 232.392C124.096 231.922 123.219 231.492 122.318 231.103L121.108 230.772L120.108 227.788L116.563 227.015L117.564 230.072C116.873 229.971 116.169 229.971 115.479 230.072C114.978 230.208 114.531 230.467 114.191 230.819C113.851 231.172 113.632 231.602 113.56 232.061C113.348 233.427 113.52 234.819 114.06 236.112C114.523 237.68 115.346 239.147 116.479 240.422C117.286 241.242 118.228 241.949 119.273 242.521C120.623 243.183 122.015 243.774 123.444 244.289H123.652C124.561 244.621 125.44 245.016 126.28 245.468C127 245.841 127.648 246.313 128.198 246.867C128.798 247.489 129.239 248.218 129.491 249.004C129.908 250.33 129.866 251.213 129.241 251.692C128.615 252.171 127.531 252.245 125.863 251.692C124.577 251.396 123.362 250.897 122.276 250.219C120.954 249.406 119.761 248.44 118.731 247.346L117.314 249.777C118.286 250.703 119.346 251.553 120.483 252.318C121.485 253.038 122.577 253.656 123.736 254.16L125.362 254.897H125.613L126.572 257.733L130.158 258.506L129.116 255.486C129.93 255.602 130.761 255.602 131.576 255.486C132.084 255.381 132.548 255.153 132.916 254.828C133.285 254.502 133.543 254.093 133.661 253.644C133.893 252.318 133.735 250.961 133.203 249.703C132.697 248.456 131.995 247.278 131.118 246.204Z" fill="#FFE161"/>
<path d="M195.467 238.838C195.467 223.332 184.79 205.321 171.612 198.618C169.411 197.239 166.837 196.397 164.15 196.177C161.462 195.957 158.757 196.367 156.307 197.365L145.172 202.927L148.299 208.894C147.939 210.755 147.758 212.64 147.757 214.529C147.757 230.035 158.433 248.046 171.612 254.75L172.863 255.339L176.074 261.379C176.074 261.379 187.251 255.854 188.043 255.376C192.589 252.429 195.467 246.683 195.467 238.838Z" fill="#FFD31A"/>
<path opacity="0.7" d="M164.105 196.076L146.381 205.137L148.299 208.82C148.299 209.299 148.299 209.815 148.091 210.293L171.362 198.323C169.118 197.19 166.659 196.429 164.105 196.076Z" fill="#FFEC9C"/>
<g opacity="0.5">
<path d="M195.341 240.79L170.027 253.571C170.569 253.865 171.07 254.197 171.612 254.455L172.863 255.044L174.156 257.438L194.007 247.309C194.753 245.193 195.202 243.003 195.341 240.79Z" fill="#FFB133"/>
</g>
<path d="M184.081 244.4C184.081 259.869 173.405 267.015 160.227 260.311C147.048 253.608 136.414 235.56 136.414 220.054C136.414 204.547 147.09 197.439 160.227 204.142C173.364 210.846 184.081 228.893 184.081 244.4Z" fill="#FFE161"/>
<path d="M180.203 243.221C180.203 256.186 171.278 262.153 160.227 256.554C149.175 250.956 140.125 235.855 140.125 222.853C140.125 209.851 149.05 203.921 160.06 209.557C171.07 215.192 180.203 230.256 180.203 243.221Z" fill="#FFD833"/>
<g opacity="0.5">
<path d="M180.203 243.221C180.203 256.186 171.278 262.153 160.227 256.554C149.175 250.956 140.125 235.855 140.125 222.853C140.125 209.851 149.05 203.921 160.06 209.557C171.07 215.192 180.203 230.256 180.203 243.221Z" fill="#FFB133"/>
</g>
<path d="M161.603 255.707C150.593 250.109 141.668 235.044 141.668 222.043C141.417 219.573 141.792 217.085 142.765 214.76C143.739 212.434 145.288 210.33 147.298 208.599C143.128 210.735 140.292 215.744 140.292 222.853C140.292 235.855 149.217 250.919 160.227 256.554C162.31 257.895 164.822 258.618 167.4 258.618C169.978 258.618 172.49 257.895 174.573 256.554C172.531 257.477 170.241 257.885 167.954 257.736C165.666 257.587 163.469 256.885 161.603 255.707Z" fill="#FFB133"/>
<path d="M168.651 237.88C167.993 236.597 167.106 235.416 166.024 234.381C164.851 233.369 163.596 232.434 162.27 231.582H162.062C160.811 230.772 159.81 230.072 159.101 229.52C158.353 228.94 157.719 228.255 157.224 227.494C156.69 226.658 156.376 225.726 156.307 224.768C156.307 223.258 156.306 222.3 157.224 221.895C158.141 221.49 159.101 221.637 160.727 222.3C161.675 222.709 162.547 223.243 163.313 223.884C164.335 224.676 165.271 225.552 166.107 226.499L168.025 223.958C167.23 223.083 166.381 222.246 165.481 221.453C164.683 220.74 163.818 220.087 162.896 219.501C162.508 219.259 162.104 219.037 161.686 218.838L161.353 215.376L157.641 213.792L157.975 217.475C157.208 217.258 156.401 217.17 155.598 217.218C155.017 217.266 154.462 217.458 153.998 217.77C153.534 218.083 153.178 218.504 152.97 218.986C152.373 220.46 152.201 222.042 152.47 223.59C152.566 225.404 153.077 227.183 153.971 228.82C154.677 230.091 155.638 231.239 156.807 232.208C158.123 233.235 159.517 234.183 160.977 235.044H161.186C162.099 235.587 162.963 236.19 163.771 236.849C164.347 237.443 164.811 238.115 165.148 238.838C165.643 239.633 165.942 240.512 166.024 241.416C166.024 242.963 166.023 243.958 165.064 244.363C164.105 244.768 163.021 244.584 161.269 243.884C159.93 243.285 158.717 242.488 157.683 241.527C156.474 240.336 155.424 239.026 154.555 237.623L152.345 239.98C153.168 241.199 154.102 242.357 155.139 243.442C156.086 244.421 157.133 245.321 158.266 246.131L159.893 247.273H160.143L160.435 250.624L164.189 252.171L163.855 248.488C164.733 248.784 165.668 248.921 166.607 248.893C167.188 248.884 167.754 248.725 168.235 248.438C168.716 248.15 169.092 247.745 169.318 247.273C169.948 245.883 170.149 244.37 169.902 242.89C169.806 241.17 169.383 239.476 168.651 237.88Z" fill="#FFE161"/>
<path d="M178.618 295.486C196.175 295.854 216.819 286.867 224.743 275.412C226.354 273.501 227.365 271.247 227.672 268.88C227.98 266.513 227.574 264.116 226.494 261.932L220.447 251.95L213.65 254.565C211.546 254.208 209.411 254.011 207.269 253.976C189.711 253.608 169.11 262.595 161.186 274.049L160.519 275.154L153.596 277.843C153.596 277.843 159.559 287.825 160.102 288.561C163.146 292.65 169.568 295.301 178.618 295.486Z" fill="#FFD31A"/>
<path opacity="0.7" d="M227.704 268.819L217.862 252.981L213.691 254.565L212.023 254.344L224.91 275.191C226.292 273.244 227.24 271.081 227.704 268.819Z" fill="#FFEC9C"/>
<g opacity="0.5">
<path d="M176.241 295.375L162.228 272.687C161.895 273.165 161.52 273.607 161.186 274.049L160.519 275.154L157.766 276.223L168.734 294.012C171.161 294.746 173.683 295.204 176.241 295.375Z" fill="#FFB133"/>
</g>
<path d="M172.488 285.32C154.93 284.952 147.09 275.375 155.014 263.884C162.937 252.392 183.581 243.442 200.888 243.81C218.195 244.179 226.286 253.755 218.362 265.21C210.438 276.664 190.17 285.688 172.488 285.32Z" fill="#FFE161"/>
<path d="M192.324 278.958C208.032 273.44 217.896 262.592 214.355 254.729C210.814 246.866 195.209 244.966 179.5 250.484C163.791 256.002 153.927 266.85 157.468 274.713C161.01 282.576 176.615 284.476 192.324 278.958Z" fill="#FFD833"/>
<g opacity="0.5">
<path d="M192.324 278.958C208.032 273.44 217.896 262.592 214.355 254.729C210.814 246.866 195.209 244.965 179.5 250.484C163.791 256.002 153.927 266.849 157.468 274.712C161.01 282.576 176.615 284.476 192.324 278.958Z" fill="#FFB133"/>
</g>
<path d="M160.185 265.21C166.774 255.633 184.04 248.083 198.761 248.377C201.555 248.213 204.355 248.593 206.964 249.49C209.573 250.388 211.927 251.781 213.858 253.571C211.523 249.888 205.935 247.236 197.844 247.052C183.164 246.757 165.899 254.418 159.268 263.884C157.691 265.676 156.794 267.861 156.704 270.129C156.614 272.397 157.336 274.632 158.767 276.517C157.847 274.691 157.493 272.681 157.742 270.694C157.991 268.707 158.834 266.814 160.185 265.21Z" fill="#FFB133"/>
<path d="M180.161 271.987C181.681 271.428 183.089 270.657 184.332 269.703C185.507 268.71 186.594 267.639 187.585 266.499C188.33 265.597 189.138 264.736 190.003 263.921C190.653 263.275 191.43 262.738 192.297 262.337C193.249 261.882 194.303 261.618 195.383 261.563C197.093 261.563 198.136 261.784 198.594 262.447C199.053 263.11 198.886 264.142 198.052 265.541C197.572 266.367 196.953 267.125 196.217 267.788C195.297 268.675 194.276 269.477 193.173 270.182L196.009 271.95C197.025 271.26 198 270.522 198.928 269.74C199.747 269.06 200.5 268.321 201.18 267.53C201.472 267.162 201.68 266.83 201.931 266.462H206.101L207.978 263.184L203.807 263.405C204.065 262.73 204.178 262.018 204.141 261.306C204.1 260.794 203.9 260.303 203.561 259.887C203.222 259.47 202.759 259.145 202.223 258.948C200.556 258.412 198.772 258.223 197.01 258.396C194.95 258.447 192.923 258.861 191.046 259.611C189.589 260.199 188.262 261.009 187.126 262.005C185.956 263.173 184.87 264.403 183.873 265.689C183.233 266.477 182.537 267.227 181.788 267.935C181.124 268.539 180.348 269.037 179.494 269.409C178.573 269.822 177.564 270.061 176.533 270.109C174.781 270.109 173.697 269.888 173.238 269.188C172.78 268.488 173.238 267.383 173.864 265.873C174.552 264.697 175.486 263.647 176.616 262.779C177.979 261.703 179.493 260.787 181.12 260.053L178.493 258.064C177.031 258.761 175.637 259.561 174.323 260.459C173.193 261.26 172.159 262.161 171.237 263.147L169.86 264.547V264.768H166.107L164.23 268.046L168.401 267.825C168.083 268.607 167.9 269.426 167.859 270.256C167.875 270.772 168.05 271.275 168.366 271.71C168.682 272.145 169.127 272.496 169.652 272.724C171.221 273.293 172.931 273.496 174.615 273.313C176.538 273.164 178.416 272.715 180.161 271.987Z" fill="#FFE161"/>
<path d="M70.5186 78.0245C70.5186 53.953 87.0923 25.9934 107.55 15.5871C110.965 13.4413 114.961 12.1313 119.133 11.7899C123.306 11.4484 127.507 12.0878 131.31 13.6431L148.595 22.2768L143.74 31.5395C144.299 34.4294 144.581 37.3559 144.581 40.2876C144.581 64.3592 128.008 92.3188 107.55 102.725L105.608 103.64L100.623 112.96C100.623 112.96 83.2726 104.44 82.0425 103.697C74.9858 99.0657 70.5186 90.1461 70.5186 78.0245Z" fill="#FFD31A"/>
<path opacity="0.7" d="M119.203 11.585L146.653 25.6505L143.74 31.3682C143.74 32.1115 143.74 32.912 144.063 33.6553L107.939 15.1299C111.412 13.3406 115.232 12.1385 119.203 11.585Z" fill="#FFEC9C"/>
<g opacity="0.5">
<path d="M70.713 80.9977L110.204 100.895C109.363 101.353 108.586 101.867 107.744 102.268L105.802 103.182L103.795 106.899L72.9787 91.1753C71.7536 87.8777 70.9928 84.4595 70.713 80.9977Z" fill="#FFB133"/>
</g>
<path d="M154.593 78.7566C166.885 53.2446 163.62 27.5915 147.302 21.459C130.983 15.3265 107.79 31.0369 95.4984 56.5489C83.207 82.061 86.4718 107.714 102.79 113.846C119.109 119.979 142.302 104.269 154.593 78.7566Z" fill="#FFE161"/>
<path d="M94.2137 84.7714C94.2137 104.898 108.068 114.16 125.224 105.412C142.38 96.6643 156.17 73.336 156.17 53.1525C156.17 32.969 142.575 23.7635 125.224 32.2829C107.874 40.8022 94.2137 64.5879 94.2137 84.7714Z" fill="#FFD833"/>
<g opacity="0.5">
<path d="M94.2137 84.7714C94.2137 104.898 108.068 114.16 125.224 105.412C142.38 96.6643 156.17 73.336 156.17 53.1525C156.17 32.969 142.575 23.7635 125.224 32.2829C107.874 40.8022 94.2137 64.5879 94.2137 84.7714Z" fill="#FFB133"/>
</g>
<path d="M123.152 104.155C140.244 95.4637 154.098 72.0211 154.098 51.8947C154.498 48.0605 153.92 44.1959 152.408 40.5845C150.896 36.9732 148.487 33.7067 145.358 31.0251C151.832 34.3414 156.235 42.0603 156.235 53.1526C156.235 73.3362 142.38 96.7216 125.289 105.413C122.051 107.486 118.153 108.603 114.153 108.603C110.154 108.603 106.256 107.486 103.018 105.413C106.194 106.816 109.738 107.439 113.28 107.218C116.822 106.997 120.232 105.939 123.152 104.155Z" fill="#FFB133"/>
<path d="M112.147 76.4808C113.168 74.489 114.545 72.655 116.225 71.049C118.031 69.4641 119.98 68.0108 122.052 66.7035C123.994 65.4456 125.548 64.3593 126.648 63.5016C127.772 62.5713 128.752 61.5139 129.562 60.3569C130.361 59.0481 130.846 57.6076 130.986 56.1258C130.986 53.7815 130.986 52.2949 129.562 51.6659C128.137 51.037 126.584 51.2085 124.124 52.2949C122.653 52.9074 121.299 53.7175 120.11 54.6963C118.522 55.9466 117.07 57.3248 115.772 58.8131L112.729 54.8679C114.089 53.4384 115.448 52.1234 116.743 50.9226C118 49.8488 119.341 48.8553 120.757 47.9494C121.359 47.5732 121.986 47.2295 122.634 46.9203L123.088 41.4884L128.914 39.087L129.626 43.7183C130.816 43.3763 132.069 43.2404 133.317 43.3181C134.221 43.3873 135.085 43.682 135.807 44.1679C136.529 44.6538 137.08 45.3108 137.395 46.0626C138.289 48.3575 138.555 50.8066 138.172 53.2097C137.992 56.0231 137.201 58.7797 135.842 61.3289C134.723 63.2905 133.235 65.0694 131.439 66.5892C129.393 68.18 127.23 69.6507 124.965 70.9918H124.641C123.224 71.8337 121.882 72.7703 120.627 73.7935C119.548 74.6726 118.631 75.695 117.908 76.8239C117.161 78.0824 116.72 79.4653 116.614 80.8835C116.614 83.2849 116.613 84.7715 118.102 85.4005C119.592 86.0294 121.275 85.8007 123.994 84.6571C126.08 83.7641 127.949 82.5213 129.497 80.9978C131.445 79.1874 133.101 77.1479 134.417 74.937L137.849 78.6535C136.533 80.5387 135.062 82.3351 133.446 84.0282C132.015 85.5602 130.409 86.9588 128.655 88.2021L126.131 89.9746H125.742L125.289 95.1206L119.462 97.5792L119.98 91.8615C118.618 92.3205 117.165 92.5343 115.707 92.4904C114.802 92.4592 113.924 92.2078 113.17 91.7639C112.416 91.32 111.815 90.7008 111.434 89.9746C110.513 87.8046 110.224 85.465 110.593 83.1705C110.717 80.8832 111.241 78.6265 112.147 76.4808Z" fill="#FFE161"/>
<path d="M217.37 213.708C242.864 210.584 278.633 232.176 303.782 267.578C328.93 302.98 335.054 340.891 320.579 359.712L322.027 361.768L311.546 367.781C286.56 381.541 242.512 359.132 213.2 317.653C183.888 276.173 180.324 231.401 205.332 217.609L215.817 211.811L217.37 213.708Z" fill="#80ACC5"/>
<path d="M314.267 261.78C343.601 303.228 347.143 348.031 322.136 361.823C297.129 375.615 253.123 353.143 223.79 311.695C194.457 270.247 190.93 225.494 215.921 211.652C240.913 197.809 284.955 220.3 314.267 261.78Z" fill="#8FC6CE"/>
<path d="M307.123 265.709C330.643 298.962 333.467 334.851 313.43 345.903C293.393 356.954 258.107 338.969 234.623 305.734C211.139 272.499 208.28 236.592 228.317 225.54C248.353 214.488 283.639 232.474 307.123 265.709Z" fill="#72A9B0"/>
<path d="M299.958 269.67C318.26 295.585 320.484 323.555 304.872 332.184C289.261 340.813 261.761 326.754 243.474 300.888C225.187 275.023 222.948 247.003 238.56 238.374C254.171 229.745 281.635 243.786 299.958 269.67Z" fill="white"/>
<path d="M288.316 311.624L285.793 311.359C283.954 311.103 282.168 310.608 280.493 309.891C278.391 309.067 276.393 308.049 274.534 306.853L274.135 300.1C276.093 301.596 278.305 302.81 280.691 303.697C282.482 304.328 284.465 304.392 286.303 303.878C287.236 303.725 288.095 303.33 288.771 302.742C289.447 302.154 289.909 301.402 290.097 300.581C290.219 298.322 289.52 296.088 288.102 294.205C287.292 292.776 286.189 291.492 284.847 290.42C283.891 289.629 282.742 289.044 281.488 288.708C280.169 288.403 278.809 288.253 277.445 288.263L277.229 288.152L277.012 288.042C274.895 288.051 272.783 287.845 270.719 287.429C268.527 286.862 266.521 285.839 264.868 284.447C262.284 282.183 260.145 279.555 258.541 276.671C256.786 273.899 255.491 270.919 254.696 267.821C254.087 265.785 254.307 263.624 255.318 261.716C255.88 260.874 256.627 260.14 257.513 259.555C258.4 258.97 259.41 258.547 260.483 258.31C261.395 258.133 262.33 258.066 263.262 258.11C264.73 258.201 266.176 258.466 267.563 258.898C269.189 259.372 270.774 259.952 272.302 260.634L273.002 267.37C271.427 266.609 269.744 266.037 267.998 265.67C266.746 265.391 265.435 265.395 264.185 265.683C263.298 265.811 262.481 266.188 261.857 266.758C261.232 267.329 260.833 268.062 260.718 268.849C260.624 271.035 261.299 273.192 262.652 275.023C263.5 276.501 264.667 277.818 266.087 278.901C267.101 279.767 268.342 280.4 269.699 280.742C271.196 280.976 272.709 281.122 274.228 281.179L274.409 281.271L274.626 281.382L274.842 281.492C276.884 281.585 278.904 281.913 280.849 282.47C282.997 283.252 284.941 284.416 286.557 285.89C289.026 288.147 291.093 290.72 292.689 293.524C294.408 296.213 295.659 299.116 296.4 302.135C296.94 304.154 296.629 306.279 295.526 308.111C294.265 309.812 292.318 311.025 290.081 311.503L288.316 311.624ZM253.318 253.509L258.115 252.212L263.003 260.274L258.206 261.572L253.318 253.509ZM286.877 308.892L291.674 307.594L296.87 316.069L292.073 317.367L286.877 308.892Z" fill="#FFD31A"/>
</g>
<defs>
<clipPath id="clip0_167_12139">
<rect width="336" height="379" fill="white"/>
</clipPath>
</defs>
</svg>
