<svg width="358" height="342" viewBox="0 0 358 342" fill="none" xmlns="http://www.w3.org/2000/svg">
<g clip-path="url(#clip0_167_12503)">
<path d="M119.065 321.323C173.122 321.323 216.944 300.727 216.944 275.32C216.944 249.913 173.122 229.317 119.065 229.317C65.0076 229.317 21.1856 249.913 21.1856 275.32C21.1856 300.727 65.0076 321.323 119.065 321.323Z" fill="#BCE3E6"/>
<g opacity="0.5">
<path d="M119.273 184.898C53.5062 184.898 0.208557 159.852 0.208557 128.95V254.179C0.208557 285.081 53.5062 310.126 119.273 310.126C185.041 310.126 238.338 285.081 238.338 254.179V128.95C238.13 159.852 184.832 184.898 119.273 184.898Z" fill="white"/>
</g>
<g opacity="0.7">
<path d="M119.273 73.0018C53.5062 73.0018 0.208557 98.0476 0.208557 128.95C0.208557 159.852 53.2977 184.897 119.273 184.897C185.249 184.897 238.338 159.852 238.338 128.95C238.338 98.0476 184.832 73.0018 119.273 73.0018Z" fill="white"/>
</g>
<path d="M119.273 148.323C65.7672 148.323 22.3534 127.918 22.3534 102.799V112.928C22.3534 138.084 65.7672 158.489 119.273 158.489C172.78 158.489 216.235 138.084 216.235 112.928V102.799C216.027 127.918 172.613 148.323 119.273 148.323Z" fill="#B5D7D5"/>
<path d="M119.273 57.2377C65.7672 57.2377 22.3534 77.6426 22.3534 102.799C22.3534 127.955 65.5587 148.323 119.273 148.323C172.988 148.323 216.027 127.918 216.027 102.799C216.027 77.6795 172.613 57.2377 119.273 57.2377ZM118.94 143.019C70.438 143.019 31.3613 125.009 31.3613 102.799C31.3613 80.5892 70.6465 62.5415 118.94 62.5415C167.233 62.5415 206.768 80.5524 206.768 102.799C206.768 125.045 167.233 143.019 118.731 143.019H118.94Z" fill="white"/>
<g opacity="0.7">
<path d="M118.731 62.5414C70.2295 62.5414 31.1529 80.5523 31.1529 102.799C31.1529 125.045 70.438 143.019 118.731 143.019C167.024 143.019 206.56 125.009 206.56 102.799C206.56 80.5891 167.233 62.5414 118.731 62.5414Z" fill="white"/>
</g>
<path d="M118.731 143.019C162.937 143.019 199.47 128.066 205.601 108.581C199.512 89.2447 163.188 74.4014 119.315 74.4014C74.0663 74.4014 36.9081 90.1655 32.5292 110.349C40.2444 128.95 75.9012 143.019 118.731 143.019Z" fill="#B5D7D5"/>
<path d="M37.7422 144.53C34.8349 142.526 32.0507 140.387 29.4014 138.121C27.1911 136.058 22.979 132.265 21.0606 129.944C18.6001 126.998 14.3046 125.708 11.9275 133.296C11.317 137.761 12.1257 142.289 14.2629 146.371C17.2355 151.197 22.1217 154.883 27.9834 156.721C32.1538 157.826 37.9924 158.378 41.0785 154.806C44.1646 151.233 41.2037 147.108 37.7422 144.53Z" fill="white"/>
<path d="M26.3569 202.172C26.3569 197.236 26.357 182.798 26.1484 179.557C25.9399 176.316 21.1023 173.848 17.8076 173.848C14.513 173.848 14.8466 176.979 14.6381 178.931C13.2619 193.111 15.5556 254.805 17.3072 259.961C18.7668 264.086 26.4404 268.212 26.4404 261.766C26.3987 259.04 26.2735 221.251 26.3569 202.172Z" fill="white"/>
<path d="M90.0806 245.376C76.2013 240.464 60.7129 240.464 46.8336 245.376H34.5726V257.604C34.5726 266.407 49.7529 273.552 68.4362 273.552C87.1196 273.552 102.342 266.407 102.342 257.604V245.376H90.0806Z" fill="#FFD31A"/>
<g opacity="0.5">
<path d="M94.7097 245.376H90.0806C89.4551 245.118 88.7462 244.934 88.0789 244.713V270.495C90.3581 269.747 92.5393 268.784 94.5847 267.622L94.7097 245.376Z" fill="#FFB133"/>
</g>
<path opacity="0.7" d="M47.0003 245.339H41.4121V267.07C43.1617 268.159 45.0344 269.084 47.0003 269.832V245.339Z" fill="#FFEC9C"/>
<path d="M68.5615 229.427C49.8781 229.427 34.6976 236.573 34.6976 245.376C34.6976 254.178 49.8781 261.287 68.5615 261.287C87.2449 261.287 102.467 254.142 102.467 245.376C102.467 236.61 87.2866 229.427 68.5615 229.427Z" fill="#FFE161"/>
<path d="M68.5615 232.816C53.0893 232.816 40.5363 238.414 40.5363 245.376C40.5363 252.337 53.0476 257.898 68.5615 257.898C84.0754 257.898 96.6282 252.3 96.6282 245.376C96.6282 238.451 84.0754 232.816 68.5615 232.816Z" fill="#FFB133"/>
<path d="M68.5614 233.774C83.7 233.774 95.9608 239.151 96.5446 245.854C96.5446 245.854 96.5446 245.523 96.5446 245.376C96.5446 238.451 84.0336 232.853 68.5197 232.853C53.0058 232.853 40.4527 238.451 40.4527 245.376C40.4328 245.535 40.4328 245.695 40.4527 245.854C41.12 239.151 53.4229 233.774 68.5614 233.774Z" fill="#FFB133"/>
<path d="M68.5614 257.935C84.0162 257.935 96.5448 252.526 96.5448 245.854C96.5448 239.182 84.0162 233.773 68.5614 233.773C53.1066 233.773 40.578 239.182 40.578 245.854C40.578 252.526 53.1066 257.935 68.5614 257.935Z" fill="#FFD833"/>
<g opacity="0.5">
<path d="M68.5614 257.935C84.0162 257.935 96.5448 252.526 96.5448 245.854C96.5448 239.182 84.0162 233.773 68.5614 233.773C53.1066 233.773 40.578 239.182 40.578 245.854C40.578 252.526 53.1066 257.935 68.5614 257.935Z" fill="#FFB133"/>
</g>
<path d="M77.1107 243.571C75.7297 243.373 74.3214 243.373 72.9403 243.571C71.526 243.801 70.1322 244.121 68.7699 244.529H68.5615H68.2278C66.9349 244.934 65.8506 245.228 65.0165 245.412C64.1592 245.523 63.2882 245.523 62.4309 245.412C61.4748 245.33 60.55 245.066 59.72 244.639C58.4411 243.976 57.8157 243.313 57.8435 242.65C57.8435 241.95 58.5525 241.25 59.9287 240.551C60.7506 240.144 61.6359 239.846 62.5561 239.667C63.7341 239.424 64.9344 239.276 66.1426 239.225L65.0165 236.683C63.8683 236.757 62.7262 236.892 61.5967 237.088C60.6144 237.222 59.6501 237.444 58.7191 237.751C58.3331 237.876 57.9571 238.024 57.5933 238.193L54.507 236.646L51.3377 238.267L54.4655 239.851C53.9036 240.24 53.4235 240.714 53.0475 241.25C52.7737 241.637 52.6285 242.084 52.6285 242.54C52.6285 242.995 52.7737 243.442 53.0475 243.829C53.9444 244.959 55.1493 245.871 56.5507 246.481C58.0918 247.323 59.807 247.886 61.5967 248.138C62.9778 248.337 64.3861 248.337 65.7671 248.138C67.2528 247.81 68.715 247.404 70.146 246.923H70.3547C71.2666 246.623 72.2 246.377 73.1488 246.186C73.9781 246.075 74.8216 246.075 75.651 246.186C76.5648 246.28 77.4458 246.544 78.2366 246.959C79.6128 247.659 80.2385 248.359 80.1968 249.059C80.1551 249.759 79.3627 250.495 77.8614 251.232C76.7133 251.809 75.4553 252.196 74.1497 252.374C72.544 252.56 70.9178 252.56 69.3121 252.374L70.146 254.989C71.5343 255.077 72.928 255.077 74.3164 254.989C75.6047 254.889 76.8772 254.666 78.1116 254.326L79.8631 253.884H80.1133L82.9909 255.357L86.1604 253.737L83.1161 252.153C83.7886 251.734 84.3681 251.21 84.8259 250.606C85.0996 250.219 85.2449 249.773 85.2449 249.317C85.2449 248.861 85.0996 248.414 84.8259 248.028C83.9779 246.91 82.8132 246.009 81.4479 245.412C80.1286 244.589 78.6627 243.967 77.1107 243.571Z" fill="#FFE161"/>
<path d="M88.0371 222.503C74.1579 217.591 58.6694 217.591 44.7901 222.503H32.5292V234.768C32.5292 243.534 47.6677 250.679 66.3928 250.679C85.1179 250.679 100.298 243.534 100.298 234.768V222.503H88.0371Z" fill="#FFD31A"/>
<g opacity="0.5">
<path d="M92.5413 222.503H88.0372C87.4116 222.245 86.7027 222.061 86.0355 221.84V247.622C88.3086 246.847 90.4881 245.872 92.5413 244.713V222.503Z" fill="#FFB133"/>
</g>
<path opacity="0.7" d="M44.8319 222.466H39.2434V244.197C40.993 245.286 42.8659 246.212 44.8319 246.959V222.466Z" fill="#FFEC9C"/>
<path d="M66.3928 206.739C47.6677 206.739 32.5292 213.847 32.5292 222.65C32.5292 231.453 47.6677 238.562 66.3928 238.562C85.1179 238.562 100.298 231.453 100.298 222.65C100.298 213.847 85.1179 206.739 66.3928 206.739Z" fill="#FFE161"/>
<path d="M66.3928 209.943C50.9206 209.943 38.3676 215.578 38.3676 222.503C38.3676 229.427 50.8789 235.026 66.3928 235.026C81.9067 235.026 94.4595 229.427 94.4595 222.503C94.4595 215.578 81.7398 209.943 66.3928 209.943Z" fill="#FFB133"/>
<path d="M66.3928 210.938C81.4896 210.938 93.7924 216.278 94.3763 222.982C94.3763 222.982 94.3763 222.687 94.3763 222.503C94.3763 215.579 81.8649 209.98 66.3511 209.98C50.8372 209.98 38.2844 215.579 38.2844 222.503C38.2612 222.662 38.2612 222.823 38.2844 222.982C38.9516 216.278 51.2543 210.938 66.3928 210.938Z" fill="#FFB133"/>
<path d="M66.3928 235.063C81.4896 235.063 93.7924 229.685 94.3762 222.982C93.7924 216.278 81.4896 210.938 66.3928 210.938C51.2959 210.938 38.9515 216.278 38.4093 222.982C38.9515 229.685 51.2542 235.063 66.3928 235.063Z" fill="#FFD833"/>
<g opacity="0.5">
<path d="M66.3928 235.063C81.4896 235.063 93.7924 229.685 94.3762 222.982C93.7924 216.278 81.4896 210.938 66.3928 210.938C51.2959 210.938 38.9515 216.278 38.4093 222.982C38.9515 229.685 51.2542 235.063 66.3928 235.063Z" fill="#FFB133"/>
</g>
<path d="M74.942 220.698C73.5609 220.5 72.1527 220.5 70.7716 220.698C69.3511 220.921 67.9556 221.254 66.6012 221.693L63.3899 222.54C62.5343 222.669 61.66 222.669 60.8043 222.54C59.8482 222.457 58.9237 222.194 58.0937 221.766C56.8009 221.103 56.1753 220.404 56.217 219.741C56.2587 219.078 56.926 218.378 58.3022 217.678C59.1241 217.271 60.0094 216.973 60.9296 216.794C62.1059 216.538 63.3064 216.377 64.516 216.315L62.5561 214.105C61.4088 214.167 60.2667 214.29 59.1363 214.474C58.1625 214.642 57.2015 214.863 56.2587 215.137L55.0909 215.615L52.0466 214.032L48.877 215.652L52.0048 217.236C51.452 217.634 50.9736 218.106 50.5871 218.636C50.323 219.032 50.1836 219.483 50.1836 219.943C50.1836 220.403 50.323 220.854 50.5871 221.251C51.5272 222.35 52.7397 223.244 54.1318 223.866C55.6729 224.708 57.3883 225.271 59.1781 225.523C60.5573 225.74 61.9692 225.74 63.3485 225.523C64.8324 225.19 66.2943 224.784 67.7273 224.308H68.1025C69.0216 223.98 69.9702 223.721 70.9384 223.534C71.7677 223.423 72.6114 223.423 73.4407 223.534C74.3546 223.629 75.2356 223.892 76.0264 224.308C77.4026 225.008 78.028 225.707 77.9863 226.407C77.9446 227.107 77.1523 227.844 75.6509 228.617C74.5003 229.182 73.2426 229.557 71.9395 229.722C70.3326 229.891 68.7086 229.891 67.1017 229.722L67.9358 232.337C69.3241 232.426 70.7179 232.426 72.1062 232.337C73.3902 232.231 74.6604 232.022 75.9011 231.711L77.6529 231.232H77.8614L80.7807 232.705L83.9502 231.085L80.9057 229.538C81.5715 229.098 82.1496 228.562 82.6157 227.954C82.8894 227.568 83.0344 227.121 83.0344 226.665C83.0344 226.209 82.8894 225.762 82.6157 225.376C81.7637 224.271 80.5991 223.382 79.2377 222.798C77.9309 221.915 76.4833 221.207 74.942 220.698Z" fill="#FFE161"/>
<path d="M138.874 273.81C124.984 268.947 109.517 268.947 95.6273 273.81H83.3663V286.075C83.3663 294.878 98.5466 301.986 117.272 301.986C135.997 301.986 151.135 294.878 151.135 286.075V273.81H138.874Z" fill="#FFD31A"/>
<g opacity="0.5">
<path d="M143.42 273.81H138.874C138.249 273.589 137.54 273.405 136.872 273.147V298.929C139.161 298.173 141.355 297.211 143.42 296.056V273.81Z" fill="#FFB133"/>
</g>
<path opacity="0.7" d="M95.6691 273.81H90.0806V295.578C91.8399 296.653 93.7112 297.578 95.6691 298.34V273.81Z" fill="#FFEC9C"/>
<path d="M117.272 257.898C98.5466 257.898 83.3663 265.044 83.3663 273.81C83.3663 282.576 98.5466 289.758 117.272 289.758C135.997 289.758 151.135 282.613 151.135 273.81C151.135 265.007 135.955 257.898 117.272 257.898Z" fill="#FFE161"/>
<path d="M117.272 261.287C101.758 261.287 89.2047 266.886 89.2047 273.81C89.2047 280.734 101.716 286.37 117.272 286.37C132.827 286.37 145.297 280.734 145.297 273.81C145.297 266.886 132.744 261.287 117.272 261.287Z" fill="#FFB133"/>
<path d="M117.23 262.245C132.369 262.245 144.671 267.622 145.213 274.326C145.233 274.166 145.233 274.006 145.213 273.847C145.213 266.922 132.702 261.287 117.146 261.287C101.591 261.287 89.1215 266.922 89.1215 273.847C89.1215 273.847 89.1215 274.178 89.1215 274.326C89.8305 267.622 102.091 262.245 117.23 262.245Z" fill="#FFB133"/>
<path d="M117.23 286.406C132.369 286.406 144.671 281.029 145.213 274.326C144.671 267.622 132.369 262.245 117.23 262.245C102.091 262.245 89.8303 267.622 89.2465 274.326C89.8303 281.029 102.091 286.406 117.23 286.406Z" fill="#FFD833"/>
<g opacity="0.5">
<path d="M117.23 286.406C132.369 286.406 144.671 281.029 145.213 274.326C144.671 267.622 132.369 262.245 117.23 262.245C102.091 262.245 89.8303 267.622 89.2465 274.326C89.8303 281.029 102.091 286.406 117.23 286.406Z" fill="#FFB133"/>
</g>
<path d="M125.821 272.042C124.442 271.827 123.03 271.827 121.651 272.042C120.236 272.27 118.842 272.59 117.48 273H117.272C115.937 273.405 114.894 273.7 114.06 273.884C113.189 273.996 112.304 273.996 111.433 273.884C110.478 273.796 109.555 273.532 108.722 273.11C107.429 272.447 106.762 271.784 106.804 271.084C106.846 270.385 107.555 269.722 108.931 269.022C109.741 268.621 110.612 268.323 111.517 268.138C112.695 267.899 113.895 267.751 115.103 267.696L113.977 265.155C112.767 265.155 111.641 265.376 110.599 265.523C109.607 265.69 108.631 265.924 107.68 266.223C107.293 266.348 106.917 266.495 106.554 266.665L103.509 265.118L100.34 266.738L103.426 268.322C102.864 268.701 102.396 269.178 102.05 269.722C101.766 270.105 101.615 270.553 101.615 271.011C101.615 271.469 101.766 271.917 102.05 272.3C102.975 273.421 104.19 274.33 105.594 274.952C107.151 275.794 108.88 276.357 110.682 276.609C112.061 276.831 113.474 276.831 114.853 276.609C116.274 276.309 117.668 275.915 119.023 275.431H119.232C120.144 275.131 121.077 274.885 122.026 274.694C122.854 274.566 123.7 274.566 124.528 274.694C125.436 274.812 126.312 275.074 127.114 275.467C128.448 276.13 129.116 276.83 129.032 277.567C128.949 278.304 128.198 279.003 126.738 279.74C125.578 280.315 124.304 280.69 122.985 280.845C121.38 281.033 119.753 281.033 118.147 280.845L119.023 283.46C120.412 283.548 121.805 283.548 123.194 283.46C124.468 283.36 125.727 283.138 126.947 282.797L128.74 282.318L131.659 283.828L134.829 282.208L131.743 280.624C132.415 280.205 132.995 279.681 133.453 279.077C133.74 278.688 133.893 278.234 133.893 277.769C133.893 277.305 133.74 276.851 133.453 276.462C132.596 275.375 131.45 274.489 130.116 273.884C128.811 273.062 127.36 272.439 125.821 272.042Z" fill="#FFE161"/>
<path d="M139.208 245.265C136.196 239.277 131.824 233.9 126.363 229.464C121.063 224.882 114.743 221.32 107.805 219.004L98.88 211.637L89.3716 220.514C82.5322 226.923 87.9954 241.287 101.591 252.668C115.186 264.049 131.743 268.064 138.582 261.692L148.132 252.779L139.208 245.265Z" fill="#FFD833"/>
<g opacity="0.5">
<path d="M142.503 247.991L139.208 245.265C138.922 244.686 138.602 244.12 138.249 243.571L118.106 262.355C120.36 263.195 122.709 263.825 125.112 264.233L142.503 247.991Z" fill="#FFB133"/>
</g>
<path opacity="0.7" d="M107.847 219.004L103.676 215.615L86.9946 231.416C87.4085 233.277 88.0517 235.093 88.9128 236.83L107.847 219.004Z" fill="#FFEC9C"/>
<path d="M135.955 220.551C122.36 209.207 105.761 205.155 98.9219 211.564C92.0824 217.973 97.504 232.521 110.933 243.571C124.361 254.62 141.126 258.967 147.966 252.595C154.805 246.223 149.509 231.932 135.955 220.551Z" fill="#FFE161"/>
<path d="M133.286 223.019C122.026 213.626 108.555 210.054 103.134 215.1C97.7123 220.146 102.508 231.821 113.727 241.25C124.945 250.679 138.499 254.179 143.879 249.169C149.259 244.16 144.504 232.521 133.286 223.019Z" fill="#FFB133"/>
<path d="M132.494 223.718C143.462 232.89 148.258 244.271 143.42 249.501L143.837 249.206C149.217 244.16 144.504 232.448 133.244 223.055C121.984 213.663 108.514 210.127 103.092 215.137L102.759 215.505C108.389 210.938 121.525 214.51 132.494 223.718Z" fill="#FFB133"/>
<path d="M113.727 241.251C124.695 250.422 137.79 253.994 143.42 249.464C148.258 244.271 143.42 232.89 132.493 223.682C121.567 214.474 108.389 210.901 102.758 215.431C97.9625 220.698 102.592 232.042 113.727 241.251Z" fill="#FFD833"/>
<g opacity="0.5">
<path d="M113.727 241.251C124.695 250.422 137.79 253.994 143.42 249.464C148.258 244.271 143.42 232.89 132.493 223.682C121.567 214.474 108.389 210.901 102.758 215.431C97.9625 220.698 102.592 232.042 113.727 241.251Z" fill="#FFB133"/>
</g>
<path d="M131.117 236.204C130.265 235.197 129.237 234.314 128.073 233.589C126.843 232.898 125.561 232.283 124.236 231.748L121.233 230.422C120.471 230.041 119.781 229.556 119.19 228.985C118.568 228.344 118.112 227.589 117.855 226.775C117.438 225.486 117.522 224.602 117.855 224.123C118.189 223.645 119.44 223.571 120.983 223.902C121.891 224.114 122.762 224.436 123.569 224.86C124.622 225.387 125.613 226.004 126.53 226.702L127.698 224.16C126.725 223.497 125.807 222.908 124.945 222.392C124.096 221.922 123.219 221.492 122.318 221.103L121.108 220.772L120.108 217.788L116.563 217.015L117.564 220.072C116.873 219.971 116.169 219.971 115.479 220.072C114.978 220.208 114.531 220.467 114.191 220.819C113.851 221.172 113.632 221.602 113.56 222.061C113.348 223.427 113.519 224.819 114.06 226.112C114.523 227.68 115.346 229.147 116.479 230.422C117.286 231.242 118.228 231.949 119.273 232.521C120.623 233.183 122.015 233.774 123.444 234.289H123.652C124.561 234.621 125.44 235.015 126.28 235.468C127 235.841 127.648 236.313 128.198 236.867C128.798 237.489 129.239 238.218 129.491 239.004C129.908 240.329 129.866 241.213 129.241 241.692C128.615 242.171 127.531 242.245 125.863 241.692C124.577 241.396 123.361 240.897 122.276 240.219C120.954 239.406 119.761 238.44 118.731 237.346L117.313 239.777C118.286 240.703 119.346 241.553 120.483 242.318C121.485 243.038 122.577 243.656 123.736 244.16L125.362 244.897H125.613L126.572 247.733L130.158 248.506L129.116 245.486C129.93 245.602 130.761 245.602 131.576 245.486C132.084 245.381 132.548 245.153 132.916 244.828C133.285 244.502 133.543 244.093 133.661 243.644C133.893 242.318 133.735 240.961 133.203 239.703C132.697 238.456 131.995 237.278 131.117 236.204Z" fill="#FFE161"/>
<path d="M195.467 228.838C195.467 213.332 184.79 195.321 171.612 188.618C169.411 187.239 166.837 186.397 164.15 186.177C161.462 185.957 158.757 186.367 156.307 187.365L145.172 192.927L148.299 198.894C147.939 200.755 147.758 202.64 147.757 204.529C147.757 220.035 158.433 238.046 171.612 244.75L172.863 245.339L176.074 251.379C176.074 251.379 187.251 245.854 188.043 245.376C192.589 242.429 195.467 236.683 195.467 228.838Z" fill="#FFD31A"/>
<path opacity="0.7" d="M164.105 186.076L146.381 195.137L148.299 198.82C148.299 199.299 148.299 199.814 148.091 200.293L171.362 188.323C169.118 187.19 166.659 186.429 164.105 186.076Z" fill="#FFEC9C"/>
<g opacity="0.5">
<path d="M195.341 230.79L170.027 243.571C170.569 243.865 171.07 244.197 171.612 244.455L172.863 245.044L174.156 247.438L194.007 237.309C194.753 235.193 195.202 233.003 195.341 230.79Z" fill="#FFB133"/>
</g>
<path d="M184.081 234.4C184.081 249.869 173.405 257.015 160.227 250.311C147.048 243.608 136.414 225.56 136.414 210.054C136.414 194.547 147.09 187.439 160.227 194.142C173.364 200.846 184.081 218.893 184.081 234.4Z" fill="#FFE161"/>
<path d="M180.203 233.221C180.203 246.186 171.278 252.153 160.227 246.554C149.175 240.956 140.125 225.855 140.125 212.853C140.125 199.851 149.05 193.921 160.06 199.557C171.07 205.192 180.203 220.256 180.203 233.221Z" fill="#FFD833"/>
<g opacity="0.5">
<path d="M180.203 233.221C180.203 246.186 171.278 252.153 160.227 246.554C149.175 240.956 140.125 225.855 140.125 212.853C140.125 199.851 149.05 193.921 160.06 199.557C171.07 205.192 180.203 220.256 180.203 233.221Z" fill="#FFB133"/>
</g>
<path d="M161.603 245.707C150.593 240.109 141.668 225.044 141.668 212.043C141.417 209.573 141.792 207.085 142.765 204.76C143.739 202.434 145.288 200.33 147.298 198.599C143.128 200.735 140.292 205.744 140.292 212.853C140.292 225.855 149.217 240.919 160.227 246.554C162.31 247.895 164.822 248.618 167.4 248.618C169.978 248.618 172.49 247.895 174.573 246.554C172.531 247.477 170.241 247.885 167.954 247.736C165.666 247.587 163.469 246.885 161.603 245.707Z" fill="#FFB133"/>
<path d="M168.651 227.88C167.993 226.597 167.106 225.416 166.024 224.381C164.851 223.369 163.596 222.434 162.27 221.582H162.062C160.811 220.772 159.81 220.072 159.101 219.52C158.353 218.94 157.719 218.255 157.224 217.494C156.69 216.658 156.376 215.726 156.307 214.768C156.307 213.258 156.306 212.3 157.224 211.895C158.141 211.49 159.101 211.637 160.727 212.3C161.675 212.709 162.547 213.243 163.313 213.884C164.335 214.676 165.271 215.552 166.107 216.499L168.025 213.958C167.23 213.083 166.381 212.246 165.481 211.453C164.683 210.74 163.818 210.087 162.896 209.501C162.508 209.259 162.104 209.037 161.686 208.838L161.353 205.376L157.641 203.792L157.975 207.475C157.208 207.258 156.401 207.17 155.598 207.218C155.017 207.266 154.462 207.458 153.998 207.77C153.534 208.083 153.178 208.504 152.97 208.986C152.373 210.46 152.201 212.042 152.47 213.59C152.566 215.404 153.077 217.183 153.971 218.82C154.677 220.091 155.638 221.239 156.807 222.208C158.123 223.235 159.517 224.183 160.977 225.044H161.186C162.099 225.587 162.963 226.19 163.771 226.849C164.347 227.443 164.811 228.115 165.148 228.838C165.643 229.633 165.942 230.512 166.024 231.416C166.024 232.963 166.023 233.958 165.064 234.363C164.105 234.768 163.021 234.584 161.269 233.884C159.93 233.285 158.717 232.488 157.683 231.527C156.474 230.336 155.424 229.026 154.555 227.623L152.345 229.98C153.168 231.199 154.102 232.357 155.139 233.442C156.086 234.421 157.133 235.321 158.267 236.131L159.893 237.273H160.143L160.435 240.624L164.189 242.171L163.855 238.488C164.733 238.784 165.668 238.921 166.607 238.893C167.188 238.884 167.754 238.725 168.235 238.438C168.716 238.15 169.092 237.745 169.318 237.273C169.948 235.883 170.149 234.37 169.902 232.89C169.806 231.17 169.383 229.476 168.651 227.88Z" fill="#FFE161"/>
<path d="M178.618 285.486C196.175 285.854 216.819 276.867 224.743 265.412C226.354 263.501 227.365 261.247 227.672 258.88C227.98 256.513 227.574 254.116 226.494 251.932L220.447 241.95L213.65 244.565C211.546 244.208 209.411 244.011 207.269 243.976C189.711 243.608 169.11 252.595 161.186 264.049L160.519 265.154L153.596 267.843C153.596 267.843 159.559 277.825 160.102 278.561C163.146 282.65 169.568 285.301 178.618 285.486Z" fill="#FFD31A"/>
<path opacity="0.7" d="M227.704 258.819L217.862 242.981L213.691 244.565L212.023 244.344L224.91 265.191C226.292 263.244 227.24 261.081 227.704 258.819Z" fill="#FFEC9C"/>
<g opacity="0.5">
<path d="M176.241 285.375L162.228 262.687C161.895 263.165 161.52 263.607 161.186 264.049L160.519 265.154L157.766 266.222L168.734 284.012C171.161 284.746 173.683 285.204 176.241 285.375Z" fill="#FFB133"/>
</g>
<path d="M172.488 275.32C154.93 274.952 147.09 265.375 155.014 253.884C162.937 242.392 183.581 233.442 200.888 233.81C218.195 234.179 226.286 243.755 218.362 255.21C210.438 266.664 190.17 275.688 172.488 275.32Z" fill="#FFE161"/>
<path d="M192.324 268.958C208.032 263.44 217.896 252.592 214.355 244.729C210.814 236.866 195.209 234.966 179.5 240.484C163.791 246.002 153.927 256.85 157.468 264.713C161.01 272.576 176.615 274.476 192.324 268.958Z" fill="#FFD833"/>
<g opacity="0.5">
<path d="M192.324 268.958C208.032 263.44 217.896 252.592 214.355 244.729C210.814 236.866 195.209 234.965 179.5 240.484C163.791 246.002 153.927 256.849 157.468 264.712C161.01 272.575 176.615 274.476 192.324 268.958Z" fill="#FFB133"/>
</g>
<path d="M160.185 255.21C166.774 245.633 184.04 238.083 198.761 238.378C201.555 238.213 204.355 238.593 206.964 239.49C209.573 240.388 211.927 241.781 213.858 243.571C211.523 239.888 205.935 237.236 197.844 237.052C183.164 236.757 165.899 244.418 159.268 253.884C157.691 255.676 156.794 257.861 156.704 260.129C156.614 262.397 157.336 264.632 158.767 266.517C157.847 264.691 157.493 262.681 157.742 260.694C157.991 258.707 158.834 256.814 160.185 255.21Z" fill="#FFB133"/>
<path d="M180.161 261.987C181.681 261.428 183.089 260.657 184.332 259.703C185.507 258.71 186.594 257.639 187.585 256.499C188.33 255.597 189.138 254.736 190.003 253.921C190.653 253.275 191.43 252.738 192.297 252.337C193.249 251.882 194.303 251.618 195.383 251.563C197.093 251.563 198.136 251.784 198.594 252.447C199.053 253.11 198.886 254.142 198.052 255.541C197.572 256.367 196.953 257.125 196.217 257.788C195.297 258.675 194.276 259.477 193.173 260.182L196.009 261.95C197.025 261.26 198 260.522 198.928 259.74C199.747 259.06 200.5 258.321 201.18 257.53C201.472 257.162 201.68 256.83 201.931 256.462H206.101L207.978 253.184L203.807 253.405C204.065 252.73 204.178 252.018 204.141 251.306C204.1 250.794 203.9 250.303 203.561 249.887C203.222 249.47 202.759 249.145 202.223 248.948C200.556 248.412 198.772 248.223 197.01 248.396C194.95 248.447 192.923 248.861 191.046 249.611C189.589 250.199 188.262 251.009 187.126 252.005C185.956 253.173 184.87 254.403 183.873 255.689C183.233 256.477 182.537 257.227 181.788 257.935C181.124 258.539 180.348 259.037 179.494 259.409C178.573 259.822 177.564 260.061 176.533 260.109C174.781 260.109 173.697 259.888 173.238 259.188C172.78 258.488 173.238 257.383 173.864 255.873C174.552 254.697 175.486 253.647 176.616 252.779C177.979 251.703 179.493 250.787 181.12 250.053L178.493 248.064C177.031 248.761 175.637 249.561 174.323 250.459C173.193 251.26 172.159 252.161 171.237 253.147L169.86 254.547V254.768H166.107L164.23 258.046L168.401 257.825C168.083 258.607 167.9 259.426 167.859 260.256C167.875 260.772 168.05 261.275 168.366 261.71C168.682 262.145 169.127 262.496 169.652 262.724C171.221 263.293 172.931 263.496 174.615 263.313C176.538 263.164 178.416 262.715 180.161 261.987Z" fill="#FFE161"/>
<path d="M70.5185 68.0245C70.5185 43.953 87.0922 15.9934 107.55 5.58713C110.965 3.44134 114.961 2.13128 119.133 1.78986C123.306 1.44844 127.507 2.08782 131.31 3.6431L148.595 12.2768L143.74 21.5395C144.299 24.4294 144.581 27.3559 144.581 30.2876C144.581 54.3592 128.008 82.3188 107.55 92.725L105.608 93.6399L100.623 102.96C100.623 102.96 83.2725 94.4404 82.0425 93.6971C74.9858 89.0657 70.5185 80.1461 70.5185 68.0245Z" fill="#FFD31A"/>
<path opacity="0.7" d="M119.203 1.58499L146.653 15.6506L143.74 21.3683C143.74 22.1116 143.74 22.9121 144.063 23.6554L107.939 5.12997C111.412 3.34068 115.232 2.13851 119.203 1.58499Z" fill="#FFEC9C"/>
<g opacity="0.5">
<path d="M70.7129 70.9978L110.204 90.8954C109.363 91.3528 108.586 91.8674 107.744 92.2677L105.802 93.1825L103.795 96.899L72.9787 81.1753C71.7536 77.8777 70.9927 74.4595 70.7129 70.9978Z" fill="#FFB133"/>
</g>
<path d="M154.593 68.7567C166.885 43.2446 163.62 17.5915 147.302 11.459C130.983 5.32656 107.79 21.0369 95.4984 46.5489C83.207 72.061 86.4718 97.7137 102.79 103.846C119.109 109.979 142.302 94.2687 154.593 68.7567Z" fill="#FFE161"/>
<path d="M94.2137 74.7715C94.2137 94.8979 108.068 104.161 125.224 95.4125C142.38 86.6644 156.17 63.3361 156.17 43.1526C156.17 22.9691 142.575 13.7635 125.224 22.2829C107.874 30.8023 94.2137 54.588 94.2137 74.7715Z" fill="#FFD833"/>
<g opacity="0.5">
<path d="M94.2137 74.7715C94.2137 94.8979 108.068 104.161 125.224 95.4125C142.38 86.6644 156.17 63.3361 156.17 43.1526C156.17 22.9691 142.575 13.7635 125.224 22.2829C107.874 30.8023 94.2137 54.588 94.2137 74.7715Z" fill="#FFB133"/>
</g>
<path d="M123.152 94.1546C140.244 85.4637 154.098 62.0211 154.098 41.8947C154.498 38.0605 153.92 34.1959 152.408 30.5845C150.896 26.9732 148.487 23.7067 145.358 21.0251C151.832 24.3414 156.235 32.0603 156.235 43.1526C156.235 63.3362 142.38 86.7216 125.289 95.4125C122.051 97.4862 118.153 98.6029 114.153 98.6029C110.154 98.6029 106.256 97.4862 103.018 95.4125C106.194 96.8158 109.738 97.4394 113.28 97.2181C116.822 96.9968 120.232 95.9387 123.152 94.1546Z" fill="#FFB133"/>
<path d="M112.147 66.4808C113.168 64.489 114.545 62.655 116.225 61.049C118.031 59.4641 119.98 58.0109 122.052 56.7036C123.994 55.4457 125.548 54.3593 126.648 53.5016C127.772 52.5713 128.752 51.5139 129.562 50.3569C130.361 49.0481 130.846 47.6077 130.986 46.1258C130.986 43.7815 130.986 42.2949 129.562 41.666C128.137 41.037 126.584 41.2086 124.124 42.2949C122.653 42.9074 121.299 43.7175 120.11 44.6964C118.522 45.9467 117.07 47.3249 115.772 48.8131L112.729 44.8679C114.089 43.4385 115.448 42.1234 116.743 40.9227C118 39.8489 119.341 38.8553 120.757 37.9495C121.359 37.5732 121.986 37.2296 122.634 36.9203L123.088 31.4885L128.914 29.087L129.626 33.7184C130.816 33.3763 132.069 33.2404 133.317 33.3181C134.221 33.3873 135.085 33.682 135.807 34.1679C136.529 34.6538 137.08 35.3109 137.395 36.0626C138.289 38.3575 138.555 40.8066 138.172 43.2098C137.992 46.0232 137.201 48.7797 135.842 51.3289C134.723 53.2905 133.235 55.0694 131.439 56.5892C129.393 58.1801 127.23 59.6508 124.965 60.9918H124.641C123.224 61.8337 121.882 62.7704 120.627 63.7935C119.548 64.6726 118.631 65.695 117.908 66.8239C117.161 68.0824 116.72 69.4653 116.614 70.8835C116.614 73.2849 116.613 74.7715 118.102 75.4005C119.592 76.0294 121.275 75.8007 123.994 74.6572C126.08 73.7642 127.949 72.5213 129.497 70.9978C131.445 69.1875 133.101 67.1479 134.417 64.9371L137.849 68.6536C136.533 70.5387 135.062 72.3352 133.446 74.0282C132.015 75.5603 130.409 76.9589 128.655 78.2021L126.131 79.9746H125.742L125.289 85.1206L119.462 87.5792L119.98 81.8615C118.618 82.3205 117.165 82.5344 115.707 82.4904C114.802 82.4592 113.924 82.2078 113.17 81.7639C112.416 81.32 111.815 80.7008 111.434 79.9746C110.513 77.8047 110.224 75.4651 110.593 73.1706C110.717 70.8832 111.241 68.6266 112.147 66.4808Z" fill="#FFE161"/>
<path d="M184.484 239.158C204.585 223.168 246.365 222.877 286.31 239.912C326.255 256.946 351.292 286.064 348.79 309.675L351.1 310.671L345.308 321.276C331.2 346.068 281.936 349.989 235.264 329.95C188.593 309.911 162.152 273.606 176.261 248.776L182.169 238.352L184.484 239.158Z" fill="#80ACC5"/>
<path d="M292.218 229.488C338.89 249.488 365.33 285.832 351.221 310.661C337.112 335.491 287.85 339.336 241.178 319.335C194.506 299.334 168.105 263.026 182.175 238.161C196.244 213.297 245.547 209.449 292.218 229.488Z" fill="#8FC6CE"/>
<path d="M288.181 236.571C325.615 252.625 346.781 281.744 335.477 301.64C324.173 321.536 284.69 324.648 247.297 308.59C209.904 292.533 188.697 263.417 200.001 243.522C211.306 223.626 250.789 220.514 288.181 236.571Z" fill="#72A9B0"/>
<path d="M284.144 243.693C313.293 256.219 329.809 278.901 321.011 294.418C312.213 309.935 281.42 312.324 252.31 299.833C223.2 287.342 206.644 264.625 215.442 249.108C224.24 233.591 254.993 231.205 284.144 243.693Z" fill="white"/>
<path d="M296.15 285.545L293.86 286.638C292.158 287.381 290.377 287.893 288.574 288.157C286.351 288.553 284.116 288.729 281.906 288.682L278.036 283.134C280.487 283.386 283.008 283.264 285.505 282.773C287.362 282.375 289.086 281.393 290.384 279.994C291.1 279.376 291.625 278.59 291.895 277.735C292.164 276.881 292.164 275.998 291.895 275.2C290.818 273.211 289.055 271.672 286.862 270.807C285.424 270.012 283.813 269.495 282.108 269.282C280.88 269.108 279.594 269.209 278.35 269.578C277.066 270.008 275.828 270.591 274.671 271.312L274.428 271.331L274.186 271.351C272.385 272.465 270.478 273.393 268.501 274.117C266.335 274.779 264.09 274.956 261.954 274.633C258.568 274.055 255.371 272.932 252.495 271.312C249.55 269.866 246.888 268.002 244.592 265.777C243.008 264.36 242.066 262.403 241.931 260.248C241.97 259.236 242.222 258.22 242.672 257.258C243.122 256.295 243.762 255.407 244.553 254.644C245.238 254.016 246 253.47 246.818 253.021C248.116 252.331 249.488 251.801 250.896 251.445C252.53 250.998 254.184 250.664 255.844 250.447L259.961 255.824C258.221 255.998 256.488 256.39 254.807 256.99C253.594 257.407 252.478 258.096 251.563 258.994C250.874 259.567 250.375 260.315 250.14 261.128C249.906 261.941 249.949 262.775 250.262 263.506C251.324 265.418 253.028 266.904 255.138 267.759C256.634 268.575 258.317 269.087 260.094 269.268C261.411 269.477 262.799 269.367 264.135 268.95C265.534 268.367 266.9 267.701 268.225 266.955L268.427 266.939L268.67 266.92L268.912 266.901C270.701 265.912 272.595 265.137 274.544 264.595C276.784 264.138 279.049 264.115 281.198 264.526C284.482 265.159 287.59 266.273 290.416 267.829C293.288 269.223 295.871 271.044 298.081 273.23C299.597 274.669 300.442 276.643 300.459 278.782C300.274 280.891 299.248 282.942 297.591 284.519L296.15 285.545ZM235.935 254.297L239.346 250.683L247.728 255.002L244.317 258.615L235.935 254.297ZM293.494 283.968L296.906 280.354L305.766 284.863L302.354 288.477L293.494 283.968Z" fill="#FFD31A"/>
</g>
<defs>
<clipPath id="clip0_167_12503">
<rect width="358" height="342" fill="white"/>
</clipPath>
</defs>
</svg>
