<svg width="48" height="54" viewBox="0 0 48 54" fill="none" xmlns="http://www.w3.org/2000/svg">
<path d="M35.9801 17.8793C35.6248 16.6531 35.1258 15.5697 34.4829 14.6291C33.84 13.6717 33.0532 12.8654 32.1227 12.2103C31.2091 11.5385 30.1602 11.0261 28.9759 10.6734C27.8085 10.3207 26.5143 10.1443 25.0931 10.1443C22.4369 10.1443 20.1022 10.7994 18.0889 12.1095C16.0925 13.4197 14.536 15.3261 13.4194 17.8289C12.3028 20.3148 11.7444 23.3551 11.7444 26.9496C11.7444 30.5441 12.2943 33.6012 13.394 36.1207C14.4937 38.6402 16.0502 40.5635 18.0635 41.8904C20.0768 43.2006 22.4538 43.8556 25.1946 43.8556C27.6816 43.8556 29.8049 43.4189 31.5644 42.5455C33.3409 41.6553 34.6943 40.4039 35.6249 38.7914C36.5723 37.1789 37.046 35.2724 37.046 33.072L39.2792 33.3996H25.8798V25.1859H47.6285V31.6863C47.6285 36.2215 46.6641 40.1183 44.7354 43.3769C42.8067 46.6187 40.1505 49.1215 36.7668 50.8851C33.3832 52.632 29.5088 53.5054 25.1439 53.5054C20.2713 53.5054 15.991 52.4388 12.3028 50.3056C8.61453 48.1556 5.73839 45.107 3.67434 41.1597C1.6272 37.1957 0.603638 32.4926 0.603638 27.0504C0.603638 22.8679 1.2127 19.139 2.43083 15.8636C3.66588 12.5715 5.39156 9.78318 7.60788 7.49881C9.8242 5.21443 12.4043 3.47595 15.3481 2.28337C18.2919 1.0908 21.481 0.494507 24.9155 0.494507C27.8593 0.494507 30.6001 0.922828 33.1378 1.77947C35.6756 2.61931 37.9258 3.81189 39.8883 5.3572C41.8678 6.90251 43.4835 8.74177 44.7354 10.875C45.9874 12.9914 46.791 15.3261 47.1463 17.8793H35.9801Z" fill="white"/>
</svg>
