<svg width="45" height="52" viewBox="0 0 45 52" fill="none" xmlns="http://www.w3.org/2000/svg">
<path d="M33.8344 17.3035C33.4987 16.1343 33.0271 15.1013 32.4196 14.2044C31.8121 13.2916 31.0687 12.5228 30.1894 11.8982C29.3261 11.2576 28.3349 10.7691 27.2158 10.4328C26.1126 10.0964 24.8896 9.92827 23.5467 9.92827C21.0367 9.92827 18.8305 10.5529 16.928 11.8021C15.0415 13.0513 13.5707 14.8691 12.5156 17.2554C11.4604 19.6257 10.9328 22.5246 10.9328 25.9519C10.9328 29.3792 11.4524 32.2941 12.4916 34.6964C13.5307 37.0988 15.0016 38.9326 16.904 40.1978C18.8065 41.447 21.0527 42.0716 23.6426 42.0716C25.9927 42.0716 27.9991 41.6552 29.6618 40.8224C31.3404 39.9736 32.6194 38.7804 33.4987 37.2429C34.394 35.7054 34.8416 33.8876 34.8416 31.7896L36.9519 32.1019H24.2901V24.2703H44.8416V30.4683C44.8416 34.7925 43.9303 38.5082 42.1078 41.6152C40.2853 44.7062 37.7753 47.0925 34.5778 48.7742C31.3804 50.4398 27.7194 51.2726 23.5947 51.2726C18.9904 51.2726 14.9456 50.2556 11.4604 48.2216C7.9752 46.1716 5.25738 43.2648 3.30694 39.5011C1.3725 35.7214 0.405273 31.2371 0.405273 26.048C0.405273 22.0601 0.980812 18.5046 2.13189 15.3816C3.29895 12.2425 4.92964 9.58394 7.02396 7.40581C9.11828 5.22769 11.5563 3.57007 14.3381 2.43296C17.1199 1.29585 20.1334 0.727295 23.3788 0.727295C26.1606 0.727295 28.7505 1.13569 31.1486 1.95249C33.5467 2.75327 35.673 3.89038 37.5275 5.36382C39.398 6.83726 40.9248 8.59097 42.1078 10.625C43.2909 12.6429 44.0502 14.8691 44.386 17.3035H33.8344Z" fill="#F88F6D"/>
</svg>
