<svg width="468" height="440" viewBox="0 0 468 440" fill="none" xmlns="http://www.w3.org/2000/svg">
<g clip-path="url(#clip0_192_392)">
<path d="M348.675 97.7331C311.705 82.2843 263.544 72.9164 210.815 72.9164C158.086 72.9164 109.946 82.2843 72.9951 97.7149L210.835 169.937L348.675 97.7331Z" fill="#F4B0C0"/>
<path d="M72.9951 97.7149V162.176L210.855 234.381V169.937L72.9951 97.7149Z" fill="#DC91A2"/>
<path d="M348.675 97.7331V261.188L210.855 333.392V169.937L348.675 97.7331Z" fill="#E98495"/>
<path d="M-0.000244141 239.147V338.322C-0.000244141 366.755 24.1504 392.467 63.1739 410.928V286.278L-0.000244141 239.147Z" fill="#97C3C4"/>
<path d="M468 334.451V235.348L404.846 276.947V407.039C443.809 388.577 468 362.884 468 334.451Z" fill="#F5C33A"/>
<path d="M404.846 307.954C443.809 289.492 468 263.781 468 235.348C468 204.597 439.703 177.059 395.024 158.396L257.184 230.582L404.846 307.954Z" fill="#FBE7B2"/>
<path d="M257.184 230.601V329.685L404.846 407.039V307.954L257.184 230.601Z" fill="#E4CE89"/>
<path d="M63.1738 360.09V410.855C101.191 428.861 153.296 440.073 210.815 440.073C268.334 440.073 320.459 428.934 358.497 410.855V360.09H63.1738Z" fill="#CDD9EF"/>
<path d="M-0.000244141 239.147C-0.000244141 267.579 24.1504 293.291 63.1739 311.753L210.835 234.399L73.0757 162.176C28.2963 180.839 -0.000244141 208.395 -0.000244141 239.147Z" fill="#A9DADD"/>
<path d="M63.1738 360.09C101.191 378.095 153.316 389.307 210.815 389.307C268.314 389.307 320.459 378.168 358.497 360.09L210.835 282.736L63.1738 360.09Z" fill="white"/>
<path d="M210.855 234.381V282.718L63.1738 360.09V311.753L210.855 234.381Z" fill="#6EBCBC"/>
<path d="M241.627 85.4982C221.857 78.3397 199.813 78.3397 180.043 85.4982H162.574V103.412C162.574 116.286 184.189 126.713 210.876 126.713C237.562 126.713 259.177 116.286 259.177 103.412V85.4982H241.627Z" fill="#F5CC2B"/>
<g opacity="0.5">
<path d="M248.047 85.4982H241.627C240.742 85.133 239.715 84.8591 238.77 84.5304V122.404C242.017 121.298 245.127 119.884 248.047 118.186V85.4982Z" fill="#F5AC3A"/>
</g>
<path opacity="0.7" d="M180.103 85.4617H172.194V117.364C174.719 118.959 177.417 120.317 180.244 121.418L180.103 85.4617Z" fill="#F9E79B"/>
<path d="M210.835 62.1972C184.189 62.1972 162.534 72.6242 162.534 85.4982C162.534 98.3723 184.149 108.781 210.835 108.781C237.522 108.781 259.137 98.354 259.137 85.4982C259.137 72.6424 237.502 62.1972 210.835 62.1972Z" fill="#F5DA65"/>
<path d="M210.835 67.1459C188.697 67.1459 170.906 75.3633 170.906 85.4982C170.906 95.6331 188.778 103.851 210.835 103.851C232.893 103.851 250.764 95.6331 250.764 85.4982C250.764 75.3633 232.893 67.1459 210.835 67.1459Z" fill="#F5AC3A"/>
<path d="M210.795 68.5703C232.349 68.5703 249.859 76.4043 250.664 86.2287C250.664 85.9913 250.664 85.7539 250.664 85.5165C250.664 75.3816 232.792 67.1642 210.735 67.1642C188.677 67.1642 170.805 75.3816 170.805 85.5165C170.805 85.7539 170.805 85.9913 170.805 86.2287C171.691 76.4043 189.261 68.5703 210.795 68.5703Z" fill="#F5AC3A"/>
<path d="M210.815 103.869C232.823 103.869 250.664 95.9629 250.664 86.2104C250.664 76.4579 232.823 68.552 210.815 68.552C188.807 68.552 170.967 76.4579 170.967 86.2104C170.967 95.9629 188.807 103.869 210.815 103.869Z" fill="#F6D23C"/>
<g opacity="0.5">
<path d="M210.815 103.869C232.823 103.869 250.664 95.9629 250.664 86.2104C250.664 76.4579 232.823 68.552 210.815 68.552C188.807 68.552 170.967 76.4579 170.967 86.2104C170.967 95.9629 188.807 103.869 210.815 103.869Z" fill="#F5AC3A"/>
</g>
<path d="M223.011 82.8869C221.013 82.5762 218.971 82.5762 216.973 82.8869C214.919 83.2112 212.9 83.6938 210.936 84.3295H210.674H210.413H210.151H209.93C208.078 84.8956 206.548 85.3156 205.361 85.5896C204.149 85.8472 202.9 85.9395 201.658 85.8635C200.294 85.7472 198.975 85.3607 197.794 84.7313C195.942 83.7695 195.037 82.7834 195.077 81.773C195.077 80.7686 196.123 79.7643 198.076 78.7417C199.238 78.1561 200.484 77.7198 201.779 77.4451C203.459 77.0915 205.169 76.8654 206.891 76.7694L205.301 73.1172C203.68 73.2199 202.067 73.4089 200.47 73.6833C199.07 73.9103 197.691 74.2339 196.345 74.6511C195.741 74.852 195.258 75.1077 194.715 75.3269L190.367 73.0442L185.859 75.4181L190.267 77.7373C189.458 78.303 188.775 79.0033 188.254 79.8008C187.904 80.3874 187.738 81.0499 187.773 81.7163C187.809 82.3827 188.045 83.0275 188.456 83.5808C189.774 85.2077 191.498 86.5281 193.487 87.4339C195.702 88.6697 198.164 89.4952 200.732 89.8626C202.739 90.1339 204.782 90.0844 206.77 89.7165C208.892 89.2344 210.976 88.6244 213.009 87.8904L213.291 87.7991L213.572 87.7078H213.733H213.874C215.184 87.2532 216.53 86.887 217.899 86.6122C219.068 86.3766 220.271 86.3149 221.462 86.4295C222.758 86.5648 224.007 86.9509 225.124 87.5617C227.137 88.5661 227.962 89.5887 227.882 90.6296C227.801 91.6704 226.694 92.7296 224.601 93.8252C222.951 94.6675 221.142 95.2248 219.268 95.4688C216.982 95.7195 214.671 95.7195 212.385 95.4688L213.612 99.2853C215.622 99.4202 217.64 99.4202 219.65 99.2853C221.47 99.1186 223.268 98.8008 225.024 98.3357L227.539 97.6419L227.841 97.4775L232.068 99.8331L236.596 97.4775L232.209 95.1766C233.171 94.5553 234.003 93.7821 234.664 92.894C235.057 92.3282 235.266 91.6729 235.266 91.0039C235.266 90.335 235.057 89.6797 234.664 89.1139C233.452 87.5009 231.803 86.1988 229.874 85.3339C227.765 84.1547 225.441 83.3261 223.011 82.8869Z" fill="#F5DA65"/>
<path d="M258.855 48.0814C239.08 40.947 217.046 40.947 197.271 48.0814H179.741V66.0137C179.741 78.8878 201.356 89.3149 228.043 89.3149C254.729 89.3149 276.344 78.8878 276.344 66.0137V48.0814H258.855Z" fill="#F5CC2B"/>
<g opacity="0.5">
<path d="M265.275 48.0813H258.855C257.969 47.7344 256.943 47.4422 255.997 47.1318V84.9869C259.243 83.908 262.353 82.5184 265.275 80.8417V48.0813Z" fill="#F5AC3A"/>
</g>
<path opacity="0.7" d="M197.331 48.0631H189.281V79.8738C191.811 81.4621 194.507 82.82 197.331 83.9278V48.0631Z" fill="#F9E79B"/>
<path d="M228.043 24.7985C201.396 24.7985 179.741 35.2256 179.741 48.0813C179.741 60.9371 201.356 71.3825 228.043 71.3825C254.729 71.3825 276.344 60.9554 276.344 48.0813C276.344 35.2073 254.709 24.7985 228.043 24.7985Z" fill="#F5DA65"/>
<path d="M228.043 29.7107C205.905 29.7107 188.114 37.9282 188.114 48.0631C188.114 58.1979 205.985 66.4155 228.043 66.4155C250.1 66.4155 267.972 58.1979 267.972 48.0631C267.972 37.9282 250.181 29.7107 228.043 29.7107Z" fill="#F5AC3A"/>
<path d="M228.043 31.1716C249.597 31.1716 267.106 39.0056 267.911 48.8118C267.911 48.5926 267.911 48.3552 267.911 48.1178C267.952 37.983 250.181 29.7107 228.043 29.7107C205.905 29.7107 188.114 37.9282 188.114 48.0631C188.114 48.3004 188.114 48.5379 188.114 48.757C188.979 39.0056 206.488 31.1716 228.043 31.1716Z" fill="#F5AC3A"/>
<path d="M228.043 66.4702C249.597 66.4702 267.106 58.6362 267.911 48.8118C267.106 39.0056 249.597 31.1716 228.043 31.1716C206.488 31.1716 188.999 39.0056 188.194 48.8118C188.979 58.6362 206.488 66.4702 228.043 66.4702Z" fill="#F6D23C"/>
<g opacity="0.5">
<path d="M228.043 66.4702C249.597 66.4702 267.106 58.6362 267.911 48.8118C267.106 39.0056 249.597 31.1716 228.043 31.1716C206.488 31.1716 188.999 39.0056 188.194 48.8118C188.979 58.6362 206.488 66.4702 228.043 66.4702Z" fill="#F5AC3A"/>
</g>
<path d="M240.239 45.4883C238.245 45.157 236.205 45.1261 234.201 45.397C232.151 45.7364 230.132 46.2187 228.163 46.8396L227.902 46.9309L227.64 47.0222H227.378H227.157C225.306 47.6066 223.776 48.0266 222.589 48.3005C221.376 48.5576 220.128 48.6499 218.885 48.5744C217.518 48.4598 216.198 48.0666 215.021 47.424C213.17 46.4379 212.264 45.4517 212.304 44.4656C212.304 43.4613 213.351 42.457 215.303 41.4343C216.465 40.8488 217.712 40.4124 219.006 40.1378C220.686 39.7828 222.396 39.5568 224.118 39.4621L222.528 35.8099C220.908 35.9069 219.295 36.0898 217.698 36.3578C216.297 36.5906 214.918 36.9202 213.572 37.3438C212.969 37.5447 212.486 37.8004 211.942 38.0195L207.595 35.7369L203.087 38.1108L207.494 40.43C206.692 40.995 206.01 41.6881 205.482 42.4752C205.128 43.064 204.959 43.73 204.995 44.4C205.03 45.07 205.268 45.7182 205.683 46.2735C207.001 47.9004 208.726 49.2208 210.715 50.1266C212.93 51.3577 215.392 52.1771 217.96 52.537C219.964 52.8228 222.009 52.7795 223.997 52.4092C226.117 51.9186 228.2 51.3088 230.236 50.5831H230.518L230.8 50.4918H230.961H231.102C232.414 50.038 233.759 49.6658 235.127 49.3779C236.298 49.1575 237.499 49.1021 238.689 49.2135C239.984 49.352 241.233 49.7379 242.352 50.3457C244.364 51.3683 245.19 52.3909 245.109 53.4318C245.029 54.4727 243.922 55.5318 241.829 56.6275C240.181 57.4718 238.371 58.0234 236.495 58.2528C234.215 58.5497 231.903 58.5865 229.612 58.3623L230.82 62.1789C232.83 62.314 234.848 62.314 236.858 62.1789C238.684 62.0139 240.489 61.696 242.251 61.2293L244.767 60.5354L245.069 60.371L249.215 62.5441L253.743 60.1884L249.356 57.8875C250.313 57.2613 251.144 56.4889 251.811 55.6049C252.204 55.0391 252.413 54.3838 252.413 53.7149C252.413 53.0459 252.204 52.3906 251.811 51.8248C250.607 50.2011 248.956 48.8917 247.021 48.0266C244.943 46.8234 242.647 45.964 240.239 45.4883Z" fill="#F5DA65"/>
<path d="M231.826 23.3011C212.056 16.1425 190.012 16.1425 170.242 23.3011H152.773V41.2334C152.773 54.0162 174.388 64.5163 201.074 64.5163C227.761 64.5163 249.376 54.0892 249.376 41.2334V23.3011H231.826Z" fill="#F5CC2B"/>
<g opacity="0.5">
<path d="M238.246 23.3011H231.826C230.941 22.9359 229.914 22.662 228.968 22.3333V60.2067C232.216 59.1008 235.326 57.6868 238.246 55.9884V23.3011Z" fill="#F5AC3A"/>
</g>
<path opacity="0.7" d="M170.322 23.2646H162.413V55.0753C164.937 56.6672 167.635 58.0195 170.463 59.111L170.322 23.2646Z" fill="#F9E79B"/>
<path d="M201.034 1.52588e-05C174.388 1.52588e-05 152.733 10.427 152.733 23.3011C152.733 36.1751 174.348 46.5839 201.034 46.5839C227.721 46.5839 249.335 36.1569 249.335 23.3011C249.335 10.4453 227.7 1.52588e-05 201.034 1.52588e-05Z" fill="#F5DA65"/>
<path d="M201.034 4.94875C178.896 4.94875 161.105 13.1662 161.105 23.3011C161.105 33.436 178.976 41.6535 201.034 41.6535C223.092 41.6535 240.963 33.436 240.963 23.3011C240.963 13.1662 223.092 4.94875 201.034 4.94875Z" fill="#F5AC3A"/>
<path d="M200.994 6.37311C222.548 6.37311 240.058 14.2071 240.863 24.0316C240.863 23.7942 240.863 23.5568 240.863 23.3194C240.863 13.1845 222.991 4.96703 200.934 4.96703C178.876 4.96703 161.004 13.1845 161.004 23.3194C161.004 23.5568 161.004 23.7942 161.004 24.0316C161.95 14.2071 179.46 6.37311 200.994 6.37311Z" fill="#F5AC3A"/>
<path d="M200.994 41.6717C222.548 41.6717 240.058 33.8377 240.863 24.0316C240.058 14.2071 222.548 6.37311 200.994 6.37311C179.439 6.37311 161.95 14.2071 161.145 24.0316C161.95 33.8377 179.46 41.6717 200.994 41.6717Z" fill="#F6D23C"/>
<g opacity="0.5">
<path d="M200.994 41.6717C222.548 41.6717 240.058 33.8377 240.863 24.0316C240.058 14.2071 222.548 6.37311 200.994 6.37311C179.439 6.37311 161.95 14.2071 161.145 24.0316C161.95 33.8377 179.46 41.6717 200.994 41.6717Z" fill="#F5AC3A"/>
</g>
<path d="M213.21 20.6898C211.212 20.3791 209.17 20.3791 207.172 20.6898C205.118 21.014 203.098 21.4967 201.135 22.1324H200.873H200.612H200.37H200.129C198.277 22.6985 196.747 23.1185 195.56 23.3924C194.351 23.6683 193.099 23.7609 191.857 23.6663C190.493 23.5501 189.174 23.1636 187.993 22.5341C186.141 21.5724 185.236 20.5863 185.276 19.5759C185.276 18.5715 186.322 17.5671 188.275 16.5445C189.437 15.959 190.683 15.5226 191.978 15.248C193.66 14.9032 195.369 14.6773 197.09 14.5723L195.5 10.9201C193.879 11.0227 192.266 11.2118 190.669 11.4862C189.271 11.7218 187.893 12.0452 186.544 12.454C185.94 12.6549 185.457 12.9106 184.914 13.1297L180.566 10.8653L176.058 13.221L180.466 15.5401C179.663 16.1115 178.981 16.8107 178.453 17.6036C178.103 18.1903 177.937 18.8528 177.972 19.5192C178.008 20.1856 178.244 20.8304 178.655 21.3837C179.97 23.0173 181.695 24.3441 183.686 25.255C185.902 26.4882 188.364 27.3135 190.931 27.6838C192.937 27.9643 194.982 27.9148 196.969 27.5377C199.091 27.0556 201.175 26.4455 203.208 25.7116L203.489 25.6203L203.771 25.5289H203.932H204.073C205.383 25.0743 206.729 24.7081 208.098 24.4333C209.267 24.199 210.47 24.1373 211.66 24.2507C212.957 24.3859 214.206 24.772 215.323 25.3829C217.336 26.3872 218.161 27.4098 218.08 28.4507C218 29.4916 216.893 30.5507 214.8 31.6464C213.15 32.4887 211.341 33.0459 209.467 33.2899C207.181 33.5406 204.87 33.5406 202.584 33.2899L203.811 37.1064C205.821 37.2502 207.84 37.2502 209.849 37.1064C211.67 36.9503 213.47 36.6323 215.223 36.1569L217.738 35.4629L218.04 35.3169L222.186 37.4717L226.714 35.116L222.327 32.8151C223.29 32.1938 224.121 31.4207 224.782 30.5325C225.176 29.9667 225.384 29.3114 225.384 28.6425C225.384 27.9735 225.176 27.3182 224.782 26.7524C223.574 25.144 221.932 23.8427 220.013 22.9724C217.911 21.854 215.608 21.0813 213.21 20.6898Z" fill="#F5DA65"/>
<path d="M404.423 209.418C384.641 202.284 362.601 202.284 342.819 209.418H325.37V227.35C325.37 240.133 346.965 250.651 373.671 250.651C400.378 250.651 421.973 240.224 421.973 227.35V209.418H404.423Z" fill="#F5CC2B"/>
<g opacity="0.5">
<path d="M410.843 209.418H404.423C403.538 209.071 402.511 208.797 401.565 208.468V246.323C404.815 245.221 407.925 243.807 410.843 242.105V209.418Z" fill="#F5AC3A"/>
</g>
<path opacity="0.7" d="M342.899 209.399H334.849V241.21C337.376 242.802 340.073 244.16 342.899 245.264V209.399Z" fill="#F9E79B"/>
<path d="M373.631 186.135C346.965 186.135 325.33 196.562 325.33 209.418C325.33 222.274 346.924 232.719 373.631 232.719C400.338 232.719 421.932 222.292 421.932 209.418C421.932 196.544 400.277 186.135 373.631 186.135Z" fill="#F5DA65"/>
<path d="M373.631 227.77C395.683 227.77 413.56 219.553 413.56 209.418C413.56 199.282 395.683 191.065 373.631 191.065C351.579 191.065 333.702 199.282 333.702 209.418C333.702 219.553 351.579 227.77 373.631 227.77Z" fill="#F5AC3A"/>
<path d="M373.591 192.508C395.125 192.508 412.634 200.342 413.439 210.148C413.439 209.929 413.439 209.692 413.439 209.454C413.439 199.319 395.568 191.102 373.51 191.102C351.453 191.102 333.581 199.319 333.581 209.454C333.581 209.692 333.581 209.929 333.581 210.148C334.547 200.342 352.056 192.508 373.591 192.508Z" fill="#F5AC3A"/>
<path d="M373.591 227.807C395.125 227.807 412.634 219.973 413.439 210.148C412.634 200.342 395.125 192.508 373.591 192.508C352.056 192.508 334.547 200.342 333.742 210.148C334.547 219.973 352.056 227.807 373.591 227.807Z" fill="#F6D23C"/>
<g opacity="0.5">
<path d="M373.591 227.807C395.125 227.807 412.634 219.973 413.439 210.148C412.634 200.342 395.125 192.508 373.591 192.508C352.056 192.508 334.547 200.342 333.742 210.148C334.547 219.973 352.056 227.807 373.591 227.807Z" fill="#F5AC3A"/>
</g>
<path d="M385.807 206.843C383.809 206.532 381.767 206.532 379.769 206.843C377.715 207.165 375.695 207.648 373.732 208.286H373.47L373.208 208.377H372.947H372.725C370.874 208.943 369.344 209.363 368.157 209.637C366.937 209.895 365.683 209.987 364.434 209.911C363.076 209.794 361.764 209.408 360.59 208.779C358.725 207.792 357.819 206.806 357.873 205.82C357.873 204.816 358.899 203.812 360.851 202.789C362.022 202.206 363.275 201.77 364.574 201.492C366.254 201.137 367.964 200.911 369.686 200.817L368.076 197.165C366.463 197.263 364.857 197.446 363.266 197.712C361.859 197.945 360.473 198.275 359.12 198.698C358.537 198.899 358.054 199.155 357.51 199.374L353.163 197.092L348.635 199.465L353.063 201.785C352.26 202.35 351.578 203.043 351.05 203.83C350.696 204.419 350.527 205.085 350.563 205.755C350.598 206.425 350.837 207.073 351.251 207.628C352.569 209.255 354.294 210.575 356.283 211.481C358.496 212.705 360.95 213.53 363.508 213.91C365.514 214.179 367.557 214.13 369.545 213.764C371.667 213.279 373.751 212.669 375.784 211.938L376.066 211.846L376.348 211.755H376.489H376.65C377.962 211.301 379.307 210.929 380.675 210.641C381.846 210.421 383.047 210.365 384.237 210.477C385.532 210.615 386.781 211.001 387.9 211.609C389.913 212.613 390.758 213.636 390.657 214.677C390.557 215.718 389.49 216.777 387.397 217.873C385.749 218.717 383.939 219.268 382.064 219.498C379.783 219.794 377.471 219.831 375.181 219.607L376.388 223.424C378.398 223.559 380.416 223.559 382.426 223.424C384.252 223.259 386.058 222.941 387.819 222.474L390.335 221.78L390.637 221.616L394.783 223.789L399.311 221.433L395.085 219.114C396.038 218.483 396.868 217.711 397.54 216.832C397.933 216.266 398.142 215.611 398.142 214.942C398.142 214.273 397.933 213.617 397.54 213.052C396.336 211.428 394.685 210.118 392.75 209.253C390.612 208.082 388.261 207.266 385.807 206.843Z" fill="#F5DA65"/>
<path d="M256.359 328.443C236.589 321.285 214.545 321.285 194.775 328.443H177.306V346.376C177.306 359.158 198.921 369.658 225.608 369.658C252.294 369.658 273.909 359.231 273.909 346.376V328.443H256.359Z" fill="#F5CC2B"/>
<g opacity="0.5">
<path d="M262.779 328.443H256.359C255.474 328.078 254.447 327.804 253.501 327.475V365.349C256.747 364.239 259.857 362.825 262.779 361.131V328.443Z" fill="#F5AC3A"/>
</g>
<path opacity="0.7" d="M194.835 328.425H186.785V360.236C189.311 361.825 192.008 363.177 194.835 364.271V328.425Z" fill="#F9E79B"/>
<path d="M225.567 305.142C198.921 305.142 177.266 315.569 177.266 328.443C177.266 341.317 198.88 351.726 225.567 351.726C252.254 351.726 273.868 341.299 273.868 328.443C273.868 315.588 252.193 305.142 225.567 305.142Z" fill="#F5DA65"/>
<path d="M225.567 310.091C203.429 310.091 185.638 318.308 185.638 328.443C185.638 338.578 203.509 346.704 225.567 346.704C247.625 346.704 265.496 338.487 265.496 328.443C265.496 318.4 247.625 310.091 225.567 310.091Z" fill="#F5AC3A"/>
<path d="M225.527 311.515C247.061 311.515 264.591 319.367 265.376 329.174C265.376 328.936 265.376 328.717 265.376 328.48C265.376 318.345 247.504 310.127 225.446 310.127C203.389 310.127 185.517 318.345 185.517 328.48C185.517 328.717 185.517 328.936 185.517 329.174C186.483 319.367 203.993 311.515 225.527 311.515Z" fill="#F5AC3A"/>
<path d="M225.527 346.832C247.061 346.832 264.591 338.98 265.375 329.174C264.591 319.368 247.061 311.515 225.527 311.515C203.992 311.515 186.483 319.368 185.678 329.174C186.483 338.98 203.992 346.832 225.527 346.832Z" fill="#F6D23C"/>
<g opacity="0.5">
<path d="M225.527 346.832C247.061 346.832 264.591 338.98 265.375 329.174C264.591 319.368 247.061 311.515 225.527 311.515C203.992 311.515 186.483 319.368 185.678 329.174C186.483 338.98 203.992 346.832 225.527 346.832Z" fill="#F5AC3A"/>
</g>
<path d="M237.743 325.832C235.744 325.53 233.704 325.53 231.706 325.832C229.653 326.163 227.634 326.645 225.668 327.275L225.406 327.366H225.145H224.883H224.662C222.81 327.95 221.28 328.37 220.093 328.626C218.877 328.902 217.619 328.994 216.37 328.9C215.011 328.789 213.697 328.402 212.526 327.768C210.674 326.8 209.749 325.814 209.809 324.809C209.869 323.805 210.855 322.801 212.788 321.778C213.96 321.202 215.212 320.772 216.511 320.5C218.189 320.136 219.9 319.91 221.623 319.824L220.033 316.172C218.413 316.283 216.801 316.472 215.203 316.738C213.802 316.971 212.422 317.3 211.077 317.724C210.521 317.918 209.977 318.137 209.447 318.381L205.1 316.117L200.571 318.473L204.999 320.792C204.196 321.363 203.514 322.063 202.986 322.855C202.636 323.442 202.47 324.105 202.505 324.771C202.541 325.437 202.777 326.082 203.188 326.635C204.503 328.269 206.228 329.596 208.219 330.507C210.434 331.725 212.887 332.543 215.444 332.917C217.45 333.196 219.495 333.146 221.482 332.771C223.603 332.286 225.687 331.676 227.721 330.945H228.002H228.284H228.425H228.586C229.898 330.491 231.243 330.119 232.611 329.831C233.78 329.595 234.983 329.534 236.173 329.648C237.469 329.787 238.717 330.173 239.836 330.781C241.748 331.785 242.674 332.808 242.593 333.849C242.513 334.889 241.406 335.967 239.313 337.062C237.657 337.891 235.851 338.441 233.98 338.688C231.699 338.985 229.387 339.021 227.097 338.797L228.304 342.596C230.314 342.739 232.333 342.739 234.342 342.596C236.171 342.448 237.979 342.13 239.736 341.646L242.251 340.97L242.553 340.806L246.699 342.979L251.227 340.605L246.84 338.304C247.802 337.683 248.634 336.909 249.295 336.022C249.689 335.456 249.897 334.801 249.897 334.132C249.897 333.463 249.689 332.807 249.295 332.242C248.084 330.628 246.434 329.326 244.505 328.461C242.441 327.228 240.151 326.338 237.743 325.832Z" fill="#F5DA65"/>
<path d="M136.209 222.347C116.434 215.212 94.4004 215.212 74.6252 222.347H57.1562V240.279C57.1562 253.153 78.7711 263.58 105.458 263.58C132.144 263.58 153.759 253.153 153.759 240.279V222.347H136.209Z" fill="#F5CC2B"/>
<g opacity="0.5">
<path d="M142.63 222.347H136.21C135.324 222 134.298 221.707 133.352 221.379V259.252C136.601 258.15 139.712 256.736 142.63 255.034V222.347Z" fill="#F5AC3A"/>
</g>
<path opacity="0.7" d="M74.6857 222.328H66.6355V254.139C69.1614 255.728 71.8586 257.08 74.6857 258.175V222.328Z" fill="#F9E79B"/>
<path d="M105.418 199.064C78.7512 199.064 57.1162 209.491 57.1162 222.347C57.1162 235.202 78.7109 245.648 105.418 245.648C132.124 245.648 153.719 235.221 153.719 222.347C153.719 209.472 132.064 199.064 105.418 199.064Z" fill="#F5DA65"/>
<path d="M105.417 203.994C83.2793 203.994 65.4883 212.212 65.4883 222.347C65.4883 232.481 83.3598 240.608 105.417 240.608C127.475 240.608 145.347 232.39 145.347 222.347C145.347 212.303 127.415 203.994 105.417 203.994Z" fill="#F5AC3A"/>
<path d="M105.377 205.419C126.912 205.419 144.421 213.271 145.226 223.077C145.226 222.858 145.226 222.62 145.226 222.383C145.226 212.248 127.354 204.031 105.297 204.031C83.2392 204.031 65.3677 212.248 65.3677 222.383C65.3677 222.62 65.3677 222.858 65.3677 223.077C66.3337 213.271 83.8429 205.419 105.377 205.419Z" fill="#F5AC3A"/>
<path d="M105.377 240.735C127.385 240.735 145.226 232.829 145.226 223.077C145.226 213.324 127.385 205.419 105.377 205.419C83.3694 205.419 65.5286 213.324 65.5286 223.077C65.5286 232.829 83.3694 240.735 105.377 240.735Z" fill="#F6D23C"/>
<g opacity="0.5">
<path d="M105.377 240.735C127.385 240.735 145.226 232.829 145.226 223.077C145.226 213.324 127.385 205.419 105.377 205.419C83.3694 205.419 65.5286 213.324 65.5286 223.077C65.5286 232.829 83.3694 240.735 105.377 240.735Z" fill="#F5AC3A"/>
</g>
<path d="M117.594 219.753C115.601 219.413 113.56 219.382 111.556 219.662C109.505 220.002 107.487 220.484 105.518 221.105L105.257 221.196L104.995 221.287H104.733H104.512C102.66 221.872 101.131 222.292 99.9435 222.566C98.7245 222.826 97.4684 222.912 96.2202 222.821C94.8595 222.719 93.5436 222.332 92.3762 221.689C90.5247 220.703 89.5989 219.717 89.6593 218.731C89.7196 217.745 90.7058 216.722 92.6379 215.7C93.8089 215.117 95.0613 214.681 96.3611 214.403C98.0412 214.048 99.7511 213.822 101.473 213.727L99.8831 210.075C98.2626 210.172 96.6498 210.355 95.053 210.623C93.6515 210.853 92.272 211.183 90.9272 211.609C90.3713 211.809 89.8272 212.034 89.297 212.285L84.9499 210.002L80.4216 212.376L84.8493 214.695C84.047 215.26 83.3649 215.953 82.8367 216.74C82.4866 217.327 82.3202 217.99 82.3556 218.656C82.3911 219.322 82.6271 219.967 83.038 220.52C84.3481 222.159 86.0739 223.487 88.0694 224.392C90.2844 225.61 92.7376 226.428 95.2945 226.802C97.2994 227.086 99.344 227.043 101.332 226.674C103.451 226.181 105.534 225.571 107.571 224.848L107.853 224.757L108.135 224.647H108.275H108.436C109.749 224.194 111.094 223.821 112.462 223.534C113.631 223.304 114.834 223.249 116.024 223.369C117.321 223.499 118.572 223.885 119.687 224.501C121.699 225.524 122.544 226.547 122.464 227.587C122.383 228.628 121.277 229.687 119.183 230.783C117.536 231.627 115.726 232.179 113.85 232.408C111.57 232.705 109.258 232.742 106.967 232.518L108.175 236.335C110.187 236.449 112.206 236.418 114.212 236.243C116.039 236.093 117.846 235.781 119.606 235.312L122.122 234.618L122.424 234.454L126.57 236.627L131.098 234.253L126.71 231.97C127.663 231.339 128.493 230.567 129.166 229.688C129.55 229.115 129.753 228.458 129.753 227.788C129.753 227.118 129.55 226.461 129.166 225.889C127.954 224.276 126.304 222.974 124.376 222.109C122.284 220.97 119.989 220.173 117.594 219.753Z" fill="#F5DA65"/>
<path d="M114.112 188.472C94.3367 181.338 72.3028 181.338 52.5276 188.472H35.0586V206.405C35.0586 219.279 56.6533 229.706 83.36 229.706C110.067 229.706 131.661 219.279 131.661 206.405V188.472H114.112Z" fill="#F5CC2B"/>
<g opacity="0.5">
<path d="M120.532 188.472H114.112C113.226 188.125 112.2 187.833 111.254 187.504V225.378C114.503 224.276 117.614 222.862 120.532 221.16V188.472Z" fill="#F5AC3A"/>
</g>
<path opacity="0.7" d="M52.5878 188.454H44.5376V220.265C47.0635 221.854 49.7607 223.206 52.5878 224.3V188.454Z" fill="#F9E79B"/>
<path d="M83.3197 165.189C56.6533 165.189 35.0183 175.617 35.0183 188.472C35.0183 201.328 56.613 211.773 83.3197 211.773C110.026 211.773 131.621 201.346 131.621 188.472C131.621 175.598 109.966 165.189 83.3197 165.189Z" fill="#F5DA65"/>
<path d="M83.3195 170.12C61.1814 170.12 43.3904 178.337 43.3904 188.472C43.3904 198.607 61.2619 206.843 83.3195 206.843C105.377 206.843 123.249 198.625 123.249 188.491C123.249 178.356 105.377 170.12 83.3195 170.12Z" fill="#F5AC3A"/>
<path d="M83.2794 171.544C104.814 171.544 122.323 179.397 123.128 189.203C123.128 188.984 123.128 188.746 123.128 188.509C123.128 178.374 105.257 170.248 83.1989 170.248C61.1413 170.248 43.2698 178.465 43.2698 188.509C43.2698 188.746 43.2698 188.984 43.2698 189.203C44.2358 179.451 61.7451 171.544 83.2794 171.544Z" fill="#F5AC3A"/>
<path d="M83.2793 206.843C104.814 206.843 122.323 198.991 123.128 189.184C122.323 179.378 104.814 171.526 83.2793 171.526C61.745 171.526 44.2357 179.378 43.4307 189.184C44.2357 199.009 61.745 206.843 83.2793 206.843Z" fill="#F6D23C"/>
<g opacity="0.5">
<path d="M83.2793 206.843C104.814 206.843 122.323 198.991 123.128 189.184C122.323 179.378 104.814 171.526 83.2793 171.526C61.745 171.526 44.2357 179.378 43.4307 189.184C44.2357 199.009 61.745 206.843 83.2793 206.843Z" fill="#F5AC3A"/>
</g>
<path d="M95.4957 185.879C93.4976 185.569 91.456 185.569 89.458 185.879C87.4076 186.219 85.3891 186.701 83.4203 187.322L83.1587 187.413L82.897 187.504H82.6354H82.414C80.5625 188.089 79.0329 188.509 77.8455 188.783C76.6262 189.041 75.3714 189.133 74.1223 189.057C72.7615 188.942 71.4472 188.549 70.2783 187.906C68.4133 186.92 67.5077 185.934 67.5614 184.948C67.5614 183.944 68.5877 182.939 70.5399 181.917C71.7109 181.334 72.9633 180.898 74.2631 180.62C75.9432 180.265 77.6532 180.039 79.3751 179.944L77.7851 176.292C76.1647 176.389 74.5519 176.572 72.955 176.84C71.5475 177.073 70.1615 177.402 68.8091 177.826C68.2255 178.009 67.7424 178.283 67.1991 178.502L62.852 176.219L58.3237 178.593L62.7513 180.912C61.949 181.477 61.267 182.17 60.7388 182.957C60.3934 183.551 60.2351 184.22 60.2813 184.89C60.3274 185.56 60.5762 186.206 61.0004 186.756C62.3105 188.394 64.0363 189.722 66.0318 190.627C68.2468 191.845 70.7 192.663 73.2569 193.038C75.2618 193.321 77.3064 193.278 79.2945 192.91C81.4131 192.417 83.4966 191.807 85.5335 191.084H85.8152L86.097 190.974H86.2379H86.3989C87.7111 190.52 89.0559 190.148 90.424 189.86C91.5937 189.631 92.7969 189.575 93.9862 189.696C95.2838 189.825 96.5342 190.212 97.6491 190.828C99.6616 191.851 100.507 192.873 100.426 193.914C100.346 194.955 99.239 195.886 97.2264 196.982C95.5786 197.826 93.7686 198.378 91.8932 198.607C89.6129 198.904 87.3006 198.941 85.0102 198.717L86.2177 202.533C88.2298 202.647 90.2487 202.617 92.2554 202.442C94.0824 202.292 95.8889 201.98 97.6491 201.511L100.165 200.817L100.467 200.652L104.613 202.825L109.141 200.452L104.753 198.169C105.735 197.544 106.593 196.772 107.289 195.886C107.673 195.314 107.876 194.657 107.876 193.987C107.876 193.317 107.673 192.66 107.289 192.088C106.078 190.475 104.428 189.173 102.499 188.308C100.344 187.124 97.9718 186.301 95.4957 185.879Z" fill="#F5DA65"/>
</g>
<defs>
<clipPath id="clip0_192_392">
<rect width="468" height="440" fill="white" transform="translate(-0.000244141)"/>
</clipPath>
</defs>
</svg>
