<svg width="21" height="24" viewBox="0 0 21 24" fill="none" xmlns="http://www.w3.org/2000/svg">
<path d="M10.5232 12C11.6795 12 12.81 11.6593 13.7714 11.0211C14.7329 10.3829 15.4823 9.47572 15.9248 8.41439C16.3674 7.35306 16.4832 6.18519 16.2576 5.05849C16.032 3.93178 15.4751 2.89683 14.6574 2.08452C13.8398 1.27221 12.798 0.719025 11.6638 0.494909C10.5297 0.270793 9.35407 0.385817 8.28572 0.825436C7.21737 1.26506 6.30423 2.00952 5.66179 2.9647C5.01934 3.91987 4.67643 5.04286 4.67643 6.19164C4.67643 7.7321 5.29243 9.20947 6.3889 10.2987C7.48538 11.388 8.97252 12 10.5232 12ZM8.4357 14.1781C7.36611 14.1779 6.30694 14.387 5.31872 14.7935C4.3305 15.2 3.43258 15.796 2.67626 16.5473C1.91995 17.2987 1.32005 18.1907 0.910843 19.1724C0.501637 20.1541 0.291142 21.2064 0.291382 22.2689C0.291382 22.6264 0.434312 22.9692 0.688728 23.2219C0.943145 23.4746 1.28821 23.6166 1.64801 23.6166H19.3983C19.7581 23.6166 20.1032 23.4746 20.3576 23.2219C20.612 22.9692 20.755 22.6264 20.755 22.2689C20.7552 21.2064 20.5447 20.1541 20.1355 19.1724C19.7263 18.1907 19.1264 17.2987 18.3701 16.5473C17.6138 15.796 16.7158 15.2 15.7276 14.7935C14.7394 14.387 13.6802 14.1779 12.6106 14.1781H8.4357Z" fill="white"/>
</svg>
