<svg width="23" height="26" viewBox="0 0 23 26" fill="none" xmlns="http://www.w3.org/2000/svg">
<path d="M11.5828 13C12.8065 13 14.0028 12.6427 15.0203 11.9734C16.0378 11.304 16.8308 10.3526 17.2991 9.2395C17.7674 8.12639 17.89 6.90156 17.6512 5.71989C17.4125 4.53823 16.8232 3.4528 15.9579 2.60086C15.0926 1.74893 13.9901 1.16875 12.7899 0.933703C11.5897 0.698655 10.3456 0.81929 9.215 1.28035C8.08442 1.74142 7.11809 2.5222 6.43822 3.52397C5.75835 4.52574 5.39547 5.7035 5.39547 6.90832C5.39547 8.52393 6.04734 10.0734 7.20769 11.2158C8.36804 12.3582 9.94181 13 11.5828 13ZM9.37372 15.2844C8.24182 15.2841 7.12096 15.5034 6.07517 15.9298C5.02938 16.3561 4.07916 16.9811 3.27878 17.7691C2.47841 18.5571 1.84356 19.4927 1.41052 20.5223C0.977478 21.5519 0.754721 22.6555 0.754975 23.7699C0.754975 24.1447 0.90623 24.5042 1.17547 24.7693C1.4447 25.0344 1.80987 25.1833 2.19063 25.1833H20.9749C21.3557 25.1833 21.7209 25.0344 21.9901 24.7693C22.2593 24.5042 22.4106 24.1447 22.4106 23.7699C22.4109 22.6555 22.1881 21.5519 21.7551 20.5223C21.322 19.4927 20.6872 18.5571 19.8868 17.7691C19.0864 16.9811 18.1362 16.3561 17.0904 15.9298C16.0446 15.5034 14.9238 15.2841 13.7919 15.2844H9.37372Z" fill="#F88F6D"/>
</svg>
