<svg width="332" height="318" viewBox="0 0 332 318" fill="none" xmlns="http://www.w3.org/2000/svg">
<path d="M321.659 222.4C318.699 218.222 314.071 214.615 307.858 211.995C300.446 209.043 292.654 207.652 284.89 207.894L281.896 206.719L265.182 209.666L262.865 211.711C255.364 214.123 248.409 218.14 242.38 223.54C237.439 228.138 234.368 233.136 233.088 238.095L231.379 239.613L233.475 251.497C234.948 259.067 240.828 265.849 250.831 270.068C271.029 278.583 300.346 273.413 316.289 258.526C324.164 251.176 327.356 242.828 326.019 235.245L323.912 223.297L321.659 222.4Z" fill="#FF9D08"/>
<path d="M306.463 204.201C286.263 195.675 256.956 200.843 241.005 215.743C225.054 230.643 228.49 249.622 248.699 258.146C268.909 266.67 298.215 261.492 314.158 246.604C330.101 231.717 326.663 212.726 306.463 204.201Z" fill="#FFDC4C"/>
<path d="M272.756 204.703C260.939 206.787 250.408 211.685 243.112 218.501C236.324 224.84 233.223 232.022 234.41 238.703C235.598 245.383 241.045 251.168 249.72 254.803C258.966 258.702 270.574 259.697 282.401 257.611C294.218 255.528 304.748 250.63 312.045 243.814C318.833 237.474 321.934 230.292 320.746 223.612C319.558 216.932 314.111 211.146 305.436 207.511C296.181 203.614 284.573 202.62 272.756 204.703Z" fill="#FF9D08"/>
<path d="M274.899 206.659C263.082 208.742 252.554 213.651 245.247 220.469C238.46 226.808 235.368 233.989 236.556 240.669C237.743 247.349 243.191 253.135 251.866 256.769C261.111 260.669 272.71 261.665 284.537 259.579C296.354 257.496 306.884 252.598 314.18 245.782C320.966 239.432 324.07 232.26 322.882 225.58C321.694 218.9 316.247 213.114 307.562 209.481C298.327 205.58 286.716 204.575 274.899 206.659Z" fill="#FFDC4C"/>
<path d="M299.407 212.379L295.703 210.82C295.301 210.676 294.878 210.638 294.468 210.71C294.058 210.782 293.673 210.963 293.345 211.236L291.003 213.418C287.327 212.396 283.524 212.289 279.869 213.103C276.741 213.76 273.828 215.244 271.373 217.432C269.009 219.641 267.993 221.63 268.325 223.4C268.639 225.18 269.811 226.953 271.786 228.739C271.958 228.93 272.476 229.403 273.331 230.159C274.684 231.286 275.911 232.593 276.981 234.049C277.592 235.048 277.427 235.906 276.519 236.752C274.436 238.689 271.655 238.922 268.173 237.449C266.216 236.635 264.386 235.462 262.759 233.98C262.032 233.318 261.37 232.571 260.785 231.752C260.601 231.507 260.359 231.323 260.089 231.222C259.53 231.021 258.942 230.968 258.372 231.069C257.802 231.169 257.267 231.42 256.811 231.8L253.503 234.894C253.036 235.33 252.935 235.879 253.294 236.291C255.462 238.577 257.997 240.384 260.755 241.611L258.014 244.173C257.883 244.255 257.78 244.38 257.718 244.533C257.656 244.685 257.639 244.857 257.668 245.025C257.698 245.192 257.773 245.348 257.883 245.47C257.994 245.592 258.134 245.675 258.285 245.707L261.989 247.265C262.392 247.407 262.817 247.443 263.228 247.371C263.639 247.298 264.025 247.119 264.356 246.848L267.217 244.132C270.737 245.067 274.369 245.129 277.852 244.313C281.086 243.617 284.089 242.051 286.604 239.751C288.301 238.169 289.248 236.682 289.444 235.291C289.542 234.609 289.507 233.907 289.34 233.23C289.173 232.554 288.878 231.919 288.476 231.37C287.343 229.834 286.026 228.476 284.563 227.338C283.106 226.08 282.064 225.158 281.466 224.566C280.915 224.063 280.534 223.367 280.388 222.6C280.265 221.903 280.604 221.191 281.368 220.481C282.407 219.552 283.705 219.039 285.063 219.022C286.657 218.976 288.254 219.296 289.756 219.964C291.441 220.618 292.982 221.689 294.26 223.096C294.75 223.651 295.204 224.244 295.621 224.868C295.808 225.132 296.06 225.33 296.343 225.438C296.904 225.639 297.494 225.691 298.065 225.59C298.637 225.49 299.173 225.239 299.631 224.858L302.983 221.734C303.448 221.287 303.539 220.741 303.19 220.327C302.523 219.554 301.803 218.842 301.035 218.196C299.931 217.304 298.755 216.53 297.525 215.885L299.741 213.824C299.872 213.742 299.975 213.617 300.037 213.464C300.099 213.312 300.116 213.14 300.087 212.972C300.057 212.805 299.982 212.649 299.872 212.527C299.762 212.405 299.621 212.322 299.47 212.29" fill="#FF9D08"/>
<path d="M196.753 214.505C200.232 214.365 203.893 213.173 207.455 210.833C211.598 207.985 214.913 204.42 217.225 200.325L218.888 199.169L222.39 189.547L221.88 187.668C222.789 182.988 222.549 178.055 221.174 173.141C219.942 169.056 217.875 165.804 215.264 163.492L214.882 162.103L206.99 159.231C201.918 157.472 195.931 158.255 190.195 162.022C178.618 169.629 172.475 186.506 176.48 199.703C178.456 206.221 182.523 210.65 187.559 212.483L195.494 215.371L196.753 214.505Z" fill="#FF9D08"/>
<path d="M212.637 212.707C224.222 205.102 230.363 188.231 226.352 175.025C222.342 161.819 209.709 157.278 198.122 164.888C186.536 172.498 180.402 189.372 184.407 202.57C188.412 215.767 201.053 220.312 212.637 212.707Z" fill="#FFDC4C"/>
<path d="M223.01 195.114C225.485 188.312 225.842 181.237 224.007 175.196C222.302 169.577 218.915 165.583 214.476 163.973C210.036 162.364 204.791 163.254 199.832 166.529C194.532 170.01 190.25 175.68 187.772 182.489C185.296 189.291 184.939 196.365 186.774 202.406C188.48 208.025 191.866 212.02 196.306 213.629C200.745 215.239 205.99 214.349 210.949 211.074C216.251 207.587 220.534 201.917 223.01 195.114Z" fill="#FF9D08"/>
<path d="M221.141 195.571C223.617 188.769 223.966 181.692 222.134 175.645C220.428 170.026 217.04 166.038 212.6 164.428C208.16 162.818 202.916 163.708 197.957 166.983C192.656 170.465 188.376 176.129 185.898 182.937C183.422 189.74 183.066 196.814 184.9 202.855C186.613 208.477 189.992 212.469 194.432 214.078C198.872 215.688 204.116 214.798 209.077 211.518C214.376 208.042 218.665 202.374 221.141 195.571Z" fill="#FFDC4C"/>
<path d="M209.898 206.337L212.02 204.941C212.235 204.781 212.392 204.575 212.478 204.339C212.564 204.103 212.576 203.844 212.514 203.584L211.928 201.646C213.714 200.086 214.984 198.156 215.647 195.995C216.238 194.16 216.258 192.16 215.705 190.162C215.11 188.205 214.222 187.017 213.041 186.6C211.858 186.169 210.408 186.185 208.696 186.612C208.526 186.637 208.074 186.748 207.343 186.938C206.229 187.262 205.045 187.461 203.82 187.53C203.02 187.513 202.55 187.142 202.323 186.391C201.804 184.67 202.544 183.154 204.543 181.845C205.658 181.104 206.951 180.548 208.368 180.2C209.001 180.045 209.666 179.951 210.349 179.922C210.556 179.908 210.744 179.844 210.891 179.738C211.191 179.516 211.409 179.23 211.529 178.902C211.648 178.574 211.665 178.214 211.578 177.851L210.744 175.111C210.627 174.725 210.325 174.49 209.961 174.538C207.883 174.898 205.981 175.607 204.362 176.624L203.671 174.355C203.663 174.26 203.619 174.165 203.546 174.082C203.473 173.999 203.374 173.933 203.263 173.892C203.151 173.852 203.033 173.839 202.924 173.855C202.814 173.872 202.72 173.917 202.652 173.984L200.531 175.38C200.317 175.541 200.16 175.749 200.074 175.985C199.988 176.222 199.975 176.481 200.035 176.743L200.781 179.126C199.097 180.634 197.909 182.492 197.301 184.564C196.701 186.467 196.701 188.541 197.304 190.606C197.729 192.011 198.333 192.995 199.117 193.559C199.501 193.837 199.94 194.053 200.404 194.191C200.868 194.33 201.348 194.389 201.809 194.364C203.102 194.29 204.345 194.061 205.501 193.684C206.728 193.349 207.619 193.117 208.168 193.005C208.649 192.888 209.193 192.922 209.706 193.102C210.169 193.271 210.495 193.683 210.684 194.314C210.92 195.161 210.821 196.003 210.401 196.71C209.924 197.549 209.223 198.268 208.342 198.822C207.41 199.476 206.27 199.916 205.01 200.109C204.517 200.177 204.012 200.215 203.501 200.222C203.281 200.231 203.081 200.295 202.925 200.406C202.625 200.629 202.407 200.916 202.287 201.245C202.167 201.574 202.15 201.935 202.237 202.298L203.075 205.071C203.199 205.46 203.503 205.69 203.865 205.647C204.546 205.559 205.208 205.424 205.844 205.242C206.736 204.968 207.58 204.618 208.362 204.197L208.913 206.028C208.922 206.123 208.965 206.218 209.038 206.301C209.111 206.384 209.21 206.45 209.322 206.491C209.433 206.531 209.552 206.544 209.661 206.528C209.77 206.511 209.865 206.466 209.932 206.399" fill="#FF9D08"/>
<g clip-path="url(#clip0_362_10803)">
<path d="M91.874 84.1753C88.1617 82.8105 84.0153 83.6237 80.0636 83.9553C73.8424 84.4815 67.3818 84.6186 61.5819 82.3162C59.1432 81.3595 56.8896 79.9755 54.4892 78.92C52.0889 77.8644 49.4459 77.1182 46.854 77.5232C44.262 77.9282 41.7468 79.7076 41.1435 82.2556C40.5625 84.6537 41.7148 87.157 43.2821 89.0672C45.0895 91.2614 47.4352 92.9501 50.0907 93.9686C48.1116 93.6752 46.1038 95.0464 45.3633 96.9056C44.6227 98.7648 45.0249 100.952 46.0974 102.646C47.17 104.339 48.849 105.57 50.6493 106.45C53.9003 108.03 57.5663 108.549 61.1286 107.933C58.7187 108.928 56.0054 110.261 55.383 112.793C55.0032 114.362 55.5873 116.058 56.6343 117.289C57.6812 118.52 59.1368 119.337 60.6434 119.927C63.0373 120.846 65.5977 121.253 68.1589 121.121C70.7202 120.989 73.2251 120.321 75.5118 119.161C74.2988 120.657 75.681 122.934 77.3759 123.846C79.6104 125.042 82.2533 125.121 84.7622 124.834C92.7901 123.967 100.212 120.022 108.204 118.871C109.883 118.632 111.735 118.441 112.9 117.21C114.234 115.8 114.132 113.587 113.784 111.677C112.613 105.27 107.684 89.9952 91.874 84.1753Z" fill="white"/>
<path d="M49.3373 93.6497C50.2194 92.9646 51.3376 92.6572 52.4463 92.7951C49.7952 91.7738 47.4539 90.0841 45.6505 87.8905C44.0832 85.9771 42.9309 83.477 43.5119 81.0789C43.8701 79.7254 44.6983 78.5431 45.8484 77.7433C43.6459 78.4002 41.6988 80.0329 41.1498 82.2429C40.5688 84.641 41.7212 87.1443 43.2884 89.0545C44.9179 91.0371 46.9895 92.6109 49.3373 93.6497Z" fill="#D7F5FF"/>
<path d="M63.4875 106.75C59.9255 107.367 56.2595 106.849 53.0081 105.27C51.2078 104.39 49.532 103.153 48.4563 101.466C47.3806 99.7789 46.9816 97.5881 47.7221 95.7258C47.9967 95.0521 48.4188 94.4484 48.9574 93.9591C48.1588 94.1053 47.4102 94.451 46.7812 94.964C46.1522 95.4769 45.6633 96.1405 45.36 96.893C44.6195 98.7521 45.0217 100.94 46.0942 102.633C47.1667 104.326 48.8457 105.557 50.646 106.437C53.8512 107.995 57.4611 108.522 60.9785 107.946C61.7883 107.494 62.6264 107.094 63.4875 106.75Z" fill="#D7F5FF"/>
<path d="M111.706 117.431C103.34 118.698 95.5464 123.043 87.1303 123.99C84.5 124.288 81.7158 124.218 79.3868 122.903C77.6098 121.9 76.1609 119.396 77.4325 117.751C75.0367 119.02 72.4137 119.75 69.7325 119.893C67.0512 120.035 64.3712 119.587 61.8651 118.578C60.2857 117.929 58.7597 117.032 57.6621 115.678C56.5645 114.324 55.9521 112.458 56.3503 110.732C56.7485 109.006 58.0001 107.779 59.4959 106.839C57.0731 107.916 54.4763 109.371 53.874 112.012C53.4758 113.738 54.0882 115.604 55.1858 116.958C56.2834 118.312 57.8093 119.21 59.3888 119.859C61.8964 120.871 64.5788 121.321 67.2626 121.179C69.9464 121.037 72.572 120.306 74.9695 119.034C73.6979 120.679 75.1469 123.187 76.9238 124.19C79.2663 125.502 82.0371 125.572 84.6673 125.274C93.0835 124.32 100.864 119.981 109.243 118.719C110.943 118.459 112.81 118.256 114.035 117.024C113.265 117.214 112.469 117.316 111.706 117.431Z" fill="#D7F5FF"/>
<path d="M71.0429 93.2671C71.9454 94.1241 73.0097 94.7928 74.1738 95.2341C75.3379 95.6754 76.5784 95.8805 77.8228 95.8373C76.3417 96.5038 76.0097 98.6436 76.8652 100.031C77.7206 101.418 79.3517 102.123 80.9541 102.391C82.5565 102.658 84.1972 102.572 85.8028 102.808C85.4649 102.848 85.1389 102.957 84.8451 103.129C84.5513 103.3 84.2961 103.53 84.0954 103.805C83.8947 104.079 83.7528 104.392 83.6786 104.724C83.6044 105.055 83.5994 105.399 83.6641 105.733C84.0344 107.219 85.6911 107.965 87.1977 108.261C89.0577 108.615 90.9712 108.577 92.8156 108.15C92.1549 108.504 91.9889 109.425 92.2985 110.127C92.6082 110.829 93.2561 111.272 93.9264 111.616C96.279 112.831 99.0911 112.933 101.677 112.356C104.262 111.779 106.659 110.564 108.948 109.237C106.007 110.282 102.88 110.702 99.7678 110.471C99.0973 110.461 98.4371 110.304 97.8335 110.012C97.2412 109.653 96.8109 109.078 96.6325 108.409C96.454 107.74 96.5412 107.028 96.8759 106.421C95.0532 106.762 93.2014 106.922 91.3473 106.9C90.262 106.9 89.0459 106.744 88.366 105.902C87.7276 105.127 87.7946 103.966 88.2702 103.092C88.7458 102.218 89.5662 101.593 90.4184 101.077C87.2167 101.729 83.8942 101.433 80.8584 100.225C80.377 100.07 79.9439 99.793 79.6007 99.4217C78.9623 98.6277 79.2815 97.3808 80.0125 96.7015C80.7434 96.0223 81.8192 95.8022 82.8278 95.7448C80.5349 95.3848 78.2824 94.8028 76.1023 94.0069C75.2372 93.6688 74.3658 93.2575 73.7657 92.5527C73.1656 91.848 72.8911 90.7892 73.338 89.976C73.7849 89.1629 75.0744 88.8854 75.6745 89.5934C74.9244 88.7069 72.1442 87.9447 71.011 88.3593C68.6745 89.2235 69.7821 92.0553 71.0429 93.2671Z" fill="#D7F5FF"/>
<path d="M56.5321 99.2591C56.6341 99.7185 56.8337 100.151 57.1173 100.527C57.4009 100.902 57.7619 101.213 58.176 101.437C59.0085 101.879 59.9132 102.17 60.8477 102.295C64.8374 102.993 68.9309 102.825 72.8496 101.801C69.3845 102.387 65.8428 102.353 62.3894 101.702C61.4542 101.523 60.4742 101.284 59.7592 100.675C59.0442 100.066 58.6101 98.9785 59.0378 98.1239C59.5581 97.0938 60.9307 96.9121 62.0862 96.8483C60.305 96.9408 55.8937 95.4675 56.5321 99.2591Z" fill="#D7F5FF"/>
<path d="M91.2643 117.248C91.8389 117.739 92.6496 117.825 93.4029 117.886L95.9565 118.103C96.3276 118.142 96.7012 118.152 97.0737 118.131C97.5961 118.06 98.1076 117.924 98.5963 117.726L101 116.875C98.5522 117.324 96.0557 117.449 93.5753 117.245C92.9816 117.197 92.273 117.041 92.0751 116.479C92.0199 116.252 92.039 116.014 92.1298 115.798C92.2206 115.583 92.3782 115.403 92.5794 115.284C92.9862 115.053 93.4405 114.919 93.9073 114.891C92.6401 114.592 89.2789 115.555 91.2643 117.248Z" fill="#D7F5FF"/>
<path d="M255.439 48.8327C258.258 46.2997 262.245 45.541 265.879 44.4321C271.615 42.6812 277.426 40.5023 281.774 36.3935C283.597 34.6698 285.114 32.6466 286.87 30.8567C288.627 29.0669 290.721 27.4639 293.179 26.8997C295.637 26.3355 298.507 27.0203 299.973 29.0553C301.353 30.9735 301.224 33.6037 300.514 35.8527C299.692 38.4408 298.205 40.7723 296.202 42.6189C297.864 41.654 300.15 42.1559 301.475 43.5372C302.8 44.9185 303.235 47.0001 302.882 48.8794C302.462 50.7558 301.532 52.4822 300.193 53.8714C297.862 56.4325 294.779 58.2018 291.379 58.9296C293.885 58.9491 296.786 59.1631 298.24 61.1902C299.146 62.4431 299.232 64.1551 298.742 65.6181C298.19 67.0677 297.288 68.3609 296.115 69.3845C294.313 71.0493 292.179 72.3207 289.852 73.1169C287.524 73.9131 285.054 74.2162 282.601 74.0069C284.22 74.9018 283.808 77.4114 282.601 78.8238C281.052 80.6759 278.704 81.6758 276.371 82.3256C268.898 84.4189 260.865 83.5707 253.322 85.3994C251.753 85.7885 250.016 86.2749 248.538 85.5978C246.841 84.8197 246.135 82.8275 245.759 81.0144C244.524 74.9095 243.43 59.6183 255.439 48.8327Z" fill="#FFB9A5"/>
<path d="M264.265 51.2783C266.56 49.2023 269.806 48.5804 272.765 47.6716C277.435 46.2366 282.166 44.4507 285.705 41.0832C287.19 39.6705 288.425 38.0123 289.855 36.5453C291.285 35.0784 292.99 33.7646 294.991 33.3022C296.992 32.8398 299.329 33.401 300.523 35.0689C301.646 36.641 301.541 38.7968 300.963 40.64C300.293 42.7611 299.084 44.6721 297.452 46.1855C298.805 45.3947 300.666 45.8061 301.745 46.9381C302.824 48.0702 303.179 49.7763 302.891 51.3165C302.549 52.8544 301.791 54.2693 300.702 55.408C298.804 57.507 296.294 58.9571 293.526 59.5536C295.566 59.5695 297.928 59.7449 299.112 61.4064C299.849 62.4332 299.919 63.8363 299.52 65.0354C299.071 66.2235 298.337 67.2834 297.382 68.1223C295.915 69.4867 294.177 70.5288 292.282 71.1814C290.387 71.8339 288.376 72.0824 286.379 71.9108C287.697 72.6442 287.362 74.7011 286.379 75.8587C285.118 77.3766 283.206 78.1962 281.307 78.7287C275.223 80.4444 268.683 79.7492 262.541 81.248C261.264 81.5669 259.85 81.9655 258.647 81.4106C257.265 80.7728 256.69 79.1401 256.384 77.654C255.378 72.6506 254.488 60.118 264.265 51.2783Z" fill="white"/>
<path d="M297.915 45.7294C297.499 45.6106 297.063 45.5751 296.633 45.6249C296.203 45.6747 295.787 45.8089 295.409 46.0196C297.04 44.5043 298.25 42.5926 298.92 40.4709C299.498 38.6277 287.429 48.9726 286.306 47.4004C285.667 46.5075 296.874 33.4329 295.808 33.1618C297.599 32.996 299.498 33.6083 300.536 35.056C301.659 36.6282 301.554 38.7839 300.976 40.6271C300.37 42.544 299.321 44.2917 297.915 45.7294Z" fill="#D7F5FF"/>
<path d="M291.48 59.3782C294.248 58.7837 296.759 57.3332 298.655 55.2325C299.748 54.0967 300.505 52.6822 300.845 51.1443C301.132 49.6041 300.785 47.898 299.702 46.7627C299.306 46.3542 298.822 46.0394 298.288 45.8411C298.911 45.7144 299.555 45.7468 300.162 45.9352C300.768 46.1237 301.317 46.462 301.758 46.919C302.84 48.0542 303.188 49.7603 302.901 51.3006C302.559 52.836 301.802 54.248 300.711 55.3824C298.84 57.4497 296.373 58.8868 293.65 59.4962C292.93 59.4113 292.205 59.3719 291.48 59.3782Z" fill="#D7F5FF"/>
<path d="M260.511 81.0757C266.652 79.5769 273.193 80.2721 279.277 78.5565C281.192 78.0239 283.088 77.2012 284.352 75.6864C285.31 74.532 285.651 72.4719 284.333 71.7417C286.33 71.9131 288.341 71.6642 290.237 71.0111C292.132 70.358 293.869 69.3152 295.336 67.95C296.291 67.1132 297.026 66.0541 297.474 64.8663C297.873 63.6673 297.794 62.2641 297.069 61.2341C296.344 60.2041 295.154 59.7449 293.851 59.5408C295.818 59.579 298.001 59.815 299.125 61.3904C299.859 62.4204 299.929 63.8203 299.53 65.0194C299.082 66.2081 298.347 67.2683 297.391 68.1063C295.925 69.4713 294.189 70.5138 292.294 71.1664C290.399 71.819 288.388 72.0671 286.392 71.8948C287.707 72.6282 287.372 74.6851 286.392 75.8427C285.115 77.3606 283.219 78.1802 281.316 78.7127C275.232 80.4284 268.692 79.7332 262.551 81.232C261.309 81.5509 259.959 81.9208 258.784 81.4488C259.371 81.3659 259.952 81.2129 260.511 81.0757Z" fill="#D7F5FF"/>
<path d="M282.035 51.7949C281.632 52.6784 281.058 53.4732 280.346 54.1334C279.633 54.7936 278.797 55.306 277.885 55.6408C279.162 55.6918 280.024 57.1491 279.8 58.4024C279.577 59.6556 278.606 60.6347 277.521 61.3075C276.436 61.9804 275.22 62.3886 274.122 63.0264C274.379 62.9571 274.648 62.9415 274.911 62.9806C275.175 63.0197 275.428 63.1126 275.654 63.2535C275.88 63.3944 276.075 63.5803 276.226 63.7996C276.377 64.019 276.481 64.267 276.532 64.5284C276.698 65.7146 275.715 66.7606 274.706 67.3984C273.459 68.198 272.059 68.7291 270.595 68.9578C271.179 69.0216 271.574 69.6562 271.552 70.2334C271.483 70.8207 271.221 71.3684 270.805 71.7896C269.452 73.3586 267.441 74.2546 265.395 74.5927C263.349 74.9307 261.245 74.7457 259.202 74.4492C261.642 74.3501 264.034 73.7429 266.225 72.6666C266.711 72.4614 267.146 72.1535 267.501 71.7641C267.821 71.3309 267.962 70.7918 267.896 70.2578C267.829 69.7239 267.56 69.2357 267.144 68.894C268.566 68.6067 269.956 68.1795 271.294 67.6185C272.076 67.2996 272.918 66.834 273.164 66.024C273.251 65.6439 273.226 65.247 273.093 64.8806C272.96 64.5142 272.724 64.1938 272.414 63.9575C271.783 63.4947 271.041 63.2065 270.263 63.122C272.781 62.6596 275.111 61.4739 276.966 59.7099C277.27 59.4547 277.503 59.1251 277.642 58.7532C277.866 57.9974 277.288 57.1779 276.548 56.9004C275.807 56.623 274.974 56.776 274.23 57.0407C275.79 56.1102 277.255 55.0293 278.603 53.8135C279.166 53.3484 279.605 52.7513 279.88 52.0755C280.113 51.3899 279.998 50.5385 279.436 50.0824C278.875 49.6264 277.84 49.7954 277.63 50.4843C277.914 49.6232 279.708 48.252 280.653 48.2265C282.587 48.1659 282.609 50.5448 282.035 51.7949Z" fill="#D7F5FF"/>
<path d="M300.596 45.9846C300.658 46.3484 300.64 46.7213 300.544 47.0775C300.447 47.4337 300.275 47.7648 300.038 48.0478C299.564 48.6131 298.992 49.0884 298.349 49.451C295.658 51.126 292.636 52.1997 289.491 52.5985C292.18 52.0118 294.742 50.9526 297.059 49.4701C297.711 49.1076 298.26 48.5866 298.655 47.9554C299.007 47.2985 298.975 46.3896 298.432 45.8985C297.755 45.299 296.705 45.5796 295.853 45.873C297.178 45.4042 299.951 43.0444 300.596 45.9846Z" fill="#D7F5FF"/>
<path d="M262.014 96.9822C261.2 98.0282 259.841 98.4587 258.567 98.8318L254.258 100.107C253.634 100.311 252.993 100.458 252.343 100.547C251.419 100.61 250.492 100.558 249.582 100.391L245.157 99.7534C249.518 99.6686 253.849 99.0091 258.037 97.7922C259.039 97.4989 260.205 96.9854 260.345 95.949C260.457 95.1422 259.818 94.3801 259.068 94.0739C258.318 93.7678 257.472 93.8093 256.652 93.8635C258.733 92.8972 264.827 93.3723 262.014 96.9822Z" fill="#D7F5FF"/>
<path d="M253.064 95.5822C248.903 99.4524 246.299 104.707 245.742 110.36C209.228 126.11 173.672 134.223 134.037 137.016C131.026 132.32 126.375 128.911 120.988 127.449C117.371 112.219 113.822 96.9737 110.343 81.7135C115.198 79.781 118.441 75.8012 119.281 70.9604C157.747 68.4507 193.782 59.9298 229.137 44.5272C232.048 48.4432 236.692 50.4937 241.793 49.9899C245.626 65.1671 249.383 80.3646 253.064 95.5822Z" fill="#B6DB97"/>
<path d="M204.584 90.0367C207.524 102.053 203.511 119.694 189.833 123.004C176.156 126.314 164.53 112.449 161.693 100.401C158.855 88.353 163.563 72.7845 176.896 69.5669C190.229 66.3492 201.634 77.9857 204.584 90.0367Z" fill="#4A8755"/>
<path d="M194.963 99.5047C194.576 97.9017 193.884 96.7143 192.888 95.9426C191.917 95.1796 190.765 94.6818 189.543 94.4981C188.033 94.2925 186.509 94.1987 184.985 94.2174L182.98 85.9421C185.263 85.7128 187.566 86.1108 189.639 87.0933C189.958 85.4733 190.114 84.6665 190.427 83.0465C189.256 82.459 187.991 82.0822 186.689 81.9336C185.231 81.7455 183.755 81.7455 182.297 81.9336C181.889 80.2562 181.688 79.4175 181.279 77.7369C179.728 78.1292 178.949 78.3173 177.391 78.6936C177.8 80.387 178.004 81.2448 178.416 82.9254C176.961 83.4431 175.629 84.2551 174.502 85.3107C173.495 86.2509 172.735 87.4252 172.29 88.7292C171.872 90.0091 171.825 91.381 172.153 92.6867C172.549 94.3386 173.267 95.6003 174.308 96.472C175.316 97.3287 176.523 97.9196 177.819 98.1908C179.36 98.4889 180.925 98.6437 182.495 98.6532C183.261 101.842 183.647 103.414 184.41 106.587C181.793 107.015 179.153 106.587 176.497 105.286C176.178 106.852 175.999 107.636 175.661 109.199C177.036 109.92 178.527 110.395 180.066 110.602C181.733 110.83 183.426 110.81 185.087 110.542L186.093 114.687C187.653 114.324 188.432 114.132 189.987 113.731C189.575 112.037 189.371 111.179 188.962 109.496C191.286 108.539 192.99 107.117 194.069 105.302C194.6 104.445 194.953 103.49 195.107 102.494C195.26 101.498 195.211 100.481 194.963 99.5047ZM177.037 91.4048C176.912 90.9571 176.878 90.4893 176.936 90.0283C176.994 89.5674 177.144 89.1226 177.375 88.7197C177.913 87.8654 178.701 87.1973 179.632 86.8063C180.347 89.7497 180.701 91.223 181.416 94.1664C180.392 94.1004 179.392 93.8281 178.476 93.366C178.11 93.1644 177.791 92.8859 177.543 92.5495C177.294 92.2131 177.122 91.8269 177.037 91.4175V91.4048ZM187.736 105.583C187.076 102.853 186.747 101.488 186.083 98.7553C187.024 98.7693 187.953 98.9698 188.815 99.3452C189.146 99.5087 189.436 99.7458 189.661 100.038C189.886 100.331 190.041 100.671 190.114 101.032C190.366 101.914 190.276 102.858 189.862 103.676C189.377 104.523 188.631 105.191 187.736 105.583Z" fill="#B6DB97"/>
<path d="M243.612 31.0156C245.004 36.7557 246.394 42.4958 247.781 48.2359C251.314 62.8264 254.846 77.4158 258.379 92.0042C259.768 97.7443 261.158 103.484 262.547 109.224C257.134 111.793 251.681 114.282 246.188 116.693C210.266 132.096 175.415 139.998 136.479 142.801C136.479 142.82 136.479 142.839 136.479 142.858C130.606 143.254 124.729 143.617 118.853 144V143.946L114.703 126.78L104.093 82.9571C102.703 77.217 101.314 71.4769 99.9242 65.7368C106.334 65.5997 112.734 65.4498 119.134 65.0799C156.614 62.5607 192.151 54.1705 226.641 39.2495C232.367 36.6792 238.049 33.9208 243.612 31.0156ZM241.79 49.9771C236.683 50.4809 232.045 48.4304 229.134 44.5144C193.779 59.917 157.744 68.4315 119.277 70.9476C118.441 75.7884 115.198 79.7682 110.34 81.7007C113.825 96.963 117.374 112.208 120.985 127.437C126.372 128.898 131.023 132.308 134.034 137.003C173.669 134.21 209.225 126.097 245.754 110.347C246.312 104.694 248.915 99.4396 253.077 95.5694C249.385 80.3582 245.622 65.1607 241.79 49.9771Z" fill="#4A8755"/>
<path d="M210.878 11.9043C200.686 -1.48922 172.574 -0.395399 163.442 0.456049C119.514 4.54428 111.329 20.1765 109.692 23.9075C108.705 26.1398 108.166 28.7516 109.127 31.0093C110.25 33.653 112.957 35.2187 115.546 36.3668C128.553 42.1069 143.221 41.941 157.384 41.6891C147.07 40.844 136.511 39.6992 127.241 35.0114C124.844 33.7997 122.406 32.1797 121.448 29.6445C120.691 27.645 120.49 24.9631 121.962 23.4356C130.539 14.5448 160.336 13.4733 165.485 12.236C176.909 10.8743 192.275 10.1377 198.838 14.3184C200.626 15.4568 201.073 18.1101 200.795 20.2307C200.457 22.9222 198.465 25.0683 196.419 26.8063C188.502 33.5318 178.505 37.1162 168.68 40.3497C182.508 37.282 196.802 34.0037 208.108 25.3872C210.371 23.6652 212.618 21.5126 213.09 18.6904C213.496 16.2573 212.359 13.8528 210.878 11.9043Z" fill="#FFF75C"/>
<path d="M196.419 26.8062C188.506 33.5317 178.505 37.1161 168.68 40.3497C182.508 37.2819 196.802 34.0037 208.108 25.3871C210.371 23.6651 212.618 21.5126 213.09 18.6903C213.496 16.2699 212.359 13.8655 210.878 11.917C205.583 4.95876 195.448 1.91012 185.662 0.707886C185.975 1.00875 186.223 1.37146 186.389 1.773C186.843 2.9561 186.233 4.32414 185.256 5.12776C184.279 5.93137 183.022 6.22795 181.793 6.46393C175.562 7.65021 169.156 7.31538 162.813 7.52904C151.753 7.90534 140.788 9.9654 130.191 13.1926C127.404 14.0409 124.589 14.9975 122.256 16.7547C119.922 18.5118 118.106 21.2192 118.106 24.1753C118.106 27.1953 119.96 29.9728 122.342 31.7937C122.769 32.1126 123.213 32.4315 123.67 32.6994C122.696 31.8817 121.94 30.8368 121.467 29.6571C120.711 27.6577 120.509 24.9758 121.981 23.4483C130.558 14.5575 160.355 13.486 165.504 12.2487C176.928 10.887 192.295 10.1504 198.857 14.3311C200.645 15.4695 201.092 18.1227 200.814 20.2434C200.457 22.9221 198.465 25.0682 196.419 26.8062Z" fill="#FFDE55"/>
<path d="M119.188 16.0627C119.019 16.3178 118.888 16.7196 119.143 16.8791C120.053 16.5602 120.765 15.865 121.509 15.2495C125.636 11.8278 131.193 10.9732 136.351 9.58597C137.05 9.44683 137.712 9.16096 138.292 8.74727C138.394 8.677 138.471 8.5766 138.512 8.46026C138.615 8.06483 138.04 7.87987 137.638 7.90219C130.982 8.25298 123.117 10.0771 119.188 16.0627Z" fill="white"/>
</g>
<defs>
<clipPath id="clip0_362_10803">
<rect width="262" height="144" fill="white" transform="translate(40.9998)"/>
</clipPath>
</defs>
</svg>
