<?xml version="1.0" encoding="utf-8"?>
<!-- Generator: Adobe Illustrator 25.3.1, SVG Export Plug-In . SVG Version: 6.00 Build 0)  -->
<svg version="1.1" id="圖層_1" xmlns="http://www.w3.org/2000/svg" xmlns:xlink="http://www.w3.org/1999/xlink" x="0px" y="0px"
	 viewBox="0 0 499 756" style="enable-background:new 0 0 499 756;" xml:space="preserve">
<style type="text/css">
	.st0{fill:url(#SVGID_1_);}
	.st1{clip-path:url(#SVGID_3_);}
	.st2{clip-path:url(#SVGID_5_);}
	.st3{fill:url(#SVGID_6_);}
	.st4{fill:#F0EBC8;}
	.st5{fill:#FCFADB;fill-opacity:0.44;}
	.st6{clip-path:url(#SVGID_8_);}
	.st7{fill:#F88F6D;}
	.st8{fill:#ECF3CD;}
	.st9{clip-path:url(#SVGID_10_);}
	.st10{fill:#FFB9A5;}
	.st11{fill:#FCFADB;}
	.st12{fill:url(#SVGID_11_);}
	.st13{fill:#FFFFFF;}
	.st14{fill:url(#SVGID_12_);}
</style>
<linearGradient id="SVGID_1_" gradientUnits="userSpaceOnUse" x1="249" y1="0" x2="249" y2="756">
	<stop  offset="0" style="stop-color:#FCFADB"/>
	<stop  offset="0.5625" style="stop-color:#FAB39C"/>
</linearGradient>
<rect x="-1" class="st0" width="500" height="756"/>
<g>
	<defs>
		<path id="SVGID_2_" d="M-1,0l500,0c0,244.5,0,756,0,756H-1V0z"/>
	</defs>
	<clipPath id="SVGID_3_">
		<use xlink:href="#SVGID_2_"  style="overflow:visible;"/>
	</clipPath>
	<g class="st1">
		<g>
			<defs>
				<rect id="SVGID_4_" x="-38" y="293" width="661" height="493"/>
			</defs>
			<clipPath id="SVGID_5_">
				<use xlink:href="#SVGID_4_"  style="overflow:visible;"/>
			</clipPath>
			<g class="st2">
				
					<linearGradient id="SVGID_6_" gradientUnits="userSpaceOnUse" x1="292.5" y1="462.728" x2="292.5" y2="-30.316" gradientTransform="matrix(1 0 0 -1 0 755.89)">
					<stop  offset="0" style="stop-color:#EAFCD4"/>
					<stop  offset="1" style="stop-color:#EAFCD4;stop-opacity:0"/>
				</linearGradient>
				<path class="st3" d="M422.2,672.6l-12.8-8l-11.7-8.8l-10.5-9.4l-9.4-9.9l-8.2-10.3l-7-10.3l-5.8-10.6l-4.6-10.6l-3.5-10.4
					l-2.4-10.2l-1.4-9.9l-0.3-9.6l0.6-9.3l1.6-9l2.6-8.7l2.2-5.5l4.2-8.2l32.6-55.4c0-0.1,0.1-0.1,0.1-0.2l1-2
					c0.1-0.2,0.2-0.3,0.2-0.5l0.7-2c0.1-0.2,0.1-0.5,0.2-0.7l0.4-2c0.1-0.3,0.1-0.6,0.1-0.9l0.2-2c0-0.3,0-0.6,0-0.9l-0.1-2
					c0-0.3,0-0.6-0.1-0.8l-0.3-2.1c0-0.2-0.1-0.5-0.2-0.7l-0.6-2c-0.1-0.2-0.1-0.4-0.2-0.5l-0.8-1.9c-0.1-0.1-0.1-0.3-0.2-0.4
					l-1-1.9l-0.2-0.3l-1.2-1.8l-0.2-0.2l-1.4-1.8l-0.1-0.2l-1.6-1.7l-0.1-0.1l-1.8-1.6l-0.1-0.1l-2-1.5H379l-2.3-1.4l-1.6-0.8
					l-2.5-1.1l-2.6-1l-2.7-0.8l-2.7-0.5l-2.7-0.4l-2.7-0.2h-2.6l-2.6,0.2l-2.5,0.4l-2.5,0.5l-2.4,0.7l-2.2,0.8h-0.1l-2.1,1h-0.1
					l-2,1.2l-0.1,0.1l-1.8,1.3l-0.1,0.1l-1.7,1.5l-0.1,0.1l-1,1.1l-0.2,0.2l-1.4,1.7l-0.1,0.1l-76.7,109.3l-6.8,8.7l-7.7,8.2
					l-8.6,7.6l-9.4,7l-10.1,6.2l-10.7,5.4l-11.2,4.6L181,591l-11.8,2.8l-11.9,1.7l-11.9,0.7l-11.8-0.4l-11.5-1.5l-11.1-2.5
					l-10.5-3.6l-6.6-2.9l-9.3-5.3l-8.3-6.2l-7-6.8l-5.8-7.2l-4.5-7.6l-3.3-7.7l-2.2-7.8l-1.2-7.9l-0.3-7.9l0.7-7.9l1.6-8l2.5-8
					l3.3-8l4.2-7.8l5-7.6l5.8-7.4l4.3-4.7l7.1-6.9l22.5-20.3l1.9-1.9l0.1-0.1l1.6-1.8l0.2-0.2l1.3-1.9c0.1-0.1,0.1-0.2,0.2-0.3
					l1.1-1.9l0.2-0.4l0.8-1.9c0.1-0.2,0.1-0.3,0.2-0.5l0.6-1.9c0.1-0.2,0.1-0.4,0.2-0.7l0.4-1.8c0-0.3,0.1-0.6,0.1-0.9l0.1-1.8
					c0-0.3,0-0.6,0-1l-0.1-1.7c0-0.3-0.1-0.6-0.1-0.9l-0.3-1.7c-0.1-0.3-0.1-0.5-0.2-0.8l-0.6-1.6c-0.1-0.2-0.2-0.4-0.2-0.6
					l-0.8-1.5c-0.1-0.1-0.2-0.3-0.2-0.4l-1-1.5c-0.1-0.1-0.1-0.2-0.2-0.3l-1.3-1.3l-0.2-0.2l-1.5-1.2l-0.1-0.1l-1.1-0.7h-0.1l-1.8-1
					L-38,329.9v-31.9l6.8-3.8l0.4-0.2l0.4-0.2l0.4-0.2l0.4-0.1l0.4-0.1l0.4-0.1l0.4-0.1h0.4h0.4h0.4h0.8h0.3h0.3h0.3h0.1l0.3,0.1
					l176.5,75.6l6.3,3l5.6,3.4l5,3.8l4.3,4.2l3.6,4.4l2.9,4.7l2.2,4.9l1.5,5l0.8,5.1l0.1,5.3l-0.6,5.6l-1.4,5.9l-2.3,6.3l-3.3,6.5
					l-4.3,6.8l-3.4,4.5l-6.1,6.9l-21.6,22.5l-1.9,2.2l-0.1,0.2l-1.7,2.2l-0.2,0.2l-1.4,2.3l-0.2,0.3l-1.1,2.3
					c-0.1,0.1-0.1,0.3-0.2,0.4l-0.9,2.4c-0.1,0.2-0.1,0.4-0.2,0.5l-0.6,2.4c-0.1,0.2-0.1,0.4-0.1,0.7l-0.3,2.4
					c0,0.3-0.1,0.5-0.1,0.8l-0.1,2.4c0,0.3,0,0.6,0,0.8l0.2,2.3c0,0.3,0.1,0.5,0.1,0.8l0.5,2.3c0,0.2,0.1,0.5,0.2,0.7l0.7,2.2
					c0.1,0.2,0.1,0.4,0.2,0.5l1,2.1c0.1,0.1,0.1,0.3,0.2,0.4l1.3,2c0.1,0.1,0.1,0.2,0.2,0.3l1.6,1.9l0.2,0.2l1.8,1.8l0.1,0.1
					l1.4,1.1l0.1,0.1l2.3,1.5l0.1,0.1l2.5,1.3h0.1l2.7,1h0.1l2.8,0.7h0.1l3,0.5l3.1,0.2h3.1l3.1-0.2l3.1-0.5l3.1-0.7l3-0.9l3-1.2
					l2.8-1.3l2.8-1.6h0.1l2.5-1.7l0.1-0.1l2.4-1.9l0.1-0.1l1.5-1.4l0.1-0.1l2.1-2.3l83.8-98.7l5.1-5.4l5.6-4.9l6-4.3l6.5-3.8
					l6.8-3.3l7.1-2.8l7.4-2.3l7.6-1.8l7.8-1.3l8-0.8l8.1-0.3l8.3,0.2l8.3,0.7l8.4,1.2l8.4,1.8l5.6,1.5l8.4,2.8l8.2,3.3l7.7,3.8
					l7.2,4.2l6.8,4.6l6.3,5l5.7,5.4l5.2,5.7l4.5,6l3.9,6.2l3.2,6.4l2.4,6.5l1.7,6.6l0.8,6.6v6.6l-0.9,6.8l-1.1,4.4l-2.6,7.2
					l-27.2,61.7l-0.1,0.3l-1,2.7c-0.1,0.2-0.1,0.4-0.2,0.6l-0.7,2.7c-0.1,0.2-0.1,0.5-0.1,0.7l-0.3,2.8c0,0.3,0,0.5-0.1,0.8v2.9
					c0,0.2,0,0.5,0,0.8l0.3,2.9c0,0.2,0.1,0.4,0.1,0.7l0.6,2.9c0,0.2,0.1,0.4,0.1,0.5l0.9,2.9c0,0.2,0.1,0.3,0.2,0.4l1.2,2.9
					c0,0.1,0.1,0.2,0.1,0.4l1.5,2.9l0.1,0.3l1.7,2.8l0.1,0.2l2,2.7l0.1,0.2l2.3,2.6l0.1,0.1l2.5,2.5l0.1,0.1l2.8,2.4l0.1,0.1
					l3.1,2.2l2.2,1.4l3.4,1.8L623,679.6v106.6L422.2,672.6z"/>
				
					<ellipse transform="matrix(0.2947 -0.9556 0.9556 0.2947 -169.6749 657.5637)" class="st4" cx="360.6" cy="443.7" rx="12" ry="16"/>
				
					<ellipse transform="matrix(0.2947 -0.9556 0.9556 0.2947 -355.6977 505.5329)" class="st4" cx="164.6" cy="493.7" rx="12" ry="16"/>
				<path class="st5" d="M202.5,689.2c-0.1-1.5-0.5-2.9-1.2-4.2c-0.7-1.3-1.7-2.4-2.9-3.2c-1.2-0.8-2.6-1.4-4-1.5
					c-1.4-0.2-2.9,0-4.3,0.4c-1-2.3-2.6-4.3-4.7-5.7c-2.1-1.4-4.6-2.1-7.1-2.1c-0.6,0-1.2,0.1-1.8,0.1c0,0,0-0.1,0-0.1
					c0-4.7-1.9-9.3-5.2-12.6c-3.3-3.4-7.9-5.2-12.6-5.2s-9.3,1.9-12.6,5.2c-3.3,3.4-5.2,7.9-5.2,12.6c-2,0-3.9,0.5-5.7,1.3
					s-3.3,2.2-4.5,3.8c-1.2,1.6-2,3.4-2.3,5.4c-0.4,2-0.3,4,0.3,5.9L202.5,689.2z"/>
			</g>
		</g>
		<g>
			<defs>
				
					<rect id="SVGID_7_" x="196.3" y="260.8" transform="matrix(0.9741 -0.2263 0.2263 0.9741 -56.1959 57.6832)" width="54.4" height="26.2"/>
			</defs>
			<clipPath id="SVGID_8_">
				<use xlink:href="#SVGID_7_"  style="overflow:visible;"/>
			</clipPath>
			<g class="st6">
				<path class="st7" d="M231.5,278.3c0,0,1.1,3.7,7.9,4.1c0,0,5.9,0.4,8.9-0.9c0.2-0.1,0.4-0.2,0.5-0.4c0.1-0.2,0.2-0.4,0.3-0.6
					c0-0.2,0-0.4,0-0.6c-0.1-0.2-0.2-0.4-0.3-0.6c-2.6-2.5-5.7-4.3-9.1-5.4L231.5,278.3z"/>
				<path class="st7" d="M231.6,266.8c0,0,1.2-3.7,8-3.9c0,0,6-0.2,8.9,1.1c0.2,0.1,0.4,0.2,0.5,0.4c0.1,0.2,0.2,0.4,0.3,0.6
					c0,0.2,0,0.4,0,0.6c-0.1,0.2-0.2,0.4-0.3,0.6c-2.6,2.4-5.8,4.2-9.3,5.2L231.6,266.8z"/>
				<path class="st7" d="M244,272.5c0,0.1,0,0.2,0,0.3c0,0.2-0.1,0.3-0.2,0.5c-0.1,0.1-0.2,0.2-0.4,0.3c-14.6,9.5-34.8,6.6-34.8,6.6
					c-9-1.4-12.3-5.9-13.3-7.6c-0.1-0.2-0.2-0.4-0.2-0.7c0-0.2,0.1-0.5,0.2-0.6c1-1.7,4.4-6.1,13.5-7.3c0,0,20.2-2.4,34.6,7.4
					c0.2,0.1,0.3,0.2,0.4,0.4s0.2,0.3,0.2,0.5L244,272.5z"/>
				<path class="st7" d="M217.8,281.1l-0.3-0.5c-3,0.1-6,0-8.9-0.4c-0.9-0.1-1.7-0.3-2.4-0.5l-0.7,1.2c-0.1,0.2-0.2,0.4-0.2,0.7
					c0,0.2,0,0.5,0.2,0.7c0.1,0.2,0.3,0.4,0.5,0.5c0.2,0.1,0.4,0.2,0.7,0.2l10.2,0.1c0.2,0,0.5-0.1,0.7-0.2c0.2-0.1,0.4-0.3,0.5-0.5
					c0.1-0.2,0.2-0.4,0.2-0.7C218,281.5,218,281.3,217.8,281.1z M207.3,281.6c0,0.1,0,0.2-0.1,0.3c-0.1,0.1-0.2,0.1-0.3,0.1l-0.3,0
					c-0.1,0-0.2-0.1-0.3-0.1c-0.1-0.1-0.1-0.2-0.1-0.3l0-0.2c0-0.1,0.1-0.2,0.1-0.3c0.1-0.1,0.2-0.1,0.3-0.1l0.3,0
					c0.1,0,0.2,0,0.3,0.1c0.1,0.1,0.1,0.2,0.1,0.3L207.3,281.6z M209.2,281.6c0,0.1,0,0.2-0.1,0.3c-0.1,0.1-0.2,0.1-0.3,0.1l-0.3,0
					c-0.1,0-0.1,0-0.2,0c-0.1,0-0.1-0.1-0.1-0.1c0,0-0.1-0.1-0.1-0.1c0-0.1,0-0.1,0-0.2l0-0.2c0-0.1,0-0.1,0-0.2
					c0-0.1,0.1-0.1,0.1-0.1c0,0,0.1-0.1,0.1-0.1s0.1,0,0.2,0l0.3,0c0.1,0,0.2,0.1,0.3,0.1s0.1,0.2,0.1,0.3L209.2,281.6z
					 M211.2,281.6c0,0.1-0.1,0.2-0.1,0.3c-0.1,0.1-0.2,0.1-0.3,0.1l-0.3,0c-0.1,0-0.1,0-0.2,0c-0.1,0-0.1-0.1-0.1-0.1
					c0,0-0.1-0.1-0.1-0.1c0-0.1,0-0.1,0-0.2l0-0.2c0-0.1,0-0.2,0.1-0.3c0.1-0.1,0.2-0.1,0.3-0.1l0.3,0c0.1,0,0.1,0,0.2,0
					s0.1,0.1,0.1,0.1c0,0,0.1,0.1,0.1,0.1c0,0.1,0,0.1,0,0.2L211.2,281.6z M213.1,281.7c0,0.1,0,0.2-0.1,0.3
					c-0.1,0.1-0.2,0.1-0.3,0.1h-0.3c-0.1,0-0.2,0-0.3-0.1c-0.1-0.1-0.1-0.2-0.1-0.3l0-0.2c0-0.1,0.1-0.2,0.1-0.3
					c0.1-0.1,0.2-0.1,0.3-0.1l0.3,0c0.1,0,0.2,0.1,0.3,0.1c0.1,0.1,0.1,0.2,0.1,0.3L213.1,281.7z M215.2,281.7
					c0,0.1-0.1,0.2-0.1,0.3c-0.1,0.1-0.2,0.1-0.3,0.1l-0.3,0c-0.1,0-0.2,0-0.3-0.1c-0.1-0.1-0.1-0.2-0.1-0.3l0-0.2
					c0-0.1,0-0.2,0.1-0.3c0.1-0.1,0.2-0.1,0.3-0.1l0.3,0c0.1,0,0.2,0,0.3,0.1c0.1,0.1,0.1,0.2,0.1,0.3L215.2,281.7z M217.3,281.7
					c0,0.1-0.1,0.2-0.1,0.3c-0.1,0.1-0.2,0.1-0.3,0.1l-0.3,0c-0.1,0-0.1,0-0.2,0c-0.1,0-0.1-0.1-0.1-0.1c0,0-0.1-0.1-0.1-0.1
					c0-0.1,0-0.1,0-0.2l0-0.2c0-0.1,0-0.1,0-0.2c0-0.1,0.1-0.1,0.1-0.1c0,0,0.1-0.1,0.1-0.1c0.1,0,0.1,0,0.2,0l0.3,0
					c0.1,0,0.2,0,0.3,0.1c0.1,0.1,0.1,0.2,0.1,0.3L217.3,281.7z"/>
				<path class="st8" d="M244,272.5c-32.8-10.5-48.9-0.6-48.9-0.6c0-0.2,0.1-0.5,0.2-0.6c1-1.7,4.4-6.1,13.5-7.3
					c0,0,20.2-2.4,34.6,7.4c0.2,0.1,0.3,0.3,0.4,0.5C244,272.1,244,272.3,244,272.5z"/>
				<path class="st7" d="M244,272.5c-16,0.9-48.9-0.6-48.9-0.6c16.1-9.5,44.6-0.9,48.9,0.4L244,272.5z"/>
				<path class="st8" d="M244,272.5c0,0.1,0,0.2,0,0.3c-36.8,9.4-48.9-0.9-48.9-0.9L244,272.5z"/>
			</g>
		</g>
	</g>
</g>
<g>
	<defs>
		<rect id="SVGID_9_" x="74" y="157" width="376" height="94"/>
	</defs>
	<clipPath id="SVGID_10_">
		<use xlink:href="#SVGID_9_"  style="overflow:visible;"/>
	</clipPath>
	<g class="st9">
		<path class="st10" d="M450,240.9c-0.1-1.5-0.5-2.9-1.2-4.2c-0.7-1.3-1.7-2.4-2.9-3.2c-1.2-0.8-2.6-1.4-4-1.5
			c-1.4-0.2-2.9,0-4.3,0.4c-1-2.3-2.6-4.3-4.7-5.7c-2.1-1.4-4.6-2.1-7.1-2.1c-0.6,0-1.2,0.1-1.8,0.1c0,0,0-0.1,0-0.1
			c0-4.7-1.9-9.3-5.2-12.6c-3.4-3.4-7.9-5.2-12.6-5.2c-4.7,0-9.3,1.9-12.6,5.2c-3.4,3.4-5.2,7.9-5.2,12.6c-2,0-3.9,0.5-5.7,1.3
			c-1.8,0.9-3.3,2.2-4.5,3.8c-1.2,1.6-2,3.4-2.3,5.4c-0.4,1.9-0.3,4,0.3,5.9L450,240.9z"/>
		<path class="st11" d="M74,251c0.1-1.4,0.4-2.7,1.1-4c0.7-1.2,1.6-2.3,2.8-3c1.1-0.8,2.5-1.3,3.8-1.5c1.4-0.2,2.8,0,4.1,0.4
			c0.9-2.2,2.5-4.1,4.5-5.4c2-1.3,4.3-2,6.7-2c0.6,0,1.2,0.1,1.7,0.1c0,0,0-0.1,0-0.1c0.2-4.3,2.1-8.4,5.2-11.4
			c3.2-3,7.3-4.7,11.7-4.7s8.5,1.7,11.7,4.7c3.2,3,5,7.1,5.2,11.4c1.9,0,3.7,0.4,5.4,1.3c1.7,0.8,3.1,2.1,4.3,3.6
			c1.1,1.5,1.9,3.2,2.2,5.1c0.3,1.8,0.2,3.8-0.3,5.6L74,251z"/>
		<path class="st11" d="M130.5,157c2.5,0,4.9,0.9,6.8,2.5c1.9,1.6,3.3,3.8,3.8,6.2c0.9-0.9,2.1-1.6,3.3-1.9c1.3-0.3,2.6-0.2,3.8,0.2
			c1.2,0.4,2.3,1.2,3.1,2.3c0.8,1,1.2,2.3,1.3,3.6l-32.8-0.1c-0.1-0.7-0.2-1.4-0.2-2c0-1.4,0.3-2.8,0.8-4.2c0.5-1.3,1.4-2.5,2.4-3.5
			c1-1,2.2-1.8,3.5-2.3C127.7,157.3,129.1,157,130.5,157z"/>
	</g>
</g>
<path class="st7" d="M330.7,383.4c-9.6-6.4-16.9-15.8-20.7-26.6c-3.8-10.8-4-22.6-0.5-33.5c3.5-10.9,10.5-20.5,19.9-27.2
	c9.4-6.7,20.8-10.2,32.4-10.1c11.6,0.2,22.9,4.1,32.1,11c9.2,7,15.9,16.7,19,27.8c3.2,11,2.6,22.8-1.5,33.5
	c-4.1,10.7-11.7,19.8-21.5,26c-10.7,6.8-20.3,15.2-28.5,24.9l-0.7,0.8l-0.2-0.3C351.9,399.6,341.8,390.8,330.7,383.4z"/>
<linearGradient id="SVGID_11_" gradientUnits="userSpaceOnUse" x1="361.19" y1="466.4911" x2="361.19" y2="348.89" gradientTransform="matrix(1 0 0 -1 0 755.89)">
	<stop  offset="0" style="stop-color:#9DE1EA"/>
	<stop  offset="1" style="stop-color:#D3F2AC"/>
</linearGradient>
<path class="st12" d="M332.6,381.8c-9-6.1-15.9-15-19.4-25.3c-3.6-10.3-3.7-21.4-0.4-31.8c3.3-10.4,9.9-19.4,18.7-25.8
	c8.9-6.4,19.6-9.7,30.5-9.5c10.9,0.2,21.5,3.8,30.2,10.5s15,15.9,17.9,26.4s2.5,21.6-1.4,31.8c-3.9,10.2-11,18.8-20.2,24.6
	c-10.1,6.5-19.1,14.4-26.8,23.6L361,407l-0.2-0.2C352.7,397.1,343.2,388.7,332.6,381.8z"/>
<path class="st13" d="M395.1,346.8c3.3-18.7-9.2-36.5-28-39.8c-18.8-3.3-36.7,9.2-40,27.9c-3.3,18.7,9.2,36.5,28,39.8
	C373.9,378,391.8,365.5,395.1,346.8z"/>
<path class="st7" d="M134.7,443.4c-9.6-6.4-16.9-15.8-20.7-26.6c-3.8-10.8-4-22.6-0.5-33.5c3.5-10.9,10.5-20.5,19.9-27.2
	c9.4-6.7,20.8-10.2,32.4-10.1c11.6,0.2,22.9,4.1,32.1,11c9.2,7,15.9,16.7,19,27.8c3.2,11,2.6,22.8-1.5,33.5
	c-4.1,10.7-11.7,19.8-21.5,26c-10.7,6.8-20.3,15.2-28.5,24.9l-0.7,0.8l-0.2-0.3C155.9,459.6,145.8,450.8,134.7,443.4z"/>
<linearGradient id="SVGID_12_" gradientUnits="userSpaceOnUse" x1="165.5" y1="406.8901" x2="165.5" y2="288.89" gradientTransform="matrix(1 0 0 -1 0 755.89)">
	<stop  offset="0" style="stop-color:#E0BDFB"/>
	<stop  offset="1" style="stop-color:#FFD7C6"/>
</linearGradient>
<path class="st14" d="M137.1,441.7c-9-6.1-15.8-15-19.3-25.3c-3.6-10.3-3.7-21.5-0.4-31.9c3.3-10.4,9.8-19.5,18.6-25.9
	c8.8-6.4,19.4-9.7,30.3-9.6c10.9,0.2,21.4,3.9,30,10.5c8.6,6.7,14.9,15.9,17.8,26.4c3,10.5,2.5,21.7-1.4,31.9
	c-3.9,10.2-10.9,18.9-20.1,24.7c-10,6.5-19,14.5-26.6,23.7l-0.6,0.8l-0.2-0.2C157,457.1,147.6,448.7,137.1,441.7z"/>
<path class="st13" d="M198.9,406.8c3.3-18.7-9.2-36.5-27.9-39.8c-18.7-3.3-36.6,9.2-39.9,27.9c-3.3,18.7,9.2,36.5,27.9,39.8
	C177.7,438,195.6,425.5,198.9,406.8z"/>
</svg>
