<?xml version="1.0" encoding="utf-8"?>
<!-- Generator: Adobe Illustrator 25.3.1, SVG Export Plug-In . SVG Version: 6.00 Build 0)  -->
<svg version="1.1" xmlns="http://www.w3.org/2000/svg" xmlns:xlink="http://www.w3.org/1999/xlink" x="0px" y="0px"
	 viewBox="0 0 1083.7 2274" style="enable-background:new 0 0 1083.7 2274;" xml:space="preserve">
<style type="text/css">
	.st0{fill:#F6E6D2;}
	.st1{clip-path:url(#SVGID_2_);}
	.st2{clip-path:url(#SVGID_4_);}
	.st3{fill:#E9B522;}
	.st4{fill:#F7DE61;}
	.st5{fill:#CE9811;}
	.st6{fill:#FFF2BD;}
	.st7{fill:#B27E09;}
	.st8{clip-path:url(#SVGID_6_);}
</style>
<g id="Background">
</g>
<g id="Graphic_Element">
	<g>
		
			<ellipse transform="matrix(0.9994 -3.369645e-02 3.369645e-02 0.9994 -4.7782 26.6255)" class="st3" cx="787.5" cy="155.1" rx="129.7" ry="129.7"/>
		<path class="st4" d="M787.5,310.1c-85.5,0-155.1-69.6-155.1-155.1S702,0,787.5,0s155.1,69.6,155.1,155.1S873.1,310.1,787.5,310.1z
			 M787.5,25.4c-71.5,0-129.7,58.2-129.7,129.7s58.2,129.7,129.7,129.7s129.7-58.2,129.7-129.7S859,25.4,787.5,25.4z"/>
		<path class="st5" d="M829,211.7c-6.8,6.7-15.9,10.8-27.3,12.5v20h-18.4v-19.6c-8-0.6-15.5-2.2-22.4-4.7
			c-6.9-2.5-12.9-5.9-18.1-10.3l7.9-16.9c10.4,8.2,21.7,12.7,33.9,13.5v-37.5c-8-2-14.8-4.3-20.4-6.8c-5.5-2.5-10.1-6.1-13.9-11
			c-3.7-4.9-5.6-11.2-5.6-19c0-6.5,1.6-12.4,4.9-17.7c3.2-5.3,7.8-9.8,13.6-13.3c5.8-3.5,12.5-5.8,20.1-6.8v-20h18.4V94
			c7,0.8,13.5,2.5,19.6,5c6.1,2.5,11.3,5.7,15.5,9.5l-7.9,16.9c-8.8-7.2-18.3-11.5-28.5-13v39.1c8,2,14.7,4.2,20,6.6
			c5.3,2.3,9.7,5.9,13.3,10.5c3.6,4.7,5.4,10.8,5.4,18.4C839.2,196.9,835.8,205.1,829,211.7z M772.3,141c2.9,2.6,7,4.8,12.2,6.6
			v-34.8c-5.2,1.1-9.2,3.2-12.2,6.3c-2.9,3.1-4.4,7-4.4,11.7C768,135,769.5,138.4,772.3,141z M812,199.3c2.6-2.9,4-6.8,4-11.4
			c0-3.7-1.3-6.7-4-9c-2.6-2.3-6.5-4.2-11.5-5.8v32.2C805.5,204.3,809.3,202.3,812,199.3z"/>
		<path class="st6" d="M641.9,155.1c0-83.9,67-152.5,150.3-155c-1.6,0-3.1-0.1-4.7-0.1C702,0,632.5,69.6,632.5,155.1
			S702,310.1,787.5,310.1c1.6,0,3.2,0,4.7-0.1C708.9,307.6,641.9,239,641.9,155.1z"/>
		<path class="st5" d="M787.5,25.4c-1.4,0-2.8,0-4.1,0.1C853,27.7,908.9,85,908.9,155.1S853,282.5,783.4,284.7
			c1.4,0,2.8,0.1,4.1,0.1c71.5,0,129.7-58.2,129.7-129.7S859,25.4,787.5,25.4z"/>
		<path class="st4" d="M768.9,136.8c2.9,2.6,7,4.8,12.2,6.6v-34.8c-5.2,1.1-9.2,3.2-12.2,6.3c-2.9,3.1-4.4,7-4.4,11.7
			C764.6,130.8,766,134.2,768.9,136.8z M808.5,195.1c2.6-2.9,4-6.8,4-11.4c0-3.7-1.3-6.7-4-9c-2.6-2.3-6.5-4.2-11.5-5.8v32.2
			C802,200.1,805.9,198.1,808.5,195.1z M825.5,207.6c-6.8,6.7-15.9,10.8-27.3,12.5v20h-18.4v-19.6c-8-0.6-15.5-2.2-22.4-4.7
			c-6.9-2.5-12.9-5.9-18.1-10.3l7.9-16.9c10.4,8.2,21.7,12.7,33.9,13.5v-37.5c-8-2-14.8-4.3-20.4-6.8c-5.5-2.5-10.1-6.1-13.9-11
			c-3.7-4.9-5.6-11.2-5.6-19c0-6.5,1.6-12.4,4.9-17.7c3.2-5.3,7.8-9.8,13.6-13.3c5.8-3.5,12.5-5.8,20.1-6.8v-20h18.4v19.8
			c7,0.8,13.5,2.5,19.6,5c6.1,2.5,11.3,5.7,15.5,9.5l-7.9,16.9c-8.8-7.2-18.3-11.5-28.5-13v39.1c8,2,14.7,4.2,20,6.6
			c5.3,2.3,9.7,5.9,13.3,10.5c3.6,4.7,5.4,10.8,5.4,18.4C835.7,192.7,832.3,200.9,825.5,207.6z"/>
	</g>
	<g>
		<g>
			
				<ellipse transform="matrix(0.4851 -0.8744 0.8744 0.4851 -693.2128 511.5746)" class="st3" cx="87.8" cy="844.5" rx="45.3" ry="70.9"/>
			<path class="st4" d="M61.5,891.8c-40.9-22.7-62.3-62.4-47.9-88.5c14.5-26.1,59.5-28.9,100.4-6.2c40.9,22.7,62.3,62.4,47.9,88.5
				C147.5,911.7,102.4,914.5,61.5,891.8z M109.8,804.9c-34.2-19-71.8-16.6-84,5.2c-12.1,21.8,5.8,55,40,74c34.2,19,71.8,16.6,84-5.2
				C161.9,857,144,823.8,109.8,804.9z"/>
			<path class="st5" d="M98,872.8c-4.4,0.2-9.4-0.9-15.2-3.4l-3.4,6.1l-8.8-4.9l3.3-6c-3.7-2.3-7.1-4.8-9.9-7.4
				c-2.9-2.6-5.2-5.2-6.9-7.9l6.7-3.1c3.6,5.3,8.2,9.6,13.9,13.1l6.4-11.4c-3.5-2.8-6.4-5.2-8.6-7.5c-2.2-2.2-3.8-4.6-4.8-7
				c-1-2.5-0.8-4.9,0.6-7.3c1.1-2,2.9-3.4,5.3-4.1c2.5-0.8,5.4-0.9,8.8-0.5c3.4,0.5,7,1.6,10.7,3.3l3.4-6.1l8.8,4.9l-3.4,6.1
				c3.2,2.1,6,4.4,8.5,6.7c2.5,2.4,4.4,4.7,5.8,7l-6.7,3.1c-3-4.5-6.8-8.4-11.4-11.5l-6.6,11.9c3.5,2.8,6.3,5.2,8.4,7.3
				c2.1,2.1,3.7,4.4,4.6,6.8c0.9,2.4,0.8,4.7-0.5,7C105.4,870.9,102.4,872.5,98,872.8z M82.9,836.1c0.9,1.6,2.5,3.3,4.7,5.3
				l5.9-10.6c-2.7-1-4.9-1.5-6.9-1.3c-1.9,0.2-3.3,1-4.1,2.4C81.9,833.1,82,834.6,82.9,836.1z M92,864.5c1.8-0.2,3-1,3.8-2.4
				c0.6-1.1,0.5-2.4-0.4-3.8c-0.9-1.4-2.4-3-4.5-4.8l-5.5,9.9C88.1,864.2,90.2,864.7,92,864.5z"/>
			<path class="st6" d="M18.2,805.8c14.2-25.6,57.9-28.8,98.1-7.5c-0.7-0.4-1.5-0.9-2.2-1.3c-40.9-22.7-85.9-19.9-100.4,6.2
				c-14.5,26.1,7,65.8,47.9,88.5c0.8,0.4,1.5,0.8,2.3,1.2C24.4,870.2,4,831.5,18.2,805.8z"/>
			<path class="st5" d="M109.8,804.9c-0.7-0.4-1.3-0.7-2-1.1c32.9,19.1,49.9,51.5,38,72.9c-11.9,21.4-48.3,24.1-82,6.3
				c0.7,0.4,1.3,0.8,2,1.1c34.2,19,71.8,16.6,84-5.2C161.9,857,144,823.8,109.8,804.9z"/>
			<path class="st4" d="M82,833.9c0.9,1.6,2.5,3.3,4.7,5.3l5.9-10.6c-2.7-1-4.9-1.5-6.9-1.3c-1.9,0.2-3.3,1-4.1,2.4
				C81,831,81.1,832.4,82,833.9z M91.1,862.3c1.8-0.2,3-1,3.8-2.4c0.6-1.1,0.5-2.4-0.4-3.8c-0.9-1.4-2.4-3-4.5-4.8l-5.5,9.9
				C87.1,862.1,89.3,862.5,91.1,862.3z M97.1,870.6c-4.4,0.2-9.4-0.9-15.2-3.4l-3.4,6.1l-8.8-4.9l3.3-6c-3.7-2.3-7.1-4.8-9.9-7.4
				c-2.9-2.6-5.2-5.2-6.9-7.9l6.7-3.1c3.6,5.3,8.2,9.6,13.9,13.1l6.4-11.4c-3.5-2.8-6.4-5.2-8.6-7.5c-2.2-2.2-3.8-4.6-4.8-7
				c-1-2.5-0.8-4.9,0.6-7.3c1.1-2,2.9-3.4,5.3-4.1c2.5-0.8,5.4-0.9,8.8-0.5c3.4,0.5,7,1.6,10.7,3.3l3.4-6.1l8.8,4.9l-3.4,6.1
				c3.2,2.1,6,4.4,8.5,6.7c2.5,2.4,4.4,4.7,5.8,7l-6.7,3.1c-3-4.5-6.8-8.4-11.4-11.5l-6.6,11.9c3.5,2.8,6.3,5.2,8.4,7.3
				c2.1,2.1,3.7,4.4,4.6,6.8c0.9,2.4,0.8,4.7-0.5,7C104.5,868.7,101.5,870.3,97.1,870.6z"/>
		</g>
		<path class="st7" d="M153.3,900.9l0.1,0.1l8.5-15.4c-14.5,26.1-59.5,28.9-100.4,6.2c-40.9-22.7-62.3-62.4-47.9-88.5
			c0,0-9.4,16.9-9.8,17.7c-13.4,24.1,9,62.1,49.9,84.8c40.9,22.7,85,21.5,98.4-2.5C152.6,902.5,153,901.7,153.3,900.9z"/>
	</g>
	<g>
		<g>
			
				<ellipse transform="matrix(0.9152 -0.403 0.403 0.9152 -284.0571 300.5426)" class="st3" cx="572.2" cy="825.3" rx="128" ry="81.8"/>
			<path class="st4" d="M611.6,914.8c-77.3,34-157.8,21.5-179.5-27.8c-21.7-49.4,23.4-117.2,100.7-151.2
				c77.3-34,157.8-21.5,179.5,27.8C734,813,688.9,880.8,611.6,914.8z M539.2,750.4c-64.6,28.4-102.4,85.2-84.2,126.4
				c18.2,41.3,85.5,51.7,150.1,23.3c64.6-28.4,102.4-85.2,84.2-126.4C671.2,732.5,603.8,722,539.2,750.4z"/>
			<path class="st5" d="M624,841.5c-4.4,6.5-11.6,12.6-21.5,18.1l5.1,11.5l-16.6,7.3l-5-11.3c-7.4,2.9-14.6,4.9-21.5,6.2
				c-6.9,1.3-13.2,1.7-19,1.3l2.9-12.9c11.5,0.6,22.9-1.3,34-5.7l-9.5-21.6c-7.8,2-14.5,3.4-20.1,4.2c-5.6,0.8-10.7,0.5-15.3-0.8
				c-4.6-1.3-7.9-4.2-9.9-8.8c-1.6-3.7-1.7-7.8-0.1-12.2c1.6-4.4,4.5-8.7,8.9-13.1c4.4-4.4,9.8-8.3,16.4-11.9l-5.1-11.5l16.6-7.3
				l5,11.4c6.5-2.3,12.8-3.9,19-4.9c6.2-1,11.6-1.2,16.4-0.6l-2.9,12.9c-9.8-0.7-19.4,0.6-29,3.8l9.9,22.6c7.8-2,14.4-3.4,19.7-4.2
				c5.4-0.8,10.3-0.5,14.7,0.8c4.4,1.3,7.6,4.1,9.6,8.5C629.4,828.9,628.5,835,624,841.5z M554.9,823.2c3.3,0.3,7.5,0,12.7-1.1
				l-8.8-20.1c-4.4,2.7-7.5,5.5-9.4,8.5c-1.9,3-2.2,5.8-1,8.5C549.4,821.5,551.6,822.9,554.9,823.2z M605.5,841.1
				c1.6-2.7,1.9-5.5,0.7-8.2c-0.9-2.1-2.9-3.4-5.9-3.6c-3-0.3-6.9,0.2-11.9,1.3l8.2,18.6C600.9,846.6,603.9,843.9,605.5,841.1z"/>
			<path class="st6" d="M440.6,883.2c-21.3-48.5,21.8-114.7,96.4-149.3c-1.4,0.6-2.9,1.2-4.3,1.8c-77.3,34-122.4,101.9-100.7,151.2
				c21.7,49.4,102.3,61.9,179.5,27.8c1.4-0.6,2.8-1.3,4.3-1.9C539.9,944.6,462,931.7,440.6,883.2z"/>
			<path class="st5" d="M539.2,750.4c-1.3,0.6-2.5,1.1-3.7,1.7c63.4-26.4,128.5-15.6,146.3,24.9c17.8,40.5-18.1,95.8-80.5,124.7
				c1.3-0.5,2.5-1.1,3.8-1.6c64.6-28.4,102.4-85.2,84.2-126.4C671.2,732.5,603.8,722,539.2,750.4z"/>
			<path class="st4" d="M550.7,822.2c3.3,0.3,7.5,0,12.7-1.1l-8.8-20.1c-4.4,2.7-7.5,5.5-9.4,8.5c-1.9,3-2.2,5.8-1,8.5
				C545.3,820.4,547.4,821.8,550.7,822.2z M601.3,840.1c1.6-2.7,1.9-5.5,0.7-8.2c-0.9-2.1-2.9-3.4-5.9-3.6c-3-0.3-6.9,0.2-11.9,1.3
				l8.2,18.6C596.7,845.5,599.7,842.9,601.3,840.1z M619.9,840.5c-4.4,6.5-11.6,12.6-21.5,18.1l5.1,11.5l-16.6,7.3l-5-11.3
				c-7.4,2.9-14.6,4.9-21.5,6.2c-6.9,1.3-13.2,1.7-19,1.3l2.9-12.9c11.5,0.6,22.9-1.3,34-5.7l-9.5-21.6c-7.8,2-14.5,3.4-20.1,4.2
				c-5.6,0.8-10.7,0.5-15.3-0.8c-4.6-1.3-7.9-4.2-9.9-8.8c-1.6-3.7-1.7-7.8-0.1-12.2c1.6-4.4,4.5-8.7,8.9-13.1
				c4.4-4.4,9.8-8.3,16.4-11.9l-5.1-11.5l16.6-7.3l5,11.4c6.5-2.3,12.8-3.9,19-4.9c6.2-1,11.6-1.2,16.4-0.6l-2.9,12.9
				c-9.8-0.7-19.4,0.6-29,3.8l9.9,22.6c7.8-2,14.4-3.4,19.7-4.2c5.4-0.8,10.3-0.5,14.7,0.8c4.4,1.3,7.6,4.1,9.6,8.5
				C625.3,827.9,624.3,834,619.9,840.5z"/>
		</g>
		<path class="st7" d="M724.9,792.7l0.2-0.1l-12.8-29C734,813,688.9,880.8,611.6,914.8c-77.3,34-157.8,21.5-179.5-27.8
			c0,0,14.1,32,14.7,33.5c20,45.5,99.2,54.9,176.4,20.8c77.3-34,123.8-98.7,103.8-144.2C726.4,795.6,725.6,794.1,724.9,792.7z"/>
	</g>
	<g>
		
			<ellipse transform="matrix(0.5104 -0.8599 0.8599 0.5104 -1508.9064 1684.4711)" class="st7" cx="724.9" cy="2167.4" rx="104.8" ry="111.6"/>
		<g>
			
				<ellipse transform="matrix(0.5105 -0.8599 0.8599 0.5105 -1498.4166 1684.334)" class="st3" cx="730.1" cy="2158.2" rx="87.6" ry="93.3"/>
			<path class="st4" d="M657.6,2074.3c45.5-36.3,115.1-28.1,155,18.1c39.9,46.3,35.4,113.4-10.1,149.7
				c-45.5,36.3-115.1,28.1-155-18.1C607.6,2177.7,612.1,2110.6,657.6,2074.3z M790.7,2228.3c38.1-30.3,41.9-86.5,8.5-125.1
				c-33.4-38.7-91.5-45.5-129.6-15.1c-38.1,30.3-41.9,86.5-8.5,125.1C694.5,2251.9,752.6,2258.7,790.7,2228.3z"/>
			<path class="st6" d="M807.6,2096.4c39.2,45.4,35.6,110.9-7.7,147.6c0.9-0.6,1.7-1.3,2.6-2c45.5-36.3,50.1-103.4,10.1-149.7
				c-39.9-46.3-109.5-54.4-155-18.1c-0.8,0.7-1.7,1.4-2.5,2C700.7,2042.4,768.4,2051,807.6,2096.4z"/>
			<path class="st5" d="M790.7,2228.3c0.7-0.6,1.5-1.2,2.2-1.8c-38.1,28.3-94.6,21.1-127.4-16.9c-32.8-37.9-29.7-92.6,6.3-123.3
				c-0.8,0.6-1.5,1.1-2.2,1.7c-38.1,30.3-41.9,86.5-8.5,125.1C694.5,2251.9,752.6,2258.7,790.7,2228.3z"/>
			<g>
				<path class="st5" d="M679.8,2161.1c-1.7-6.3-1-13,2.1-20.2l-12.4-7.1l6.6-10.6l12.2,7c3.3-4.4,6.9-8.2,11-11.3
					c4.1-3.1,8.4-5.4,12.9-6.8l7.6,10.6c-8.8,3.1-15.7,8-20.6,14.8l23.2,13.3c4.2-3.9,8-7,11.5-9.4c3.5-2.3,7.5-3.7,11.8-4.1
					c4.4-0.4,9,0.8,13.8,3.5c4,2.3,7.1,5.3,9.3,9.1c2.1,3.8,3.3,8,3.4,12.6c0.1,4.6-0.9,9.3-3.1,14l12.4,7.1l-6.6,10.6l-12.3-7
					c-3,3.7-6.4,6.9-10.2,9.5c-3.8,2.6-7.6,4.5-11.5,5.6l-7.6-10.6c7.6-2.5,13.7-6.4,18.3-11.8l-24.3-13.9c-4.2,3.9-7.9,7-11.3,9.2
					c-3.4,2.2-7.1,3.5-11.4,4c-4.2,0.4-8.7-0.7-13.4-3.4C685.4,2172.3,681.5,2167.4,679.8,2161.1z M744.2,2153.6
					c-2.6,0.7-5.5,2.3-8.5,4.7l21.6,12.3c1.2-3.4,1.4-6.4,0.5-9.3c-0.9-2.8-2.8-5-5.7-6.7C749.5,2153.2,746.8,2152.8,744.2,2153.6z
					 M693.7,2155.7c0.9,2.6,2.8,4.7,5.7,6.3c2.3,1.3,4.6,1.6,7,0.9c2.4-0.7,4.9-2.3,7.7-4.6l-20-11.4
					C692.9,2150.2,692.8,2153.2,693.7,2155.7z"/>
				<path class="st4" d="M748,2153.1c-2.6,0.7-5.5,2.3-8.5,4.7l21.6,12.3c1.2-3.4,1.4-6.4,0.5-9.3c-0.9-2.8-2.8-5-5.7-6.7
					C753.3,2152.7,750.7,2152.3,748,2153.1z M697.5,2155.2c0.9,2.6,2.8,4.7,5.7,6.3c2.3,1.3,4.6,1.6,7,0.9c2.4-0.7,4.9-2.3,7.7-4.6
					l-20-11.4C696.8,2149.7,696.6,2152.7,697.5,2155.2z M683.6,2160.6c-1.7-6.3-1-13,2.1-20.2l-12.4-7.1l6.6-10.6l12.2,7
					c3.3-4.4,6.9-8.2,11-11.3c4.1-3.1,8.4-5.4,12.9-6.8l7.6,10.6c-8.8,3.1-15.7,8-20.6,14.8l23.2,13.3c4.2-3.9,8-7,11.5-9.4
					c3.5-2.3,7.5-3.7,11.8-4.1c4.4-0.4,9,0.8,13.8,3.5c4,2.3,7.1,5.3,9.3,9.1c2.1,3.8,3.3,8,3.4,12.6c0.1,4.6-0.9,9.3-3.1,14
					l12.4,7.1l-6.6,10.6l-12.3-7c-3,3.7-6.4,6.9-10.2,9.5c-3.8,2.6-7.6,4.5-11.5,5.6l-7.6-10.6c7.6-2.5,13.7-6.4,18.3-11.8
					l-24.3-13.9c-4.2,3.9-7.9,7-11.3,9.2c-3.4,2.2-7.1,3.5-11.4,4c-4.2,0.4-8.7-0.7-13.4-3.4
					C689.2,2171.8,685.3,2166.9,683.6,2160.6z"/>
			</g>
		</g>
	</g>
	<g>
		
			<ellipse transform="matrix(0.7241 -0.6897 0.6897 0.7241 -890.5443 891.5964)" class="st4" cx="669.2" cy="1558.9" rx="77.7" ry="48.1"/>
		<path class="st7" d="M731.3,1514.3c2.1,7.1-0.3,16.6-2.4,26c-7.8,34.2-42.7,68.9-77.8,77.5c-15.5,3.8-28.5,1.8-37.5-4.4
			c-0.1,0.4,9.9,16.1,26.9,17.1c19,1.1,50.4-9.6,73-34.5c31.1-34.4,26.2-55.8,25.9-60.5C739,1526.2,731.7,1514.3,731.3,1514.3z"/>
		<g>
			
				<ellipse transform="matrix(0.7241 -0.6897 0.6897 0.7241 -890.5469 891.6027)" class="st3" cx="669.2" cy="1558.9" rx="64.9" ry="40.2"/>
			<path class="st4" d="M655.1,1620.9c-35.2,8.5-57.5-12.3-49.7-46.5s42.7-68.9,77.8-77.5c35.2-8.5,57.5,12.3,49.7,46.5
				C725.2,1577.6,690.3,1612.4,655.1,1620.9z M680.9,1507.1c-29.4,7.1-58.6,36.2-65.1,64.8c-6.5,28.6,12.2,46,41.6,38.9
				c29.4-7.1,58.6-36.2,65.1-64.8C729,1517.4,710.3,1500,680.9,1507.1z"/>
			<path class="st5" d="M681.1,1577.4c-3.4,3.3-7.5,5.9-12.4,7.7l-1.8,8l-7.6,1.8l1.8-7.8c-3.3,0.6-6.2,0.7-8.8,0.4
				c-2.6-0.3-4.8-1.1-6.5-2.3l4.8-7.6c3.6,2.2,7.8,2.9,12.7,2l3.4-15c-3.1,0-5.7-0.2-7.8-0.7c-2-0.4-3.6-1.4-4.7-3
				c-1.1-1.6-1.3-3.9-0.6-7c0.6-2.6,1.8-5.1,3.6-7.6c1.8-2.5,4.1-4.7,6.8-6.7c2.7-2,5.7-3.6,8.9-4.7l1.8-8l7.6-1.8l-1.8,7.9
				c2.8-0.4,5.3-0.3,7.6,0.1c2.3,0.4,4.1,1.2,5.5,2.3l-4.8,7.6c-3-2-6.5-2.8-10.5-2.3l-3.5,15.6c3.1,0,5.7,0.2,7.6,0.6
				c2,0.4,3.5,1.4,4.5,2.9c1.1,1.5,1.2,3.8,0.6,6.8C686.6,1570.5,684.5,1574.1,681.1,1577.4z M664.2,1554.8c1,0.7,2.4,1.2,4.4,1.4
				l3.2-13.9c-2.2,0.9-4.1,2.2-5.6,3.7c-1.5,1.5-2.5,3.2-2.9,5.1C663,1552.9,663.2,1554.1,664.2,1554.8z M675.2,1574.2
				c1.4-1.4,2.2-3.1,2.7-5c0.3-1.5,0.1-2.6-0.8-3.2c-0.9-0.6-2.3-1-4.2-1.2l-2.9,12.9C672.1,1576.8,673.8,1575.6,675.2,1574.2z"/>
			<path class="st6" d="M609.3,1573.5c7.6-33.5,41.4-67.6,75.9-77c-0.6,0.1-1.3,0.3-1.9,0.4c-35.2,8.5-70.1,43.3-77.8,77.5
				s14.5,55,49.7,46.5c0.7-0.2,1.3-0.3,2-0.5C623,1627.7,601.7,1607,609.3,1573.5z"/>
			<path class="st5" d="M680.9,1507.1c-0.6,0.1-1.1,0.3-1.7,0.4c28.4-6.1,46.2,11.2,39.9,39.3c-6.4,28-34.5,56.5-63.3,64.3
				c0.6-0.1,1.1-0.2,1.7-0.4c29.4-7.1,58.6-36.2,65.1-64.8C729,1517.4,710.3,1500,680.9,1507.1z"/>
			<path class="st4" d="M663.2,1553.5c1,0.7,2.4,1.2,4.4,1.4l3.2-13.9c-2.2,0.9-4.1,2.2-5.6,3.7c-1.5,1.5-2.5,3.2-2.9,5.1
				C661.9,1551.5,662.2,1552.7,663.2,1553.5z M674.2,1572.8c1.4-1.4,2.2-3.1,2.7-5c0.3-1.5,0.1-2.6-0.8-3.2c-0.9-0.6-2.3-1-4.2-1.2
				l-2.9,12.9C671,1575.5,672.8,1574.3,674.2,1572.8z M680,1576.1c-3.4,3.3-7.5,5.9-12.4,7.7l-1.8,8l-7.6,1.8l1.8-7.8
				c-3.3,0.6-6.2,0.7-8.8,0.4c-2.6-0.3-4.8-1.1-6.5-2.3l4.8-7.6c3.6,2.2,7.8,2.9,12.7,2l3.4-15c-3.1,0-5.7-0.2-7.8-0.7
				c-2-0.4-3.6-1.4-4.7-3c-1.1-1.6-1.3-3.9-0.6-7c0.6-2.6,1.8-5.1,3.6-7.6c1.8-2.5,4.1-4.7,6.8-6.7c2.7-2,5.7-3.6,8.9-4.7l1.8-8
				l7.6-1.8l-1.8,7.9c2.8-0.4,5.3-0.3,7.6,0.1c2.3,0.4,4.1,1.2,5.5,2.3l-4.8,7.6c-3-2-6.5-2.8-10.5-2.3l-3.5,15.6
				c3.1,0,5.7,0.2,7.6,0.6c2,0.4,3.5,1.4,4.5,2.9c1.1,1.5,1.2,3.8,0.6,6.8C685.6,1569.2,683.4,1572.8,680,1576.1z"/>
		</g>
	</g>
	<g>
		
			<ellipse transform="matrix(0.9238 -0.3828 0.3828 0.9238 -371.4082 438.4977)" class="st4" cx="916.3" cy="1152.6" rx="107.5" ry="66.6"/>
		<path class="st7" d="M1018.8,1126c-0.8,10.2-8.6,21.3-16,32.4c-27,40.3-89.5,67.8-139.1,61.3c-21.9-2.9-37.7-11.8-46.2-24.4
			c-0.4,0.5,4.8,25.8,26.2,35.5c24,10.9,69.9,12.7,111.5-8.2c57.3-29,61.6-59,63.7-65.3C1022.7,1145.2,1019.2,1126.2,1018.8,1126z"
			/>
		<g>
			
				<ellipse transform="matrix(0.9238 -0.3828 0.3828 0.9238 -371.4109 438.5025)" class="st3" cx="916.3" cy="1152.6" rx="89.9" ry="55.7"/>
			<path class="st4" d="M867.2,1225.7c-49.7-6.5-68.1-44.5-41-84.8c27-40.3,89.5-67.8,139.1-61.3c49.7,6.5,68.1,44.5,41,84.8
				C979.3,1204.7,916.9,1232.2,867.2,1225.7z M957.3,1091.6c-41.5-5.4-93.7,17.6-116.3,51.2c-22.6,33.7-7.2,65.5,34.3,70.9
				c41.5,5.4,93.7-17.6,116.3-51.2C1014.2,1128.8,998.8,1097,957.3,1091.6z"/>
			<path class="st5" d="M922.4,1182.5c-6.1,2.6-12.7,3.9-19.8,3.8l-6.3,9.4l-10.7-1.4l6.2-9.3c-4.5-0.9-8.3-2.2-11.5-3.9
				c-3.2-1.7-5.6-3.8-7.3-6.2l10-7.4c3.5,4.6,8.6,7.6,15.4,8.9l11.9-17.7c-4-1.6-7.3-3.1-9.7-4.7c-2.4-1.6-4-3.7-4.6-6.2
				c-0.6-2.6,0.3-5.7,2.8-9.4c2.1-3.1,4.9-5.7,8.4-8c3.6-2.3,7.6-4,12.1-5.2c4.5-1.2,9.1-1.8,13.8-1.7l6.3-9.4l10.7,1.4l-6.3,9.3
				c3.8,0.9,7,2.2,9.8,3.9c2.8,1.7,4.8,3.5,6,5.7l-10,7.4c-2.8-4.1-7-6.8-12.4-8.3l-12.4,18.4c4,1.6,7.2,3.1,9.5,4.6
				c2.3,1.5,3.8,3.5,4.4,6c0.6,2.5-0.3,5.5-2.7,9.1C933,1176.3,928.5,1179.9,922.4,1182.5z M911.9,1144.8c0.9,1.4,2.5,2.8,5,4
				l11-16.4c-3.3,0.1-6.4,0.8-9.1,2c-2.7,1.2-4.8,3-6.3,5.2C911.3,1141.7,911.1,1143.4,911.9,1144.8z M916.5,1175.3
				c2.5-1.2,4.4-2.9,5.9-5.1c1.2-1.8,1.4-3.3,0.5-4.5c-0.8-1.3-2.4-2.5-4.9-3.6l-10.2,15.2C911.1,1177.2,914,1176.5,916.5,1175.3z"
				/>
			<path class="st6" d="M831.7,1141.6c26.5-39.5,87.2-66.8,136.4-61.6c-0.9-0.1-1.8-0.3-2.7-0.4c-49.7-6.5-112.1,21-139.1,61.3
				c-27,40.3-8.6,78.3,41,84.8c0.9,0.1,1.8,0.2,2.8,0.3C822.4,1218.5,805.1,1181.1,831.7,1141.6z"/>
			<path class="st5" d="M957.3,1091.6c-0.8-0.1-1.6-0.2-2.4-0.3c39.7,6.3,54.1,37.6,31.9,70.6c-22.2,33-72.8,55.8-113.9,51.5
				c0.8,0.1,1.6,0.2,2.4,0.3c41.5,5.4,93.7-17.6,116.3-51.2C1014.2,1128.8,998.8,1097,957.3,1091.6z"/>
			<path class="st4" d="M911.2,1142.6c0.9,1.4,2.5,2.8,5,4l11-16.4c-3.3,0.1-6.4,0.8-9.1,2c-2.7,1.2-4.8,3-6.3,5.2
				C910.6,1139.5,910.4,1141.2,911.2,1142.6z M915.8,1173.1c2.5-1.2,4.4-2.9,5.9-5.1c1.2-1.8,1.4-3.3,0.5-4.5
				c-0.8-1.3-2.4-2.5-4.9-3.6l-10.2,15.2C910.5,1175,913.3,1174.3,915.8,1173.1z M921.8,1180.3c-6.1,2.6-12.7,3.9-19.8,3.8l-6.3,9.4
				l-10.7-1.4l6.2-9.3c-4.5-0.9-8.3-2.2-11.5-3.9c-3.2-1.7-5.6-3.8-7.3-6.2l10-7.4c3.5,4.6,8.6,7.6,15.4,8.9l11.9-17.7
				c-4-1.6-7.3-3.1-9.7-4.7c-2.4-1.6-4-3.7-4.6-6.2c-0.6-2.6,0.3-5.7,2.8-9.4c2.1-3.1,4.9-5.7,8.4-8c3.6-2.3,7.6-4,12.1-5.2
				c4.5-1.2,9.1-1.8,13.8-1.7l6.3-9.4l10.7,1.4l-6.3,9.3c3.8,0.9,7,2.2,9.8,3.9c2.8,1.7,4.8,3.5,6,5.7l-10,7.4
				c-2.8-4.1-7-6.8-12.4-8.3l-12.4,18.4c4,1.6,7.2,3.1,9.5,4.6c2.3,1.5,3.8,3.5,4.4,6c0.6,2.5-0.3,5.5-2.7,9.1
				C932.4,1174,927.8,1177.6,921.8,1180.3z"/>
		</g>
	</g>
	<g>
		
			<ellipse transform="matrix(0.6079 -0.794 0.794 0.6079 -941.8528 1455.4629)" class="st4" cx="1002.7" cy="1681.4" rx="62.9" ry="89.9"/>
		<path class="st7" d="M921.8,1654.7c0.7,10.2,6.8,21.3,12.7,32.4c21.3,40.3,70.6,67.8,109.8,61.3c17.3-2.9,29.7-11.8,36.5-24.4
			c0.3,0.5-3.8,25.8-20.7,35.5c-18.9,10.9-55.2,12.7-88-8.2c-45.2-29-48.6-59-50.2-65.3C918.7,1673.9,921.5,1654.9,921.8,1654.7z"/>
		<g>
			
				<ellipse transform="matrix(0.6079 -0.794 0.794 0.6079 -941.8516 1455.4523)" class="st3" cx="1002.7" cy="1681.4" rx="52.6" ry="75.1"/>
			<path class="st4" d="M1041.5,1754.4c39.2-6.5,53.7-44.5,32.4-84.8s-70.6-67.8-109.8-61.3s-53.7,44.5-32.4,84.8
				S1002.3,1760.9,1041.5,1754.4z M970.4,1620.3c32.8-5.4,74,17.6,91.8,51.2c17.8,33.7,5.7,65.5-27.1,70.9
				c-32.8,5.4-74-17.6-91.8-51.2C925.5,1657.5,937.6,1625.7,970.4,1620.3z"/>
			<path class="st5" d="M997.9,1711.2c4.8,2.6,10,3.9,15.6,3.8l5,9.4l8.4-1.4l-4.9-9.3c3.5-0.9,6.6-2.2,9.1-3.9
				c2.5-1.7,4.4-3.8,5.7-6.2l-7.9-7.4c-2.8,4.6-6.8,7.6-12.2,8.9l-9.4-17.7c3.2-1.6,5.7-3.1,7.6-4.7c1.9-1.6,3.1-3.7,3.6-6.2
				c0.5-2.6-0.2-5.7-2.2-9.4c-1.6-3.1-3.8-5.7-6.7-8c-2.8-2.3-6-4-9.6-5.2c-3.6-1.2-7.2-1.8-10.9-1.7l-5-9.4l-8.4,1.4l4.9,9.3
				c-3,0.9-5.6,2.2-7.7,3.9c-2.2,1.7-3.7,3.5-4.7,5.7l7.9,7.4c2.2-4.1,5.5-6.8,9.8-8.3l9.8,18.4c-3.2,1.6-5.7,3.1-7.5,4.6
				c-1.8,1.5-3,3.5-3.5,6c-0.5,2.5,0.2,5.5,2.1,9.1C989.5,1705,993.1,1708.6,997.9,1711.2z M1006.2,1673.6c-0.7,1.4-2,2.8-4,4
				l-8.7-16.4c2.6,0.1,5,0.8,7.1,2c2.1,1.2,3.8,3,4.9,5.2C1006.7,1670.4,1006.9,1672.1,1006.2,1673.6z M1002.6,1704.1
				c-1.9-1.2-3.5-2.9-4.7-5.1c-0.9-1.8-1.1-3.3-0.4-4.5c0.6-1.3,1.9-2.5,3.8-3.6l8,15.2C1006.8,1705.9,1004.5,1705.3,1002.6,1704.1z
				"/>
			<path class="st6" d="M1069.5,1670.3c-21-39.5-68.8-66.8-107.6-61.6c0.7-0.1,1.4-0.3,2.1-0.4c39.2-6.5,88.5,21,109.8,61.3
				s6.8,78.3-32.4,84.8c-0.7,0.1-1.5,0.2-2.2,0.3C1076.9,1747.2,1090.5,1709.9,1069.5,1670.3z"/>
			<path class="st5" d="M970.4,1620.3c0.6-0.1,1.3-0.2,1.9-0.3c-31.4,6.3-42.7,37.6-25.2,70.6c17.5,33,57.4,55.8,89.9,51.5
				c-0.6,0.1-1.2,0.2-1.9,0.3c-32.8,5.4-74-17.6-91.8-51.2C925.5,1657.5,937.6,1625.7,970.4,1620.3z"/>
			<path class="st4" d="M1006.7,1671.3c-0.7,1.4-2,2.8-4,4l-8.7-16.4c2.6,0.1,5,0.8,7.1,2c2.1,1.2,3.8,3,4.9,5.2
				C1007.2,1668.2,1007.4,1669.9,1006.7,1671.3z M1003.1,1701.8c-1.9-1.2-3.5-2.9-4.7-5.1c-0.9-1.8-1.1-3.3-0.4-4.5
				c0.6-1.3,1.9-2.5,3.8-3.6l8,15.2C1007.3,1703.7,1005.1,1703,1003.1,1701.8z M998.4,1709c4.8,2.6,10,3.9,15.6,3.8l5,9.4l8.4-1.4
				l-4.9-9.3c3.5-0.9,6.6-2.2,9.1-3.9c2.5-1.7,4.4-3.8,5.7-6.2l-7.9-7.4c-2.8,4.6-6.8,7.6-12.2,8.9l-9.4-17.7
				c3.2-1.6,5.7-3.1,7.6-4.7c1.9-1.6,3.1-3.7,3.6-6.2c0.5-2.6-0.2-5.7-2.2-9.4c-1.6-3.1-3.8-5.7-6.7-8c-2.8-2.3-6-4-9.6-5.2
				c-3.6-1.2-7.2-1.8-10.9-1.7l-5-9.4l-8.4,1.4l4.9,9.3c-3,0.9-5.6,2.2-7.7,3.9c-2.2,1.7-3.7,3.5-4.7,5.7l7.9,7.4
				c2.2-4.1,5.5-6.8,9.8-8.3l9.8,18.4c-3.2,1.6-5.7,3.1-7.5,4.6c-1.8,1.5-3,3.5-3.5,6c-0.5,2.5,0.2,5.5,2.1,9.1
				C990.1,1702.8,993.7,1706.4,998.4,1709z"/>
		</g>
	</g>
	<g>
		
			<ellipse transform="matrix(0.9238 -0.3828 0.3828 0.9238 -476.6801 197.9773)" class="st4" cx="259.2" cy="1296.9" rx="80.6" ry="49.9"/>
		<path class="st7" d="M336.1,1276.9c-0.6,7.6-6.4,15.9-12,24.3c-20.3,30.2-67.1,50.8-104.3,46c-16.4-2.1-28.2-8.9-34.6-18.3
			c-0.3,0.3,3.6,19.3,19.7,26.6c18,8.2,52.4,9.6,83.6-6.2c43-21.7,46.2-44.3,47.7-49C339,1291.4,336.4,1277.1,336.1,1276.9z"/>
		<g>
			
				<ellipse transform="matrix(0.9238 -0.3828 0.3828 0.9238 -476.6852 197.9806)" class="st3" cx="259.2" cy="1296.9" rx="67.4" ry="41.7"/>
			<path class="st4" d="M222.4,1351.7c-37.2-4.9-51-33.4-30.8-63.6s67.1-50.8,104.3-46c37.2,4.9,51,33.4,30.8,63.6
				S259.7,1356.6,222.4,1351.7z M290,1251.1c-31.1-4.1-70.3,13.2-87.2,38.4s-5.4,49.1,25.7,53.2c31.1,4.1,70.3-13.2,87.2-38.4
				C332.6,1279.1,321.1,1255.2,290,1251.1z"/>
			<path class="st5" d="M263.8,1319.3c-4.5,2-9.5,2.9-14.9,2.9l-4.7,7.1l-8-1l4.7-6.9c-3.4-0.7-6.2-1.6-8.7-2.9
				c-2.4-1.3-4.2-2.8-5.5-4.7l7.5-5.5c2.6,3.5,6.5,5.7,11.5,6.7l8.9-13.2c-3-1.2-5.4-2.4-7.3-3.5c-1.8-1.2-3-2.7-3.4-4.7
				c-0.5-1.9,0.2-4.3,2.1-7c1.5-2.3,3.6-4.3,6.3-6c2.7-1.7,5.7-3,9.1-3.9c3.4-0.9,6.8-1.3,10.4-1.2l4.7-7.1l8,1l-4.7,7
				c2.8,0.7,5.3,1.7,7.4,2.9c2.1,1.2,3.6,2.7,4.5,4.3l-7.5,5.5c-2.1-3-5.2-5.1-9.3-6.2l-9.3,13.8c3,1.2,5.4,2.3,7.1,3.5
				c1.7,1.1,2.8,2.6,3.3,4.5c0.5,1.9-0.2,4.1-2,6.8C271.8,1314.6,268.3,1317.4,263.8,1319.3z M255.9,1291.1c0.6,1.1,1.9,2.1,3.8,3
				l8.2-12.3c-2.5,0.1-4.8,0.6-6.8,1.5c-2,0.9-3.6,2.2-4.7,3.9C255.5,1288.7,255.3,1290,255.9,1291.1z M259.3,1314
				c1.8-0.9,3.3-2.2,4.4-3.8c0.9-1.3,1-2.5,0.4-3.4c-0.6-1-1.8-1.9-3.7-2.7l-7.6,11.4C255.3,1315.3,257.5,1314.8,259.3,1314z"/>
			<path class="st6" d="M195.8,1288.6c19.9-29.6,65.4-50.1,102.3-46.2c-0.7-0.1-1.4-0.2-2-0.3c-37.2-4.9-84,15.7-104.3,46
				s-6.5,58.7,30.8,63.6c0.7,0.1,1.4,0.2,2.1,0.2C188.8,1346.3,175.9,1318.3,195.8,1288.6z"/>
			<path class="st5" d="M290,1251.1c-0.6-0.1-1.2-0.1-1.8-0.2c29.8,4.7,40.6,28.2,23.9,52.9c-16.6,24.8-54.6,41.8-85.4,38.6
				c0.6,0.1,1.2,0.2,1.8,0.3c31.1,4.1,70.3-13.2,87.2-38.4C332.6,1279.1,321.1,1255.2,290,1251.1z"/>
			<path class="st4" d="M255.4,1289.4c0.6,1.1,1.9,2.1,3.8,3l8.2-12.3c-2.5,0.1-4.8,0.6-6.8,1.5c-2,0.9-3.6,2.2-4.7,3.9
				C254.9,1287.1,254.8,1288.3,255.4,1289.4z M258.8,1312.3c1.8-0.9,3.3-2.2,4.4-3.8c0.9-1.3,1-2.5,0.4-3.4c-0.6-1-1.8-1.9-3.7-2.7
				l-7.6,11.4C254.8,1313.7,257,1313.2,258.8,1312.3z M263.3,1317.6c-4.5,2-9.5,2.9-14.9,2.9l-4.7,7.1l-8-1l4.7-6.9
				c-3.4-0.7-6.2-1.6-8.7-2.9c-2.4-1.3-4.2-2.8-5.5-4.7l7.5-5.5c2.6,3.5,6.5,5.7,11.5,6.7l8.9-13.2c-3-1.2-5.4-2.4-7.3-3.5
				c-1.8-1.2-3-2.7-3.4-4.7c-0.5-1.9,0.2-4.3,2.1-7c1.5-2.3,3.6-4.3,6.3-6c2.7-1.7,5.7-3,9.1-3.9c3.4-0.9,6.8-1.3,10.4-1.2l4.7-7.1
				l8,1l-4.7,7c2.8,0.7,5.3,1.7,7.4,2.9c2.1,1.2,3.6,2.7,4.5,4.3l-7.5,5.5c-2.1-3-5.2-5.1-9.3-6.2l-9.3,13.8c3,1.2,5.4,2.3,7.1,3.5
				c1.7,1.1,2.8,2.6,3.3,4.5c0.5,1.9-0.2,4.1-2,6.8C271.3,1313,267.8,1315.7,263.3,1317.6z"/>
		</g>
	</g>
</g>
</svg>
