<?xml version="1.0" encoding="utf-8"?>
<!-- Generator: Adobe Illustrator 25.3.1, SVG Export Plug-In . SVG Version: 6.00 Build 0)  -->
<svg version="1.1" xmlns="http://www.w3.org/2000/svg" xmlns:xlink="http://www.w3.org/1999/xlink" x="0px" y="0px"
	 viewBox="0 0 1145.6 2234.6" style="enable-background:new 0 0 1145.6 2234.6;" xml:space="preserve">
<style type="text/css">
	.st0{fill:#F6E6D2;}
	.st1{clip-path:url(#SVGID_2_);}
	.st2{clip-path:url(#SVGID_4_);}
	.st3{fill:#E9B522;}
	.st4{fill:#F7DE61;}
	.st5{fill:#CE9811;}
	.st6{fill:#FFF2BD;}
	.st7{fill:#B27E09;}
	.st8{clip-path:url(#SVGID_6_);}
</style>
<g id="Background">
</g>
<g id="Graphic_Element">
	<g>
		
			<ellipse transform="matrix(0.5345 -0.8452 0.8452 0.5345 185.7763 636.7081)" class="st4" cx="670.9" cy="149.7" rx="122.8" ry="76"/>
		<path class="st7" d="M592.7,242.1c-5.9-10-6-25.5-6.3-40.8c-1.3-55.4,38.9-122.1,89.5-148.8c22.3-11.7,42.9-13.7,59.2-7.6
			c0-0.7-21.4-20.9-47.8-15.9c-29.5,5.6-73.7,34.1-98.6,81.1c-34.5,64.8-18.7,95.7-16.5,102.8C576.5,226.7,592.2,242.2,592.7,242.1z
			"/>
		<g>
			
				<ellipse transform="matrix(0.5345 -0.8452 0.8452 0.5345 185.7784 636.7101)" class="st3" cx="670.9" cy="149.7" rx="102.7" ry="63.6"/>
			<path class="st4" d="M668.6,49.2c50.6-26.6,92.9-3.2,94.1,52.2c1.3,55.4-38.9,122.1-89.5,148.8c-50.6,26.6-92.9,3.2-94.1-52.2
				S618,75.9,668.6,49.2z M672.8,233.7c42.3-22.3,75.9-78.1,74.9-124.4S711.3,43.4,669,65.7c-42.3,22.3-75.9,78.1-74.9,124.4
				C595.2,236.4,630.5,256,672.8,233.7z"/>
			<path class="st5" d="M645.5,125.9c3.9-6.4,9.2-12,16-16.6l-0.3-13l10.9-5.7l0.3,12.7c4.8-2.1,9.2-3.4,13.3-3.9
				c4.1-0.5,7.8-0.2,10.9,1l-4.4,13.4c-6.3-2-13.1-1.4-20.2,1.8l0.6,24.3c4.8-1.2,8.8-1.8,12.2-2c3.3-0.1,6.1,0.8,8.4,2.8
				c2.3,2,3.5,5.5,3.6,10.6c0.1,4.2-0.8,8.5-2.6,13c-1.8,4.5-4.5,8.8-7.9,12.9c-3.4,4.1-7.3,7.7-11.8,10.6l0.3,13l-10.9,5.7
				l-0.3-12.8c-4.1,1.6-8,2.6-11.7,2.8c-3.7,0.3-6.8-0.2-9.3-1.4l4.4-13.4c5.3,1.9,11,1.8,17-0.5l-0.6-25.3c-4.8,1.2-8.8,1.8-11.9,2
				c-3.2,0.1-5.8-0.8-8-2.7c-2.2-1.9-3.4-5.3-3.5-10.2C639.7,138.7,641.6,132.3,645.5,125.9z M680.1,154.1c-1.7-0.8-4.2-0.9-7.3-0.4
				l0.5,22.5c3-2.3,5.4-4.9,7.1-7.9c1.7-2.9,2.5-5.9,2.4-9C682.8,156.6,681.9,154.9,680.1,154.1z M655.8,128.6
				c-1.5,2.7-2.2,5.6-2.2,8.6c0.1,2.4,0.9,3.9,2.5,4.6c1.6,0.7,3.9,0.7,6.9,0.1l-0.5-20.9C659.6,123.4,657.3,125.9,655.8,128.6z"/>
			<path class="st6" d="M757.1,104.4c1.2,54.4-37.4,119.7-86.7,147.2c0.9-0.5,1.9-0.9,2.8-1.4c50.6-26.6,90.8-93.4,89.5-148.8
				c-1.3-55.4-43.5-78.8-94.1-52.2c-0.9,0.5-1.9,1-2.8,1.5C715.2,26.4,755.9,50,757.1,104.4z"/>
			<path class="st5" d="M672.8,233.7c0.8-0.4,1.6-0.9,2.5-1.3c-41.2,20.2-75.2,0.5-76.2-44.9s31.2-99.9,72.4-123
				c-0.8,0.4-1.6,0.8-2.5,1.2c-42.3,22.3-75.9,78.1-74.9,124.4C595.2,236.4,630.5,256,672.8,233.7z"/>
			<path class="st4" d="M682.2,155.7c-1.7-0.8-4.2-0.9-7.3-0.4l0.5,22.5c3-2.3,5.4-4.9,7.1-7.9c1.7-2.9,2.5-5.9,2.4-9
				C684.9,158.3,684,156.5,682.2,155.7z M657.9,130.3c-1.5,2.7-2.2,5.6-2.2,8.6c0.1,2.4,0.9,3.9,2.5,4.6c1.6,0.7,3.9,0.7,6.9,0.1
				l-0.5-20.9C661.7,125,659.4,127.5,657.9,130.3z M647.6,127.5c3.9-6.4,9.2-12,16-16.6l-0.3-13l10.9-5.7l0.3,12.7
				c4.8-2.1,9.2-3.4,13.3-3.9c4.1-0.5,7.8-0.2,10.9,1l-4.4,13.4c-6.3-2-13.1-1.4-20.2,1.8l0.6,24.3c4.8-1.2,8.8-1.8,12.2-2
				c3.3-0.1,6.1,0.8,8.4,2.8c2.3,2,3.5,5.5,3.6,10.6c0.1,4.2-0.8,8.5-2.6,13c-1.8,4.5-4.5,8.8-7.9,12.9c-3.4,4.1-7.3,7.7-11.8,10.6
				l0.3,13l-10.9,5.7l-0.3-12.8c-4.1,1.6-8,2.6-11.7,2.8c-3.7,0.3-6.8-0.2-9.3-1.4l4.4-13.4c5.3,1.9,11,1.8,17-0.5l-0.6-25.3
				c-4.8,1.2-8.8,1.8-11.9,2c-3.2,0.1-5.8-0.8-8-2.7c-2.2-1.9-3.4-5.3-3.5-10.2C641.8,140.3,643.7,133.9,647.6,127.5z"/>
		</g>
	</g>
	<g>
		<g>
			
				<ellipse transform="matrix(0.9828 -0.1845 0.1845 0.9828 -247.3628 44.1444)" class="st3" cx="113.6" cy="1351.5" rx="95.9" ry="61.3"/>
			<path class="st4" d="M127.1,1423.6c-62.2,11.7-118.8-11.2-126.3-50.9c-7.5-39.7,37.1-81.6,99.2-93.2
				c62.2-11.7,118.8,11.2,126.3,50.9C233.8,1370.1,189.3,1411.9,127.1,1423.6z M102.3,1291.3c-52,9.8-89.2,44.7-83,77.9
				c6.2,33.2,53.6,52.3,105.6,42.6c52-9.8,89.2-44.7,83-77.9C201.6,1300.6,154.3,1281.5,102.3,1291.3z"/>
			<path class="st5" d="M148.6,1372.2c-4.4,4-10.6,7.2-18.7,9.5l1.7,9.3l-13.4,2.5l-1.7-9.1c-5.9,0.8-11.5,1.1-16.7,0.9
				c-5.2-0.2-9.9-1-14.1-2.3l4.3-8.9c8.3,2.4,16.9,2.9,25.8,1.7l-3.3-17.4c-6,0.2-11.2,0-15.4-0.4c-4.2-0.4-7.9-1.5-11-3.2
				c-3.1-1.8-5-4.4-5.7-8.1c-0.6-3,0.1-6,2-8.9c1.9-2.9,4.8-5.6,8.7-8c3.9-2.4,8.6-4.4,14-5.9l-1.7-9.3l13.4-2.5l1.7,9.2
				c5.1-0.6,10-0.7,14.7-0.3c4.7,0.3,8.7,1.1,12.1,2.3l-4.3,8.9c-7-2.2-14.3-2.9-21.8-2.1l3.4,18.2c6-0.1,11.1,0,15.1,0.3
				c4,0.4,7.6,1.4,10.6,3.1c3,1.7,4.9,4.3,5.5,7.8C154.8,1363.9,153,1368.2,148.6,1372.2z M101.3,1347.1c2.3,0.8,5.5,1.3,9.5,1.4
				l-3-16.2c-3.7,1.2-6.4,2.7-8.3,4.6c-1.9,1.9-2.6,3.9-2.2,6C97.6,1344.9,99,1346.3,101.3,1347.1z M135.2,1368.8
				c1.7-1.7,2.3-3.7,1.9-5.9c-0.3-1.7-1.5-2.9-3.7-3.6c-2.1-0.7-5.1-1.1-8.9-1.1l2.8,15C130.9,1372,133.5,1370.5,135.2,1368.8z"/>
			<path class="st6" d="M7.7,1371.4c-7.3-39,35.4-80,95.8-92.5c-1.1,0.2-2.3,0.4-3.4,0.6c-62.2,11.7-106.7,53.5-99.2,93.2
				c7.5,39.7,64.1,62.6,126.3,50.9c1.2-0.2,2.3-0.4,3.4-0.7C69.7,1433.1,15,1410.4,7.7,1371.4z"/>
			<path class="st5" d="M102.3,1291.3c-1,0.2-2,0.4-3,0.6c50.8-8.5,96.5,10.5,102.6,43.1c6.1,32.6-29.6,66.8-80,77.3
				c1-0.2,2-0.3,3-0.5c52-9.8,89.2-44.7,83-77.9C201.6,1300.6,154.3,1281.5,102.3,1291.3z"/>
			<path class="st4" d="M98.4,1345.6c2.3,0.8,5.5,1.3,9.5,1.4l-3-16.2c-3.7,1.2-6.4,2.7-8.3,4.6c-1.9,1.9-2.6,3.9-2.2,6
				C94.8,1343.4,96.1,1344.8,98.4,1345.6z M132.3,1367.3c1.7-1.7,2.3-3.7,1.9-5.9c-0.3-1.7-1.5-2.9-3.7-3.6
				c-2.1-0.7-5.1-1.1-8.9-1.1l2.8,15C128,1370.5,130.7,1369,132.3,1367.3z M145.8,1370.7c-4.4,4-10.6,7.2-18.7,9.5l1.7,9.3
				l-13.4,2.5l-1.7-9.1c-5.9,0.8-11.5,1.1-16.7,0.9c-5.2-0.2-9.9-1-14.1-2.3l4.3-8.9c8.3,2.4,16.9,2.9,25.8,1.7l-3.3-17.4
				c-6,0.2-11.2,0-15.4-0.4c-4.2-0.4-7.9-1.5-11-3.2c-3.1-1.8-5-4.4-5.7-8.1c-0.6-3,0.1-6,2-8.9c1.9-2.9,4.8-5.6,8.7-8
				c3.9-2.4,8.6-4.4,14-5.9l-1.7-9.3l13.4-2.5l1.7,9.2c5.1-0.6,10-0.7,14.7-0.3c4.7,0.3,8.7,1.1,12.1,2.3l-4.3,8.9
				c-7-2.2-14.3-2.9-21.8-2.1l3.4,18.2c6-0.1,11.1,0,15.1,0.3c4,0.4,7.6,1.4,10.6,3.1c3,1.7,4.9,4.3,5.5,7.8
				C151.9,1362.5,150.1,1366.7,145.8,1370.7z"/>
		</g>
		<path class="st7" d="M230.6,1353.8l0.2,0l-4.4-23.4c7.5,39.7-37.1,81.6-99.2,93.2c-62.2,11.7-118.8-11.2-126.3-50.9
			c0,0,4.8,25.7,5.1,26.9c6.9,36.6,63.1,56.9,125.2,45.3c62.2-11.7,107.2-51,100.3-87.6C231.2,1356.1,230.9,1354.9,230.6,1353.8z"/>
	</g>
	<g>
		<g>
			
				<ellipse transform="matrix(0.4603 -0.8877 0.8877 0.4603 -431.4009 906.2619)" class="st3" cx="529.7" cy="808" rx="99.3" ry="155.3"/>
			<path class="st4" d="M584.4,702.6c90.9,47.2,140.4,132.8,110.3,190.9c-30.1,58.1-128.6,67-219.6,19.9
				c-90.9-47.2-140.4-132.8-110.3-190.9S493.4,655.4,584.4,702.6z M484,896.1c76,39.4,158.4,32,183.6-16.6
				c25.2-48.6-16.2-120.2-92.2-159.6c-76-39.4-158.4-32-183.6,16.6C366.6,785,408,856.7,484,896.1z"/>
			<path class="st5" d="M505.6,746.6c9.6-0.8,20.7,1.4,33.4,6.5l7-13.6l19.5,10.1l-6.9,13.3c8.3,4.8,15.7,10,22.2,15.5
				c6.5,5.5,11.7,11.2,15.6,17l-14.4,7.1c-8.2-11.3-18.6-20.6-31.3-27.9l-13.2,25.5c7.8,5.8,14.3,11.1,19.3,15.8
				c5,4.7,8.6,9.8,10.9,15.1c2.2,5.4,2,10.7-0.8,16c-2.3,4.4-6.1,7.5-11.4,9.4c-5.3,1.8-11.7,2.4-19.2,1.6c-7.4-0.8-15.4-3-23.7-6.5
				l-7,13.6l-19.5-10.1l7-13.5c-7.1-4.4-13.5-9.2-19.1-14.3c-5.6-5.1-10-10.1-13.1-15l14.4-7.1c6.8,9.7,15.4,17.9,25.7,24.5
				l13.8-26.6c-7.8-5.8-14.2-11-18.9-15.5c-4.8-4.5-8.3-9.3-10.5-14.5c-2.2-5.2-1.9-10.3,0.7-15.5
				C489.6,751.1,496.1,747.4,505.6,746.6z M540.9,825.9c-2.2-3.3-5.7-7.1-10.7-11.2l-12.3,23.6c5.9,2.1,10.9,2.9,15.2,2.4
				c4.2-0.5,7.2-2.3,8.8-5.5C543.4,832.4,543.1,829.3,540.9,825.9z M519.3,764.4c-3.8,0.5-6.6,2.4-8.2,5.6c-1.3,2.5-1,5.3,1,8.3
				c2,3,5.4,6.4,10.2,10.3l11.4-21.9C528,764.6,523.2,763.9,519.3,764.4z"/>
			<path class="st6" d="M684.6,888.3c-29.6,57-125,66.7-214.5,22.4c1.7,0.9,3.3,1.8,5,2.7c90.9,47.2,189.4,38.2,219.6-19.9
				c30.1-58.1-19.3-143.8-110.3-190.9c-1.7-0.9-3.4-1.7-5.1-2.6C667,747.7,714.2,831.2,684.6,888.3z"/>
			<path class="st5" d="M484,896.1c1.5,0.8,3,1.5,4.4,2.2c-73.2-39.9-112.5-109.6-87.8-157.3c24.7-47.6,104.4-55.7,179.2-18.8
				c-1.4-0.8-2.9-1.6-4.4-2.3c-76-39.4-158.4-32-183.6,16.6C366.6,785,408,856.7,484,896.1z"/>
			<path class="st4" d="M543.1,830.7c-2.2-3.3-5.7-7.1-10.7-11.2l-12.3,23.6c5.9,2.1,10.9,2.9,15.2,2.4c4.2-0.5,7.2-2.3,8.8-5.5
				C545.6,837.1,545.2,834,543.1,830.7z M521.5,769.2c-3.8,0.5-6.6,2.4-8.2,5.6c-1.3,2.5-1,5.3,1,8.3c2,3,5.4,6.4,10.2,10.3
				l11.4-21.9C530.2,769.4,525.4,768.6,521.5,769.2z M507.8,751.3c9.6-0.8,20.7,1.4,33.4,6.5l7-13.6l19.5,10.1l-6.9,13.3
				c8.3,4.8,15.7,10,22.2,15.5c6.5,5.5,11.7,11.2,15.6,17l-14.4,7.1c-8.2-11.3-18.6-20.6-31.3-27.9L539.9,805
				c7.8,5.8,14.3,11.1,19.3,15.8c5,4.7,8.6,9.8,10.9,15.1c2.2,5.4,2,10.7-0.8,16c-2.3,4.4-6.1,7.5-11.4,9.4
				c-5.3,1.8-11.7,2.4-19.2,1.6c-7.4-0.8-15.4-3-23.7-6.5l-7,13.6l-19.5-10.1l7-13.5c-7.1-4.4-13.5-9.2-19.1-14.3
				c-5.6-5.1-10-10.1-13.1-15l14.4-7.1c6.8,9.7,15.4,17.9,25.7,24.5l13.8-26.6c-7.8-5.8-14.2-11-18.9-15.5
				c-4.8-4.5-8.3-9.3-10.5-14.5c-2.2-5.2-1.9-10.3,0.7-15.5C491.7,755.8,498.2,752.1,507.8,751.3z"/>
		</g>
		<path class="st7" d="M382.7,688.4l-0.2-0.1l-17.7,34.2c30.1-58.1,128.6-67,219.6-19.9c90.9,47.2,140.4,132.8,110.3,190.9
			c0,0,19.5-37.6,20.4-39.4c27.8-53.6-23.6-135.5-114.5-182.7c-90.9-47.2-187.5-41.9-215.3,11.6
			C384.3,684.8,383.5,686.6,382.7,688.4z"/>
	</g>
	<g>
		
			<ellipse transform="matrix(0.5104 -0.8599 0.8599 0.5104 -625.2068 1509.3538)" class="st7" cx="1013" cy="1303.8" rx="120.8" ry="128.7"/>
		<g>
			
				<ellipse transform="matrix(0.5105 -0.8599 0.8599 0.5105 -613.1226 1509.2103)" class="st3" cx="1018.9" cy="1293.1" rx="101" ry="107.6"/>
			<path class="st4" d="M935.4,1196.4c52.5-41.8,132.7-32.5,178.8,20.9c46.1,53.3,40.8,130.8-11.7,172.6
				c-52.5,41.8-132.7,32.5-178.8-20.9C877.6,1315.6,882.9,1238.2,935.4,1196.4z M1088.8,1374c43.9-35,48.3-99.7,9.8-144.3
				c-38.5-44.6-105.6-52.4-149.5-17.5c-43.9,35-48.3,99.7-9.8,144.3C977.8,1401.1,1044.9,1408.9,1088.8,1374z"/>
			<path class="st6" d="M1108.4,1221.9c45.2,52.4,41,127.9-8.8,170.2c1-0.7,2-1.5,2.9-2.3c52.5-41.8,57.8-119.2,11.7-172.6
				c-46.1-53.3-126.3-62.7-178.8-20.9c-1,0.8-1.9,1.6-2.9,2.4C985.1,1159.5,1063.1,1169.5,1108.4,1221.9z"/>
			<path class="st5" d="M1088.8,1374c0.9-0.7,1.7-1.4,2.5-2.1c-43.9,32.7-109.1,24.3-146.9-19.4c-37.8-43.7-34.3-106.8,7.3-142.2
				c-0.9,0.6-1.7,1.3-2.6,2c-43.9,35-48.3,99.7-9.8,144.3C977.8,1401.1,1044.9,1408.9,1088.8,1374z"/>
			<g>
				<path class="st5" d="M961,1296.5c-1.9-7.2-1.1-15,2.4-23.3l-14.3-8.2l7.7-12.2l14,8c3.8-5.1,8-9.4,12.7-13
					c4.7-3.6,9.6-6.2,14.9-7.8l8.8,12.2c-10.2,3.6-18.1,9.3-23.8,17l26.8,15.3c4.8-4.5,9.2-8.1,13.3-10.8c4.1-2.7,8.6-4.2,13.6-4.7
					c5-0.5,10.3,0.9,15.9,4.1c4.6,2.7,8.2,6.1,10.7,10.5c2.5,4.3,3.8,9.2,3.9,14.5c0.1,5.3-1.1,10.7-3.5,16.1l14.3,8.2l-7.7,12.2
					l-14.2-8.1c-3.5,4.3-7.4,8-11.8,11c-4.4,3-8.8,5.2-13.3,6.4l-8.8-12.2c8.8-2.9,15.8-7.4,21.1-13.6l-28-16
					c-4.8,4.5-9.2,8.1-13,10.6c-3.9,2.6-8.2,4.1-13.1,4.6c-4.9,0.5-10-0.8-15.4-3.9C967.4,1309.3,962.9,1303.7,961,1296.5z
					 M1035.2,1287.8c-3,0.9-6.3,2.7-9.8,5.5l24.9,14.2c1.4-3.9,1.6-7.4,0.6-10.7c-1-3.2-3.2-5.8-6.5-7.7
					C1041.3,1287.3,1038.2,1286.9,1035.2,1287.8z M976.9,1290.3c1,3,3.2,5.4,6.5,7.3c2.7,1.5,5.4,1.9,8.1,1c2.7-0.8,5.7-2.6,8.9-5.3
					l-23.1-13.2C976.1,1283.9,975.9,1287.3,976.9,1290.3z"/>
				<path class="st4" d="M1039.6,1287.2c-3,0.9-6.3,2.7-9.8,5.5l24.9,14.2c1.4-3.9,1.6-7.4,0.6-10.7c-1-3.2-3.2-5.8-6.5-7.7
					C1045.7,1286.7,1042.7,1286.3,1039.6,1287.2z M981.4,1289.7c1,3,3.2,5.4,6.5,7.3c2.7,1.5,5.4,1.9,8.1,1c2.7-0.8,5.7-2.6,8.9-5.3
					l-23.1-13.2C980.5,1283.3,980.4,1286.7,981.4,1289.7z M965.4,1295.9c-1.9-7.2-1.1-15,2.4-23.3l-14.3-8.2l7.7-12.2l14,8
					c3.8-5.1,8-9.4,12.7-13c4.7-3.6,9.6-6.2,14.9-7.8l8.8,12.2c-10.2,3.6-18.1,9.3-23.8,17l26.8,15.3c4.8-4.5,9.2-8.1,13.3-10.8
					c4.1-2.7,8.6-4.2,13.6-4.7c5-0.5,10.3,0.9,15.9,4.1c4.6,2.7,8.2,6.1,10.7,10.5c2.5,4.3,3.8,9.2,3.9,14.5
					c0.1,5.3-1.1,10.7-3.5,16.1l14.3,8.2l-7.7,12.2l-14.2-8.1c-3.5,4.3-7.4,8-11.8,11c-4.4,3-8.8,5.2-13.3,6.4l-8.8-12.2
					c8.8-2.9,15.8-7.4,21.1-13.6l-28-16c-4.8,4.5-9.2,8.1-13,10.6c-3.9,2.6-8.2,4.1-13.1,4.6c-4.9,0.5-10-0.8-15.4-3.9
					C971.8,1308.8,967.3,1303.2,965.4,1295.9z"/>
			</g>
		</g>
	</g>
	<g>
		
			<ellipse transform="matrix(0.7241 -0.6897 0.6897 0.7241 -1331.3311 889.4819)" class="st4" cx="446.1" cy="2108.8" rx="87.2" ry="54"/>
		<path class="st7" d="M515.9,2058.7c2.3,7.9-0.3,18.6-2.7,29.2c-8.7,38.4-47.9,77.4-87.3,86.9c-17.4,4.2-31.9,2-42.1-5
			c-0.2,0.5,11.1,18.1,30.2,19.2c21.3,1.2,56.6-10.8,81.9-38.8c34.9-38.6,29.4-62.6,29.1-67.9
			C524.5,2072.1,516.3,2058.8,515.9,2058.7z"/>
		<g>
			
				<ellipse transform="matrix(0.7241 -0.6897 0.6897 0.7241 -1331.3359 889.489)" class="st3" cx="446.1" cy="2108.8" rx="72.9" ry="45.1"/>
			<path class="st4" d="M430.4,2178.4c-39.5,9.6-64.5-13.8-55.8-52.2c8.7-38.4,47.9-77.4,87.3-86.9c39.5-9.6,64.5,13.8,55.8,52.2
				C509,2129.8,469.8,2168.8,430.4,2178.4z M459.3,2050.7c-33,8-65.7,40.6-73,72.7s13.6,51.6,46.6,43.6s65.7-40.6,73-72.7
				C513.2,2062.2,492.3,2042.6,459.3,2050.7z"/>
			<path class="st5" d="M459.5,2129.6c-3.8,3.8-8.4,6.6-13.9,8.7l-2,9l-8.5,2.1l2-8.8c-3.7,0.6-6.9,0.8-9.9,0.4
				c-2.9-0.4-5.4-1.2-7.3-2.6l5.4-8.5c4,2.5,8.7,3.2,14.3,2.3l3.8-16.8c-3.5,0-6.4-0.3-8.7-0.7c-2.3-0.5-4.1-1.6-5.3-3.4
				c-1.2-1.8-1.4-4.4-0.6-7.9c0.7-2.9,2-5.7,4-8.5c2-2.8,4.6-5.3,7.6-7.5c3-2.2,6.4-4,10-5.3l2-9l8.5-2.1l-2,8.9
				c3.1-0.4,6-0.4,8.5,0.1c2.6,0.4,4.6,1.3,6.2,2.5l-5.4,8.5c-3.3-2.2-7.3-3.1-11.8-2.6l-4,17.5c3.5,0,6.4,0.2,8.6,0.7
				c2.2,0.5,3.9,1.5,5.1,3.2c1.2,1.7,1.4,4.2,0.6,7.6C465.7,2121.8,463.3,2125.9,459.5,2129.6z M440.6,2104.2c1.1,0.8,2.7,1.4,5,1.6
				l3.5-15.6c-2.5,1.1-4.6,2.5-6.3,4.2c-1.7,1.7-2.8,3.6-3.2,5.7C439.2,2102,439.5,2103.4,440.6,2104.2z M452.9,2125.9
				c1.5-1.6,2.5-3.5,3-5.6c0.4-1.7,0.1-2.9-0.9-3.6c-1-0.7-2.6-1.2-4.7-1.3l-3.3,14.5C449.4,2128.9,451.4,2127.6,452.9,2125.9z"/>
			<path class="st6" d="M378.9,2125.1c8.5-37.6,46.4-75.9,85.1-86.4c-0.7,0.2-1.4,0.3-2.2,0.5c-39.5,9.6-78.6,48.6-87.3,86.9
				c-8.7,38.4,16.3,61.8,55.8,52.2c0.7-0.2,1.5-0.4,2.2-0.6C394.3,2186,370.4,2162.8,378.9,2125.1z"/>
			<path class="st5" d="M459.3,2050.7c-0.6,0.2-1.3,0.3-1.9,0.5c31.9-6.8,51.9,12.6,44.7,44.1c-7.1,31.4-38.8,63.4-71.1,72.2
				c0.6-0.1,1.3-0.3,1.9-0.4c33-8,65.7-40.6,73-72.7C513.2,2062.2,492.3,2042.6,459.3,2050.7z"/>
			<path class="st4" d="M439.4,2102.7c1.1,0.8,2.7,1.4,5,1.6l3.5-15.6c-2.5,1.1-4.6,2.5-6.3,4.2c-1.7,1.7-2.8,3.6-3.2,5.7
				C438,2100.5,438.3,2101.9,439.4,2102.7z M451.7,2124.5c1.5-1.6,2.5-3.5,3-5.6c0.4-1.7,0.1-2.9-0.9-3.6c-1-0.7-2.6-1.2-4.7-1.3
				l-3.3,14.5C448.2,2127.4,450.2,2126.1,451.7,2124.5z M458.3,2128.1c-3.8,3.8-8.4,6.6-13.9,8.7l-2,9l-8.5,2.1l2-8.8
				c-3.7,0.6-6.9,0.8-9.9,0.4c-2.9-0.4-5.4-1.2-7.3-2.6l5.4-8.5c4,2.5,8.7,3.2,14.3,2.3l3.8-16.8c-3.5,0-6.4-0.3-8.7-0.7
				c-2.3-0.5-4.1-1.6-5.3-3.4c-1.2-1.8-1.4-4.4-0.6-7.9c0.7-2.9,2-5.7,4-8.5c2-2.8,4.6-5.3,7.6-7.5c3-2.2,6.4-4,10-5.3l2-9l8.5-2.1
				l-2,8.9c3.1-0.4,6-0.4,8.5,0.1c2.6,0.4,4.6,1.3,6.2,2.5l-5.4,8.5c-3.3-2.2-7.3-3.1-11.8-2.6l-4,17.5c3.5,0,6.4,0.2,8.6,0.7
				c2.2,0.5,3.9,1.5,5.1,3.2c1.2,1.7,1.4,4.2,0.6,7.6C464.5,2120.3,462.1,2124.4,458.3,2128.1z"/>
		</g>
	</g>
	<g>
		
			<ellipse transform="matrix(0.9238 -0.3828 0.3828 0.9238 -244.6214 458.4365)" class="st4" cx="1029.8" cy="844" rx="107.5" ry="66.6"/>
		<path class="st7" d="M1132.3,817.3c-0.8,10.2-8.6,21.3-16,32.4c-27,40.3-89.5,67.8-139.1,61.3c-21.9-2.9-37.7-11.8-46.2-24.4
			c-0.4,0.5,4.8,25.8,26.2,35.5c24,10.9,69.9,12.7,111.5-8.2c57.3-29,61.6-59,63.7-65.3C1136.2,836.5,1132.7,817.5,1132.3,817.3z"/>
		<g>
			
				<ellipse transform="matrix(0.9238 -0.3828 0.3828 0.9238 -244.6229 458.4413)" class="st3" cx="1029.8" cy="844" rx="89.9" ry="55.7"/>
			<path class="st4" d="M980.7,917c-49.7-6.5-68.1-44.5-41-84.8c27-40.3,89.5-67.8,139.1-61.3c49.7,6.5,68.1,44.5,41,84.8
				C1092.8,896,1030.4,923.5,980.7,917z M1070.8,782.9c-41.5-5.4-93.7,17.6-116.3,51.2s-7.2,65.5,34.3,70.9s93.7-17.6,116.3-51.2
				C1127.7,820.1,1112.3,788.3,1070.8,782.9z"/>
			<path class="st5" d="M1035.9,873.8c-6.1,2.6-12.7,3.9-19.8,3.8l-6.3,9.4l-10.7-1.4l6.2-9.3c-4.5-0.9-8.3-2.2-11.5-3.9
				c-3.2-1.7-5.6-3.8-7.3-6.2l10-7.4c3.5,4.6,8.6,7.6,15.4,8.9l11.9-17.7c-4-1.6-7.3-3.1-9.7-4.7c-2.4-1.6-4-3.7-4.6-6.2
				c-0.6-2.6,0.3-5.7,2.8-9.4c2.1-3.1,4.9-5.7,8.4-8c3.6-2.3,7.6-4,12.1-5.2c4.5-1.2,9.1-1.8,13.8-1.7l6.3-9.4l10.7,1.4l-6.3,9.3
				c3.8,0.9,7,2.2,9.8,3.9c2.8,1.7,4.8,3.5,6,5.7l-10,7.4c-2.8-4.1-7-6.8-12.4-8.3l-12.4,18.4c4,1.6,7.2,3.1,9.5,4.6
				c2.3,1.5,3.8,3.5,4.4,6c0.6,2.5-0.3,5.5-2.7,9.1C1046.5,867.6,1042,871.2,1035.9,873.8z M1025.4,836.2c0.9,1.4,2.5,2.8,5,4
				l11-16.4c-3.3,0.1-6.4,0.8-9.1,2c-2.7,1.2-4.8,3-6.3,5.2C1024.8,833,1024.6,834.7,1025.4,836.2z M1030,866.7
				c2.5-1.2,4.4-2.9,5.9-5.1c1.2-1.8,1.4-3.3,0.5-4.5c-0.8-1.3-2.4-2.5-4.9-3.6l-10.2,15.2C1024.6,868.5,1027.5,867.9,1030,866.7z"
				/>
			<path class="st6" d="M945.2,832.9c26.5-39.5,87.2-66.8,136.4-61.6c-0.9-0.1-1.8-0.3-2.7-0.4c-49.7-6.5-112.1,21-139.1,61.3
				c-27,40.3-8.6,78.3,41,84.8c0.9,0.1,1.8,0.2,2.8,0.3C935.9,909.9,918.6,872.5,945.2,832.9z"/>
			<path class="st5" d="M1070.8,782.9c-0.8-0.1-1.6-0.2-2.4-0.3c39.7,6.3,54.1,37.6,31.9,70.6c-22.2,33-72.8,55.8-113.9,51.5
				c0.8,0.1,1.6,0.2,2.4,0.3c41.5,5.4,93.7-17.6,116.3-51.2C1127.7,820.1,1112.3,788.3,1070.8,782.9z"/>
			<path class="st4" d="M1024.7,833.9c0.9,1.4,2.5,2.8,5,4l11-16.4c-3.3,0.1-6.4,0.8-9.1,2c-2.7,1.2-4.8,3-6.3,5.2
				C1024.1,830.8,1023.9,832.5,1024.7,833.9z M1029.3,864.5c2.5-1.2,4.4-2.9,5.9-5.1c1.2-1.8,1.4-3.3,0.5-4.5
				c-0.8-1.3-2.4-2.5-4.9-3.6l-10.2,15.2C1024,866.3,1026.8,865.6,1029.3,864.5z M1035.3,871.6c-6.1,2.6-12.7,3.9-19.8,3.8l-6.3,9.4
				l-10.7-1.4l6.2-9.3c-4.5-0.9-8.3-2.2-11.5-3.9c-3.2-1.7-5.6-3.8-7.3-6.2l10-7.4c3.5,4.6,8.6,7.6,15.4,8.9l11.9-17.7
				c-4-1.6-7.3-3.1-9.7-4.7c-2.4-1.6-4-3.7-4.6-6.2c-0.6-2.6,0.3-5.7,2.8-9.4c2.1-3.1,4.9-5.7,8.4-8c3.6-2.3,7.6-4,12.1-5.2
				c4.5-1.2,9.1-1.8,13.8-1.7l6.3-9.4l10.7,1.4l-6.3,9.3c3.8,0.9,7,2.2,9.8,3.9c2.8,1.7,4.8,3.5,6,5.7l-10,7.4
				c-2.8-4.1-7-6.8-12.4-8.3l-12.4,18.4c4,1.6,7.2,3.1,9.5,4.6c2.3,1.5,3.8,3.5,4.4,6c0.6,2.5-0.3,5.5-2.7,9.1
				C1045.9,865.4,1041.3,869,1035.3,871.6z"/>
		</g>
	</g>
	<g>
		
			<ellipse transform="matrix(0.9238 -0.3828 0.3828 0.9238 -617.3114 300.6115)" class="st4" cx="446.8" cy="1701.7" rx="129.7" ry="80.3"/>
		<path class="st7" d="M570.5,1669.5c-1,12.3-10.4,25.7-19.4,39.1c-32.6,48.6-107.9,81.8-167.8,73.9c-26.4-3.4-45.4-14.3-55.7-29.5
			c-0.5,0.6,5.7,31.1,31.6,42.8c28.9,13.1,84.4,15.4,134.5-10c69.2-34.9,74.4-71.2,76.8-78.8C575.2,1692.7,571,1669.7,570.5,1669.5z
			"/>
		<g>
			
				<ellipse transform="matrix(0.9238 -0.3828 0.3828 0.9238 -617.3177 300.6163)" class="st3" cx="446.8" cy="1701.7" rx="108.5" ry="67.1"/>
			<path class="st4" d="M387.6,1789.8c-59.9-7.8-82.1-53.7-49.5-102.3s107.9-81.8,167.8-73.9c59.9,7.8,82.1,53.7,49.5,102.3
				S447.6,1797.6,387.6,1789.8z M496.3,1628c-50.1-6.5-113,21.2-140.3,61.8c-27.3,40.6-8.7,79,41.4,85.6
				c50.1,6.5,113-21.2,140.3-61.8C564.9,1672.9,546.4,1634.5,496.3,1628z"/>
			<path class="st5" d="M454.2,1737.7c-7.3,3.2-15.3,4.7-23.9,4.6l-7.6,11.4l-12.9-1.7l7.5-11.2c-5.4-1.1-10.1-2.6-13.9-4.7
				c-3.9-2.1-6.8-4.6-8.8-7.5l12-8.9c4.2,5.6,10.4,9.2,18.6,10.8l14.3-21.3c-4.9-1.9-8.8-3.8-11.7-5.7c-2.9-1.9-4.8-4.4-5.5-7.5
				c-0.8-3.1,0.4-6.9,3.3-11.3c2.5-3.7,5.9-6.9,10.2-9.6c4.3-2.7,9.2-4.8,14.6-6.3c5.4-1.5,11-2.1,16.7-2l7.6-11.4l12.9,1.7
				l-7.6,11.3c4.6,1.1,8.5,2.7,11.8,4.7c3.3,2,5.7,4.3,7.2,6.8l-12,8.9c-3.4-4.9-8.4-8.2-15-10l-14.9,22.2c4.9,1.9,8.7,3.8,11.5,5.6
				c2.8,1.8,4.6,4.2,5.3,7.2c0.7,3-0.3,6.6-3.2,10.9C467,1730.2,461.5,1734.5,454.2,1737.7z M441.5,1692.3c1,1.7,3.1,3.4,6.1,4.9
				l13.3-19.8c-4,0.1-7.7,1-10.9,2.5c-3.3,1.5-5.8,3.6-7.6,6.3C440.8,1688.5,440.5,1690.5,441.5,1692.3z M447,1729.1
				c3-1.4,5.4-3.5,7.1-6.1c1.4-2.1,1.6-3.9,0.7-5.5c-1-1.5-2.9-3-5.9-4.3l-12.3,18.3C440.6,1731.3,444.1,1730.5,447,1729.1z"/>
			<path class="st6" d="M344.8,1688.3c32-47.7,105.2-80.5,164.5-74.3c-1.1-0.2-2.2-0.3-3.3-0.5c-59.9-7.8-135.2,25.3-167.8,73.9
				s-10.4,94.5,49.5,102.3c1.1,0.1,2.2,0.3,3.3,0.4C333.5,1781.1,312.7,1736,344.8,1688.3z"/>
			<path class="st5" d="M496.3,1628c-1-0.1-1.9-0.2-2.9-0.3c47.9,7.6,65.3,45.3,38.5,85.1c-26.8,39.8-87.8,67.3-137.4,62.1
				c0.9,0.2,1.9,0.3,2.9,0.4c50.1,6.5,113-21.2,140.3-61.8C564.9,1672.9,546.4,1634.5,496.3,1628z"/>
			<path class="st4" d="M440.7,1689.6c1,1.7,3.1,3.4,6.1,4.9l13.3-19.8c-4,0.1-7.7,1-10.9,2.5c-3.3,1.5-5.8,3.6-7.6,6.3
				C440,1685.8,439.7,1687.8,440.7,1689.6z M446.2,1726.4c3-1.4,5.4-3.5,7.1-6.1c1.4-2.1,1.6-3.9,0.7-5.5c-1-1.5-2.9-3-5.9-4.3
				l-12.3,18.3C439.8,1728.6,443.3,1727.8,446.2,1726.4z M453.4,1735c-7.3,3.2-15.3,4.7-23.9,4.6l-7.6,11.4l-12.9-1.7l7.5-11.2
				c-5.4-1.1-10.1-2.6-13.9-4.7c-3.9-2.1-6.8-4.6-8.8-7.5l12-8.9c4.2,5.6,10.4,9.2,18.6,10.8l14.3-21.3c-4.9-1.9-8.8-3.8-11.7-5.7
				c-2.9-1.9-4.8-4.4-5.5-7.5c-0.8-3.1,0.4-6.9,3.3-11.3c2.5-3.7,5.9-6.9,10.2-9.6c4.3-2.7,9.2-4.8,14.6-6.3c5.4-1.5,11-2.1,16.7-2
				l7.6-11.4l12.9,1.7l-7.6,11.3c4.6,1.1,8.5,2.7,11.8,4.7c3.3,2,5.7,4.3,7.2,6.8l-12,8.9c-3.4-4.9-8.4-8.2-15-10l-14.9,22.2
				c4.9,1.9,8.7,3.8,11.5,5.6c2.8,1.8,4.6,4.2,5.3,7.2c0.7,3-0.3,6.6-3.2,10.9C466.2,1727.5,460.7,1731.8,453.4,1735z"/>
		</g>
	</g>
</g>
</svg>
