<svg width="261" height="262" viewBox="0 0 261 262" fill="none" xmlns="http://www.w3.org/2000/svg">
<path d="M126.273 28.524C12.1383 -4.61182 -87.3653 300.342 122.842 251.738C284.559 214.395 326.963 86.7707 126.273 28.524Z" fill="#FFB9A5"/>
<path d="M220.39 103.86C213.384 103.852 206.537 101.767 200.716 97.869C194.895 93.9706 190.36 88.4339 187.685 81.9586C185.009 75.4833 184.314 68.3603 185.686 61.4899C187.059 54.6195 190.437 48.3103 195.395 43.3597C200.352 38.4091 206.666 35.0395 213.539 33.6768C220.411 32.3141 227.533 33.0195 234.005 35.7038C240.476 38.3881 246.006 42.9308 249.897 48.7577C253.787 54.5846 255.862 61.434 255.86 68.4401C255.847 77.8387 252.104 86.8478 245.453 93.4889C238.803 100.13 229.789 103.86 220.39 103.86ZM220.39 44.1801C215.592 44.1801 210.901 45.6029 206.912 48.2687C202.922 50.9344 199.813 54.7233 197.977 59.1562C196.141 63.5892 195.66 68.467 196.596 73.173C197.532 77.879 199.843 82.2017 203.236 85.5945C206.628 88.9873 210.951 91.2979 215.657 92.234C220.363 93.1701 225.241 92.6896 229.674 90.8534C234.107 89.0172 237.896 85.9078 240.561 81.9182C243.227 77.9287 244.65 73.2383 244.65 68.4401C244.645 62.0076 242.087 55.84 237.539 51.2916C232.99 46.7431 226.823 44.1854 220.39 44.1801Z" fill="#EBECD7"/>
<path d="M183.129 197.454L181.181 95.4079C181.05 88.8741 175.469 80.8153 168.714 77.4061L102.326 43.9374C98.644 42.0803 95.3403 41.999 93.0966 43.3613L88.0834 45.9098L90.1956 48.1668C90.1255 48.6458 90.0898 49.1279 90.0887 49.6104V156.211C90.0887 162.745 95.7512 170.546 102.737 173.63L170.711 203.676C171.538 204.046 172.408 204.346 173.308 204.571L174.237 206.889L179.242 204.334C179.508 204.218 179.763 204.087 180.006 203.94L180.154 203.859C182.052 202.632 183.186 200.436 183.129 197.454Z" fill="#AA9383"/>
<path d="M177.458 200.355C177.606 206.882 172.034 209.674 165.065 206.577L97.0908 176.545C96.7745 176.409 96.4673 176.26 96.1703 176.097C89.5956 172.763 84.4344 165.375 84.4344 159.153V52.5113C84.4344 45.9572 89.9161 43.4223 96.6634 46.8316L163.051 80.3002C169.799 83.6891 175.379 91.7547 175.51 98.2817L177.458 200.355Z" fill="#D8CAC0"/>
<path d="M165.517 93.7812L97.6003 61.4986C97.1761 61.2434 96.6748 61.0894 96.1515 61.0535C95.6282 61.0176 95.103 61.1013 94.6335 61.2953L93.3596 61.9731L93.7377 62.2239C93.5587 62.6064 93.4695 63.0135 93.4747 63.4235V74.3357C93.5519 75.5126 93.9641 76.6578 94.6781 77.6788C95.392 78.6997 96.3874 79.5676 97.5839 80.2121L165.517 112.352C166.016 112.603 166.578 112.756 167.161 112.8L167.276 113.227L168.36 112.596C168.439 112.56 168.514 112.516 168.582 112.468L168.804 112.346C169.095 112.083 169.318 111.775 169.459 111.439C169.601 111.104 169.658 110.748 169.626 110.394V99.6643C169.547 98.4869 169.134 97.3413 168.42 96.3195C167.707 95.2978 166.712 94.4284 165.517 93.7812Z" fill="#9C5647"/>
<path d="M96.4086 62.1494C94.1404 61.0717 92.2994 61.9528 92.2994 64.1149V75.0204C92.3767 76.1981 92.7889 77.3443 93.5027 78.3663C94.2166 79.3884 95.212 80.2575 96.4086 80.9035L164.317 113.01C166.585 114.081 168.426 113.193 168.426 111.037V100.322C168.347 99.1444 167.934 97.9988 167.22 96.977C166.507 95.9553 165.512 95.0858 164.317 94.4387L96.4086 62.1494Z" fill="#663535"/>
<path d="M94.7156 89.6942L93.524 90.433L94.7156 90.9888V103.894L106.657 109.268V110.536L107.849 109.804V95.8281L94.7156 89.6942Z" fill="#9C5647"/>
<path d="M93.524 90.433V104.626L106.657 110.536V96.5669L93.524 90.433Z" fill="#663535"/>
<path d="M114.686 98.9526L113.495 99.6914L114.686 100.247V113.152L126.628 118.52V119.788L127.819 119.056V105.087L114.686 98.9526Z" fill="#9C5647"/>
<path d="M113.495 99.6914V113.884L126.628 119.788V105.825L113.495 99.6914Z" fill="#663535"/>
<path d="M134.92 108.462L133.728 109.194L134.92 109.75V122.655L146.861 128.029V129.297L148.053 128.565V114.596L134.92 108.462Z" fill="#9C5647"/>
<path d="M133.728 109.194V123.393L146.861 129.297V115.328L133.728 109.194Z" fill="#663535"/>
<path d="M154.529 117.158L153.337 117.896L154.529 118.452V131.357L166.47 136.732V137.999L167.662 137.267V123.298L154.529 117.158Z" fill="#9C5647"/>
<path d="M153.337 117.896V132.096L166.47 137.999V124.03L153.337 117.896Z" fill="#EE6251"/>
<path d="M94.7156 111.261L93.524 112L94.7156 112.556V125.461L106.657 130.835V132.103L107.849 131.364V117.395L94.7156 111.261Z" fill="#9C5647"/>
<path d="M93.524 112V126.193L106.657 132.103V118.134L93.524 112Z" fill="#663535"/>
<path d="M114.686 119.93L113.495 120.662L114.686 121.218V134.123L126.628 139.497V140.765L127.819 140.033V126.064L114.686 119.93Z" fill="#9C5647"/>
<path d="M113.495 120.662V134.861L126.628 140.765V126.796L113.495 120.662Z" fill="#663535"/>
<path d="M134.92 128.843L133.728 129.581L134.92 130.137V143.035L146.861 148.41V149.684L148.053 148.946V134.977L134.92 128.843Z" fill="#9C5647"/>
<path d="M133.728 129.581V143.774L146.861 149.684V135.715L133.728 129.581Z" fill="#663535"/>
<path d="M154.529 137.545L153.337 138.284L154.529 138.84V151.745L166.47 157.113V158.387L167.662 157.648V143.679L154.529 137.545Z" fill="#9C5647"/>
<path d="M153.337 138.284V152.477L166.47 158.387V144.418L153.337 138.284Z" fill="#EE6251"/>
<path d="M94.7156 131.113L93.524 131.852L94.7156 132.401V145.306L106.657 150.681V151.955L107.849 151.216V137.247L94.7156 131.113Z" fill="#9C5647"/>
<path d="M93.524 131.852V146.045L106.657 151.955V137.979L93.524 131.852Z" fill="#663535"/>
<path d="M114.686 139.775L113.495 140.514L114.686 141.07V153.968L126.628 159.343V160.617L127.819 159.878V145.909L114.686 139.775Z" fill="#9C5647"/>
<path d="M113.495 140.514V154.707L126.628 160.617V146.648L113.495 140.514Z" fill="#663535"/>
<path d="M134.92 148.688L133.728 149.427L134.92 149.983V162.887L146.861 168.262V169.53L148.053 168.798V154.829L134.92 148.688Z" fill="#9C5647"/>
<path d="M133.728 149.427V163.626L146.861 169.53V155.561L133.728 149.427Z" fill="#663535"/>
<path d="M154.529 157.397L153.337 158.129L154.529 158.685V171.59L166.47 176.965V178.232L167.662 177.494V163.525L154.529 157.397Z" fill="#9C5647"/>
<path d="M153.337 158.129V172.322L166.47 178.232V164.263L153.337 158.129Z" fill="#EE6251"/>
<path d="M165.016 182.57L96.9099 151.684C96.6348 151.526 96.3079 151.442 95.973 151.442C95.6382 151.442 95.3113 151.526 95.0361 151.684L94.2143 152.463L94.4773 152.728C94.4533 152.799 94.4341 152.871 94.4198 152.944V158.516C94.4677 159.224 94.7221 159.912 95.1613 160.522C95.6005 161.132 96.2116 161.646 96.9428 162.02L165.04 192.642C165.351 192.784 165.691 192.876 166.043 192.913L166.257 193.32L167.358 192.54V192.506C167.641 192.246 167.791 191.906 167.777 191.557V186.223C167.699 185.478 167.408 184.758 166.928 184.124C166.448 183.489 165.793 182.956 165.016 182.57Z" fill="#9C5647"/>
<path d="M93.8034 153.5C93.8034 152.199 94.9375 151.65 96.3182 152.28L164.424 183.16C165.152 183.536 165.76 184.05 166.198 184.66C166.636 185.269 166.89 185.957 166.939 186.664V191.964C166.939 193.265 165.805 193.821 164.416 193.198L96.3182 162.576C95.5892 162.202 94.9801 161.689 94.5423 161.081C94.1046 160.472 93.8511 159.785 93.8034 159.078V153.5Z" fill="#663535"/>
<path d="M101.29 95.8891V105.981L99.0549 104.91V99.0814V98.1325V97.0955C98.8134 97.2239 98.5574 97.3328 98.2906 97.4209L97.0579 97.7733L95.9813 95.9772L99.4165 95.0148L101.29 95.8891Z" fill="white"/>
<path d="M120.151 104.287C120.81 104.603 121.404 105.003 121.91 105.473C122.405 105.928 122.805 106.448 123.094 107.011C123.361 107.519 123.503 108.065 123.513 108.618C123.525 109.019 123.43 109.417 123.233 109.784C123.058 110.13 122.774 110.432 122.412 110.658C121.822 111.03 121.182 111.344 120.505 111.593L119.124 112.156V112.244L123.759 114.453V116.256L116.322 112.712V111.22L119.001 109.939C119.546 109.691 120.063 109.403 120.546 109.079C120.774 108.928 120.957 108.735 121.08 108.516C121.191 108.302 121.249 108.071 121.253 107.838C121.25 107.468 121.129 107.105 120.901 106.785C120.673 106.466 120.346 106.203 119.954 106.022C119.594 105.84 119.184 105.735 118.763 105.717C118.341 105.704 117.921 105.764 117.53 105.893L116.33 103.948C116.744 103.803 117.182 103.707 117.628 103.663C118.007 103.663 118.384 103.708 118.746 103.799C119.235 103.917 119.707 104.081 120.151 104.287Z" fill="white"/>
<path d="M140.13 113.857C141.146 114.32 142.031 114.955 142.727 115.721C143.326 116.358 143.661 117.138 143.681 117.944C143.71 118.188 143.669 118.434 143.562 118.662C143.455 118.89 143.285 119.095 143.064 119.259C142.815 119.388 142.532 119.465 142.239 119.485C141.946 119.505 141.651 119.467 141.38 119.374C142.16 119.815 142.821 120.385 143.319 121.048C143.747 121.616 143.972 122.271 143.968 122.939C143.968 123.915 143.599 124.485 142.842 124.668C142.086 124.851 141.051 124.627 139.67 123.99C138.538 123.456 137.51 122.784 136.621 121.997V120.174C137.037 120.579 137.491 120.958 137.977 121.306C138.428 121.641 138.918 121.938 139.44 122.194C139.913 122.485 140.494 122.634 141.084 122.614C141.429 122.553 141.618 122.241 141.618 121.719C141.617 121.237 141.397 120.773 141.002 120.418C140.437 119.929 139.783 119.517 139.062 119.198L138.24 118.812V117.185L139.062 117.578C139.59 117.888 140.208 118.075 140.854 118.12C141.24 118.12 141.445 117.842 141.445 117.354C141.428 116.957 141.277 116.571 141.009 116.24C140.74 115.91 140.365 115.648 139.925 115.484C139.594 115.325 139.237 115.207 138.865 115.131C138.464 115.084 138.057 115.084 137.657 115.131L136.613 113.179C137.848 113.019 139.11 113.262 140.13 113.857Z" fill="white"/>
<path d="M102.761 125.156L104.043 125.766V127.419L102.761 126.809V128.89L100.592 127.84V125.759L96.047 123.597V122.119L100.74 117.836L102.811 118.818L102.761 125.156ZM100.592 121.177C100.592 120.648 100.592 120.343 100.649 120.262H100.6C100.425 120.546 100.207 120.81 99.9507 121.048L97.9865 122.905L100.551 124.132V122.431C100.592 122.112 100.592 121.706 100.592 121.177Z" fill="white"/>
<path d="M123.505 127.324V129.134L119.716 127.324L119.527 129.215L119.765 129.276C120.15 129.392 120.519 129.539 120.866 129.717C121.888 130.186 122.739 130.872 123.332 131.703C123.939 132.503 124.255 133.43 124.244 134.373C124.244 135.505 123.866 136.197 123.135 136.454C122.403 136.712 121.351 136.515 119.995 135.871C118.911 135.375 117.937 134.728 117.119 133.96V132.116C117.532 132.513 117.98 132.885 118.458 133.228C118.904 133.559 119.388 133.852 119.905 134.102C121.277 134.78 121.976 134.55 121.976 133.492C121.976 132.435 121.269 131.628 119.839 130.944C119.341 130.706 118.804 130.528 118.245 130.415L117.349 129.534L117.768 124.586L123.505 127.324Z" fill="white"/>
<path d="M143.245 140.5C143.787 141.334 144.07 142.266 144.067 143.212C144.067 144.289 143.746 144.987 143.105 145.306C142.464 145.624 141.56 145.516 140.443 144.981C139.639 144.597 138.935 144.085 138.372 143.476C137.783 142.827 137.333 142.101 137.04 141.327C136.715 140.486 136.557 139.607 136.572 138.725C136.572 136.727 137.018 135.449 137.911 134.888C138.804 134.328 140.141 134.48 141.922 135.343C142.418 135.568 142.89 135.827 143.336 136.115V137.816C142.936 137.537 142.507 137.288 142.053 137.071C141.491 136.759 140.845 136.564 140.171 136.502C139.955 136.49 139.739 136.529 139.548 136.613C139.356 136.696 139.197 136.822 139.087 136.976C138.777 137.475 138.621 138.029 138.635 138.589L138.725 138.63C139.224 138.088 139.996 138.067 141.043 138.569C141.984 139.027 142.748 139.697 143.245 140.5ZM141.47 143.347C141.626 143.19 141.743 143.01 141.814 142.815C141.884 142.621 141.907 142.417 141.881 142.215C141.885 141.747 141.761 141.284 141.519 140.86C141.276 140.469 140.899 140.146 140.434 139.931C140.268 139.829 140.074 139.762 139.869 139.737C139.663 139.713 139.454 139.73 139.259 139.789C139.093 139.857 138.956 139.965 138.867 140.1C138.779 140.235 138.744 140.389 138.766 140.541C138.766 141.094 138.921 141.639 139.218 142.134C139.456 142.594 139.857 142.984 140.369 143.252C140.862 143.503 141.215 143.517 141.47 143.334V143.347Z" fill="white"/>
<path d="M104.019 138.569L104.011 139.904L99.9508 146.702L97.6085 145.584L101.627 139.219L96.3676 136.718L96.3758 134.929L104.019 138.569Z" fill="white"/>
<path d="M123.159 153.046C123.478 153.568 123.653 154.142 123.669 154.727C123.669 155.561 123.332 156.083 122.65 156.245C122.178 156.313 121.694 156.302 121.228 156.211C120.762 156.12 120.323 155.952 119.938 155.717C118.857 155.214 117.925 154.519 117.209 153.683C116.565 152.965 116.217 152.096 116.215 151.203C116.173 150.737 116.35 150.276 116.708 149.915C116.915 149.757 117.159 149.635 117.424 149.557C117.69 149.479 117.972 149.446 118.253 149.461C117.721 148.922 117.283 148.325 116.955 147.685C116.698 147.195 116.563 146.667 116.56 146.133C116.56 145.421 116.872 144.981 117.522 144.838C118.392 144.737 119.277 144.92 119.987 145.347C120.963 145.801 121.805 146.429 122.453 147.183C123.037 147.823 123.362 148.599 123.381 149.4C123.421 149.613 123.398 149.831 123.315 150.035C123.232 150.239 123.091 150.424 122.903 150.575C122.716 150.725 122.488 150.837 122.238 150.9C121.988 150.963 121.724 150.976 121.466 150.938C122.131 151.582 122.7 152.29 123.159 153.046ZM121.171 154.402C121.45 154.307 121.598 154.063 121.598 153.724C121.567 153.346 121.423 152.98 121.179 152.66C120.792 152.13 120.346 151.631 119.847 151.169C118.82 151.135 118.302 151.46 118.302 152.138C118.302 152.543 118.454 152.939 118.738 153.27C119.039 153.65 119.448 153.964 119.93 154.185C120.102 154.287 120.299 154.358 120.507 154.394C120.715 154.43 120.93 154.431 121.138 154.395L121.171 154.402ZM119.034 146.777C118.795 146.838 118.689 147.041 118.68 147.353C118.687 147.653 118.78 147.949 118.952 148.214C119.231 148.632 119.57 149.021 119.962 149.373C120.312 149.409 120.666 149.352 120.973 149.21C121.07 149.126 121.144 149.027 121.192 148.919C121.24 148.81 121.261 148.695 121.253 148.58C121.243 148.243 121.114 147.915 120.883 147.637C120.636 147.359 120.319 147.128 119.954 146.96C119.828 146.873 119.68 146.81 119.521 146.777C119.361 146.745 119.195 146.742 119.034 146.77V146.777Z" fill="white"/>
<path d="M143.582 157.499C143.896 158.338 144.054 159.211 144.051 160.088C144.051 162.081 143.599 163.348 142.694 163.891C141.79 164.433 140.476 164.311 138.7 163.464C138.199 163.237 137.72 162.976 137.27 162.684V160.956C137.667 161.231 138.09 161.478 138.536 161.695C139.102 161.998 139.741 162.195 140.41 162.271C140.628 162.287 140.848 162.251 141.043 162.168C141.237 162.086 141.4 161.959 141.511 161.803C141.819 161.301 141.977 160.746 141.971 160.183L141.881 160.142C141.771 160.272 141.626 160.379 141.458 160.455C141.29 160.532 141.103 160.575 140.911 160.583C140.412 160.542 139.933 160.403 139.514 160.176C138.589 159.734 137.834 159.086 137.336 158.306C136.797 157.471 136.514 156.54 136.514 155.595C136.514 154.497 136.851 153.805 137.492 153.487C138.133 153.168 139.037 153.283 140.139 153.805C140.94 154.189 141.641 154.701 142.201 155.31C142.819 155.964 143.287 156.706 143.582 157.499ZM141.314 159.011C141.479 158.945 141.616 158.838 141.706 158.706C141.795 158.574 141.833 158.422 141.815 158.272C141.819 157.714 141.665 157.164 141.363 156.665C141.129 156.204 140.727 155.813 140.213 155.547C139.736 155.317 139.391 155.303 139.111 155.493C138.832 155.683 138.725 156.035 138.717 156.611C138.702 157.079 138.82 157.543 139.062 157.967C139.302 158.359 139.68 158.683 140.147 158.895C140.314 158.993 140.509 159.055 140.713 159.075C140.916 159.095 141.123 159.073 141.314 159.011Z" fill="white"/>
<path d="M159.953 122.702C160.272 122.873 160.538 123.104 160.728 123.376C160.918 123.649 161.027 123.954 161.046 124.268V127.44L164.399 129.039C164.715 129.209 164.977 129.439 165.164 129.708C165.351 129.978 165.458 130.281 165.476 130.591C165.476 131.161 164.991 131.384 164.391 131.1L161.038 129.5V132.686C161.038 133.255 160.553 133.479 159.937 133.187C159.624 133.018 159.364 132.79 159.177 132.523C158.99 132.256 158.882 131.957 158.86 131.649V128.463L155.507 126.864C155.192 126.696 154.929 126.469 154.74 126.202C154.552 125.934 154.443 125.634 154.422 125.325C154.422 124.762 154.915 124.512 155.507 124.796L158.868 126.396V123.231C158.868 122.648 159.353 122.417 159.953 122.702Z" fill="white"/>
<path d="M164.917 168.899C165.232 169.069 165.495 169.299 165.682 169.569C165.869 169.838 165.976 170.141 165.994 170.451C165.994 171.021 165.509 171.244 164.909 170.967L156.008 166.724C155.695 166.555 155.434 166.328 155.247 166.06C155.06 165.793 154.952 165.493 154.932 165.185C154.932 164.623 155.425 164.379 156.016 164.656L164.917 168.899Z" fill="white"/>
<path d="M163.125 145.218C163.451 145.384 163.717 145.618 163.898 145.896C164.317 146.492 164.317 147.149 163.898 147.346L161.515 148.464L163.881 151.853C164.301 152.47 164.301 153.107 163.881 153.324C163.755 153.364 163.618 153.378 163.483 153.364C163.348 153.349 163.22 153.308 163.109 153.243C162.784 153.076 162.518 152.843 162.336 152.565L159.97 149.176L157.603 150.301C157.475 150.343 157.337 150.359 157.201 150.346C157.064 150.333 156.934 150.292 156.822 150.227C156.502 150.056 156.236 149.823 156.049 149.549C155.63 148.939 155.638 148.295 156.049 148.085L158.433 146.966L156.066 143.578C155.647 142.981 155.647 142.324 156.066 142.12C156.193 142.078 156.331 142.063 156.468 142.076C156.604 142.089 156.734 142.13 156.847 142.195C157.173 142.36 157.439 142.594 157.619 142.873L159.97 146.262L162.353 145.143C162.479 145.102 162.616 145.087 162.751 145.1C162.885 145.113 163.014 145.154 163.125 145.218Z" fill="white"/>
<path d="M104.693 110.285L75.6819 97.5971L91.6091 62.1357L113.93 76.0437V103.338L104.693 110.285Z" fill="#B2685B"/>
<path opacity="0.4" d="M124.778 55.2563C124.778 55.2563 128.46 101.196 117.555 105.866L110.454 49.5697L124.778 55.2563Z" fill="#510F0F"/>
<path d="M131.074 30.1446C131.074 30.1446 133.054 31.2019 133.054 34.3536V59.4314L114.974 51.0405L113.906 30.6461L123.488 27.4335L131.074 30.1446Z" fill="#B2685B"/>
<path opacity="0.4" d="M96.1703 77.4873V176.097C89.5956 172.763 84.4344 165.375 84.4344 159.153V72.3091L96.1703 77.4873Z" fill="#510F0F"/>
<path d="M130.605 29.8531C129.512 29.4058 128.016 29.5007 126.356 30.2801C124.584 31.2355 123.11 32.522 122.053 34.0352C120.996 35.5485 120.387 37.2458 120.275 38.9896L120.414 79.5749L120.275 80.3544C120.39 82.4329 120.447 84.3487 120.447 86.1019V86.4001C120.447 87.5795 120.447 88.6978 120.447 89.789V90.4668C120.242 101.542 118.491 104.382 117.694 105.086C115.886 107.066 113.534 108.664 110.832 109.75C105.556 112.21 104.15 109.072 103.772 107.567C103.69 107.167 103.657 106.889 103.657 106.889V80.3883L102.482 79.846C101.989 77.8127 100.066 76.9113 97.6332 77.6433L79.224 69.232C79.0514 72.3566 76.4133 76.0505 73.1424 77.5823C69.8715 79.114 67.0279 77.894 67.0279 74.6949L66.9704 61.8714V60.692C66.9704 59.7703 66.9704 58.7943 66.9704 57.7776V56.8761V50.9863V50.3966L66.8307 10.4077C66.9353 8.66355 67.5367 6.96427 68.5862 5.44757C69.6356 3.93087 71.1036 2.63943 72.8712 1.67792C74.7614 0.776474 76.4626 0.776474 77.5803 1.50847C77.6524 1.55974 77.7184 1.61647 77.7776 1.67792L130.605 29.8531Z" fill="url(#paint0_linear_198_2407)"/>
<path d="M103.772 104.992L103.674 85.7969V80.3747C103.665 80.2719 103.645 80.1699 103.616 80.0697V79.9002C103.548 79.0972 103.266 78.3164 102.79 77.6135C102.314 76.9106 101.656 76.3029 100.863 75.8336L99.1371 75.0812C99.1371 75.0812 99.0549 75.0812 99.0221 75.027L66.9704 60.7395L59.3684 57.3506L43.4165 49.9425C42.9833 49.7423 42.4992 49.6285 42.003 49.6104H41.8633C40.8895 49.6339 39.9402 49.8676 39.1101 50.2881C37.3376 51.2449 35.8632 52.5327 34.8066 54.047C33.7501 55.5614 33.1409 57.2597 33.0285 59.0044L33.2586 123.298C33.2666 123.711 33.3245 124.122 33.4312 124.525C33.8915 137.349 33.9983 176.843 19.0244 183.776L77.1283 210.989C77.1283 210.989 89.3819 210.095 90.4092 190.263V86.7458C90.5206 85.0026 91.1286 83.3057 92.1838 81.7925C93.239 80.2793 94.7117 78.9925 96.4826 78.0364C96.8434 77.8601 97.2264 77.7169 97.6249 77.6094C100.09 76.8774 101.989 77.7517 102.474 79.8121C102.573 80.177 102.622 80.5498 102.622 80.9237L102.704 107.072C102.704 107.072 102.482 111.444 108.227 110.563C102.926 110.881 103.772 104.992 103.772 104.992Z" fill="#E0E6BE"/>
<path d="M100.847 75.7861L66.9622 60.692C66.9622 59.7702 66.9622 58.7942 66.9622 57.7775V56.8761L100.847 75.7861Z" fill="#B2685B"/>
<path d="M54.8483 128.612C53.632 129.534 51.8322 129.425 49.4899 128.307C47.178 127.197 45.3469 125.516 44.2548 123.502C42.9717 121.138 42.3482 118.567 42.4303 115.978C42.4303 110.034 44.8219 108.211 49.5474 110.461C51.8835 111.581 53.7391 113.272 54.8565 115.301C56.1533 117.637 56.7831 120.188 56.6974 122.756C56.6892 125.711 56.0564 127.677 54.8483 128.612ZM48.0599 122.377C48.1372 122.762 48.3081 123.13 48.5623 123.46C48.8165 123.79 49.1488 124.074 49.5392 124.295C50.8542 124.925 51.5034 123.617 51.5116 120.336C51.5199 117.056 50.887 115.172 49.5721 114.541C48.89 114.216 48.3969 114.386 48.0846 115.029C47.698 116.15 47.5397 117.316 47.6161 118.479C47.5628 119.789 47.7119 121.098 48.0599 122.377ZM49.1776 139.165L54.1086 141.51L70.833 120.967L65.902 118.622L49.1776 139.165ZM75.8298 136.657C77.1185 138.995 77.7425 141.546 77.6543 144.113C77.6543 147.082 77.0379 149.013 75.8216 149.935C74.6053 150.857 72.8055 150.762 70.4468 149.637C68.1454 148.523 66.3215 146.846 65.2281 144.838C63.9477 142.479 63.3242 139.913 63.4036 137.328C63.4036 131.391 65.7952 129.561 70.5043 131.804C72.8466 132.928 74.7076 134.623 75.8298 136.657ZM70.5125 145.658C71.811 146.275 72.4767 144.98 72.4849 141.693C72.4931 138.406 71.8275 136.556 70.5454 135.878C69.8468 135.546 69.3537 135.715 69.0414 136.359C68.6648 137.481 68.5039 138.646 68.5648 139.809C68.5255 141.118 68.6773 142.427 69.0168 143.706C69.0931 144.098 69.265 144.473 69.5221 144.809C69.7792 145.144 70.1161 145.433 70.5125 145.658Z" fill="#B2685B"/>
<path d="M81.106 101.942C81.4051 102.102 81.6541 102.318 81.8326 102.572C82.0111 102.826 82.1142 103.112 82.1333 103.406C82.1333 103.921 81.6648 104.138 81.0978 103.873L40.3922 84.4888C40.1011 84.3301 39.8589 84.1176 39.6848 83.8682C39.5108 83.6187 39.4096 83.3393 39.3895 83.0519C39.3895 82.5165 39.8498 82.2996 40.4004 82.5639L81.106 101.942Z" fill="white"/>
<path d="M81.0813 108.868C81.3772 109.026 81.6242 109.239 81.8025 109.49C81.9809 109.741 82.0857 110.022 82.1086 110.312C82.1086 110.854 81.6484 111.064 81.0731 110.793L40.3675 91.4157C40.0747 91.2552 39.8315 91.0405 39.6574 90.7886C39.4833 90.5367 39.3831 90.2548 39.3649 89.9652C39.3649 89.4433 39.8251 89.2265 40.3757 89.484L81.0813 108.868Z" fill="white"/>
<path d="M81.0567 115.795C81.3543 115.952 81.6027 116.164 81.7813 116.415C81.9599 116.666 82.0637 116.949 82.084 117.239C82.084 117.775 81.6237 117.991 81.0567 117.727L40.3429 98.3426C40.0514 98.181 39.8092 97.966 39.6353 97.7144C39.4613 97.4627 39.3603 97.1813 39.3402 96.8922C39.3402 96.3499 39.8004 96.1534 40.3511 96.4177L81.0567 115.795Z" fill="white"/>
<path d="M81.106 174.782C81.4051 174.942 81.6541 175.158 81.8326 175.413C82.0111 175.667 82.1142 175.953 82.1333 176.246C82.1333 176.768 81.6648 176.985 81.0978 176.714L40.3922 157.33C40.1011 157.171 39.8589 156.958 39.6848 156.709C39.5108 156.459 39.4096 156.18 39.3895 155.893C39.3895 155.357 39.8498 155.14 40.4004 155.398L81.106 174.782Z" fill="white"/>
<path d="M81.1307 167.855C81.4296 168.015 81.6781 168.231 81.8553 168.486C82.0326 168.74 82.1335 169.026 82.1497 169.319C82.1497 169.841 81.6895 170.051 81.1224 169.787L40.4168 150.403C40.1257 150.244 39.8835 150.031 39.7095 149.782C39.5354 149.533 39.4343 149.253 39.4142 148.966C39.4142 148.43 39.8744 148.213 40.425 148.478L81.1307 167.855Z" fill="white"/>
<path d="M81.0813 181.709C81.3772 181.867 81.6242 182.08 81.8025 182.331C81.9809 182.581 82.0857 182.863 82.1086 183.153C82.1086 183.695 81.6484 183.905 81.0731 183.641L40.3675 164.256C40.0738 164.097 39.8299 163.882 39.6557 163.63C39.4815 163.378 39.3818 163.096 39.3649 162.806C39.3649 162.284 39.8251 162.067 40.3757 162.332L81.0813 181.709Z" fill="white"/>
<path d="M81.1553 160.956C81.4543 161.115 81.7027 161.331 81.88 161.586C82.0572 161.84 82.1582 162.126 82.1744 162.42C82.1744 162.955 81.7142 163.172 81.1471 162.901L40.4415 143.523C40.1476 143.362 39.9037 143.146 39.7296 142.893C39.5554 142.64 39.4558 142.357 39.4388 142.066C39.4388 141.531 39.8991 141.314 40.4497 141.571L81.1553 160.956Z" fill="white"/>
<path d="M81.0567 188.636C81.3543 188.792 81.6027 189.005 81.7813 189.256C81.9599 189.507 82.0637 189.789 82.084 190.08C82.084 190.622 81.6237 190.839 81.0567 190.568L40.3429 171.183C40.0514 171.022 39.8092 170.807 39.6353 170.555C39.4613 170.303 39.3603 170.022 39.3402 169.733C39.3402 169.191 39.8004 168.994 40.3511 169.258L81.0567 188.636Z" fill="white"/>
<path d="M211.174 224.582V218.665H207.319C206.486 218.086 205.592 217.569 204.648 217.12C195.994 213.006 182.015 213.006 173.418 217.12C172.482 217.569 171.596 218.086 170.772 218.665H167V224.582C167 227.293 169.202 230.004 173.525 232.038C182.179 236.159 196.159 236.165 204.755 232.038C209.053 229.984 211.19 227.28 211.174 224.582Z" fill="#FF9D08"/>
<path d="M204.648 211.203C213.302 215.331 213.351 222.007 204.755 226.114C196.159 230.221 182.179 230.228 173.525 226.114C164.871 222 164.822 215.324 173.418 211.203C182.015 207.082 195.994 207.089 204.648 211.203Z" fill="#F9D075"/>
<path d="M189.302 224.225C184.223 224.225 179.309 223.27 175.816 221.609C173.038 220.287 171.452 218.674 171.444 217.19C171.435 215.706 173.005 214.133 175.725 212.832C179.177 211.178 184.075 210.229 189.154 210.229C194.233 210.229 199.148 211.178 202.632 212.839C205.41 214.16 207.004 215.773 207.004 217.258C207.004 218.742 205.451 220.315 202.731 221.616C199.271 223.276 194.381 224.225 189.302 224.225Z" fill="#FF9D08"/>
<path d="M190.153 224.788C185.44 224.788 180.88 223.832 177.638 222.171C175.061 220.849 173.589 219.235 173.581 217.751C173.573 216.266 175.03 214.693 177.554 213.391C180.758 211.737 185.303 210.788 190.016 210.788C194.729 210.788 199.29 211.737 202.524 213.398C205.101 214.72 206.581 216.334 206.581 217.818C206.581 219.303 205.14 220.876 202.615 222.178C199.404 223.839 194.867 224.788 190.153 224.788Z" fill="#FFDC4C"/>
<path d="M193.269 221C193 221.418 192.577 221.755 192.061 221.962C190.881 222.505 189.529 222.742 188.182 222.64C186.569 222.551 184.994 222.198 183.547 221.603L181.402 222.633L179.956 221.955L182.068 220.939C180.65 220.298 179.415 219.415 178.444 218.35L181.221 216.994C181.609 217.527 182.085 218.013 182.635 218.438C183.211 218.926 183.85 219.36 184.542 219.732L187.829 218.167L187.377 217.706C186.555 216.777 186.136 216.018 186.21 215.442C186.284 215.101 186.459 214.779 186.72 214.507C186.981 214.235 187.32 214.021 187.706 213.883C188.84 213.372 190.134 213.153 191.42 213.253C192.997 213.347 194.536 213.697 195.949 214.283L197.592 213.504L199.039 214.181L197.469 214.934C198.813 215.576 199.978 216.444 200.888 217.482L197.428 218.16C196.731 217.361 195.865 216.672 194.872 216.127L191.774 217.618C192.412 218.23 192.941 218.915 193.343 219.651C193.452 219.867 193.501 220.099 193.488 220.332C193.476 220.565 193.401 220.793 193.269 221ZM186.046 220.444C186.455 220.629 186.91 220.733 187.377 220.749C187.843 220.764 188.307 220.69 188.733 220.532C188.858 220.492 188.963 220.417 189.03 220.321C189.098 220.225 189.123 220.113 189.103 220.003C189.041 219.706 188.888 219.426 188.659 219.19L186.046 220.444ZM190.845 216.764L193.311 215.578C192.94 215.398 192.524 215.294 192.096 215.272C191.667 215.251 191.239 215.314 190.845 215.456C190.541 215.605 190.377 215.774 190.409 215.971C190.47 216.261 190.62 216.534 190.845 216.764Z" fill="#FF9D08"/>
<path d="M153.174 250.582V244.665H149.319C148.486 244.086 147.592 243.569 146.648 243.12C137.994 239.006 124.015 239.006 115.418 243.12C114.482 243.569 113.596 244.086 112.772 244.665H109V250.582C109 253.293 111.202 256.004 115.525 258.038C124.179 262.159 138.159 262.165 146.755 258.038C151.053 255.984 153.19 253.28 153.174 250.582Z" fill="#FF9D08"/>
<path d="M146.648 237.203C155.302 241.331 155.351 248.007 146.755 252.114C138.159 256.221 124.179 256.228 115.525 252.114C106.871 248 106.822 241.324 115.418 237.203C124.015 233.082 137.994 233.089 146.648 237.203Z" fill="#F9D075"/>
<path d="M131.302 250.225C126.223 250.225 121.309 249.27 117.816 247.609C115.038 246.287 113.452 244.674 113.444 243.19C113.435 241.706 115.005 240.133 117.725 238.832C121.177 237.178 126.075 236.229 131.154 236.229C136.233 236.229 141.148 237.178 144.632 238.839C147.41 240.16 149.004 241.773 149.004 243.258C149.004 244.742 147.451 246.315 144.731 247.616C141.271 249.276 136.381 250.225 131.302 250.225Z" fill="#FF9D08"/>
<path d="M132.153 250.788C127.44 250.788 122.88 249.832 119.638 248.171C117.061 246.849 115.589 245.235 115.581 243.751C115.573 242.266 117.03 240.693 119.554 239.391C122.758 237.737 127.303 236.788 132.016 236.788C136.729 236.788 141.29 237.737 144.524 239.398C147.101 240.72 148.581 242.334 148.581 243.818C148.581 245.303 147.14 246.876 144.615 248.178C141.404 249.839 136.867 250.788 132.153 250.788Z" fill="#FFDC4C"/>
<path d="M135.269 247C135 247.418 134.577 247.755 134.061 247.962C132.881 248.505 131.529 248.742 130.182 248.64C128.569 248.551 126.994 248.198 125.547 247.603L123.402 248.633L121.956 247.955L124.068 246.939C122.65 246.298 121.415 245.415 120.444 244.35L123.221 242.994C123.609 243.527 124.085 244.013 124.635 244.438C125.211 244.926 125.85 245.36 126.542 245.732L129.829 244.167L129.377 243.706C128.555 242.777 128.136 242.018 128.21 241.442C128.284 241.101 128.459 240.779 128.72 240.507C128.981 240.235 129.32 240.021 129.706 239.883C130.84 239.372 132.134 239.153 133.42 239.253C134.997 239.347 136.536 239.697 137.949 240.283L139.592 239.504L141.039 240.181L139.469 240.934C140.813 241.576 141.978 242.444 142.888 243.482L139.428 244.16C138.731 243.361 137.865 242.672 136.872 242.127L133.774 243.618C134.412 244.23 134.941 244.915 135.343 245.651C135.452 245.867 135.501 246.099 135.488 246.332C135.476 246.565 135.401 246.793 135.269 247ZM128.046 246.444C128.455 246.629 128.91 246.733 129.377 246.749C129.843 246.764 130.307 246.69 130.733 246.532C130.858 246.492 130.963 246.417 131.03 246.321C131.098 246.225 131.123 246.113 131.103 246.003C131.041 245.706 130.888 245.426 130.659 245.19L128.046 246.444ZM132.845 242.764L135.311 241.578C134.94 241.398 134.524 241.294 134.096 241.272C133.667 241.251 133.239 241.314 132.845 241.456C132.541 241.605 132.377 241.774 132.409 241.971C132.47 242.261 132.62 242.534 132.845 242.764Z" fill="#FF9D08"/>
<path d="M162.174 234.582V228.665H158.319C157.486 228.086 156.592 227.569 155.648 227.12C146.994 223.006 133.015 223.006 124.418 227.12C123.482 227.569 122.596 228.086 121.772 228.665H118V234.582C118 237.293 120.202 240.004 124.525 242.038C133.179 246.159 147.159 246.165 155.755 242.038C160.053 239.984 162.19 237.28 162.174 234.582Z" fill="#FF9D08"/>
<path d="M155.648 221.203C164.302 225.331 164.351 232.007 155.755 236.114C147.159 240.221 133.179 240.228 124.525 236.114C115.871 232 115.822 225.324 124.418 221.203C133.015 217.082 146.994 217.089 155.648 221.203Z" fill="#F9D075"/>
<path d="M140.302 234.225C135.223 234.225 130.309 233.27 126.816 231.609C124.038 230.287 122.452 228.674 122.444 227.19C122.435 225.706 124.005 224.133 126.725 222.832C130.177 221.178 135.075 220.229 140.154 220.229C145.233 220.229 150.148 221.178 153.632 222.839C156.41 224.16 158.004 225.773 158.004 227.258C158.004 228.742 156.451 230.315 153.731 231.616C150.271 233.276 145.381 234.225 140.302 234.225Z" fill="#FF9D08"/>
<path d="M141.153 234.788C136.44 234.788 131.88 233.832 128.638 232.171C126.061 230.849 124.589 229.235 124.581 227.751C124.573 226.266 126.03 224.693 128.554 223.391C131.758 221.737 136.303 220.788 141.016 220.788C145.729 220.788 150.29 221.737 153.524 223.398C156.101 224.72 157.581 226.334 157.581 227.818C157.581 229.303 156.14 230.876 153.615 232.178C150.404 233.839 145.867 234.788 141.153 234.788Z" fill="#FFDC4C"/>
<path d="M144.269 231C144 231.418 143.577 231.755 143.061 231.962C141.881 232.505 140.529 232.742 139.182 232.64C137.569 232.551 135.994 232.198 134.547 231.603L132.402 232.633L130.956 231.955L133.068 230.939C131.65 230.298 130.415 229.415 129.444 228.35L132.221 226.994C132.609 227.527 133.085 228.013 133.635 228.438C134.211 228.926 134.85 229.36 135.542 229.732L138.829 228.167L138.377 227.706C137.555 226.777 137.136 226.018 137.21 225.442C137.284 225.101 137.459 224.779 137.72 224.507C137.981 224.235 138.32 224.021 138.706 223.883C139.84 223.372 141.134 223.153 142.42 223.253C143.997 223.347 145.536 223.697 146.949 224.283L148.592 223.504L150.039 224.181L148.469 224.934C149.813 225.576 150.978 226.444 151.888 227.482L148.428 228.16C147.731 227.361 146.865 226.672 145.872 226.127L142.774 227.618C143.412 228.23 143.941 228.915 144.343 229.651C144.452 229.867 144.501 230.099 144.488 230.332C144.476 230.565 144.401 230.793 144.269 231ZM137.046 230.444C137.455 230.629 137.91 230.733 138.377 230.749C138.843 230.764 139.307 230.69 139.733 230.532C139.858 230.492 139.963 230.417 140.03 230.321C140.098 230.225 140.123 230.113 140.103 230.003C140.041 229.706 139.888 229.426 139.659 229.19L137.046 230.444ZM141.845 226.764L144.311 225.578C143.94 225.398 143.524 225.294 143.096 225.272C142.667 225.251 142.239 225.314 141.845 225.456C141.541 225.605 141.377 225.774 141.409 225.971C141.47 226.261 141.62 226.534 141.845 226.764Z" fill="#FF9D08"/>
<path d="M109.174 229.582V223.665H105.319C104.486 223.086 103.592 222.569 102.648 222.12C93.9942 218.006 80.0147 218.006 71.4183 222.12C70.482 222.569 69.5964 223.086 68.772 223.665H64.9998V229.582C64.9998 232.293 67.2023 235.004 71.5251 237.038C80.1791 241.159 94.1585 241.165 102.755 237.038C107.053 234.984 109.19 232.28 109.174 229.582Z" fill="#FF9D08"/>
<path d="M102.648 216.203C111.302 220.331 111.351 227.007 102.755 231.114C94.1585 235.221 80.1791 235.228 71.5251 231.114C62.8712 227 62.8219 220.324 71.4183 216.203C80.0147 212.082 93.9942 212.089 102.648 216.203Z" fill="#F9D075"/>
<path d="M87.3021 229.225C82.2232 229.225 77.3086 228.27 73.8158 226.609C71.0379 225.287 69.4518 223.674 69.4436 222.19C69.4354 220.706 71.0051 219.133 73.7253 217.832C77.1771 216.178 82.0752 215.229 87.1542 215.229C92.2331 215.229 97.1477 216.178 100.632 217.839C103.41 219.16 105.004 220.773 105.004 222.258C105.004 223.742 103.451 225.315 100.731 226.616C97.271 228.276 92.3811 229.225 87.3021 229.225Z" fill="#FF9D08"/>
<path d="M88.1534 229.788C83.4402 229.788 78.8796 228.832 75.6383 227.171C73.0605 225.849 71.5886 224.235 71.581 222.751C71.5733 221.266 73.03 219.693 75.5544 218.391C78.7575 216.737 83.3029 215.788 88.0161 215.788C92.7293 215.788 97.29 216.737 100.524 218.398C103.101 219.72 104.581 221.334 104.581 222.818C104.581 224.303 103.14 225.876 100.615 227.178C97.4044 228.839 92.8666 229.788 88.1534 229.788Z" fill="#FFDC4C"/>
<path d="M91.2695 226C91 226.418 90.5771 226.755 90.0614 226.962C88.8807 227.505 87.5286 227.742 86.1823 227.64C84.5693 227.551 82.9938 227.198 81.5471 226.603L79.4021 227.633L77.9557 226.955L80.0678 225.939C78.6504 225.298 77.4148 224.415 76.4435 223.35L79.2213 221.994C79.6091 222.527 80.0848 223.013 80.6349 223.438C81.2106 223.926 81.8501 224.36 82.5416 224.732L85.8289 223.167L85.3769 222.706C84.5551 221.777 84.1359 221.018 84.2099 220.442C84.2838 220.101 84.4591 219.779 84.7201 219.507C84.9811 219.235 85.3197 219.021 85.7056 218.883C86.84 218.372 88.1336 218.153 89.4203 218.253C90.9973 218.347 92.5361 218.697 93.9487 219.283L95.5923 218.504L97.0388 219.181L95.4691 219.934C96.8131 220.576 97.9781 221.444 98.8879 222.482L95.428 223.16C94.7307 222.361 93.865 221.672 92.8721 221.127L89.7737 222.618C90.412 223.23 90.9406 223.915 91.3434 224.651C91.4516 224.867 91.5011 225.099 91.4883 225.332C91.4755 225.565 91.4008 225.793 91.2695 226ZM84.0455 225.444C84.4547 225.629 84.9103 225.733 85.3767 225.749C85.843 225.764 86.3073 225.69 86.7329 225.532C86.8583 225.492 86.9632 225.417 87.0304 225.321C87.0977 225.225 87.1232 225.113 87.1028 225.003C87.0412 224.706 86.8884 224.426 86.659 224.19L84.0455 225.444ZM88.8451 221.764L91.3106 220.578C90.9404 220.398 90.5241 220.294 90.0956 220.272C89.6671 220.251 89.2385 220.314 88.8451 220.456C88.541 220.605 88.3766 220.774 88.4095 220.971C88.4699 221.261 88.6199 221.534 88.8451 221.764Z" fill="#FF9D08"/>
<path d="M228.174 216.582V210.665H224.319C223.486 210.086 222.592 209.569 221.648 209.12C212.994 205.006 199.015 205.006 190.418 209.12C189.482 209.569 188.596 210.086 187.772 210.665H184V216.582C184 219.293 186.202 222.004 190.525 224.038C199.179 228.159 213.159 228.165 221.755 224.038C226.053 221.984 228.19 219.28 228.174 216.582Z" fill="#FF9D08"/>
<path d="M221.648 203.203C230.302 207.33 230.351 214.007 221.755 218.114C213.159 222.221 199.179 222.228 190.525 218.114C181.871 214 181.822 207.324 190.418 203.203C199.015 199.082 212.994 199.089 221.648 203.203Z" fill="#F9D075"/>
<path d="M206.302 216.225C201.223 216.225 196.309 215.27 192.816 213.609C190.038 212.287 188.452 210.674 188.444 209.19C188.435 207.706 190.005 206.133 192.725 204.832C196.177 203.178 201.075 202.229 206.154 202.229C211.233 202.229 216.148 203.178 219.632 204.839C222.41 206.16 224.004 207.773 224.004 209.258C224.004 210.742 222.451 212.314 219.731 213.616C216.271 215.276 211.381 216.225 206.302 216.225Z" fill="#FF9D08"/>
<path d="M207.153 216.788C202.44 216.788 197.88 215.832 194.638 214.171C192.061 212.849 190.589 211.235 190.581 209.75C190.573 208.266 192.03 206.693 194.554 205.391C197.758 203.737 202.303 202.788 207.016 202.788C211.729 202.788 216.29 203.737 219.524 205.398C222.101 206.72 223.581 208.333 223.581 209.818C223.581 211.303 222.14 212.876 219.615 214.178C216.404 215.839 211.867 216.788 207.153 216.788Z" fill="#FFDC4C"/>
<path d="M210.27 213C210 213.418 209.577 213.754 209.061 213.962C207.881 214.505 206.529 214.742 205.182 214.64C203.569 214.55 201.994 214.198 200.547 213.603L198.402 214.633L196.956 213.955L199.068 212.939C197.65 212.298 196.415 211.415 195.444 210.35L198.221 208.994C198.609 209.527 199.085 210.013 199.635 210.438C200.211 210.926 200.85 211.36 201.542 211.732L204.829 210.167L204.377 209.706C203.555 208.777 203.136 208.018 203.21 207.442C203.284 207.1 203.459 206.779 203.72 206.507C203.981 206.235 204.32 206.021 204.706 205.883C205.84 205.372 207.134 205.153 208.42 205.253C209.997 205.347 211.536 205.697 212.949 206.283L214.592 205.503L216.039 206.181L214.469 206.934C215.813 207.576 216.978 208.444 217.888 209.482L214.428 210.16C213.731 209.361 212.865 208.672 211.872 208.126L208.774 209.618C209.412 210.23 209.941 210.915 210.343 211.651C210.452 211.866 210.501 212.099 210.488 212.332C210.476 212.565 210.401 212.793 210.27 213ZM203.046 212.444C203.455 212.629 203.91 212.733 204.377 212.749C204.843 212.764 205.307 212.69 205.733 212.532C205.858 212.492 205.963 212.417 206.031 212.321C206.098 212.225 206.123 212.113 206.103 212.003C206.041 211.705 205.888 211.426 205.659 211.19L203.046 212.444ZM207.845 208.764L210.311 207.577C209.941 207.398 209.524 207.294 209.096 207.272C208.667 207.251 208.239 207.314 207.845 207.455C207.541 207.605 207.377 207.774 207.41 207.971C207.47 208.261 207.62 208.534 207.845 208.764Z" fill="#FF9D08"/>
<path d="M222.174 206.582V200.665H218.319C217.486 200.086 216.592 199.569 215.648 199.12C206.994 195.006 193.015 195.006 184.418 199.12C183.482 199.569 182.596 200.086 181.772 200.665H178V206.582C178 209.293 180.202 212.004 184.525 214.038C193.179 218.159 207.159 218.165 215.755 214.038C220.053 211.984 222.19 209.28 222.174 206.582Z" fill="#FF9D08"/>
<path d="M215.648 193.203C224.302 197.33 224.351 204.007 215.755 208.114C207.159 212.221 193.179 212.228 184.525 208.114C175.871 204 175.822 197.324 184.418 193.203C193.015 189.082 206.994 189.089 215.648 193.203Z" fill="#F9D075"/>
<path d="M200.302 206.225C195.223 206.225 190.309 205.27 186.816 203.609C184.038 202.287 182.452 200.674 182.444 199.19C182.435 197.706 184.005 196.133 186.725 194.832C190.177 193.178 195.075 192.229 200.154 192.229C205.233 192.229 210.148 193.178 213.632 194.839C216.41 196.16 218.004 197.773 218.004 199.258C218.004 200.742 216.451 202.314 213.731 203.616C210.271 205.276 205.381 206.225 200.302 206.225Z" fill="#FF9D08"/>
<path d="M201.153 206.788C196.44 206.788 191.88 205.832 188.638 204.171C186.061 202.849 184.589 201.235 184.581 199.75C184.573 198.266 186.03 196.693 188.554 195.391C191.758 193.737 196.303 192.788 201.016 192.788C205.729 192.788 210.29 193.737 213.524 195.398C216.101 196.72 217.581 198.333 217.581 199.818C217.581 201.303 216.14 202.876 213.615 204.178C210.404 205.839 205.867 206.788 201.153 206.788Z" fill="#FFDC4C"/>
<path d="M204.269 203C204 203.418 203.577 203.754 203.061 203.962C201.881 204.505 200.529 204.742 199.182 204.64C197.569 204.55 195.994 204.198 194.547 203.603L192.402 204.633L190.956 203.955L193.068 202.939C191.65 202.298 190.415 201.415 189.444 200.35L192.221 198.994C192.609 199.527 193.085 200.013 193.635 200.438C194.211 200.926 194.85 201.36 195.542 201.732L198.829 200.167L198.377 199.706C197.555 198.777 197.136 198.018 197.21 197.442C197.284 197.1 197.459 196.779 197.72 196.507C197.981 196.235 198.32 196.021 198.706 195.883C199.84 195.372 201.134 195.153 202.42 195.253C203.997 195.347 205.536 195.697 206.949 196.283L208.592 195.503L210.039 196.181L208.469 196.934C209.813 197.576 210.978 198.444 211.888 199.482L208.428 200.16C207.731 199.361 206.865 198.672 205.872 198.126L202.774 199.618C203.412 200.23 203.941 200.915 204.343 201.651C204.452 201.866 204.501 202.099 204.488 202.332C204.476 202.565 204.401 202.793 204.269 203ZM197.046 202.444C197.455 202.629 197.91 202.733 198.377 202.749C198.843 202.764 199.307 202.69 199.733 202.532C199.858 202.492 199.963 202.417 200.03 202.321C200.098 202.225 200.123 202.113 200.103 202.003C200.041 201.705 199.888 201.426 199.659 201.19L197.046 202.444ZM201.845 198.764L204.311 197.577C203.94 197.398 203.524 197.294 203.096 197.272C202.667 197.251 202.239 197.314 201.845 197.455C201.541 197.605 201.377 197.774 201.409 197.971C201.47 198.261 201.62 198.534 201.845 198.764Z" fill="#FF9D08"/>
<path d="M215.73 194.468V188.551H211.875C211.042 187.971 210.148 187.454 209.204 187.005C200.55 182.891 186.571 182.891 177.975 187.005C177.038 187.454 176.153 187.971 175.328 188.551H171.556V194.468C171.556 197.179 173.758 199.89 178.081 201.923C186.735 206.044 200.715 206.051 209.311 201.923C213.609 199.869 215.746 197.165 215.73 194.468Z" fill="#FF9D08"/>
<path d="M209.204 181.088C217.858 185.216 217.908 191.892 209.311 195.999C200.715 200.107 186.735 200.113 178.081 195.999C169.427 191.885 169.378 185.209 177.975 181.088C186.571 176.967 200.55 176.974 209.204 181.088Z" fill="#F9D075"/>
<path d="M193.858 194.111C188.779 194.111 183.865 193.155 180.372 191.495C177.594 190.173 176.008 188.56 176 187.075C175.992 185.591 177.561 184.019 180.282 182.717C183.733 181.064 188.631 180.115 193.71 180.115C198.789 180.115 203.704 181.064 207.189 182.724C209.966 184.046 211.561 185.659 211.561 187.143C211.561 188.628 210.007 190.2 207.287 191.501C203.827 193.162 198.937 194.111 193.858 194.111Z" fill="#FF9D08"/>
<path d="M194.71 194.673C189.996 194.673 185.436 193.717 182.194 192.056C179.617 190.734 178.145 189.121 178.137 187.636C178.13 186.151 179.586 184.578 182.111 183.277C185.314 181.622 189.859 180.673 194.572 180.673C199.286 180.673 203.846 181.622 207.08 183.283C209.658 184.605 211.137 186.219 211.137 187.704C211.137 189.188 209.696 190.761 207.171 192.063C203.961 193.724 199.423 194.673 194.71 194.673Z" fill="#FFDC4C"/>
<path d="M197.826 190.885C197.556 191.303 197.133 191.64 196.618 191.848C195.437 192.391 194.085 192.627 192.739 192.525C191.125 192.436 189.55 192.084 188.103 191.488L185.958 192.519L184.512 191.841L186.624 190.824C185.207 190.183 183.971 189.301 183 188.235L185.778 186.879C186.165 187.412 186.641 187.898 187.191 188.323C187.767 188.811 188.406 189.245 189.098 189.618L192.385 188.052L191.933 187.591C191.111 186.663 190.692 185.904 190.766 185.327C190.84 184.986 191.015 184.665 191.276 184.393C191.537 184.121 191.876 183.906 192.262 183.768C193.396 183.258 194.69 183.038 195.977 183.138C197.553 183.233 199.092 183.583 200.505 184.168L202.149 183.389L203.595 184.067L202.025 184.819C203.369 185.461 204.534 186.329 205.444 187.367L201.984 188.045C201.287 187.247 200.421 186.558 199.428 186.012L196.33 187.503C196.968 188.116 197.497 188.8 197.9 189.536C198.008 189.752 198.057 189.984 198.045 190.218C198.032 190.451 197.957 190.679 197.826 190.885ZM190.602 190.329C191.011 190.515 191.467 190.619 191.933 190.634C192.399 190.649 192.863 190.575 193.289 190.417C193.414 190.377 193.519 190.303 193.587 190.207C193.654 190.111 193.679 189.998 193.659 189.889C193.597 189.591 193.445 189.311 193.215 189.076L190.602 190.329ZM195.401 186.649L197.867 185.463C197.497 185.284 197.08 185.179 196.652 185.158C196.223 185.137 195.795 185.199 195.401 185.341C195.097 185.49 194.933 185.66 194.966 185.856C195.026 186.147 195.176 186.42 195.401 186.649Z" fill="#FF9D08"/>
<path d="M38.9047 70.2351L44.3206 72.7768C45.0131 73.1045 45.6826 73.4643 46.3259 73.8544C46.8885 74.1956 47.4188 74.5717 47.912 74.9796C48.3116 75.3068 48.6645 75.6707 48.964 76.064C49.1961 76.3521 49.34 76.6824 49.3831 77.0264C49.3956 77.1782 49.3704 77.3304 49.3091 77.4738C49.2613 77.594 49.1579 77.6938 49.0215 77.7517C48.8453 77.8239 48.6511 77.861 48.4544 77.8601C48.1572 77.8624 47.8604 77.8442 47.5668 77.8059C47.9311 78.0432 48.2796 78.2966 48.6106 78.565C48.9053 78.8142 49.1799 79.0791 49.4324 79.358C49.6534 79.5986 49.8435 79.8576 49.9995 80.1307C50.1227 80.3436 50.1979 80.5733 50.2214 80.8084C50.2465 80.9323 50.2333 81.0593 50.183 81.1778C50.1327 81.2963 50.047 81.4024 49.9337 81.4862C49.6724 81.6538 49.3425 81.7315 49.0133 81.7031C48.5038 81.679 48.002 81.5898 47.5257 81.4388C46.8535 81.2386 46.2044 80.989 45.5862 80.6932L39.3649 77.772L38.9047 70.2351ZM42.192 74.9796L44.2302 75.942C44.5087 76.0738 44.8035 76.1806 45.1095 76.2606C45.3129 76.3175 45.5298 76.3337 45.7424 76.308C45.8193 76.3011 45.8934 76.2798 45.9589 76.2457C46.0244 76.2117 46.0796 76.1658 46.1204 76.1115C46.2139 75.9808 46.2515 75.828 46.2272 75.6777C46.2089 75.4607 46.1391 75.2489 46.0218 75.0541C45.8691 74.8089 45.6785 74.5811 45.4547 74.3763C45.1658 74.1293 44.8524 73.9026 44.5178 73.6986C44.0943 73.4344 43.6495 73.1944 43.1864 72.9801L42.0276 72.4379L42.192 74.9796ZM42.4139 78.4769L44.1233 79.2834C44.5378 79.4849 44.9722 79.6572 45.4218 79.7986C45.7072 79.8941 46.01 79.9491 46.3176 79.9612C46.4106 79.9662 46.5037 79.9542 46.5903 79.9261C46.677 79.898 46.7551 79.8544 46.819 79.7986C46.8763 79.7376 46.9181 79.6679 46.9421 79.5933C46.9661 79.5188 46.9718 79.4411 46.9587 79.3648C46.9483 79.1303 46.8812 78.8998 46.7614 78.687C46.6252 78.4286 46.4423 78.1886 46.219 77.9753C45.9304 77.6982 45.6082 77.4461 45.2575 77.223C44.8046 76.9346 44.3267 76.6741 43.8275 76.4436L42.2413 75.698L42.4139 78.4769Z" fill="#B2685B"/>
<path d="M52.2677 76.3758C52.26 76.3274 52.2648 76.2782 52.2818 76.2315C52.2988 76.1848 52.3276 76.1415 52.3663 76.1046C52.4521 76.0347 52.5664 75.9936 52.6869 75.9894C52.8509 75.9866 53.0145 76.0049 53.1717 76.0436C53.38 76.0993 53.581 76.1719 53.7717 76.2605C53.986 76.3663 54.1894 76.4864 54.3798 76.6198C54.5653 76.7413 54.736 76.8775 54.8894 77.0264C55.0238 77.155 55.1396 77.296 55.2346 77.4466C55.3178 77.5644 55.3657 77.6968 55.3743 77.833C55.3814 77.8813 55.3764 77.9304 55.3594 77.9771C55.3424 78.0237 55.3139 78.067 55.2756 78.1041C55.1912 78.1706 55.08 78.2091 54.9633 78.2125C54.7993 78.2145 54.6359 78.1962 54.4785 78.1583C54.2681 78.1044 54.0666 78.0293 53.8785 77.9346C53.6606 77.8352 53.4543 77.7195 53.2621 77.589C53.0829 77.4615 52.9154 77.3233 52.7608 77.1755C52.6239 77.0471 52.5054 76.9061 52.4074 76.7553C52.3319 76.6373 52.2844 76.5085 52.2677 76.3758ZM52.5471 78.931L54.536 79.2495L55.3578 79.6562L55.7277 85.4715L52.8266 84.116L52.5471 78.931Z" fill="#B2685B"/>
<path d="M61.4066 88.1149L58.522 86.7593L58.0206 78.7954L59.993 79.1004L60.8642 79.5071L61.4066 88.1149Z" fill="#B2685B"/>
<path d="M67.0279 90.7515L64.1515 89.3959L63.6501 81.432L65.6226 81.7438L66.4855 82.1504L67.0279 90.7515Z" fill="#B2685B"/>
<path d="M81.0567 95.2993C81.3547 95.4586 81.603 95.6735 81.7815 95.9267C81.96 96.1799 82.0636 96.4642 82.084 96.7565C82.084 97.2784 81.6238 97.4953 81.0485 97.2242L69.7482 92.107L68.8442 90.9886C68.8442 90.9886 69.8961 90.5142 70.3564 90.7311L81.0567 95.2993Z" fill="white"/>
<defs>
<linearGradient id="paint0_linear_198_2407" x1="98.718" y1="0.979005" x2="52.9998" y2="73.0001" gradientUnits="userSpaceOnUse">
<stop stop-color="#D9EBD4"/>
<stop offset="1" stop-color="#DDCA88"/>
</linearGradient>
</defs>
</svg>
