<svg width="261" height="261" viewBox="0 0 261 261" fill="none" xmlns="http://www.w3.org/2000/svg">
<path d="M125.576 30.0766L125.576 30.0767C175.531 44.5751 210.093 63.3207 231.418 83.6826C252.696 104 260.721 125.828 257.981 146.798C255.23 167.859 241.551 188.596 218.301 206.468C195.068 224.326 162.448 239.179 122.279 248.454L122.279 248.454C70.1905 260.498 38.1292 250.473 20.5339 230.218C2.8081 209.813 -0.981255 178.217 5.38305 145.561C11.7339 112.975 28.1007 79.9269 49.8352 57.1339C71.5848 34.325 98.2899 22.1549 125.576 30.0766Z" stroke="#FFB9A5" stroke-width="5"/>
<path d="M220.39 103.012C213.384 103.004 206.537 100.919 200.716 97.0207C194.895 93.1224 190.36 87.5856 187.685 81.1103C185.009 74.6351 184.314 67.512 185.686 60.6416C187.059 53.7713 190.437 47.462 195.395 42.5114C200.352 37.5608 206.666 34.1912 213.539 32.8285C220.411 31.4658 227.533 32.1712 234.005 34.8555C240.476 37.5398 246.006 42.0826 249.897 47.9094C253.787 53.7363 255.862 60.5857 255.86 67.5919C255.847 76.9904 252.104 85.9995 245.453 92.6406C238.803 99.2817 229.789 103.012 220.39 103.012ZM220.39 43.3319C215.592 43.3319 210.901 44.7547 206.912 47.4204C202.922 50.0861 199.813 53.875 197.977 58.308C196.141 62.7409 195.66 67.6188 196.596 72.3247C197.532 77.0307 199.843 81.3534 203.236 84.7463C206.628 88.1391 210.951 90.4496 215.657 91.3857C220.363 92.3218 225.241 91.8413 229.674 90.0052C234.107 88.169 237.896 85.0595 240.561 81.07C243.227 77.0804 244.65 72.39 244.65 67.5919C244.645 61.1593 242.087 54.9918 237.539 50.4433C232.99 45.8948 226.823 43.3371 220.39 43.3319Z" fill="#EBECD7"/>
</svg>
