<?xml version="1.0" encoding="utf-8"?>
<!-- Generator: Adobe Illustrator 25.3.1, SVG Export Plug-In . SVG Version: 6.00 Build 0)  -->
<svg version="1.1" id="圖層_1" xmlns="http://www.w3.org/2000/svg" xmlns:xlink="http://www.w3.org/1999/xlink" x="0px" y="0px"
	 viewBox="0 0 261 261" style="enable-background:new 0 0 261 261;" xml:space="preserve">
<style type="text/css">
	.st0{fill:none;stroke:#FFB9A5;stroke-width:5;}
	.st1{fill:#EBECD7;}
</style>
<path class="st0" d="M125.6,30.1L125.6,30.1c50,14.5,84.5,33.2,105.8,53.6c21.3,20.3,29.3,42.1,26.6,63.1
	c-2.8,21.1-16.4,41.8-39.7,59.7c-23.2,17.9-55.9,32.7-96,42l0,0c-52.1,12-84.1,2-101.7-18.2C2.8,209.8-1,178.2,5.4,145.6
	c6.4-32.6,22.7-65.6,44.5-88.4C71.6,34.3,98.3,22.2,125.6,30.1z"/>
<path class="st1" d="M220.4,103c-7,0-13.9-2.1-19.7-6s-10.4-9.4-13-15.9c-2.7-6.5-3.4-13.6-2-20.5c1.4-6.9,4.8-13.2,9.7-18.1
	c5-5,11.3-8.3,18.1-9.7c6.9-1.4,14-0.7,20.5,2c6.5,2.7,12,7.2,15.9,13.1c3.9,5.8,6,12.7,6,19.7c0,9.4-3.8,18.4-10.4,25
	C238.8,99.3,229.8,103,220.4,103z M220.4,43.3c-4.8,0-9.5,1.4-13.5,4.1c-4,2.7-7.1,6.5-8.9,10.9c-1.8,4.4-2.3,9.3-1.4,14
	c0.9,4.7,3.2,9,6.6,12.4c3.4,3.4,7.7,5.7,12.4,6.6c4.7,0.9,9.6,0.5,14-1.4c4.4-1.8,8.2-4.9,10.9-8.9c2.7-4,4.1-8.7,4.1-13.5
	c0-6.4-2.6-12.6-7.1-17.1C233,45.9,226.8,43.3,220.4,43.3z"/>
</svg>
