<?xml version="1.0" encoding="utf-8"?>
<!-- Generator: Adobe Illustrator 25.3.1, SVG Export Plug-In . SVG Version: 6.00 Build 0)  -->
<svg version="1.1" id="圖層_1" xmlns="http://www.w3.org/2000/svg" xmlns:xlink="http://www.w3.org/1999/xlink" x="0px" y="0px"
	 viewBox="0 0 311 267" style="enable-background:new 0 0 311 267;" xml:space="preserve">
<style type="text/css">
	.st0{fill:none;stroke:#FFB8A4;stroke-width:5;}
	.st1{fill:#FFE4DD;}
</style>
<path class="st0" d="M87.9,264.3L87.9,264.3c-20,1.6-37.2-6.5-50.9-20.6c-13.7-14.2-23.9-34.5-29.5-57C-3.8,141.4,3.4,88,34.6,57.5
	C65.8,27,120.2,26.8,169.5,43.9c24.5,8.5,47.5,21.2,65.2,36.3c17.8,15.1,30.1,32.3,33.7,49.9c3.6,17.5-1.7,34.2-12.9,49.7
	c-11.2,15.6-28.4,29.7-48.1,41.9C168,246.1,118.9,261.9,87.9,264.3z"/>
<path class="st1" d="M117.7,195c-21.2-18.9-37.8-43.8-48-72.3c-4.9-13.7-7.5-28.2-7.9-43c-0.2-7.3,0.4-14.6,1.6-21.8
	c0.9-6.5,2.8-12.8,5.4-18.7c4.9-9.8,13.3-16.8,21.8-22c8.4-5.1,17.4-9,26.6-11.6c3.2-0.9,6.5-1.6,9.8-2.1c4.3-0.4,8.6-0.3,12.9,0.2
	c12.3,0.9,24.5,3.5,36.3,7.7c22.8,8.5,43.7,22.5,61.4,41c18.4,19.4,34.2,41.6,47.1,66.1c7.4,13.6,15,27.7,19.8,42.8
	c4.8,15.1,5.3,32.2-1,46.9c-9.5,21.9-31.1,37.3-52.6,36.6c-19-0.6-38.1-5.4-56.4-10.9c-22.2-6.7-44.4-15.6-64.2-29
	C126,201.9,121.7,198.6,117.7,195c-1.4-1.2-3.4,1-2,2.3c18.2,16.2,40.4,26.5,62.2,34.4c20.7,7.7,42,13,63.6,15.6c6.5,1,13,1,19.5,0
	c13.1-2.8,25-10.1,34.3-21c9.6-10.8,15.2-25.5,15.6-40.9c0.4-16.8-5.7-32.1-12.6-46.5c-12.9-26.8-27.7-52.5-46.1-74.7
	c-16.9-20.4-36.7-37.8-59.3-49.1c-11.4-5.7-23.3-9.8-35.5-12.3c-6.4-1.3-12.9-2.1-19.3-2.5c-4.1-0.4-8.1-0.4-12.2,0.1
	c-8.3,1.4-16.4,3.9-24.1,7.4c-9.7,4-18.7,9.9-26.6,17.5c-3.7,3.7-6.9,8.1-9.3,13c-2.6,6-4.4,12.5-5.4,19.1
	c-2.4,14.6-2.2,29.7,0.6,44.2c5.6,30.4,20.6,58.3,39.6,80.3c4.7,5.4,9.6,10.5,14.8,15.2C117.1,198.5,119.1,196.2,117.7,195z"/>
</svg>
