<svg width="311" height="267" viewBox="0 0 311 267" fill="none" xmlns="http://www.w3.org/2000/svg">
<path d="M87.9034 264.307L87.903 264.307C67.9295 265.872 50.7342 257.813 37.0451 243.67C23.3167 229.487 13.1665 209.217 7.53687 186.657C-3.75351 141.412 3.35695 88.0459 34.6427 57.4537C65.7514 27.0346 120.192 26.8408 169.453 43.9185C193.972 52.4189 216.929 65.1199 234.657 80.1739C252.417 95.2552 264.726 112.519 268.369 130.1C271.986 147.556 266.715 164.285 255.494 179.807C244.251 195.362 227.127 209.555 207.426 221.719C167.993 246.065 118.894 261.883 87.9034 264.307Z" stroke="#FFB8A4" stroke-width="5"/>
<path d="M117.718 194.974C96.4791 176.088 79.9394 151.172 69.7462 122.706C64.8938 109.032 62.2044 94.4811 61.8034 79.7318C61.6406 72.4166 62.1883 65.1034 63.4365 57.9264C64.3646 51.4179 66.1872 45.1181 68.8368 39.2603C73.7361 29.4818 82.1057 22.4819 90.6237 17.2215C99.0401 12.0888 107.987 8.18368 117.254 5.59763C120.472 4.65863 123.739 3.95021 127.034 3.47648C131.317 3.09816 135.621 3.15492 139.895 3.64614C152.234 4.5458 164.433 7.13803 176.231 11.3671C199.012 19.8653 219.937 33.8385 237.601 52.3477C255.962 71.7093 271.821 93.9566 284.701 118.422C292.124 132.018 299.714 146.166 304.502 161.226C309.29 176.287 309.828 193.468 303.482 208.146C293.98 230.058 272.342 245.436 250.926 244.778C231.941 244.185 212.827 239.412 194.529 233.855C172.352 227.109 150.157 218.264 130.356 204.816C125.964 201.869 121.743 198.603 117.718 195.038C116.326 193.786 114.341 196.013 115.751 197.286C133.919 213.534 156.114 223.737 177.938 231.649C198.601 239.38 219.917 244.613 241.536 247.26C248.002 248.247 254.555 248.247 261.021 247.26C274.073 244.475 286.055 237.157 295.335 226.303C304.952 215.483 310.554 200.845 310.979 185.429C311.406 168.672 305.263 153.336 298.378 138.954C285.518 112.185 270.671 86.4983 252.281 64.2474C235.43 43.842 215.555 26.4485 193.007 15.1216C181.652 9.41394 169.74 5.28351 157.525 2.81886C151.129 1.52666 144.672 0.67669 138.187 0.273523C134.135 -0.129643 130.058 -0.0870297 126.013 0.400787C117.742 1.77919 109.643 4.27855 101.888 7.84604C92.1894 11.8305 83.1948 17.772 75.3321 25.3879C71.6128 29.0854 68.4745 33.4831 66.0532 38.3906C63.4354 44.4112 61.6213 50.846 60.6714 57.4809C58.2635 72.1176 58.4591 87.1586 61.2467 101.707C66.814 132.145 81.883 160.017 100.849 182.014C105.517 187.436 110.476 192.523 115.695 197.243C117.143 198.474 119.128 196.247 117.718 194.974Z" fill="#FFE4DD"/>
</svg>
