<?xml version="1.0" encoding="utf-8"?>
<!-- Generator: Adobe Illustrator 25.3.1, SVG Export Plug-In . SVG Version: 6.00 Build 0)  -->
<svg version="1.1" id="圖層_1" xmlns="http://www.w3.org/2000/svg" xmlns:xlink="http://www.w3.org/1999/xlink" x="0px" y="0px"
	 viewBox="0 0 333 318" style="enable-background:new 0 0 333 318;" xml:space="preserve">
<style type="text/css">
	.st0{fill:none;stroke:#FFB9A5;stroke-width:5;}
	.st1{fill:#FC981F;}
</style>
<path class="st0" d="M91,33.9c39.6-8.5,83.5-7.2,121.6,5.4c38.1,12.5,70.1,36.2,86.2,72.2c32.6,72.9,14.9,164.2-58,195.8
	c-36.3,15.8-75.2,7.4-111.6-13c-36.3-20.4-69.7-52.8-94.7-84.5C2.7,169.4-2.6,129.7,9.5,98.1C21.6,66.4,51.4,42.4,91,33.9z"/>
<path class="st1" d="M16.6,244.7c0.1-0.4,0.3-0.8,0.5-1.2v-0.2v-0.1l0.4-0.6c0.3-0.4,0.5-0.8,0.8-1.1c0.1-0.1,0.1-0.2,0.2-0.2
	c-0.2,0.2,0.3-0.3,0,0l0.5-0.5c0.3-0.3,0.7-0.6,1-0.9l0.3-0.2c0.2-0.1,0.4-0.3,0.7-0.4c0.4-0.2,0.8-0.5,1.2-0.6l0.4-0.2
	c0.3-0.1,0.7-0.2,1.1-0.3c0.5-0.1,0.9-0.4,1.1-0.8c0.2-0.4,0.3-0.8,0.2-1.2c-0.1-0.4-0.5-0.8-0.9-1c-0.4-0.2-1-0.3-1.4-0.2
	c-2.3,0.7-4.4,1.8-6.1,3.4c-1.7,1.5-2.9,3.4-3.5,5.5c-0.1,0.4-0.1,0.9,0.2,1.2c0.2,0.4,0.7,0.7,1.1,0.8c0.2,0.1,0.5,0.1,0.7,0
	c0.2,0,0.5-0.1,0.7-0.2c0.2-0.1,0.4-0.2,0.6-0.4c0.2-0.2,0.3-0.4,0.3-0.6L16.6,244.7z"/>
<path class="st1" d="M302.6,155.5l13-11.3c0.4-0.4,0.6-0.8,0.6-1.3c0-0.5-0.2-1-0.6-1.3c-0.4-0.4-0.9-0.5-1.5-0.5
	c-0.6,0-1.1,0.2-1.5,0.5l-13,11.3c-0.4,0.4-0.6,0.8-0.6,1.3c0,0.5,0.2,0.9,0.6,1.3c0.4,0.3,0.9,0.5,1.5,0.5
	C301.7,156,302.2,155.8,302.6,155.5z"/>
<path class="st1" d="M36.2,157.5l11.2-7.8c0.4-0.3,0.6-0.7,0.6-1.2c0-0.4-0.2-0.9-0.6-1.2c-0.4-0.3-0.8-0.5-1.3-0.5
	c-0.5,0-1,0.2-1.3,0.5l-11.2,7.8c-0.4,0.3-0.5,0.7-0.5,1.2c0,0.4,0.2,0.8,0.5,1.2c0.4,0.3,0.8,0.5,1.3,0.5S35.9,157.8,36.2,157.5z"
	/>
<path class="st1" d="M47.2,196.5l11.2-8.5c0.4-0.3,0.6-0.8,0.6-1.3c0-0.5-0.2-0.9-0.6-1.3c-0.4-0.3-0.8-0.5-1.3-0.5
	c-0.5,0-1,0.2-1.3,0.5L44.5,194c-0.4,0.3-0.5,0.8-0.5,1.3s0.2,0.9,0.5,1.3c0.4,0.3,0.8,0.5,1.3,0.5S46.9,196.8,47.2,196.5z"/>
</svg>
