<svg width="333" height="318" viewBox="0 0 333 318" fill="none" xmlns="http://www.w3.org/2000/svg">
<path d="M90.4502 31.4484C170.412 14.2956 268.069 36.7959 301.048 110.452C334.028 184.108 316.436 277.186 241.757 309.575C167.078 341.963 82.7566 274.916 32.5433 211.35C-31.98 129.471 10.0269 48.702 90.4502 31.4484Z" fill="url(#paint0_linear_198_2155)"/>
<path d="M16.6226 244.744C16.7413 244.336 16.8939 243.922 17.0803 243.5V243.326V243.217L17.4363 242.606C17.6906 242.213 17.9449 241.842 18.2246 241.493C18.3006 241.419 18.3687 241.338 18.428 241.253C18.1992 241.493 18.6823 240.97 18.428 241.253L18.9366 240.73C19.2671 240.424 19.6231 240.141 19.9791 239.857L20.2843 239.639C20.5131 239.53 20.7165 239.356 20.9454 239.246C21.34 239.007 21.7567 238.795 22.1914 238.614L22.5474 238.461C22.887 238.331 23.2466 238.243 23.6153 238.199C24.0962 238.077 24.5029 237.8 24.7496 237.425C24.9963 237.051 25.0637 236.609 24.9376 236.192C24.8011 235.777 24.4786 235.424 24.0403 235.212C23.6021 234.999 23.0837 234.944 22.5982 235.058C20.2731 235.734 18.1822 236.898 16.5166 238.445C14.8509 239.992 13.6635 241.873 13.0627 243.915C12.9357 244.334 13.0024 244.779 13.2488 245.157C13.4951 245.535 13.9022 245.817 14.385 245.943C14.6271 245.999 14.8797 246.014 15.1284 245.986C15.377 245.959 15.6169 245.889 15.8342 245.782C16.0515 245.674 16.2419 245.531 16.3947 245.36C16.5474 245.19 16.6595 244.995 16.7243 244.787L16.6226 244.744Z" fill="#FC981F"/>
<path d="M302.592 155.496L315.607 144.203C316.001 143.848 316.221 143.372 316.221 142.876C316.221 142.381 316.001 141.904 315.607 141.549C315.207 141.198 314.664 141 314.098 141C313.532 141 312.989 141.198 312.588 141.549L299.573 152.842C299.196 153.198 298.99 153.669 299 154.155C299.01 154.642 299.234 155.106 299.625 155.45C300.017 155.794 300.545 155.991 301.098 156C301.651 156.008 302.187 155.828 302.592 155.496Z" fill="#FC981F"/>
<path d="M36.234 157.539L47.4435 149.773C47.7997 149.467 47.9998 149.051 47.9998 148.617C47.9998 148.184 47.7997 147.768 47.4435 147.461C47.0807 147.165 46.5995 147 46.0994 147C45.5992 147 45.1181 147.165 44.7552 147.461L33.5458 155.227C33.1957 155.536 32.9998 155.951 32.9998 156.383C32.9998 156.815 33.1957 157.229 33.5458 157.539C33.9086 157.835 34.3897 158 34.8899 158C35.3901 158 35.8712 157.835 36.234 157.539Z" fill="#FC981F"/>
<path d="M47.234 196.497L58.4435 188.025C58.7997 187.691 58.9998 187.237 58.9998 186.764C58.9998 186.291 58.7997 185.838 58.4435 185.503C58.0807 185.18 57.5995 185 57.0994 185C56.5992 185 56.1181 185.18 55.7552 185.503L44.5458 193.975C44.1957 194.312 43.9998 194.765 43.9998 195.236C43.9998 195.707 44.1957 196.159 44.5458 196.497C44.9086 196.82 45.3897 197 45.8899 197C46.3901 197 46.8712 196.82 47.234 196.497Z" fill="#FC981F"/>
<defs>
<linearGradient id="paint0_linear_198_2155" x1="355.36" y1="293.651" x2="-121.035" y2="-55.8881" gradientUnits="userSpaceOnUse">
<stop stop-color="#FFB8A4"/>
<stop offset="0.5" stop-color="#FFB8A4"/>
<stop offset="1" stop-color="white"/>
</linearGradient>
</defs>
</svg>
