<svg width="333" height="318" viewBox="0 0 333 318" fill="none" xmlns="http://www.w3.org/2000/svg">
<path d="M90.9746 33.8921C130.566 25.3993 174.516 26.7352 212.586 39.2708C250.642 51.8022 282.638 75.451 298.767 111.473C331.408 184.373 313.7 275.647 240.762 307.281C204.417 323.043 165.527 314.719 129.202 294.266C92.8819 273.817 59.4846 241.421 34.5069 209.802C2.67416 169.407 -2.63585 129.659 9.47618 98.0589C21.6129 66.3948 51.4429 42.3731 90.9746 33.8921Z" stroke="#FFB9A5" stroke-width="5"/>
<path d="M16.6226 244.743C16.7413 244.336 16.8939 243.921 17.0803 243.5V243.325V243.216L17.4363 242.605C17.6906 242.213 17.9449 241.842 18.2246 241.493C18.3006 241.418 18.3687 241.338 18.428 241.253C18.1992 241.493 18.6823 240.969 18.428 241.253L18.9366 240.729C19.2671 240.424 19.6231 240.14 19.9791 239.857L20.2843 239.639C20.5131 239.53 20.7165 239.355 20.9454 239.246C21.34 239.006 21.7567 238.795 22.1914 238.613L22.5474 238.461C22.887 238.33 23.2466 238.242 23.6153 238.199C24.0962 238.077 24.5029 237.799 24.7496 237.425C24.9963 237.05 25.0637 236.608 24.9376 236.192C24.8011 235.776 24.4786 235.424 24.0403 235.211C23.6021 234.999 23.0837 234.944 22.5982 235.058C20.2731 235.733 18.1822 236.898 16.5166 238.445C14.8509 239.992 13.6635 241.872 13.0627 243.914C12.9357 244.333 13.0024 244.778 13.2488 245.156C13.4951 245.534 13.9022 245.816 14.385 245.943C14.6271 245.999 14.8797 246.014 15.1284 245.986C15.377 245.958 15.6169 245.888 15.8342 245.781C16.0515 245.674 16.2419 245.531 16.3947 245.36C16.5474 245.189 16.6595 244.995 16.7243 244.787L16.6226 244.743Z" fill="#FC981F"/>
<path d="M302.592 155.496L315.607 144.203C316.001 143.848 316.221 143.371 316.221 142.876C316.221 142.38 316.001 141.904 315.607 141.549C315.207 141.197 314.664 141 314.098 141C313.532 141 312.989 141.197 312.588 141.549L299.573 152.841C299.196 153.197 298.99 153.668 299 154.155C299.01 154.641 299.234 155.105 299.625 155.45C300.017 155.794 300.545 155.991 301.098 155.999C301.651 156.008 302.187 155.827 302.592 155.496Z" fill="#FC981F"/>
<path d="M36.234 157.538L47.4435 149.773C47.7997 149.466 47.9998 149.05 47.9998 148.617C47.9998 148.183 47.7997 147.767 47.4435 147.461C47.0807 147.165 46.5995 147 46.0994 147C45.5992 147 45.1181 147.165 44.7552 147.461L33.5458 155.226C33.1957 155.536 32.9998 155.95 32.9998 156.382C32.9998 156.814 33.1957 157.229 33.5458 157.538C33.9086 157.834 34.3897 158 34.8899 158C35.3901 158 35.8712 157.834 36.234 157.538Z" fill="#FC981F"/>
<path d="M47.234 196.496L58.4435 188.025C58.7997 187.69 58.9998 187.237 58.9998 186.764C58.9998 186.291 58.7997 185.837 58.4435 185.503C58.0807 185.18 57.5995 185 57.0994 185C56.5992 185 56.1181 185.18 55.7552 185.503L44.5458 193.974C44.1957 194.312 43.9998 194.764 43.9998 195.235C43.9998 195.706 44.1957 196.159 44.5458 196.496C44.9086 196.819 45.3897 197 45.8899 197C46.3901 197 46.8712 196.819 47.234 196.496Z" fill="#FC981F"/>
</svg>
