<svg width="311" height="267" viewBox="0 0 311 267" fill="none" xmlns="http://www.w3.org/2000/svg">
<path d="M88.0983 266.799C4.70433 273.336 -31.4054 118.541 32.8948 55.6662C97.195 -7.20865 255.625 56.2728 270.817 129.593C286.009 202.913 150.99 261.88 88.0983 266.799Z" fill="#FFB8A4"/>
<path d="M117.718 194.974C96.4791 176.088 79.9394 151.172 69.7462 122.706C64.8938 109.032 62.2044 94.4811 61.8034 79.7318C61.6406 72.4166 62.1883 65.1034 63.4365 57.9264C64.3646 51.4179 66.1872 45.1181 68.8368 39.2603C73.7361 29.4818 82.1057 22.4819 90.6237 17.2215C99.0401 12.0888 107.987 8.18368 117.254 5.59763C120.472 4.65863 123.739 3.95021 127.034 3.47648C131.317 3.09816 135.621 3.15492 139.895 3.64614C152.234 4.5458 164.433 7.13803 176.231 11.3671C199.012 19.8653 219.937 33.8385 237.601 52.3477C255.962 71.7093 271.821 93.9566 284.701 118.422C292.124 132.018 299.714 146.166 304.502 161.226C309.29 176.287 309.828 193.468 303.482 208.146C293.98 230.058 272.342 245.436 250.926 244.778C231.941 244.185 212.827 239.412 194.529 233.855C172.352 227.109 150.157 218.264 130.356 204.816C125.964 201.869 121.743 198.603 117.718 195.038C116.326 193.786 114.341 196.013 115.751 197.286C133.919 213.534 156.114 223.737 177.938 231.649C198.601 239.38 219.917 244.613 241.536 247.26C248.002 248.247 254.555 248.247 261.021 247.26C274.073 244.475 286.055 237.157 295.335 226.303C304.952 215.483 310.554 200.845 310.979 185.429C311.406 168.672 305.263 153.336 298.378 138.954C285.518 112.185 270.671 86.4983 252.281 64.2474C235.43 43.842 215.555 26.4485 193.007 15.1216C181.652 9.41394 169.74 5.28351 157.525 2.81886C151.129 1.52666 144.672 0.67669 138.187 0.273523C134.135 -0.129643 130.058 -0.0870297 126.013 0.400787C117.742 1.77919 109.643 4.27855 101.888 7.84604C92.1894 11.8305 83.1948 17.772 75.3321 25.3879C71.6128 29.0854 68.4745 33.4831 66.0532 38.3906C63.4354 44.4112 61.6213 50.846 60.6714 57.4809C58.2635 72.1176 58.4591 87.1586 61.2467 101.707C66.814 132.145 81.883 160.017 100.849 182.014C105.517 187.436 110.476 192.523 115.695 197.243C117.143 198.474 119.128 196.247 117.718 194.974Z" fill="#FFE4DD"/>
<path d="M222.258 212.096C223.663 211.886 224.928 211.129 225.777 209.99C226.626 208.85 226.99 207.422 226.79 206.015L199.989 22.7257C199.561 19.8053 197.753 19.0059 195.972 20.9481C194.191 22.8903 193.121 26.8641 193.595 29.7756L221.592 201.834C221.708 202.518 221.683 203.218 221.518 203.892C221.352 204.566 221.051 205.198 220.632 205.751C220.214 206.304 219.686 206.765 219.082 207.107C218.478 207.448 217.811 207.662 217.121 207.736L84.752 222.937C81.8208 223.273 78.0008 223.756 76.2661 224.01C74.5313 224.264 72.7608 222.082 72.3316 219.164L65.0171 169.141C64.5897 166.222 66.6535 163.776 69.6043 163.704L206.434 160.44C207.125 160.431 207.806 160.279 208.434 159.992C209.063 159.706 209.625 159.292 210.085 158.777C210.545 158.261 210.892 157.656 211.106 156.999C211.319 156.342 211.393 155.648 211.324 154.961L199.678 22.7615C199.618 22.066 199.42 21.3895 199.094 20.7724C198.768 20.1552 198.321 19.6099 197.78 19.169C197.239 18.7282 196.614 18.4007 195.944 18.2062C195.274 18.0116 194.571 17.9539 193.878 18.0366L42.6103 35.654C41.917 35.7325 41.2465 35.95 40.6391 36.2933C40.0316 36.6366 39.4995 37.0988 39.0745 37.6523C38.6495 38.2058 38.3405 38.8392 38.1657 39.5147C37.9909 40.1903 37.9539 40.8941 38.0571 41.5842L65.55 229.588C65.7592 230.994 66.5162 232.259 67.6555 233.108C68.7948 233.957 70.2239 234.321 71.6305 234.12L222.258 212.096Z" fill="#AC928D"/>
<path d="M218.084 203.265L79.4226 223.542L222.455 207.137L195.525 43.9092H194.781L218.084 203.265Z" fill="#6188A3"/>
<path opacity="0.26" d="M218.084 203.265L79.4226 223.542L222.455 207.137L195.525 43.9092H194.781L218.084 203.265Z" fill="black"/>
<path d="M45.8652 43.9092L55.7658 112.558L56.6081 111.61L46.7094 43.9092H45.8652Z" fill="#6188A3"/>
<path opacity="0.05" d="M45.8652 43.9092L55.7658 112.558L56.6081 111.61L46.7094 43.9092H45.8652Z" fill="black"/>
<path d="M218.084 203.265L73.1112 224.464L46.7092 43.9092L192.733 24.4802L218.084 203.265Z" fill="#FFFFF1"/>
<g opacity="0.47">
<path d="M92.6422 75.1182L71.3604 78.23C71.0683 78.2772 70.8061 78.4365 70.6294 78.6739C70.4528 78.9113 70.3756 79.2082 70.4143 79.5015L73.5261 100.783C73.5729 101.075 73.7317 101.338 73.9688 101.515C74.2059 101.692 74.5025 101.769 74.7959 101.731L96.0777 98.6176C96.2185 98.6029 96.3547 98.5592 96.4778 98.4894C96.6009 98.4195 96.7083 98.3249 96.7931 98.2116C96.8048 98.1987 96.8156 98.185 96.8253 98.1705L96.8431 98.1472C96.9275 98.0339 96.9879 97.9046 97.0205 97.7671C97.0531 97.6296 97.0572 97.487 97.0327 97.3478L93.9209 76.0661C93.8741 75.7722 93.714 75.5084 93.475 75.3312C93.2359 75.154 92.937 75.0776 92.6422 75.1182ZM94.647 96.5645L75.5846 99.3598C74.6546 93.0038 73.7252 86.6479 72.7965 80.292L91.8589 77.4968C92.7889 83.8527 93.7182 90.2086 94.647 96.5645Z" fill="#8C9498"/>
<path d="M98.3973 114.472L77.1155 117.585C76.8234 117.632 76.561 117.791 76.3841 118.028C76.2071 118.265 76.1294 118.562 76.1676 118.855C77.2061 125.949 78.2439 133.043 79.2812 140.137C79.328 140.429 79.4869 140.691 79.724 140.867C79.9611 141.044 80.2578 141.121 80.5509 141.083L101.833 137.971C101.973 137.956 102.109 137.912 102.232 137.842C102.355 137.772 102.463 137.678 102.548 137.565L102.58 137.524L102.598 137.499C102.683 137.386 102.743 137.256 102.776 137.119C102.808 136.981 102.812 136.838 102.788 136.699L99.676 115.418C99.6283 115.124 99.468 114.861 99.2291 114.684C98.9902 114.508 98.6917 114.431 98.3973 114.472ZM100.402 135.92L81.3343 138.704C80.4043 132.348 79.4749 125.992 78.5462 119.636L97.614 116.848C98.5463 123.207 99.4757 129.564 100.402 135.92Z" fill="#8C9498"/>
<path d="M104.152 153.827L82.8705 156.938C82.578 156.985 82.3154 157.144 82.1384 157.382C81.9614 157.619 81.884 157.916 81.9226 158.21C82.9599 165.305 83.9977 172.399 85.0362 179.492C85.083 179.784 85.2418 180.046 85.4789 180.223C85.7159 180.4 86.0126 180.478 86.3059 180.44L107.597 177.333C107.737 177.318 107.874 177.275 107.997 177.205C108.12 177.135 108.227 177.04 108.312 176.927L108.344 176.886L108.362 176.861C108.447 176.748 108.507 176.619 108.54 176.482C108.572 176.345 108.576 176.202 108.552 176.063L105.44 154.782C105.395 154.485 105.234 154.218 104.993 154.039C104.752 153.86 104.45 153.784 104.152 153.827ZM106.166 175.273L87.0982 178.061C86.1683 171.705 85.2389 165.349 84.3101 158.993L103.376 156.205L106.166 175.273Z" fill="#8C9498"/>
</g>
<path opacity="0.32" d="M194.179 149.495L119.091 160.476L120.648 171.118L195.736 160.137L194.179 149.495Z" fill="#8C9498"/>
<path opacity="0.32" d="M188.085 107.812L112.997 118.793L114.553 129.435L189.641 118.454L188.085 107.812Z" fill="#8C9498"/>
<path opacity="0.32" d="M181.989 66.1312L106.901 77.1121L108.457 87.7542L183.545 76.7733L181.989 66.1312Z" fill="#8C9498"/>
<path d="M71.3872 89.4127L74.8477 81.6296L97.2151 99.0038L96.777 100.222L71.3872 89.4127Z" fill="#F28181"/>
<path d="M88.0623 74.0327L93.626 77.5147L78.2512 110.001L77.3713 109.595L88.0623 74.0327Z" fill="#F28181"/>
<path d="M77.3713 125.892L80.8319 118.107L103.199 135.482L102.761 136.699L77.3713 125.892Z" fill="#F28181"/>
<path d="M94.0462 110.51L99.6099 113.992L84.2351 146.48L83.3552 146.074L94.0462 110.51Z" fill="#F28181"/>
<path d="M83.9131 166.56L87.3754 158.775L109.741 176.151L109.303 177.369L83.9131 166.56Z" fill="#F28181"/>
<path d="M100.59 151.18L106.152 154.662L90.7789 187.148L89.8972 186.742L100.59 151.18Z" fill="#F28181"/>
<path d="M163.293 128.6C157.325 128.35 151.078 128.378 145.945 130.746C140.813 133.114 137.234 138.509 139.416 143.349C140.248 145.194 153.306 148.56 154.819 150.077C166.401 161.701 166.467 171.507 178.049 183.124C183.044 180.551 185.825 175.763 187.629 170.983C189.189 166.85 190.197 162.561 191.206 158.285C192.769 151.638 194.182 144.216 189.904 138.236C184.612 130.848 173.19 129.015 163.293 128.6Z" fill="#E4C9B0"/>
<path d="M212.82 185.848L209.433 170.266L206.751 144.652L175.363 121.403L136.524 133.822C136.524 133.822 132.203 139.11 138.302 141.144C144.4 143.177 174.209 139.11 174.209 139.11L184.371 163.5L185.726 203.472L195.205 229.894L227.725 214.99L212.82 185.848Z" fill="#ECCFB2"/>
<path d="M119.738 150.232L117.521 150.121C117.352 150.112 117.315 149.967 117.46 149.876L119.636 148.517L126.225 146.267L127.01 148.862L119.738 150.232Z" fill="#666666"/>
<path d="M131.939 149.678L123.542 150.098C121.437 150.203 120.824 147.989 122.694 147.045L130.365 143.171L215.333 121.575L217.347 129.902L131.939 149.678Z" fill="#3B464C"/>
<path d="M216.265 130.501L214.038 121.4L221.117 119.669C222.238 119.395 223.402 120.205 223.715 121.493L224.806 125.964C225.119 127.244 224.465 128.505 223.342 128.78L216.265 130.501Z" fill="#7E8486"/>
<path d="M221.668 126.425L220.713 122.523L227.382 120.894C228.438 120.634 229.404 120.87 229.54 121.419L230.007 123.331C230.141 123.88 229.393 124.537 228.335 124.794L221.668 126.425Z" fill="#7E8486"/>
<path d="M199.098 132.236L198.876 131.329C198.78 130.932 199.107 130.512 199.608 130.39L216 126.382C216.501 126.259 216.986 126.481 217.082 126.878L217.304 127.784C217.4 128.18 217.073 128.6 216.572 128.723L200.18 132.731C199.679 132.853 199.195 132.624 199.098 132.236Z" fill="#7E8486"/>
<path d="M172.229 132.128L169.267 132.852L171.26 141.001L174.222 140.277L172.229 132.128Z" fill="#A26652"/>
<path d="M186.411 203.635C185.288 203.277 184.564 201.369 183.623 200.08C182.539 198.594 179.379 196.75 178.068 195.459C173.1 190.571 169.702 186.504 164.191 182.239C159.898 178.923 153.002 172.651 152.943 171.947C152.773 169.942 151.958 168.052 151.709 166.056C151.036 160.606 150.36 155.158 149.683 149.712C149.164 145.52 148.349 136.676 153.655 134.913C159.178 133.082 162.061 140.636 162.322 144.783C162.57 148.619 162.086 152.652 163.668 156.155C165.621 160.481 170.174 162.872 173.991 165.694C183.469 172.7 187.552 167.458 190.01 195.9C190.188 197.989 190.126 200.999 188.564 202.66C187.683 203.597 187.001 203.823 186.411 203.635Z" fill="#ECCFB2"/>
<path d="M217.063 173.299C217.063 173.299 183.214 197.883 175.607 201.03C175.607 201.03 179.598 211.701 184.931 234.426C190.264 257.152 226.767 247.23 241.595 234.426C258.148 220.133 226.407 186.561 226.407 186.561L217.063 173.299Z" fill="#A26652"/>
<path opacity="0.05" d="M46.1692 45.8442L63.5935 161.411L188.572 22.6221L46.1692 45.8442Z" fill="black"/>
</svg>
