<?xml version="1.0" encoding="utf-8"?>
<!-- Generator: Adobe Illustrator 25.3.1, SVG Export Plug-In . SVG Version: 6.00 Build 0)  -->
<svg version="1.1" id="圖層_1" xmlns="http://www.w3.org/2000/svg" xmlns:xlink="http://www.w3.org/1999/xlink" x="0px" y="0px"
	 viewBox="0 0 1124 595.2" style="enable-background:new 0 0 1124 595.2;" xml:space="preserve">
<style type="text/css">
	.st0{clip-path:url(#SVGID_2_);}
	.st1{fill:#FFB9A5;}
	.st2{clip-path:url(#SVGID_4_);}
	.st3{clip-path:url(#SVGID_6_);}
	.st4{fill:#E19B81;}
	.st5{fill:#FAE57A;}
	.st6{fill:#FCFADB;}
	.st7{clip-path:url(#SVGID_8_);}
	.st8{fill:#C4E8D9;}
	.st9{fill:#FBA47E;}
	.st10{opacity:0.1;fill:#882D26;enable-background:new    ;}
	.st11{clip-path:url(#SVGID_10_);}
	.st12{opacity:0.1;}
	.st13{fill:#CB3C2C;}
	.st14{fill:#882D26;}
	.st15{clip-path:url(#SVGID_12_);}
	.st16{fill:#E17C57;}
	.st17{fill:#FFFFFF;}
	.st18{fill:url(#SVGID_13_);}
	.st19{fill:#A5DAD4;}
</style>
<g>
	<defs>
		<rect id="SVGID_1_" width="1124" height="717.2"/>
	</defs>
	<clipPath id="SVGID_2_">
		<use xlink:href="#SVGID_1_"  style="overflow:visible;"/>
	</clipPath>
	<g class="st0">
		<rect x="-31.9" y="-7.1" class="st1" width="1204.8" height="627"/>
		<g>
			<defs>
				<rect id="SVGID_3_" x="-37.9" y="-371.1" width="1161" height="1667.3"/>
			</defs>
			<clipPath id="SVGID_4_">
				<use xlink:href="#SVGID_3_"  style="overflow:visible;"/>
			</clipPath>
			<g class="st2">
				<g>
					<defs>
						<rect id="SVGID_5_" x="875.2" y="73.9" width="343.9" height="328.8"/>
					</defs>
					<clipPath id="SVGID_6_">
						<use xlink:href="#SVGID_5_"  style="overflow:visible;"/>
					</clipPath>
					<g class="st3">
						<path class="st4" d="M1082.7,73.9c0,0,131.1,80.1,129.4,89.6c0,0-191,228-205.3,238.6c0,0-98-63.6-131.5-89.5
							C875.2,312.5,1053.2,96,1082.7,73.9z"/>
						<path class="st5" d="M1089.8,74.6c0,0,130.9,80.3,129.3,89.8c0,0-191.4,227.7-205.7,238.2c0,0-97.9-63.8-131.4-89.7
							C882,312.9,1060.2,96.6,1089.8,74.6z"/>
						<path class="st6" d="M1204.6,181.7c-34.2-26.8-112.1-79-131.1-91.7c-6.1,6.3-13.3,14.1-21.1,22.9
							c34.1,22.2,112.1,75.7,133.8,90.7L1204.6,181.7z"/>
						<path class="st6" d="M1147.2,249.4l18.1-21.4c-34.7-26.9-101.8-73.6-131.7-94.2c-6.3,7.2-13,14.8-19.8,22.6
							C1053.2,183.4,1121.6,231.5,1147.2,249.4z"/>
						<path class="st6" d="M1127.5,272.7c-35.6-27.5-103.4-74.6-132.3-94.6c-6.5,7.6-13,15.3-19.5,22.9
							c38.7,26.3,106.9,74.3,133.5,93.1L1127.5,272.7z"/>
						<path class="st6" d="M955.2,225.3c-6.7,7.9-13.2,15.6-19.3,23c36.7,24.9,103.9,72.2,133.1,92.7c6-6.9,12.2-14.1,18.5-21.5
							C1049.9,290.8,981.5,243.4,955.2,225.3z"/>
						<path class="st6" d="M1047.8,365.3c-36.3-28-103.5-74.5-131.4-93.8c-7.4,8.8-13.9,16.7-19.2,23.1
							c37.5,25.5,103.6,72,131.8,91.9C1034.2,380.6,1040.6,373.5,1047.8,365.3z"/>
					</g>
				</g>
				<g>
					<defs>
						
							<rect id="SVGID_7_" x="810.2" y="-101.3" transform="matrix(0.3186 -0.9479 0.9479 0.3186 583.4102 997.5826)" width="350.8" height="388.6"/>
					</defs>
					<clipPath id="SVGID_8_">
						<use xlink:href="#SVGID_7_"  style="overflow:visible;"/>
					</clipPath>
					<g class="st7">
						<path class="st6" d="M1041.4-73.2L929.7,259.3c0,0-48.2-50-109.2-81.7c0,0,15.3-102.6-19-146.4c0,0,86.9-40.4,104.8-93.5
							C906.1-62.4,984.3-43.3,1041.4-73.2z"/>
						<path class="st6" d="M1041.4-73.2L929.7,259.3c0,0,68.6-10.7,136.4,0.8c0,0,49.8-91,103.7-105.2c0,0-44.9-84.7-27-137.8
							C1142.7,17.1,1061-16.8,1041.4-73.2z"/>
						<path class="st8" d="M820.5,177.5L985.5,93l-55.9,166.3C929.7,259.3,863.1,197.6,820.5,177.5z"/>
						<path class="st9" d="M801.3,31.1L985.5,93L906.1-62.4C906.1-62.4,853.6,3.1,801.3,31.1z"/>
						<path class="st8" d="M1141.3,16.6L984.1,92.5L1040-73.7C1040-73.7,1080.1-13,1141.3,16.6z"/>
						<path class="st9" d="M985.5,93l80.5,167.1c0,0,67.1-92,103.7-105.2l-183-59.4"/>
						<path class="st10" d="M906.1-62.4c0,0-90.3,233,160,322.5c0,0-54.6-11.8-136.4-0.8c0,0-59.2-54.8-109.2-81.7
							c0,0,15.6-99.5-19-146.4C801.3,31.1,856.3,2.8,906.1-62.4z"/>
					</g>
				</g>
				<g>
					<defs>
						
							<rect id="SVGID_9_" x="523" y="111.1" transform="matrix(0.3818 -0.9243 0.9243 0.3818 273.2079 766.2269)" width="372.6" height="135.5"/>
					</defs>
					<clipPath id="SVGID_10_">
						<use xlink:href="#SVGID_9_"  style="overflow:visible;"/>
					</clipPath>
					<g class="st11">
						<path class="st4" d="M767.3,84c0,0,23.5,7,22.6-12.9s-22.2-15.8-29.1-8.3S756,79.1,767.3,84z"/>
						<path class="st4" d="M783,101.1c0,0,8.5,2.5,8.1-4.7s-8-5.7-10.5-3S778.9,99.3,783,101.1z"/>
						<path class="st4" d="M764.7,100.5c0,0,8.5,2.5,8.1-4.7s-8-5.7-10.5-3S760.6,98.7,764.7,100.5z"/>
						<path class="st4" d="M747.9,88.1c0,0,4.8,7.5,9.2,1.8s-2.3-9.6-6-9.1S745.9,84,747.9,88.1z"/>
						<path class="st4" d="M704.7,132.5c0,0,23.5,7,22.6-12.9s-22.3-15.8-29.1-8.3S693.4,127.6,704.7,132.5z"/>
						<path class="st4" d="M720.4,149.6c0,0,8.5,2.5,8.1-4.7s-8-5.7-10.5-3S716.3,147.8,720.4,149.6z"/>
						<path class="st4" d="M702.1,149c0,0,8.5,2.5,8.1-4.7s-8-5.7-10.5-3S698,147.3,702.1,149z"/>
						<path class="st4" d="M685.2,136.6c0,0,4.8,7.5,9.2,1.8s-2.3-9.6-6-9.1S683.3,132.6,685.2,136.6z"/>
						<path class="st4" d="M723.9,205.7c0,0,23.5,7,22.6-12.9s-22.3-15.8-29.1-8.4S712.6,200.8,723.9,205.7z"/>
						<path class="st4" d="M739.6,222.8c0,0,8.5,2.5,8.1-4.7s-8-5.7-10.5-3S735.5,221,739.6,222.8z"/>
						<path class="st4" d="M721.3,222.2c0,0,8.5,2.5,8.1-4.7s-8-5.7-10.5-3S717.2,220.5,721.3,222.2z"/>
						<path class="st4" d="M704.5,209.8c0,0,4.8,7.5,9.2,1.8s-2.3-9.6-6-9.1S702.5,205.9,704.5,209.8z"/>
						<path class="st4" d="M648.4,270c0,0,23.5,7,22.6-12.9s-22.2-15.8-29.1-8.3S637.1,265.2,648.4,270z"/>
						<path class="st4" d="M664.1,287.1c0,0,8.5,2.5,8.2-4.6s-8-5.7-10.5-3S660,285.4,664.1,287.1z"/>
						<path class="st4" d="M645.8,286.6c0,0,8.5,2.5,8.2-4.6s-8-5.7-10.5-3S641.7,284.8,645.8,286.6z"/>
						<path class="st4" d="M629,274.1c0,0,4.8,7.5,9.2,1.8s-2.4-9.6-6.1-9.1S627,270.1,629,274.1z"/>
						<path class="st4" d="M667.6,343.2c0,0,23.5,7,22.6-12.9s-22.2-15.8-29.1-8.4S656.3,338.4,667.6,343.2z"/>
						<path class="st4" d="M683.4,360.3c0,0,8.5,2.5,8.2-4.6s-8-5.7-10.5-3S679.3,358.6,683.4,360.3z"/>
						<path class="st4" d="M665.1,359.8c0,0,8.5,2.5,8.2-4.6s-8-5.7-10.5-3S661,358,665.1,359.8z"/>
						<path class="st4" d="M648.2,347.3c0,0,4.8,7.5,9.2,1.8s-2.4-9.6-6.1-9.1S646.3,343.3,648.2,347.3z"/>
						<path class="st4" d="M726.8,23.1c0,0,23.5,7,22.6-12.9s-22.2-15.8-29-8.3S715.5,18.2,726.8,23.1z"/>
						<path class="st4" d="M742.6,40.2c0,0,8.5,2.5,8.2-4.7s-8-5.7-10.5-3S738.5,38.4,742.6,40.2z"/>
						<path class="st4" d="M724.3,39.6c0,0,8.5,2.5,8.2-4.6s-8-5.7-10.5-3S720.2,37.8,724.3,39.6z"/>
						<path class="st4" d="M707.4,27.2c0,0,4.8,7.5,9.2,1.8s-2.4-9.6-6.1-9.1S705.5,23.2,707.4,27.2z"/>
					</g>
				</g>
				<g class="st12">
					<path class="st13" d="M81.8-2.6c-2.4,0.2-17.7,2.4-26,9C46.9,13.6,12.6,38.6,5,57.8c0,0,24.2-0.6,51.7-26.1
						C78.8,11.1,81.7,1.4,82.1-1.6c1.2-1.2,2.3-2.3,3.2-3.4c-0.7,11-1.5,21.7-2.4,32c-1,0.8-2.4,2-4.3,3.6
						c-2.2,0.2-17.7,2.1-26.1,8.5c-9,7-43.7,31.2-51.5,50.3c0,0,24.3-0.1,52-24.9c22.5-20.2,25.5-29.9,25.9-32.8
						c1.5-1.5,2.8-2.8,4-4.1c-0.7,8.5-1.5,16.8-2.3,24.8c-0.8,0.8-2,2-3.6,3.6c-2,0.4-15.3,3.4-22.1,9.7c-7.3,6.8-35.9,31-41.4,48.2
						c0,0,14.4-1.6,32.1-15.7c-11.1,10.6-37,34.8-42.3,52.3c0,0,23.7-3.3,48.5-30.9c20.1-22.5,22-32.2,22-35.2
						c1.6-1.9,2.9-3.6,3.9-5.1c-1.3,11.8-2.7,22.9-4,32.9l-0.1,0.5c-0.7,0.8-1.9,2.1-3.7,3.9c-1.9,0.5-14.8,3.7-21.3,10
						c-7,6.8-34.2,31-39.2,47.8c0,0,20.5-2.9,41.7-26.8c17.3-19.4,19-27.9,19-30.4c1.3-1.6,2.4-3,3.3-4.3
						c-5.3,40.1-9.8,64.6-9.8,64.6l1.4-0.8c-0.2,0.5-0.5,1.4-1,2.6c-0.1-0.6-0.2-1.2-0.4-1.8l0.2,2.3l-0.3,0.8
						c-1.2,1-9.2,7.6-11.9,14c-3,6.9-15.3,32.3-14.3,45.1c0,0,13.2-9,21.5-32.1c0.2-0.5,0.3-1,0.5-1.4c0.2,11.2,0.8,32.8,6,41.4
						c0,0,8-15.2,5.8-39.6c-1.8-19.8-5.3-24.5-6.6-25.5c-0.1-0.9-0.2-1.6-0.3-2.4c0.4-1.3,0.7-2.5,1-3.5l0.2-0.1
						c0.9-4.4,1.7-8.8,2.5-13.2c0.3,1.4,0.8,3.1,1.4,5c-0.8,2-2,9.4,5.7,30.9c9.6,26.5,25.2,35.8,25.2,35.8
						c1.3-15.2-13-44-16.5-51.9c-3.2-7.3-12.5-14.3-14-15.4c-0.9-2.4-1.6-4-1.9-4.8c2.8-15,5.3-30.7,7.5-46.6l0.8,1.7
						c-0.6,2.4-1,11,11.2,33.8c15,28,34.2,35.3,34.2,35.3c-0.8-17.4-21.5-47-26.6-55.3c-4.8-7.6-16.5-13.6-18.3-14.5l-1.2-2
						c1.6-11.1,3-22.4,4.4-33.8c0.6,1.3,1.2,2.8,2,4.3c-0.7,2.8-1.1,12.7,13,39c17.4,32.3,39.7,40.9,39.7,40.9
						c-1-20.2-25-54.3-30.9-63.9c14.5,20.2,29.7,25.5,29.7,25.5c-1.1-17.5-22.9-47.4-28.5-55.6C100,64,87.7,58.1,85.9,57.2l-2.5-4.2
						c2-20.1,3.8-39.9,5.2-59.1c0.7,1.4,1.6,3,2.7,4.7c-0.4,2.9,0,13.1,16.6,38.1c20.5,30.8,44,36.8,44,36.8
						c-2.4-17.9-23.9-44.8-33.7-57.1C136.2,38.3,154,43.1,154,43.1c-2.6-20.4-29.7-52.7-36.5-61.7c-6.3-8.3-20.8-14-22.9-14.8
						l-3.7-5.3c1.5-23.5,2.6-45.3,3.3-64c1.2,1.4,2.5,2.7,3.8,4c0.2,2.9,2.7,12.5,24.3,31.8c26.6,23.7,50.9,22.8,50.9,22.8
						c-7-18.8-40.6-41.6-49.1-48.1c-8-6.1-23.4-7.2-25.7-7.4l-4.2-3.6c1.7-40.4,1.9-66.7,1.9-66.7c-5.3-4.4-8.9-1-8.9-1
						c1.1,23.3,1.6,46.5,1.4,69.1c-0.5,0.5-1.1,1-1.7,1.6c-2.3,0.3-17.7,2.9-25.8,9.7c-8.7,7.4-42.6,33.3-49.8,52.7
						c0,0,24.3-1.3,51.2-27.4C84.4-86.5,87-96.4,87.2-99.3c0.5-0.5,1-1,1.4-1.5c-0.1,10.7-0.2,21.2-0.5,31.6l-3.3,3.3
						c-2.3,0.4-17.7,3.7-25.5,10.9c-8.5,7.8-41.5,35.2-48,54.8c0,0,24.2-2.4,50.3-29.7C82.7-52,85.1-62,85.2-65
						c1.1-1.2,2.1-2.4,3-3.5C87.9-57.1,87.5-46,87-35c-0.9,0.8-2.1,1.9-3.7,3.3C81-31.4,65.6-29,57.4-22.3
						c-8.9,7.2-43,32.6-50.4,51.9c0,0,24.3-0.9,51.5-26.6C80.6-18,83.4-27.8,83.6-30.7c1.2-1.2,2.4-2.4,3.3-3.5
						c-0.4,9.7-1,19.2-1.6,28.6C84.4-4.9,83.2-3.8,81.8-2.6z M73.5,83.6c-7.4,1.7-14.5,4.7-21,8.6c1.5-1.4,3-3,4.6-4.6
						c18.2-19.5,20.1-28.2,20.2-30.7c1.2-1.5,2.3-2.8,3.2-4c-0.9,9-1.8,17.8-2.7,26C77.1,79.9,75.6,81.4,73.5,83.6z M85.3,58
						c-0.5,2.5-0.7,11.4,12.3,34.4c1.6,2.9,3.3,5.6,5,8c-6.1-7.9-18.1-14.1-20-15l-2.4-4.4c1.1-9.2,2.1-18.3,3-27.5
						C83.8,55,84.6,56.4,85.3,58z M94-32.6c-0.5,2.9-0.1,13,16.4,38.2c1.8,2.8,3.7,5.5,5.6,7.9l-1-1.3C108.6,4.1,94-1.5,91.9-2.3
						l-3.3-4.4c0.8-10.8,1.6-21.4,2.2-31.6C91.8-36.3,92.8-34.4,94-32.6z"/>
					<path class="st14" d="M48.3,173.1c15-16.9,16.5-24.2,16.5-26.4c1.3-1.5,2.5-3.1,3.5-4.8c0,0-1.3,1.4-3.8,4.1
						c-1.7,0.4-12.9,3.2-18.5,8.7c-6.1,5.9-29.7,27-34,41.5C12.1,196.4,29.9,193.9,48.3,173.1z"/>
					<path class="st14" d="M107.2,70.3c21.1,30.4,44.8,35.9,44.8,35.9c-3-20.3-31.1-51.7-38.1-60.5c-6.5-8.1-21.2-13.3-23.3-14.1
						l-4.4-6c1.1,2.4,2.4,4.7,3.9,6.9C89.6,35.4,90.1,45.5,107.2,70.3z"/>
					<path class="st14" d="M75.1,146.9c-1.8-3.1-2.7-4.8-2.7-4.8c0.6,1.9,1.4,3.7,2.3,5.4c-0.5,2.1-0.8,9.6,9.8,29.4
						c13,24.4,29.8,30.8,29.8,30.8c-0.7-15.2-18.7-41-23.2-48.1C86.9,153,76.6,147.7,75.1,146.9z"/>
					<path class="st14" d="M51,194.2c12.7-19.2,13.2-26.6,13-28.8c1.1-1.7,2-3.4,2.9-5.3c0,0-1,1.7-3.2,4.6
						c-1.6,0.7-12.5,5.5-17.2,11.8c-5.3,6.9-26,31.7-28.4,46.8C17.9,223.4,35.3,217.9,51,194.2z"/>
				</g>
				<g class="st12">
					<path class="st14" d="M176.2-31.1c-1.6,1.6-12.4,12.8-14.8,23c-2.5,11-13.8,51.6-7.6,71.3c0,0,18.8-15.4,24.3-52.1
						c4.5-29.8,0.6-39.2-1.1-41.6c0.2-1.7,0.3-3.2,0.4-4.6c6.4,9,12.5,17.8,18.4,26.4l-1.1,5.5c-1.7,1.6-12.8,12.5-15.3,22.7
						c-2.7,11-14.7,51.2-8.9,71c0,0,19.1-15,25.2-51.4c5.1-29.8,1.4-39.2-0.3-41.7c0.2-2,0.5-4,0.6-5.6c4.9,7.1,9.5,14.1,14,20.8
						l-0.5,5c-1.3,1.5-9.9,12.1-11.3,21.2c-1.4,9.8-8.7,46.2-2.2,63c0,0,10.4-10.1,15.4-32c-2.1,15.1-7.2,49.9-0.3,66.8
						c0,0,16.6-17.2,18.7-53.9c1.6-29.9-3-38.7-4.7-40.9c0-2.4,0-4.6-0.1-6.3c6.4,10.1,12.4,19.5,17.7,28.2l0.3,0.4
						c-0.1,1-0.2,2.8-0.4,5.3c-1.2,1.5-9.3,12-10.4,20.9c-1.2,9.6-7.3,45.2-0.7,61.4c0,0,14.3-14.8,16-46.5
						c1.4-25.8-2.6-33.4-4.2-35.3c0.1-1.8,0-3.6-0.1-5.4c21.2,34.5,33,56.4,33,56.4l0.6-1.4l0.8,2.6c-0.5-0.4-1-0.8-1.5-1.2l1.6,1.7
						l0.3,0.9c-0.3,1.5-2.4,11.6-0.5,18.3c2.1,7.2,8.4,34.6,17.2,44c0,0,4.7-15.2-3.3-38.4l-0.5-1.5c7.2,8.6,21.3,25.1,30.9,28.7
						c0,0-3.2-16.8-20.4-34.4c-14-14.4-19.7-15.9-21.4-15.9c-0.6-0.6-1.2-1.2-1.7-1.7c-0.5-1.3-1-2.4-1.5-3.3l0.1-0.2
						c-2.1-3.9-4.2-7.9-6.4-11.9c1.4,1.1,2.8,2.1,4.3,3.1c0.7,2,4.3,8.6,24.1,20.6c24.4,14.7,42.4,12.6,42.4,12.6
						c-8.6-12.7-38-26.4-45.8-30.4c-7.1-3.7-18.9-3.5-20.7-3.4l-4.5-2.6c-7.4-13.5-15.3-27.2-23.5-41l1.7,0.8
						c1.1,2.2,6.2,9.2,30.2,19.5c29.5,12.7,49.2,6.6,49.2,6.6c-11.6-13-46.6-23.4-55.8-26.6c-8.5-3-21.6-0.5-23.6-0.1l-2.2-0.9
						c-5.8-9.7-11.8-19.5-17.9-29.1c1.4,0.8,2.8,1.5,4.3,2.1c1.2,2.6,7.2,10.6,35,22.5c34.1,14.6,57,7.5,57,7.5
						c-13.5-15.2-54-27.2-64.8-30.9c24.2,6.8,39.5,1.6,39.5,1.6c-12.3-13.2-48.5-23.1-58-26.2c-8.8-2.9-22.1,0.1-24.2,0.6l-4.6-1.7
						C201.4-5.5,190.2-22,179.2-37.9c1.5,0.7,3.2,1.3,5.1,2c1.7,2.6,8.4,10.1,37.4,19.5c35.6,11.5,57.9,1.7,57.9,1.7
						C266.5-27.2,232.5-35,217-38.5c27.9,6,44.9-1.2,44.9-1.2c-14.9-14.4-56.7-22.9-67.7-25.7C184-68.1,169-63.7,166.8-63l-6.2-1.9
						c-13.7-19.3-26.6-37-37.8-52c1.6,0.3,3.5,0.6,5.6,0.8c2,2.2,10.1,8.1,39.3,9.8c36,2.1,54.5-13.4,54.5-13.4
						c-17.3-10.4-58.2-7.6-69.2-7.4c-10.1,0.2-23.1,8.7-24.9,10l-5.5-0.2c-24.2-32.6-40.6-53.2-40.6-53.2c-7-0.1-7.7,4.7-7.7,4.7
						c15.6,17.5,30.5,35.3,44.8,53l-0.4,2.3c-1.6,1.7-12.2,13.2-14.2,23.5c-2.2,11.1-12.6,52.1-6,71.7c0,0,18.3-15.9,23-52.8
						c3.8-30-0.4-39.3-2-41.8l0.2-2.1c6.7,8.4,13.2,16.7,19.6,25c-0.1,1.2-0.3,2.7-0.6,4.6c-1.5,1.8-11.6,13.7-13.2,24.2
						C123.7-47,114.9-5.4,122.2,14c0,0,17.6-16.8,20.9-54.1c2.7-30.3-1.8-39.5-3.5-41.9c0.1-1.6,0.1-3.2,0.1-4.5
						c6.9,9.1,13.7,18,20.2,26.9c-0.2,1.2-0.5,2.8-0.8,4.8c-1.6,1.7-12.4,12.9-14.5,23.2c-2.5,11-13.4,51.9-7.1,71.6
						c0,0,18.6-15.6,23.8-52.4c4.2-29.9,0.2-39.1-1.5-41.7c0.2-1.7,0.3-3.3,0.4-4.8C166-51,171.6-43.3,177-35.6
						C176.8-34.5,176.5-33,176.2-31.1z M224.2,41.2c-1.2,1.5-8.3,10.6-11.1,19.6c0.3-2,0.4-4.2,0.7-6.4c2-26.4-1.9-34.4-3.5-36.5
						c0.1-1.9,0.1-3.6,0.1-5c5,7.6,9.8,14.9,14.3,22C224.6,36.2,224.4,38.2,224.2,41.2L224.2,41.2z M217.3,14
						c1.2,2.3,6.6,9.3,31.4,19.3c3.1,1.2,6.1,2.3,9,3.2c-9.8-2.5-23.1,0.1-25.2,0.6l-4.7-1.8c-4.9-7.9-9.9-15.7-14.9-23.4
						C214.1,12.5,215.6,13.2,217.3,14z M166.9-62c1.5,2.6,8.2,10.3,37.1,19.9c3.3,1.1,6.4,2,9.4,2.7l-1.6-0.4
						c-10.2-2.5-25.2,2.2-27.4,2.8c-2.4-0.7-4.2-1.2-5.4-1.6c-6.1-8.9-12.3-17.6-18.2-26C162.8-63.6,164.8-62.7,166.9-62z"/>
					<path class="st14" d="M261.1,126.8c1.2-22.4-2.3-29-3.5-30.6c0-2-0.1-3.9-0.3-5.9c0,0-0.1,1.9-0.4,5.5
						c-1.1,1.3-8.1,10.4-9,18.1c-1,8.3-6.4,39.2-0.6,53.3C247.2,167.2,259.6,154.4,261.1,126.8z"/>
					<path class="st14" d="M242.2,10.2C278,21,300,10.8,300,10.8c-15.2-14-57.1-21.3-68.2-23.8c-10.3-2.3-25.1,2.6-27.3,3.4
						c-4.7-1.3-7.2-2-7.2-2c2.4,1.2,4.8,2.2,7.4,3C206.2-6,213.1,1.5,242.2,10.2z"/>
					<path class="st14" d="M265.4,90.1l-5.2-2.1c1.7,1.1,3.4,2,5.2,2.8c1,2,5.4,8,26.2,17c25.6,11,42.8,5.7,42.8,5.7
						C324.3,102,293.9,93,285.9,90.1C278.5,87.6,267.1,89.7,265.4,90.1z"/>
					<path class="st14" d="M276.5,141.8c-2.1-22.8-6.4-28.9-7.9-30.4c-0.2-2-0.5-4-1-5.9c0,0,0.1,1.9,0.4,5.6
						c-0.9,1.5-6.3,11.8-6.1,19.8c0.2,8.6-0.5,40.7,7.1,54C268.8,184.8,279,169.8,276.5,141.8z"/>
				</g>
				<g>
					<defs>
						
							<rect id="SVGID_11_" x="114.8" y="34.1" transform="matrix(0.7067 -0.7075 0.7075 0.7067 -5.7904 188.6465)" width="219.7" height="134.5"/>
					</defs>
					<clipPath id="SVGID_12_">
						<use xlink:href="#SVGID_11_"  style="overflow:visible;"/>
					</clipPath>
					<g class="st15">
						<path class="st16" d="M188.8,184.2c0,0,21.9,27.4,24.3,23.8s-6.8-33.7-6.8-33.7s22.9-15.9,21.7-18.2s-23.4-3.1-23.4-3.1
							s-3.6-28.1-6.9-27.2s-10.1,27.8-10.1,27.8s-28.9-9.7-32-5.9s19.2,21.9,19.2,21.9s-13.4,19.9-12,24.9S188.8,184.2,188.8,184.2z
							"/>
						<path class="st16" d="M240,137.1c0,0,2.3,25.9,5.4,24.5s9.2-23.3,9.2-23.3s20,1.8,20.2-0.2s-12.7-13.4-12.7-13.4
							s9-18.6,6.6-19.4S251.6,118,251.6,118s-13.5-18-17-17s2.9,21.3,2.9,21.3s-16.1,6.6-17.2,10.2S240,137.1,240,137.1z"/>
					</g>
				</g>
				<path class="st4" d="M-167.4,472.2c0,0,258.4-299.2,501.9-220.8s491.4,264.1,838.4,134S1294,671,1294,671H-194.5
					C-194.5,671-284.9,616.7-167.4,472.2z"/>
				<path class="st17" d="M-167.4,494.8c0,0,258.4-299.2,501.9-220.8s491.4,264.1,838.4,134S1294,693.6,1294,693.6H-194.5
					C-194.5,693.6-284.9,639.4-167.4,494.8z"/>
				
					<linearGradient id="SVGID_13_" gradientUnits="userSpaceOnUse" x1="-227.7219" y1="750.9068" x2="1366.2699" y2="750.9068" gradientTransform="matrix(1 0 0 1 0 -250)">
					<stop  offset="0" style="stop-color:#A5DAD4"/>
					<stop  offset="1" style="stop-color:#EFFBC9"/>
				</linearGradient>
				<path class="st18" d="M-167.4,518.5c0,0,258.4-299.2,501.9-220.8s491.4,264.1,838.4,134S1294,717.2,1294,717.2H-194.5
					C-194.5,717.2-284.9,663-167.4,518.5z"/>
				<path class="st19" d="M-167.4,658.7c0,0,258.4-299.2,501.9-220.8s491.4,264.1,838.4,134S1294,857.5,1294,857.5H-194.5
					C-194.5,857.5-284.9,803.3-167.4,658.7z"/>
				<path class="st17" d="M444.6,417.2c-0.5,2.3-0.5,4.8,0.2,7.1c0.6,2.2,1.9,4.1,3.7,5.5c1.7,1.3,3.8,2,5.9,2
					c2.2,0,4.4-0.8,6.1-2.1c1.9-1.4,3.4-3.3,4.3-5.5c1-2.2,1.3-4.7,1.1-7.1c-0.2-2.3-1.1-4.5-2.5-6.3c-1.3-1.7-3.2-2.9-5.3-3.4
					c-2.9-0.6-6,0.1-8.4,1.9C447.2,411.3,445.3,414.1,444.6,417.2z"/>
				<path class="st17" d="M384.6,361c-0.5,2.1-0.2,4.3,0.9,6.1c1.2,2.2,3,3.9,5.2,5.2c2.4,1.4,5,2.2,7.7,2.5
					c2.6,0.3,5.2-0.1,7.7-1.1c2.1-0.8,3.9-2.3,5-4.2c1-1.8,1.3-4,0.7-6c-0.7-2.3-2-4.3-3.9-5.7c-2.1-1.7-4.5-2.9-7.1-3.5
					c-3.4-0.9-7.1-0.7-10.4,0.6C387.6,355.9,385.4,358.1,384.6,361z"/>
				<path class="st17" d="M328.5,362c-0.5,2-0.3,4.1,0.6,5.9c1,2,2.6,3.6,4.6,4.7c2.1,1.2,4.5,1.9,7,2c2.5,0.1,4.9-0.4,7.2-1.5
					c2.1-0.9,3.8-2.5,5-4.4c1.1-1.8,1.4-3.9,1.1-5.9c-0.4-2.1-1.5-4-3.1-5.4c-1.8-1.6-4-2.7-6.3-3.2c-1.7-0.3-3.4-0.4-5.2-0.2
					c-1.7,0.2-3.3,0.7-4.9,1.4c-1.4,0.7-2.7,1.6-3.8,2.8C329.7,359.4,329,360.6,328.5,362z"/>
				<path class="st17" d="M549.3,592.8c-0.5,2-0.3,4.1,0.6,5.9c1,2,2.6,3.6,4.6,4.7c2.1,1.2,4.5,1.9,7,2c2.5,0.1,4.9-0.4,7.2-1.5
					c2.1-0.9,3.8-2.5,5-4.4c1.1-1.8,1.4-3.9,1.1-5.9c-0.4-2.1-1.5-4-3.1-5.4c-1.8-1.6-4-2.7-6.3-3.2c-1.7-0.3-3.4-0.4-5.2-0.2
					c-1.7,0.2-3.3,0.7-4.9,1.4c-1.4,0.7-2.7,1.6-3.8,2.8C550.5,590.2,549.8,591.4,549.3,592.8z"/>
				<path class="st17" d="M539,472.4c-0.5,2.2-0.2,4.5,0.7,6.6c1,2.2,2.6,4,4.7,5.3c2.1,1.4,4.5,2.2,7,2.3c2.5,0.2,4.9-0.3,7.1-1.5
					c2.1-1.1,3.7-2.7,4.8-4.8c1-2,1.4-4.3,1-6.5c-0.4-2.3-1.6-4.4-3.2-6.1c-1.8-1.8-4-3-6.4-3.6c-3.3-0.8-6.9-0.4-10,1.1
					C541.9,466.7,539.8,469.3,539,472.4z"/>
				<path class="st17" d="M176,350.8c-0.3,1.2-0.2,2.4,0.3,3.6c0.5,1.2,1.3,2.1,2.3,2.9c1.1,0.7,2.3,1.1,3.6,1.2
					c1.3,0,2.5-0.3,3.6-0.9c1.1-0.6,1.9-1.6,2.5-2.7c0.5-1.1,0.7-2.4,0.5-3.6c-0.2-1.2-0.8-2.3-1.6-3.2c-1.5-1.6-3.6-2.3-5.8-2
					c-0.8,0.1-1.7,0.4-2.4,0.9c-0.7,0.4-1.4,1-1.9,1.7C176.5,349.2,176.2,349.9,176,350.8z"/>
				<path class="st17" d="M246.5,507.7c-0.3,1.2-0.2,2.4,0.3,3.6c0.5,1.2,1.3,2.2,2.3,2.9c2.1,1.5,4.9,1.6,7.2,0.2
					c1.1-0.6,1.9-1.6,2.5-2.7c0.5-1.1,0.7-2.3,0.5-3.5c-0.2-1.2-0.8-2.4-1.6-3.2c-0.9-0.9-2-1.6-3.2-1.9c-0.8-0.2-1.7-0.2-2.6-0.1
					c-0.8,0.1-1.7,0.4-2.4,0.9c-0.7,0.4-1.4,1-1.9,1.7C247.1,506.1,246.7,506.9,246.5,507.7z"/>
				<path class="st17" d="M166.7,462.7c-0.3,1.2-0.2,2.5,0.3,3.6c0.5,1.2,1.3,2.1,2.3,2.8c2.1,1.5,4.9,1.6,7.1,0.2
					c1.1-0.6,1.9-1.6,2.4-2.7c0.5-1.1,0.7-2.4,0.5-3.6c-0.2-1.2-0.8-2.3-1.6-3.2c-2.1-2.2-5.5-2.7-8.2-1.1c-0.7,0.4-1.4,1-1.9,1.7
					C167.2,461.2,166.8,461.9,166.7,462.7z"/>
				<path class="st17" d="M588.3,568.5c-0.3,1.2-0.2,2.5,0.3,3.6c0.5,1.2,1.3,2.1,2.3,2.8c2.1,1.5,4.9,1.6,7.1,0.2
					c1.1-0.6,1.9-1.6,2.5-2.7c0.5-1.1,0.7-2.4,0.5-3.6c-0.2-1.2-0.8-2.3-1.7-3.2c-2.1-2.2-5.5-2.7-8.2-1.1c-0.7,0.4-1.4,1-1.8,1.7
					C588.9,567,588.5,567.7,588.3,568.5z"/>
				<path class="st17" d="M173.2,489.9c-0.3,1.2-0.2,2.4,0.3,3.6c0.5,1.2,1.3,2.1,2.3,2.9c1.1,0.7,2.3,1.1,3.6,1.2
					c1.3,0,2.5-0.3,3.6-0.9c1.1-0.6,1.9-1.6,2.4-2.7c0.5-1.1,0.7-2.4,0.5-3.6c-0.2-1.2-0.8-2.3-1.6-3.2c-0.9-0.9-2-1.6-3.2-1.9
					c-0.8-0.2-1.7-0.2-2.6-0.1c-0.8,0.1-1.7,0.4-2.4,0.9c-0.7,0.4-1.4,1-1.9,1.7C173.7,488.3,173.4,489.1,173.2,489.9z"/>
				<path class="st17" d="M1047.4,493.1c0.3,1.2,1,2.2,2,3c1,0.8,2.1,1.3,3.4,1.4c2.6,0.3,5.1-1,6.4-3.2c0.6-1.1,1-2.3,0.9-3.5
					c-0.1-1.2-0.5-2.4-1.3-3.4c-0.8-1-1.8-1.7-3-2.1c-1.2-0.4-2.5-0.4-3.7-0.1c-0.8,0.2-1.6,0.6-2.3,1.1c-0.7,0.5-1.3,1.1-1.7,1.9
					c-0.4,0.7-0.7,1.5-0.8,2.4C1047.1,491.5,1047.2,492.3,1047.4,493.1z"/>
				<path class="st17" d="M974.4,512.3c0.3,1.2,1,2.2,2,3c1,0.8,2.1,1.3,3.4,1.4c2.6,0.3,5.1-1,6.4-3.2c0.6-1.1,0.9-2.3,0.9-3.5
					c-0.1-1.2-0.5-2.4-1.3-3.4c-0.8-1-1.8-1.7-3-2.1c-2-0.7-4.3-0.3-6,1c-0.7,0.5-1.3,1.1-1.7,1.9c-0.4,0.7-0.7,1.5-0.8,2.4
					C974.1,510.6,974.2,511.5,974.4,512.3z"/>
				<path class="st17" d="M34.9,456.8c-0.3,1.2-0.2,2.4,0.1,3.5c0.3,1.1,1,2,1.8,2.7c0.8,0.6,1.9,1,2.9,1c1.1,0,2.2-0.4,3.1-1
					c1-0.7,1.7-1.6,2.2-2.7c0.5-1.1,0.7-2.3,0.6-3.5c-0.1-1.1-0.5-2.2-1.2-3.2c-0.6-0.9-1.6-1.5-2.6-1.8c-1.5-0.3-3,0-4.2,0.9
					C36.3,453.7,35.3,455.1,34.9,456.8z"/>
			</g>
		</g>
	</g>
</g>
</svg>
