<?xml version="1.0" encoding="utf-8"?>
<!-- Generator: Adobe Illustrator 25.3.1, SVG Export Plug-In . SVG Version: 6.00 Build 0)  -->
<svg version="1.1" id="圖層_1" xmlns="http://www.w3.org/2000/svg" xmlns:xlink="http://www.w3.org/1999/xlink" x="0px" y="0px"
	 viewBox="0 0 496 748" style="enable-background:new 0 0 496 748;" xml:space="preserve">
<style type="text/css">
	.st0{clip-path:url(#SVGID_2_);}
	.st1{fill:#FFB9A5;}
	.st2{clip-path:url(#SVGID_4_);}
	.st3{fill:#E19B81;}
	.st4{fill:#FFFFFF;}
	.st5{fill:#E17C57;}
	.st6{clip-path:url(#SVGID_6_);}
	.st7{fill:url(#SVGID_7_);}
	.st8{fill:#A5DAD4;}
	.st9{clip-path:url(#SVGID_9_);}
	.st10{fill:#FAE57A;}
	.st11{fill:#FCFADB;}
	.st12{clip-path:url(#SVGID_11_);}
	.st13{fill:#C4E8D9;}
	.st14{fill:#FBA47E;}
	.st15{opacity:0.1;fill:#882D26;enable-background:new    ;}
	.st16{clip-path:url(#SVGID_13_);}
	.st17{opacity:0.1;}
	.st18{fill:#CB3C2C;}
	.st19{fill:#882D26;}
</style>
<g>
	<defs>
		<rect id="SVGID_1_" width="496" height="748"/>
	</defs>
	<clipPath id="SVGID_2_">
		<use xlink:href="#SVGID_1_"  style="overflow:visible;"/>
	</clipPath>
	<g class="st0">
		<rect class="st1" width="496" height="748"/>
		<g>
			<defs>
				
					<rect id="SVGID_3_" x="243" y="242.8" transform="matrix(0.3825 -0.924 0.924 0.3825 -35.3233 533.5103)" width="276.9" height="100.7"/>
			</defs>
			<clipPath id="SVGID_4_">
				<use xlink:href="#SVGID_3_"  style="overflow:visible;"/>
			</clipPath>
			<g class="st2">
				<path class="st3" d="M422.5,224.7c0,0,17.4,5.2,16.7-9.5c-0.7-14.7-16.5-11.7-21.5-6.2S414.1,221.1,422.5,224.7z"/>
				<path class="st3" d="M434.1,237.4c0,0,6.3,1.9,6-3.4c-0.3-5.3-5.9-4.2-7.8-2.2C430.6,233.7,431.1,236.1,434.1,237.4z"/>
				<path class="st3" d="M420.6,236.9c0,0,6.3,1.9,6-3.4c-0.2-5.3-5.9-4.2-7.8-2.2C417,233.3,417.6,235.6,420.6,236.9z"/>
				<path class="st3" d="M408.1,227.8c0,0,3.5,5.5,6.8,1.3c3.3-4.2-1.7-7.1-4.4-6.7C407.8,222.7,406.7,224.8,408.1,227.8z"/>
				<path class="st3" d="M376.2,260.6c0,0,17.4,5.2,16.7-9.5c-0.7-14.7-16.5-11.7-21.5-6.2S367.8,257,376.2,260.6z"/>
				<path class="st3" d="M387.8,273.3c0,0,6.3,1.9,6-3.4c-0.3-5.3-5.9-4.2-7.8-2.2C384.3,269.6,384.8,272,387.8,273.3z"/>
				<path class="st3" d="M374.3,272.9c0,0,6.3,1.9,6-3.4c-0.2-5.3-5.9-4.2-7.8-2.2C370.7,269.2,371.2,271.5,374.3,272.9z"/>
				<path class="st3" d="M361.8,263.7c0,0,3.5,5.5,6.8,1.3c3.3-4.2-1.7-7.1-4.4-6.7C361.5,258.6,360.4,260.7,361.8,263.7z"/>
				<path class="st3" d="M390.4,314.8c0,0,17.4,5.2,16.7-9.5c-0.7-14.7-16.5-11.7-21.5-6.2C380.6,304.6,382.1,311.2,390.4,314.8z"/>
				<path class="st3" d="M402,327.4c0,0,6.3,1.9,6-3.4c-0.3-5.3-5.9-4.2-7.8-2.2C398.5,323.7,399,326.1,402,327.4z"/>
				<path class="st3" d="M388.5,327c0,0,6.3,1.9,6-3.4c-0.2-5.3-5.9-4.2-7.8-2.2C384.9,323.3,385.5,325.7,388.5,327z"/>
				<path class="st3" d="M376,317.8c0,0,3.5,5.5,6.8,1.3c3.3-4.2-1.7-7.1-4.4-6.7C375.7,312.8,374.6,314.9,376,317.8z"/>
				<path class="st3" d="M334.6,362.4c0,0,17.4,5.2,16.7-9.5c-0.7-14.7-16.4-11.7-21.5-6.2S326.2,358.7,334.6,362.4z"/>
				<path class="st3" d="M346.2,375c0,0,6.3,1.9,6-3.4c-0.2-5.3-5.9-4.2-7.8-2.2S343.2,373.7,346.2,375z"/>
				<path class="st3" d="M332.6,374.6c0,0,6.3,1.9,6-3.4c-0.2-5.3-5.9-4.2-7.8-2.2S329.6,373.3,332.6,374.6z"/>
				<path class="st3" d="M320.2,365.4c0,0,3.6,5.5,6.8,1.3s-1.8-7.1-4.5-6.8C319.7,360.3,318.7,362.4,320.2,365.4z"/>
				<path class="st3" d="M348.8,416.5c0,0,17.4,5.2,16.7-9.5c-0.7-14.7-16.4-11.7-21.5-6.2S340.4,412.9,348.8,416.5z"/>
				<path class="st3" d="M360.4,429.1c0,0,6.3,1.9,6-3.4c-0.2-5.3-5.9-4.2-7.8-2.2C356.9,425.5,357.4,427.8,360.4,429.1z"/>
				<path class="st3" d="M346.9,428.7c0,0,6.3,1.9,6-3.4c-0.2-5.3-5.9-4.2-7.8-2.2S343.9,427.4,346.9,428.7z"/>
				<path class="st3" d="M334.4,419.5c0,0,3.6,5.5,6.8,1.3c3.2-4.2-1.8-7.1-4.5-6.8C333.9,414.4,333,416.6,334.4,419.5z"/>
				<path class="st3" d="M392.6,179.7c0,0,17.4,5.2,16.7-9.5c-0.7-14.7-16.4-11.7-21.5-6.2C382.8,169.6,384.2,176.1,392.6,179.7z"/>
				<path class="st3" d="M404.2,192.4c0,0,6.3,1.9,6-3.4s-5.9-4.2-7.8-2.2C400.6,188.7,401.2,191,404.2,192.4z"/>
				<path class="st3" d="M390.7,191.9c0,0,6.3,1.9,6-3.4c-0.2-5.3-5.9-4.2-7.8-2.2C387.1,188.3,387.7,190.6,390.7,191.9z"/>
				<path class="st3" d="M378.2,182.7c0,0,3.6,5.5,6.8,1.3c3.2-4.2-1.8-7.1-4.5-6.8C377.7,177.6,376.8,179.8,378.2,182.7z"/>
			</g>
		</g>
		<path class="st4" d="M462,532.2c0,1.2-0.4,2.3-1.1,3.3c-0.7,1-1.6,1.7-2.7,2.1c-1.1,0.4-2.3,0.5-3.5,0.3c-1.2-0.2-2.2-0.8-3-1.7
			c-0.8-0.8-1.4-1.9-1.6-3.1c-0.2-1.2-0.1-2.4,0.4-3.4c0.5-1.1,1.2-2,2.2-2.7s2.1-1,3.3-1c0.8,0,1.6,0.2,2.3,0.5
			c0.7,0.3,1.4,0.8,2,1.3c0.6,0.6,1,1.3,1.3,2C461.9,530.6,462,531.3,462,532.2z"/>
		<path class="st4" d="M478,509c0,1-0.3,2-0.8,2.8c-0.5,0.8-1.3,1.5-2.2,1.8c-0.9,0.4-1.9,0.5-2.9,0.3c-1-0.2-1.9-0.7-2.6-1.4
			c-0.7-0.7-1.2-1.6-1.4-2.6c-0.2-1-0.1-2,0.3-2.9c0.4-0.9,1-1.7,1.8-2.2c0.8-0.5,1.8-0.8,2.8-0.8c1.3,0,2.6,0.5,3.5,1.5
			C477.5,506.4,478,507.7,478,509z"/>
		<path class="st4" d="M484,562c0,1.2-0.3,2.3-0.8,3.3c-0.5,1-1.3,1.8-2.2,2.2c-0.9,0.5-1.9,0.6-2.9,0.3c-1-0.2-1.9-0.8-2.6-1.6
			c-0.7-0.8-1.2-1.9-1.4-3.1c-0.2-1.2-0.1-2.4,0.3-3.5c0.4-1.1,1-2,1.8-2.7c0.8-0.7,1.8-1,2.8-1c1.3,0,2.6,0.6,3.5,1.8
			C483.5,558.9,484,560.4,484,562z"/>
		<path class="st4" d="M179,449.1c0,1.2-0.3,2.3-0.9,3.3c-0.6,1-1.4,1.7-2.3,2.1s-1.9,0.5-2.9,0.3c-1-0.2-1.8-0.8-2.5-1.7
			c-0.7-0.8-1.2-1.9-1.3-3.1c-0.2-1.2-0.1-2.4,0.3-3.4c0.4-1.1,1-2,1.8-2.7c0.8-0.7,1.8-1,2.8-1c1.3,0,2.6,0.7,3.5,1.9
			C178.5,446,179,447.5,179,449.1z"/>
		<path class="st4" d="M198,426c0,1-0.4,2-1.1,2.8c-0.7,0.8-1.7,1.5-2.9,1.8c-1.2,0.4-2.5,0.5-3.8,0.3s-2.4-0.7-3.3-1.4
			c-0.9-0.7-1.5-1.6-1.8-2.6c-0.3-1-0.1-2,0.4-2.9c0.5-0.9,1.3-1.7,2.4-2.2c1.1-0.5,2.3-0.8,3.6-0.8c1.7,0,3.4,0.5,4.6,1.5
			C197.3,423.4,198,424.7,198,426z"/>
		<path class="st4" d="M204,480.2c0,1.2-0.4,2.3-1.1,3.3c-0.7,1-1.6,1.7-2.7,2.1c-1.1,0.4-2.3,0.5-3.4,0.3c-1.1-0.2-2.2-0.8-3-1.6
			c-0.8-0.8-1.4-1.9-1.6-3c-0.2-1.1-0.1-2.3,0.3-3.4c0.4-1.1,1.2-2,2.1-2.7c1-0.7,2.1-1,3.3-1.1c0.8,0,1.6,0.2,2.4,0.5
			c0.7,0.3,1.4,0.8,2,1.3c0.6,0.6,1,1.2,1.3,2C203.8,478.5,204,479.3,204,480.2z"/>
		<path class="st4" d="M116,460.6c0,1.1-0.4,2.1-1.1,3c-0.7,0.9-1.6,1.6-2.7,2c-1.1,0.4-2.3,0.5-3.4,0.3c-1.2-0.2-2.2-0.7-3-1.5
			c-0.8-0.8-1.4-1.7-1.6-2.8c-0.2-1.1-0.1-2.1,0.3-3.1c0.4-1,1.2-1.9,2.1-2.5c1-0.6,2.1-1,3.3-1c1.6,0,3.2,0.6,4.3,1.7
			C115.4,457.7,116,459.1,116,460.6z"/>
		<path class="st4" d="M477,504.1c0,1-0.3,1.9-0.9,2.7c-0.6,0.8-1.3,1.4-2.2,1.8c-0.9,0.4-1.9,0.5-2.9,0.3c-1-0.2-1.8-0.7-2.5-1.4
			c-0.7-0.7-1.2-1.6-1.4-2.5c-0.2-1-0.1-2,0.3-2.9c0.4-0.9,1-1.7,1.8-2.2c0.8-0.6,1.8-0.9,2.7-0.9c0.7,0,1.4,0.1,2,0.4
			c0.6,0.3,1.2,0.6,1.7,1.1c0.5,0.5,0.9,1.1,1.1,1.7C476.9,502.8,477,503.4,477,504.1z"/>
		<path class="st4" d="M293,444.9c0,0.6-0.2,1.2-0.5,1.6c-0.3,0.5-0.8,0.9-1.4,1.1c-0.5,0.2-1.1,0.3-1.7,0.1
			c-0.6-0.1-1.1-0.4-1.5-0.8c-0.4-0.4-0.7-1-0.8-1.5c-0.1-0.6,0-1.2,0.2-1.7c0.2-0.5,0.6-1,1.1-1.3c0.5-0.3,1.1-0.5,1.7-0.5
			c0.4,0,0.8,0.1,1.2,0.2c0.4,0.2,0.7,0.4,1,0.7c0.3,0.3,0.5,0.6,0.6,1C292.9,444.1,293,444.5,293,444.9z"/>
		<path class="st4" d="M229,577.1c0,0.6-0.2,1.2-0.5,1.6c-0.3,0.5-0.8,0.9-1.4,1.1c-0.5,0.2-1.1,0.3-1.7,0.1
			c-0.6-0.1-1.1-0.4-1.5-0.8c-0.4-0.4-0.7-1-0.8-1.5c-0.1-0.6,0-1.2,0.2-1.7s0.6-1,1.1-1.3c0.5-0.3,1.1-0.5,1.7-0.5
			c0.4,0,0.8,0.1,1.2,0.2c0.4,0.2,0.7,0.4,1,0.7c0.3,0.3,0.5,0.6,0.6,1C228.9,576.3,229,576.7,229,577.1z"/>
		<path class="st4" d="M270,565.1c0,0.6-0.2,1.2-0.5,1.6c-0.3,0.5-0.8,0.9-1.4,1.1c-0.5,0.2-1.1,0.3-1.7,0.1
			c-0.6-0.1-1.1-0.4-1.5-0.8c-0.4-0.4-0.7-1-0.8-1.5c-0.1-0.6,0-1.2,0.2-1.7c0.2-0.5,0.6-1,1.1-1.3c0.5-0.3,1.1-0.5,1.7-0.5
			c0.4,0,0.8,0.1,1.2,0.2c0.4,0.2,0.7,0.4,1,0.7c0.3,0.3,0.5,0.6,0.6,1C269.9,564.3,270,564.7,270,565.1z"/>
		<path class="st4" d="M264,577.1c0,0.6-0.2,1.2-0.5,1.6c-0.3,0.5-0.8,0.9-1.4,1.1c-0.5,0.2-1.1,0.3-1.7,0.1
			c-0.6-0.1-1.1-0.4-1.5-0.8c-0.4-0.4-0.7-1-0.8-1.5c-0.1-0.6,0-1.2,0.2-1.7c0.2-0.5,0.6-1,1.1-1.3c0.5-0.3,1.1-0.5,1.7-0.5
			c0.4,0,0.8,0.1,1.2,0.2c0.4,0.2,0.7,0.4,1,0.7c0.3,0.3,0.5,0.6,0.6,1C263.9,576.3,264,576.7,264,577.1z"/>
		<path class="st4" d="M373,598.3c0,0.5-0.2,1-0.5,1.4c-0.3,0.4-0.8,0.7-1.3,0.9c-0.5,0.2-1.2,0.2-1.7,0.1c-0.6-0.1-1.1-0.3-1.5-0.7
			c-0.4-0.3-0.7-0.8-0.8-1.3c-0.1-0.5-0.1-1,0.2-1.4c0.2-0.5,0.6-0.8,1.1-1.1c0.5-0.3,1.1-0.4,1.7-0.4c0.8,0,1.5,0.3,2.1,0.8
			C372.7,597.1,373,597.7,373,598.3z"/>
		<path class="st4" d="M351,612.9c0,0.6-0.2,1.2-0.4,1.6c-0.3,0.5-0.7,0.9-1.1,1.1c-0.5,0.2-1,0.3-1.4,0.2c-0.5-0.1-0.9-0.4-1.3-0.8
			c-0.3-0.4-0.6-0.9-0.7-1.5c-0.1-0.6-0.1-1.2,0.1-1.7c0.2-0.5,0.5-1,0.9-1.3c0.4-0.3,0.9-0.5,1.4-0.5c0.7,0,1.3,0.3,1.8,0.9
			C350.7,611.3,351,612.1,351,612.9z"/>
		<path class="st4" d="M31,599c0,1-0.4,2-1,2.8c-0.7,0.8-1.6,1.5-2.7,1.8c-1.1,0.4-2.3,0.5-3.5,0.3c-1.2-0.2-2.2-0.7-3.1-1.4
			c-0.8-0.7-1.4-1.6-1.6-2.6c-0.2-1-0.1-2,0.4-2.9c0.5-0.9,1.3-1.7,2.3-2.2c1-0.5,2.2-0.8,3.4-0.8c0.8,0,1.6,0.1,2.3,0.4
			c0.7,0.3,1.4,0.6,1.9,1.1c0.5,0.5,1,1,1.3,1.6C30.9,597.7,31,598.4,31,599z"/>
		<path class="st4" d="M463,621.8c0,0.6-0.2,1.2-0.5,1.7c-0.3,0.5-0.8,0.9-1.3,1.1c-0.5,0.2-1.2,0.3-1.7,0.2
			c-0.6-0.1-1.1-0.4-1.5-0.8c-0.4-0.4-0.7-1-0.8-1.5c-0.1-0.6-0.1-1.2,0.2-1.7c0.2-0.5,0.6-1,1.1-1.3c0.5-0.3,1.1-0.5,1.7-0.5
			c0.8,0,1.6,0.3,2.1,0.9C462.7,620.3,463,621,463,621.8z"/>
		<path class="st5" d="M460.4,421c0,0,2-18.4-0.2-18c-2.2,0.4-10.1,15.1-10.1,15.1s-14.5-2.6-14.9-1.3s7.6,9.9,7.6,9.9
			s-9.2,11.8-7.6,12.7c1.6,0.9,14.2-6.6,14.2-6.6s7.2,14.4,9.7,14.2c2.6-0.2,1-15.3,1-15.3s12.5-2.4,13.8-4.8
			C475.3,424.5,460.4,421,460.4,421z"/>
		<path class="st5" d="M423.7,419.4c0,0,8.8-10.5,7.1-11.1c-1.7-0.6-12.2,5.3-12.2,5.3s-6.8-8.1-7.6-7.5c-0.8,0.6-0.3,9.8-0.3,9.8
			s-10.3,3.6-9.7,4.8s11.2,1.7,11.2,1.7s-1.7,11.7,0,12.7c1.7,1,6.9-9,6.9-9s8.5,3.6,10.2,2.6C431.1,427.6,423.7,419.4,423.7,419.4z
			"/>
		<g>
			<defs>
				<rect id="SVGID_5_" width="496" height="748"/>
			</defs>
			<clipPath id="SVGID_6_">
				<use xlink:href="#SVGID_5_"  style="overflow:visible;"/>
			</clipPath>
			<g class="st6">
				<path class="st3" d="M477.8,474.2c-61.2-6.5-203.4-113.3-352.8-100c-85.8,7.6-196.9,109-312.7,104.8v134.7H496V474.8
					C489.9,475.1,483.8,474.8,477.8,474.2z"/>
				<path class="st4" d="M477.8,496.2c-61.2-6.5-203.4-113.3-352.8-100c-85.8,7.7-196.9,109-312.7,104.8v134.7H496V496.9
					C489.9,497.1,483.8,496.9,477.8,496.2z"/>
				
					<linearGradient id="SVGID_7_" gradientUnits="userSpaceOnUse" x1="-120.1853" y1="227.4208" x2="597.3147" y2="183.9208" gradientTransform="matrix(1 0 0 -1 0 750)">
					<stop  offset="0" style="stop-color:#A5DAD4"/>
					<stop  offset="1" style="stop-color:#EFFBC9"/>
				</linearGradient>
				<path class="st7" d="M477.8,509.9c-61.2-6.5-203.4-113.3-352.8-100c-85.7,7.6-197,109-312.7,104.8v134.7H496V510.6
					C489.9,510.8,483.8,510.6,477.8,509.9z"/>
				<path class="st8" d="M477.8,583.9C311.5,613.7,269.3,482.9,120,489.1c-85.8,3.6-167.7,100.6-307.7,97.1V759L496,774V584.3
					C490.5,584.4,484.3,582.8,477.8,583.9z"/>
				<g>
					<defs>
						<rect id="SVGID_8_" x="370" y="93" width="162.6" height="163.2"/>
					</defs>
					<clipPath id="SVGID_9_">
						<use xlink:href="#SVGID_8_"  style="overflow:visible;"/>
					</clipPath>
					<g class="st9">
						<path class="st3" d="M468.1,93c0,0,62,39.8,61.2,44.5c0,0-90.3,113.2-97.1,118.4c0,0-46.4-31.6-62.2-44.4
							C370,211.4,454.2,103.9,468.1,93z"/>
						<path class="st10" d="M471.5,93.4c0,0,61.9,39.9,61.1,44.6c0,0-90.5,113-97.3,118.2c0,0-46.3-31.6-62.1-44.5
							C373.2,211.6,457.5,104.3,471.5,93.4z"/>
						<path class="st11" d="M525.7,146.5c-16.2-13.3-53-39.2-62-45.5c-2.9,3.1-6.3,7-10,11.3c16.1,11,53,37.6,63.3,45L525.7,146.5z"
							/>
						<path class="st11" d="M498.6,180.1l8.6-10.6c-16.4-13.4-48.1-36.5-62.3-46.8c-3,3.6-6.1,7.4-9.4,11.2
							C454.2,147.3,486.5,171.2,498.6,180.1z"/>
						<path class="st11" d="M489.3,191.7c-16.8-13.7-48.9-37-62.6-46.9c-3.1,3.8-6.2,7.6-9.2,11.4c18.3,13.1,50.5,36.9,63.1,46.2
							L489.3,191.7z"/>
						<path class="st11" d="M407.8,168.1c-3.2,3.9-6.2,7.8-9.1,11.4c17.4,12.4,49.1,35.8,62.9,46c2.8-3.4,5.8-7,8.8-10.6
							C452.6,200.6,420.2,177.1,407.8,168.1z"/>
						<path class="st11" d="M451.6,237.6c-17.2-13.9-48.9-37-62.1-46.5c-3.5,4.4-6.6,8.3-9.1,11.5c17.7,12.7,49,35.7,62.3,45.6
							C445.2,245.2,448.2,241.7,451.6,237.6z"/>
					</g>
				</g>
				<g>
					<defs>
						<rect id="SVGID_10_" x="270" y="-62" width="263" height="237"/>
					</defs>
					<clipPath id="SVGID_11_">
						<use xlink:href="#SVGID_10_"  style="overflow:visible;"/>
					</clipPath>
					<g class="st12">
						<path class="st11" d="M401.5-62v237c0,0-41.7-21.6-87.7-28.8c0,0-12.3-69-43.8-89.7c0,0,47-44.6,47-82.5
							C317-26,371.3-30.5,401.5-62z"/>
						<path class="st11" d="M401.5-62v237c0,0,41.7-21.6,87.7-28.8c0,0,12.3-69,43.8-89.7c0,0-47-44.6-47-82.5
							C486-26,426.2-30.1,401.5-62z"/>
						<path class="st13" d="M313.8,146.2l87.7-89.7V175C401.5,175,345.5,149.8,313.8,146.2z"/>
						<path class="st14" d="M270,56.5h131.5L317-26C317-26,297.5,27.3,270,56.5z"/>
						<path class="st13" d="M485-26l-84.5,82.5V-62C400.5-62,439.3-31.8,485-26z"/>
						<path class="st14" d="M401.5,56.5l87.7,89.7c0,0,23.2-73.4,43.8-89.7l-130.2,1.3"/>
						<path class="st15" d="M317-26c0,0-7.7,168.7,172.1,172.1c0,0-37.6,4.2-87.7,28.8c0,0-49.8-22.3-87.7-28.8
							c0,0-11.5-67.1-43.8-89.7C270,56.5,299.1,26.6,317-26z"/>
					</g>
				</g>
				<g>
					<defs>
						
							<rect id="SVGID_12_" x="97" y="-112.9" transform="matrix(2.145890e-02 -0.9998 0.9998 2.145890e-02 199.8036 269.3169)" width="281" height="291"/>
					</defs>
					<clipPath id="SVGID_13_">
						<use xlink:href="#SVGID_12_"  style="overflow:visible;"/>
					</clipPath>
					<g class="st16">
						<g class="st17">
							<path class="st18" d="M259.8-40.3c-1-1.4-7.9-10.1-15-12.7c-7.7-2.9-35.6-14.9-50.4-12.5c0,0,9.1,14.8,34.9,22.3
								c20.9,6.1,28,4.3,30,3.4c1.2,0.3,2.3,0.5,3.3,0.7c-7.1,3.6-14.1,7.1-20.9,10.3c-0.9-0.3-2.1-0.7-3.8-1.3
								c-0.9-1.3-7.7-10.2-14.7-13c-7.6-3-35.3-15.6-50-13.3c0,0,8.8,15,34.3,23c20.7,6.5,27.9,4.8,29.9,3.9c1.5,0.4,2.8,0.7,4,0.9
								c-5.6,2.7-11,5.3-16.3,7.7c-0.8-0.2-2-0.5-3.6-0.9c-1-1.1-7.6-8.2-14-10.1c-6.9-2-32.3-10.8-45-7.8c0,0,6.2,8.3,21.4,14
								c-10.6-3-35.1-10.1-47.9-6.9c0,0,10.6,13.5,36.8,18.6c21.3,4.1,28.1,1.7,29.9,0.6c1.7,0.3,3.3,0.5,4.6,0.5
								c-7.9,3.6-15.3,6.8-22,9.7l-0.3,0.1c-0.7-0.2-2-0.4-3.8-0.8c-1-1-7.7-7.8-13.9-9.4c-6.8-1.8-31.7-9.7-44-6.6
								c0,0,9.2,11.6,31.7,15.9c18.4,3.5,24.3,1.5,25.8,0.6c1.5,0.2,2.8,0.4,3.9,0.4C157.7,8.8,140.7,15,140.7,15l1,0.6
								c-0.4,0.1-1.1,0.2-1.9,0.3c0.3-0.3,0.7-0.6,1-0.9l-1.4,1l-0.6,0.1c-1-0.4-8.1-2.9-13.1-2.2c-5.4,0.7-25.7,2.5-33.3,7.8
								c0,0,10.4,4.9,27.9,1.5c0.4-0.1,0.7-0.1,1.1-0.2c-6.9,4.2-20.2,12.6-23.8,19c0,0,12.4-0.6,26.8-11
								c11.7-8.4,13.4-12.3,13.6-13.5c0.5-0.4,0.9-0.7,1.4-1.1c1-0.2,1.8-0.5,2.5-0.7l0.1,0.1c3-1.1,6.1-2.2,9.2-3.3
								c-0.8,0.7-1.7,1.6-2.6,2.7c-1.5,0.3-6.6,2.2-17.3,15C118.1,45.8,118,58.9,118,58.9c10-4.8,22.8-24.3,26.5-29.3
								c3.4-4.7,4.4-13,4.6-14.3c1.2-1.5,1.9-2.5,2.3-2.9c10.4-3.8,21.1-8.1,31.8-12.6l-0.8,1.1c-1.7,0.5-7.2,3.5-17.1,19.4
								c-12.1,19.6-9.8,34.2-9.8,34.2c10.6-7,21.7-30.6,25-36.8c3-5.7,2.6-15.2,2.5-16.7l0.9-1.5c7.6-3.2,15.2-6.4,22.8-9.8
								c-0.6,0.8-1.3,1.8-2,2.8c-2,0.6-8.4,4-19.7,22.4c-13.9,22.7-11.3,39.7-11.3,39.7c12.3-8,25-35.5,28.8-42.7
								c-7.4,16.5-5.2,27.8-5.2,27.8c10.5-7.1,21.4-31.7,24.5-38.2c3-6,2.2-15.7,2.1-17.2l1.7-3.1c13.3-6.1,26.3-12.4,38.8-18.6
								c-0.6,1-1.3,2.1-2,3.4c-2,0.8-8.2,4.8-17.8,24.4c-11.9,24-7.2,40.8-7.2,40.8C247.8,23.2,256.8,0,261-10.7
								c-7.1,19.2-3.7,31.9-3.7,31.9c11.8-9.2,22.2-37.8,25.4-45.4c2.9-7,1.3-18,1-19.7l2-4.2c15.3-7.7,29.2-15.1,41.2-21.6
								c-0.4,1.1-0.8,2.4-1.1,3.9c-1.8,1.2-6.9,6.3-11.1,26.8C309.4-13.6,318.7,1,318.7,1c9.2-11.2,11.4-40.4,12.4-48.2
								c0.9-7.2-3.9-17.2-4.6-18.6l0.7-3.9c25.8-13.9,42.4-23.4,42.4-23.4C370.4-98,367-99,367-99c-14.2,9.3-28.5,18.1-42.7,26.4
								c-0.5-0.1-1-0.3-1.6-0.5c-1-1.3-8.2-9.9-15.4-12.4c-7.8-2.7-36.1-14.1-50.9-11.4c0,0,9.5,14.6,35.6,21.5
								c21.1,5.7,28.2,3.7,30.2,2.7c0.5,0.1,1,0.2,1.4,0.3c-6.7,3.9-13.3,7.7-19.9,11.4l-3.2-0.8c-1.1-1.2-8.7-9.6-16-11.7
								c-7.9-2.4-37-12.7-51.6-9.5c0,0,10.2,14.1,36.7,20.2c21.4,4.9,28.5,2.7,30.4,1.7c1.2,0.2,2.3,0.4,3.2,0.5
								c-7.2,4-14.3,7.9-21.4,11.6c-0.8-0.3-2-0.6-3.4-1.1c-1-1.4-8-10-15.1-12.6c-7.7-2.9-35.9-14.5-50.6-12c0,0,9.3,14.7,35.2,22
								c21,6,28.2,4,30.1,3.1c1.2,0.3,2.4,0.6,3.4,0.7c-6.2,3.3-12.4,6.5-18.4,9.6C262.2-39.5,261.1-39.8,259.8-40.3z M203-13.6
								c-3.8-3.9-8.1-7.3-13-9.8c1.4,0.4,3,0.8,4.5,1.1c18.7,4.1,24.9,2.1,26.5,1.2c1.4,0.2,2.6,0.4,3.6,0.5
								c-6,2.8-11.8,5.5-17.3,7.9C206.6-12.7,205.1-13.1,203-13.6z M223.2-15.7c-1.8,0.6-7.4,3.7-17.1,20.3
								c-1.2,2.1-2.3,4.1-3.2,6.1c2.8-6.7,2.3-16.4,2.2-17.9l1.9-3.1c6.1-2.7,12.2-5.5,18.3-8.3C224.6-17.8,224-16.8,223.2-15.7z
								 M283-43.8c-2,0.8-8.2,4.7-18,24.2c-1.1,2.2-2.1,4.3-2.9,6.4l0.4-1.1c2.8-7,1.1-18,0.8-19.7l1.6-3.6
								c7.1-3.5,13.9-6.9,20.6-10.3C284.5-46.5,283.7-45.2,283-43.8z"/>
							<path class="st19" d="M137.7,3.8c16,3,21.1,1.3,22.4,0.5c1.4,0.2,2.8,0.4,4.2,0.4c0,0-1.3-0.3-3.9-0.9
								c-0.8-0.9-6.7-6.8-12.1-8.2c-5.9-1.6-27.6-8.4-38.3-5.7C110.1-10.1,118.1,0,137.7,3.8z"/>
							<path class="st19" d="M304.5-52.9c0.7-3.3,1.1-5.1,1.1-5.1c-0.8,1.7-1.4,3.4-1.9,5.2c-1.8,1.1-7.1,6.1-12.2,26.5
								c-6.3,25.1,2.3,40.2,2.3,40.2c9.6-11,13.1-40.2,14.5-48C309.5-41.3,305.1-51.4,304.5-52.9z"/>
							<path class="st19" d="M223.5,2.3c-11.4,24.2-6.3,40.8-6.3,40.8c11.6-9.3,21.1-38.2,24-45.8c2.7-7,0.7-18,0.4-19.6
								c1.4-3.2,2.2-4.9,2.2-4.9c-1.1,1.6-2.1,3.2-2.9,4.9C238.9-21.5,232.7-17.4,223.5,2.3z"/>
							<path class="st19" d="M163.8,10.6c1.3-2.3,2-3.5,2-3.5c-0.9,1.1-1.8,2.2-2.5,3.4c-1.5,0.5-6.3,3-14.8,16.9
								c-10.5,17-8.5,29.7-8.5,29.7c9.2-6,18.9-26.6,21.7-32C164.3,20,163.9,11.8,163.8,10.6z"/>
							<path class="st19" d="M125.5,13.1c16.6,0.8,21.5-1.6,22.7-2.6c1.4,0,2.9,0,4.3-0.2c0,0-1.4,0-4-0.3c-1-0.7-7.9-5.7-13.6-6.3
								c-6.2-0.7-29.2-4.4-39.5-0.4C95.3,3.4,105,12.1,125.5,13.1z"/>
						</g>
						<g class="st17">
							<path class="st19" d="M311.8,7.5c-1.6-0.4-12.5-3-19.6-0.7c-7.8,2.5-37.2,10.5-47.2,21.6c0,0,16.3,5.9,41.2-4.2
								c20.2-8.2,24.6-14.1,25.6-16c1.1-0.5,2.1-1,3-1.4c-3.3,7.3-6.6,14.3-9.9,21.1l-3.8,1.3c-1.6-0.5-12.4-3.3-19.7-1.1
								c-7.8,2.4-37.2,9.8-47.5,20.6c0,0,16.2,6.3,41.2-3.4C295.5,37.7,300,31.9,301,30c1.4-0.6,2.6-1.2,3.7-1.7
								c-2.7,5.6-5.4,11.1-7.9,16.3l-3.3,1.5c-1.4-0.2-11.1-1.7-17.3,0.8c-6.7,2.7-32,11.7-40.1,21.9c0,0,10,2.7,25.5-2.3
								c-10.2,4.2-33.8,13.9-41.8,24.4c0,0,16.7,4,40.4-8.3c19.2-10,23.1-16.1,23.9-18c1.5-0.9,2.8-1.7,3.9-2.4
								c-4,7.7-7.7,14.8-11.2,21.3l-0.2,0.3c-0.7,0.3-1.8,0.9-3.5,1.7c-1.3-0.2-10.8-1.3-16.8,1.3c-6.4,2.8-30.9,12.1-38.6,22.2
								c0,0,14.4,3.4,34.8-7.3C269,93,272.4,87.7,273,86c1.4-0.7,2.4-1.4,3.3-2.1c-13.9,25.8-23.3,41.2-23.3,41.2l1.1-0.2l-1.3,1.5
								c0.1-0.5,0.2-0.9,0.2-1.3l-0.5,1.6l-0.4,0.5c-1,0.3-8.1,2.8-11.6,6.4c-3.8,4-18.6,17.9-21.3,26.8c0,0,11.2-2.7,22.7-16.2
								l0.8-0.8c-2.8,7.6-8,22.4-6.8,29.6c0,0,9.3-8.2,14.2-25.3c4-14,2.8-18,2.3-19.1c0.2-0.6,0.3-1.2,0.4-1.7
								c0.6-0.8,1.1-1.5,1.6-2.1l0.1,0c1.7-2.7,3.4-5.5,5.1-8.3c-0.2,1.2-0.3,2.5-0.4,3.8c-1,1.2-3.8,5.8-4.2,22.5
								c-0.4,20.5,7.4,30.8,7.4,30.8c4.8-10,2.8-33.2,2.5-39.5c-0.2-5.8-4.6-13-5.3-14l0-3.7c5.8-9.5,11.5-19.5,17.1-29.6l0.1,1.3
								c-1,1.5-3.5,7.2-1.3,25.8c2.7,22.9,13.6,32.8,13.6,32.8c4-12-2.1-37.5-3.4-44.4c-1.2-6.4-7.5-13.5-8.4-14.6l-0.2-1.7
								c4-7.2,7.9-14.5,11.7-21.8c0,1,0.1,2.2,0.2,3.4c-1.2,1.7-4,8.4-1.5,29.9c3.2,26.5,15.8,38,15.8,38c4.6-13.9-2.5-43.4-4-51.4
								c4.4,17.5,13.2,25,13.2,25c3.8-12.5-3-38.4-4.5-45.5c-1.4-6.5-8-13.6-9.1-14.7l-0.6-3.5c6.6-13.1,12.9-26.1,18.9-38.7
								c0.1,1.2,0.3,2.5,0.6,3.9c-1,2-3.3,8.9,1.3,30.3c5.6,26.3,19.7,36.4,19.7,36.4c3.1-12.8-4.3-36.7-7.6-47.5
								c6.3,19.5,16.9,27.3,16.9,27.3c3.6-14.5-6.1-43.4-8.3-51.3c-2-7.3-10.2-14.9-11.4-16l-1.1-4.6c7.1-15.6,13.5-30,18.9-42.5
								c0.4,1.1,0.9,2.3,1.5,3.7c-0.6,2-1.4,9.2,8,27.9c11.6,23,28,28.7,28,28.7c0.2-14.5-16.2-38.8-20.3-45.5
								c-3.7-6.2-13.7-11.1-15.2-11.7l-1.9-3.5c11.6-26.9,18.6-44.7,18.6-44.7c-2.4-4.4-5.7-3-5.7-3c-5.3,16.1-11.1,31.9-17,47.2
								l-1.6,0.6c-1.6-0.4-12.6-2.7-19.7-0.1c-7.7,2.7-37.1,11.5-46.9,22.7c0,0,16.5,5.5,41.3-5.2c20.1-8.7,24.4-14.7,25.3-16.7
								l1.4-0.6c-2.8,7.2-5.7,14.3-8.5,21.3c-0.8,0.3-1.8,0.8-3.1,1.4c-1.6-0.3-12.7-2.1-19.8,0.7c-7.7,3-36.8,13-46.3,24.6
								c0,0,16.8,4.7,41.3-7c19.9-9.5,24-15.6,24.9-17.6c1.1-0.5,2-1.1,2.9-1.6c-3.1,7.6-6.3,15.1-9.5,22.4
								c-0.8,0.3-1.9,0.7-3.3,1.3c-1.6-0.4-12.5-2.9-19.7-0.4c-7.8,2.6-37.2,10.8-47.2,22c0,0,16.4,5.7,41.2-4.6
								c20.2-8.4,24.5-14.3,25.5-16.3c1.2-0.5,2.2-1,3.1-1.5c-2.8,6.5-5.7,12.8-8.5,19C314.2,6.6,313.1,7,311.8,7.5z M283.9,63.8
								c-1.3-0.2-9.6-1.2-16.2,0.4c1.4-0.6,2.8-1.3,4.2-1.9c17.2-8.5,20.8-13.9,21.5-15.6c1.2-0.6,2.3-1.3,3.2-1.8
								c-2.9,5.9-5.8,11.6-8.6,17C287.2,62.2,285.9,62.8,283.9,63.8z M298.4,49.5c-1,1.6-3.4,7.5-0.7,26.5c0.3,2.4,0.8,4.6,1.2,6.8
								c-2-7-8.4-14.2-9.4-15.4l-0.5-3.6c3.2-5.9,6.2-11.9,9.2-17.8C298.2,47,298.3,48.2,298.4,49.5z M327.8-9.6
								c-1.1,1.9-3.5,8.8,0.9,30.2c0.5,2.4,1.1,4.7,1.7,6.8l-0.3-1.2c-2.1-7.3-10.4-14.8-11.6-15.9c-0.4-1.7-0.7-3-1-3.9
								c3.4-7.1,6.6-14.1,9.7-20.9C327.3-12.7,327.5-11.2,327.8-9.6z"/>
							<path class="st19" d="M243.6,117.9c14.4-7.5,17.3-12.2,17.9-13.5c1.2-0.7,2.4-1.5,3.5-2.4c0,0-1.2,0.6-3.6,1.8
								c-1.2-0.2-9.4-1.2-14.6,1.1c-5.6,2.4-26.8,10.5-33.5,19.3C213.4,124.2,225.8,127.2,243.6,117.9z"/>
							<path class="st19" d="M338.9-30.2c-1.5-3-2.3-4.7-2.3-4.7c0.4,1.8,1,3.5,1.8,5.2c-0.6,2-1.8,9.2,6.9,28.4
								c10.7,23.6,26.9,30,26.9,30c0.8-14.5-14.7-39.6-18.5-46.5C350.1-24.1,340.4-29.4,338.9-30.2z"/>
							<path class="st19" d="M309.8,63.4c6.2,26.1,20.4,35.9,20.4,35.9c3.2-14.6-7.2-43.1-9.7-50.8c-2.2-7.2-10.6-14.5-11.9-15.6
								c-0.9-3.4-1.4-5.2-1.4-5.2c0.1,1.9,0.4,3.8,0.8,5.6C307.1,35.3,304.9,42.3,309.8,63.4z"/>
							<path class="st19" d="M268.2,107l-0.5-4c-0.1,1.4,0,2.8,0.1,4.3c-0.9,1.3-3,6.3-1.1,22.4c2.3,19.9,11.8,28.5,11.8,28.5
								c3.5-10.5-1.8-32.6-2.9-38.6C274.5,114.2,269,107.9,268.2,107z"/>
							<path class="st19" d="M239.8,132.9c13.5-9.7,15.8-14.6,16.2-16.1c1.2-0.9,2.3-1.8,3.3-2.8c0,0-1.2,0.8-3.4,2.3
								c-1.3,0-9.7,0.5-14.6,3.5c-5.3,3.3-25.6,14.7-31.2,24.3C210.1,144,223.2,144.8,239.8,132.9z"/>
						</g>
					</g>
				</g>
				<path class="st4" d="M462,532.2c0,1.2-0.4,2.3-1.1,3.3c-0.7,1-1.6,1.7-2.7,2.1c-1.1,0.4-2.3,0.5-3.5,0.3c-1.2-0.2-2.2-0.8-3-1.7
					c-0.8-0.8-1.4-1.9-1.6-3.1c-0.2-1.2-0.1-2.4,0.4-3.4c0.5-1.1,1.2-2,2.2-2.7s2.1-1,3.3-1c0.8,0,1.6,0.2,2.3,0.5
					c0.7,0.3,1.4,0.8,2,1.3c0.6,0.6,1,1.3,1.3,2C461.9,530.6,462,531.3,462,532.2z"/>
				<path class="st4" d="M478,509c0,1-0.3,2-0.8,2.8c-0.5,0.8-1.3,1.5-2.2,1.8c-0.9,0.4-1.9,0.5-2.9,0.3c-1-0.2-1.9-0.7-2.6-1.4
					c-0.7-0.7-1.2-1.6-1.4-2.6c-0.2-1-0.1-2,0.3-2.9c0.4-0.9,1-1.7,1.8-2.2c0.8-0.5,1.8-0.8,2.8-0.8c1.3,0,2.6,0.5,3.5,1.5
					C477.5,506.4,478,507.7,478,509z"/>
				<path class="st4" d="M484,562c0,1.2-0.3,2.3-0.8,3.3c-0.5,1-1.3,1.8-2.2,2.2c-0.9,0.5-1.9,0.6-2.9,0.3c-1-0.2-1.9-0.8-2.6-1.6
					c-0.7-0.8-1.2-1.9-1.4-3.1c-0.2-1.2-0.1-2.4,0.3-3.5c0.4-1.1,1-2,1.8-2.7c0.8-0.7,1.8-1,2.8-1c1.3,0,2.6,0.6,3.5,1.8
					C483.5,558.9,484,560.4,484,562z"/>
				<path class="st4" d="M179,449.1c0,1.2-0.3,2.3-0.9,3.3c-0.6,1-1.4,1.7-2.3,2.1s-1.9,0.5-2.9,0.3c-1-0.2-1.8-0.8-2.5-1.7
					c-0.7-0.8-1.2-1.9-1.3-3.1c-0.2-1.2-0.1-2.4,0.3-3.4c0.4-1.1,1-2,1.8-2.7c0.8-0.7,1.8-1,2.8-1c1.3,0,2.6,0.7,3.5,1.9
					C178.5,446,179,447.5,179,449.1z"/>
				<path class="st4" d="M198,426c0,1-0.4,2-1.1,2.8c-0.7,0.8-1.7,1.5-2.9,1.8c-1.2,0.4-2.5,0.5-3.8,0.3s-2.4-0.7-3.3-1.4
					c-0.9-0.7-1.5-1.6-1.8-2.6c-0.3-1-0.1-2,0.4-2.9c0.5-0.9,1.3-1.7,2.4-2.2c1.1-0.5,2.3-0.8,3.6-0.8c1.7,0,3.4,0.5,4.6,1.5
					C197.3,423.4,198,424.7,198,426z"/>
				<path class="st4" d="M204,480.2c0,1.2-0.4,2.3-1.1,3.3c-0.7,1-1.6,1.7-2.7,2.1c-1.1,0.4-2.3,0.5-3.4,0.3c-1.1-0.2-2.2-0.8-3-1.6
					c-0.8-0.8-1.4-1.9-1.6-3c-0.2-1.1-0.1-2.3,0.3-3.4c0.4-1.1,1.2-2,2.1-2.7c1-0.7,2.1-1,3.3-1.1c0.8,0,1.6,0.2,2.4,0.5
					c0.7,0.3,1.4,0.8,2,1.3c0.6,0.6,1,1.2,1.3,2C203.8,478.5,204,479.3,204,480.2z"/>
				<path class="st4" d="M116,460.6c0,1.1-0.4,2.1-1.1,3c-0.7,0.9-1.6,1.6-2.7,2c-1.1,0.4-2.3,0.5-3.4,0.3c-1.2-0.2-2.2-0.7-3-1.5
					c-0.8-0.8-1.4-1.7-1.6-2.8c-0.2-1.1-0.1-2.1,0.3-3.1c0.4-1,1.2-1.9,2.1-2.5c1-0.6,2.1-1,3.3-1c1.6,0,3.2,0.6,4.3,1.7
					C115.4,457.7,116,459.1,116,460.6z"/>
				<path class="st4" d="M477,504.1c0,1-0.3,1.9-0.9,2.7c-0.6,0.8-1.3,1.4-2.2,1.8c-0.9,0.4-1.9,0.5-2.9,0.3c-1-0.2-1.8-0.7-2.5-1.4
					c-0.7-0.7-1.2-1.6-1.4-2.5c-0.2-1-0.1-2,0.3-2.9c0.4-0.9,1-1.7,1.8-2.2c0.8-0.6,1.8-0.9,2.7-0.9c0.7,0,1.4,0.1,2,0.4
					c0.6,0.3,1.2,0.6,1.7,1.1c0.5,0.5,0.9,1.1,1.1,1.7C476.9,502.8,477,503.4,477,504.1z"/>
				<path class="st4" d="M293,444.9c0,0.6-0.2,1.2-0.5,1.6c-0.3,0.5-0.8,0.9-1.4,1.1c-0.5,0.2-1.1,0.3-1.7,0.1
					c-0.6-0.1-1.1-0.4-1.5-0.8c-0.4-0.4-0.7-1-0.8-1.5c-0.1-0.6,0-1.2,0.2-1.7c0.2-0.5,0.6-1,1.1-1.3c0.5-0.3,1.1-0.5,1.7-0.5
					c0.4,0,0.8,0.1,1.2,0.2c0.4,0.2,0.7,0.4,1,0.7c0.3,0.3,0.5,0.6,0.6,1C292.9,444.1,293,444.5,293,444.9z"/>
				<path class="st4" d="M229,577.1c0,0.6-0.2,1.2-0.5,1.6c-0.3,0.5-0.8,0.9-1.4,1.1c-0.5,0.2-1.1,0.3-1.7,0.1
					c-0.6-0.1-1.1-0.4-1.5-0.8c-0.4-0.4-0.7-1-0.8-1.5c-0.1-0.6,0-1.2,0.2-1.7s0.6-1,1.1-1.3c0.5-0.3,1.1-0.5,1.7-0.5
					c0.4,0,0.8,0.1,1.2,0.2c0.4,0.2,0.7,0.4,1,0.7c0.3,0.3,0.5,0.6,0.6,1C228.9,576.3,229,576.7,229,577.1z"/>
				<path class="st4" d="M270,565.1c0,0.6-0.2,1.2-0.5,1.6c-0.3,0.5-0.8,0.9-1.4,1.1c-0.5,0.2-1.1,0.3-1.7,0.1
					c-0.6-0.1-1.1-0.4-1.5-0.8c-0.4-0.4-0.7-1-0.8-1.5c-0.1-0.6,0-1.2,0.2-1.7c0.2-0.5,0.6-1,1.1-1.3c0.5-0.3,1.1-0.5,1.7-0.5
					c0.4,0,0.8,0.1,1.2,0.2c0.4,0.2,0.7,0.4,1,0.7c0.3,0.3,0.5,0.6,0.6,1C269.9,564.3,270,564.7,270,565.1z"/>
				<path class="st4" d="M264,577.1c0,0.6-0.2,1.2-0.5,1.6c-0.3,0.5-0.8,0.9-1.4,1.1c-0.5,0.2-1.1,0.3-1.7,0.1
					c-0.6-0.1-1.1-0.4-1.5-0.8c-0.4-0.4-0.7-1-0.8-1.5c-0.1-0.6,0-1.2,0.2-1.7c0.2-0.5,0.6-1,1.1-1.3c0.5-0.3,1.1-0.5,1.7-0.5
					c0.4,0,0.8,0.1,1.2,0.2c0.4,0.2,0.7,0.4,1,0.7c0.3,0.3,0.5,0.6,0.6,1C263.9,576.3,264,576.7,264,577.1z"/>
				<path class="st4" d="M373,598.3c0,0.5-0.2,1-0.5,1.4c-0.3,0.4-0.8,0.7-1.3,0.9c-0.5,0.2-1.2,0.2-1.7,0.1
					c-0.6-0.1-1.1-0.3-1.5-0.7c-0.4-0.3-0.7-0.8-0.8-1.3c-0.1-0.5-0.1-1,0.2-1.4c0.2-0.5,0.6-0.8,1.1-1.1c0.5-0.3,1.1-0.4,1.7-0.4
					c0.8,0,1.5,0.3,2.1,0.8C372.7,597.1,373,597.7,373,598.3z"/>
				<path class="st4" d="M351,612.9c0,0.6-0.2,1.2-0.4,1.6c-0.3,0.5-0.7,0.9-1.1,1.1c-0.5,0.2-1,0.3-1.4,0.2
					c-0.5-0.1-0.9-0.4-1.3-0.8c-0.3-0.4-0.6-0.9-0.7-1.5c-0.1-0.6-0.1-1.2,0.1-1.7c0.2-0.5,0.5-1,0.9-1.3c0.4-0.3,0.9-0.5,1.4-0.5
					c0.7,0,1.3,0.3,1.8,0.9C350.7,611.3,351,612.1,351,612.9z"/>
				<path class="st4" d="M31,599c0,1-0.4,2-1,2.8c-0.7,0.8-1.6,1.5-2.7,1.8c-1.1,0.4-2.3,0.5-3.5,0.3c-1.2-0.2-2.2-0.7-3.1-1.4
					c-0.8-0.7-1.4-1.6-1.6-2.6c-0.2-1-0.1-2,0.4-2.9c0.5-0.9,1.3-1.7,2.3-2.2c1-0.5,2.2-0.8,3.4-0.8c0.8,0,1.6,0.1,2.3,0.4
					c0.7,0.3,1.4,0.6,1.9,1.1c0.5,0.5,1,1,1.3,1.6C30.9,597.7,31,598.4,31,599z"/>
				<path class="st4" d="M463,621.8c0,0.6-0.2,1.2-0.5,1.7c-0.3,0.5-0.8,0.9-1.3,1.1c-0.5,0.2-1.2,0.3-1.7,0.2
					c-0.6-0.1-1.1-0.4-1.5-0.8c-0.4-0.4-0.7-1-0.8-1.5c-0.1-0.6-0.1-1.2,0.2-1.7c0.2-0.5,0.6-1,1.1-1.3c0.5-0.3,1.1-0.5,1.7-0.5
					c0.8,0,1.6,0.3,2.1,0.9C462.7,620.3,463,621,463,621.8z"/>
			</g>
		</g>
	</g>
</g>
</svg>
