<svg width="629" height="626" viewBox="0 0 629 626" fill="none" xmlns="http://www.w3.org/2000/svg">
<path d="M621.564 181.872L333.225 15.6058C332.731 15.2719 332.161 15.0684 331.567 15.0145C330.974 14.9605 330.376 15.0579 329.83 15.2974L322.6 18.0736L326.303 21.8193L260.567 218.58C259.421 222.413 261.361 226.027 266.475 228.715L555.079 393.791L553.315 398.506L560.59 395.686C561.348 395.338 562.018 394.824 562.552 394.184C563.086 393.544 563.47 392.792 563.676 391.984L627.12 192.888C628.751 187.16 626.194 184.383 621.564 181.872Z" fill="white"/>
<path d="M614.422 184.648C618.831 187.116 621.609 189.892 620.022 195.621L556.578 394.716C555.3 398.11 553.227 399.432 550.626 398.065L259.333 231.447C254.219 228.803 252.279 225.19 253.425 221.356L320.087 21.6871C321.013 17.9855 323.702 16.8838 326.039 18.338L614.422 184.648Z" fill="#DBDBDB"/>
<path d="M601.945 196.678L544.983 375.503L536.165 370.391L458.084 325.795L445.254 318.48L442.036 316.673L430.881 310.239L422.064 305.216L403.502 294.596L394.993 289.748L390.584 287.324L381.767 282.345L371.097 276.264L367.879 274.457L355.269 267.23L352.271 265.247L281.73 225.101L278.776 223.383L271.854 219.461L331.506 40.9004L601.945 196.678Z" fill="#8191F7"/>
<g filter="url(#filter0_d_301_3451)">
<path d="M599.785 197.692L544.013 372.815L533.961 367.042L457.555 323.371L444.858 316.233L441.727 314.426L430.793 308.124L421.976 303.233L403.811 292.833L395.478 288.074L391.334 285.694L383.133 280.67L372.508 274.545L369.378 272.782L356.989 265.687L353.903 263.925L285.125 224.617L282.082 222.854L274.058 218.447L332.52 43.5444L599.785 197.692Z" fill="url(#paint0_linear_301_3451)"/>
</g>
<path d="M549.92 404.323L355.931 516.122C354.096 517.037 352.073 517.514 350.023 517.514C347.972 517.514 345.95 517.037 344.115 516.122L52.469 349.504C51.7925 349.209 51.2069 348.739 50.7729 348.142C50.3388 347.546 50.072 346.844 50 346.11V352.853C50.0634 353.583 50.3219 354.284 50.7484 354.881C51.1749 355.477 51.7539 355.949 52.4249 356.246L343.895 523.04C345.729 523.956 347.752 524.432 349.802 524.432C351.853 524.432 353.876 523.956 355.71 523.04L549.7 411.242C550.37 410.956 550.95 410.494 551.378 409.904C551.805 409.314 552.063 408.618 552.125 407.893V400.974C552.049 401.667 551.809 402.332 551.426 402.914C551.043 403.496 550.527 403.979 549.92 404.323Z" fill="#D1D3D4"/>
<path d="M549.876 397.581C550.577 397.825 551.184 398.28 551.613 398.884C552.043 399.488 552.274 400.211 552.274 400.952C552.274 401.693 552.043 402.416 551.613 403.02C551.184 403.624 550.577 404.08 549.876 404.323L355.887 516.122C354.052 517.037 352.029 517.514 349.979 517.514C347.928 517.514 345.906 517.037 344.071 516.122L52.4689 349.504C49.2063 347.653 49.2063 344.612 52.4689 342.717L246.459 230.963C248.293 230.047 250.316 229.571 252.367 229.571C254.417 229.571 256.44 230.047 258.274 230.963L549.876 397.581Z" fill="#F1F2F2"/>
<path d="M272.295 249.162L256.688 258.152L241.036 249.162L256.599 240.173L272.295 249.162Z" fill="white"/>
<path d="M292.179 260.532L276.571 269.521L260.876 260.532L276.483 251.586L292.179 260.532Z" fill="white"/>
<path d="M312.063 271.901L296.455 280.891L280.76 271.901L296.367 262.911L312.063 271.901Z" fill="white"/>
<path d="M331.903 283.27L316.34 292.26L300.644 283.27L316.251 274.281L331.903 283.27Z" fill="white"/>
<path d="M351.786 294.64L336.223 303.629L320.528 294.64L336.135 285.65L351.786 294.64Z" fill="white"/>
<path d="M371.715 306.009L356.107 314.999L340.368 306.009L355.975 297.019L371.715 306.009Z" fill="white"/>
<path d="M391.554 317.378L375.991 326.368L360.251 317.378L375.859 308.388L391.554 317.378Z" fill="white"/>
<path d="M411.439 328.748L395.831 337.737L380.136 328.748L395.743 319.758L411.439 328.748Z" fill="white"/>
<path d="M431.322 340.117L415.715 349.107L400.019 340.117L415.627 331.127L431.322 340.117Z" fill="white"/>
<path d="M451.206 351.487L435.599 360.477L419.903 351.487L435.511 342.497L451.206 351.487Z" fill="white"/>
<path d="M471.046 362.856L455.439 371.846L439.787 362.856L455.395 353.866L471.046 362.856Z" fill="white"/>
<path d="M490.93 374.225L475.323 383.215L459.627 374.225L475.235 365.235L490.93 374.225Z" fill="white"/>
<path d="M510.814 385.594L495.207 394.584L479.511 385.594L495.119 376.605L510.814 385.594Z" fill="white"/>
<path d="M530.698 396.964L515.09 405.954L499.395 396.964L515.002 387.974L530.698 396.964Z" fill="white"/>
<path d="M244.916 264.938L229.308 273.884L213.657 264.938L229.264 255.948L244.916 264.938Z" fill="white"/>
<path d="M264.8 276.307L249.192 285.297L233.541 276.307L249.148 267.318L264.8 276.307Z" fill="white"/>
<path d="M284.684 287.677L269.076 296.623L253.381 287.677L268.988 278.687L284.684 287.677Z" fill="white"/>
<path d="M304.568 299.046L288.96 307.992L273.265 299.046L288.872 290.056L304.568 299.046Z" fill="white"/>
<path d="M324.452 310.416L308.844 319.361L293.149 310.416L308.756 301.426L324.452 310.416Z" fill="white"/>
<path d="M344.336 321.785L328.728 330.774L313.033 321.785L328.596 312.795L344.336 321.785Z" fill="white"/>
<path d="M364.176 333.155L348.612 342.144L332.917 333.155L348.48 324.165L364.176 333.155Z" fill="white"/>
<path d="M384.059 344.524L368.452 353.469L352.757 344.524L368.408 335.534L384.059 344.524Z" fill="white"/>
<path d="M403.944 355.893L388.336 364.839L372.641 355.893L388.248 346.904L403.944 355.893Z" fill="white"/>
<path d="M423.827 367.262L408.22 376.208L392.524 367.262L408.131 358.273L423.827 367.262Z" fill="white"/>
<path d="M463.551 389.957L447.944 398.947L432.248 389.957L447.855 381.011L463.551 389.957Z" fill="white"/>
<path d="M483.435 401.37L467.872 410.316L452.132 401.37L467.739 392.38L483.435 401.37Z" fill="white"/>
<path d="M503.319 412.696L487.712 421.686L472.016 412.74L487.623 403.75L503.319 412.696Z" fill="white"/>
<path d="M226.002 275.823L210.394 284.812L194.743 275.823L210.306 266.877L226.002 275.823Z" fill="white"/>
<path d="M245.886 287.192L230.278 296.182L214.627 287.192L230.19 278.247L245.886 287.192Z" fill="white"/>
<path d="M265.77 298.561L250.162 307.551L234.467 298.561L250.03 289.572L265.77 298.561Z" fill="white"/>
<path d="M285.609 309.931L270.046 318.877L254.351 309.931L269.914 300.941L285.609 309.931Z" fill="white"/>
<path d="M305.493 321.301L289.93 330.246L274.235 321.301L289.842 312.311L305.493 321.301Z" fill="white"/>
<path d="M325.377 332.67L309.814 341.66L294.119 332.67L309.682 323.68L325.377 332.67Z" fill="white"/>
<path d="M345.261 344.039L329.698 353.029L314.002 344.039L329.566 335.049L345.261 344.039Z" fill="white"/>
<path d="M365.101 355.408L349.538 364.354L333.886 355.408L349.449 346.418L365.101 355.408Z" fill="white"/>
<path d="M385.029 366.778L369.422 375.723L353.727 366.778L369.29 357.788L385.029 366.778Z" fill="white"/>
<path d="M404.913 378.147L389.306 387.137L373.61 378.147L389.174 369.158L404.913 378.147Z" fill="white"/>
<path d="M444.637 400.886L429.074 409.831L413.378 400.842L428.941 391.896L444.637 400.886Z" fill="white"/>
<path d="M464.521 412.255L448.958 421.245L433.218 412.255L448.825 403.265L464.521 412.255Z" fill="white"/>
<path d="M484.361 423.624L468.798 432.57L453.102 423.624L468.709 414.635L484.361 423.624Z" fill="white"/>
<path d="M207.043 286.708L191.48 295.697L175.784 286.708L191.392 277.762L207.043 286.708Z" fill="white"/>
<path d="M226.928 298.121L211.364 307.067L195.669 298.121L211.276 289.131L226.928 298.121Z" fill="white"/>
<path d="M246.812 309.49L231.249 318.436L215.553 309.446L231.116 300.5L246.812 309.49Z" fill="white"/>
<path d="M266.696 320.816L251.088 329.805L235.437 320.816L251 311.87L266.696 320.816Z" fill="white"/>
<path d="M286.58 332.185L270.972 341.174L255.321 332.185L270.884 323.239L286.58 332.185Z" fill="white"/>
<path d="M306.464 343.555L290.856 352.544L275.161 343.555L290.724 334.609L306.464 343.555Z" fill="white"/>
<path d="M326.348 354.924L310.74 363.913L295.045 354.924L310.608 345.978L326.348 354.924Z" fill="white"/>
<path d="M346.187 366.293L330.624 375.283L314.928 366.293L330.491 357.347L346.187 366.293Z" fill="white"/>
<path d="M188.13 297.592L172.567 306.582L156.871 297.636L172.478 288.646L188.13 297.592Z" fill="white"/>
<path d="M208.014 308.962L192.407 317.952L176.755 309.006L192.362 300.016L208.014 308.962Z" fill="white"/>
<path d="M227.898 320.375L212.29 329.321L196.595 320.375L212.202 311.385L227.898 320.375Z" fill="white"/>
<path d="M247.782 331.7L232.174 340.69L216.479 331.744L232.086 322.754L247.782 331.7Z" fill="white"/>
<path d="M267.665 343.07L252.058 352.059L236.363 343.114L251.97 334.124L267.665 343.07Z" fill="white"/>
<path d="M287.549 354.439L271.942 363.428L256.247 354.439L271.854 345.493L287.549 354.439Z" fill="white"/>
<path d="M307.434 365.853L291.826 374.798L276.131 365.853L291.738 356.863L307.434 365.853Z" fill="white"/>
<path d="M327.273 377.177L311.666 386.167L296.014 377.221L311.622 368.232L327.273 377.177Z" fill="white"/>
<path d="M366.071 377.662L350.508 386.652L334.768 377.662L350.376 368.717L366.071 377.662Z" fill="white"/>
<path d="M385.955 389.032L367.041 399.96L353.859 407.54L351.434 408.906L315.854 388.547L331.462 379.557L351.346 390.971L370.26 380.086L385.955 389.032Z" fill="white"/>
<path d="M425.723 411.77L410.116 420.76L394.42 411.77L409.983 402.781L425.723 411.77Z" fill="white"/>
<path d="M445.563 423.14L430 432.13L414.304 423.14L429.867 414.15L445.563 423.14Z" fill="white"/>
<path d="M465.447 434.509L449.884 443.499L434.188 434.509L449.751 425.563L465.447 434.509Z" fill="white"/>
<path d="M406.809 422.655L391.202 431.645L375.506 422.655L391.069 413.665L406.809 422.655Z" fill="white"/>
<path d="M426.693 434.025L411.086 443.014L395.39 434.025L410.953 425.079L426.693 434.025Z" fill="white"/>
<path d="M446.533 445.393L430.926 454.383L415.23 445.393L430.837 436.448L446.533 445.393Z" fill="white"/>
<path d="M189.1 319.89L173.536 328.836L137.957 308.521L153.52 299.531L189.1 319.89Z" fill="white"/>
<path d="M208.984 331.259L193.42 340.205L177.681 331.259L193.288 322.27L208.984 331.259Z" fill="white"/>
<path d="M228.824 342.629L213.26 351.575L197.565 342.629L213.172 333.639L228.824 342.629Z" fill="white"/>
<path d="M248.708 353.998L233.144 362.944L217.449 353.998L233.056 345.009L248.708 353.998Z" fill="white"/>
<path d="M268.591 365.368L253.028 374.313L237.332 365.324L252.896 356.378L268.591 365.368Z" fill="white"/>
<path d="M288.475 376.737L272.912 385.682L257.216 376.693L272.78 367.747L288.475 376.737Z" fill="white"/>
<path d="M348.127 410.845L332.52 419.791L277.1 388.106L292.664 379.117L348.127 410.845Z" fill="white"/>
<path d="M387.851 433.583L372.288 442.529L356.592 433.539L372.156 424.594L387.851 433.583Z" fill="white"/>
<path d="M407.735 444.953L392.172 453.899L376.476 444.909L392.039 435.963L407.735 444.953Z" fill="white"/>
<path d="M427.575 456.278L412.012 465.268L396.36 456.278L411.923 447.333L427.575 456.278Z" fill="white"/>
<path d="M150.302 319.405L134.695 328.395L119.043 319.405L134.606 310.416L150.302 319.405Z" fill="white"/>
<path d="M170.186 330.775L154.578 339.765L138.927 330.775L154.49 321.785L170.186 330.775Z" fill="white"/>
<path d="M289.445 398.991L273.838 407.936L158.767 342.144L174.374 333.154L289.445 398.991Z" fill="white"/>
<path d="M309.329 410.36L293.722 419.35L278.026 410.36L293.633 401.37L309.329 410.36Z" fill="white"/>
<path d="M329.213 421.73L313.606 430.719L297.91 421.73L313.518 412.74L329.213 421.73Z" fill="white"/>
<path d="M368.937 444.468L353.33 453.458L337.634 444.468L353.242 435.478L368.937 444.468Z" fill="white"/>
<path d="M388.821 455.838L373.214 464.828L357.518 455.838L373.126 446.848L388.821 455.838Z" fill="white"/>
<path d="M272.295 249.162V250.837L256.688 259.826V258.152L272.295 249.162Z" fill="#E6E7E8"/>
<path d="M256.687 258.152V259.826L240.992 250.837L241.036 249.162L256.687 258.152Z" fill="#E6E7E8"/>
<path d="M292.179 260.532V262.206L276.571 271.196V269.521L292.179 260.532Z" fill="#E6E7E8"/>
<path d="M276.571 269.521V271.196L260.876 262.25V260.532L276.571 269.521Z" fill="#E6E7E8"/>
<path d="M312.063 271.901V273.576L296.455 282.565V280.891L312.063 271.901Z" fill="#E6E7E8"/>
<path d="M296.455 280.891V282.565L280.76 273.576V271.901L296.455 280.891Z" fill="#E6E7E8"/>
<path d="M331.903 283.27V284.945L316.295 293.935L316.339 292.26L331.903 283.27Z" fill="#E6E7E8"/>
<path d="M316.34 292.26L316.295 293.935L300.644 284.989V283.27L316.34 292.26Z" fill="#E6E7E8"/>
<path d="M351.786 294.64V296.314L336.223 305.304V303.629L351.786 294.64Z" fill="#E6E7E8"/>
<path d="M336.223 303.629V305.304L320.528 296.314V294.64L336.223 303.629Z" fill="#E6E7E8"/>
<path d="M371.714 306.009L371.67 307.684L356.063 316.673L356.107 314.999L371.714 306.009Z" fill="#E6E7E8"/>
<path d="M356.107 314.999L356.063 316.673L340.368 307.684V306.009L356.107 314.999Z" fill="#E6E7E8"/>
<path d="M391.555 317.378V319.053L375.947 328.043L375.991 326.368L391.555 317.378Z" fill="#E6E7E8"/>
<path d="M375.991 326.368L375.947 328.043L360.251 319.053V317.378L375.991 326.368Z" fill="#E6E7E8"/>
<path d="M411.438 328.748V330.422L395.831 339.412V337.737L411.438 328.748Z" fill="#E6E7E8"/>
<path d="M395.831 337.737V339.412L380.136 330.422V328.748L395.831 337.737Z" fill="#E6E7E8"/>
<path d="M431.322 340.117V341.792L415.715 350.781V349.107L431.322 340.117Z" fill="#E6E7E8"/>
<path d="M415.715 349.107V350.781L400.019 341.792V340.117L415.715 349.107Z" fill="#E6E7E8"/>
<path d="M451.206 351.486V353.161L435.599 362.151V360.476L451.206 351.486Z" fill="#E6E7E8"/>
<path d="M435.599 360.476V362.151L419.903 353.161V351.486L435.599 360.476Z" fill="#E6E7E8"/>
<path d="M471.046 362.856V364.531L455.439 373.52V371.846L471.046 362.856Z" fill="#E6E7E8"/>
<path d="M455.439 371.846V373.52L439.787 364.531V362.856L455.439 371.846Z" fill="#E6E7E8"/>
<path d="M490.93 374.225V375.9L475.323 384.889V383.215L490.93 374.225Z" fill="#E6E7E8"/>
<path d="M475.323 383.215V384.889L459.627 375.9V374.225L475.323 383.215Z" fill="#E6E7E8"/>
<path d="M510.814 385.594V387.269L495.207 396.259V394.584L510.814 385.594Z" fill="#E6E7E8"/>
<path d="M495.207 394.584V396.259L479.511 387.269V385.594L495.207 394.584Z" fill="#E6E7E8"/>
<path d="M530.698 396.964V398.638L515.091 407.628V405.954L530.698 396.964Z" fill="#E6E7E8"/>
<path d="M515.09 405.954V407.628L499.395 398.638V396.964L515.09 405.954Z" fill="#E6E7E8"/>
<path d="M244.916 264.938V266.613L229.308 275.602V273.884L244.916 264.938Z" fill="#E6E7E8"/>
<path d="M229.308 273.884V275.602L213.657 266.613V264.938L229.308 273.884Z" fill="#E6E7E8"/>
<path d="M264.8 276.308V277.982L249.192 286.972V285.298L264.8 276.308Z" fill="#E6E7E8"/>
<path d="M249.192 285.298V286.972L233.541 277.982V276.308L249.192 285.298Z" fill="#E6E7E8"/>
<path d="M284.684 287.677V289.352L269.076 298.341V296.623L284.684 287.677Z" fill="#E6E7E8"/>
<path d="M269.076 296.623V298.341L253.381 289.352V287.677L269.076 296.623Z" fill="#E6E7E8"/>
<path d="M304.568 299.046L304.524 300.721L288.96 309.711V307.992L304.568 299.046Z" fill="#E6E7E8"/>
<path d="M288.96 307.992V309.711L273.265 300.721V299.046L288.96 307.992Z" fill="#E6E7E8"/>
<path d="M324.452 310.416V312.09L308.844 321.08V319.361L324.452 310.416Z" fill="#E6E7E8"/>
<path d="M308.844 319.361V321.08L293.149 312.09V310.416L308.844 319.361Z" fill="#E6E7E8"/>
<path d="M344.335 321.785V323.46L328.728 332.449V330.775L344.335 321.785Z" fill="#E6E7E8"/>
<path d="M328.728 330.775V332.449L312.989 323.46L313.033 321.785L328.728 330.775Z" fill="#E6E7E8"/>
<path d="M364.175 333.154V334.829L348.612 343.818V342.144L364.175 333.154Z" fill="#E6E7E8"/>
<path d="M348.612 342.144V343.818L332.873 334.829L332.917 333.154L348.612 342.144Z" fill="#E6E7E8"/>
<path d="M384.059 344.524V346.199L368.452 355.144V353.47L384.059 344.524Z" fill="#E6E7E8"/>
<path d="M368.452 353.47V355.144L352.757 346.199V344.524L368.452 353.47Z" fill="#E6E7E8"/>
<path d="M403.943 355.893V357.568L388.336 366.557V364.839L403.943 355.893Z" fill="#E6E7E8"/>
<path d="M388.336 364.839V366.557L372.641 357.568V355.893L388.336 364.839Z" fill="#E6E7E8"/>
<path d="M423.827 367.263V368.937L408.22 377.927V376.208L423.827 367.263Z" fill="#E6E7E8"/>
<path d="M408.22 376.208V377.927L392.524 368.937V367.263L408.22 376.208Z" fill="#E6E7E8"/>
<path d="M463.551 389.957V391.676L447.944 400.666V398.947L463.551 389.957Z" fill="#E6E7E8"/>
<path d="M447.944 398.947V400.666L432.248 391.676V389.957L447.944 398.947Z" fill="#E6E7E8"/>
<path d="M483.435 401.37V403.045L467.828 412.035L467.872 410.316L483.435 401.37Z" fill="#E6E7E8"/>
<path d="M467.872 410.316L467.828 412.035L452.132 403.045V401.37L467.872 410.316Z" fill="#E6E7E8"/>
<path d="M503.319 412.696V414.414L487.712 423.36V421.686L503.319 412.696Z" fill="#E6E7E8"/>
<path d="M487.712 421.686V423.36L472.016 414.415V412.74L487.712 421.686Z" fill="#E6E7E8"/>
<path d="M226.002 275.823V277.498L210.395 286.487V284.813L226.002 275.823Z" fill="#E6E7E8"/>
<path d="M210.394 284.813V286.487L194.743 277.498V275.823L210.394 284.813Z" fill="#E6E7E8"/>
<path d="M245.886 287.192V288.867L230.278 297.857V296.182L245.886 287.192Z" fill="#E6E7E8"/>
<path d="M230.278 296.182V297.857L214.627 288.867V287.192L230.278 296.182Z" fill="#E6E7E8"/>
<path d="M265.769 298.562V300.236L250.162 309.226V307.551L265.769 298.562Z" fill="#E6E7E8"/>
<path d="M250.162 307.551V309.226L234.467 300.236V298.562L250.162 307.551Z" fill="#E6E7E8"/>
<path d="M285.609 309.931V311.605L270.046 320.595V318.877L285.609 309.931Z" fill="#E6E7E8"/>
<path d="M270.046 318.877V320.595L254.351 311.605V309.931L270.046 318.877Z" fill="#E6E7E8"/>
<path d="M305.493 321.3V322.975L289.93 331.965V330.246L305.493 321.3Z" fill="#E6E7E8"/>
<path d="M289.93 330.246V331.965L274.235 322.975V321.3L289.93 330.246Z" fill="#E6E7E8"/>
<path d="M325.377 332.67V334.344L309.814 343.334V341.659L325.377 332.67Z" fill="#E6E7E8"/>
<path d="M309.814 341.659V343.334L294.119 334.344V332.67L309.814 341.659Z" fill="#E6E7E8"/>
<path d="M345.261 344.04V345.714L329.698 354.704V353.029L345.261 344.04Z" fill="#E6E7E8"/>
<path d="M329.698 353.029V354.704L313.958 345.714L314.003 344.04L329.698 353.029Z" fill="#E6E7E8"/>
<path d="M365.101 355.408V357.083L349.538 366.072V364.354L365.101 355.408Z" fill="#E6E7E8"/>
<path d="M349.538 364.354V366.072L333.886 357.083V355.408L349.538 364.354Z" fill="#E6E7E8"/>
<path d="M385.029 366.778L384.985 368.452L369.422 377.442V375.723L385.029 366.778Z" fill="#E6E7E8"/>
<path d="M369.422 375.723V377.442L353.727 368.452V366.778L369.422 375.723Z" fill="#E6E7E8"/>
<path d="M404.914 378.147V379.822L389.306 388.811V387.137L404.914 378.147Z" fill="#E6E7E8"/>
<path d="M389.306 387.137V388.811L373.61 379.822V378.147L389.306 387.137Z" fill="#E6E7E8"/>
<path d="M444.637 400.886V402.561L429.03 411.55L429.074 409.832L444.637 400.886Z" fill="#E6E7E8"/>
<path d="M429.074 409.832L429.03 411.55L413.334 402.56L413.378 400.842L429.074 409.832Z" fill="#E6E7E8"/>
<path d="M464.521 412.255V413.929L448.958 422.919V421.245L464.521 412.255Z" fill="#E6E7E8"/>
<path d="M448.958 421.245V422.919L433.218 413.929V412.255L448.958 421.245Z" fill="#E6E7E8"/>
<path d="M484.361 423.624V425.299L468.798 434.244V432.57L484.361 423.624Z" fill="#E6E7E8"/>
<path d="M468.798 432.57V434.244L453.102 425.299V423.624L468.798 432.57Z" fill="#E6E7E8"/>
<path d="M207.043 286.707V288.426L191.48 297.372V295.697L207.043 286.707Z" fill="#E6E7E8"/>
<path d="M191.48 295.697V297.372L175.784 288.426V286.707L191.48 295.697Z" fill="#E6E7E8"/>
<path d="M226.928 298.121V299.795L211.364 308.741V307.066L226.928 298.121Z" fill="#E6E7E8"/>
<path d="M211.364 307.066V308.741L195.669 299.795V298.121L211.364 307.066Z" fill="#E6E7E8"/>
<path d="M246.812 309.49V311.165L231.248 320.11V318.436L246.812 309.49Z" fill="#E6E7E8"/>
<path d="M231.249 318.436V320.111L215.553 311.121V309.446L231.249 318.436Z" fill="#E6E7E8"/>
<path d="M266.696 320.816V322.49L251.088 331.48V329.805L266.696 320.816Z" fill="#E6E7E8"/>
<path d="M251.088 329.805V331.48L235.437 322.49V320.816L251.088 329.805Z" fill="#E6E7E8"/>
<path d="M286.58 332.185V333.903L270.972 342.849V341.175L286.58 332.185Z" fill="#E6E7E8"/>
<path d="M270.972 341.175V342.849L255.321 333.903V332.185L270.972 341.175Z" fill="#E6E7E8"/>
<path d="M306.463 343.554L306.419 345.273L290.856 354.218V352.544L306.463 343.554Z" fill="#E6E7E8"/>
<path d="M290.856 352.544V354.218L275.161 345.229V343.554L290.856 352.544Z" fill="#E6E7E8"/>
<path d="M326.347 354.924V356.642L310.74 365.588V363.913L326.347 354.924Z" fill="#E6E7E8"/>
<path d="M310.74 363.913V365.588L295.045 356.598V354.924L310.74 363.913Z" fill="#E6E7E8"/>
<path d="M346.187 366.293V368.012L330.624 376.958V375.283L346.187 366.293Z" fill="#E6E7E8"/>
<path d="M330.624 375.283V376.958L314.928 368.012V366.293L330.624 375.283Z" fill="#E6E7E8"/>
<path d="M188.13 297.592V299.311L172.522 308.257L172.566 306.582L188.13 297.592Z" fill="#E6E7E8"/>
<path d="M172.567 306.582L172.523 308.256L156.871 299.311V297.636L172.567 306.582Z" fill="#E6E7E8"/>
<path d="M208.014 308.961V310.68L192.406 319.67V317.951L208.014 308.961Z" fill="#E6E7E8"/>
<path d="M192.407 317.952V319.67L176.755 310.68V309.006L192.407 317.952Z" fill="#E6E7E8"/>
<path d="M227.897 320.375V322.049L212.29 331.039V329.32L227.897 320.375Z" fill="#E6E7E8"/>
<path d="M212.29 329.32V331.039L196.595 322.049V320.375L212.29 329.32Z" fill="#E6E7E8"/>
<path d="M247.781 331.7V333.375L232.174 342.364V340.69L247.781 331.7Z" fill="#E6E7E8"/>
<path d="M232.174 340.69V342.365L216.479 333.419V331.744L232.174 340.69Z" fill="#E6E7E8"/>
<path d="M267.665 343.069V344.744L252.058 353.734V352.059L267.665 343.069Z" fill="#E6E7E8"/>
<path d="M252.058 352.059V353.734L236.363 344.788V343.114L252.058 352.059Z" fill="#E6E7E8"/>
<path d="M287.549 354.439V356.158L271.942 365.147V363.429L287.549 354.439Z" fill="#E6E7E8"/>
<path d="M271.942 363.429V365.147L256.203 356.158L256.247 354.439L271.942 363.429Z" fill="#E6E7E8"/>
<path d="M307.433 365.852V367.527L291.826 376.517V374.798L307.433 365.852Z" fill="#E6E7E8"/>
<path d="M291.826 374.798V376.517L276.131 367.527V365.852L291.826 374.798Z" fill="#E6E7E8"/>
<path d="M327.273 377.177V378.896L311.666 387.842V386.167L327.273 377.177Z" fill="#E6E7E8"/>
<path d="M311.666 386.167V387.841L296.014 378.896V377.221L311.666 386.167Z" fill="#E6E7E8"/>
<path d="M366.071 377.662V379.381L350.508 388.327V386.652L366.071 377.662Z" fill="#E6E7E8"/>
<path d="M350.508 386.652V388.327L334.768 379.337V377.662L350.508 386.652Z" fill="#E6E7E8"/>
<path d="M385.956 389.031V390.75L367.042 401.635V399.96L385.956 389.031Z" fill="#E6E7E8"/>
<path d="M367.041 399.961V401.635L353.859 409.215V407.54L367.041 399.961Z" fill="#E6E7E8"/>
<path d="M353.859 407.54V409.215L351.434 410.625V408.906L353.859 407.54Z" fill="#E6E7E8"/>
<path d="M351.434 408.906V410.625L315.854 390.266V388.547L351.434 408.906Z" fill="#E6E7E8"/>
<path d="M425.723 411.771L425.679 413.445L410.116 422.435V420.76L425.723 411.771Z" fill="#E6E7E8"/>
<path d="M410.116 420.76V422.435L394.42 413.445V411.771L410.116 420.76Z" fill="#E6E7E8"/>
<path d="M445.563 423.14V424.814L430 433.804V432.129L445.563 423.14Z" fill="#E6E7E8"/>
<path d="M430 432.129V433.804L414.304 424.814V423.14L430 432.129Z" fill="#E6E7E8"/>
<path d="M465.447 434.509V436.184L449.84 445.173L449.884 443.499L465.447 434.509Z" fill="#E6E7E8"/>
<path d="M449.884 443.499L449.839 445.173L434.188 436.184V434.509L449.884 443.499Z" fill="#E6E7E8"/>
<path d="M406.809 422.655L406.765 424.329L391.201 433.319V431.645L406.809 422.655Z" fill="#E6E7E8"/>
<path d="M391.202 431.645V433.319L375.462 424.329L375.506 422.655L391.202 431.645Z" fill="#E6E7E8"/>
<path d="M426.693 434.024V435.743L411.042 444.688L411.086 443.014L426.693 434.024Z" fill="#E6E7E8"/>
<path d="M411.086 443.014L411.041 444.688L395.346 435.743L395.39 434.024L411.086 443.014Z" fill="#E6E7E8"/>
<path d="M446.533 445.394V447.069L430.926 456.058V454.384L446.533 445.394Z" fill="#E6E7E8"/>
<path d="M430.926 454.384V456.058L415.23 447.113V445.394L430.926 454.384Z" fill="#E6E7E8"/>
<path d="M189.1 319.89V321.565L173.492 330.555L173.536 328.836L189.1 319.89Z" fill="#E6E7E8"/>
<path d="M173.536 328.836L173.492 330.554L137.957 310.195V308.521L173.536 328.836Z" fill="#E6E7E8"/>
<path d="M208.984 331.26V332.934L193.376 341.924L193.42 340.205L208.984 331.26Z" fill="#E6E7E8"/>
<path d="M193.42 340.205L193.376 341.924L177.681 332.934V331.26L193.42 340.205Z" fill="#E6E7E8"/>
<path d="M228.824 342.629V344.303L213.26 353.249V351.574L228.824 342.629Z" fill="#E6E7E8"/>
<path d="M213.26 351.574V353.249L197.565 344.303V342.629L213.26 351.574Z" fill="#E6E7E8"/>
<path d="M248.707 353.998V355.673L233.144 364.618V362.944L248.707 353.998Z" fill="#E6E7E8"/>
<path d="M233.144 362.944V364.618L217.449 355.673V353.998L233.144 362.944Z" fill="#E6E7E8"/>
<path d="M268.591 365.367V367.042L253.028 375.988V374.313L268.591 365.367Z" fill="#E6E7E8"/>
<path d="M253.028 374.313V375.988L237.332 367.042V365.323L253.028 374.313Z" fill="#E6E7E8"/>
<path d="M288.475 376.737V378.412L272.912 387.401V385.683L288.475 376.737Z" fill="#E6E7E8"/>
<path d="M272.912 385.683V387.401L257.216 378.411V376.693L272.912 385.683Z" fill="#E6E7E8"/>
<path d="M348.127 410.845V412.519L332.52 421.509V419.79L348.127 410.845Z" fill="#E6E7E8"/>
<path d="M332.52 419.791V421.509L277.1 389.781V388.106L332.52 419.791Z" fill="#E6E7E8"/>
<path d="M387.851 433.584V435.258L372.288 444.204V442.529L387.851 433.584Z" fill="#E6E7E8"/>
<path d="M372.287 442.529V444.204L356.548 435.214L356.592 433.54L372.287 442.529Z" fill="#E6E7E8"/>
<path d="M407.734 444.953V446.627L392.171 455.573V453.899L407.734 444.953Z" fill="#E6E7E8"/>
<path d="M392.172 453.899V455.573L376.476 446.628V444.909L392.172 453.899Z" fill="#E6E7E8"/>
<path d="M427.575 456.278V457.997L412.011 466.943V465.268L427.575 456.278Z" fill="#E6E7E8"/>
<path d="M412.012 465.268V466.943L396.36 457.997V456.278L412.012 465.268Z" fill="#E6E7E8"/>
<path d="M150.302 319.406V321.08L134.694 330.07V328.395L150.302 319.406Z" fill="#E6E7E8"/>
<path d="M134.694 328.395V330.07L118.999 321.08L119.043 319.406L134.694 328.395Z" fill="#E6E7E8"/>
<path d="M170.185 330.774V332.449L154.578 341.439V339.764L170.185 330.774Z" fill="#E6E7E8"/>
<path d="M154.578 339.764V341.439L138.883 332.449L138.927 330.774L154.578 339.764Z" fill="#E6E7E8"/>
<path d="M289.445 398.991V400.666L273.838 409.655V407.937L289.445 398.991Z" fill="#E6E7E8"/>
<path d="M273.838 407.936V409.655L158.767 343.818V342.144L273.838 407.936Z" fill="#E6E7E8"/>
<path d="M309.329 410.36V412.035L293.722 421.025V419.35L309.329 410.36Z" fill="#E6E7E8"/>
<path d="M293.722 419.35V421.025L278.026 412.035V410.36L293.722 419.35Z" fill="#E6E7E8"/>
<path d="M329.213 421.729V423.404L313.606 432.394V430.719L329.213 421.729Z" fill="#E6E7E8"/>
<path d="M313.606 430.719V432.394L297.91 423.404V421.729L313.606 430.719Z" fill="#E6E7E8"/>
<path d="M368.937 444.468V446.143L353.33 455.133V453.458L368.937 444.468Z" fill="#E6E7E8"/>
<path d="M353.33 453.458V455.133L337.634 446.143V444.468L353.33 453.458Z" fill="#E6E7E8"/>
<path d="M388.821 455.838V457.512L373.214 466.502V464.827L388.821 455.838Z" fill="#E6E7E8"/>
<path d="M373.214 464.827V466.502L357.518 457.512V455.838L373.214 464.827Z" fill="#E6E7E8"/>
<path d="M408.705 467.163V468.881L393.097 477.871V476.153L408.705 467.163Z" fill="#E6E7E8"/>
<path d="M393.098 476.153V477.871L377.402 468.882V467.207L393.098 476.153Z" fill="#E6E7E8"/>
<path d="M408.705 467.163L393.098 476.152L377.402 467.207L393.009 458.217L408.705 467.163Z" fill="white"/>
<path d="M180.326 401.018L173.316 405.028C171.684 405.954 171.684 407.452 173.316 408.421L205.633 426.886L215.553 421.157L180.326 401.018Z" fill="white"/>
<path d="M208.146 428.252L240.463 446.76C241.38 447.218 242.392 447.456 243.417 447.456C244.442 447.456 245.453 447.218 246.371 446.76L253.381 442.706L218.11 422.523L208.146 428.252Z" fill="white"/>
<path d="M283.097 422.214L216.038 383.876C215.128 383.418 214.124 383.18 213.106 383.18C212.088 383.18 211.084 383.418 210.174 383.876L182.839 399.652L255.762 441.383L283.097 425.651C284.728 424.682 284.728 423.184 283.097 422.214Z" fill="white"/>
<path opacity="0.7" d="M463.111 201.349C454.293 208.929 445.475 230.874 437.451 236.162C430.088 240.922 423.695 235.105 422.505 224.397C420.345 205.448 427.972 172.309 429.162 160.323C432.469 127.581 415.407 127.757 403.811 148.513C398.344 158.34 367.747 223.03 350.905 213.292C337.017 205.404 342.881 183.722 343.278 165.699C343.278 158.869 338.031 146.045 326.392 153.448C316.825 159.53 298.616 191.038 294.824 199.19L287.109 219.946L453.676 315.087L460.509 293.847L481.936 227.261C488.638 206.065 474.662 191.39 463.111 201.349Z" fill="#E2FFE6"/>
<path d="M287.329 220.078L286.579 220.122L338.692 79.6356H339.353L287.329 220.078Z" fill="white"/>
<path d="M320.704 239.115L319.999 239.159L370.877 98.0997L371.582 98.0557L320.704 239.115Z" fill="white"/>
<path d="M354.079 258.152L353.33 258.196L403.062 116.52L403.723 116.476L354.079 258.152Z" fill="white"/>
<path d="M387.366 277.145L386.66 277.189L435.202 134.94L435.863 134.896L387.366 277.145Z" fill="white"/>
<path d="M420.653 296.138L419.948 296.182L467.299 153.316H468.004L420.653 296.138Z" fill="white"/>
<path d="M453.896 315.087L453.234 315.131L499.395 171.692L500.056 171.648L453.896 315.087Z" fill="white"/>
<path d="M292.84 204.214H292.487C292.002 204.214 291.914 203.553 292.487 203.024L340.985 136.923C341.16 136.688 341.397 136.506 341.669 136.397C341.941 136.288 342.239 136.256 342.528 136.306C343.013 136.306 343.145 136.923 342.528 137.408L294.03 203.509C293.894 203.704 293.717 203.868 293.511 203.99C293.306 204.111 293.077 204.188 292.84 204.214Z" fill="white"/>
<path d="M351.037 207.607C350.864 207.624 350.69 207.581 350.545 207.485C350.4 207.388 350.294 207.244 350.243 207.078L340.5 137.672C340.5 137.187 340.852 136.658 341.47 136.438C342.087 136.218 342.616 136.438 342.66 136.835L352.271 206.241C352.271 206.725 351.919 207.254 351.301 207.519L351.037 207.607Z" fill="white"/>
<path d="M351.037 207.607H350.596C350.155 207.387 350.155 206.814 350.596 206.373L423.21 127.978C423.39 127.767 423.63 127.617 423.898 127.546C424.166 127.475 424.449 127.487 424.709 127.581C425.106 127.581 425.106 128.33 424.709 128.771L352.272 207.078C351.934 207.393 351.498 207.58 351.037 207.607Z" fill="white"/>
<path d="M430.573 228.759C430.482 228.778 430.389 228.778 430.299 228.759C430.209 228.74 430.124 228.702 430.049 228.648C429.974 228.594 429.912 228.525 429.865 228.446C429.819 228.366 429.789 228.278 429.779 228.186L422.813 128.638C422.826 128.356 422.933 128.086 423.117 127.87C423.3 127.655 423.55 127.507 423.827 127.448C424.4 127.448 424.885 127.448 424.929 127.933L431.851 227.481C431.831 227.761 431.721 228.028 431.539 228.242C431.357 228.456 431.111 228.606 430.837 228.671L430.573 228.759Z" fill="white"/>
<path d="M430.573 228.759C430.469 228.807 430.356 228.831 430.242 228.831C430.128 228.831 430.015 228.807 429.911 228.759C429.851 228.644 429.815 228.518 429.805 228.388C429.795 228.258 429.81 228.128 429.852 228.005C429.893 227.881 429.958 227.768 430.044 227.67C430.13 227.572 430.235 227.493 430.352 227.437L479.776 191.61C479.981 191.442 480.238 191.35 480.503 191.35C480.768 191.35 481.026 191.442 481.231 191.61C481.495 191.919 481.231 192.536 480.79 192.888L431.366 228.715C431.111 228.801 430.836 228.816 430.573 228.759Z" fill="white"/>
<path d="M480.128 192.933C480.006 192.937 479.883 192.916 479.77 192.87C479.656 192.825 479.553 192.756 479.467 192.668C479.202 192.36 479.467 191.787 479.908 191.39L496.794 178.919C496.999 178.751 497.256 178.659 497.521 178.659C497.786 178.659 498.044 178.751 498.249 178.919C498.359 179.143 498.38 179.4 498.306 179.638C498.232 179.876 498.07 180.076 497.852 180.197L480.789 192.536C480.597 192.71 480.372 192.845 480.128 192.933Z" fill="white"/>
<path d="M354.52 208.489C354.387 208.924 354.156 209.322 353.843 209.653C353.531 209.984 353.146 210.238 352.72 210.396C352.293 210.553 351.835 210.611 351.383 210.563C350.93 210.515 350.495 210.363 350.111 210.119C349.231 209.604 348.556 208.8 348.203 207.844C347.849 206.888 347.838 205.838 348.171 204.875C348.296 204.434 348.523 204.029 348.834 203.693C349.145 203.357 349.531 203.099 349.961 202.94C350.391 202.781 350.852 202.726 351.307 202.779C351.762 202.832 352.198 202.991 352.58 203.245C353.46 203.759 354.135 204.563 354.489 205.52C354.842 206.476 354.853 207.525 354.52 208.489Z" fill="white"/>
<path d="M344.247 140.228C344.117 140.665 343.886 141.065 343.573 141.396C343.26 141.727 342.873 141.98 342.444 142.135C342.015 142.289 341.555 142.341 341.103 142.285C340.65 142.229 340.217 142.068 339.838 141.814C338.994 141.298 338.348 140.514 338.005 139.587C337.661 138.659 337.639 137.644 337.942 136.703C338.073 136.266 338.304 135.866 338.617 135.534C338.93 135.203 339.317 134.95 339.746 134.796C340.175 134.641 340.634 134.59 341.087 134.646C341.539 134.701 341.973 134.862 342.351 135.116C343.195 135.632 343.841 136.417 344.185 137.344C344.529 138.271 344.551 139.287 344.247 140.228Z" fill="white"/>
<path d="M426.605 131.282C426.496 131.734 426.276 132.152 425.965 132.496C425.653 132.841 425.26 133.102 424.821 133.256C424.382 133.409 423.912 133.45 423.453 133.375C422.995 133.3 422.562 133.11 422.196 132.825C421.353 132.317 420.704 131.543 420.353 130.625C420.001 129.706 419.967 128.697 420.256 127.757C420.37 127.309 420.594 126.896 420.908 126.557C421.222 126.217 421.616 125.961 422.054 125.813C422.492 125.664 422.96 125.627 423.416 125.704C423.872 125.782 424.301 125.973 424.665 126.259C425.498 126.764 426.141 127.531 426.492 128.44C426.843 129.349 426.882 130.348 426.605 131.282Z" fill="white"/>
<path d="M483.17 194.299C483.06 194.718 482.851 195.104 482.561 195.427C482.272 195.749 481.91 195.998 481.505 196.153C481.1 196.308 480.664 196.365 480.233 196.318C479.802 196.271 479.388 196.123 479.026 195.885C478.166 195.382 477.502 194.603 477.142 193.675C476.781 192.747 476.746 191.724 477.042 190.773C477.153 190.354 477.361 189.967 477.651 189.645C477.94 189.322 478.303 189.073 478.707 188.919C479.112 188.764 479.548 188.707 479.979 188.754C480.41 188.8 480.824 188.949 481.186 189.187C482.046 189.689 482.71 190.468 483.071 191.397C483.431 192.325 483.466 193.348 483.17 194.299Z" fill="white"/>
<path d="M434.629 227.79C434.522 228.243 434.305 228.662 433.997 229.01C433.688 229.359 433.298 229.625 432.862 229.787C432.426 229.948 431.956 229.999 431.495 229.935C431.034 229.871 430.596 229.695 430.22 229.42C429.342 228.914 428.664 228.12 428.303 227.173C427.942 226.226 427.918 225.183 428.236 224.221C428.343 223.768 428.56 223.349 428.869 223C429.177 222.652 429.567 222.385 430.003 222.224C430.44 222.062 430.909 222.011 431.37 222.075C431.831 222.139 432.269 222.316 432.645 222.59C433.524 223.096 434.201 223.89 434.562 224.837C434.924 225.785 434.947 226.827 434.629 227.79Z" fill="white"/>
<path d="M568.526 217.61L578.005 232.108L582.855 216.729L568.526 217.61Z" fill="#F1F2F2"/>
<path d="M556.843 201.834L557.283 200.38L556.843 201.834Z" fill="#F1F2F2"/>
<path d="M566.277 216.332L556.842 201.834L551.993 217.213L566.277 216.332Z" fill="#F1F2F2"/>
<path d="M583.34 215.275L567.644 216.244L557.283 200.38L556.534 202.628L565.219 216.377L551.993 217.214L578.005 232.109L568.526 217.61L582.855 216.729L583.34 215.275Z" fill="#E6E7E8"/>
<path d="M557.283 200.38L567.644 216.244L583.34 215.275L557.283 200.38Z" fill="white"/>
<path opacity="0.7" d="M562.883 256.301L503.407 216.993L505.171 211.617L564.602 250.925L562.883 256.301Z" fill="#E2FFE6"/>
<path opacity="0.7" d="M542.822 256.786L499.748 228.319L501.511 222.942L544.542 251.41L542.822 256.786Z" fill="#E2FFE6"/>
<path opacity="0.7" d="M551.905 290.233L492.429 250.925L494.193 245.549L553.624 284.857L551.905 290.233Z" fill="#E2FFE6"/>
<path opacity="0.7" d="M548.245 301.558L488.77 262.25L490.533 256.874L549.965 296.182L548.245 301.558Z" fill="#E2FFE6"/>
<path opacity="0.7" d="M544.542 312.884L485.111 273.576L486.874 268.2L546.306 307.508L544.542 312.884Z" fill="#E2FFE6"/>
<path opacity="0.7" d="M503.363 299.355L481.451 284.857L483.215 279.481L505.083 293.979L503.363 299.355Z" fill="#E2FFE6"/>
<path opacity="0.7" d="M537.223 335.49L477.792 296.182L479.511 290.806L538.987 330.114L537.223 335.49Z" fill="#E2FFE6"/>
<path opacity="0.7" d="M533.564 346.815L474.132 307.507L475.852 302.131L535.327 341.439L533.564 346.815Z" fill="#E2FFE6"/>
<path opacity="0.7" d="M502.79 340.206L470.473 318.789L472.192 313.413L504.509 334.83L502.79 340.206Z" fill="#E2FFE6"/>
<path d="M332.476 43.5006L329.742 51.6531L597.184 206.021L599.785 197.692L332.476 43.5006Z" fill="#E2FFE6"/>
<path d="M596.39 198.838C596.415 199.184 596.367 199.531 596.248 199.858C596.13 200.184 595.944 200.481 595.702 200.731C595.461 200.98 595.17 201.176 594.848 201.306C594.525 201.435 594.18 201.495 593.833 201.482C593.113 201.495 592.416 201.233 591.883 200.75C591.351 200.267 591.023 199.599 590.967 198.882C590.942 198.536 590.99 198.188 591.109 197.862C591.227 197.536 591.413 197.238 591.654 196.988C591.896 196.739 592.187 196.543 592.509 196.414C592.831 196.284 593.177 196.224 593.524 196.238C594.243 196.224 594.94 196.486 595.473 196.969C596.006 197.452 596.334 198.121 596.39 198.838Z" fill="#FF57CA"/>
<path d="M589.204 194.916C589.222 195.26 589.169 195.605 589.048 195.928C588.927 196.251 588.741 196.546 588.501 196.794C588.261 197.042 587.973 197.238 587.654 197.37C587.334 197.501 586.992 197.566 586.647 197.56C585.923 197.562 585.226 197.29 584.694 196.8C584.163 196.31 583.836 195.636 583.781 194.916C583.756 194.573 583.803 194.23 583.919 193.906C584.035 193.583 584.217 193.288 584.453 193.039C584.69 192.79 584.976 192.593 585.293 192.461C585.609 192.329 585.951 192.265 586.294 192.272C587.019 192.278 587.716 192.552 588.253 193.039C588.79 193.527 589.128 194.195 589.204 194.916Z" fill="#E6E7E8"/>
<path d="M582.017 190.95C582.035 191.294 581.982 191.639 581.861 191.962C581.741 192.285 581.554 192.58 581.314 192.828C581.075 193.076 580.786 193.272 580.467 193.404C580.148 193.536 579.805 193.6 579.46 193.594C578.741 193.607 578.044 193.345 577.511 192.862C576.978 192.379 576.65 191.711 576.594 190.994C576.576 190.647 576.629 190.301 576.75 189.975C576.87 189.65 577.056 189.352 577.295 189.1C577.534 188.849 577.822 188.649 578.141 188.512C578.46 188.375 578.804 188.305 579.151 188.306C579.869 188.323 580.555 188.601 581.083 189.088C581.61 189.574 581.942 190.236 582.017 190.95Z" fill="#E6E7E8"/>
<path d="M257.702 523.695L240.12 513.578L219.027 544.494L257.702 566.741V523.695Z" fill="#96DBC6"/>
<path d="M257.702 566.741L219.027 544.494L207.864 560.868L257.702 589.531V566.741Z" fill="#FD7296"/>
<path d="M257.702 487.831L240.121 513.578L257.702 523.696V487.831Z" fill="white"/>
<path d="M207.864 560.868L190 587.057L257.702 626V589.531L207.864 560.868Z" fill="#FFB9A5"/>
<path d="M257.702 566.741L296.357 544.494L275.264 513.578L257.702 523.695V566.741Z" fill="#82BC96"/>
<path d="M275.264 513.578L257.702 487.831V523.696L275.264 513.578Z" fill="#DADADA"/>
<path d="M257.702 626L325.404 587.057L307.54 560.868L257.702 589.531V626Z" fill="#D78F79"/>
<path d="M257.702 566.741V589.531L307.54 560.868L296.357 544.494L257.702 566.741Z" fill="#DC6382"/>
<path d="M233.821 23.0567L33.1824 138.531L33.6568 139.349L234.296 23.8745L233.821 23.0567Z" fill="#527D43"/>
<path d="M233.821 66.1817L33.1824 181.656L33.6568 182.474L234.296 66.9995L233.821 66.1817Z" fill="#527D43"/>
<path d="M233.821 105.16L33.1824 220.635L33.6568 221.452L234.296 105.978L233.821 105.16Z" fill="#527D43"/>
<path d="M233.821 143.309L33.1824 258.783L33.6568 259.601L234.296 144.127L233.821 143.309Z" fill="#527D43"/>
<mask id="mask0_301_3451" style="mask-type:luminance" maskUnits="userSpaceOnUse" x="203" y="129" width="11" height="24">
<path d="M208.443 139.93C209.031 139.585 209.662 139.321 210.321 139.145C210.806 138.978 211.334 138.978 211.818 139.145C212.291 139.378 212.653 139.787 212.826 140.282C213.108 141.016 213.238 141.799 213.207 142.584V143.099C213.199 144.014 213.071 144.925 212.826 145.807C212.607 146.628 212.267 147.413 211.818 148.136C211.393 148.813 210.881 149.432 210.294 149.977C209.733 150.508 209.112 150.971 208.443 151.358C207.825 151.74 207.143 152.006 206.429 152.144C205.939 152.283 205.421 152.283 204.932 152.144C204.525 151.966 204.197 151.649 204.006 151.25C203.798 150.753 203.696 150.218 203.707 149.679C203.703 149.452 203.759 149.228 203.87 149.029C203.968 148.878 204.098 148.748 204.251 148.65C204.659 148.407 204.877 148.488 204.877 148.894C204.851 149.326 204.945 149.757 205.149 150.14C205.329 150.424 205.596 150.643 205.912 150.763C206.288 150.843 206.678 150.843 207.055 150.763C207.545 150.635 208.014 150.434 208.443 150.167C209.585 149.532 210.527 148.594 211.165 147.459C211.818 146.284 212.137 144.955 212.091 143.613V143.099C212.091 141.663 211.791 140.77 211.165 140.391C210.539 140.011 209.668 140.228 208.443 140.878L205.231 142.72C204.941 142.9 204.75 142.954 204.659 142.882C204.636 142.836 204.623 142.785 204.623 142.733C204.623 142.681 204.636 142.63 204.659 142.584V142.34C204.659 142.34 204.659 142.124 204.659 142.07L205.095 133.945C205.093 133.774 205.135 133.605 205.216 133.454C205.297 133.302 205.414 133.173 205.558 133.079L211.982 129.396C212.145 129.396 212.254 129.396 212.336 129.396C212.367 129.52 212.367 129.65 212.336 129.775C212.362 129.945 212.362 130.119 212.336 130.289C212.272 130.463 212.146 130.608 211.982 130.696L206.211 134L205.775 141.257L208.443 139.93Z" fill="white"/>
</mask>
<g mask="url(#mask0_301_3451)">
<path d="M264.301 99.7423H199.923V161.135H264.301V99.7423Z" fill="#527D43"/>
</g>
<mask id="mask1_301_3451" style="mask-type:luminance" maskUnits="userSpaceOnUse" x="216" y="0" width="17" height="27">
<path d="M219.533 16.6277C219.198 16.8469 218.831 17.0114 218.444 17.1151C218.15 17.1972 217.84 17.1972 217.546 17.1151C217.409 17.065 217.284 16.9858 217.18 16.8829C217.077 16.78 216.997 16.6559 216.947 16.5193C216.787 16.1239 216.713 15.6995 216.729 15.2736V11.1032C216.729 10.5988 216.802 10.0971 216.947 9.61372C217.079 9.16116 217.281 8.73176 217.546 8.34091C217.792 7.95545 218.095 7.60863 218.444 7.31185C218.784 7.01137 219.148 6.73961 219.533 6.49941C219.883 6.29809 220.258 6.14332 220.649 6.03904C220.943 5.95694 221.254 5.95694 221.547 6.03904C221.809 6.16424 222.02 6.37435 222.146 6.63483C222.295 7.03262 222.36 7.45669 222.337 7.88054V12.051C222.346 12.554 222.281 13.0557 222.146 13.5404C221.996 13.9862 221.795 14.4133 221.547 14.8132C221.301 15.1987 220.998 15.5455 220.649 15.8423C220.306 16.1432 219.932 16.4065 219.533 16.6277ZM221.384 8.50339C221.384 7.82637 221.221 7.42017 220.894 7.31185C220.567 7.20353 220.132 7.31183 219.533 7.60972C218.996 7.91448 218.539 8.34136 218.199 8.85546C217.884 9.38812 217.723 9.99759 217.736 10.6157V14.7862C217.736 15.4632 217.9 15.8694 218.199 16.0048C218.432 16.045 218.671 16.0369 218.9 15.9809C219.13 15.925 219.345 15.8225 219.533 15.6798C220.081 15.3925 220.549 14.9736 220.894 14.4612C221.23 13.926 221.4 13.3045 221.384 12.6739V8.50339ZM229.142 0.0812393C229.197 0.0548312 229.258 0.0411155 229.319 0.0411155C229.38 0.0411155 229.441 0.0548312 229.496 0.0812393C229.632 0.0812393 229.686 0.243738 229.686 0.433304C229.709 0.549625 229.709 0.669027 229.686 0.785348L220.649 26.133C220.556 26.3872 220.385 26.6053 220.159 26.7559C220.108 26.78 220.052 26.7925 219.996 26.7925C219.939 26.7925 219.883 26.78 219.832 26.7559C219.778 26.7287 219.733 26.6856 219.704 26.6323C219.675 26.5791 219.663 26.5183 219.669 26.458C219.656 26.3501 219.656 26.241 219.669 26.133L228.788 0.568696C228.802 0.452333 228.861 0.345791 228.951 0.270805C228.993 0.167248 229.059 0.0746151 229.142 0V0.0812393ZM229.523 20.7169C229.191 20.941 228.823 21.1059 228.434 21.2043C228.141 21.2864 227.83 21.2864 227.536 21.2043C227.4 21.1512 227.277 21.0709 227.174 20.9684C227.071 20.8659 226.99 20.7434 226.937 20.6086C226.777 20.2132 226.703 19.7887 226.719 19.3628V15.1924C226.719 14.688 226.792 14.1863 226.937 13.7029C227.08 13.2546 227.282 12.8267 227.536 12.4301C227.782 12.0447 228.085 11.6978 228.434 11.401C228.779 11.1067 229.143 10.8353 229.523 10.5886C229.876 10.3921 230.25 10.2376 230.639 10.1282C230.933 10.0461 231.244 10.0461 231.537 10.1282C231.805 10.2455 232.018 10.458 232.136 10.724C232.296 11.1194 232.37 11.5439 232.354 11.9697V16.1402C232.354 16.6446 232.281 17.1463 232.136 17.6297C231.998 18.0799 231.797 18.5085 231.537 18.9025C231.291 19.2879 230.988 19.6348 230.639 19.9315C230.297 20.2105 229.923 20.4469 229.523 20.6356V20.7169ZM231.374 12.5926C231.374 11.9156 231.211 11.5094 230.884 11.401C230.558 11.2927 230.122 11.401 229.523 11.6989C228.989 11.9974 228.539 12.4261 228.216 12.9447C227.88 13.4695 227.709 14.0826 227.727 14.7049V18.8754C227.727 19.5614 227.89 19.9676 228.216 20.094C228.445 20.132 228.679 20.1227 228.904 20.0668C229.129 20.0109 229.339 19.9095 229.523 19.769C230.072 19.4817 230.539 19.0628 230.884 18.5504C231.22 18.0152 231.39 17.3937 231.374 16.7631V12.5926Z" fill="white"/>
</mask>
<g mask="url(#mask1_301_3451)">
<path d="M266.026 -19.9854H201.649V41.407H266.026V-19.9854Z" fill="#527D43"/>
<path d="M266.026 -19.9854H201.649V41.407H266.026V-19.9854Z" fill="#527D43"/>
<path d="M266.026 -19.9854H201.649V41.407H266.026V-19.9854Z" fill="#527D43"/>
<path d="M266.026 -19.9854H201.649V41.407H266.026V-19.9854Z" fill="#527D43"/>
<path d="M266.026 -19.9854H201.649V41.407H266.026V-19.9854Z" fill="#527D43"/>
</g>
<mask id="mask2_301_3451" style="mask-type:luminance" maskUnits="userSpaceOnUse" x="194" y="58" width="10" height="24">
<path d="M194.952 65.942C194.959 65.2968 195.07 64.6569 195.279 64.0463C195.506 63.3827 195.807 62.7467 196.177 62.1507C196.566 61.5337 197.023 60.9615 197.539 60.4446C198.038 59.9363 198.606 59.4989 199.226 59.1447C199.791 58.8019 200.421 58.5804 201.077 58.4948C201.575 58.4268 202.081 58.5219 202.52 58.7656C202.93 59.0271 203.252 59.4042 203.445 59.8488C203.679 60.4154 203.79 61.0242 203.772 61.6361C203.768 62.6583 203.565 63.6699 203.173 64.6151C202.756 65.6382 202.256 66.6255 201.676 67.5669C201.104 68.5147 200.451 69.4896 199.743 70.4374L197.811 73.1455C197.269 73.926 196.778 74.7401 196.341 75.5828C195.975 76.2294 195.77 76.9536 195.742 77.6951V79.6178L203.5 75.1495C203.549 75.1076 203.612 75.0845 203.677 75.0845C203.742 75.0845 203.804 75.1076 203.854 75.1495C203.902 75.1994 203.94 75.259 203.963 75.3244C203.986 75.3898 203.996 75.4595 203.99 75.5286C203.98 75.7075 203.934 75.8825 203.854 76.0431C203.773 76.2067 203.651 76.3466 203.5 76.4494L195.116 81.2698C195.056 81.2967 194.991 81.3106 194.925 81.3106C194.86 81.3106 194.795 81.2967 194.735 81.2698C194.735 81.2698 194.544 81.1344 194.544 80.9448V78.2367C194.571 77.4004 194.776 76.5792 195.143 75.8265C195.578 74.8904 196.079 73.9855 196.64 73.1185C197.239 72.2248 197.865 71.277 198.573 70.4104C199.281 69.5438 199.907 68.5147 200.506 67.7023C201.071 66.8373 201.571 65.9321 202.003 64.9942C202.384 64.1408 202.587 63.2197 202.602 62.2861C202.6 61.8616 202.527 61.4404 202.384 61.0404C202.289 60.6777 202.067 60.3607 201.758 60.1467C201.446 59.9375 201.071 59.8418 200.696 59.8759C200.153 59.9182 199.629 60.0951 199.172 60.3904C198.282 60.9048 197.534 61.6305 196.994 62.5027C196.408 63.4054 196.104 64.4612 196.123 65.5358C196.129 65.7083 196.082 65.8785 195.987 66.0232C195.866 66.2159 195.697 66.3744 195.497 66.4836C195.306 66.4836 195.17 66.4836 195.089 66.4836C194.994 66.319 194.947 66.1316 194.952 65.942Z" fill="white"/>
</mask>
<g mask="url(#mask2_301_3451)">
<path d="M266.027 41.4067H201.649V102.799H266.027V41.4067Z" fill="#527D43"/>
<path d="M201.649 41.4067H137.271V102.799H201.649V41.4067Z" fill="#527D43"/>
</g>
<mask id="mask3_301_3451" style="mask-type:luminance" maskUnits="userSpaceOnUse" x="205" y="50" width="10" height="24">
<path d="M210.169 61.1488C210.722 60.8105 211.316 60.5464 211.939 60.3635C212.423 60.1963 212.951 60.1963 213.436 60.3635C213.901 60.5927 214.261 60.9897 214.443 61.4738C214.725 62.2171 214.854 63.0089 214.824 63.8028V64.3173C214.829 65.278 214.701 66.2348 214.443 67.1608C214.219 67.9804 213.88 68.7645 213.436 69.4897C212.585 70.8166 211.428 71.9216 210.06 72.7123C209.442 73.0936 208.76 73.3598 208.046 73.4977C207.557 73.6369 207.038 73.6369 206.549 73.4977C206.137 73.3286 205.805 73.0087 205.623 72.604C205.415 72.1069 205.313 71.5719 205.324 71.0333C205.315 70.8142 205.372 70.5975 205.487 70.4105C205.592 70.2564 205.721 70.1194 205.868 70.0043C206.277 69.7876 206.494 69.8688 206.494 70.248C206.465 70.6804 206.56 71.1122 206.767 71.4937C206.937 71.7855 207.208 72.0066 207.529 72.1166C207.902 72.2249 208.299 72.2249 208.672 72.1166C209.158 71.9879 209.624 71.7968 210.06 71.5479C211.195 70.9039 212.135 69.9687 212.782 68.8398C213.431 67.6634 213.751 66.3354 213.708 64.9943V64.4798C213.708 63.0445 213.408 62.1508 212.782 61.7717C212.156 61.3926 211.285 61.6092 210.06 62.2321L206.848 64.1006C206.558 64.2631 206.367 64.3173 206.277 64.2631C206.277 64.2631 206.277 64.1006 206.277 63.9382V63.6944C206.27 63.6133 206.27 63.5318 206.277 63.4507L206.712 55.3264C206.71 55.1587 206.752 54.9933 206.833 54.8463C206.914 54.6992 207.032 54.5754 207.175 54.4869L213.599 50.7769C213.762 50.7769 213.871 50.7769 213.953 50.7769C213.988 50.9009 213.988 51.032 213.953 51.156C213.977 51.3267 213.977 51.4998 213.953 51.6705C213.881 51.833 213.757 51.9666 213.599 52.0496L207.828 55.3806L207.393 62.6383L210.169 61.1488Z" fill="white"/>
</mask>
<g mask="url(#mask3_301_3451)">
<path d="M266.027 41.407H201.649V102.799H266.027V41.407Z" fill="#527D43"/>
</g>
<mask id="mask4_301_3451" style="mask-type:luminance" maskUnits="userSpaceOnUse" x="216" y="40" width="17" height="28">
<path d="M219.533 57.6554C219.192 57.856 218.826 58.0108 218.444 58.1158C218.155 58.2238 217.835 58.2238 217.546 58.1158C217.409 58.0719 217.285 57.998 217.181 57.8996C217.077 57.8011 216.997 57.6806 216.947 57.5471C216.787 57.1422 216.713 56.709 216.729 56.2743V52.1038C216.729 51.5995 216.802 51.0977 216.947 50.6144C217.079 50.1703 217.281 49.7499 217.546 49.3687C217.799 48.9799 218.101 48.6249 218.444 48.3125C218.777 48.0121 219.142 47.7488 219.533 47.5272C219.888 47.3296 220.262 47.1663 220.649 47.0397C220.94 46.9427 221.256 46.9427 221.547 47.0397C221.803 47.1613 222.012 47.3604 222.146 47.6084C222.295 48.0062 222.36 48.4303 222.337 48.8541V53.0246C222.346 53.5365 222.281 54.0471 222.146 54.5411C221.996 54.9784 221.795 55.3965 221.547 55.7868C221.301 56.1723 220.998 56.5191 220.649 56.8159C220.315 57.1424 219.94 57.4245 219.533 57.6554ZM221.384 49.5312C221.384 48.8632 221.221 48.457 220.894 48.3125C220.657 48.2749 220.414 48.2842 220.181 48.3399C219.947 48.3957 219.727 48.4968 219.533 48.6375C219.003 48.9407 218.548 49.3569 218.199 49.8561C217.884 50.3888 217.723 50.9983 217.736 51.6164V55.7868C217.736 56.4909 217.9 56.8971 218.199 57.0055C218.43 57.0584 218.669 57.0592 218.9 57.0076C219.131 56.9561 219.347 56.8535 219.533 56.7076C220.083 56.4107 220.551 55.9827 220.894 55.4619C221.23 54.937 221.401 54.3239 221.384 53.7016V49.5312ZM229.142 41.0819C229.197 41.0555 229.258 41.0418 229.319 41.0418C229.38 41.0418 229.441 41.0555 229.496 41.0819C229.632 41.0819 229.686 41.2444 229.686 41.434C229.705 41.5415 229.705 41.6515 229.686 41.759L220.649 67.1067C220.573 67.3696 220.397 67.5929 220.159 67.7295C220.11 67.761 220.054 67.7777 219.996 67.7777C219.938 67.7777 219.881 67.761 219.832 67.7295C219.777 67.711 219.731 67.6736 219.701 67.624C219.671 67.5744 219.66 67.5158 219.669 67.4587C219.651 67.3511 219.651 67.2413 219.669 67.1337L228.788 41.5423C228.815 41.4304 228.871 41.3276 228.951 41.2444C228.99 41.1311 229.055 41.0289 229.142 40.9465V41.0819ZM229.523 61.7446C229.185 61.9499 228.818 62.1049 228.434 62.205C228.145 62.313 227.826 62.313 227.536 62.205C227.402 62.1563 227.28 62.0807 227.177 61.9829C227.074 61.885 226.992 61.767 226.937 61.6363C226.78 61.2403 226.705 60.8163 226.719 60.3906V56.1931C226.719 55.6887 226.792 55.187 226.937 54.7036C227.082 54.2647 227.284 53.846 227.536 53.4579C227.789 53.0691 228.091 52.7141 228.434 52.4017C229.069 51.8256 229.821 51.3916 230.639 51.1289C230.931 51.0319 231.246 51.0319 231.537 51.1289C231.797 51.2436 232.009 51.4447 232.136 51.6976C232.296 52.0931 232.37 52.5175 232.354 52.9433V57.1138C232.354 57.627 232.281 58.1376 232.136 58.6303C231.998 59.072 231.796 59.4916 231.537 59.8761C231.291 60.2615 230.988 60.6083 230.639 60.9051C230.302 61.1908 229.927 61.4279 229.523 61.6093V61.7446ZM231.374 53.6204C231.374 52.9524 231.211 52.5462 230.884 52.4017C230.647 52.3641 230.405 52.3734 230.171 52.4292C229.937 52.4849 229.717 52.586 229.523 52.7267C228.996 53.023 228.548 53.441 228.216 53.9454C227.876 54.4786 227.705 55.1014 227.726 55.7327V59.9031C227.726 60.5802 227.89 60.9864 228.216 61.0947C228.443 61.1474 228.678 61.1479 228.904 61.0963C229.131 61.0447 229.343 60.9422 229.523 60.7968C230.073 60.5 230.541 60.0719 230.884 59.5511C231.221 59.0262 231.391 58.4131 231.374 57.7908V53.6204Z" fill="white"/>
</mask>
<g mask="url(#mask4_301_3451)">
<path d="M266.026 41.4071H201.649V102.799H266.026V41.4071Z" fill="#527D43"/>
<path d="M266.026 41.4071H201.649V102.799H266.026V41.4071Z" fill="#527D43"/>
<path d="M266.026 -19.9854H201.649V41.407H266.026V-19.9854Z" fill="#527D43"/>
<path d="M266.026 41.4071H201.649V102.799H266.026V41.4071Z" fill="#527D43"/>
<path d="M266.026 41.4071H201.649V102.799H266.026V41.4071Z" fill="#527D43"/>
<path d="M266.026 41.4071H201.649V102.799H266.026V41.4071Z" fill="#527D43"/>
</g>
<mask id="mask5_301_3451" style="mask-type:luminance" maskUnits="userSpaceOnUse" x="199" y="97" width="4" height="21">
<path d="M201.214 100.416L200.206 102.935C200.137 103.171 199.994 103.38 199.798 103.53C199.745 103.57 199.681 103.593 199.615 103.596C199.548 103.599 199.483 103.582 199.426 103.546C199.37 103.511 199.326 103.459 199.3 103.399C199.274 103.338 199.267 103.27 199.281 103.206C199.252 103.063 199.252 102.915 199.281 102.772C199.317 102.622 199.372 102.476 199.444 102.339L201.186 98.0331C201.237 97.8786 201.31 97.7326 201.404 97.5998C201.487 97.4585 201.61 97.3453 201.758 97.2748C201.814 97.2502 201.874 97.2374 201.935 97.2374C201.996 97.2374 202.056 97.2502 202.112 97.2748C202.112 97.2748 202.275 97.4102 202.275 97.6268V116.259C202.278 116.456 202.21 116.647 202.085 116.8C201.978 116.954 201.838 117.084 201.676 117.179C201.614 117.215 201.544 117.234 201.472 117.234C201.401 117.234 201.33 117.215 201.268 117.179C201.268 117.179 201.105 117.179 201.105 116.854L201.214 100.416Z" fill="white"/>
</mask>
<g mask="url(#mask5_301_3451)">
<path d="M266.026 41.407H201.649V102.799H266.026V41.407Z" fill="#527D43"/>
<path d="M266.026 102.772H201.649V164.165H266.026V102.772Z" fill="#527D43"/>
<path d="M201.649 41.4071H137.271V102.799H201.649V41.4071Z" fill="#527D43"/>
<path d="M201.649 102.772H137.271V164.165H201.649V102.772Z" fill="#527D43"/>
</g>
<mask id="mask6_301_3451" style="mask-type:luminance" maskUnits="userSpaceOnUse" x="205" y="91" width="10" height="23">
<path d="M209.897 92.6439C210.435 92.3289 211.012 92.0832 211.612 91.9127C212.051 91.7485 212.534 91.7485 212.973 91.9127C213.387 92.0929 213.717 92.4217 213.899 92.8335C214.147 93.4904 214.258 94.1906 214.225 94.8916C214.245 95.966 214.051 97.0338 213.654 98.033C213.301 98.8935 212.794 99.6827 212.156 100.362C212.495 100.318 212.84 100.36 213.159 100.483C213.477 100.606 213.76 100.806 213.98 101.066C214.503 101.948 214.732 102.972 214.633 103.991V104.316C214.638 105.23 214.519 106.141 214.28 107.024C214.05 107.833 213.712 108.607 213.272 109.326C212.85 109.997 212.347 110.615 211.775 111.167C211.202 111.687 210.572 112.141 209.897 112.521C209.321 112.87 208.698 113.135 208.046 113.307C207.552 113.474 207.016 113.474 206.522 113.307C206.063 113.051 205.714 112.636 205.542 112.142C205.26 111.389 205.13 110.589 205.161 109.786V109.461C205.12 108.27 205.321 107.084 205.752 105.972C206.182 104.86 206.832 103.845 207.665 102.989C207.38 103.024 207.09 102.982 206.827 102.867C206.564 102.753 206.336 102.57 206.168 102.339C205.724 101.587 205.533 100.714 205.623 99.8474C205.616 99.0326 205.726 98.2209 205.95 97.4372C206.149 96.7376 206.452 96.0714 206.848 95.4603C207.22 94.8716 207.679 94.342 208.209 93.8896C208.729 93.4201 209.295 93.0029 209.897 92.6439ZM213.463 104.587C213.463 103.07 213.136 102.176 212.51 101.878C212.056 101.707 211.565 101.659 211.086 101.74C210.608 101.821 210.159 102.028 209.788 102.339C208.67 102.932 207.73 103.81 207.066 104.884C206.404 106.047 206.074 107.367 206.113 108.703V109.109C206.113 110.599 206.44 111.519 207.066 111.817C207.692 112.115 208.59 112.007 209.788 111.384C210.925 110.743 211.866 109.807 212.51 108.676C213.141 107.493 213.46 106.169 213.436 104.83L213.463 104.587ZM209.897 93.7542C208.975 94.277 208.192 95.0103 207.61 95.8936C207.039 96.86 206.755 97.9684 206.794 99.0891C206.794 100.389 207.066 101.147 207.61 101.391C208.004 101.484 208.413 101.488 208.809 101.404C209.205 101.32 209.576 101.149 209.897 100.904C210.846 100.395 211.644 99.6483 212.211 98.7371C212.783 97.7611 213.066 96.6438 213.027 95.5144C213.027 94.2146 212.755 93.4834 212.211 93.2397C211.801 93.1645 211.379 93.184 210.978 93.2967C210.577 93.4094 210.207 93.6123 209.897 93.8896V93.7542Z" fill="white"/>
</mask>
<g mask="url(#mask6_301_3451)">
<path d="M266.026 41.4067H201.649V102.799H266.026V41.4067Z" fill="#527D43"/>
<path d="M266.026 102.772H201.649V164.164H266.026V102.772Z" fill="#527D43"/>
<path d="M266.026 41.4067H201.649V102.799H266.026V41.4067Z" fill="#527D43"/>
<path d="M266.026 102.772H201.649V164.164H266.026V102.772Z" fill="#527D43"/>
<path d="M266.026 41.4067H201.649V102.799H266.026V41.4067Z" fill="#527D43"/>
</g>
<mask id="mask7_301_3451" style="mask-type:luminance" maskUnits="userSpaceOnUse" x="216" y="80" width="17" height="28">
<path d="M219.533 97.2475C219.192 97.448 218.826 97.6028 218.444 97.7079C218.155 97.8159 217.835 97.8159 217.546 97.7079C217.409 97.664 217.285 97.5901 217.181 97.4916C217.077 97.3932 216.997 97.2727 216.947 97.1392C216.787 96.7343 216.713 96.301 216.729 95.8664V91.6959C216.729 91.1916 216.802 90.6898 216.947 90.2065C217.079 89.7624 217.281 89.3419 217.546 88.9608C217.792 88.5669 218.094 88.211 218.444 87.9046C218.777 87.6042 219.142 87.3409 219.533 87.1193C219.883 86.9104 220.258 86.7466 220.649 86.6318C220.94 86.5348 221.256 86.5348 221.547 86.6318C221.803 86.7534 222.012 86.9526 222.146 87.2005C222.295 87.5983 222.36 88.0224 222.337 88.4462V92.6167C222.346 93.1286 222.281 93.6392 222.146 94.1332C221.996 94.5704 221.795 94.9885 221.547 95.3789C221.301 95.7644 220.998 96.1112 220.649 96.408C220.315 96.7344 219.94 97.0166 219.533 97.2475ZM221.384 89.1232C221.384 88.4552 221.221 88.049 220.894 87.9046C220.657 87.8588 220.413 87.864 220.178 87.9201C219.943 87.9762 219.723 88.0817 219.533 88.2296C219.003 88.5328 218.548 88.949 218.199 89.4482C217.884 89.9809 217.723 90.5904 217.736 91.2085V95.3789C217.736 96.083 217.9 96.4893 218.199 96.5976C218.43 96.6505 218.669 96.6512 218.9 96.5997C219.131 96.5481 219.347 96.4456 219.533 96.2997C220.077 95.9943 220.543 95.5679 220.894 95.0539C221.23 94.5291 221.401 93.916 221.384 93.2937V89.1232ZM229.142 80.674C229.197 80.6476 229.258 80.6339 229.319 80.6339C229.38 80.6339 229.441 80.6476 229.496 80.674C229.632 80.674 229.686 80.674 229.686 81.0261C229.705 81.1336 229.705 81.2435 229.686 81.351L220.649 106.699C220.573 106.962 220.397 107.185 220.159 107.322C220.11 107.353 220.054 107.37 219.996 107.37C219.938 107.37 219.881 107.353 219.832 107.322C219.777 107.303 219.731 107.266 219.701 107.216C219.671 107.166 219.66 107.108 219.669 107.051C219.651 106.943 219.651 106.833 219.669 106.726L228.788 81.1344C228.815 81.0225 228.871 80.9196 228.951 80.8365C228.997 80.7427 229.062 80.6596 229.142 80.5928V80.674ZM229.55 101.337C229.2 101.538 228.825 101.693 228.434 101.797C228.145 101.905 227.826 101.905 227.536 101.797C227.402 101.748 227.28 101.673 227.177 101.575C227.074 101.477 226.992 101.359 226.937 101.228C226.777 100.823 226.703 100.39 226.719 99.9556V95.7851C226.719 95.2808 226.792 94.779 226.937 94.2957C227.082 93.8567 227.284 93.4381 227.536 93.05C227.789 92.6612 228.091 92.3062 228.434 91.9938C228.777 91.6929 229.151 91.4297 229.55 91.2085C229.897 91.0114 230.261 90.8482 230.639 90.721C230.931 90.624 231.246 90.624 231.537 90.721C231.803 90.8272 232.017 91.0308 232.136 91.2897C232.296 91.6851 232.37 92.1096 232.354 92.5354V96.7059C232.354 97.2191 232.281 97.7297 232.136 98.2224C231.998 98.6641 231.796 99.0836 231.537 99.4681C231.291 99.8536 230.988 100.2 230.639 100.497C230.304 100.787 229.939 101.042 229.55 101.255V101.337ZM231.374 93.2125C231.374 92.5084 231.211 92.1292 230.884 91.9938C230.651 91.9552 230.413 91.9642 230.184 92.02C229.954 92.0759 229.739 92.1776 229.55 92.3188C229.01 92.607 228.551 93.0261 228.216 93.5374C227.88 94.0623 227.709 94.6754 227.726 95.2977V99.4681C227.726 100.172 227.89 100.578 228.216 100.687C228.447 100.738 228.686 100.738 228.917 100.686C229.147 100.635 229.364 100.533 229.55 100.389C230.081 100.076 230.536 99.6505 230.884 99.1432C231.221 98.6183 231.391 98.0052 231.374 97.3829V93.2125Z" fill="white"/>
</mask>
<g mask="url(#mask7_301_3451)">
<path d="M266.026 41.4066H201.649V102.799H266.026V41.4066Z" fill="#527D43"/>
<path d="M266.026 41.4066H201.649V102.799H266.026V41.4066Z" fill="#527D43"/>
<path d="M266.026 41.4066H201.649V102.799H266.026V41.4066Z" fill="#527D43"/>
<path d="M266.026 102.772H201.649V164.165H266.026V102.772Z" fill="#527D43"/>
<path d="M266.026 41.4066H201.649V102.799H266.026V41.4066Z" fill="#527D43"/>
<path d="M266.026 41.4066H201.649V102.799H266.026V41.4066Z" fill="#527D43"/>
</g>
<mask id="mask8_301_3451" style="mask-type:luminance" maskUnits="userSpaceOnUse" x="216" y="118" width="17" height="28">
<path d="M219.78 135.282C219.44 135.482 219.073 135.637 218.692 135.742C218.402 135.85 218.083 135.85 217.793 135.742C217.657 135.698 217.532 135.624 217.429 135.526C217.325 135.427 217.245 135.307 217.195 135.173C217.035 134.769 216.961 134.335 216.977 133.901V129.73C216.974 129.235 217.048 128.741 217.195 128.268C217.321 127.813 217.524 127.383 217.793 126.995C218.046 126.606 218.348 126.251 218.692 125.939C219.025 125.638 219.39 125.375 219.78 125.154C220.136 124.956 220.51 124.793 220.897 124.666C221.188 124.569 221.503 124.569 221.795 124.666C222.05 124.788 222.26 124.987 222.394 125.235C222.543 125.633 222.608 126.057 222.584 126.481V130.732C222.593 131.244 222.529 131.755 222.394 132.249C222.244 132.686 222.043 133.104 221.795 133.494C221.548 133.88 221.246 134.227 220.897 134.524C220.558 134.821 220.183 135.076 219.78 135.282ZM221.632 127.158C221.632 126.49 221.468 126.083 221.142 125.939C220.904 125.901 220.662 125.911 220.428 125.966C220.195 126.022 219.975 126.123 219.78 126.264C219.251 126.567 218.795 126.983 218.447 127.483C218.131 128.015 217.971 128.625 217.984 129.243V133.44C217.984 134.144 218.147 134.551 218.447 134.659C218.677 134.712 218.917 134.713 219.148 134.661C219.379 134.61 219.595 134.507 219.78 134.361C220.331 134.064 220.798 133.636 221.142 133.115C221.478 132.591 221.649 131.977 221.632 131.355V127.158ZM229.39 118.708C229.445 118.682 229.505 118.668 229.566 118.668C229.628 118.668 229.688 118.682 229.743 118.708C229.879 118.708 229.934 118.871 229.934 119.06C229.953 119.168 229.953 119.278 229.934 119.385L220.897 144.733C220.821 144.996 220.645 145.219 220.407 145.356C220.358 145.387 220.301 145.404 220.243 145.404C220.185 145.404 220.129 145.387 220.08 145.356C220.025 145.337 219.978 145.3 219.948 145.25C219.918 145.201 219.907 145.142 219.917 145.085C219.899 144.977 219.899 144.868 219.917 144.76L229.036 119.169C229.063 119.057 229.119 118.954 229.199 118.871C229.244 118.777 229.309 118.694 229.39 118.627V118.708ZM229.771 139.371C229.427 139.573 229.062 139.736 228.682 139.858C228.388 139.941 228.077 139.941 227.783 139.858C227.516 139.741 227.302 139.529 227.185 139.263C227.027 138.867 226.953 138.443 226.967 138.017V133.847C226.959 132.883 227.244 131.939 227.783 131.138C228.036 130.75 228.338 130.395 228.682 130.082C229.02 129.788 229.384 129.525 229.771 129.297C230.123 129.1 230.498 128.946 230.887 128.837C231.176 128.729 231.495 128.729 231.785 128.837C232.045 128.951 232.257 129.152 232.384 129.405C232.544 129.801 232.618 130.225 232.602 130.651V134.821C232.602 135.335 232.528 135.845 232.384 136.338C232.245 136.78 232.044 137.199 231.785 137.584C231.282 138.358 230.589 138.992 229.771 139.425V139.371ZM231.622 131.247C231.622 130.579 231.458 130.173 231.132 130.028C230.894 129.99 230.652 130 230.419 130.056C230.185 130.111 229.965 130.212 229.771 130.353C229.243 130.649 228.795 131.067 228.464 131.572C228.124 132.105 227.953 132.728 227.974 133.359V137.53C227.974 138.207 228.137 138.613 228.464 138.721C228.69 138.774 228.926 138.774 229.152 138.723C229.378 138.671 229.59 138.569 229.771 138.423C230.321 138.126 230.789 137.698 231.132 137.177C231.468 136.653 231.639 136.039 231.622 135.417V131.247Z" fill="white"/>
</mask>
<g mask="url(#mask8_301_3451)">
<path d="M266.274 95.881H201.897V157.273H266.274V95.881Z" fill="#527D43"/>
<path d="M266.274 95.881H201.897V157.273H266.274V95.881Z" fill="#527D43"/>
<path d="M266.274 95.881H201.897V157.273H266.274V95.881Z" fill="#527D43"/>
<path d="M266.274 95.881H201.897V157.273H266.274V95.881Z" fill="#527D43"/>
<path d="M266.274 95.881H201.897V157.273H266.274V95.881Z" fill="#527D43"/>
</g>
<mask id="mask9_301_3451" style="mask-type:luminance" maskUnits="userSpaceOnUse" x="192" y="15" width="10" height="24">
<path d="M196.86 26.2906C197.443 25.9437 198.077 25.688 198.738 25.5323C199.223 25.3673 199.75 25.3673 200.235 25.5323C200.701 25.7615 201.061 26.1586 201.242 26.6427C201.514 27.3882 201.634 28.1797 201.596 28.9716V29.4861C201.61 30.4456 201.491 31.4024 201.242 32.3296C201.019 33.1492 200.68 33.9333 200.235 34.6586C199.803 35.3308 199.291 35.949 198.711 36.5001C198.14 37.0308 197.51 37.4942 196.833 37.8812C196.226 38.2662 195.552 38.5327 194.846 38.6665C194.344 38.7621 193.825 38.7152 193.348 38.5312C192.936 38.362 192.605 38.0422 192.423 37.6375C192.192 37.1465 192.08 36.6086 192.096 36.0668C192.088 35.8477 192.144 35.631 192.26 35.4439C192.367 35.283 192.506 35.1449 192.668 35.0377C193.076 34.8211 193.294 34.9023 193.294 35.2814C193.265 35.7139 193.359 36.1457 193.566 36.5272C193.731 36.824 194.004 37.0469 194.328 37.15C194.702 37.2583 195.098 37.2583 195.472 37.15C195.95 37.0258 196.408 36.8343 196.833 36.5813C197.956 35.9832 198.897 35.0943 199.555 34.0086C200.213 32.8348 200.542 31.5067 200.508 30.1631V29.6486C200.508 28.2133 200.181 27.3197 199.555 26.9405C199.101 26.7688 198.609 26.7209 198.131 26.8019C197.652 26.8828 197.204 27.0897 196.833 27.4009L193.621 29.2695C193.312 29.4319 193.122 29.4861 193.049 29.432C193.049 29.432 193.049 29.2695 193.049 29.107V28.6195L193.512 20.4953C193.507 20.3301 193.544 20.1664 193.62 20.0195C193.697 19.8727 193.809 19.7475 193.947 19.6558L200.399 15.9457C200.535 15.9457 200.671 15.9457 200.725 15.9457C200.771 16.0679 200.771 16.2026 200.725 16.3248C200.761 16.4945 200.761 16.6697 200.725 16.8394C200.663 16.9988 200.547 17.1324 200.399 17.2185L194.628 20.5495L194.192 27.8071L196.86 26.2906Z" fill="white"/>
</mask>
<g mask="url(#mask9_301_3451)">
<path d="M263.741 -18.8535H199.364V42.5388H263.741V-18.8535Z" fill="#527D43"/>
<path d="M199.363 -18.8535H134.986V42.5388H199.363V-18.8535Z" fill="#527D43"/>
</g>
<mask id="mask10_301_3451" style="mask-type:luminance" maskUnits="userSpaceOnUse" x="203" y="10" width="10" height="24">
<path d="M203.692 18.4371C203.687 17.7932 203.788 17.1528 203.992 16.5415C204.213 15.8757 204.514 15.2391 204.89 14.6458C205.274 14.0253 205.731 13.4525 206.251 12.9397C206.756 12.4293 207.323 11.9836 207.939 11.6128C208.505 11.2741 209.135 11.053 209.79 10.9628C210.283 10.8977 210.783 10.9982 211.212 11.2484C211.642 11.4986 211.974 11.8842 212.158 12.3439C212.391 12.9105 212.502 13.5194 212.485 14.1313C212.48 15.1446 212.277 16.1474 211.886 17.0831C211.479 18.1057 210.987 19.0931 210.416 20.0349C209.817 21.0098 209.164 21.9847 208.483 22.9326C207.803 23.8804 207.122 24.7741 206.55 25.6406C206 26.4301 205.5 27.2532 205.053 28.105C204.685 28.7406 204.479 29.4568 204.454 30.1903V32.113L212.24 27.6446C212.29 27.6185 212.346 27.6049 212.403 27.6049C212.46 27.6049 212.516 27.6185 212.566 27.6446C212.659 27.7489 212.708 27.8847 212.702 28.0238C212.693 28.2114 212.647 28.3955 212.566 28.5654C212.54 28.6469 212.497 28.7223 212.441 28.7874C212.385 28.8525 212.317 28.9059 212.24 28.9445L203.856 33.7649C203.733 33.8132 203.597 33.8132 203.474 33.7649C203.474 33.7649 203.284 33.6295 203.284 33.4129V30.7048C203.301 29.8671 203.505 29.0437 203.883 28.2946C204.319 27.3639 204.81 26.4596 205.353 25.5865C205.952 24.6658 206.605 23.745 207.285 22.8784C207.966 22.0118 208.646 20.9828 209.218 20.1703C209.788 19.3081 210.288 18.4026 210.715 17.4623C211.117 16.6158 211.322 15.6902 211.314 14.7542C211.321 14.3224 211.257 13.8923 211.124 13.4814C211.003 13.131 210.786 12.8214 210.497 12.5877C210.169 12.3938 209.79 12.2996 209.409 12.3169C208.877 12.3727 208.365 12.5487 207.911 12.8314C207.019 13.3527 206.264 14.0765 205.707 14.9437C205.133 15.861 204.84 16.9241 204.863 18.0039C204.851 18.1775 204.794 18.3452 204.699 18.4913C204.583 18.6813 204.413 18.8322 204.209 18.9246C204.046 18.9246 203.883 18.9246 203.801 18.9246C203.719 18.9246 203.692 18.7892 203.692 18.4371Z" fill="white"/>
</mask>
<g mask="url(#mask10_301_3451)">
<path d="M263.742 -18.8529H199.364V42.5394H263.742V-18.8529Z" fill="#527D43"/>
</g>
<g clip-path="url(#clip0_301_3451)">
<path d="M3.33361 269.611L14.2783 275.981L151.904 183.045L162.848 106.556L151.904 100.186L136.831 98.3206L120.39 117.479L105.797 119.078L90.7235 135.282L75.6745 146.714L62.9056 147.513L50.1128 169.724L42.8163 163.208L31.8715 156.814L19.0787 183.409L3.33361 197.893V269.611Z" fill="#FFB9A5"/>
<path d="M14.2783 275.981L162.848 189.44V106.556L147.775 104.715L131.358 123.849L116.741 125.448L101.692 141.676L86.6192 153.108L73.8504 153.908L61.0815 176.094L42.8163 163.208L30.0234 189.803L14.2783 204.287V275.981Z" fill="#D78F79"/>
<path d="M14.2782 275.981L25.2469 282.351L162.848 189.44L173.793 120.919L162.848 114.548L148.231 127.313L131.358 133.949L116.741 155.215L101.692 151.243L86.6191 160.011L73.8502 173.308L61.0813 196.173L42.8161 195.107L30.0233 206.273L14.2782 223.421V275.981Z" fill="#FFC65C"/>
<path d="M25.2469 282.351L173.793 195.81V120.919L159.2 133.683L142.303 140.344L127.71 161.61L112.637 157.613L97.5878 166.406L84.7949 179.703L72.0261 202.567L53.7608 201.502L40.992 212.668L25.2469 229.816V282.351Z" fill="#C4953B"/>
<path d="M25.2472 282.351L36.1919 288.746L173.793 195.81L184.762 149.645L173.793 143.275L158.744 140.344L145.039 160.011L127.71 174.374L112.637 174.641L97.5881 175.973L84.7952 189.803L72.0263 220.055L53.7611 222.235L40.9923 227.031L25.2472 262.466V282.351Z" fill="#96DBC6"/>
<path d="M36.1919 288.745L184.762 202.204V149.645L169.689 146.714L156.008 166.405L138.655 180.744L123.606 181.011L108.533 182.343L95.7639 196.173L82.9711 226.449L64.7299 228.605L51.937 233.401L36.1919 268.86V288.745Z" fill="#82BC96"/>
<path d="M36.1918 288.746L47.1605 295.116L184.762 202.204L195.707 188.471L184.762 182.077L169.233 174.641L152.816 191.644L137.287 193.243L123.606 207.073L119.021 200.703L108.077 194.308L95.7638 230.155L83.0429 237.567L64.7297 256.798L51.4808 254.4L36.1918 284.047V288.746Z" fill="white"/>
<path d="M47.1605 295.115L195.707 208.574V188.471L180.177 181.011L163.76 198.038L148.231 199.637L134.55 213.467L119.021 200.702L106.709 236.549L93.9877 243.961L75.6744 263.192L62.4495 260.794L47.1605 290.441V295.115Z" fill="#D9D9D9"/>
</g>
<g clip-path="url(#clip1_301_3451)">
<path d="M599.755 590.711C561.536 612.649 499.568 612.649 461.428 590.711C423.288 568.773 423.209 533.123 461.428 511.107C499.647 489.09 561.536 489.168 599.755 511.107C637.973 533.045 637.973 568.694 599.755 590.711Z" fill="#FFB9A5"/>
<path d="M599.755 590.711C561.536 612.649 499.568 612.649 461.428 590.711V598.546C499.568 620.484 561.536 620.484 599.755 598.546C619.1 587.42 628.615 572.768 628.379 558.195V550.36C628.615 564.933 619.1 579.585 599.755 590.711Z" fill="#EA7A73"/>
<path d="M532.125 524.896L531.495 549.89L529.844 550.439L461.428 511.107V484.624L532.125 524.896Z" fill="#EA7A73"/>
<path d="M531.495 524.975V551.144L600.698 511.342L600.777 484.859L531.495 524.975Z" fill="#EA7A73"/>
<path opacity="0.4" d="M600.698 485.094L531.495 525.21L461.428 484.859C499.804 462.686 562.086 462.764 600.698 485.094Z" fill="#FFB9A5"/>
<path d="M432.489 534.533V548.166L531.496 550.125V534.533H432.489Z" fill="#EA7A73"/>
<path opacity="0.4" d="M461.349 494.104C442.161 505.309 432.489 519.882 432.41 534.534H531.26L461.349 494.104Z" fill="#FFB9A5"/>
<path d="M461.271 582.562C448.637 576.246 438.823 565.462 433.747 552.319C432.874 549.26 432.424 546.097 432.41 542.917V545.346C432.147 552.502 432.595 559.667 433.747 566.736V567.284C436.078 574.105 439.756 580.392 444.564 585.775C449.372 591.157 455.213 595.526 461.742 598.624L463.708 599.643V583.973L461.271 582.562Z" fill="#EA7A73"/>
<path d="M531.496 543.074V551.144L463.866 592.121V584.051L531.496 543.074Z" fill="#EA7A73"/>
<path opacity="0.4" d="M531.26 543.074L463.63 584.051L461.035 582.562C448.401 576.246 438.587 565.462 433.511 552.319C432.638 549.26 432.188 546.097 432.174 542.917L531.26 543.074Z" fill="#FFB9A5"/>
</g>
<g clip-path="url(#clip2_301_3451)">
<path d="M78.4805 509.132V430.154L58.8246 418.754L76.6559 408.014L85.6961 413.302V513.263L105.518 524.581V412.393L85.6961 400.992L93.3262 396.449C98.4179 395.498 103.675 395.985 108.504 397.853C110.772 398.682 112.988 399.647 115.139 400.744C115.429 403.518 116.321 406.196 117.753 408.592C119.185 410.989 121.123 413.047 123.432 414.623V443.455L130.731 439.077L150.47 450.395V475.839L157.685 471.461L177.424 482.861V544.903L172.531 547.795C175.335 550.176 177.091 553.557 177.424 557.212C177.48 557.906 177.348 558.601 177.041 559.226C176.735 559.851 176.266 560.382 175.682 560.765L159.095 570.596C159.742 569.774 160.066 568.746 160.007 567.704C159.785 565.449 159.03 563.278 157.805 561.368C156.58 559.459 154.919 557.865 152.958 556.717C150.138 555.147 147.816 555.395 146.655 557.212L59.4051 506.736L66.5377 502.11L78.4805 509.132ZM139.688 544.325L159.427 555.643V493.849L139.688 482.448V544.325ZM112.733 528.794L132.472 540.112V460.804L112.733 449.486V528.794Z" fill="url(#paint1_linear_301_3451)"/>
<path d="M58.327 391.822C58.5186 391.721 58.7322 391.668 58.9491 391.668C59.166 391.668 59.3795 391.721 59.5711 391.822C63.4418 394.312 67.8476 395.856 72.4305 396.33C77.0133 396.804 81.6437 396.193 85.945 394.549C93.6082 391.785 102.002 391.785 109.665 394.549C111.815 395.309 113.92 396.192 115.968 397.192C117.461 394.796 120.696 394.383 124.262 396.614C126.632 398.052 128.679 399.96 130.277 402.22C131.875 404.48 132.989 407.042 133.551 409.749C145.805 422.122 155.152 437.048 160.92 453.451C161.012 453.778 161.006 454.124 160.903 454.447C160.8 454.77 160.604 455.055 160.339 455.269L178.088 444.694C178.411 444.491 178.653 444.182 178.774 443.821C178.895 443.459 178.887 443.068 178.751 442.712C173.016 426.292 163.665 411.36 151.382 399.01C150.869 396.296 149.783 393.721 148.196 391.457C146.609 389.192 144.557 387.289 142.176 385.874C138.361 383.644 135.127 384.057 133.882 386.453C131.834 385.452 129.729 384.569 127.579 383.809C119.916 381.045 111.523 381.045 103.859 383.809C99.5682 385.434 94.9544 386.033 90.3884 385.56C85.8225 385.086 81.4316 383.553 77.5684 381.083C77.2688 381.009 76.9557 381.009 76.6561 381.083H75.9926L58.327 391.822Z" fill="url(#paint2_linear_301_3451)"/>
<g opacity="0.7">
<path d="M139.605 482.2V544.325L159.344 555.643V493.601L139.605 482.2Z" fill="#F5FFCD"/>
<path d="M112.65 449.816V528.794L132.389 540.112V461.134L112.65 449.816Z" fill="#F5FFCD"/>
<path d="M58.7415 418.754V497.731L66.5376 502.275L78.4805 509.132V430.154L58.7415 418.754Z" fill="#F5FFCD"/>
<path d="M85.6961 400.992V513.263L105.435 524.58V412.31L85.6961 400.992Z" fill="#F5FFCD"/>
<path d="M57.9122 394.714C62.1431 397.484 66.9775 399.207 72.0125 399.739C77.0475 400.27 82.1371 399.596 86.8571 397.77L93.3262 396.283C98.4178 395.333 103.675 395.819 108.504 397.688C110.772 398.516 112.988 399.482 115.139 400.579C118.019 402.032 120.79 403.688 123.432 405.536C126.969 407.984 130.272 410.749 133.302 413.797C144.369 425.423 152.847 439.246 158.183 454.36C158.314 454.694 158.541 454.982 158.836 455.188C159.132 455.394 159.481 455.508 159.842 455.516H160.422C160.586 455.555 160.756 455.555 160.92 455.516C161.184 455.303 161.38 455.017 161.483 454.694C161.586 454.371 161.592 454.025 161.5 453.699C155.733 437.295 146.385 422.37 134.131 409.997C128.907 404.917 122.919 400.68 116.383 397.44C114.334 396.439 112.23 395.557 110.079 394.796C102.416 392.032 94.0227 392.032 86.3595 394.796C82.0582 396.441 77.4278 397.051 72.845 396.578C68.2621 396.104 63.8563 394.56 59.9856 392.07C59.7941 391.969 59.5804 391.916 59.3636 391.916C59.1467 391.916 58.9331 391.969 58.7416 392.07C58.3624 392.163 58.0349 392.4 57.8293 392.731C57.6379 393.03 57.5432 393.381 57.5581 393.735C57.5729 394.09 57.6965 394.431 57.9122 394.714Z" fill="#EEFED7"/>
<path d="M115.305 400.579C115.595 403.353 116.487 406.03 117.919 408.427C119.351 410.823 121.289 412.881 123.598 414.458L124.676 415.119C128.823 417.432 132.224 416.854 133.468 413.962C133.768 413.431 133.939 412.837 133.965 412.227C134.006 411.898 134.006 411.565 133.965 411.236C134.007 410.714 134.007 410.189 133.965 409.666C133.404 406.959 132.29 404.397 130.692 402.137C129.094 399.877 127.046 397.969 124.676 396.531C120.944 394.3 117.71 394.713 116.383 397.109C115.701 398.141 115.327 399.344 115.305 400.579Z" fill="#EEFED7"/>
<path d="M58.8245 506.984V513.758L146.82 564.647C148.023 567.232 149.953 569.413 152.377 570.926C155.114 572.496 157.353 572.248 158.515 570.926C159.161 570.105 159.485 569.077 159.427 568.035C159.204 565.779 158.45 563.608 157.225 561.699C156 559.789 154.339 558.195 152.377 557.047C149.557 555.477 147.235 555.725 146.074 557.543L58.8245 506.984Z" fill="#EEFED7"/>
</g>
</g>
<defs>
<filter id="filter0_d_301_3451" x="270.058" y="43.5444" width="333.727" height="337.271" filterUnits="userSpaceOnUse" color-interpolation-filters="sRGB">
<feFlood flood-opacity="0" result="BackgroundImageFix"/>
<feColorMatrix in="SourceAlpha" type="matrix" values="0 0 0 0 0 0 0 0 0 0 0 0 0 0 0 0 0 0 127 0" result="hardAlpha"/>
<feOffset dy="4"/>
<feGaussianBlur stdDeviation="2"/>
<feComposite in2="hardAlpha" operator="out"/>
<feColorMatrix type="matrix" values="0 0 0 0 0 0 0 0 0 0 0 0 0 0 0 0 0 0 0.25 0"/>
<feBlend mode="normal" in2="BackgroundImageFix" result="effect1_dropShadow_301_3451"/>
<feBlend mode="normal" in="SourceGraphic" in2="effect1_dropShadow_301_3451" result="shape"/>
</filter>
<linearGradient id="paint0_linear_301_3451" x1="392.745" y1="286.928" x2="483.105" y2="130.363" gradientUnits="userSpaceOnUse">
<stop stop-color="#DC7F6A"/>
<stop offset="1" stop-color="#F0EAC8"/>
</linearGradient>
<linearGradient id="paint1_linear_301_3451" x1="177.341" y1="483.44" x2="58.8246" y2="483.44" gradientUnits="userSpaceOnUse">
<stop stop-color="#9CCDA8"/>
<stop offset="1" stop-color="#82BC96"/>
</linearGradient>
<linearGradient id="paint2_linear_301_3451" x1="179" y1="418.176" x2="58.327" y2="418.176" gradientUnits="userSpaceOnUse">
<stop stop-color="#82BC96"/>
<stop offset="1" stop-color="#E9FFDD"/>
</linearGradient>
<clipPath id="clip0_301_3451">
<rect width="197" height="199" fill="white" transform="matrix(-1 0 0 1 197 98.4845)"/>
</clipPath>
<clipPath id="clip1_301_3451">
<rect width="196.048" height="146.751" fill="white" transform="translate(432.41 468.249)"/>
</clipPath>
<clipPath id="clip2_301_3451">
<rect width="122" height="191" fill="white" transform="matrix(-1 0 0 1 179 381)"/>
</clipPath>
</defs>
</svg>
